<svg width="20" height="21" viewBox="0 0 20 21" xmlns="http://www.w3.org/2000/svg"><title>undo</title><path d="M8.281 9.25H.47a.452.452 0 0 1-.332-.137A.452.452 0 0 1 0 8.781V.97C0 .839.046.728.137.637A.452.452 0 0 1 .469.5h1.875c.13 0 .24.046.332.137a.452.452 0 0 1 .136.332v3.047a9.508 9.508 0 0 1 3.262-2.364 9.77 9.77 0 0 1 4.004-.84c1.77 0 3.392.437 4.863 1.31a9.532 9.532 0 0 1 3.477 3.534c.846 1.485 1.27 3.106 1.27 4.864 0 1.757-.437 3.372-1.31 4.843a9.886 9.886 0 0 1-3.515 3.516c-1.471.872-3.092 1.308-4.863 1.308a9.476 9.476 0 0 1-3.516-.664 9.637 9.637 0 0 1-2.968-1.835.486.486 0 0 1-.157-.352c0-.13.04-.247.118-.352l1.328-1.328a.544.544 0 0 1 .332-.117.55.55 0 0 1 .332.117c.599.547 1.289.97 2.07 1.27.781.3 1.602.449 2.461.449 1.25 0 2.402-.306 3.457-.918a6.772 6.772 0 0 0 2.5-2.5 6.767 6.767 0 0 0 .918-3.457c0-1.25-.306-2.402-.918-3.457a6.772 6.772 0 0 0-2.5-2.5A6.767 6.767 0 0 0 10 3.625a6.6 6.6 0 0 0-3.125.762 7.227 7.227 0 0 0-2.422 2.05h3.828c.13 0 .241.046.332.137a.452.452 0 0 1 .137.332v1.875c0 .13-.046.241-.137.332a.452.452 0 0 1-.332.137z" fill="#959DA5" fill-rule="evenodd"/></svg>