<?xml version="1.0" encoding="UTF-8"?>
<svg width="48px" height="48px" viewBox="0 0 48 48" version="1.1" xmlns="http://www.w3.org/2000/svg" xmlns:xlink="http://www.w3.org/1999/xlink">
    <!-- Generator: Sketch 51.3 (57544) - http://www.bohemiancoding.com/sketch -->
    <title>bottom-businesssuitpants</title>
    <desc>Created with Sketch.</desc>
    <defs></defs>
    <g id="SVGs" stroke="none" stroke-width="1" fill="none" fill-rule="evenodd">
        <g id="Slices" transform="translate(-413.000000, -177.000000)"></g>
        <g id="Group-13" transform="translate(14.000000, 10.000000)" fill-rule="nonzero">
            <path d="M9.72791478,10.0215635 L6.06713512,28.2827539 L0.577500157,27.2454766 L3.23444141,0.332559056 L17.2365163,0.332559056 L19.8557,27.2454766 L14.366065,28.2827539 L10.7185591,10.0216202 C10.6714023,9.78553083 10.4641316,9.61556645 10.2233787,9.61556645 L10.2233787,9.61556645 C9.98258695,9.61556645 9.77524411,9.78546898 9.72791478,10.0215635 Z" id="Combined-Shape" stroke="#888888" stroke-width="0.771552" fill="#888888" stroke-linejoin="round"></path>
            <path d="M4.41081164,19.2570047 L3.30444146,26.524031" id="Line-6" stroke="#64646A" stroke-width="0.5400864" stroke-linecap="round"></path>
            <path d="M5.85940656,9.2969226 L4.9757706,15.2463694" id="Line-6" stroke="#64646A" stroke-width="0.5400864" stroke-linecap="round"></path>
            <path d="M16.8522012,19.2570047 L15.745831,26.524031" id="Line-6" stroke="#64646A" stroke-width="0.5400864" stroke-linecap="round" transform="translate(16.299016, 22.890518) scale(-1, 1) translate(-16.299016, -22.890518) "></path>
            <path d="M15.331712,9.41473647 C15.331712,9.41473647 14.9952807,11.3586141 14.3224182,15.2463694" id="Line-6" stroke="#64646A" stroke-width="0.5400864" stroke-linecap="round" transform="translate(14.827065, 12.330553) scale(-1, 1) translate(-14.827065, -12.330553) "></path>
            <path d="M2.76489223,2.17927206 C12.7005027,2.17927206 17.6683079,2.17927206 17.6683079,2.17927206" id="Line-4" stroke="#64646A" stroke-width="0.5400864" stroke-linecap="round"></path>
            <path d="M9.79101351,2.32433784 L9.79101351,9.44451295 C10.9270278,8.91180569 11.4950349,8.1384344 11.4950349,7.12439907 C11.4950349,6.11036374 11.4950349,3.81668392 11.4950349,0.243359597" id="Path-10" stroke="#64646A" stroke-width="0.5400864" stroke-linecap="round" stroke-linejoin="round"></path>
            <path d="M4.86495033,1.88861515 L4.86495033,0.234790146" id="Line-5" stroke="#64646A" stroke-width="0.5400864" stroke-linecap="square"></path>
            <path d="M15.5246,1.88861515 L15.5246,0.234790146" id="Line-5-Copy-5" stroke="#64646A" stroke-width="0.5400864" stroke-linecap="square"></path>
            <path d="M8.06122197,1.88861515 L8.06122197,0.234790146" id="Line-5-Copy-4" stroke="#64646A" stroke-width="0.5400864" stroke-linecap="square"></path>
            <path d="M13.2778602,1.98638406 L13.2778602,0.332559056" id="Line-5-Copy-6" stroke="#64646A" stroke-width="0.5400864" stroke-linecap="square"></path>
            <path d="M4.67206233,2.24261018 C4.67206233,4.16912218 4.53851694,5.42641463 4.27142616,6.01448752 C3.87079,6.89659685 3.07714077,7.34203782 2.13671664,7.34203782" id="Path-19" stroke="#64646A" stroke-width="0.5400864"></path>
            <path d="M18.2811767,2.24261018 C18.2811767,4.16912218 18.1476313,5.42641463 17.8805405,6.01448752 C17.4799043,6.89659685 16.6862551,7.34203782 15.745831,7.34203782" id="Path-19" stroke="#64646A" stroke-width="0.5400864" transform="translate(17.013504, 4.792324) scale(-1, 1) translate(-17.013504, -4.792324) "></path>
        </g>
    </g>
</svg>