
<svg version="1.1" id="Layer_1" xmlns="http://www.w3.org/2000/svg" xmlns:xlink="http://www.w3.org/1999/xlink" x="0px" y="0px"
	 viewBox="0 0 2000 2000" enable-background="new 0 0 2000 2000" xml:space="preserve">
<g>
	<g>
		<path fill="#FFFFFF" d="M698.7,262.6c8.1,4.8,5.7,8.1,7.6,17.1c1.9,9,1,18.6,0,28.1c-2.9,27.1,54.3,145.7,40,169
			c152.4-21,157.6-21.9,309.9-3.3c-4.8-22.9,77.1-135.2,66.2-155.7c-3.3-6.2-6.7-11.9-8.1-18.6c-2.4-11.4,2.4-22.9,1.4-34.3
			c-24.8,0-49.5-4.3-73.3-11.9c-15.2-5.2-30-11.4-45.7-13.8c-29.5-3.8-58.6,8.6-88.1,8.6c-14.3,0-28.6-2.9-42.9-2.4
			c-21,1-40.9,8.6-61.9,11.4c-32.9,4.8-65.7-3.3-98.6-3.3c-2.9,0-5.7,0-7.6,1.9C695.4,258.3,695.9,262.1,698.7,262.6"/>
		<g>
			<path d="M690.2,271.2c9.5,7.6,4.3,34.3,2.9,45.2c-2.4,22.9,53.8,134.3,42.4,154.8c-5.2,10,3.3,19,13.3,17.6
				c151.4-20.5,155.2-21,306.6-2.9c8.1,1,12.9-8.6,11.4-15.2c-3.8-17.6,81-124.8,73.3-140.9c-3.3-8.1-8.6-15.2-11.9-23.3
				c-5.7-14.3-2.4-26.2-1.9-40.9c0-6.7-5.7-11.9-11.9-11.9c-23.8-0.5-47.1-4.3-70-11.4c-19-6.2-36.7-13.8-56.7-14.8
				c-20-1-39.5,4.8-59,7.6c-22.9,3.3-44.8-1.9-67.6-0.5c-18.1,1.4-35.7,7.1-53.3,10.5c-25.7,4.3-50.9,1-76.2-1
				c-11.9-1-33.3-6.2-42.9,3.8C682.1,255.5,684,264,690.2,271.2c10.5,11.4,27.1-5.7,16.7-16.7c-1-1-1.4-1.9-2.4-2.4
				c1,3.8,1.9,7.6,2.9,11.4c-5.2,4.3-3.3,5.2,6.2,3.3c4.3,0,9,0.5,13.3,1c9,0.5,18.1,1.9,27.1,2.4c17.6,1.4,34.8,1.9,52.4-0.5
				c15.7-2.4,30.9-7.6,46.2-10c20-2.9,39.5,1.4,59,1c36.2-1.4,68.1-14.8,103.8-3.3c33.3,11,63.8,19.5,99,20.5
				c-3.8-3.8-8.1-8.1-11.9-11.9c-0.5,21.4-3.3,36.2,6.7,55.7c11,21.4-71,132.4-65.7,155.7c3.8-5.2,7.6-10,11.4-15.2
				c-154.3-18.6-159.5-17.1-313.3,3.3c4.3,5.7,9,11.4,13.3,17.6c13.8-25.2-41.9-142.4-39-170.9c1.9-18.1,5.7-45.2-10.5-58.1
				C695.4,244.5,678.3,261.2,690.2,271.2L690.2,271.2z"/>
		</g>
	</g>
	<g>
		<path fill="#FFFFFF" d="M877.8,245c-50.5,25.7-124.3,28.1-178.6,5.7c-3.3-1.4-7.1-2.9-11-3.8c-6.2-1-12.4,0-18.1,1.4
			c-31.4,5.7-64.8,9-96.2,2.9c-31.4-5.7-60-22.4-65.7-43.8c-4.8-18.6,7.1-37.1,9-56.2c1-11-1.4-22.9,6.2-33.3
			c10.5-14.3,35.2-19.5,58.1-23.3c26.7-4.8,54.8-9.5,80.9-4.3c4.3,1,8.6,1.9,12.9,1.4c4.3-0.5,8.1-2.4,11.4-4.3
			C735.4,61.2,801.1,49.3,863,56c37.1,3.8,74.3,15.2,94.8,36.2c1.4,1.9,3.3,3.3,6.2,4.3c2.4,0.5,5.2,0,8.1-0.5
			c61.4-11,121.4-29,184.7-26.7c6.7,0.5,13.8,1,20,2.9c23.3,7.1,24.3,29,21.4,46.2c41.4-4.3,83.3-5.7,124.7-3.3
			c10,0.5,20,1.4,29.5,3.8c25.2,6.2,41.9,25.2,38.1,43.3s-26.7,33.3-53.3,34.8c15.2,5.7,25.7,17.1,26.7,29
			c1,11.9-7.6,23.8-21.9,30.9c-13.3,6.7-30,8.6-46.2,9c-35.7,1.4-71.9-3.3-104.3-13.8c-4.8-1.4-9.5-3.3-14.8-2.9
			c-5.7,0-10.5,2.4-15.2,3.8c-45.2,17.1-105.7,13.8-146.2-8.6c-5.7-2.9-11-6.7-18.1-7.1c-4.3-0.5-9,0-13.3,1
			c-17.6,3.3-34.8,8.6-52.4,11.4c-17.6,2.9-38.1,2.4-52.9-5.2"/>
		<g>
			<path d="M871.6,234.5c-33.3,16.2-71.4,21.4-108.6,18.6c-18.6-1.4-36.7-5.2-54.3-11.4c-12.9-4.8-22.4-7.6-36.2-6.2
				c-43.3,5.2-89.5,14.3-130-7.1c-19.5-10.5-26.2-23.8-21.4-45.7c1.9-8.1,5.2-16.2,6.7-24.8c1.4-9.5,0.5-18.6,4.3-27.6
				c7.1-16.7,28.6-19.5,45.2-22.9c24.3-4.8,49.5-9,74.3-6.7c14.8,1.4,24.3,3.8,38.1-1.9c17.6-7.6,34.3-15.7,52.4-21
				c39-11,80.5-14.3,120.9-10c19,1.9,38.1,6.2,55.7,13.3c14.8,6.2,24.8,19.5,39,25.7s37.6-2.9,51.9-5.7c21.9-4.3,43.3-9,65.7-12.9
				c25.2-4.3,50.9-7.1,76.7-6.7c26.7,0.5,37.1,11,33.8,37.1c-1,6.2,6.2,12.4,11.9,11.9c40-3.8,80-5.2,120.5-3.3
				c18.6,1,45.7,1.9,57.1,20c14.3,23.3-21.9,36.2-38.6,38.1c-10.5,1-18.1,16.7-6.2,22.4c13.3,6.2,28.6,16.2,14.3,32.9
				c-8.6,10.5-29,12.9-41.4,13.8c-25.2,1.9-50.9,0.5-75.7-4.3c-17.6-3.3-36.2-12.9-54.3-11.4c-19.5,1.4-37.6,11.9-57.6,13.8
				c-19.5,1.9-39.5,1-59-3.8c-18.1-4.3-32.9-14.3-50-20c-17.1-5.7-35.7,1.4-52.4,5.2c-24.8,5.7-48.6,10.5-72.8,0.5
				c-14.3-5.7-20.5,17.1-6.2,22.9c24.8,10.5,50.9,7.1,76.7,1.9c16.2-3.3,34.8-11.4,51.4-5.7c9,2.9,17.6,9,26.7,12.4
				c23.8,8.6,49.5,11.9,74.3,11.4c11-0.5,21.9-1.4,32.4-3.3c14.3-2.9,28.6-10,42.9-9.5c15.2,1,30.5,7.6,45.7,10
				c14.3,2.4,28.6,4.3,42.9,4.8c25.2,1.4,54.3,1.4,77.6-10c40-19.5,34.8-63.8-3.3-80.9c-1.9,7.6-3.8,14.8-6.2,22.4
				c40-4.3,91.9-42.9,51.4-83.3c-19.5-19.5-48.1-21.4-74.3-22.9c-38.6-1.9-77.6-0.5-116.2,3.8c3.8,3.8,8.1,8.1,11.9,11.9
				c12.9-98.6-141.4-54.3-193.3-43.3c-12.9,2.9-26.2,6.2-39,8.1c-11.9,1.4-14.3-3.3-23.3-9.5c-17.6-12.9-39-20-60.5-24.8
				c-44.3-9.5-90.5-8.6-134.7,0.5c-20,4.3-39.5,10-58.6,18.1c-14.8,6.2-22.9,11-39.5,10.5c-14.8-0.5-28.6-2.4-43.8-1
				c-30.9,2.9-84.3,5.7-104.3,34.8c-10.5,15.2-6.7,36.7-11.4,53.3c-5.2,17.6-10.5,34.8-2.4,52.4c15.2,32.9,59,44.3,91.9,47.1
				c28.1,2.4,54.8-3.3,82.4-5.7c23.8-1.9,48.1,11.9,71.9,15.7c47.1,6.7,95.7,1,138.6-20C897.8,248.3,885.4,227.9,871.6,234.5
				L871.6,234.5z"/>
		</g>
	</g>
	<g>
		<path fill="#FFFFFF" d="M830.1,458.8c14.3-24.3,17.1-141.9,7.1-167.6"/>
		<g>
			<path d="M840.6,465c15.2-27.1,18.6-147.1,8.1-176.7c-5.2-14.3-28.1-8.1-22.9,6.2c8.6,23.8,6.2,136.2-5.7,158.1
				C812.5,466.4,833,478.3,840.6,465L840.6,465z"/>
		</g>
	</g>
	<g>
		<path fill="#FFFFFF" d="M976.3,455.9c-4.8-13.8-7.1-118.1-7.6-132.9c0-11.4,1.4-23.3,10.5-32.9"/>
		<g>
			<path d="M987.7,452.6c-5.7-18.1-14.3-137.6,0-153.8c10-11.4-6.7-28.6-16.7-16.7c-21,24.3-15.2,148.6-6.2,177.1
				C969.7,473.6,992.5,467.4,987.7,452.6L987.7,452.6z"/>
		</g>
	</g>
</g>
</svg>
