<?xml version="1.0" encoding="utf-8"?>
<!-- Generator: Adobe Illustrator 21.0.2, SVG Export Plug-In . SVG Version: 6.00 Build 0)  -->
<svg version="1.1" id="Layer_1" xmlns="http://www.w3.org/2000/svg" xmlns:xlink="http://www.w3.org/1999/xlink" x="0px" y="0px"
	viewBox="0 0 300 400" enable-background="new 0 0 300 400" xml:space="preserve">

	<g id="ears">
		<g id="ear-left">
			<path fill="#EDECD1" d="M77.2,73.7c2.4-8.5,3-17.6,7.2-25.3c3.2-6.1,8.6-11,14.9-13.8c2.7-1.2,6.5-1.6,8,0.9
				c0.4,0.8,0.6,1.7,0.7,2.6c0.6,5.4,1.2,10.8,1.7,16.2c0.1,0.5,0.1,1.1-0.2,1.5c-0.4,0.7-1.4,0.8-2.3,0.9
				c-7.8,0.9-13.5,7.7-20.8,10.7c-3.7,1.5-8.3,2.4-10,6"/>

			<path fill="#CCCAA8" d="M78.4,74.1c2.6-9.6,3.3-20.3,9.3-28.6c2.7-3.6,6.1-6.7,10.1-8.8c3.4-1.8,7.4-2.6,8.8,1.9
				c0.8,2.6,0.7,5.9,0.9,8.6c0.2,1.6,1.4,5.8,0.8,7.2c-0.8,1.7-4.1,1.7-5.7,2.3c-3.3,1.2-6.3,3.3-9.2,5.3c-3.8,2.6-7.6,4.3-11.9,6
				c-2.7,1.1-4.8,2.4-6.3,4.9c-0.9,1.4,1.3,2.6,2.2,1.3c2.8-4.5,10.4-5.5,14.8-8.3c5.2-3.3,9.3-6.2,15.3-7.8
				c4.7-1.3,3.2-4.8,2.7-9.1c-0.4-4,0.2-10.8-2.2-14.3c-4.9-7.1-16.9,2.9-20.4,6.8c-8,8.9-8.7,20.9-11.7,31.9
				C75.5,75,78,75.6,78.4,74.1L78.4,74.1z"/>
		</g>
		<g id="ear-right">
			<path fill="#EDECD1" d="M172.7,59.9c9.1-4.7,19.2-7.5,29.4-8.2c3.1-0.2,6.6-0.1,8.8,2c1.9,1.8,2.4,4.6,2.8,7.2
				c0.3,2.4,0.5,4.9-0.6,7c-0.8,1.5-2.1,2.6-3.3,3.7c-4.1,3.5-8.3,7-12.4,10.5c-0.4,0.4-1,0.8-1.5,0.7c-0.5-0.1-0.8-0.5-1.1-1
				c-6.1-8.8-14.1-16.3-23.4-21.6"/>

			<path fill="#CCCAA8" d="M173.3,61c8.5-4.2,17.6-7,27-7.9c5.3-0.5,9.9-0.4,11.8,5.6c0.7,2.1,1,5.5,0.3,7.6
				c-0.8,2.7-3.6,4.5-5.6,6.2c-2.5,2.1-7.1,7.8-10.4,7.5c-2.9-0.3-5.3-5.1-7.3-7.2c-5-5.4-10.8-9.9-17.2-13.6
				c-1.4-0.8-2.6,1.3-1.3,2.2c5.5,3.2,10.5,7,15,11.5c2.2,2.2,4.3,4.6,6.2,7.2c0.8,1.1,1.9,3.4,3.3,3.9c2.7,1,6.1-3.5,7.8-4.9
				c3.7-3.2,9.7-6.6,11.5-11.3c2.6-6.8-0.7-16.1-8.4-17.1c-11.2-1.5-24.3,3.4-34.1,8.3C170.6,59.5,171.9,61.7,173.3,61L173.3,61z"/>
		</g>
	</g>
</svg>
