<?xml version="1.0" encoding="utf-8"?>
<!-- Generator: Adobe Illustrator 21.0.2, SVG Export Plug-In . SVG Version: 6.00 Build 0)  -->
<svg version="1.1" id="Layer_1" xmlns="http://www.w3.org/2000/svg" xmlns:xlink="http://www.w3.org/1999/xlink" x="0px" y="0px"
	 viewBox="0 0 2000 2000" enable-background="new 0 0 2000 2000" xml:space="preserve">
<path fill="#D9E5E3" d="M486.1,1343c72.2,2.7,165.3,27.3,209.7,44.9c107-70.6,163.7-317.2,113.4-560.6
	c-11.8-56.2-33.2-108.1-61-153.5c-117.7-192-352.5-270.7-459.5-122c-77,106.5-84,255.2,0,483c34.2,92.5,76.5,169,125.7,229
	C439.6,1294.9,462.6,1321.6,486.1,1343z"/>
<path fill="#C6D9D4" d="M285.5,1035.4c-18.2-48.1-33.7-96.8-45.5-147.1c-11.2-50.3-18.7-101.6-16.6-153.5
	c1.6-51.4,13.4-103.8,37.4-149.8c3.2-5.9,6.4-11.2,9.6-17.1l10.7-16c1.6-2.7,3.7-5.3,5.9-8l5.9-8c4.3-4.8,8.6-9.6,13.4-14.4
	c18.7-18.2,41.7-32.6,66.3-41.7c25.1-8.6,51.4-12.3,77.6-11.2c26.2,1.1,51.9,6.4,76.5,15C576,500,620.9,527.8,660,562
	c39.1,34.2,71.7,74.9,97.4,119.8c25.7,44.9,43.9,93.6,53.5,144.4l-5.3,1.1c-20.9-47.6-44.4-91.5-74.4-130.5
	c-29.4-38.5-63.1-73.3-100.6-101.1l-13.9-10.2c-4.8-3.2-9.6-6.4-14.4-9.6l-15-9.1l-15-8c-20.3-10.2-40.7-19.3-61.5-25.1
	c-20.9-5.9-41.7-9.6-62.1-10.2c-20.3-0.5-39.1,2.7-56.7,8.6c-17.1,6.4-33.2,16-46.5,28.4c-3.2,3.2-7,6.4-10.2,10.2l-4.8,5.9
	l-2.1,2.7c-0.5,1.1-1.6,2.1-2.1,3.2l-9.1,13.4l-8.6,13.9c-3.2,4.3-5.3,9.6-7.5,14.4c-2.7,4.8-4.8,9.6-7,15l-6.4,15l-5.3,15.5
	c-2.1,5.3-3.2,10.7-4.3,16c-1.1,5.3-3.2,10.7-3.7,16.6l-3.2,17.1c-1.1,5.9-1.6,11.2-2.1,17.1c-5.9,46.5-3.7,95.2,1.1,145
	c4.3,49.7,13.4,100,20.9,151.9L285.5,1035.4z"/>
<path fill="#8D5548" d="M413.9,1263.3c-37.4-41.2-67.9-88.3-93.6-137.5c-12.8-24.6-24.6-49.7-34.8-76c-5.3-12.8-10.2-25.7-15-39.1
	c-4.8-12.8-9.6-26.2-13.9-39.6c-2.1-6.4-4.3-13.4-6.4-19.8l-5.9-20.3c-4.3-13.4-7.5-26.7-10.7-40.7c-3.7-13.4-5.9-27.3-8.6-41.2
	c-1.6-7-2.1-13.9-3.2-20.9c-1.1-7-2.1-13.9-2.7-20.9l-1.6-20.9c0-3.7-0.5-7-1.1-10.7v-10.7c0-7-0.5-13.9-0.5-21.4l1.1-21.4
	c2.1-28.4,5.9-56.7,14.4-84.5c8.6-27.3,20.3-54,35.8-78.1c15-24.1,34.8-47.1,58.8-64.2c12.3-8,25.1-15.5,39.1-20.9
	c7-3.2,13.9-4.8,20.9-7c3.7-1.1,7-1.6,10.7-2.1l5.3-1.1l5.3-0.5l10.7-1.6l10.7-0.5l5.3-0.5h5.3h10.7c14.4,1.1,28.9,2.7,42.8,5.9
	c27.8,5.9,54.6,16,79.7,29.4c25.1,13.4,48.7,28.9,70.1,46.5c42.8,35.8,79.2,79.7,105.4,128.4c-31-45.5-69-86.1-113.4-118.2
	c-21.9-16-44.9-30.5-69.5-41.7c-12.3-5.9-24.6-10.7-37.4-15c-12.8-3.7-25.7-7.5-39.1-9.6c-12.8-2.7-26.2-3.7-39.6-4.3h-9.6h-4.8
	l-4.8,0.5l-9.6,1.1l-9.6,1.6l-4.8,0.5l-4.8,1.1c-3.2,0.5-6.4,1.6-9.6,2.1c-5.9,2.1-12.3,3.7-18.2,6.4c-12.3,4.8-23,11.2-33.7,18.7
	c-4.8,3.7-10.2,7.5-15,12.3c-2.1,2.1-4.8,4.3-7,6.4l-6.4,7c-2.1,2.1-4.3,4.8-6.4,7.5l-5.9,7.5l-10.7,16.6
	c-13.9,22.5-24.6,47.1-32.6,72.2c-8,25.1-11.8,51.9-13.9,78.6l-1.1,20.3c0,7,0,13.4,0,20.3v10.2c0,3.2,0.5,7,0.5,10.2l1.6,20.3
	c4.8,54,17.7,107.5,32.6,159.9c15.5,52.4,33.2,104.8,56.2,154.6C354,1170.8,380.8,1218.9,413.9,1263.3z"/>
<path fill="#D9E5E3" d="M1584.5,1228.7c33.7-39.6,63.7-92.5,88.8-152.5c82.4-199.5,109.7-483.6-19.3-622.1
	c-100.6-108.1-242.3,4.3-305.4,162.6c-21.9,54.6-37.4,109.1-46.5,151.4c-35.8,165.8-11.2,463.3,50.8,525.3
	c40.7,40.7,95.2,27.8,135.9,9.1C1516.1,1276.9,1548.7,1250.7,1584.5,1228.7z"/>
<path fill="#C6D9D4" d="M1670.7,1074.7c7-44.9,14.4-88.3,18.7-132.1c4.8-43.3,8-86.7,8.6-128.9c1.1-42.3-0.5-84.5-5.3-125.2
	c-2.7-20.3-5.3-40.7-9.6-59.9c-4.3-19.3-9.6-38.5-16.6-56.7c-6.4-18.2-14.4-35.3-24.1-51.4l-7-11.8l-8-11.2l-8.6-10.7
	c-2.7-3.2-5.3-5.9-8-9.1c-5.3-5.3-11.2-10.2-17.1-13.9c-5.9-3.2-11.8-6.4-18.2-8c-6.4-1.6-12.8-2.7-20.3-2.7c-7.5,0-15,1.1-23,3.2
	c-8,2.1-16.6,4.8-24.6,9.1c-8,3.7-16.6,8.6-25.1,13.9c-16.6,10.7-32.6,23-47.6,37.4c-31,28.4-57.8,62.6-84,100l-5.3-2.1
	c16-41.7,38-81.3,65.8-116.6c13.9-17.7,29.4-34.2,47.1-48.1c17.1-14.4,36.9-26.7,58.3-34.8c10.7-3.7,21.9-7,33.2-8
	c11.8-1.1,23-1.1,34.8,1.1c11.2,2.1,22.5,6.4,32.6,11.2c10.2,5.3,19.8,12.3,28.4,19.8c33.7,31,56.7,71.1,72.8,113.4
	c7.5,21.4,13.4,42.8,18.2,65.3c4.3,21.9,7,44.4,8.6,66.9c1.6,22.5,2.1,44.9,1.6,67.4c-0.5,22.5-2.1,44.9-4.3,66.9
	c-2.1,22.5-5.3,44.4-9.6,66.3c-4.3,21.9-8.6,43.9-14.4,65.3c-11.2,43.3-25.7,85.6-42.8,126.8L1670.7,1074.7z"/>
<path fill="#8D5548" d="M1673.3,1075.7c28.9-84.5,47.6-171.2,55.1-258.9c3.7-43.9,4.3-87.7,0.5-131.1c-2.1-21.9-4.8-43.3-9.1-64.7
	c-4.3-21.4-10.2-42.3-17.7-62.1c-7.5-20.3-16.6-39.6-27.8-57.8l-8.6-13.4l-9.6-12.8l-10.2-12.3c-3.7-3.7-7-7.5-10.7-11.2
	c-7.5-7-15.5-12.8-24.6-17.7c-9.1-4.8-18.2-8.6-27.8-10.2c-9.6-1.6-19.8-2.1-30-1.6c-10.2,1.1-20.3,3.2-30,6.4
	c-19.8,7-38.5,17.7-55.1,31c-17.1,12.8-32.6,28.4-47.1,44.9c-28.9,33.2-51.9,71.1-71.1,111.3c13.9-42.3,34.8-82.9,61.5-119.3
	c13.4-18.2,28.9-34.8,46-50.3c17.1-15,36.9-27.8,58.8-36.9c11.2-4.3,22.5-7.5,34.8-9.1c11.8-1.6,24.6-1.1,36.4,0.5
	c12.3,2.1,23.5,6.4,34.8,11.8c10.7,5.3,20.9,12.8,30,20.3c4.3,3.7,8.6,8,12.8,12.3l11.2,13.4l10.7,13.9c3.2,4.8,6.4,9.6,9.6,14.4
	c12.3,19.8,22.5,40.7,30.5,62.1c15.5,43.3,23.5,88.8,26.7,133.7c1.6,22.5,1.6,45.5,1.1,67.9c-0.5,11.2-1.1,22.5-2.1,33.7
	c-1.1,11.2-2.1,22.5-3.7,33.7c-5.3,44.4-15,88.8-27.3,131.6C1708.1,993.9,1692.6,1035.6,1673.3,1075.7z"/>
<path fill="#884733" d="M1429.4,1367.3c17.7-27.8,39.1-53,63.1-76.5c23.5-23,49.7-43.9,77.6-62.1c7-4.8,13.9-8.6,21.4-12.8
	c3.7-2.1,7-4.3,10.7-6.4l11.2-5.9l11.2-5.3c3.7-1.6,7.5-3.2,11.2-4.8c7.5-3.2,15-6.4,23-9.1c31-11.2,64.2-18.2,97.4-18.7
	c-32.1,7-63.1,17.1-92.5,30c-7.5,3.2-14.4,7-21.9,10.2c-3.7,1.6-7.5,3.2-10.7,5.3l-10.7,5.9l-10.7,5.9c-3.7,2.1-7,4.3-10.2,6.4
	c-7,4.3-13.9,8-20.3,12.8c-13.9,8.6-26.7,18.2-39.6,27.8c-12.8,9.6-25.7,19.8-38,30.5C1475.9,1320.7,1452.4,1343.2,1429.4,1367.3z"
	/>
<ellipse transform="matrix(6.401127e-02 -0.9979 0.9979 6.401127e-02 287.5478 2360.9382)" fill="#A24F3E" cx="1402.4" cy="1027.2" rx="285.1" ry="133.7"/>
<path fill="#8E4637" d="M1417.1,742.5v25.7c1.1,0,1.6,0,2.7,0c51.4,3.2,101.1,113.4,91.5,265.9c-4.3,70.6-21.4,136.9-47.6,185.1
	c-23,42.3-49.7,66.9-74.9,66.9c-1.1,0-1.6,0-2.7,0c-51.4-3.2-101.1-113.4-91.5-265.9c4.3-70.6,21.4-136.9,47.6-185.1
	c23-42.3,49.7-66.9,74.9-66.9V742.5 M1417.1,742.5c-72.2,0-138,122-147.6,276c-10.2,157.3,41.7,288.3,115.5,293.1c1.6,0,2.7,0,4.3,0
	c72.2,0,138-122,147.6-276c10.2-157.3-41.7-288.3-115.5-293.1C1419.8,742.5,1418.2,742.5,1417.1,742.5L1417.1,742.5z"/>
<ellipse transform="matrix(0.9885 -0.151 0.151 0.9885 -151.0876 93.1414)" fill="#A24F3E" cx="537.7" cy="1041.4" rx="178.7" ry="301.2"/>
<path fill="#8E4637" d="M509.1,742.8v25.7c36.4,0,74.9,24.1,108.1,67.9c35.8,47.1,61.5,111.8,72.2,182.4
	c11.2,74.9,4.8,147.6-18.2,204.9c-21.4,52.4-54,84.5-91.5,90.4c-4.3,0.5-8.6,1.1-12.3,1.1c-36.4,0-74.9-24.1-108.1-67.9
	c-35.8-47.1-61.5-111.8-72.2-182.4c-22.5-147.6,27.8-283,109.7-295.3c4.3-0.5,8.6-1.1,12.3-1.1V742.8 M509.1,742.8
	c-5.3,0-10.7,0.5-16.6,1.1c-97.4,15-156.2,159.9-131.1,324.7c23.5,155.1,113.4,271.7,205.4,271.7c5.3,0,10.7-0.5,16.6-1.1
	c97.4-15,156.2-159.9,131.1-324.7C691,859.4,601.2,742.8,509.1,742.8L509.1,742.8z"/>
<path fill="#884733" d="M714.6,1397c-11.8-4.8-24.1-8-36.4-11.8c-12.3-3.2-24.6-6.4-36.9-9.1c-12.3-2.7-24.6-5.9-37.4-8
	c-12.3-2.7-24.6-5.3-37.4-7.5c-12.3-2.7-25.1-4.3-37.4-6.4c-12.3-2.1-25.1-3.2-37.4-4.8c-12.3-1.1-25.1-2.1-38-2.1
	c-12.8,0-25.1,1.1-38,3.7c11.2-5.9,24.6-9.1,37.4-11.2c12.8-1.6,26.2-2.7,39.1-2.1c12.8,0,25.7,1.1,39.1,2.1
	c12.8,1.6,25.7,3.2,38.5,5.9c25.1,4.8,50.3,11.2,74.9,19.3c12.3,3.7,24.6,8.6,36.4,13.9C692.1,1383.7,703.9,1389,714.6,1397z"/>
<ellipse transform="matrix(0.977 -0.2133 0.2133 0.977 -158.4157 138.3917)" fill="#FFFFFF" cx="562.1" cy="803.3" rx="42.3" ry="105.4"/>
<ellipse transform="matrix(0.9999 -1.595962e-02 1.595962e-02 0.9999 -12.5017 23.4629)" fill="#FFFFFF" cx="1463.8" cy="795" rx="42.3" ry="105.4"/>
</svg>
