<?xml version="1.0" encoding="utf-8"?>
<!-- Generator: Adobe Illustrator 21.0.2, SVG Export Plug-In . SVG Version: 6.00 Build 0)  -->
<svg version="1.1" id="Layer_1" xmlns="http://www.w3.org/2000/svg" xmlns:xlink="http://www.w3.org/1999/xlink" x="0px" y="0px"
	 viewBox="0 0 48 48" enable-background="new 0 0 48 48" xml:space="preserve">
<title>02-eyeexpression-happyopen</title>
<path fill="#703628" d="M26.8,19c0.9-2.1,2.5-3.4,4.3-2.9c2.7,0.7,4.6,3.8,4.6,8c0,1.1,0,2.2-0.2,3.3c0.4-1.3,0.6-2.7,0.6-4.1
	c0-4.8-2.2-8.6-5-8.6C29.2,14.7,27.6,16.4,26.8,19z"/>
<path fill="#975444" d="M32.1,24.6c-0.4,0.3-1,0.4-1.4,0c-0.8-0.8-0.9-2-0.4-2.9c-0.2-0.1-0.5-0.2-0.7-0.2c-1.5,0-2.7,2.1-2.7,4.6
	c0,0.6,0.1,1.2,0.2,1.8c0.4,1.6,1.4,2.8,2.5,2.8c0.3,0,0.5-0.1,0.8-0.3c0.4-0.2,0.7-0.4,0.9-0.7c0.2-0.3,0.4-0.6,0.5-1
	c0.3-0.8,0.5-1.7,0.5-2.6C32.3,25.6,32.2,25.1,32.1,24.6z"/>
<path fill="#703628" d="M34.6,29.9L34.6,29.9c-0.1,0.1-0.1,0.1-0.1,0.1c0,0,0,0-0.1,0l-3.6,2.6c-0.1,0-0.1,0-0.2,0
	c-0.2,0.3-0.3,0.5-0.5,0.8c0.5-0.4,1-0.8,1.5-1.2c0.5-0.4,1-0.7,1.5-1c0.5-0.3,1.1-0.6,1.6-0.9c0.5-0.3,1.1-0.5,1.7-0.8
	C35.9,29.5,35.2,29.6,34.6,29.9L34.6,29.9L34.6,29.9z"/>
<path fill="#703628" d="M34.4,30c-0.1,0-0.2,0-0.4,0c-0.4,0.2-0.9,0.4-1.3,0.6c-0.6,0.3-1.1,0.7-1.5,1.2c-0.2,0.2-0.5,0.5-0.6,0.8
	c0.1,0,0.1,0,0.2,0L34.4,30z"/>
<path fill="#703628" d="M34.6,29.9L34.6,29.9C34.6,29.9,34.6,29.9,34.6,29.9L34.6,29.9z"/>
<path fill="#703628" d="M34.6,29.8L34.6,29.8L34.6,29.8L34.6,29.8L34.6,29.8z"/>
<path fill="#703628" d="M34.5,30C34.5,30,34.5,29.9,34.5,30L34.5,30C34.5,30,34.5,30,34.5,30z"/>
<path fill="#703628" d="M34.4,30l0.1-0.1c0,0,0-0.1,0-0.1l0,0c-0.2,0-0.3,0.1-0.5,0.2C34.2,30,34.3,30,34.4,30z"/>
<path fill="#703628" d="M12,23.3c0,1.4,0.2,2.8,0.6,4.1c-0.1-1.1-0.2-2.2-0.2-3.3c0-4.1,1.9-7.3,4.6-8c1.8-0.5,3.3,0.8,4.3,2.9
	c-0.9-2.6-2.5-4.3-4.3-4.3C14.2,14.7,12,18.5,12,23.3z"/>
<path fill="#EEF6F3" d="M31.1,16.1c-1.8-0.5-3.3,0.8-4.3,2.9c-0.7,1.6-1,3.3-1,5.1c0,1.3,0.2,2.6,0.6,3.8l0,0
	c0.4,1.4,1.2,2.7,2.3,3.7c0,0,0,0,0.1,0.1c0.6,0.5,1.2,0.8,1.9,0.9c0.2-0.3,0.4-0.5,0.6-0.8c0.5-0.5,1-0.9,1.5-1.2
	c0.4-0.2,0.8-0.4,1.3-0.6c0.2-0.1,0.3-0.1,0.5-0.2l0,0l0,0c0.4-0.7,0.7-1.6,0.8-2.4c0.1-1.1,0.2-2.2,0.2-3.3
	C35.6,19.9,33.8,16.8,31.1,16.1z M29.6,21.6c0.3,0,0.5,0.1,0.7,0.2c-0.5,1-0.3,2.2,0.4,2.9c0.4,0.3,1,0.3,1.4,0
	c0.1,0.5,0.2,1,0.2,1.5c0,0.9-0.2,1.8-0.5,2.6c-0.1,0.3-0.3,0.7-0.5,1c-0.2,0.3-0.6,0.5-0.9,0.7c-0.2,0.2-0.5,0.3-0.8,0.3
	c-1.1,0-2.1-1.2-2.5-2.8c-0.1-0.6-0.2-1.2-0.2-1.8C26.8,23.6,28,21.6,29.6,21.6z"/>
<path fill="#EEF6F3" d="M21.2,19c-0.9-2.1-2.5-3.4-4.3-2.9c-2.7,0.7-4.6,3.8-4.6,8c0,1.1,0,2.2,0.2,3.3c0.1,0.8,0.4,1.7,0.8,2.4l0,0
	l0,0c0.2,0,0.3,0.1,0.5,0.2c0.4,0.2,0.9,0.4,1.3,0.6c0.6,0.3,1.1,0.7,1.5,1.2c0.2,0.2,0.5,0.5,0.6,0.8c0.7-0.1,1.4-0.5,1.9-0.9
	c0,0,0,0,0.1-0.1c1.1-1,1.9-2.3,2.3-3.7l0,0c0.4-1.2,0.6-2.5,0.6-3.8C22.2,22.3,21.9,20.6,21.2,19z M15.9,24.6c0.4,0.3,1,0.4,1.4,0
	c0.8-0.8,0.9-2,0.4-2.9c0.2-0.1,0.5-0.2,0.7-0.2c1.5,0,2.7,2.1,2.7,4.6c0,0.6-0.1,1.2-0.2,1.8c-0.4,1.6-1.4,2.8-2.5,2.8
	c-0.3,0-0.5-0.1-0.8-0.3c-0.4-0.2-0.7-0.4-0.9-0.7c-0.2-0.3-0.4-0.6-0.5-1c-0.3-0.8-0.5-1.7-0.5-2.6C15.7,25.6,15.8,25.1,15.9,24.6z
	"/>
<path fill="#975444" d="M18.4,21.6c-0.3,0-0.5,0.1-0.7,0.2c0.5,1,0.3,2.2-0.4,2.9c-0.4,0.3-1,0.3-1.4,0c-0.1,0.5-0.2,1-0.2,1.5
	c0,0.9,0.2,1.8,0.5,2.6c0.1,0.3,0.3,0.7,0.5,1c0.2,0.3,0.6,0.5,0.9,0.7c0.2,0.2,0.5,0.3,0.8,0.3c1.1,0,2.1-1.2,2.5-2.8
	c0.1-0.6,0.2-1.2,0.2-1.8C21.2,23.6,20,21.6,18.4,21.6z"/>
<path fill="#703628" d="M13.6,30C13.5,30,13.5,30,13.6,30c-0.1,0-0.1-0.1-0.1-0.1l-0.1,0l0,0l0,0c-0.6-0.2-1.2-0.3-1.9-0.2
	c0.6,0.3,1.2,0.5,1.7,0.8c0.6,0.3,1.1,0.6,1.6,0.9c0.5,0.3,1,0.7,1.5,1c0.5,0.4,1,0.7,1.5,1.2c-0.1-0.3-0.3-0.6-0.5-0.8
	c-0.1,0-0.1,0-0.2,0L13.6,30z"/>
<path fill="#703628" d="M15.2,30.6c-0.4-0.2-0.8-0.4-1.3-0.6c-0.1,0-0.2,0-0.4,0l3.6,2.6c0.1,0,0.1,0,0.2,0
	c-0.2-0.3-0.4-0.5-0.6-0.8C16.3,31.3,15.7,30.9,15.2,30.6z"/>
<path fill="#703628" d="M13.4,29.9l0.1,0.1c0.1,0,0.2,0,0.4,0c-0.2-0.1-0.3-0.1-0.5-0.2L13.4,29.9C13.4,29.9,13.4,29.9,13.4,29.9z"
	/>
</svg>
