
<svg version="1.1" id="Layer_1" xmlns="http://www.w3.org/2000/svg" xmlns:xlink="http://www.w3.org/1999/xlink" x="0px" y="0px"
	 viewBox="0 0 2000 2000" enable-background="new 0 0 2000 2000" xml:space="preserve">

	 <g>
<path fill="none" d="M917.9,1313.9"/>
<path fill="#77613D" d="M830.1,1626c0,0,49.5,28.8,144.2-60l98-9.2c0,0,81.8-20.7,82.8-45.7l-14.2,132c0,0,56.2-0.2,84.2,33.4
	c0,0,54,46.6,57,87.1c0,0,13.6,23.3,5.3,31.4c0,0-167.9,25.7-250.1-24.1c0,0-26.2,135.2-165.2,134.2c0,0-90-36-38-68.5
	c0,0-55.9,28.7-115.4,18.1c0,0-62.5-37.6,4.2-103.9c0,0,16.9-63.3,60.6-63L830.1,1626z"/>
<path fill="none" stroke="#000000" stroke-width="3" stroke-miterlimit="10" d="M834,1836.5c0,0-2.4-114.4,69.7-137.8
	c0,0,64.9-25.2,78.7-4.6l24.6-83.2"/>
<path fill="none" stroke="#000000" stroke-width="3" stroke-miterlimit="10" d="M1031.5,1767.9c0,0,50.5-115.9,48.5-176.9"/>
<path fill="none" stroke="#000000" stroke-width="3" stroke-miterlimit="10" d="M900.5,1748.8"/>
</g>
</svg>
