
<svg version="1.1" id="Layer_1" xmlns="http://www.w3.org/2000/svg" xmlns:xlink="http://www.w3.org/1999/xlink" x="0px" y="0px"
	 viewBox="0 0 2000 2000" enable-background="new 0 0 2000 2000" xml:space="preserve">
	 <g>
<path fill="none" d="M917.9,1313.9"/>
<path fill="none" stroke="#000000" stroke-width="3" stroke-miterlimit="10" d="M900.5,1748.8"/>
<path fill="#E5E4E3" stroke="#7A7A7A" stroke-miterlimit="10" d="M900.5,1655.3l-80.1-2.7l-5.4,14.7c0,0-87.7,38.5-111,96.2
	c0,0-18.6,48.8-11.5,63.2c9.9,20,73,37.1,80.9,37.6l65.3-29.9c0,0-3.2-102.5,50.7-135.4L900.5,1655.3z"/>
<path fill="#E5E4E3" stroke="#7A7A7A" stroke-miterlimit="10" d="M903.6,1648.7c0,0,145.9-26.1,149.8,12.9c0,0-30.6,125-28.3,137.3
	c0,0-1.1,41.9-79.1,86.8c0,0-126,20.9-125.6-14.4c0,0-13-85.9,0-98.6c0,0,41.9-74.7,57.8-80.7C878.1,1692,904.6,1658.2,903.6,1648.7
	z"/>
<path fill="#E5E4E3" stroke="#7A7A7A" stroke-miterlimit="10" d="M1057.2,1634c0,0,83.4-10,92.1-17.3l-6.8,28.7
	c0,0,69.5,18.6,86.8,48.6c0,0,43.4,34.2,42.4,56.4c0,0,10.3,42.8-21,44.9c0,0-54.9,7.8-85.7,1.5l-135.7-22.8
	C1029.3,1774,1049.7,1640.7,1057.2,1634z"/>
<polygon fill="#39723D" points="1015.3,1800.2 1006.2,1811.3 969.2,1725.4 986.1,1725.4 "/>
<polygon fill="#39723D" points="994.3,1825.2 985.2,1836.3 948.2,1750.4 965.1,1750.4 "/>
<polygon fill="#39723D" points="976,1851.8 966.9,1863 929.9,1777 946.8,1777 "/>
<polygon fill="#39723D" points="1152.9,1771.6 1138.5,1770.4 1188.5,1691.3 1198,1705.2 "/>
<polygon fill="#39723D" points="1120.4,1768.4 1106,1767.2 1156,1688.1 1165.6,1702 "/>
<polygon fill="#39723D" points="1088.1,1768.4 1073.7,1767.2 1123.7,1688.1 1133.3,1702 "/>
</g>
</svg>
