<svg xmlns="http://www.w3.org/2000/svg" viewBox="0 0 2000 2000"><defs><style>.cls-1{fill:#5cdff2}.cls-2{fill:#282828}.cls-3{fill:#494949}.cls-4{fill:#091426;opacity:.3}.cls-18,.cls-5{fill:#fff}.cls-5{opacity:.04}.cls-6{fill:none}.cls-7{fill:#99c7c9}.cls-8{fill:#ffc5af}.cls-16,.cls-9{fill:#a34f3e}.cls-9{stroke:#8e4637;stroke-miterlimit:10;stroke-width:3px}.cls-10{fill:#000d26}.cls-10,.cls-12{opacity:.03}.cls-11{fill:#8d5548}.cls-13{fill:#d9e9e6}.cls-14{fill:#c6d9d5}.cls-15{fill:#894733}.cls-17{fill:#8e4637}</style></defs><title>BaseOctocat_v1_svgexport</title><ellipse class="cls-1" cx="981.82" cy="1755.64" rx="432.04" ry="110.75" id="Puddle"/><g id="Feet"><path class="cls-2" d="M1278.91 1686.1c-8.74-1.94-12.62 5.83-12.62 5.83s-9.71 1.94-17.47-7.77 5.82-26.21-11.65-49.51c-9.87-13.16-25.62-25.69-40.78-34.81l-1.58-.94-1.85-1.07-1.09-.62-1.23-.68-1.09-.6-1.21-.64-1.09-.58-1.18-.6-1.11-.56-1.12-.56-1.15-.55-1-.5-1.33-.6-.85-.38c-.68-.31-1.36-.59-2-.87l-.81-.33-1.26-.51-.85-.33-1.18-.44-.83-.29c-.38-.14-.75-.27-1.13-.39l-.79-.26c-.38-.13-.75-.24-1.12-.35l-.72-.22-1.18-.32-.58-.16-1.67-.39a46.41 46.41 0 0 0-6.85-.89l-1.88-8.77v.06s-18 8.48-39.33 16.85c-11.3 4.44-23.52 8.86-34.46 12-7.82 2.22-15 3.76-20.68 4.15a28.43 28.43 0 0 1-6.51-.17c-3 .43-6.64.88-10.94 1.27-13.12 1.19-32.67 1.9-61.62.06-14.65-.93-28.24-1.95-39.85-3.43-14.54-1.85-26-4.43-32.53-8.46a15.09 15.09 0 0 1-4.49-4h-1.64a341.54 341.54 0 0 1-37.41-2.43c-15.48-2.07-27.46-6.33-39.65-16.08v-.07l-1.77 4.94-10.87 30.27-2.86 1-.73.26c-.9.31-1.81.63-2.72 1l-.21.07-3 1.11-.6.23-2.83 1.1-.21.09c-1 .41-2.09.84-3.14 1.28l-.4.16c-1 .42-2 .85-3 1.3h-.14c-1.1.48-2.2 1-3.3 1.48h-.11c-1.09.5-2.19 1-3.29 1.54-2.25 1.08-4.51 2.22-6.76 3.41a170.44 170.44 0 0 0-20 12.31c-3.7 2.67-7.32 5.52-10.82 8.58l-.17.15q-1.93 1.69-3.82 3.48h-.05c-1.25 1.18-2.49 2.4-3.7 3.64l-.17.17c-.73.76-1.46 1.52-2.18 2.3l-.13.15-.17.17c-1.16 1.26-2.29 2.55-3.41 3.87l-.06.07c-1.12 1.32-2.21 2.66-3.28 4l-.36.47c-.6.77-1.19 1.56-1.77 2.35l-.35.48q-2.07 2.85-4 5.87c0 .09-.11.18-.17.27l-.06.1c-.54.86-1.08 1.73-1.6 2.61-.06.09-.11.18-.16.27l-.27.46c-.48.81-1 1.64-1.42 2.47-.07.14-.15.28-.23.41s-.09.17-.14.26a114.916 114.916 0 0 0-3.61 7.15v.07q-.6 1.27-1.17 2.58l-.41 1c-.37.88-.74 1.77-1.1 2.67-.08.21-.17.43-.26.64a.88.88 0 0 1 0 .15c-.46 1.17-.9 2.35-1.33 3.55v.08l-.06.17a160.452 160.452 0 0 0-1.45 4.38c-.27.88-.54 1.77-.8 2.66-.06.22-.13.44-.19.66s-.1.34-.14.51c-.28 1-.54 2-.8 3a3 3 0 0 1-.08.32c0 .17-.09.34-.13.5-.31 1.28-.61 2.57-.9 3.88 0 .27-.11.54-.16.81-.22 1-.42 2.08-.62 3.14a59 59 0 0 0-.23 1.3c-.17.95-.33 1.9-.48 2.86 0 .23-.07.46-.11.69l-.09.62c-.17 1.16-.33 2.33-.47 3.51v.4a2.51 2.51 0 0 0 0 .27c-.16 1.4-.31 2.81-.44 4.24l-.06.74v.47c-.09 1-.17 2.11-.24 3.19v1.49c-.06 1-.1 2.09-.14 3.15v1.39c0 1.51-.06 3-.06 4.58 1 27.18 46.6 50.48 83.49 43.69l3.35-.64 1.13-.22 2.2-.44 1.37-.28 1.95-.4 1.43-.31 1.87-.41 1.48-.32 1.77-.4 1.53-.35 1.64-.38 1.61-.39 1.51-.36 1.68-.41 1.37-.33 1.77-.44 1.06-.27c5.54-1.41 10.8-2.84 15.63-4.21H835l2.49-.71a35.64 35.64 0 0 0 1.45-4.6c.24 1.34.51 2.66.8 3.94l1.55-.45c0 1.1 0 2.18.07 3.25v.58c0 1 .06 2.06.1 3.06.49 1.54 1 3 1.57 4.44l-1.33.58c0 .53.07 1 .1 1.55a2.45 2.45 0 0 1 0 .27v.94c0 .32 0 .64.07 1a.49.49 0 0 1 0 .12v.39c0 .56.1 1.12.15 1.66v.5c0 .43.08.86.12 1.27v.4c0 .37.09.73.13 1.1v.8c.05.37.09.73.14 1.08v.45c0 .3.09.59.13.89s0 .31.07.46 0 .17 0 .26v.17l.09.55v.34l.06.31c0 .2.07.38.1.56s.08.42.11.61v.14c.07.33.14.65.2 1 0 .09.05.18.07.27.07.33.15.66.23 1 4.86 18.45 63.11 28.16 90.29 21.36s71.85-50.48 86.41-64.07c.42-.4.84-.81 1.24-1.23l.4-.42c.27-.29.54-.58.8-.88s.3-.35.45-.53l.08-.09a3.11 3.11 0 0 0 .23-.28c.13-.15.27-.31.39-.47s.31-.39.46-.58l.15-.19c.05-.08.11-.15.17-.23l.33-.43.46-.63c.14-.2.27-.4.41-.59 6.25-9 10.15-21.09 12.44-32v-.08c.22-1 .42-2.07.61-3.09a1.55 1.55 0 0 0 0-.21c.18-1 .35-1.94.5-2.89v-.17c.14-.86.27-1.71.39-2.54 0-.35.1-.69.14-1 .08-.56.15-1.12.22-1.66 0-.28.07-.57.11-.84v-.26c.08-.7.16-1.38.23-2v-.38c.08-.78.15-1.54.21-2.26l1.13.57.42.19.8.37.56.25.75.32.6.25.8.32.65.25.83.32.7.26.87.31.74.26.89.31.79.26.93.31.81.25 1 .31.85.26 1 .3.88.26 1 .31.9.25 1.08.31.93.25 1.11.3 1 .26 1.14.3 1 .25 1.18.3 1 .25 1.2.3 1 .25 1.22.29 1 .25 1.25.29 1 .24 1.28.3 1 .23 1.32.3 1.06.23 1.32.29 1.11.24 1.32.28 1.12.24 1.34.28 1.13.23 1.34.28 1.16.23 1.35.27 1.15.23 1.36.27 1.18.23 1.36.26 1.19.23 1.35.26 1.21.22 1.32.25 1.27.23 1.26.23 1.32.24 1.25.23 1.31.23 1.26.22 1.32.23 1.23.22 1.34.23 1.17.2 1.41.24 1.09.18 1.46.24 1 .17 1.51.25 1 .16 1.5.25 1 .15 1.55.25.78.12 1.71.27.65.1 1.8.28.48.07 2 .3c16.67 2.51 31.1 4.26 38.74 4.83l1 .07 1.33.08c19.41 1 41.74 1.94 65.05-1.94s22.33-15.54 36.89-25.25 13.4-20.54 4.66-22.49zm-554.15-8.75q-.84 1.43-1.65 2.88c.08-.13.16-.27.23-.41.47-.82.94-1.66 1.42-2.47zm-12.42 29.37c-.31 1.09-.6 2.18-.88 3.29a3 3 0 0 0 .08-.32c.26-1 .52-1.99.8-2.97zm14.45-32.72l.06-.1c-.62 1-1.23 2-1.82 3 .05-.09.1-.18.16-.27.52-.89 1.06-1.76 1.6-2.63z"/><path class="cls-2" d="M723 1680.49a119.4 119.4 0 0 0-3.61 7.15c.1-.23.21-.46.32-.69q1.53-3.31 3.29-6.46zm-6.66 14.22c-.47 1.19-.92 2.4-1.36 3.63v-.08c.46-1.2.9-2.38 1.36-3.55zm-2.87 8.18a160.452 160.452 0 0 1 1.45-4.38q-1.32 3.75-2.44 7.7c.06-.22.13-.44.19-.66.26-.89.53-1.78.8-2.66zm4.28-11.64l.41-1q.57-1.3 1.17-2.58c-1 2.22-2 4.51-2.94 6.85.09-.21.18-.43.26-.64.35-.88.73-1.75 1.1-2.63zm-6.42 19.26c-.38 1.54-.73 3.11-1.06 4.69.05-.27.11-.54.16-.81.29-1.31.57-2.6.9-3.88zm367.67 10.54l-1.06-.23zm-338.56-64.76q-1.83 2-3.58 4c1.12-1.32 2.25-2.61 3.41-3.87zm282.66 106.9c.18-.2.35-.41.53-.62l-.08.09c-.15.18-.29.34-.45.53zM731 1667.74c-1.38 1.91-2.73 3.88-4 5.9q1.93-3 4-5.87zm112.66 139.46c-.06-.3-.13-.62-.2-1v-.14c0-.19-.07-.4-.11-.61s-.07-.36-.1-.56l-.06-.31v-.34c.26 1.6.55 3 .85 4.14-.08-.3-.16-.63-.23-1-.1 0-.13-.09-.15-.18zm-100.89-153.38a122.14 122.14 0 0 0-.02.02zm341.07 68.28l-1.12-.24zm-285.23 67.28l-1.37.28-2.2.44-1.13.22-3.35.64q5.76-1.07 11.43-2.29l-1.43.31zm43.18 2.92a2.45 2.45 0 0 0 0-.27l.09 1.21v-.37c-.06-.19-.07-.38-.09-.57zm.67 7.33c0-.37-.09-.73-.13-1.1v-.4c0-.41-.08-.84-.12-1.27v-.5c0-.54-.1-1.1-.15-1.66v-.38a.53.53 0 0 0 0-.13c.18 2.26.39 4.35.62 6.24v-.38c0-.12-.21-.29-.22-.42zm-5.01-19.95l-2.49.71h-.05c-4.83 1.37-10.09 2.8-15.63 4.21l-1.06.27-1.77.44-1.37.33-1.68.41-1.51.36-1.61.39-1.64.38-1.53.35-1.77.4-1.48.32c13.21-2.9 25.72-6.28 35.84-9.24-.29-1.28-.56-2.6-.8-3.94a35.64 35.64 0 0 1-1.45 4.61zm3.98 5.78c0-1-.07-2-.1-3.06v-.4c.08 3 .2 5.82.35 8.45l1.33-.58c-.57-1.38-1.09-2.87-1.58-4.41zm-132.02-65.8c-.21 1.17-.41 2.36-.59 3.55 0-.23.07-.46.11-.69.15-.96.31-1.91.48-2.86zM843 1803.31c0-.15-.05-.31-.07-.46 0 .3.09.6.14.89v-.17c-.07-.09-.07-.18-.07-.26zm-.31-1.8l.06.45v-.38zm-135.05-68.05v-.47c-.11 1.37-.21 2.75-.3 4.15v-.49c.13-1.08.21-2.14.3-3.19zm373.76-11.88l-1.11-.24zm-374.22 19.72c0-1.06.08-2.11.14-3.15-.16 3-.25 6-.25 9.12 0-1.54 0-3.07.06-4.58.02-.46.03-.92.05-1.39zm384.13-17.68l-1.15-.23zm-382.58.21c-.19 1.29-.37 2.59-.52 3.91v-.4c.19-1.18.35-2.34.52-3.51zm380.08-.71l-1.16-.23zm-2.5-.51l-1.13-.23zm-304.85-97.17a160.91 160.91 0 0 0-30.78 20.89c3.5-3.06 7.12-5.91 10.82-8.58a171.79 171.79 0 0 1 19.96-12.31zm-73.73 106.81c.13-1.43.28-2.84.44-4.24-.17 1.4-.31 2.81-.44 4.24zm344.02-18.35l-.79-.26zm5.44 1.69l-.88-.26zm-8.73-2.83l-.7-.26zm1.61.57l-.74-.26zm3.42 1.13l-.81-.25zm1.82.54l-.85-.26zm-345.67 3.36c.2-1.06.4-2.1.62-3.14-.26 1.04-.42 2.08-.62 3.14zm131.68 63.46c0-1.07-.05-2.15-.07-3.25.02 1.1.04 2.18.07 3.25zm199.9-72.16zm-13.35 47c-.14.22-.28.44-.41.66.13-.22.27-.44.41-.66zm.96-1.66l-.38.64zm13.94-44.58l-.42-.19zm-20.47 53.65l-.4.42zm23.18-52.46l-.6-.25zm31.11 8.91l-1-.23zm-32.46-9.52l-.56-.25zm2.8 1.18l-.65-.25zm25.07 7.28l-1-.25zm-2.3-.54l-1-.25zm4.56 1.08l-1-.24zm-331.32-66.35zm-11.55 13.61c.58-.79 1.17-1.58 1.77-2.35-.6.77-1.16 1.56-1.77 2.35zm15.3-17.26q1.89-1.79 3.82-3.48-1.93 1.65-3.82 3.48zm-13.17 14.44zm327.62 52.27l-.93-.25zm2.06.56l-1-.26zm2.11.55l-1-.25zm-6.18-1.67l-.9-.25zm8.35 2.22l-1-.25zm-31.97 20.91c.13-.4.26-.8.38-1.21-.09.27-.17.55-.26.82zm89.04-9.79l-1.55-.25zm-2.55-.4l-1.5-.25zm-2.48-.41l-1.51-.25zm7.48 1.2l-1.71-.27zm4.94.75l-2-.3zm-14.94-2.37l-1.46-.24zm12.49 2l-1.8-.28zm-88.98-13.93c0-.42.11-.84.16-1.25 0 .12 0 .24-.05.36-.04.3-.07.56-.11.89zm68.76 10.67l-1.32-.23zm-68.54-12.4v.07-.3a1.49 1.49 0 0 0 0 .23zm129.98 20.86c-7.64-.57-22.07-2.32-38.74-4.83 16.68 2.51 31.1 4.26 38.74 4.83zm-56.29-7.62l-1.41-.24zm-73.66-13.49c.08-.71.15-1.39.22-2-.07.66-.15 1.34-.23 2zm71.08 13.05l-1.34-.23zm59.92 8.14l-1-.07zm-131.43-17.85c.06-.42.11-.83.16-1.24 0 .22-.06.44-.09.65s-.05.39-.07.59zm58.67 7.4l-1.21-.22zm-72.13 33.14c-.15.22-.29.44-.44.65l-.2.28c.42-.59.82-1.2 1.22-1.83zm4.41-7.98c-.22.47-.44 1-.67 1.41a3 3 0 0 1-.16.31c-.23.47-.47.94-.71 1.4-.1.2-.21.39-.32.59l-.28.51q1.33-2.43 2.52-5c-.07.16-.14.32-.22.48s-.1.19-.16.3zm70.27-24.68l-1.27-.23zm-7.7-1.45l-1.18-.23zm-58.85 16.66c-.11.35-.23.7-.35 1l-.29.83c-.12.35-.25.7-.38 1l-.3.79c-.13.36-.27.72-.41 1.08l-.3.76a1.86 1.86 0 0 0-.1.25l-.06.13c.94-2.3 1.79-4.65 2.55-7a2.29 2.29 0 0 0-.08.28c-.07.33-.17.6-.28.88zm3.32-12c-.07.32-.15.65-.22 1s-.13.57-.2.86c0 .13-.07.26-.1.39q.39-1.6.72-3.18c-.07.32-.13.62-.2.93zm58.08-4.17l-1.19-.23zm-64.34 23.91c.16-.35.31-.7.46-1.06l-.29.68c-.05.13-.11.25-.17.38zm-7.81 13.3c-.12.16-.26.32-.39.47.34-.41.67-.82 1-1.24l-.15.19c-.15.19-.3.39-.46.58zm14.43-34.73c.08-.36.15-.71.22-1.07-.06.31-.13.62-.19.93zm1.03-5.42c0 .26-.09.51-.13.76s-.12.63-.17 1q.24-1.32.45-2.61v.09c-.06.22-.11.49-.15.76zm.16-.99c.09-.57.18-1.13.26-1.68l-.15 1c-.04.24-.07.46-.11.68zm-2.43 11.8v.07c.09-.36.17-.72.26-1.09 0 .1 0 .2-.07.29zm69.25-5.98l-1.31-.23zm-66.48-8.04c0-.22.07-.43.1-.65v.32c0 .1-.08.22-.1.33zm-1.58 8.86v-.15zm-12.81 32.44c-.15.21-.3.42-.46.62l-.33.44q.62-.81 1.2-1.65c-.14.19-.23.39-.41.59zm10.63-23.57l-.24.79v.14l-.09.31c.31-1 .61-2.08.89-3.12l-.19.67zm67.68-10.19l-1.32-.24zm-64.88-1.79c0 .31-.12.63-.18.94s-.06.35-.1.52c.11-.56.22-1.12.32-1.67a1.55 1.55 0 0 1-.04.21zm10.08-11.14l-.87-.31zm1.67.57l-.89-.31zm34.18 8.74l-1.34-.28zm86.59 13.16h-.01.01zm-84.12-12.65l-1.34-.28zm-34.97-8.68l-.93-.31zm42.53 10.17l-1.36-.26zm-54.21-12.46v.38zm-.67 5.77a.59.59 0 0 0 0 .13.59.59 0 0 1 0-.13zm67.67 9.03l-1.26-.22zm-67.28-12.05v.41a.945.945 0 0 1 0-.41zm51.95 9.22l-1.36-.27zm-52.8-3.2zm50.29 2.7l-1.35-.27zm-47.81-13.16l-1.13-.57zm-3.67 16.87zm7.6-15.17l-.8-.32zm-2.71-1.14l-.8-.37zm1.31.57l-.75-.32zm9.58 3.41l-1-.31zm45.82 10.57l-1.32-.25zm-27.07-5.59l-1.25-.29zm42.3 8.25l-1.09-.18zm5.01.84l-1-.16zm-2.52-.41l-1-.17zm-47.08-9.22l-1.22-.29zm4.62 1.08l-1.28-.3zm2.37.53l-1.32-.3zm32.59 6.35l-1.23-.22zm-30.21-5.83l-1.32-.29zm25.09 4.93l-1.25-.23zm-2.57-.47l-1.26-.23zm10.19 1.8l-1.17-.2zm10 1.64l-1-.15zm-60.75-12.24l-1.11-.3zm69.75 13.63zm-71.79-14.17l-1.08-.31zm22.51 5.4l-1.32-.28zm88 13.61zm-112.49-19.57l-1-.31zm-1.92-.57l-1-.3zm8.03 2.24l-1.14-.3zm60.99 12.04l-.78-.12zm-27.58-4.74l-1.35-.26zm32.25 5.46l-.48-.07zm-63.51-12.21l-1.18-.3zm2.19.55l-1.2-.3zm59.01 11.33l-.65-.1zm-79.93-17.5l-.83-.32zm-21.53 46.67v-.01.01zm13.06-35.17v-.25a1.55 1.55 0 0 1 0 .25z"/><path class="cls-2" d="M1039.29 1724a1.55 1.55 0 0 0 0-.21 1.55 1.55 0 0 1 0 .21zm-13.06 35.17v-.01.01zm12.44-32v-.07zm1.95-11.73c0-.12 0-.24.05-.36s0-.28 0-.41v-.07c.02.27-.01.56-.05.84zm-.75 5.25v.08-.08zm.39-2.55v-.32a.59.59 0 0 1 0-.13c0-.2.05-.39.07-.59.03.35-.02.69-.07 1.04zm-289.58-71.81l-.17.15.17-.15zM802 1788.67l1.85-.4-1.87.41zm37.7-9.67l1.55-.45-1.55.45zm-132.38-40.85v-1c.03.33.01.66 0 1zm135.23 62.28c0 .27.07.53.1.79a2.54 2.54 0 0 1 0 .29c-.05-.35-.09-.71-.14-1.08zm-.88-9.95c0 .41.06.81.08 1.21v.34c0-.51-.06-1-.1-1.55zm-.35-8.66zm.59 12.1a2.45 2.45 0 0 1 0 .27c0-.31 0-.63-.07-1 .04.28.06.51.07.73zM708.17 1728a2.51 2.51 0 0 1 0-.27c.02.1.01.19 0 .27zm328.83 6.31l.39-1.53c0-.08.05-.16.07-.23-.15.58-.31 1.17-.46 1.76zm-324.66-27.59c0-.17.09-.34.14-.51-.05.17-.1.34-.14.51zm4-12.01a.88.88 0 0 0 0-.15.88.88 0 0 1 0 .15zm-1.41 3.79l.06-.17c.01.06.01.12-.06.17zm4.4-10.79v-.07zm-8 22.8c0-.16.09-.33.13-.5-.04.17-.09.34-.13.5zm-1.69 7.85zm-.91 5.47l.09-.62zm1.53-8.61zm328.36 12.16v-.06c0 .17-.07.34-.11.51.05-.15.08-.3.11-.45zm1.51-8.38c0-.16 0-.32.07-.48 0 .18 0 .36-.08.54zm-1.23 7c0-.12 0-.24.07-.36 0 .12 0 .24-.07.36zm1.59-9.55v-.11.12zm-12.62 40.21c.2-.32.39-.65.58-1l-.58 1zM842.75 1802c0 .16 0 .31.07.47l.06.42c0-.3-.09-.59-.13-.89zm194.99-70.72l.06-.27c0 .15-.07.3-.11.45.02-.06.03-.12.05-.18zM723 1680.49c0-.09.1-.17.14-.26zm308.67 68.92l.39-.89c-.13.31-.27.62-.4.92zm-2.84 5.59l.09-.16c.07-.13.14-.27.22-.4-.11.19-.21.38-.31.57zm-6.53 9.07c.27-.29.54-.58.8-.88-.26.3-.53.59-.8.88zm-.4.42zM843 1803.85c0 .15.05.3.08.44l-.09-.55zm197.75-89.48zm-17.09 48.16l.2-.24-.23.28zm1.25-1.53l.12-.16c-.06.08-.12.15-.17.23zm-317.18-28.75l-.06.74.06-.74zm327.74 7.14v-.11c0 .14-.09.27-.13.4zm3.87-15.64v-.06c0-.1 0-.2.05-.3 0 .12-.05.25-.07.37zm-3.45 14.32l.19-.64c-.07.22-.13.43-.19.64zM746.64 1650h.05zM727 1673.64c0 .09-.11.18-.17.27.06-.09.12-.18.17-.27zm9.8-13.24l.06-.07zm-3.28 4.04l-.36.47.36-.47zm7.05-8.3l-.13.15.13-.15zm-9.18 11.12l-.35.48.35-.48zm11.55-13.61l-.17.17.17-.17zm289.59 93.79l.3-.73-.31.75zm-307.77-70.09l.27-.46z"/><path class="cls-2" d="M1039.71 1721.67c0-.27.09-.54.13-.81-.15 1-.32 1.91-.5 2.89 0-.12 0-.25.07-.37 0-.32.11-.63.17-1s.08-.45.13-.71zm.55-3.53c-.12.83-.25 1.68-.39 2.54 0-.22.07-.44.11-.67l.15-1c0-.18.06-.36.08-.54.02-.12.03-.22.05-.33zm.14-1.04c0-.21.07-.43.09-.65v-.12c0-.3.07-.59.11-.89-.05.56-.12 1.1-.2 1.66zm.33-2.5a1.49 1.49 0 0 1 0-.21c.01.04.01.12 0 .21zm-14.5 44.56l.2-.28c.15-.21.29-.43.44-.65l.57-.89c.13-.22.27-.44.41-.66l.58-1 .38-.64c.1-.19.2-.38.31-.57l.28-.51c.11-.2.22-.39.32-.59.24-.46.48-.93.71-1.4a3 3 0 0 0 .16-.31c.23-.46.45-.94.67-1.41.06-.11.11-.22.16-.33s.15-.32.22-.48.27-.61.4-.92c.06-.13.12-.25.17-.38l.29-.68.31-.75.06-.13a1.86 1.86 0 0 1 .1-.25l.3-.76c.14-.36.28-.72.41-1.08l.3-.79c.13-.35.26-.7.38-1l.29-.83c.12-.34.24-.69.35-1s.19-.55.28-.82a2.29 2.29 0 0 1 .08-.28c0-.13.09-.26.13-.4l.12-.39c.09-.27.17-.55.26-.82s.12-.42.19-.64l.09-.31v-.14l.24-.79.33-1.21.19-.67c.15-.59.31-1.18.46-1.76v-.07l.18-.73c0-.09.05-.19.07-.29s.08-.3.11-.45.07-.26.1-.39c.07-.29.13-.57.2-.86s.15-.66.22-1 .13-.61.2-.91c0-.17.08-.34.11-.51v-.15c-2.18 10.79-6.08 22.86-12.33 31.88zm13.02-34.95a1.55 1.55 0 0 0 0-.21c-.19 1-.39 2-.61 3.09v-.13c.06-.31.13-.62.19-.93 0-.12 0-.24.07-.36s.07-.35.1-.52.2-.63.25-.94zm.08-.42z"/><path class="cls-3" d="M1181 1735.57c30.67 2 60 3.33 73.33-4s43.34-38 27.34-46-13.54 5.32-30.67 20c-18.67 16-44 26.66-70 30zm-235.33 89.33c-20 9.33-40 8-66.67 3.33s-53.33-10.66-53.33-22 7.33-19.33 26.66-16.66 42.67 18 54 23.33 23.34 16 39.34 12zM807 1787.57c-13.33 2.66-31.33 10.66-55.33 6s-59.34-14.67-65.34-28c-.66-14 10.81-16.6 20.74-18.3s31.26 23.63 55.26 31.63a175.29 175.29 0 0 0 44.67 8.67z"/></g><g id="Feet_Shadow"><path class="cls-4" d="M1044.66 1610.56c4.3-.39 7.91-.84 10.94-1.27a28.43 28.43 0 0 0 6.51.17c.7 0 1.42-.11 2.16-.19l1.83-.24h.43c1.55-.22 3.17-.51 4.86-.85l1.22-.26 1.12-.24 1.28-.29 1.17-.28 1.25-.31c.79-.2 1.59-.4 2.4-.62l3-.81c10.94-3.1 23.16-7.52 34.46-12l2-.79 1.09-.43.64-.26.21-.08.82-.33.67-.27.43-.18 1-.39.93-.38 1.08-.44.79-.33.9-.37.38-.16.56-.23 1.1-.45.7-.3 1-.39.67-.28.14-.06 1.32-.56h.08l.34-.15 1.14-.48.52-.23 1-.4.57-.25.11-.05 1.12-.48.32-.14.17-.07 1-.45c.17-.07.35-.14.51-.22l1.08-.46.36-.16 1-.42.39-.17h.11l.93-.41c7.5-3.31 12.26-5.54 12.26-5.54l1.76 8.18h.17a42 42 0 0 1 9.19 1.45 70.46 70.46 0 0 1 8.8 3 143.1 143.1 0 0 1 16.61 8.09 168.71 168.71 0 0 1 30 21.47 111.39 111.39 0 0 1 12.77 13.38 50.62 50.62 0 0 1 9.2 16.07 47.06 47.06 0 0 1 2 18.39c-.16 3.07-.49 6.12-.46 9.15s.6 6.06 2.48 8.39l-.31.25a21.15 21.15 0 0 0 7.88 6.28c-2.08.8-4.25 1.46-6.37 2.08l-41.48 12.13c21-13.8 25.78-32.21 31.77-52.63-.29-.75-.6-1.5-.94-2.23a39.68 39.68 0 0 0-4-7.08 62.41 62.41 0 0 0-5.28-6.45 124.73 124.73 0 0 0-12.5-12c-1.08-1-2.22-1.89-3.37-2.8s-2.26-1.86-3.44-2.73l-3.5-2.68c-1.18-.87-2.4-1.71-3.59-2.57-4.79-3.41-9.72-6.68-14.77-9.69-1.24-.79-2.54-1.47-3.81-2.21l-1.9-1.12-1.93-1c-1.29-.69-2.57-1.41-3.88-2s-2.58-1.36-3.89-1.91-2.62-1.24-3.92-1.71c-1.08-.43-2.17-.92-3.24-1.3a145.92 145.92 0 0 0-27.47-1.21l-7.74 1.62a143.44 143.44 0 0 0-23 28.5c-1.61 2.58-5.5 8-5.5 8s5.67 8.44 7 10.5c12.19 18.9 26.76 33.93 43 49.5s34.91 31.22 57 27c-4.6 3.42-5.57 8.51-4.18 13.58a143 143 0 0 1-24.82 5.49c5.76.37 11.47.72 17 1-8.7-.07-17.07-.46-24.94-.85l-1.33-.08-1-.07c-7.64-.57-22.07-2.32-38.74-4.83l-2-.3-.48-.07-1.8-.28-.65-.1-1.71-.27-.78-.12-1.55-.25-1-.15-1.5-.25-1-.16-1.51-.25-1-.17-1.46-.24-1.09-.18-1.41-.24-1.17-.2-1.34-.23-1.23-.22-1.32-.23-1.26-.22-1.31-.23-1.25-.23-1.32-.24-1.26-.23-1.27-.23-1.32-.25-1.21-.22-1.35-.26-1.19-.23-1.36-.26-1.18-.23-1.36-.27-1.15-.23-1.35-.27-1.16-.23-1.34-.28-1.13-.23-1.34-.28-1.12-.24-1.32-.28-1.11-.24-1.32-.29-1.06-.23-1.32-.3-1-.23-1.28-.3-1-.24-1.25-.29-1-.25-1.22-.29-1-.25-.34-.09-.86-.21-1-.25-1.18-.3-1-.25-1.14-.3-1-.26-1.11-.3-.93-.25-1.08-.31-.9-.25-1-.31-.88-.26-1-.3-.85-.26-1-.31-.81-.25-.93-.31-.79-.26-.89-.31-.74-.26-.87-.31-.7-.26-.83-.32-.65-.25-.8-.32-.6-.25-.75-.32-.56-.25-.8-.37-.42-.19-1.13-.57c-.06.72-.13 1.48-.21 2.26v.38c-.07.66-.15 1.34-.23 2v.26c0 .27-.07.56-.11.84-.07.54-.14 1.1-.22 1.66 0 .35-.09.69-.14 1-.12.83-.25 1.68-.39 2.54v.17c-.15 1-.32 1.91-.5 2.89a1.55 1.55 0 0 1 0 .21c-.19 1-.39 2.05-.61 3.09v.08c-2.29 10.9-6.19 23-12.44 32-.14.19-.27.39-.41.59s-.3.42-.46.62l-.33.44c-.06.08-.12.15-.17.23l-.15.19c-.15.19-.3.39-.46.58s-.26.32-.39.47l-.23.28-.08.09c-.15.18-.29.36-.45.53s-.53.59-.8.88l-.4.42c-.4.42-.82.83-1.24 1.23-14.56 13.59-59.22 57.28-86.41 64.07-14.36 3.59-37.4 2.58-56.66-1.9l1.41.24c26.67 4.67 46.67 6 66.67-3.33-16 4-28-6.67-39.34-12s-34.66-20.67-54-23.33a46.85 46.85 0 0 0-9.65-.43c-.44-1.15-.86-2.34-1.25-3.58 0-1-.07-2-.1-3.06v-.58c0-1.07-.05-2.15-.07-3.25l-1.55.45c-.29-1.28-.56-2.6-.8-3.94a35.64 35.64 0 0 1-1.45 4.6l-2.49.71h-.05c-4.83 1.37-10.09 2.8-15.63 4.21l-1.06.27-1.77.44-1.37.33-1.68.41-1.51.36-1.61.39-1.64.38-1.53.35-1.77.4-1.48.32-1.87.41-.94.2c2.08-.54 4.06-1 6-1.4a175.29 175.29 0 0 1-44.67-8.67c-24-8-45.33-33.33-55.26-31.63 0-1.51 0-3 .06-4.48v-1.39c0-1.06.08-2.11.14-3.15v-1.49c.07-1.08.15-2.14.24-3.19v-.47l.06-.74c.13-1.43.28-2.84.44-4.24a2.51 2.51 0 0 1 0-.27v-.4c.14-1.18.3-2.35.47-3.51l.09-.62c0-.23.07-.46.11-.69.15-1 .31-1.91.48-2.86a59 59 0 0 1 .23-1.3c.2-1.06.4-2.1.62-3.14.05-.27.11-.54.16-.81.29-1.31.59-2.6.9-3.88 0-.16.09-.33.13-.5a3 3 0 0 0 .08-.32c.26-1 .52-2 .8-3 0-.17.09-.34.14-.51s.13-.44.19-.66c.26-.89.53-1.78.8-2.66a160.452 160.452 0 0 1 1.45-4.38l.06-.17v-.08c.43-1.2.87-2.38 1.33-3.55a.88.88 0 0 0 0-.15c.09-.21.18-.43.26-.64.36-.9.73-1.79 1.1-2.67l.41-1q.57-1.31 1.17-2.58v-.07c.1-.23.21-.46.32-.69q1.56-3.32 3.29-6.46c0-.09.1-.17.14-.26s.16-.27.23-.41c.47-.83.94-1.66 1.42-2.47l.27-.46c.05-.09.1-.18.16-.27.52-.88 1.06-1.75 1.6-2.61l.06-.1c.06-.09.12-.18.17-.27q1.93-3 4-5.87l.35-.48c.58-.79 1.17-1.58 1.77-2.35l.36-.47a87.4 87.4 0 0 1 3.28-4l.06-.07c1.12-1.32 2.25-2.61 3.41-3.87l.17-.17.13-.15c.72-.78 1.45-1.54 2.18-2.3l.17-.17c1.21-1.24 2.45-2.46 3.7-3.64h.05q1.89-1.79 3.82-3.48l.17-.15c3.5-3.06 7.12-5.91 10.82-8.58a171.79 171.79 0 0 1 20-12.31c2.25-1.19 4.51-2.33 6.76-3.41 1.1-.53 2.2-1 3.29-1.54h.11c1.1-.5 2.2-1 3.3-1.48h.14c1-.45 2-.88 3-1.3l.4-.16c1.05-.44 2.09-.87 3.14-1.28l.21-.09 2.83-1.1.6-.23 3-1.11.21-.07c.91-.34 1.82-.66 2.72-1l.73-.26 2.86-1 .26-.72h.2q1.74-5.09 3.41-10l7-19.49 1.77-4.94c1.5 1.21 3 2.32 4.51 3.36 10.69 7.4 21.57 10.91 35.14 12.72a341.54 341.54 0 0 0 37.41 2.43h1.64a15.09 15.09 0 0 0 4.49 4c6.55 4 18 6.61 32.53 8.46.72 2 1.23 3.21 1.14 3.81 0 0 13.5-1.83 34.17 7.5S1005 1653 1005 1653c-20-28.5-63.33-27.33-79.33-21.33S902 1656 902 1674c0 20.28 17 39.33 31 68s7.81 29.58 20 47c7 10 20.67 12 38.67-4.67 15-13.86 29.47-24.49 36.23-33 5.32-25.74 13.53-72.46-5.31-100.72 8.41-11.84 15.77-12.61 22.07-40.05zm4.67 102.51l-.87-.31zm1.67.57l-.89-.31zm34.18 8.74l-1.34-.28zm86.59 13.16h-.01.01zm-84.12-12.65l-1.34-.28zm-34.97-8.68l-.93-.31zm42.53 10.17l-1.36-.26zm-54.21-12.46v.38z"/><path class="cls-4" d="M1040.33 1717.69a.59.59 0 0 0 0 .13.59.59 0 0 1 0-.13zm67.67 9.03l-1.26-.22zm-67.28-12.05v.41a.945.945 0 0 1 0-.41zm51.95 9.22l-1.36-.27zm-52.8-3.2zm50.29 2.7l-1.35-.27zm-47.81-13.16l-1.13-.57zm-3.67 16.87zm7.6-15.17l-.8-.32zm-2.71-1.14l-.8-.37zm1.31.57l-.75-.32zm9.58 3.41l-1-.31zm45.82 10.57l-1.32-.25zm-27.07-5.59l-1.25-.29zm42.3 8.25l-1.09-.18zm5.01.84l-1-.16zm-2.52-.41l-1-.17zm-47.08-9.22l-1.22-.29zm4.62 1.08l-1.28-.3zm2.37.53l-1.32-.3zm32.59 6.35l-1.23-.22zm-30.21-5.83l-1.32-.29zm25.09 4.93l-1.25-.23zm-2.57-.47l-1.26-.23zm10.19 1.8l-1.17-.2zm10 1.64l-1-.15zm-60.75-12.24l-1.11-.3zm69.75 13.63zm-71.79-14.17l-1.08-.31zm22.51 5.4l-1.32-.28zm88 13.61zm-112.49-19.57l-1-.31zm-1.92-.57l-1-.3zm8.03 2.24l-1.14-.3zm60.99 12.04l-.78-.12zm-27.58-4.74l-1.35-.26zm32.25 5.46l-.48-.07zm-63.51-12.21l-1.18-.3zm2.19.55l-1.2-.3zm59.01 11.33l-.65-.1zm-79.93-17.5l-.83-.32zm-21.53 46.67v-.01.01zm13.06-35.17v-.25a1.55 1.55 0 0 1 0 .25z"/><path class="cls-4" d="M1039.29 1724a1.55 1.55 0 0 0 0-.21 1.55 1.55 0 0 1 0 .21zm-13.06 35.17v-.01.01zm12.44-32v-.07zm1.95-11.73c0-.12 0-.24.05-.36s0-.28 0-.41v-.07c.02.27-.01.56-.05.84zm-.75 5.25v.08-.08zm.39-2.55v-.32a.59.59 0 0 1 0-.13c0-.2.05-.39.07-.59.03.35-.02.69-.07 1.04zm-289.58-71.81l-.17.15.17-.15zM802 1788.67l1.85-.4-1.87.41zm37.7-9.67l1.55-.45-1.55.45zm-132.38-40.85v-1c.03.33.01.66 0 1zm135.23 62.28c0 .27.07.53.1.79a2.54 2.54 0 0 1 0 .29c-.05-.35-.09-.71-.14-1.08zm-.88-9.95c0 .41.06.81.08 1.21v.34c0-.51-.06-1-.1-1.55zm-.35-8.66zm.59 12.1a2.45 2.45 0 0 1 0 .27c0-.31 0-.63-.07-1 .04.28.06.51.07.73zM708.17 1728a2.51 2.51 0 0 1 0-.27c.02.1.01.19 0 .27zm328.83 6.31l.39-1.53c0-.08.05-.16.07-.23-.15.58-.31 1.17-.46 1.76zm-324.66-27.59c0-.17.09-.34.14-.51-.05.17-.1.34-.14.51zm4-12.01a.88.88 0 0 0 0-.15.88.88 0 0 1 0 .15zm-1.41 3.79l.06-.17c.01.06.01.12-.06.17zm4.4-10.79v-.07zm-8 22.8c0-.16.09-.33.13-.5-.04.17-.09.34-.13.5zm-1.69 7.85zm-.91 5.47l.09-.62zm1.53-8.61zm328.36 12.16v-.06c0 .17-.07.34-.11.51.05-.15.08-.3.11-.45zm1.51-8.38c0-.16 0-.32.07-.48 0 .18 0 .36-.08.54zm-1.23 7c0-.12 0-.24.07-.36 0 .12 0 .24-.07.36zm1.59-9.55v-.11.12zm-12.62 40.21c.2-.32.39-.65.58-1l-.58 1zM842.75 1802c0 .16 0 .31.07.47l.06.42c0-.3-.09-.59-.13-.89zm194.99-70.72l.06-.27c0 .15-.07.3-.11.45.02-.06.03-.12.05-.18zM723 1680.49c0-.09.1-.17.14-.26zm308.67 68.92l.39-.89c-.13.31-.27.62-.4.92zm-2.84 5.59l.09-.16c.07-.13.14-.27.22-.4-.11.19-.21.38-.31.57zm-6.53 9.07c.27-.29.54-.58.8-.88-.26.3-.53.59-.8.88zm-.4.42zM843 1803.85c0 .15.05.3.08.44l-.09-.55zm197.75-89.48zm-17.09 48.16l.2-.24-.23.28zm1.25-1.53l.12-.16c-.06.08-.12.15-.17.23zm-317.18-28.75l-.06.74.06-.74zm327.74 7.14v-.11c0 .14-.09.27-.13.4zm3.87-15.64v-.06c0-.1 0-.2.05-.3 0 .12-.05.25-.07.37zm-3.45 14.32l.19-.64c-.07.22-.13.43-.19.64zM746.64 1650h.05zM727 1673.64c0 .09-.11.18-.17.27.06-.09.12-.18.17-.27zm9.8-13.24l.06-.07zm-3.28 4.04l-.36.47.36-.47zm7.05-8.3l-.13.15.13-.15zm-9.18 11.12l-.35.48.35-.48zm11.55-13.61l-.17.17.17-.17zm289.59 93.79l.3-.73-.31.75zm-307.77-70.09l.27-.46z"/><path class="cls-4" d="M1039.71 1721.67c0-.27.09-.54.13-.81-.15 1-.32 1.91-.5 2.89 0-.12 0-.25.07-.37 0-.32.11-.63.17-1s.08-.45.13-.71zm.55-3.53c-.12.83-.25 1.68-.39 2.54 0-.22.07-.44.11-.67l.15-1c0-.18.06-.36.08-.54.02-.12.03-.22.05-.33zm.14-1.04c0-.21.07-.43.09-.65v-.12c0-.3.07-.59.11-.89-.05.56-.12 1.1-.2 1.66zm.33-2.5a1.49 1.49 0 0 1 0-.21c.01.04.01.12 0 .21zm-14.5 44.56l.2-.28c.15-.21.29-.43.44-.65l.57-.89c.13-.22.27-.44.41-.66l.58-1 .38-.64c.1-.19.2-.38.31-.57l.28-.51c.11-.2.22-.39.32-.59.24-.46.48-.93.71-1.4a3 3 0 0 0 .16-.31c.23-.46.45-.94.67-1.41.06-.11.11-.22.16-.33s.15-.32.22-.48.27-.61.4-.92c.06-.13.12-.25.17-.38l.29-.68.31-.75.06-.13a1.86 1.86 0 0 1 .1-.25l.3-.76c.14-.36.28-.72.41-1.08l.3-.79c.13-.35.26-.7.38-1l.29-.83c.12-.34.24-.69.35-1s.19-.55.28-.82a2.29 2.29 0 0 1 .08-.28c0-.13.09-.26.13-.4l.12-.39c.09-.27.17-.55.26-.82s.12-.42.19-.64l.09-.31v-.14l.24-.79.33-1.21.19-.67c.15-.59.31-1.18.46-1.76v-.07l.18-.73c0-.09.05-.19.07-.29s.08-.3.11-.45.07-.26.1-.39c.07-.29.13-.57.2-.86s.15-.66.22-1 .13-.61.2-.91c0-.17.08-.34.11-.51v-.15c-2.18 10.79-6.08 22.86-12.33 31.88zm13.02-34.95a1.55 1.55 0 0 0 0-.21c-.19 1-.39 2-.61 3.09v-.13c.06-.31.13-.62.19-.93 0-.12 0-.24.07-.36s.07-.35.1-.52.2-.63.25-.94zm.08-.42zm0 0zM818.7 1600.57l7-19.49-10.61 29.55h.2q1.71-5.12 3.41-10.06z"/><path class="cls-5" d="M1043.32 1689.39c.6-6.74 1.39-13.45 2.48-20.1.52-3.33 1.12-6.63 1.79-9.92s1.48-6.49 2.43-9.71c1.87-6.42 4.07-12.81 6.17-19.3s4.07-13.09 5.65-19.8l.27-1.2a28.43 28.43 0 0 1-6.51-.17c-1.34 6.55-3 13-4.78 19.55s-3.8 13-5.36 19.73c-.8 3.34-1.45 6.76-2 10.16s-1 6.79-1.28 10.19c-.67 6.82-1 13.63-1.18 20.44q-.12 5.1-.13 10.2c0 3.39.09 6.8-.06 10.15l.4.05h.39c.8-6.77 1.08-13.52 1.72-20.27zm-150.56-52.24c-1.15.82-2.29 1.67-3.41 2.55a141.27 141.27 0 0 0-13.38 12 85.73 85.73 0 0 0-6.07 6.69 75.71 75.71 0 0 0-5.2 7.4 103.11 103.11 0 0 0-8 16.13 199.79 199.79 0 0 0-9.8 34.53 252.6 252.6 0 0 0-3.89 71.44l.79-.07a344.08 344.08 0 0 1 9.33-70.11c.73-2.82 1.47-5.65 2.27-8.46s1.54-5.62 2.4-8.38a150.78 150.78 0 0 1 5.91-16.12 101 101 0 0 1 7.63-14.83 65.8 65.8 0 0 1 4.74-6.57c.85-1 1.71-2 2.63-3 .43-.46.95-1 1.45-1.5l1.52-1.54a134.81 134.81 0 0 1 12.5-11.52c1.49-1.19 3-2.33 4.56-3.4l.8.22.24-.93 1.07-.71c.56-.38 1.13-.73 1.71-1.07s1.15-.68 1.73-1c1.14-.64 2.43-1.31 3.64-2a101.52 101.52 0 0 1 15.53-6.33c1.35-.4 2.7-.81 4.06-1.17s2.73-.71 4.1-1c2.75-.7 5.53-1.21 8.34-1.69a134.32 134.32 0 0 1 17.07-1.52 53.52 53.52 0 0 1 16.47 1.82 48.09 48.09 0 0 1 15.17 7.23 62.61 62.61 0 0 1 6.77 5.5 83.18 83.18 0 0 1 6.25 6.34l.66-.46a71.28 71.28 0 0 0-11.93-13.44 49.57 49.57 0 0 0-15.5-9.11 57 57 0 0 0-17.71-3.23 122.43 122.43 0 0 0-18 .64 114.12 114.12 0 0 0-17.67 3.4 108.32 108.32 0 0 0-16.88 6.27c-.75.34-1.5.71-2.24 1.08q4.18-16.32 8.22-32.65a15.09 15.09 0 0 1-4.49-4h-1.64c-.76 2.83-1.51 5.67-2.28 8.5q-4.58 17.11-9.47 34.07zM707.18 1741.3c0-1.06.08-2.11.14-3.15v-1.49c.07-1.08.15-2.14.24-3.19v-.47l.06-.74c.13-1.43.28-2.84.44-4.24a2.51 2.51 0 0 1 0-.27v-.4c.14-1.18.3-2.35.47-3.51l.09-.62c0-.23.07-.46.11-.69.15-1 .31-1.91.48-2.86a59 59 0 0 1 .23-1.3c.2-1.06.4-2.1.62-3.14.05-.27.11-.54.16-.81.29-1.31.59-2.6.9-3.88 0-.16.09-.33.13-.5a3 3 0 0 0 .08-.32c.26-1 .52-2 .8-3 0-.17.09-.34.14-.51s.13-.44.19-.66c.26-.89.53-1.78.8-2.66a160.452 160.452 0 0 1 1.45-4.38l.06-.17v-.08c.43-1.2.87-2.38 1.33-3.55a.88.88 0 0 0 0-.15c.09-.21.18-.43.26-.64.36-.9.73-1.79 1.1-2.67l.41-1q.57-1.3 1.17-2.58v-.07c.1-.23.21-.46.32-.69q1.56-3.32 3.29-6.46c0-.09.1-.17.14-.26s.16-.27.23-.41c.47-.83.94-1.66 1.42-2.47l.27-.46c.05-.09.1-.18.16-.27.52-.88 1.06-1.75 1.6-2.61l.06-.1c.06-.09.12-.18.17-.27q1.93-3 4-5.87l.35-.48c.58-.79 1.17-1.58 1.77-2.35l.36-.47a87.4 87.4 0 0 1 3.28-4l.06-.07c1.12-1.32 2.25-2.61 3.41-3.87l.17-.17.13-.15c.72-.78 1.45-1.54 2.18-2.3l.17-.17c1.21-1.24 2.45-2.46 3.7-3.64h.05q1.89-1.79 3.82-3.48l.17-.15c3.5-3.06 7.12-5.91 10.82-8.58a171.79 171.79 0 0 1 20-12.31c2.25-1.19 4.51-2.33 6.76-3.41 1.1-.53 2.2-1 3.29-1.54h.11c1.1-.5 2.2-1 3.3-1.48h.14c1-.45 2-.88 3-1.3l.4-.16c1.05-.44 2.09-.87 3.14-1.28l.21-.09 2.83-1.1.6-.23 3-1.11.21-.07c.91-.34 1.82-.66 2.72-1l.73-.26 2.86-1 .26-.72-.4.07h-.06a210.75 210.75 0 0 0-42.32 19.14 141.75 141.75 0 0 0-35.83 30.13 121.81 121.81 0 0 0-22.65 40.9 132.92 132.92 0 0 0-5.27 22.86 177.83 177.83 0 0 0-1.5 23.4h.4c0-1.54 0-3.07.06-4.58.02-.48.03-.94.05-1.41z"/><path class="cls-5" d="M709.38 1735.71c.35-1.9.66-3.81 1.14-5.68s.77-3.77 1.23-5.63a155.4 155.4 0 0 1 7-21.66 122.57 122.57 0 0 1 10-20c1.92-3.16 4-6.22 6.21-9.18s4.51-5.83 7-8.58a152.7 152.7 0 0 1 34.04-28.3c12.65-8 26.39-14.34 40.53-20.07a64 64 0 0 1 12.49-1.75 89.78 89.78 0 0 1 13.69.46 73.88 73.88 0 0 1 13.55 2.69 44.57 44.57 0 0 1 6.47 2.5 12 12 0 0 1 1.56.78l1.53.87a15.36 15.36 0 0 1 1.45 1l1.46 1 .58-.54a36 36 0 0 0-12-8.07 69.4 69.4 0 0 0-13.79-4.32 84.59 84.59 0 0 0-14.37-1.66c-2.4-.07-4.8 0-7.21.13 3.59-10.48 6.88-20.43 10.05-30.21-1.51-1-3-2.15-4.51-3.36l-1.77 4.94-7 19.49q-1.66 4.93-3.41 10h-.2l-.26.72-2.86 1-.73.26c-.9.31-1.81.63-2.72 1l-.21.07-3 1.11-.6.23-2.83 1.1-.21.09c-1 .41-2.09.84-3.14 1.28l-.4.16c-1 .42-2 .85-3 1.3H795c-1.1.48-2.2 1-3.3 1.48h-.11c-1.09.5-2.19 1-3.29 1.54-2.25 1.08-4.51 2.22-6.76 3.41a171.79 171.79 0 0 0-20 12.31c-3.7 2.67-7.32 5.52-10.82 8.58l-.17.15q-1.93 1.69-3.82 3.48h-.05c-1.25 1.18-2.49 2.4-3.7 3.64l-.17.17c-.73.76-1.46 1.52-2.18 2.3l-.13.15-.17.17c-1.16 1.26-2.29 2.55-3.41 3.87l-.06.07c-1.12 1.32-2.21 2.66-3.28 4l-.36.47c-.6.77-1.19 1.56-1.77 2.35l-.35.48q-2.07 2.85-4 5.87c0 .09-.11.18-.17.27l-.06.1c-.54.86-1.08 1.73-1.6 2.61-.06.09-.11.18-.16.27l-.27.46c-.48.81-1 1.64-1.42 2.47-.07.14-.15.28-.23.41s-.09.17-.14.26q-1.72 3.15-3.29 6.46c-.11.23-.22.46-.32.69v.07q-.6 1.27-1.17 2.58l-.41 1c-.37.88-.74 1.77-1.1 2.67-.08.21-.17.43-.26.64a.88.88 0 0 1 0 .15c-.46 1.17-.9 2.35-1.33 3.55v.08l-.06.17a160.452 160.452 0 0 0-1.45 4.38c-.27.88-.54 1.77-.8 2.66-.06.22-.13.44-.19.66s-.1.34-.14.51c-.28 1-.54 2-.8 3a3 3 0 0 1-.08.32c0 .17-.09.34-.13.5-.31 1.28-.61 2.57-.9 3.88 0 .27-.11.54-.16.81-.22 1-.42 2.08-.62 3.14a59 59 0 0 0-.23 1.3c-.17.95-.33 1.9-.48 2.86 0 .23-.07.46-.11.69l-.09.62c-.17 1.16-.33 2.33-.47 3.51v.4a2.51 2.51 0 0 0 0 .27c-.16 1.4-.31 2.81-.44 4.24l-.06.74v.47c-.09 1-.17 2.11-.24 3.19v1.49c-.06 1-.1 2.09-.14 3.15v1.39c0 1.51-.06 3-.06 4.58h.4c.22-3.66.7-7.52 1.46-11.33zM963.66 1047l1.47-1.65z"/></g><g id="Body"><path class="cls-2" d="M1425 1113c-35.48-14.61-52-27.33-66.89-34.75a198.09 198.09 0 0 1-2.79 20.94c-.06.34-.13.67-.19 1-.16.81-.32 1.62-.48 2.41-.25 1.17-.5 2.33-.76 3.48-.22 1-.45 1.91-.68 2.85 0 .14-.07.27-.1.4-.26 1.06-.54 2.11-.82 3.16-.38 1.41-.77 2.79-1.18 4.16-.1.32-.19.64-.29 1-.41 1.35-.83 2.69-1.27 4-.44 1.32-.9 2.61-1.37 3.89-.1.3-.21.59-.32.89-.47 1.25-.95 2.49-1.44 3.7-.07.18-.15.35-.22.52-.1.23-.2.46-.29.69-.4 1-.8 1.88-1.21 2.79l-.48 1.07c-.31.67-.62 1.33-.94 2l-.21.43-.51 1-.66 1.3c-.29.56-.59 1.11-.88 1.66l-.33.59c-.36.66-.73 1.31-1.1 2l-.12.21-.68 1.15-.25.41c-.35.57-.7 1.13-1 1.67l-.51.77-.82 1.21-.41.58c-.32.45-.64.91-1 1.34l-.1.14a61.9 61.9 0 0 1-1.79 2.27l-.26.32c-.61.73-1.22 1.44-1.84 2.11a41.6 41.6 0 0 1-6.23 5.61c-17.47 12.62-50.48-9.71-127.18-66-70.06-51.44-115.81-119.06-141.71-132.61-5.26-8-.59-13.2 5.38-16.89l-.27.06A486.89 486.89 0 0 0 1147 916c-49.8 14.32-75.26 4.78-98.46 6-39 2-73 31-113 31-128 0-228-59-239-109-10.74-48.83 14.28-72.92 13-87-2-22-23-36-33-112s37-136 113-161 154 41 234 40 147-81.66 171-83c18-1 60 7 72 70s-1 146 1 184a6.36 6.36 0 0 0 2.09 4.38c4.71 11.82 22.9 25.8 26.91 59.62 1.32 11.11-1.59 25.07-8.94 40.21 7.71-15.53 10.79-29.85 9.44-41.21-4.52-38.06-27-51-28-64s19-83 17-170-44-129-92-171-138-85-277-83S617.8 388.9 590 443c-37 72-52 126-19 257 25.23 100.16 95.86 212 246 251 46.22 12 101.75 14.1 163 9 3.61-.3 7.21-.64 10.78-1 3.76 3.41-3.3 9.6-9.89 15.7-18.71 12.17-43.34 37.5-75.72 62.07-39.49 29.94-198.06 117.47-237.87 176.7s1 111.65 35.92 147.57c20.93 21.5 48.8 40.22 71.57 53.66l-1.55.69-.48.21-1.21.55-.67.31-1.19.55-.75.35-1.24.58-.82.39-1.3.61-.88.43-1.34.65-.93.46-1.4.69-1 .48-1.46.74-1 .5-1.5.78-1 .52-1.56.83-1 .53-1.62.89-1 .52-1.69 1-.91.51-1.8 1-.81.47-2 1.2-.6.36c-.87.53-1.73 1.06-2.58 1.6l-2.62 1.69c-12.2 8-22.81 17.27-25.06 26.25-5.82 23.3 5.83 38.83 19.42 28.15 24.73 40.19 63 64.37 102.07 71.58-.07.18-.13.35-.19.53l-.36 1c-.09.26-.19.51-.28.76l-.3.85v.11c-.09.25-.18.5-.26.75s-.28.76-.41 1.14c-.06.19-.13.38-.2.57v.07c-.1.29-.2.56-.29.84l-.1.28a2.25 2.25 0 0 0-.08.24c-.15.4-.28.8-.41 1.18l-.15.43c-.09.28-.19.56-.28.82v.07c0 .11-.07.22-.11.33-.12.35-.23.7-.34 1 0 .08-.05.16-.07.23l-.25.75-.09.3-.26.85v.1c-.07.23-.13.45-.19.66v.06a1 1 0 0 1 0 .14l-.17.66-1 2.66c12.19 9.75 24.17 14 39.65 16.08a341.54 341.54 0 0 0 37.41 2.43h1.64a15.09 15.09 0 0 0 4.49 4c6.55 4 18 6.61 32.53 8.46 11.61 1.48 25.2 2.5 39.85 3.43 29 1.84 48.5 1.13 61.62-.06 4.3-.39 7.91-.84 10.94-1.27a28.43 28.43 0 0 0 6.51.17c5.69-.39 12.86-1.93 20.68-4.15 10.94-3.1 23.16-7.52 34.46-12 21.3-8.37 39.33-16.85 39.33-16.85s29.13-178.65 9.71-309.71q-.46-3.16-1-6.3c-.11-.68-.22-1.35-.32-2-.23-1.43-.46-2.86-.7-4.3-.12-.77-.26-1.55-.39-2.32-.22-1.34-.45-2.68-.68-4l-.42-2.39c-.23-1.33-.47-2.65-.71-4l-.42-2.33c-.26-1.38-.51-2.75-.77-4.13-.14-.7-.27-1.41-.41-2.11-.29-1.51-.58-3-.88-4.54l-.33-1.68c-.37-1.86-.75-3.71-1.13-5.57-.05-.2-.09-.41-.13-.62q-2-9.66-4.21-19.2l-.15-.65q-.66-2.84-1.33-5.64c-.06-.28-.13-.56-.2-.84-.44-1.83-.88-3.67-1.33-5.49-.07-.27-.13-.53-.2-.8-.46-1.89-.94-3.79-1.42-5.67l-.12-.49q-2.34-9.2-4.84-18.24l-.12-.43-1.5-3 1.5 3c-.75-2.7-1.51-5.4-2.28-8.08.47.61.94 1.23 1.42 1.84l.66.87q.69.9 1.41 1.8c.24.32.48.63.73.94.48.61 1 1.23 1.45 1.84l.72.91c.51.64 1 1.29 1.54 1.93l.53.66c.92 1.15 1.86 2.3 2.82 3.47l.14.17 2.54 3.07.37.44.35.43.64.75.57.68.63.75c.21.24.41.49.62.74l.33.37.66.78.84 1c.21.24.42.49.64.73v.07c.25.29.51.58.76.88l1.12 1.29.39.44q4.63 5.31 9.59 10.69l.26.27c.17.2.35.39.53.58l1.74 1.87.46.49.32.34c.6.64 1.2 1.28 1.81 1.91l.18.2.31.32.09.09q2.52 2.65 5.12 5.3l.18.18q2.63 2.68 5.33 5.34c41.79 41.22 95.71 79.2 148.31 78.64 87.4-.94 147.51-100.14 168.88-142.59-5.84-3.01-35.44-15.23-81.84-34.34zm-681 319.67c-.75.19-1.53.42-2.3.64.77-.22 1.55-.45 2.3-.64zm-3.46 1c-.71.21-1.45.46-2.17.69.72-.27 1.46-.52 2.17-.73zm3.89-1.06c28.15-7.1 45.7 3 59.39 12.17-13.69-9.2-31.25-19.31-59.39-12.21zm64.22 15.39c1 .69 2 1.36 3 2-.97-.64-1.98-1.31-3-2zm-2.29-1.54l2.13 1.43zm158.38-395.82v.23c-.06.44-.12.89-.19 1.34q-.4 2.82-.87 5.84c0 .27-.09.55-.13.82-.22 1.39-.44 2.81-.67 4.26v.18c-.2 1.28-.41 2.57-.63 3.89-.08.52-.17 1-.26 1.56-.08.45-.15.9-.23 1.35-.07.39-.13.79-.2 1.19-.18 1.09-.37 2.2-.56 3.32v.21c-.08.48-.16 1-.25 1.47 0 .2-.07.4-.11.6-.64 3.73-1.32 7.6-2 11.58 0 .29-.1.58-.16.87-.13.71-.26 1.43-.38 2.15-.08.42-.16.84-.23 1.26-.51 2.86-1.05 5.78-1.59 8.75-.3 1.65-.61 3.32-.92 5l-.45 2.38v.07c-.15.82-.31 1.64-.46 2.47-.07.36-.13.71-.2 1.06v.06c-.28 1.52-.57 3-.86 4.58v.22c-.26 1.38-.52 2.77-.79 4.17l-.1.53c-.26 1.4-.53 2.8-.79 4.21v.11l-.05.25-.11.57c0 .22-.08.44-.13.66q-.48 2.57-1 5.17c-.07.35-.13.69-.2 1l-1.74 9.1-.15.8q-1.29 6.72-2.61 13.64l-4.65 24.25c0 .16-.07.33-.1.49l-.81 4.28v.4c-.28 1.45-.55 2.9-.83 4.35v.37l-1.77 9.31c0 .28-.11.56-.16.84-.23 1.24-.47 2.49-.71 3.74-.07.39-.15.79-.22 1.19l-.63 3.31c-.09.51-.19 1-.28 1.52-.21 1.09-.41 2.17-.61 3.25-.09.46-.18.91-.26 1.36l-.84 4.49c-.29 1.58-.59 3.16-.88 4.74v.2l-.15.79c-.22 1.18-.43 2.36-.65 3.55l-.12.62c-.06.34-.13.69-.19 1-.19 1-.37 2-.55 3-.09.47-.17.93-.26 1.4v.21c-.19 1.05-.39 2.1-.58 3.15-.09.52-.19 1-.28 1.55-.21 1.13-.41 2.27-.62 3.41l-.21 1.13v.11l-.84 4.61-.06.36c-.05.25-.09.51-.14.76l-.63 3.5c-.1.53-.19 1.06-.28 1.59-.19 1-.37 2-.56 3.08v.07l-.3 1.66c-.17 1-.35 2-.52 2.95-.1.58-.21 1.16-.31 1.74-.18 1-.36 2.07-.55 3.1 0 .32-.11.64-.17 1s-.07.4-.1.6l-.81 4.6c-.29 1.69-.6 3.4-.92 5.11 0 .18-.07.37-.11.55-.75 4-1.58 8.14-2.47 12.33 0 .17-.07.35-.11.52a124 124 0 0 1-1 4.37c-.09.37-.16.73-.25 1.1q-.59 2.61-1.2 5.27c-.12.52-.24 1-.37 1.58l-.42 1.81c-30.52-27.53-75.8-60.51-101.1-71.94 35.33-53.33 46-66.92 80-108.66 18.89-23.22 46.71-54.72 69.52-80.29-.61 1.5-.76 2.59-.92 3.7z"/><path class="cls-6" d="M1144.12 1165.03l-1.5-3.01 1.5 3.01zm-328.45 71.3c25.3 11.43 70.58 44.41 101.1 71.94l.42-1.81c.13-.53.25-1.06.37-1.58q.62-2.65 1.2-5.27c.09-.37.16-.73.25-1.1.32-1.47.64-2.92 1-4.37 0-.17.07-.35.11-.52.89-4.19 1.72-8.31 2.47-12.33 0-.18.07-.37.11-.55.32-1.71.63-3.42.92-5.11l.81-4.6c0-.2.07-.4.1-.6s.12-.64.17-1c.19-1 .37-2.07.55-3.1.1-.58.21-1.16.31-1.74.17-1 .35-2 .52-2.95l.3-1.66v-.07c.19-1 .37-2.06.56-3.08.09-.53.18-1.06.28-1.59l.63-3.5c.05-.25.09-.51.14-.76l.06-.36.84-4.61v-.11l.21-1.13c.21-1.14.41-2.28.62-3.41.09-.51.19-1 .28-1.55.19-1 .39-2.1.58-3.15v-.21c.09-.47.17-.93.26-1.4.18-1 .36-2 .55-3 .06-.34.13-.69.19-1l.12-.62c.22-1.19.43-2.37.65-3.55l.15-.79v-.2c.29-1.58.59-3.16.88-4.74l.84-4.49c.08-.45.17-.9.26-1.36.2-1.08.4-2.16.61-3.25.09-.51.19-1 .28-1.52l.63-3.31c.07-.4.15-.8.22-1.19.24-1.25.48-2.5.71-3.74 0-.28.11-.56.16-.84l1.77-9.31v-.37c.28-1.45.55-2.9.83-4.35v-.4l.81-4.28c0-.16.07-.33.1-.49q2.35-12.35 4.65-24.25 1.32-6.92 2.61-13.64l.15-.8 1.74-9.1c.07-.35.13-.69.2-1q.49-2.61 1-5.17c.05-.22.09-.44.13-.66l.11-.57.05-.25v-.11c.26-1.41.53-2.81.79-4.21l.1-.53c.27-1.4.53-2.79.79-4.17v-.22c.29-1.54.58-3.06.86-4.58v-.06c.07-.35.13-.7.2-1.06.15-.83.31-1.65.46-2.47v-.07l.45-2.38c.31-1.69.62-3.36.92-5 .54-3 1.08-5.89 1.59-8.75.07-.42.15-.84.23-1.26.12-.72.25-1.44.38-2.15.06-.29.11-.58.16-.87.71-4 1.39-7.85 2-11.58 0-.2.07-.4.11-.6.09-.5.17-1 .25-1.47v-.21c.19-1.12.38-2.23.56-3.32.07-.4.13-.8.2-1.19.08-.45.15-.9.23-1.35.09-.52.18-1 .26-1.56.22-1.32.43-2.61.63-3.89v-.18c.23-1.45.45-2.87.67-4.26 0-.27.08-.55.13-.82q.47-3 .87-5.84c.07-.45.13-.9.19-1.34v-.23c.16-1.11.31-2.2.45-3.26-22.81 25.57-50.63 57.07-69.52 80.29-33.51 41.3-44.2 54.89-79.53 108.22z"/><path class="cls-2" d="M1346.42 1130.12v.01-.01zm7.47-24.03c-.22 1-.45 1.91-.68 2.85.23-.94.46-1.89.68-2.85zm-.78 3.26c-.26 1.07-.54 2.12-.82 3.17.28-1.06.56-2.11.82-3.17zm-8.41 24.79l-.48 1.07zm1.5-3.49c-.1.24-.19.47-.29.7.09-.23.19-.46.29-.69zm-13.59 23.62l.26-.32zm22.04-51.66c.16-.79.32-1.6.48-2.41-.13.8-.32 1.62-.48 2.41zm-5.1 19.03zm-6.27 15.56l-.21.43zm4.58-10.78c.11-.3.22-.59.32-.89-.1.3-.18.59-.32.89zm2.96-8.79c.1-.32.19-.64.29-1-.11.37-.19.68-.29 1zm-14.67 31.97l-.42.59zm6.41-10.93l-.66 1.3zm-7.8 12.86l-.1.15zm4.03-6c-.09.14-.18.27-.26.41l.25-.41zm.8-1.36l-.12.21zm-2.11 3.44l-.51.78zm3.52-5.98l-.33.59z"/><path class="cls-3" d="M1338.22 1146.44c-.24.39-.49.79-.74 1.17.35-.54.7-1.1 1-1.67zm4.34-7.77l.51-1zm-6.41 10.93l.82-1.21zm3.92-6.26l-.48.83c.37-.64.74-1.29 1.1-2-.2.43-.41.83-.62 1.17zm-1.28 2.19l.68-1.15zm2.53-4.47l-.3.57c.29-.55.59-1.1.88-1.66-.19.37-.38.73-.58 1.09zm-10.55 15.32zm-177.5 15.01l-.14-.17zm181.53-19.9c.33-.43.65-.89 1-1.34-.38.48-.69.92-1 1.34zm-1.93 2.51c.6-.73 1.2-1.48 1.79-2.27-.59.74-1.19 1.49-1.79 2.27zm16.68-32.37c.44-1.31.86-2.65 1.27-4-.41 1.37-.82 2.69-1.27 4zm3.58-12.35v.06c0-.13.06-.26.1-.4-.05.12-.08.23-.1.34zm-.84 3.23zm1.61-6.46c.26-1.15.51-2.31.76-3.48-.26 1.2-.5 2.35-.76 3.48zm-5.72 19.48c.47-1.28.93-2.57 1.37-3.89-.44 1.36-.9 2.61-1.37 3.89zm6.95-25.33c.06-.34.13-.67.19-1-.06.33-.13.66-.19 1zm-9.79 32.51l-.36.8c-.09.22-.19.42-.28.63.41-.91.81-1.84 1.21-2.79zm-1.56 3.45l-.5 1c.32-.66.63-1.32.94-2zm2.42-5.51c.07-.17.15-.34.22-.52-.07.18-.15.35-.22.52zm.22-.53c.49-1.21 1-2.45 1.44-3.7-.47 1.25-.95 2.49-1.44 3.7z"/><path class="cls-3" d="M1156.53 1175.33l1.84 2.18c.21.24.41.49.62.74l1.83 2.14c.21.24.42.49.64.73l1.93 2.24c.13.15.27.3.4.46q4.56 5.22 9.44 10.51c.13.15.26.29.4.43.74.81 1.48 1.61 2.24 2.41l.49.53 2.31 2.45.31.32q5.24 5.49 10.77 11c.88.87 1.77 1.74 2.67 2.6l.31.3c.88.86 1.77 1.72 2.67 2.57l.2.2q7.17 6.83 14.74 13.41l.09.09 3 2.57.11.1c6.17 5.24 12.51 10.31 19 15.11 20.61 15.27 42.66 27.9 65.1 35.12h.09a140.36 140.36 0 0 0 21.17 5.09h.27c1.14.17 2.27.33 3.41.48h.1a116.71 116.71 0 0 0 14.2.91c20.06-6.73 29.45-26.94 34.07-58.14s-9.84-92.67-15.49-133.79c-.06.33-.12.65-.19 1s-.13.67-.19 1c-.16.81-.32 1.62-.48 2.41-.25 1.17-.5 2.33-.76 3.48-.22 1-.45 1.91-.68 2.85 0 .14-.07.27-.1.4-.26 1.06-.54 2.11-.82 3.16-.38 1.41-.77 2.79-1.18 4.16-.1.32-.19.64-.29 1-.41 1.35-.83 2.69-1.27 4-.44 1.32-.9 2.61-1.37 3.89-.1.3-.21.59-.32.89-.47 1.25-.95 2.49-1.44 3.7-.07.18-.15.35-.22.52-.1.23-.2.46-.29.69-.4 1-.8 1.88-1.21 2.79l-.48 1.07c-.31.67-.62 1.33-.94 2l-.21.43-.51 1-.66 1.3c-.29.56-.59 1.11-.88 1.66l-.33.59c-.36.66-.73 1.31-1.1 2l-.12.21-.68 1.15-.25.41c-.35.57-.7 1.13-1 1.67l-.51.77-.82 1.21-.41.58c-.32.45-.64.91-1 1.34l-.1.14a61.9 61.9 0 0 1-1.79 2.27l-.26.32c-.61.73-1.22 1.44-1.84 2.11-3.89 9.67-8 19.62-11.21 26.92-6.78 15.32-20.77 28.51-49.06 27.2-26.61-1.23-55.45-29.32-83.5-59-34.9-36.93-67.78-78.79-84.29-103.15 13.82 30.81 27.51 68.08 39.13 108.59l1.43 1.86.66.87q.69.9 1.41 1.8c.24.32.48.63.73.94.48.61 1 1.23 1.45 1.84l.72.91c.51.64 1 1.29 1.54 1.93l.53.66c.92 1.15 1.86 2.3 2.82 3.47l.14.17q1.43 1.74 2.91 3.51z"/><path class="cls-7" d="M1135.33 1135.26c11.19 6.68 22.31 11.26 27 7.22 6-5.16-6.59-21.11-23.61-36.59-8.18-7.44-14.07-12.48-18.65-15.05 5.29 14.08 10.41 28.95 15.26 44.42zm48.17 36.74c-7.69 8.72 11.5 30.5 19 38.5s25.76 20.78 34 12c7.5-8-14-30.5-22.5-38.5s-23-20.5-30.5-12zm93 69c6.81 22.69 25 31.5 39.5 32s31-9.5 27.5-28.5-26.5-33-43-30c-17.78 3.23-27 16.5-24 26.5zm77.17-134.83c.21-1.73-3.61 14.86-3.47 13.41-1.17 3.67-2.42 7.21-3.78 10.55-.07.18-.15.35-.22.53-.28.69-.57 1.37-.86 2l-.36.8c-.25.58-.5 1.14-.76 1.7l-.44 1c-.24.5-.47 1-.71 1.47l-.51 1-.66 1.3c-.19.36-.38.73-.58 1.09s-.41.78-.63 1.16-.41.75-.62 1.12l-.6 1-.69 1.15-.56.91-.64 1c-3 14.6.83 30.21 8.09 30.21 15.84.1 5.33-50.07 8-71.4z"/><path class="cls-6" d="M916.77 1308.26c.14-.59.27-1.17.41-1.75v-.06c.13-.53.25-1.06.37-1.59q.62-2.65 1.2-5.27c.09-.38.17-.75.25-1.12.32-1.47.64-2.92 1-4.37 0-.18.07-.36.11-.53.07-.35.15-.69.22-1q.56-2.62 1.07-5.21l.12-.59c.31-1.57.62-3.13.91-4.68l.15-.82c0-.18.07-.37.11-.56.32-1.71.63-3.42.92-5.11s.61-3.47.91-5.2c.06-.31.11-.63.17-.94l1.68-9.45v-.07l1.47-8.17v-.13l.11-.63.9-5v-.11l.84-4.58.27-1.49v-.06c.21-1.12.41-2.24.62-3.36.08-.45.17-.9.25-1.36.18-1 .36-2 .55-3v-.05l.18-1c.26-1.39.52-2.78.77-4.17v-.06c0-.24.09-.49.13-.73l1.77-9.47c.09-.43.17-.87.25-1.3.2-1.08.4-2.16.61-3.25v-.08c.09-.46.17-.92.26-1.38v-.06q1.75-9.27 3.49-18.39v-.23c.28-1.49.57-3 .85-4.46v-.24l5.59-29.13q1.32-6.92 2.61-13.64l.15-.8c.32-1.64.63-3.27.94-4.89l.09-.46c.21-1.09.41-2.18.62-3.26l.09-.49.21-1.09c.13-.7.27-1.39.4-2.09 0-.28.1-.55.16-.83l.42-2.25c.05-.23.09-.45.13-.67s.07-.38.11-.57l.07-.36c.26-1.41.53-2.81.79-4.21l.1-.53c.27-1.4.53-2.79.79-4.17v-.22c.06-.29.11-.58.16-.87.16-.8.31-1.6.46-2.4l.24-1.31.21-1.12.24-1.29c.07-.39.15-.79.22-1.18.15-.83.31-1.65.46-2.47l.21-1.13c.24-1.31.48-2.6.71-3.88.23-1.28.47-2.56.7-3.82.09-.49.18-1 .26-1.46.12-.64.24-1.28.35-1.91s.19-1 .28-1.56l.24-1.28c0-.2.07-.4.1-.59.1-.52.19-1 .28-1.56 0-.3.11-.59.16-.89s.12-.64.17-1l.27-1.5c.11-.62.22-1.23.32-1.84l.3-1.69c.17-1 .33-1.89.5-2.83.09-.57.19-1.14.29-1.7l.18-1.06c0-.21.08-.42.11-.62.09-.5.17-1 .25-1.47v-.21c.08-.49.16-1 .25-1.45s.15-.94.23-1.41c0-.15.05-.31.08-.46.07-.4.14-.81.2-1.21s.15-.9.23-1.35.18-1.07.26-1.61l.24-1.45c.13-.82.26-1.64.39-2.44v-.2c.08-.49.15-1 .23-1.47s.14-.92.22-1.37.15-1 .22-1.42c0-.29.08-.56.13-.84s.05-.35.08-.53l.21-1.36c.06-.45.13-.9.2-1.34s.13-.89.19-1.33.13-.86.19-1.28c.07-.45.13-.9.19-1.34v-.24c0-.32.09-.64.13-1 .1-.73.2-1.44.3-2.14v-.17c-22.81 25.57-50.63 57.07-69.52 80.29-34 41.74-44.67 55.33-80 108.66 25.3 11.43 70.58 44.41 101.1 71.94z"/><path class="cls-2" d="M960.92 1074.74v.21zm1.92-11.58v.2zm1.9-12.52v.24zm-3.06 19.57c-.06.4-.13.81-.2 1.21.07-.4.13-.8.2-1.19zm1.96-12.15c0 .28-.09.55-.13.84.04-.29.08-.57.13-.84zm.87-5.84zm-2.34 15.04c-.08.54-.17 1.07-.26 1.61.09-.57.18-1.09.26-1.61zm-8.97 50.1v.22-.1zm1.07-5.7l-.21 1.12v-.06c.08-.35.14-.72.21-1.06zm6.36-35.24c0 .2-.07.41-.11.62 0-.2.07-.4.11-.6zm-9.15 50.07l-.07.36.05-.25zm7.01-37.87c0 .3-.11.59-.16.89.06-.31.11-.6.16-.89zm-.49 3.04l-.24 1.28c.03-.44.11-.86.24-1.28zm-2.81 15.08c-.15.82-.31 1.64-.46 2.47v-.07zm202.98 116.36c.38 1.86.76 3.71 1.13 5.57-.37-1.86-.75-3.67-1.13-5.57zm-202.06-121.39zm209.22 160.78q.5 3.13 1 6.3-.5-3.16-1-6.3zm-213.06-140.21l.1-.53zm-4.18 21.97l.15-.8zM930.87 1235c.18-1 .36-2 .55-3-.19 1-.37 2-.55 3zm3.69-19.81c.2-1.08.4-2.16.61-3.25-.17 1.06-.41 2.17-.61 3.25zm229.75 40.97c.24 1.44.47 2.87.7 4.3-.23-1.46-.46-2.86-.7-4.3zm-2.2-12.7c.24 1.33.48 2.65.71 4-.23-1.35-.47-2.67-.71-4zM951.3 1127.42c0 .22-.08.44-.13.67.05-.22.09-.44.13-.66zm202.53 75.86q2.2 9.54 4.21 19.2-2.04-9.66-4.21-19.2zm5.8 27.07c.3 1.51.59 3 .88 4.54-.29-1.51-.58-3.03-.88-4.54zm-7.28-33.35q.68 2.8 1.33 5.64-.68-2.84-1.33-5.64zm8.57 40c.26 1.38.51 2.75.77 4.13-.26-1.38-.51-2.75-.77-4.13zm2.32 12.83zm-14.04-65.64c.48 1.88 1 3.78 1.42 5.67-.46-1.86-.94-3.79-1.42-5.67zM832 1564.75c.08-.25.17-.5.26-.75q-.45 1.29-.87 2.46c.07-.19.14-.38.2-.57.11-.38.25-.75.41-1.14zm-.65 1.78c-.14.39-.27.76-.39 1.12l.1-.28c.09-.28.19-.55.29-.84zm-2.11 6.24l.25-.75zm321.58-382.11c.45 1.82.89 3.66 1.33 5.49-.44-1.83-.88-3.67-1.33-5.49zm-320.5 378.84c-.1.31-.2.6-.3.89v-.07c.11-.26.21-.54.3-.82zm.15-.43c.13-.38.26-.78.41-1.18-.15.4-.28.8-.41 1.18zm-1.32 4c-.1.31-.19.61-.27.89zm-.72 2.51l.17-.66zm121.76-442.32l-.21 1.09c.08-.35.14-.74.21-1.09zm-120.28 437.46l-.41 1.26c0-.07 0-.15.07-.23.11-.33.22-.68.34-1.03zm-1.48 4.86l-.96 2.66.96-2.66zm89.13-270.71c-.12.53-.24 1.06-.37 1.59.13-.53.25-1.06.37-1.58zm-88.71 269.19c-.08.25-.14.49-.21.72v-.06c.08-.21.14-.43.21-.66zm4.01-11.78l.36-1c-.33.9-.64 1.77-.94 2.61l.3-.85c.09-.25.19-.5.28-.76zm106.98-374.97c-.28 1.48-.57 3-.85 4.46v-.11c.3-1.45.57-2.9.85-4.35zM919 1298.49c-.08.37-.16.74-.25 1.12.1-.39.17-.75.25-1.12zm11.61-62.09c-.21 1.12-.41 2.24-.62 3.36.19-1 .39-2.1.58-3.15zm-.91 4.95l-.84 4.58.21-1.13c.22-1.18.42-2.32.63-3.45zm3.75-20.27l.84-4.49-1.77 9.47v-.2c.34-1.62.64-3.2.93-4.78zm-4.6 24.92l-.9 5 .06-.36zm3.53-19.19c-.25 1.39-.51 2.78-.77 4.17l.12-.62c.27-1.19.43-2.36.65-3.55zm3.92-20.89c.24-1.25.48-2.5.71-3.74 0-.28.11-.56.16-.84l1.77-9.31q-1.74 9.1-3.49 18.39l.63-3.31c.07-.4.15-.8.22-1.19zm-16.23 87.66c0 .17-.07.35-.11.53.04-.18.04-.36.11-.53zm5.44-29c.17-1 .35-2 .52-2.95l.3-1.66-1.68 9.45c.19-1 .37-2.07.55-3.1.1-.58.21-1.16.31-1.74zm-1.03 5.8c-.3 1.73-.6 3.47-.91 5.2l.81-4.6c.03-.2.07-.4.1-.6zm16.25-87.75c0-.16.07-.33.1-.49q2.35-12.35 4.65-24.25l-5.59 29.11v-.11zm-18.08 98.06c0 .19-.07.38-.11.56 0-.18.07-.37.11-.55zm4.53-25.46l.63-3.5-1.47 8.17c.19-1 .37-2.06.56-3.08.1-.53.18-1.06.28-1.59zm32.43 89.92l-.66-.65zm-41.72 199.73z"/><path class="cls-6" d="M815.67 1236.33c25.3 11.43 70.58 44.41 101.1 71.94l.42-1.81c.13-.53.25-1.06.37-1.58q.62-2.65 1.2-5.27c.09-.37.16-.73.25-1.1.32-1.47.64-2.92 1-4.37 0-.17.07-.35.11-.52.89-4.19 1.72-8.31 2.47-12.33 0-.18.07-.37.11-.55.32-1.71.63-3.42.92-5.11l.81-4.6c0-.2.07-.4.1-.6s.12-.64.17-1c.19-1 .37-2.07.55-3.1.1-.58.21-1.16.31-1.74.17-1 .35-2 .52-2.95l.3-1.66v-.07c.19-1 .37-2.06.56-3.08.09-.53.18-1.06.28-1.59l.63-3.5c.05-.25.09-.51.14-.76l.06-.36.84-4.61v-.11l.21-1.13c.21-1.14.41-2.28.62-3.41.09-.51.19-1 .28-1.55.19-1 .39-2.1.58-3.15v-.21c.09-.47.17-.93.26-1.4.18-1 .36-2 .55-3 .06-.34.13-.69.19-1l.12-.62c.22-1.19.43-2.37.65-3.55l.15-.79v-.2c.29-1.58.59-3.16.88-4.74l.84-4.49c.08-.45.17-.9.26-1.36.2-1.08.4-2.16.61-3.25.09-.51.19-1 .28-1.52l.63-3.31c.07-.4.15-.8.22-1.19.24-1.25.48-2.5.71-3.74 0-.28.11-.56.16-.84l1.77-9.31v-.37c.28-1.45.55-2.9.83-4.35v-.4l.81-4.28c0-.16.07-.33.1-.49q2.35-12.35 4.65-24.25 1.32-6.92 2.61-13.64l.15-.8 1.74-9.1c.07-.35.13-.69.2-1q.49-2.61 1-5.17c.05-.22.09-.44.13-.66l.11-.57.05-.25v-.11c.26-1.41.53-2.81.79-4.21l.1-.53c.27-1.4.53-2.79.79-4.17v-.22c.29-1.54.58-3.06.86-4.58v-.06c.07-.35.13-.7.2-1.06.15-.83.31-1.65.46-2.47v-.07l.45-2.38c.31-1.69.62-3.36.92-5 .54-3 1.08-5.89 1.59-8.75.07-.42.15-.84.23-1.26.12-.72.25-1.44.38-2.15.06-.29.11-.58.16-.87.71-4 1.39-7.85 2-11.58 0-.2.07-.4.11-.6.09-.5.17-1 .25-1.47v-.21c.19-1.12.38-2.23.56-3.32.07-.4.13-.8.2-1.19.08-.45.15-.9.23-1.35.09-.52.18-1 .26-1.56.22-1.32.43-2.61.63-3.89v-.18c.23-1.45.45-2.87.67-4.26 0-.27.08-.55.13-.82q.47-3 .87-5.84c.07-.45.13-.9.19-1.34v-.23c.16-1.11.31-2.2.45-3.26-22.81 25.57-50.63 57.07-69.52 80.29-33.51 41.3-44.2 54.89-79.53 108.22zm328.45-71.3l-1.5-3.01 1.5 3.01z"/><path class="cls-2" d="M753.55 1425l1.56-.83zm-2.55 1.42l1.62-.89zm-2.7 1.48l1.69-1c-.56.36-1.13.67-1.69 1zm-2.71 1.55l1.8-1zm10.51-5.8l1.5-.78zm2.48-1.28l1.46-.74zm-15.8 8.75l2-1.2zm405.46-265.96c.51.64 1 1.29 1.54 1.93l.53.66c.92 1.15 1.86 2.3 2.82 3.47q-3-3.63-5.75-7.15l.14.18zm-2.17-2.75c.32.42.65.84 1 1.25l-2.2-2.81c.16.21.32.42.49.62s.46.63.71.94zm.98 1.25l.33.41zM761 1421.15l1.4-.69zm382.93-261.48l.33.42c-.81-1-1.62-2.09-2.4-3.12.46.6.93 1.22 1.41 1.83zM739.6 1433.08c.85-.54 1.71-1.07 2.58-1.6-.87.52-1.73 1.06-2.58 1.6zm404.66-272.99l.59.76zM769.65 1417l1.19-.55zm-4.11 1.92l1.3-.61zm2.12-1l1.24-.58zm3.85-1.79l1.21-.55zm1.69-.76l1.55-.69zm-9.88 4.63l1.34-.65z"/><path class="cls-3" d="M739.59 1433.08zm2.59-1.6l.6-.36zm28.66-15.04l.67-.31zm-10.84 5.19l1-.48zm-2.4 1.24l1-.5zm15.12-7.29l.48-.21zm-10.33 4.88l.93-.46zm4.45-2.15l.82-.39zm-11.73 5.86l1-.52zm-2.54 1.36l1-.53zm-2.57 1.41l1-.52zm14.66-7.59l.88-.43zm4.24-2.01l.75-.35zm-24.12 12.58l.81-.47zm2.61-1.51l.91-.51zm64.28 21.59c17 11 49 37.33 55.66 30.33s-17.33-23.66-30-31.33c-11.55-7-42.81-24-64.15-35.26l1.57.94-1.55.69-.48.21-1.21.55-.67.31-1.19.55-.75.35-1.24.58-.82.39-1.3.61-.88.43-1.34.65-.93.46-1.4.69-1 .48-1.46.74-1 .5-1.5.78-1 .52-1.56.83-1 .53-1.62.89-1 .52-1.69 1-.91.51-1.8 1-.81.47-2 1.2-.6.36c-.87.53-1.73 1.06-2.58 1.6l-2.62 1.69c38.74-13.1 58.85 4.89 74.83 15.23z"/></g><g id="Body_Shadow"><path class="cls-4" d="M1144.12 1165l-1.5-3c25.05 119 29.88 264 19.38 336-5.89 40.41-11.83 73.52-16.61 84.42-14.61-1.71-24.8-17.71-29.12-32.5-9.39-32.13-6.14-66.36-4.91-99.81a799.93 799.93 0 0 0-4-115q-3.08-28.62-8.2-57c-2.15-11.9-3.13-35.38-9.68-47.63-.15-1.18-.29-2.36-.44-3.53-8-63-28-158-43-215 9 46 18 123 25 248s-15.91 288.06-22.91 334.06c-1.11 7.27-2.25 13.35-3.43 18.5 4.3-.39 7.91-.84 10.94-1.27a28.43 28.43 0 0 0 6.51.17c.7 0 1.42-.11 2.16-.19l1.83-.24h.43c1.55-.22 3.17-.51 4.86-.85l1.22-.26 1.12-.24 1.28-.29 1.17-.28 1.25-.31c.79-.2 1.59-.4 2.4-.62l3-.81c10.94-3.1 23.16-7.52 34.46-12l2-.79 1.09-.43.64-.26.21-.08.82-.33.67-.27.43-.18 1-.39.93-.38 1.08-.44.79-.33.9-.37.38-.16.56-.23 1.1-.45.7-.3 1-.39.67-.28.14-.06 1.32-.56h.08l.34-.15 1.14-.48.52-.23 1-.4.57-.25.11-.05 1.12-.48.32-.14.17-.07 1-.45c.17-.07.35-.14.51-.22l1.08-.46.36-.16 1-.42.39-.17h.11l.93-.41c7.5-3.31 12.26-5.54 12.26-5.54s29.13-178.65 9.71-309.71q-.46-3.16-1-6.3c-.11-.68-.22-1.35-.32-2-.23-1.43-.46-2.86-.7-4.3-.12-.77-.26-1.55-.39-2.32-.22-1.34-.45-2.68-.68-4l-.42-2.39c-.23-1.33-.47-2.65-.71-4l-.42-2.33c-.26-1.38-.51-2.75-.77-4.13-.14-.7-.27-1.41-.41-2.11-.29-1.51-.58-3-.88-4.54l-.33-1.68c-.37-1.86-.75-3.71-1.13-5.57-.05-.2-.09-.41-.13-.62q-2-9.66-4.21-19.2l-.15-.65q-.66-2.84-1.33-5.64c-.06-.28-.13-.56-.2-.84-.44-1.83-.88-3.67-1.33-5.49-.07-.27-.13-.53-.2-.8-.46-1.89-.94-3.79-1.42-5.67l-.12-.49q-2.34-9.2-4.84-18.24l-.12-.42zm313.73-38.45l-6.38-2.64-.33-.13c-4.53-1.88-15.21 20.37-16.81 23.79-2.46 5.26-4.89 10.33-7.33 15.43a141.33 141.33 0 0 1-8.37 15.5c-3.87 6.12-8 12.32-13.8 16.59-7.18 5.27-14.6 4.9-22.95 3.6-9.5-1.48-13.48-1.14-21.55 4.31-6.37 4.31-19 10.39-26.79 11.84-11.1 2.07-22.49 1.7-33.78 1.31-14.89-.5-30.07-1.06-44-6.24-10.31-3.82-11.59-3.44-20.72-9.58-20-13.41-36.88-33.13-53.33-50.66-29.32-31.25-64.67-100-101.34-142 14.79 32 49.09 105.95 61.51 149.27 40.81 53.61 119.94 134 196.3 133.21 1.42 0 2.83-.06 4.23-.13.47 0 .93-.06 1.39-.09.94 0 1.88-.11 2.81-.19.55 0 1.09-.1 1.63-.16.85-.08 1.69-.16 2.52-.26l1.72-.23 2.4-.34 1.74-.29c.78-.14 1.56-.27 2.33-.42l1.74-.35c.77-.16 1.54-.32 2.3-.5l1.71-.4 2.3-.58 1.65-.45 2.32-.67 1.58-.48c.8-.25 1.59-.51 2.39-.78.49-.16 1-.32 1.47-.5.83-.29 1.67-.59 2.49-.9l1.31-.48c.92-.35 1.82-.72 2.73-1.09.34-.14.69-.27 1-.42 1.1-.45 2.19-.93 3.27-1.41l.44-.2c3.8-1.71 7.53-3.6 11.18-5.63l.16-.1c1.15-.64 2.29-1.29 3.42-2l.4-.24c1.06-.63 2.1-1.27 3.14-1.92l.49-.31q1.53-1 3-2l.48-.31 3-2.05.41-.29c1-.72 2.05-1.44 3.07-2.18l.29-.22c1.07-.78 2.13-1.57 3.18-2.38l.11-.08a242.36 242.36 0 0 0 33.67-31.72c25.3-28.56 43.46-60.31 53.34-79.93-4.41-2.29-21.72-9.58-49.14-20.92zm-303.36-214.1l-1.79.86zm-4.98 2.38l-1.77.84zM1048.5 922c-39 2-73 31-113 31-88.66 0-163.86-28.3-205.38-62.31-.39-.23-.77-.46-1.12-.69-46-31-50.29-58.2-58-72-11.39-20.4.54-42.08-12.89-50.4-31.5-19.5-94-198.48-27-307.48 8.37-13.63 29.19-26 40.89-37.45 9-8.85 8.35-17.24 18.91-24.8 85.26-61 215.83-81.88 286.68-57.75-65-22-82.59-27.12-69.59-38.12 12.34-10.44 133.68-3.76 162.23 14.05-30.39-22.7-25.92-41.22-147.55-46.1-1.88 0-3.78 0-5.68.05-139 2-299.2 118.9-327 173-37 72-52 126-19 257 25.23 100.16 95.86 212 246 251 46.22 12 101.75 14.1 163 9a495.49 495.49 0 0 0 166.92-44c-49.77 14.34-75.23 4.81-98.42 6zm124.92-19.33c.21-.11.42-.22.62-.34zm-14.11 7.4l-1.52.75zm10.69-5.53l-1.2.64zm-6 3.12l-.19.11zm-2.31 333.47l.42 2.33z"/><path class="cls-4" d="M1158 1222.48c0 .21.08.42.13.62-.01-.2-.05-.41-.13-.62zm1.3 6.19l.33 1.68zm1.21 6.22c.14.7.27 1.41.41 2.11-.14-.7-.27-1.41-.41-2.11zm2.31 12.55l.42 2.39zm1.1 6.4c.13.77.27 1.55.39 2.32-.12-.77-.26-1.55-.39-2.32zm-10.24-51.21l.15.65zm11.32 57.83c.1.68.21 1.35.32 2-.1-.65-.21-1.33-.32-2zm-15.92-76.76l.12.49zm3.07 12.45zm-1.53-6.29c.07.27.13.53.2.8-.07-.27-.13-.53-.2-.8zm-216.07 25.37c-.08.43-.16.87-.25 1.3.08-.45.17-.9.26-1.36zm-2.15 11.52v.06l.15-.79c-.06.24-.11.49-.15.73zm32.11-174.53c.07-.45.13-.9.19-1.34-.06.44-.12.89-.19 1.34zM931.43 1232v.06c.06-.34.13-.69.19-1zm4.01-21.52c-.09.46-.17.92-.26 1.38v.08c.09-.51.19-1 .28-1.52zm-12.79 70.21c.32-1.71.63-3.42.92-5.11-.29 1.69-.57 3.42-.92 5.11zm-.26 1.38c-.29 1.55-.6 3.11-.91 4.68l-.12.59q-.51 2.58-1.07 5.21c-.07.34-.15.68-.22 1 .89-4.19 1.72-8.31 2.47-12.33zm40.9-221.75c-.08.45-.15.91-.22 1.37s-.15 1-.23 1.47c.23-1.45.45-2.87.67-4.26-.07.46-.15.94-.22 1.42zm-5.24 30.75c0 .19-.07.39-.1.59.12-.72.25-1.44.38-2.15-.09.49-.18 1.04-.28 1.56zM938.94 1192v-.26zm18.49-97.5c-.11.63-.23 1.27-.35 1.91-.08.48-.17 1-.26 1.46-.23 1.26-.47 2.54-.7 3.82.54-3 1.08-5.89 1.59-8.75-.09.52-.18 1.06-.28 1.56zM928.85 1246v-.11zm-1.01 5.6v.13c.05-.25.09-.51.14-.76zm-1.5 8.3zm4.52-24.9c-.08.46-.17.91-.25 1.36.09-.47.17-.93.26-1.4zm34.31-187.45c-.1.7-.2 1.41-.3 2.14 0 .31-.09.63-.13 1 .16-1.11.31-2.2.45-3.26s-.01.06-.02.12zM930 1239.82l-.27 1.49c.09-.51.19-1 .28-1.55zm-5.35 29.62c-.06.31-.11.63-.17.94.06-.32.12-.64.17-1zm-5.65 29.04c.32-1.47.64-2.92 1-4.37-.35 1.45-.67 2.89-1 4.37zm45.32-244.98c-.06.44-.13.88-.19 1.33s-.14.89-.2 1.34l-.21 1.36c0 .18-.06.35-.08.53q.47-3 .87-5.84c-.06.42-.12.85-.19 1.28zm-11.95 68.25c.27-1.4.53-2.79.79-4.17-.26 1.42-.52 2.77-.79 4.17zm-35.6 186.51v.01-.01zm34.71-181.77c.26-1.41.53-2.81.79-4.21-.27 1.4-.53 2.8-.79 4.21zm2.34-12.4c-.15.8-.3 1.6-.46 2.4-.05.29-.1.58-.16.87.29-1.54.58-3.06.86-4.58zm6.52-35.99c-.1.56-.2 1.13-.29 1.7-.17.94-.33 1.88-.5 2.83l-.3 1.69c-.1.61-.21 1.22-.32 1.84l-.27 1.5c0 .32-.11.64-.17 1 .71-4 1.39-7.85 2-11.58zm.29-1.68c.09-.5.17-1 .25-1.47-.08.48-.16.97-.25 1.47zm-5.23 29.17l-.21 1.13c.31-1.69.62-3.36.92-5-.23 1.28-.47 2.56-.71 3.87zm-38.22 200.93c-.14.58-.27 1.16-.41 1.75l.42-1.81zm45.23-240.72l-.24 1.45c.22-1.32.43-2.61.63-3.89-.13.8-.26 1.64-.39 2.44zm-7.9 44.57l-.24 1.29c.15-.83.31-1.65.46-2.47-.07.39-.15.81-.22 1.18zm7.17-40.16c.08-.45.15-.9.23-1.35-.08.45-.15.9-.23 1.35zm-16.2 87.68q1.32-6.92 2.61-13.64-1.29 6.75-2.61 13.64zm-5.63 29.37v-.29zm10.04-52.42c-.21 1.08-.41 2.17-.62 3.26l-.09.46c-.31 1.62-.62 3.25-.94 4.89l1.74-9.1zm.86-4.5c-.06.28-.11.55-.16.83-.13.7-.27 1.39-.4 2.09q.49-2.61 1-5.17zm-33.19 174.53q.62-2.65 1.2-5.27-.58 2.61-1.2 5.27zm33.74-177.45l.11-.57c-.04.15-.07.38-.11.57zm10.1-55.54c-.08.47-.16.94-.23 1.41s-.17 1-.25 1.45c.19-1.12.38-2.23.56-3.32-.03.15-.05.31-.08.46zm-132.55 502.17v-.1zm-.25.87a1 1 0 0 0 0-.14 1 1 0 0 1 0 .14zm2.75-8.39v-.07zm.92-2.6v.07-.11zm-1.39 3.95a2.25 2.25 0 0 1 .08-.24c-.03.09-.06.17-.08.24zm2.53-7.13c-.06.17-.12.32-.18.48.06-.18.12-.35.19-.53zm-3.92 11.25zm.98-2.93l-.15.43.15-.43zm-1.23 3.7l-.09.3.09-.3zm.67-2.06c0-.11.08-.22.11-.33a3 3 0 0 1-.11.33z"/><path class="cls-4" d="M994.33 1025s0-.07-.74-9.39c-7.14 8-17.16 19.17-28.4 31.77-.14 1.06-.29 2.15-.45 3.26v.23c-.06.44-.12.89-.19 1.34q-.4 2.82-.87 5.84c0 .27-.09.55-.13.82-.22 1.39-.44 2.81-.67 4.26v.18c-.2 1.28-.41 2.57-.63 3.89-.08.52-.17 1-.26 1.56-.08.45-.15.9-.23 1.35-.07.39-.13.79-.2 1.19-.18 1.09-.37 2.2-.56 3.32v.21c-.08.48-.16 1-.25 1.47 0 .2-.07.4-.11.6-.64 3.73-1.32 7.6-2 11.58 0 .29-.1.58-.16.87-.13.71-.26 1.43-.38 2.15-.08.42-.16.84-.23 1.26-.51 2.86-1.05 5.78-1.59 8.75-.3 1.65-.61 3.32-.92 5l-.45 2.38v.07c-.15.82-.31 1.64-.46 2.47-.07.36-.13.71-.2 1.06v.06c-.28 1.52-.57 3-.86 4.58v.22c-.26 1.38-.52 2.77-.79 4.17l-.1.53c-.26 1.4-.53 2.8-.79 4.21v.11l-.05.25-.11.57c0 .22-.08.44-.13.66q-.48 2.57-1 5.17c-.07.35-.13.69-.2 1l-1.74 9.1-.15.8q-1.29 6.72-2.61 13.64l-4.65 24.25c0 .16-.07.33-.1.49l-.81 4.28v.4c-.28 1.45-.55 2.9-.83 4.35v.37l-1.77 9.31c0 .28-.11.56-.16.84-.23 1.24-.47 2.49-.71 3.74-.07.39-.15.79-.22 1.19l-.63 3.31c-.09.51-.19 1-.28 1.52-.21 1.09-.41 2.17-.61 3.25-.09.46-.18.91-.26 1.36l-.84 4.49c-.29 1.58-.59 3.16-.88 4.74v.2l-.15.79c-.22 1.18-.43 2.36-.65 3.55l-.12.62c-.06.34-.13.69-.19 1-.19 1-.37 2-.55 3-.09.47-.17.93-.26 1.4v.21c-.19 1.05-.39 2.1-.58 3.15-.09.52-.19 1-.28 1.55-.21 1.13-.41 2.27-.62 3.41l-.21 1.13v.11l-.84 4.61-.06.36c-.05.25-.09.51-.14.76l-.63 3.5c-.1.53-.19 1.06-.28 1.59-.19 1-.37 2-.56 3.08v.07l-.3 1.66c-.17 1-.35 2-.52 2.95-.1.58-.21 1.16-.31 1.74-.18 1-.36 2.07-.55 3.1 0 .32-.11.64-.17 1s-.07.4-.1.6l-.81 4.6c-.29 1.69-.6 3.4-.92 5.11 0 .18-.07.37-.11.55-.75 4-1.58 8.14-2.47 12.33 0 .17-.07.35-.11.52a124 124 0 0 1-1 4.37c-.09.37-.16.73-.25 1.1q-.59 2.61-1.2 5.27c-.12.52-.24 1-.37 1.58l-.42 1.81c5.79 5.22 11.05 10.24 15.54 14.89 6.54 3.92 15.41 10.67 24.72 19.49.64.61 1.28 1.22 1.92 1.85l.66.65c3.25 3.18 6.53 6.6 9.77 10.24 5.02-58.26 25.06-276.43 24.48-329.95z"/><path class="cls-6" d="M1144.12 1165.03l-1.5-3.01 1.5 3.01z"/><path class="cls-4" d="M827.47 1578.24c1.5 1.21 3 2.32 4.51 3.36 10.69 7.4 21.57 10.91 35.14 12.72a341.54 341.54 0 0 0 37.41 2.43h1.64a15.09 15.09 0 0 0 4.49 4c6.55 4 18 6.61 32.53 8.46-1.67-4.63-4.46-13.48-3.52-28.86.11-1.89-.43-4.24-.48-7 9.64-3.37 25.6-8.8 32.4-16.74 20.67-24.11 32.25-62.69 27.06-90.18a74.75 74.75 0 0 0 6.49-20.89c4-28.17-9.16-56.08-26.16-78.46a146.91 146.91 0 0 1 2.44 16.86c4.18 50.89-25.27 102.35-70.2 126.62S808.51 1531.78 765 1505c-17.43-10.73-33.11-27-33.74-48.47-6.43 11.45-7.87 23.59-8.62 36a8.33 8.33 0 0 0 .86 0h.22l.78-.11.33-.06.72-.17.42-.13c.23-.06.45-.14.68-.22l.51-.21.62-.27.6-.3c.18-.1.37-.19.55-.3s.5-.3.74-.46l.45-.28c.4-.27.8-.56 1.2-.88a162.66 162.66 0 0 0 18 24.07q4.23 4.66 8.72 8.89c1 .94 2 1.87 3 2.77a152.7 152.7 0 0 0 32.79 22.44c2.31 1.17 4.65 2.28 7 3.32a145.26 145.26 0 0 0 32.49 10.09c-.07.18-.13.35-.19.53l-.36 1c-.09.26-.19.51-.28.76l-.3.85v.11c-.09.25-.18.5-.26.75s-.28.76-.41 1.14c-.06.19-.13.38-.2.57v.07c-.1.29-.2.56-.29.84l-.1.28a2.25 2.25 0 0 0-.08.24c-.15.4-.28.8-.41 1.18l-.15.43c-.09.28-.19.56-.28.82v.07c0 .11-.07.22-.11.33-.12.35-.23.7-.34 1 0 .08-.05.16-.07.23l-.25.75-.09.3-.26.85v.1c-.07.23-.13.45-.19.66v.06a1 1 0 0 1 0 .14l-.17.66zm90.42-33.36h-.07l.13-.07zm-143.14-130.2l-1.43.63z"/><path class="cls-4" d="M868.84 1446.17c-6.64-10.33-17.61-16.92-28.18-23.15l-49-28.91c-27-15.93-54.91-32.62-72.88-58.34s-34.18-68.73-14.57-93.22c-10.1 6-19.37 8.71-23.75 15.86a4.79 4.79 0 0 1-8.8-1.28c-1.06-4.58-.45-9 .78-15.21 2.71-13.56 14.66-31.23 23.05-42.23 32.38-42.46 54.19-51.48 97.55-85.36 14.46-11.3 55.41-33.93 67.35-47.86-63 40-162.68 101.74-193.09 147-39.8 59.22 1 111.65 35.92 147.57 20.93 21.5 48.8 40.22 71.57 53.66l-1.57-.94c21.34 11.28 52.6 28.26 64.15 35.26 12.67 7.67 36.67 24.33 30 31.33-1.16 1.22-3.1 1.41-5.59.87 14.49 5.07 16.47-20.43 7.06-35.05zM762 1420.65l.28-.14zm2.3-1.12l-.66.32zm6.7-3.15l-.8.36zm1.76-.81l-1 .43zm-6.76 3.15l-.31.15zm3.17-1.51l-.55.25z"/><path class="cls-4" d="M809 1232c2.79 1.19 5.23 2.26 7.47 3.12 34.69-52.32 45.48-66 79.2-107.45 22.76-28 58.48-68 82.79-95.14 15.87-16.2 15.87-18.53 21.58-32.28-44.48 43.65-90.49 87.42-131 134.75-29.45 34.37-65.76 71.34-107 90 12.55-2 35.24 2 46.96 7z"/><path class="cls-4" d="M980.85 974.68c-18.71 12.17-43.34 37.5-75.72 62.07-12.36 9.37-36.37 24.37-64.75 42.38 1.09-.18 2.18-.42 3.25-.67a186.22 186.22 0 0 0 73.37-35.29c14-11.11 26.44-24.24 41.07-34.54s32.41-17.74 50.14-15.3A259.46 259.46 0 0 0 1041 996c7.9 0 15.34-4 22.86-5.54 2.86 3 6 5.85 8.45 8.52 12.31 13.2 23.58 27.32 35.13 41.18 22.52 27 46.57 54.32 78.94 69.64 15.67 7.42 32.41 11.62 49.57 14.16-11.46-8.14-24.26-17.47-38.59-28-66.66-48.94-111.31-112.53-137.8-130.26-.4.43-.76.86-1.1 1.29-.3-.37-.58-.75-.91-1.13-8.09-9.44-3.09-15.34 3.48-19.4A499.78 499.78 0 0 1 990.74 959c3.76 3.39-3.3 9.58-9.89 15.68z"/><path class="cls-5" d="M653.19 843.18q-9.59-11-18.23-23c-2.85.53-5.69 1.17-8.51 1.89a326.25 326.25 0 0 0 30.74 37.3c2.62-1.15 5.26-2.25 7.91-3.32q-6.1-6.22-11.91-12.87zm642.34-66.77a96.29 96.29 0 0 1-8 22.8 98 98 0 0 0 8.25-22.81zm-187.06 146.97A494.46 494.46 0 0 1 979.34 952c-20.5 1.71-40.2 2.57-58.55 2.57-38.54 0-72.78-3.82-101.78-11.34-55.39-14.38-103-39.72-141.84-75.48-2.6 1.21-5.15 2.48-7.67 3.8 37.26 34.9 85.62 63.35 147.5 79.42 30.81 8 65.77 11.6 103.79 11.6 19 0 38.79-.9 59.21-2.6a495.2 495.2 0 0 0 167-44 200.22 200.22 0 0 1-38.53 7.41zM616.39 807c2.87-.54 5.75-1 8.61-1.42a362.76 362.76 0 0 1-46.24-107.55c-15.76-62.61-20.89-108.2-16.56-147.79 4.11-37.58 16.93-68.59 34.92-103.58 14-27.27 62.85-69.55 118.77-102.82 40.49-24.09 120.46-64.68 201.23-65.84 3.06 0 6.15-.07 9.18-.07 60.31 0 115.4 8.64 163.74 25.69 38.76 13.66 72.89 32.82 98.69 55.4 22.16 19.39 45.17 40.52 61.75 66.87 17.89 28.43 26.63 59.67 27.52 98.29 1 45.12-3.89 85.46-8.72 115.75-1.29 22.13-2.5 41.48-1.78 55.07a6.36 6.36 0 0 0 2.09 4.38c2.54 6.38 9 13.39 15.05 23.81l.8-.47c-7.53-13.16-15.84-20.93-16.44-28.72-1-13 19-83 17-170s-44-129-92-171c-46.92-41.05-134-83.07-267.7-83.07-3.08 0-6.17 0-9.3.07-139 2-299.2 118.9-327 173-37 72-52 126-19 257a371.35 371.35 0 0 0 45.39 107zM1297 758a92 92 0 0 0-6.29-24.58l-.75.39a92 92 0 0 1 6.54 25.19 46.56 46.56 0 0 1 .3 5.5l.49-.07a46.41 46.41 0 0 0-.29-6.43zm-337.39 587.15l-.66-.65zM961 1340l5-38.51 5.12-38.51q5.1-38.51 9.87-77.06 2.33-19.29 4.48-38.6l2.13-19.32c.65-6.45 1.38-12.89 1.93-19.34l.87-9.68.43-4.84.35-4.85c.46-6.47 1-12.93 1.24-19.41.17-3.24.34-6.48.46-9.72s.2-6.49.26-9.73c.17-6.48.06-13-.14-19.47-3 25.78-6.06 51.42-8.92 77.14-1.44 12.85-2.82 25.72-4.35 38.57l-4.42 38.56c-2.89 25.73-6 51.43-9 77.14l-4.59 38.63-4.79 38.54-.35 2.7c.79.74 1.58 1.51 2.37 2.28l.66.65.69.67zm-50.34 260.73q3.89-15.72 7.63-31.48 3.4-14.19 6.65-28.42l-.29.18c-2.25 1.34-4.51 2.63-6.76 3.87q-2.82 11.44-5.73 22.86c-2.47 9.69-5 19.35-7.63 29h1.64a15.09 15.09 0 0 0 4.49 3.99z"/><path class="cls-5" d="M765.61 1224.65a63.91 63.91 0 0 1 26 1.45 101.27 101.27 0 0 1 24.21 9.88c11.09 5.12 21.47 11.56 31.66 18.21s20.08 13.77 29.8 21.09 19.25 14.9 28.54 22.77 18.36 16 26.87 24.74l-.11-.09a120.64 120.64 0 0 1 12.85 9.1c4.1 3.27 8 6.73 11.86 10.33a204.36 204.36 0 0 1 21.15 23.25 160.59 160.59 0 0 1 16.87 26.52 107 107 0 0 1 10 29.8 74.42 74.42 0 0 1-1.09 31.4c-2.73 10.22-7.64 19.7-13.43 28.44a166.9 166.9 0 0 1-20 24.25 224.59 224.59 0 0 1-23.64 20.72 235.35 235.35 0 0 1-26.15 17.32 186.2 186.2 0 0 1-28.47 13.31 122.93 122.93 0 0 1-15.11 4.44 77.55 77.55 0 0 1-15.63 2 137 137 0 0 1-31.29-2.83 149.71 149.71 0 0 1-57.09-25.38 160.23 160.23 0 0 1-42.35-46 .22.22 0 0 1 0-.11c-.57-2.56-1.15-5.11-1.66-7.68a55.21 55.21 0 0 1-1.11-7.81 33.18 33.18 0 0 1 .51-7.9 62 62 0 0 1 2-7.64l.66.21c-1.36 5-2.35 10.18-1.81 15.25a56.79 56.79 0 0 0 1.38 7.57c.6 2.52 1.25 5 1.89 7.59l-.18-.46a157.29 157.29 0 0 0 43 43.89 146.58 146.58 0 0 0 55.9 23.44 130.83 130.83 0 0 0 30.11 2.23c9.74-.32 19.4-3 28.85-6.48a179.29 179.29 0 0 0 27.39-13.15 229.66 229.66 0 0 0 25.31-17.11A219.45 219.45 0 0 0 966 1501a159.74 159.74 0 0 0 19.1-23.32 93.49 93.49 0 0 0 12.46-26.4 62.22 62.22 0 0 0 1.43-6.93 68.08 68.08 0 0 0 .62-7.14 72.77 72.77 0 0 0-1-14.41 100.24 100.24 0 0 0-9.31-27.94 162.09 162.09 0 0 0-16-25.56 199.29 199.29 0 0 0-20.26-22.74c-3.67-3.52-7.46-6.92-11.38-10.12a127.28 127.28 0 0 0-12.08-8.82l-.15-.09a5.24 5.24 0 0 1-.92-.76c-8.15-8.65-17-16.85-26.07-24.81q-6.81-6-13.8-11.72t-14.08-11.42q-14.24-11.25-29.11-21.63c-9.89-6.91-20-13.61-30.7-19l-.14-.07a98.45 98.45 0 0 0-23.4-10.4 72.84 72.84 0 0 0-12.6-2.52 56.32 56.32 0 0 0-12.91.09zM1064 1602.54l1.82-10c2.39-13.37 4.61-26.78 6.76-40.2l3-20.16c1-6.73 1.86-13.47 2.75-20.21 1.73-13.49 3.24-27 4.65-40.53s2.51-27.08 3.52-40.65 1.62-27.22 2-40.83.32-27.24.1-40.84-.74-27.2-1.46-40.78c-1.41-27.16-3.73-54.25-6.61-81.27s-6.59-53.93-10.66-80.78-8.64-53.61-13.43-80.33l-.78.14c4.26 26.8 8.3 53.63 11.83 80.53s6.6 53.85 9.06 80.84 4.39 54 5.39 81.11c.53 13.53.84 27.07.86 40.6s-.13 27.06-.7 40.57-1.41 27-2.63 40.45-2.72 26.94-4.32 40.39-3.25 26.88-5 40.31-3.55 26.85-5.44 40.27-3.81 26.83-5.81 40.23l-1.5 10.06-.8 5c-.31 1.63-.6 3.28-.93 4.91a28.43 28.43 0 0 0 6.51.17c.29-1.28.57-2.56.85-3.85z"/><path class="cls-5" d="M970 1047.43l-4.27-.62-.51.57c-3.33 24.59-10.31 61.47-18.43 103.81-5.52 30.93-11.81 64.45-18.59 98.58q-2.34 12.9-4.6 25.81c-1.79 10.31-4.1 21.28-6.8 32.69 1.58 1.44 3.13 2.85 4.63 4.25 21.28-99.98 39.72-204.89 48.57-265.09z"/></g><g id="Mask"><path class="cls-8" d="M1296.5 759c-4-33.82-22.2-47.8-26.91-59.62a6.36 6.36 0 0 1-2.09-4.38c-2-38 11-121-1-184s-54-71-72-70c-24 1.34-91 82-171 83s-158-65-234-40-123 85-113 161 31 90 33 112c1.28 14.08-23.74 38.17-13 87 11 50 111 109 239 109 40 0 74-29 113-31 23.2-1.19 48.66 8.35 98.46-6 1.43-.41 2.87-.83 4.34-1.28 44.63-21.38 81-47.6 106.2-73.75 13.59-14.1 23.56-28.41 30.06-41.79 7.35-15.11 10.26-29.07 8.94-40.18z"/><path class="cls-9" d="M1018.32 766.73c.56 8.92 18.75 8 27.93 6.77s19.63-8.08 19.28-11-7.13-12.49-26-10.16-21.21 14.39-21.21 14.39z"/></g><path class="cls-10" d="M1020.36 763.73c-1.93 1.48-1.36 4.24.5 5.79s4.56 2.16 7.16 2.64c11.93 2.23 25.08 2.76 35.84-2 .26-.12.55-.28.55-.51s-.54-.34-.55-.11c-11.38 8.32-25.43 11.89-40.69 10.59-4.7-.4-9.81-1.54-12.41-4.74a6.89 6.89 0 0 1 .18-8.84c2.17-2.55 5.57-3.08 9.42-2.82zM1257.5 841c12.35-12.81 21.7-25.79 28.18-38.1C1195 897.39 1136.12 903.26 1051 911c-88 8-32-4-114 6-76.17 9.29-173-9-242.55-85.45a115.46 115.46 0 0 0 2 12.45c11 50 111 109 239 109 40 0 74-29 113-31 23.87-1.22 50.11 8.91 102.8-7.25 44.68-21.38 81.04-47.6 106.25-73.75zm9-330c-12-63-54-71-72-70-22.82 1.27-84.27 74-158.84 82.23q-7.62.33-15.22.77c-78.93-.68-155.91-64.68-230.94-40-76 25-123 85-113 161s31 90 33 112a14.63 14.63 0 0 1-.16 3.46c.58-3.77 24.65-8.36 28-9.1a236.63 236.63 0 0 1 38.33-4.84c34.48-1.77 69.18 2.06 103 8.76q5.4 1.07 10.78 1.77l2.48 1 4.07.95c.86 0 1.73-.07 2.6-.1-.64-.34-1.27-.71-1.9-1.07 17.86 1.44 35.29-.61 51-8.09C983.21 739.58 1019.18 725 1052 727c49 3 49 20 75 14 4.12-1 8.32-3.09 12.81-6 9-3.19 16.87-9.51 24.24-15.8q3.43-2.93 6.83-5.91c21.57-13.45 51.07-25.26 96.62-18.33-2-37.96 11-120.96-1-183.96z" id="Mask_Shadow"/><path class="cls-2" d="M667 806c-42-9-112 14-128 40-10 14 0 23 11 15s65.67-48 113.67-42c8 1 8.66-10.67 3.33-13zm8 46.33c-50.67 18-98 52.67-108.67 80.67-4.66 11.33 6.67 21.33 16.67 11.33s47.33-56 97.33-78c7.34-2.66 1.34-15.33-5.33-14z" id="Front_Whiskers"/><path class="cls-4" d="M664.29 815.72c-7.78.46-15.59.06-23.39.35a133.27 133.27 0 0 0-64.18 19.36c-7.79 4.76-15.19 10.38-23.78 13.44-3.66 1.31-7.89 2.09-11.32.26a6.72 6.72 0 0 1-2.75-2.93c-9.77 13.88.18 22.8 11.13 14.8s65.67-48 113.67-42c3.81.48 6-1.93 6.58-4.83a13.73 13.73 0 0 1-5.96 1.55zM583 944.33c10-10 47.33-56 97.33-78 3.39-1.23 3.93-4.58 2.88-7.72-2.23 3-6.12 5.06-9.7 6.62-12.43 5.39-25.26 10.15-36.46 17.77-15.07 10.25-26.33 25.07-39.15 38-6.2 6.27-13.34 12.41-22.06 13.76-2.34.36-5.07.21-6.59-1.6a7.24 7.24 0 0 1-1.53-3.41c-.51 1.08-1 2.16-1.39 3.22-4.66 11.36 6.67 21.36 16.67 11.36z" id="Front_Whiskers_Shadow"/><path class="cls-2" d="M1391.9 778c-18.72-14.46-68.55-17.34-94.71-13.57a62.27 62.27 0 0 1-1.48 12c33.39-1.37 76.86 10.9 85.19 14.6 9 3.97 15-2.03 11-13.03zm-20-77c-11.63-2.68-57.65 5-86.56 21.72a92 92 0 0 1 5.27 10.7c25.38-12.76 64.25-15.36 79.29-14.42 16 1 15-15 2-18z" id="Back_Whiskers"/><path class="cls-4" d="M1391.9 778c-.2-.16-.43-.31-.64-.46a14.15 14.15 0 0 1-4.72 3.83c-6.35 3.1-13.85 2.17-20.82 1a365.06 365.06 0 0 1-50.38-12.43 6.6 6.6 0 0 1-2.18-1c-2.38-1.94-1.58-3.86-.18-5.8-.66 0-1.33 0-2 .09-.93 0-1.85.1-2.76.15h-.5l-2.35.17h-.33q-1.33.11-2.61.24h-.19l-2.32.25h-.33l-2.39.32a62.27 62.27 0 0 1-1.48 12q1.55-.06 3.12-.09h3.29a186.45 186.45 0 0 1 19.81 1.28c7.78.89 15.5 2.16 22.69 3.59l3 .61c4 .84 7.82 1.72 11.36 2.59l2.52.64h.14l2.35.62h.16l2.21.6h.17l2.1.6h.09c1.4.4 2.72.79 3.93 1.17h.06l1.67.53h.16l1.46.48.19.06 1.28.44.18.06 1.12.41h.14l1 .38h.08l.83.35c9.07 4.32 15.07-1.68 11.07-12.68zm-20.29-59h1.27l.86-.1h.28l1-.2.21-.06c.26-.07.52-.14.76-.22l.31-.1a6.44 6.44 0 0 0 .61-.24l.27-.11c.25-.11.48-.23.7-.35l.1-.05c.24-.14.48-.29.7-.45l.19-.15a3.94 3.94 0 0 0 .45-.36l.2-.18q.21-.2.39-.39l.15-.17a5 5 0 0 0 .45-.58l.07-.11a5.48 5.48 0 0 0 .31-.52 2.12 2.12 0 0 0 .11-.21 4.54 4.54 0 0 0 .21-.45l.09-.23c.06-.18.12-.35.17-.53s0-.1 0-.16a7 7 0 0 0 .14-.69v-.22a4 4 0 0 0 0-.5 2.26 2.26 0 0 0 0-.26v-.74c0-.08 0-.46-.09-.69v-.14c0-.21-.09-.41-.14-.62s0-.18-.08-.27-.1-.31-.16-.46a2.33 2.33 0 0 0-.11-.28 5.32 5.32 0 0 0-.21-.5c0-.07-.07-.15-.11-.23s-.24-.45-.37-.68c0-.07-.1-.14-.14-.21l-.32-.48-.2-.26-.34-.42c-.07-.08-.13-.16-.21-.24s-.31-.34-.47-.5l-.13-.14a33.81 33.81 0 0 1-7.13 5.36c-6.22 3.51-13.26 5.27-20.28 6.6a195.81 195.81 0 0 1-44.29 3.28 11 11 0 0 1-3.74-.62 6 6 0 0 1-3.21-3.58c-1.08.46-2.15.92-3.2 1.39l-1.13.52c-.67.3-1.35.61-2 .93l-1.34.65-1.72.85-1.41.74-1.55.82-1.42.8-.84.48a91 91 0 0 1 5.26 10.69c.61-.31 1.22-.6 1.84-.89l.65-.31c.57-.26 1.15-.52 1.74-.77l.83-.37c.56-.24 1.13-.47 1.71-.7l.92-.37c.56-.23 1.14-.44 1.71-.66l1-.36 1.73-.61 1-.35 1.75-.57 1-.33 1.76-.54 1.07-.31 1.78-.5 1.06-.29 1.92-.53 1-.27 1.84-.44 1-.24c.62-.15 1.24-.29 1.87-.42l1-.22 1.91-.4.91-.17 2-.39.73-.13c.73-.13 1.45-.27 2.18-.39h.14c2.59-.44 5.16-.83 7.68-1.17l.57-.07 1.84-.23 1-.12 1.67-.19 1.08-.12 1.57-.16 1.14-.11 1.47-.14 1.18-.1 1.39-.11 1.19-.08q.66-.06 1.32-.09l1.18-.08 1.24-.07 1.18-.06h13.03l1.53.08h1.32z" id="Back_Whiskers_Shadow"/><path class="cls-2" d="M994 274c25 7 66 42 80 45s15.67-4.67 15.67-4.67c27 3 79.33 32.67 93.33 45.67 7 8 15 14 15-2s6-137-27-165c-39.45-33.47-156 45-177 81z" id="Back_Ear"/><path class="cls-4" d="M1084.59 317.75a31 31 0 0 1-6.25-.23c-11.1-1.74-18.76-12.13-23.14-22.48-10.25-24.23-4.53-57.45 7.91-80.43-31.78 19.19-59.81 43.45-69.11 59.39 25 7 66 42 80 45 4.65 1 8.08.22 10.59-1.25zm11.21 1.25a3.3 3.3 0 0 1-2.13-5.34c8.52-10.37 20.11-37.89 24-47.34 4.66-11.33 20-47.33 26.66-52.66s13.34-6.67 17.34-6 9.33 7.33 12 18.66 10.66 70 11.33 82 7.33 37.34 3.33 39.34-16.83-9.73-26-14.67c-8.66-4.67-32.66-14-46-15.33-6.46-.66-15.04 2.08-20.53 1.34z" id="Back_Ear_Shadow"/><g id="Mouth"><path class="cls-11" d="M937.67 806.33a27.74 27.74 0 0 1-6.69 3.81 40.54 40.54 0 0 1-7.37 2.2 41.6 41.6 0 0 1-7.63.8 30.91 30.91 0 0 1-7.65-.81c2.51-.63 5-1.06 7.42-1.54l7.25-1.39c2.42-.48 4.83-1 7.25-1.5s4.87-1.08 7.42-1.57z"/><path class="cls-11" d="M929 808.81a125.49 125.49 0 0 0 25.75 15.56 157.26 157.26 0 0 0 28.5 9.86 161.6 161.6 0 0 0 29.81 4.3 150.77 150.77 0 0 0 30-1.82 138 138 0 0 0 29-8 155.63 155.63 0 0 0 27-13.58c2.16-1.32 4.22-2.78 6.34-4.17 1.06-.68 2.08-1.43 3.09-2.19l3-2.26c4-3 8-6.27 11.71-9.67 1.89-1.69 3.69-3.47 5.53-5.22l2.63-2.74 1.32-1.37 1.25-1.42c.82-1 1.67-1.91 2.48-2.88l2.33-3c.78-1 1.45-2 2.18-3.08a15.32 15.32 0 0 0 1-1.58l.93-1.62 1.66.75a60.86 60.86 0 0 1-8.43 13.16l-1.21 1.54-1.27 1.47-2.53 3c-1.79 1.87-3.52 3.81-5.37 5.63-3.7 3.62-7.56 7.11-11.57 10.39l-3.06 2.42c-1 .8-2 1.61-3.1 2.35-2.12 1.49-4.2 3.06-6.36 4.49l-6.58 4.2-6.8 3.83c-1.12.67-2.32 1.19-3.48 1.78l-3.51 1.72c-2.31 1.21-4.75 2.14-7.16 3.14a136.93 136.93 0 0 1-30.07 8.66 149.24 149.24 0 0 1-31.24 2 156.66 156.66 0 0 1-30.92-4.69A150.86 150.86 0 0 1 952.52 829a121.52 121.52 0 0 1-26.15-17.12z"/><path d="M928.15 809.76c2.5 1 4.69 2.25 7.16 3.11l3.54 1.46c1.18.46 2.38.89 3.56 1.33s2.35.89 3.53 1.3l3.58 1.18c2.33.83 4.74 1.5 7.11 2.19a209.11 209.11 0 0 0 28.51 6.19l3.54.55 3.57.35c1.19.11 2.36.27 3.54.41s2.37.17 3.55.26l3.54.22 1.77.13h1.77c2.35 0 4.7.14 7.05.15s4.68-.12 7-.16c1.17 0 2.33-.14 3.49-.22l3.49-.27c2.33-.08 4.63-.42 6.93-.7l3.46-.42c1.16-.1 2.29-.43 3.43-.61 2.28-.41 4.59-.73 6.86-1.21s4.49-1.13 6.75-1.63a32.82 32.82 0 0 0 3.37-.9l3.35-1c1.12-.34 2.25-.62 3.35-1s2.21-.78 3.32-1.16a193.11 193.11 0 0 0 26.18-11.25 242.78 242.78 0 0 0 25.17-15c2.08-1.36 4-2.87 6.11-4.29l3-2.26 1.51-1.13 1.47-1.17 3-2.38 2.87-2.47c1-.82 1.85-1.71 2.8-2.58.49-.44.88-.91 1.31-1.37L1143 774l1.37.61-.89 1.76c-.31.58-.59 1.18-1 1.72-.7 1.09-1.35 2.23-2.1 3.28l-2.27 3.15c-.79 1-1.62 2-2.42 3l-1.22 1.51-1.29 1.45-2.57 2.9c-1.8 1.84-3.56 3.73-5.42 5.52a170.06 170.06 0 0 1-24.19 19.28 156 156 0 0 1-27.43 14.35 138.61 138.61 0 0 1-29.79 8.52 150.47 150.47 0 0 1-30.94 1.79 160.38 160.38 0 0 1-30.6-4.65 154.5 154.5 0 0 1-29.09-10.51 123.82 123.82 0 0 1-26-16.78z" class="cls-12"/><path d="M928.48 809.39a121.59 121.59 0 0 0 25.65 16.21 153.13 153.13 0 0 0 28.67 10.29 155.74 155.74 0 0 0 30.14 4.44 147.2 147.2 0 0 0 30.39-1.9 136.08 136.08 0 0 0 29.29-8.27 153.8 153.8 0 0 0 27-14 169.51 169.51 0 0 0 23.95-18.85c1.85-1.74 3.6-3.59 5.4-5.38l2.55-2.82 1.28-1.41 1.21-1.47c.8-1 1.63-2 2.41-2.94l2.24-3c.75-1 1.37-2.1 2.06-3.15a12.94 12.94 0 0 0 .91-1.61l.86-1.63 2.27 1-.71 1.9a14.63 14.63 0 0 1-.79 1.86c-.6 1.17-1.16 2.41-1.82 3.56l-2 3.44c-.71 1.11-1.46 2.19-2.2 3.29l-1.12 1.64-1.19 1.58-2.38 3.18c-1.66 2-3.34 4.09-5.12 6a175.07 175.07 0 0 1-11.2 11.27l-3 2.61c-1 .87-2 1.75-3.07 2.55-2.1 1.62-4.15 3.33-6.31 4.89l-6.56 4.63c-2.25 1.43-4.55 2.83-6.84 4.22-1.13.73-2.34 1.32-3.52 2l-3.56 1.91c-2.35 1.34-4.85 2.36-7.31 3.49a137 137 0 0 1-31 9.84l-2 .41a19.8 19.8 0 0 1-2 .34l-4.06.49c-2.7.36-5.41.78-8.14.9l-4.09.25c-1.36.06-2.73.21-4.09.17h-8.2c-2.72-.12-5.45-.32-8.17-.52l-2-.16-2-.26-4.06-.54c-1.35-.2-2.71-.32-4-.59l-4-.77-4-.77c-1.32-.32-2.64-.69-4-1a106 106 0 0 1-29.9-12.83 81.13 81.13 0 0 1-6.69-4.69 64.89 64.89 0 0 1-6.23-5.28c-1-1-2-1.83-2.92-2.85s-1.84-2-2.72-3.07c-.44-.52-.89-1-1.31-1.56s-.82-1.11-1.21-1.68c-.77-1.15-1.57-2.24-2.27-3.42z" class="cls-12"/><path class="cls-11" d="M1130.33 774a35.55 35.55 0 0 0 7.93-.13c2.61-.25 5.23-.59 7.88-.87s5.32-.54 8-.64a29.59 29.59 0 0 1 8.16.64l-7.89 1.71c-2.63.52-5.28 1-8 1.27a46.53 46.53 0 0 1-8.19.24 16.6 16.6 0 0 1-7.89-2.22z"/></g><path class="cls-2" d="M588 462c-10-102 58-248 138-264 31-6.19 107 76 121 109 6 14-20 5-52 14s-86 48-88 57 6 46-2 56-47 4.67-69.33 7c-21.73 2.27-32.67 10-47.67 21z" id="Front_Ear"/><path class="cls-4" d="M639.2 341.94c-4.76-23.29-4.21-47.34-.85-70.91C603.41 326.12 582.09 401.74 588 462c15-11 25.94-18.73 47.67-21 4.38-.46 9.42-.62 14.73-.66q4.3-4.92 8.22-10.16c5.46-7.34 13-12.85 20.56-16.91-21.18-17.94-34.43-44.12-39.98-71.33zm208.34-29.86c-3.24.66-7.13-.94-10.37-2.44a101.67 101.67 0 0 0-25.61-8 9.62 9.62 0 0 1-4-1.29 9.47 9.47 0 0 1-2.39-3 256.45 256.45 0 0 0-49.09-59.78c-9.23-8.29-20.79-16.37-33-14.07-10.35 1.95-17.91 11-22.73 20.35-6.05 11.79-9.18 24.84-11.8 37.84a567.92 567.92 0 0 0-11.07 100.2c-.06 3.09-.09 6.25.91 9.18s3.23 5.62 6.25 6.31c8.11 1.86 16.36-5.37 22.17-10.69A37 37 0 0 1 707 378c2-9 56-48 88-57 26.94-7.58 49.62-2.4 52.54-8.92z" id="Front_Ear_Shadow"/><g id="Eyes"><path class="cls-13" d="M887.72 753.45c14.14.54 32.37 5.3 41.07 8.8 21-13.79 32.09-62.19 22.21-109.92a94 94 0 0 0-11.91-30.05C916 584.6 870 569.2 849 598.33c-15.07 20.87-16.5 50 0 94.67 6.68 18.1 15 33.18 24.6 44.84a160.11 160.11 0 0 0 14.12 15.61z"/><path class="cls-14" d="M848.48 693.19a230.9 230.9 0 0 1-8.92-28.82 115.92 115.92 0 0 1-3.21-30.06 67.12 67.12 0 0 1 7.38-29.31c.62-1.11 1.21-2.24 1.86-3.34l2.11-3.19a15 15 0 0 1 1.13-1.56l1.18-1.52c.84-1 1.73-1.91 2.62-2.84a36.63 36.63 0 0 1 13-8.21 41.69 41.69 0 0 1 15.21-2.17 55.44 55.44 0 0 1 15 2.9 76.88 76.88 0 0 1 26.06 15.43 93.68 93.68 0 0 1 19.1 23.43 94.71 94.71 0 0 1 10.52 28.29l-1.08.22a118.25 118.25 0 0 0-14.58-25.54 101.12 101.12 0 0 0-19.75-19.83l-2.77-2c-.94-.64-1.9-1.25-2.85-1.87l-2.88-1.76-2.93-1.63a66.43 66.43 0 0 0-12.11-4.91 47 47 0 0 0-12.12-1.9 31.53 31.53 0 0 0-11.11 1.7 26.19 26.19 0 0 0-9.14 5.61c-.65.66-1.32 1.3-2 2l-.91 1.1-.46.55c-.16.19-.3.43-.46.64l-1.82 2.59-1.65 2.71a26.8 26.8 0 0 0-1.51 2.79 26.06 26.06 0 0 0-1.36 2.88l-1.21 3-1 3.08a28.54 28.54 0 0 0-.87 3.17c-.26 1.07-.58 2.12-.75 3.23l-.62 3.31c-.2 1.11-.28 2.25-.43 3.38-1.12 9.07-.73 18.69.22 28.42s2.65 19.61 4.14 29.73z"/><path class="cls-11" d="M873.6 737.84a127.87 127.87 0 0 1-18.31-26.9c-2.52-4.83-4.79-9.8-6.86-14.84-1.06-2.51-2-5.08-2.93-7.63s-1.84-5.13-2.7-7.71c-.42-1.3-.89-2.58-1.27-3.89l-1.16-3.94c-.81-2.61-1.42-5.28-2.07-7.94s-1.13-5.37-1.68-8.06c-.3-1.34-.44-2.71-.65-4.07s-.42-2.73-.57-4.1l-.37-4.13c0-.68-.12-1.37-.16-2.06v-2.08c0-1.39-.08-2.77-.07-4.16l.17-4.17a74 74 0 0 1 2.82-16.52 65 65 0 0 1 7-15.31 42.06 42.06 0 0 1 11.53-12.56 36.56 36.56 0 0 1 7.64-4 39.14 39.14 0 0 1 4.09-1.35c.69-.18 1.4-.32 2.1-.47l1-.23 1.06-.15 2.12-.29 2.13-.13 1.06-.06h3.19a53.06 53.06 0 0 1 8.36 1.16A61.72 61.72 0 0 1 904.7 588a80 80 0 0 1 13.72 9.17 87.27 87.27 0 0 1 20.67 25.12 96 96 0 0 0-22.19-23.19 78.1 78.1 0 0 0-13.65-8.16 75.88 75.88 0 0 0-7.34-2.94 59.27 59.27 0 0 0-7.61-1.92 48 48 0 0 0-7.73-.8h-2.93l-1 .08-1.91.15-1.89.31-.84.18-.93.22c-.61.16-1.24.29-1.85.46a37.08 37.08 0 0 0-3.62 1.32 32 32 0 0 0-6.59 3.68 33.53 33.53 0 0 0-2.92 2.4c-.46.43-1 .83-1.38 1.29l-1.29 1.4a14.29 14.29 0 0 0-1.22 1.46l-1.17 1.5-2.15 3.25a60.2 60.2 0 0 0-6.36 14.15 69.37 69.37 0 0 0-2.73 15.39l-.19 3.94v6c0 .66.09 1.32.13 2l.28 4a173.81 173.81 0 0 0 6.42 31.32 235.83 235.83 0 0 0 11 30.28 149.75 149.75 0 0 0 16.17 27.78z"/><path class="cls-13" d="M1160.37 719.34c6.56-7.75 12.51-18.1 17.38-29.91 16.12-39.06 21.46-94.8-3.75-121.93-19.67-21.17-47.48.84-59.83 31.84A193 193 0 0 0 1105 629c-7 32.5-2.25 90.75 10 103 7.92 7.92 18.71 5.44 26.59 1.79a119.85 119.85 0 0 1 18.78-14.45z"/><path class="cls-14" d="M1177.25 689.22c1.35-8.82 2.84-17.32 3.66-25.87s1.58-16.94 1.73-25.28a181.2 181.2 0 0 0-1-24.57 118.17 118.17 0 0 0-1.94-11.76 77.58 77.58 0 0 0-3.21-11.06 57.41 57.41 0 0 0-4.68-10l-1.42-2.29-1.53-2.18-1.67-2.05c-.56-.6-1-1.2-1.58-1.74a20.06 20.06 0 0 0-3.31-2.68 16.64 16.64 0 0 0-3.52-1.61 16.12 16.12 0 0 0-4-.53 20.72 20.72 0 0 0-4.53.61 34.21 34.21 0 0 0-4.84 1.75 45.49 45.49 0 0 0-4.88 2.69 62.31 62.31 0 0 0-9.37 7.35c-6.09 5.55-11.36 12.31-16.49 19.56l-1-.41a89 89 0 0 1 12.89-22.87 61.73 61.73 0 0 1 9.23-9.48 41.39 41.39 0 0 1 11.41-6.8 30.45 30.45 0 0 1 6.55-1.61 24.55 24.55 0 0 1 6.79.21 24.26 24.26 0 0 1 6.43 2.22 29.32 29.32 0 0 1 5.54 3.88c6.63 6.07 11.17 14 14.26 22.22a86.08 86.08 0 0 1 3.53 12.75 113.32 113.32 0 0 1 1.7 13.08 131.58 131.58 0 0 1 .29 13.17c-.1 4.38-.4 8.76-.88 13.11s-1.1 8.7-1.9 13-1.71 8.59-2.82 12.82a185.25 185.25 0 0 1-8.43 24.84z"/><path class="cls-11" d="M1177.75 689.43a214.07 214.07 0 0 0 10.81-50.74 150.42 150.42 0 0 0 .08-25.73 118.8 118.8 0 0 0-1.77-12.65 82.89 82.89 0 0 0-3.47-12.19 63 63 0 0 0-5.4-11.33l-1.71-2.61-1.87-2.5-2-2.36c-.71-.74-1.4-1.47-2.14-2.16a25.92 25.92 0 0 0-4.81-3.5 20.81 20.81 0 0 0-5.49-2 21.73 21.73 0 0 0-5.87-.3 27.59 27.59 0 0 0-5.89 1.29 39.33 39.33 0 0 0-10.84 6.09 60.41 60.41 0 0 0-9.22 8.81 95.67 95.67 0 0 0-14 21.8 82.74 82.74 0 0 1 12.07-23.35 62.26 62.26 0 0 1 9.06-9.81 41.25 41.25 0 0 1 11.55-7.21 32.25 32.25 0 0 1 6.78-1.8 23.77 23.77 0 0 1 14 2.45 30.71 30.71 0 0 1 5.85 4c.88.77 1.71 1.6 2.51 2.44l2.25 2.58 2.07 2.72c.65.94 1.27 1.89 1.9 2.84a66.91 66.91 0 0 1 5.94 12.18 95.51 95.51 0 0 1 5.26 26.21 131 131 0 0 1 .16 13.29c-.06 2.21-.21 4.42-.37 6.62s-.41 4.39-.71 6.58a167.25 167.25 0 0 1-5.35 25.81 157.43 157.43 0 0 1-9.38 24.53z"/><path class="cls-15" d="M1130 746.5a81.63 81.63 0 0 1 12.32-15 101.32 101.32 0 0 1 15.2-12.16c1.35-.91 2.77-1.71 4.17-2.53.71-.41 1.41-.83 2.12-1.22l2.18-1.11 2.18-1.09c.74-.34 1.5-.65 2.25-1a45.59 45.59 0 0 1 4.54-1.8 59.39 59.39 0 0 1 19-3.67 93.87 93.87 0 0 0-18.18 5.85c-1.47.59-2.88 1.32-4.3 2-.71.35-1.43.68-2.14 1l-2.07 1.15-2.09 1.13c-.69.39-1.36.81-2 1.22-1.36.81-2.72 1.62-4 2.52-2.68 1.69-5.26 3.54-7.8 5.44s-5 3.89-7.46 5.93A169.55 169.55 0 0 0 1130 746.5z"/><path class="cls-16" d="M1122 733h-.65c-12.83-.83-22.11-25.9-20.25-54.76 1.83-28.52 13.69-51.73 26.44-51.73h.64c5.88.37 11.46 6.18 15.29 15.93 4.14 10.51 5.9 24.29 5 38.82-1.89 28.57-13.75 51.74-26.47 51.74z"/><path class="cls-17" d="M1127.51 624v5h.48c10 .64 19.84 22.2 17.93 52.1-.89 13.89-4.2 26.79-9.31 36.32-4.46 8.31-9.79 13.08-14.64 13.08h-.49c-10-.64-19.84-22.2-17.92-52.1.89-13.88 4.2-26.78 9.31-36.32 4.46-8.31 9.79-13.07 14.64-13.07v-5m0 0c-14.14 0-27 23.87-28.94 54.07-2 30.78 8.14 56.48 22.59 57.41h.81c14.14 0 27-23.87 28.94-54.08 2-30.78-8.14-56.48-22.6-57.41h-.8z"/><path class="cls-16" d="M903.7 750.42c-16.84 0-33.46-22.48-37.84-51.16-4.7-30.8 5.88-58.06 23.59-60.76a17.8 17.8 0 0 1 2.83-.22c16.83 0 33.45 22.47 37.83 51.16 4.71 30.8-5.87 58-23.59 60.76a19 19 0 0 1-2.82.22z"/><path class="cls-17" d="M892.28 635.78v5c7.16 0 14.69 4.71 21.19 13.27 7 9.23 12.06 21.93 14.17 35.77 2.25 14.7 1 29-3.52 40.16-4.17 10.31-10.55 16.62-18 17.75a16.5 16.5 0 0 1-2.44.19c-7.16 0-14.69-4.71-21.2-13.27-7-9.23-12-21.93-14.17-35.77-4.42-28.94 5.43-55.46 21.5-57.91a16.74 16.74 0 0 1 2.45-.19v-5m0 0a20.2 20.2 0 0 0-3.2.25c-19.06 2.97-30.59 31.39-25.67 63.61 4.65 30.41 22.27 53.28 40.31 53.28a20.39 20.39 0 0 0 3.2-.25c19.11-2.92 30.61-31.4 25.69-63.61-4.65-30.41-22.28-53.28-40.31-53.28z"/><path class="cls-15" d="M932.5 764a60.44 60.44 0 0 0-7.15-2.25c-2.41-.66-4.83-1.24-7.25-1.82s-4.85-1.13-7.29-1.62-4.86-1-7.31-1.45-4.88-.88-7.33-1.25-4.91-.67-7.37-.94-4.93-.41-7.4-.4a31.45 31.45 0 0 0-7.4.73 23.06 23.06 0 0 1 7.29-2.2 50.09 50.09 0 0 1 7.64-.47c2.54 0 5.08.21 7.6.46s5 .68 7.52 1.12a115.8 115.8 0 0 1 14.68 3.78c2.41.78 4.77 1.68 7.1 2.67a34.51 34.51 0 0 1 6.67 3.64z"/><ellipse class="cls-18" cx="902.67" cy="647.67" rx="8.33" ry="20.67" transform="rotate(-12.32 902.363 647.511)"/><ellipse class="cls-18" cx="1136.67" cy="634.34" rx="8.33" ry="20.67" transform="rotate(-.91 1142.16 637.461)"/></g><g id="Hand"><path class="cls-2" d="M1607.56 1001.59c-30-22.5-134.56-73.26-194.56-43.26-32.1 16-38.45 34.44-45.62 61.69a5.24 5.24 0 0 0-.38 1c-.87 3.27-1.6 6.94-2.25 10.85-1.11 6-1.92 12.1-2.53 18.21-1.16 9.19-2.37 18.6-4.22 26.94 1.12 20.12 21.79 59.09 58 74 51 21 92-4 92-4l1.89-6.85c21.94 11.71 48.28 17.08 67.67 9.93 0 0 7.57 12.83 33.44 16.92 19 3 43.36-44.36 47-78 4-37.02-20.44-64.93-50.44-87.43z"/><path class="cls-3" d="M1658 1089c4-37-20.44-64.91-50.44-87.41S1469 928.33 1412 957c-9.8 4.93-17.11 10.16-22.74 15.86-6.35 8-12.29 18.57-18 33-1.26 4.15-2.42 8.49-3.62 13C1380.12 991.3 1381.5 988 1398 999c18 12 41 34 75 54s65 34 80 53 19 41 36 51c5.94 3.5 10.66 6.38 14.76 8.52 2.24.57 4.64 1.07 7.24 1.48 19 3 43.36-44.36 47-78z"/><path class="cls-7" d="M1438.43 949.09c-2.88 10.79 18.42 31.4 44.57 40.91 33 12 82 28 100 23s-28-35-51-47c-5.49-2.86-12.12-6-19.3-8.93-25.05-7.26-51.24-11.24-74.27-7.98z"/></g><g id="Hand_Shadow"><path class="cls-4" d="M1559.74 1116a21.63 21.63 0 0 1-2.86 4.42c-7.3 8.75-20.3 10.24-31.54 8.38-25.4-4.22-45.36-21.45-61.33-40.64-4.07-4.89-17.68-20.5-21.77-27.93.76 15.43 2.76 33.43 3.43 41.43 1.5 18-12.59 36.26-13.94 54.51a110.15 110.15 0 0 0 11.78 2.26c1.07.14 2.12.26 3.18.37l.51.06c1 .1 2 .19 3 .26h.45c1 .06 2 .12 3 .15h.15c1 0 2 .06 3 .07h3.64c.92 0 1.83 0 2.73-.1h.33c.93 0 1.84-.11 2.75-.18h.44q2.76-.22 5.37-.57h.4l2.51-.37.33-.06 2.41-.41h.11c.81-.15 1.6-.31 2.39-.48l.37-.08 2.28-.5h.18l2.11-.52.25-.06 2.08-.57.33-.09q2.06-.59 3.93-1.2l.29-.09 1.78-.6.23-.08 1.65-.6h.08l1.59-.6.26-.1 1.46-.59h.11l1.31-.54.17-.08 1.22-.54.2-.09c.79-.35 1.5-.69 2.14-1l.15-.07.86-.43.12-.07.7-.35h.06l.62-.33h.1l.47-.26.32-.18.2-.12h.06l1.89-6.85c21.94 11.71 48.28 17.08 67.67 9.93a17.84 17.84 0 0 0 2.28 2.82c.08-.32.15-.65.23-1-8.23-9.68-12.63-23.33-20.22-36.33z"/><path class="cls-4" d="M1658 1089c.11-1 .19-2 .26-3-.49 1.36-1 2.71-1.58 4-4.8 11.31-12.87 21.73-24.06 26.8-15 6.82-33 2.85-47.37-5.32s-26.07-20.12-38.85-30.56c-32.12-26.25-70.73-43-107-63.05-15.21-8.41-30.95-18.41-38-34.3a42 42 0 0 1-3.45-18.13 69.65 69.65 0 0 0-8.68 7.41c-6.35 8-12.29 18.57-18 33-1.26 4.15-2.42 8.49-3.62 13C1380.12 991.3 1381.5 988 1398 999c18 12 41 34 75 54s65 34 80 53 17.33 43 34.33 53c6 3.5 12.33 4.38 16.43 6.52 2.24.57 4.64 1.07 7.24 1.48 19 3 43.36-44.36 47-78z"/><path class="cls-5" d="M1447.79 1081c4.9 4.73 8.77 9.76 12.83 14.7a159.57 159.57 0 0 0 13.1 13.91l1.73 1.63 1.79 1.58c1.18 1.07 2.41 2.08 3.61 3.11s2.44 2 3.68 3 2.51 2 3.78 2.91a140.47 140.47 0 0 0 16.06 10.26 134.91 134.91 0 0 0 35.5 13.72 121.38 121.38 0 0 0 18.88 3c1.59.15 3.18.2 4.78.27s3.19 0 4.79.07h1.2a4.49 4.49 0 0 0 .79-.1 15.56 15.56 0 0 0 1.89-.6c.69-.23 1.42-.48 2.22-.67a3.65 3.65 0 0 1 3 .4l.16.37a7.66 7.66 0 0 1-1.93 1.54 20.2 20.2 0 0 1-2.22 1.15 13.11 13.11 0 0 1-2.46.8 8.2 8.2 0 0 1-1.33.16h-1.23c-1.64 0-3.28.09-4.92 0s-3.28 0-4.91-.18a125.2 125.2 0 0 1-19.47-2.65 136 136 0 0 1-36.65-13.76 142.6 142.6 0 0 1-31.48-23.24 123.88 123.88 0 0 1-23.54-31.21z"/></g></svg>