<svg xmlns="http://www.w3.org/2000/svg" viewBox="0 0 138.4 25.2"><path d="M43 15.5l-.1-4.6h.1l2.2 6.1h1.2l2.2-6.1h.1l-.1 4.6v4.2H50V8.3h-1.8l-2.4 6.9h-.1l-2.4-6.9h-1.7v11.3H43v-4.1zm10.3 7.2c1.7 0 2.5-.7 3.3-2.8l3.1-8.8H58l-2.2 7h-.1l-2.2-7h-1.7l3.1 8.6-.1.4c-.3.9-.8 1.2-1.6 1.2h-.5v1.3c0 .1.3.1.6.1zm26.4-7.8v-1.8c0-3.1-1.6-5-4.2-5s-4.2 1.9-4.2 5v1.8c0 3.1 1.6 5 4.2 5 2.7 0 4.2-1.9 4.2-5zm-4.2 3.5c-1.6 0-2.6-1.2-2.6-3.5v-1.8c0-2.3.9-3.5 2.6-3.5 1.6 0 2.6 1.2 2.6 3.5v1.8c0 2.2-.9 3.5-2.6 3.5zm13.6-4.6c-.2-1.8-1.5-2.9-3.5-2.9-2.4 0-3.7 1.4-3.7 3.9v1.1c0 2.5 1.4 3.9 3.7 3.9 2 0 3.3-1.1 3.5-2.9h-1.6c-.2 1-.9 1.5-2 1.5-1.4 0-2.2-1-2.2-2.7V15c0-1.8.8-2.7 2.2-2.7 1 0 1.8.6 2 1.6h1.6zm4.7-5v2.4h-2.3v1.3h2.3v4.6c0 1.8 1 2.6 3.1 2.6.3 0 1.6 0 1.7-.1v-1.3H97c-1.1 0-1.7-.5-1.7-1.3v-4.6h3.4v-1.3h-3.4V8.8h-1.5zm11.5 11c2.3 0 3.8-1.5 3.8-3.8v-1.3c0-2.3-1.5-3.8-3.8-3.8s-3.8 1.5-3.8 3.8V16c0 2.3 1.5 3.8 3.8 3.8zm0-7.5c1.4 0 2.2 1 2.2 2.6V16c0 1.6-.9 2.6-2.2 2.6s-2.2-1-2.2-2.6v-1.1c0-1.6.8-2.6 2.2-2.6zm13.6 1.5c-.2-1.8-1.5-2.9-3.5-2.9-2.4 0-3.7 1.4-3.7 3.9v1.1c0 2.5 1.4 3.9 3.7 3.9 2 0 3.3-1.1 3.5-2.9h-1.6c-.2 1-.9 1.5-2 1.5-1.4 0-2.2-1-2.2-2.7V15c0-1.8.8-2.7 2.2-2.7 1 0 1.8.6 2 1.6h1.6zm5.3 6c1.2 0 2.1-.5 2.5-1.4h.1v1.2h1.5v-5.8c0-1.8-1.2-2.8-3.2-2.8-1.8 0-3.2 1-3.3 2.4h1.5c.2-.7.9-1.1 1.8-1.1 1.1 0 1.7.5 1.7 1.5v.8l-2.2.1c-2 .1-3.1 1-3.1 2.5 0 1.6 1.1 2.6 2.7 2.6zm.5-1.3c-1 0-1.6-.5-1.6-1.3s.6-1.3 1.7-1.4l2-.1v.9c0 1.1-.9 1.9-2.1 1.9zm8.8-9.7v2.4h-2.3v1.3h2.3v4.6c0 1.8 1 2.6 3.1 2.6.3 0 1.6 0 1.7-.1v-1.3h-1.6c-1.1 0-1.7-.5-1.7-1.3v-4.6h3.4v-1.3H135V8.8h-1.5zM12.9 0C5.8 0 0 5.8 0 12.9c0 5.7 3.7 10.5 8.8 12.3.6.1.9-.3.9-.6v-2.2c-3.6.8-4.4-1.7-4.4-1.7-.6-1.5-1.4-1.9-1.4-1.9-1.2-.8.1-.8.1-.8 1.3.1 2 1.3 2 1.3 1.2 2 3 1.4 3.8 1.1.1-.8.5-1.4.8-1.7-2.9-.3-5.9-1.4-5.9-6.4 0-1.4.5-2.6 1.3-3.5-.1-.3-.6-1.6.1-3.4 0 0 1.1-.3 3.6 1.3 1-.3 2.1-.4 3.2-.4s2.2.1 3.2.4c2.5-1.7 3.5-1.3 3.5-1.3.7 1.8.3 3.1.1 3.4.8.9 1.3 2.1 1.3 3.5 0 5-3 6.1-5.9 6.4.5.4.9 1.2.9 2.4v3.5c0 .3.2.7.9.6 5.1-1.7 8.8-6.6 8.8-12.3C25.8 5.8 20.1 0 12.9 0" fill="#FFF"/></svg>