<svg width="390" height="390" viewBox="0 0 390 390" xmlns="http://www.w3.org/2000/svg"><title>Group 4</title><g fill="none" fill-rule="evenodd"><rect fill="#F6F8FA" width="390" height="390" rx="6"/><ellipse cx="87.333" cy="22.554" rx="87.176" ry="22.374" transform="translate(85.027 319.95)" fill="#5CDFF2" fill-rule="nonzero"/><g fill-rule="nonzero"><path d="M232.306 328.455c-1.763-.392-2.546 1.177-2.546 1.177s-1.96.392-3.525-1.57c-1.566-1.961 1.174-5.294-2.35-10.001-1.992-2.659-5.17-5.19-8.23-7.033l-.318-.19-.374-.216-.22-.125-.248-.137-.22-.122-.244-.129-.22-.117-.238-.121-.224-.113-.226-.114-.232-.11-.202-.102-.268-.12-.171-.078c-.138-.062-.275-.119-.404-.175l-.163-.067-.255-.103-.171-.067-.238-.089-.168-.058a5.08 5.08 0 0 0-.228-.079l-.16-.053a5.255 5.255 0 0 0-.225-.07l-.145-.045-.239-.064-.117-.033-.337-.078a9.354 9.354 0 0 0-1.382-.18l-.379-1.772v.012s-3.632 1.713-7.936 3.404c-2.28.897-4.746 1.79-6.953 2.424-1.578.449-3.027.76-4.173.839a5.73 5.73 0 0 1-1.314-.035 42.7 42.7 0 0 1-2.207.257c-2.647.24-6.592.384-12.434.012-2.956-.188-5.698-.394-8.04-.693-2.934-.374-5.247-.895-6.564-1.709a3.046 3.046 0 0 1-.906-.808h-.331a68.834 68.834 0 0 1-7.549-.49c-3.123-.42-5.54-1.28-8-3.25v-.013l-.357.997-2.194 6.116-.577.202-.147.052c-.182.063-.365.127-.549.202l-.042.014-.606.225-.12.046-.572.222-.042.018c-.202.083-.422.17-.634.259l-.08.032a26.43 26.43 0 0 0-.606.263h-.028c-.222.097-.444.202-.666.299h-.022c-.22.101-.442.202-.664.311-.454.218-.91.449-1.364.689a34.369 34.369 0 0 0-4.035 2.487 29.859 29.859 0 0 0-2.184 1.733l-.034.03c-.26.228-.516.462-.77.704h-.01a25.6 25.6 0 0 0-.747.735l-.035.034c-.147.154-.294.307-.44.465l-.026.03-.034.035c-.234.254-.462.515-.688.781l-.012.014a35.46 35.46 0 0 0-.662.809l-.073.094c-.12.156-.24.316-.357.475l-.07.097c-.279.384-.548.78-.808 1.186 0 .018-.022.036-.034.055l-.012.02a22.952 22.952 0 0 0-.355.582l-.055.093c-.096.163-.201.33-.286.499a.828.828 0 0 1-.047.082c-.016.027-.018.035-.028.053a23.226 23.226 0 0 0-.728 1.444v.014c-.08.172-.16.345-.236.522l-.083.202a33.32 33.32 0 0 0-.274.668v.03a25.08 25.08 0 0 0-.269.718v.016l-.012.034a32.442 32.442 0 0 0-.292.885 41.75 41.75 0 0 0-.162.538l-.038.133c-.012.044-.02.069-.028.103a33.625 33.625 0 0 0-.178.67c0 .035-.018.07-.026.102-.063.258-.123.519-.182.784 0 .054-.022.109-.032.163-.045.202-.085.42-.125.635-.016.086-.033.175-.047.262a26.52 26.52 0 0 0-.097.578c0 .046-.014.093-.022.14l-.018.125c-.034.234-.066.47-.095.709v.08a.508.508 0 0 0 0 .055c-.032.283-.062.568-.089.857l-.012.15v.094c-.018.202-.034.426-.048.644v.301c-.012.202-.02.423-.028.637v.28c0 .306-.012.607-.012.926.201 5.49 9.402 10.198 16.846 8.826l.676-.13.228-.044.444-.088.276-.057.394-.08.288-.063.378-.083.298-.065.357-.08.31-.071.33-.077.325-.079.305-.073.339-.083.276-.066.357-.09.214-.054c1.118-.285 2.18-.573 3.154-.85h-.087l.503-.144a7.15 7.15 0 0 0 .292-.929c.049.27.103.537.162.796l.312-.09c0 .221 0 .44.014.656v.117c0 .202.013.416.02.618.1.311.202.606.317.897l-.268.117c0 .107.014.202.02.313a.496.496 0 0 1 0 .055v.19c0 .064 0 .13.014.202a.1.1 0 0 1 0 .024v.079c0 .113.02.226.03.335v.101c0 .087.017.174.025.257v.08c0 .075.018.148.026.223v.161l.028.219v.091c0 .06.018.119.027.18.008.06 0 .062.014.092s0 .035 0 .053v.034l.018.111v.069l.012.063c0 .04.014.076.02.113l.022.123v.028c.014.067.029.131.04.202 0 .018.01.037.015.055.014.066.03.133.046.202.98 3.727 12.734 5.689 18.219 4.315 5.484-1.374 14.497-10.198 17.435-12.944.085-.08.17-.163.25-.248l.081-.085c.055-.058.11-.117.162-.178.052-.06.06-.07.09-.107l.017-.018a.628.628 0 0 0 .046-.056c.026-.03.054-.063.079-.095.024-.033.062-.08.093-.118l.03-.038c.01-.016.022-.03.034-.046l.067-.087.092-.128.083-.119c1.261-1.818 2.048-4.26 2.51-6.464v-.017c.045-.202.085-.418.123-.624a.314.314 0 0 0 0-.042c.037-.202.071-.392.101-.584v-.034c.029-.174.055-.346.079-.514 0-.07.02-.139.028-.202l.045-.335c0-.056.014-.115.022-.17v-.052l.046-.404v-.077c.016-.158.03-.311.043-.457l.228.116.084.038.162.075.113.05.151.065.121.05.162.065.13.05.168.065.141.053.176.062.15.053.179.063.16.052.187.063.163.05.202.063.172.052.201.06.178.053.202.063.181.05.218.063.188.05.224.061.202.053.23.06.202.051.238.06.201.051.243.06.201.051.247.059.201.05.253.059.201.048.259.061.201.046.267.061.214.046.266.06.224.048.266.056.226.049.27.056.229.047.27.056.234.047.272.054.233.047.274.054.238.047.274.052.24.047.273.052.244.045.266.05.257.047.254.046.266.049.253.046.264.047.254.044.266.046.249.045.27.046.236.04.285.05.22.036.294.048.202.034.305.05.201.033.303.05.202.031.313.05.157.025.345.054.131.02.363.057.097.014.404.06c3.363.508 6.275.861 7.817.977l.201.014.269.016c3.916.202 8.422.392 13.125-.392 4.704-.784 4.506-3.14 7.444-5.101 2.938-1.962 2.704-4.15.94-4.543zm-111.814-1.768a30.936 30.936 0 0 0-.287.499c.095-.166.19-.335.287-.5zm-2.507 5.933zm2.915-6.61l.013-.02a32.33 32.33 0 0 0-.367.606l.032-.055c.105-.18.214-.355.323-.53z" fill="#282828"/><path d="M120.136 327.321c-.256.467-.498.95-.728 1.445.02-.047.042-.093.064-.14.206-.446.427-.88.664-1.305zm-1.344 2.873c-.094.24-.185.485-.274.733v-.016c.093-.242.182-.48.274-.717zm-.579 1.652l.068-.216a26.304 26.304 0 0 0-.268.887l.039-.133c.052-.18.106-.36.16-.538zm.864-2.351l.082-.202c.077-.175.156-.349.236-.521a36.543 36.543 0 0 0-.54 1.254c.07-.178.147-.353.222-.531zm-1.295 3.891c-.077.311-.148.628-.215.947l.033-.163c.058-.265.115-.526.182-.784zm74.188 2.129l-.215-.046.214.046zm-68.315-13.083c-.246.27-.487.539-.722.808.226-.266.454-.527.688-.781l.034-.027zm57.035 21.596c.036-.04.07-.083.107-.125l-.017.018-.09.107zm-58.94-19.283c-.278.386-.55.784-.807 1.192a27.4 27.4 0 0 1 .807-1.185v-.007zm22.733 28.175c-.013-.061-.027-.126-.04-.203v-.028c0-.038-.015-.08-.023-.123s-.014-.073-.02-.113l-.012-.063v-.069a9.082 9.082 0 0 0 .125.635c-.02 0-.026-.019-.03-.037zm-20.358-30.987c-.149.154-.296.31-.444.469.146-.158.293-.311.44-.465l.004-.004zm68.821 13.794l-.226-.048.226.048zm-57.554 13.593l-.276.056-.444.089-.228.044-.676.13a83.127 83.127 0 0 0 2.306-.463l-.288.062-.394.081zm8.713.59a.495.495 0 0 0 0-.055l.018.244v-.075c-.012-.038-.014-.077-.018-.115zm.135 1.48c0-.075-.018-.148-.026-.222v-.081c0-.083-.016-.17-.024-.257v-.1c0-.11-.02-.223-.03-.336v-.077a30.615 30.615 0 0 0 .125 1.234v-.076c0-.024-.043-.059-.045-.085zm-1.01-4.03l-.503.143h-.01c-.975.277-2.036.566-3.154.85l-.214.055-.357.089-.276.067-.34.082-.304.073-.325.079-.33.077-.31.07-.357.081-.298.065c2.665-.586 5.19-1.269 7.231-1.867a17.881 17.881 0 0 1-.161-.796 7.206 7.206 0 0 1-.293.932zm.803 1.167c0-.202-.015-.404-.02-.618v-.08c.016.605.04 1.175.07 1.706l.269-.117c-.115-.279-.22-.58-.32-.89zm-26.639-13.293a26.53 26.53 0 0 0-.12.718c0-.047.015-.093.023-.14.03-.194.063-.386.097-.578zm26.956 16.899c0-.03-.01-.062-.015-.093 0 .061.018.122.028.18v-.034c-.014-.018-.014-.037-.014-.053zm-.063-.363l.012.09v-.076l-.012-.014zm-27.25-13.748v-.095c-.022.277-.043.556-.06.839v-.1c.025-.218.042-.432.06-.644zm75.416-2.4l-.224-.048.224.048zm-75.509 3.984c0-.214.016-.426.028-.636a34.68 34.68 0 0 0-.05 1.842c0-.311 0-.62.012-.925l.01-.28zm77.509-3.572l-.232-.046.232.046zm-77.196.043c-.039.26-.075.523-.105.79v-.081c.038-.239.07-.473.105-.71zm76.692-.144l-.235-.046.235.046zm-.505-.103l-.228-.046.228.046zm-61.512-19.63a32.466 32.466 0 0 0-6.21 4.22 29.859 29.859 0 0 1 2.182-1.733c1.285-.92 2.63-1.75 4.028-2.487zm-14.877 21.578zm69.415-3.708l-.159-.052.16.053zm1.098.342l-.177-.052.177.052zm-1.761-.572l-.142-.052.142.052zm.325.116l-.15-.053.15.053zm.69.228l-.164-.05.164.05zm.367.109l-.172-.053.172.053zm-69.749.679c.04-.214.081-.425.126-.635-.053.21-.085.42-.126.635zm26.57 12.82c0-.216-.01-.434-.014-.657.004.223.008.44.014.657zm40.336-14.578zm-2.694 9.496l-.083.132.083-.133zm.194-.336l-.077.129.077-.13zm2.813-9.006l-.085-.039.085.039zm-4.131 10.838l-.08.085.08-.085zm4.677-10.598l-.12-.05.12.05zm6.278 1.8l-.202-.046.202.046zm-6.55-1.923l-.113-.05.113.05zm.565.238l-.131-.05.131.05zm5.059 1.471l-.202-.05.202.05zm-.464-.109l-.202-.05.202.05zm.92.218l-.202-.048.202.048zm-66.853-13.404zm-2.331 2.749c.117-.16.236-.319.357-.474-.12.155-.234.315-.357.474zm3.087-3.486c.254-.241.511-.476.77-.703a16.6 16.6 0 0 0-.77.703zm-2.657 2.917zm66.106 10.559l-.188-.05.188.05zm.416.114l-.202-.053.202.053zm.426.111l-.202-.05.202.05zm-1.247-.338l-.182-.05.182.05zm1.685.449l-.202-.05.202.05zm-6.451 4.224c.026-.08.052-.162.076-.244l-.052.165-.024.079zm17.966-1.978l-.313-.05.313.05zm-.514-.08l-.303-.051.303.05zm-.501-.083l-.305-.05.305.05zm1.509.242l-.345-.055.345.055zm.997.151l-.404-.06.404.06zm-3.014-.478l-.295-.049.295.049zm2.52.404l-.364-.057.364.057zm-17.955-2.814c0-.085.023-.17.033-.253 0 .024 0 .049-.01.073l-.023.18zm13.875 2.155l-.267-.046.267.046zm-13.83-2.505v.014-.06a.301.301 0 0 0 0 .046zm26.227 4.214c-1.542-.115-4.453-.468-7.817-.975 3.366.507 6.275.86 7.817.975zm-11.358-1.539l-.285-.049.285.049zm-14.863-2.725l.044-.404c-.014.133-.03.27-.046.404h.002zm14.343 2.636l-.271-.046.27.046zm12.09 1.644l-.202-.014.202.014zm-26.52-3.606c.012-.084.022-.167.032-.25 0 .044-.012.089-.018.131l-.014.12zm11.839 1.495l-.245-.044.245.044zm-14.555 6.695c-.03.045-.058.09-.089.132l-.04.056a8.39 8.39 0 0 0 .247-.37l-.118.182zm.89-1.612c-.044.095-.089.202-.135.285a12.35 12.35 0 0 1-.176.345c-.02.04-.042.08-.064.12l-.057.103c.18-.328.349-.664.509-1.01l-.045.097-.032.06zm14.18-4.986l-.257-.046.256.046zm-1.554-.293l-.239-.046.239.046zm-11.876 3.366c-.022.07-.046.141-.07.202l-.058.168c-.025.07-.05.141-.077.202l-.06.16a9.62 9.62 0 0 1-.083.218l-.06.153a.376.376 0 0 0-.021.05l-.012.027a20.09 20.09 0 0 0 .498-1.358 1.08 1.08 0 0 1-.056.178zm.67-2.424c-.013.064-.03.131-.044.202-.014.07-.026.115-.04.174 0 .026-.014.052-.02.078.052-.215.1-.43.145-.642l-.04.188zm11.72-.843l-.24-.046.24.046zm-12.983 4.831c.033-.071.063-.142.093-.214l-.058.137c-.01.026-.022.05-.035.077zm-1.575 2.687a12.153 12.153 0 0 0 .123-.156l-.03.038c-.03.039-.061.08-.093.118zm2.911-7.017l.045-.216c-.012.063-.027.125-.039.188l-.006.028zm.208-1.095c0 .053-.018.103-.026.154-.008.05-.024.127-.034.202.032-.178.062-.354.09-.527v.018a1.378 1.378 0 0 0-.03.153zm.032-.2c.019-.115.037-.228.053-.339l-.03.202-.023.137zm-.49 2.384v.014l.053-.22c0 .02 0 .04-.015.059l-.038.147zm13.973-1.208l-.264-.046.264.046zm-13.414-1.624c0-.045.014-.087.02-.131v.064c0 .02-.016.045-.02.067zm-.319 1.79v-.03.03zm-2.584 6.553c-.03.043-.061.085-.093.126l-.067.088c.083-.109.164-.22.242-.333-.028.039-.046.079-.082.12zm2.144-4.761l-.048.16v.028l-.018.062c.062-.202.123-.42.18-.63l-.039.135-.075.245zm13.657-2.059l-.267-.048.267.048zm-13.092-.361c0 .062-.024.127-.036.19-.012.062-.012.07-.02.104.022-.113.044-.226.064-.337a.313.313 0 0 1-.008.043zm2.034-2.251l-.175-.063.175.063zm.338.115l-.18-.062.18.062zm6.896 1.766l-.27-.057.27.057zm17.472 2.658h-.002zm-16.973-2.555l-.271-.057.27.057zm-7.057-1.754l-.188-.062.188.062zm8.582 2.055l-.275-.053.275.053zm-10.939-2.518v.077-.076zm-.135 1.166zm13.654 1.824l-.254-.044.255.045zm-13.575-2.434v.083a.19.19 0 0 1 0-.083zm10.483 1.863l-.275-.055.275.055zm-.507-.101l-.273-.055.273.055zm-9.647-2.658l-.228-.116.228.115zm.793.343l-.162-.065.162.065zm-.547-.231l-.162-.074.162.074zm.264.116l-.151-.065.151.065zm1.934.688l-.203-.062.203.062zm9.245 2.136l-.267-.05.267.05zm-5.463-1.129l-.252-.06.253.06zm8.536 1.667l-.22-.037.22.036zm1.011.169l-.202-.032.202.032zm-.509-.083l-.202-.034.202.034zm-9.499-1.863l-.247-.058.247.058zm.932.219l-.259-.061.259.06zm.479.107l-.267-.06.266.06zm6.575 1.283l-.248-.045.248.045zm-6.095-1.178l-.267-.059.267.059zm5.062.996l-.252-.047.252.047zm-.518-.095l-.255-.047.255.047zm2.056.363l-.237-.04.237.04zm2.017.332l-.202-.03.202.03zm-12.257-2.473l-.225-.06.224.06zm-.412-.109l-.218-.063.218.063zm4.542 1.091l-.267-.057.267.057zm-4.942-1.204l-.202-.063.202.063zm-.388-.115l-.201-.061.202.06zm1.621.452l-.23-.06.23.06zm12.306 2.432l-.157-.024.157.024zm-5.564-.957l-.273-.053.273.053zm6.507 1.103l-.097-.014.097.014zm-12.815-2.467l-.238-.06.238.06zm.442.111l-.243-.06.243.06zm11.907 2.289l-.132-.02.132.02zm-16.128-3.535l-.168-.065.168.065zm-4.345 9.428v-.002.002zm2.635-7.105v-.05a.313.313 0 0 1 0 .05zm0 0zm-2.635 7.105v-.002zm2.51-6.464v-.015z" fill="#282828"/><path d="M184.225 334.382c0-.024 0-.049.01-.073.01-.024 0-.056 0-.083v-.014a.806.806 0 0 1-.01.17zm-.152 1.06v.018-.017zm.079-.515v-.064a.12.12 0 0 1 0-.027c0-.04.01-.078.014-.119a.928.928 0 0 1-.014.21zm-58.431-14.507l-.034.03zm10.355 28.756l.374-.081-.378.083zm7.607-1.954l.314-.09-.314.09zm-26.711-8.252v-.202c.006.066.002.133 0 .202zm27.287 12.582c0 .054.014.107.02.16v.058c-.01-.071-.018-.144-.029-.218h.009zm-.178-2.011c0 .083.012.164.016.245v.069c0-.103-.012-.202-.02-.314h.004zm.049.695a.495.495 0 0 1 0 .055c0-.063 0-.127-.015-.202.008.056.012.103.014.147zm-26.986-13.316a.507.507 0 0 1 0-.055.164.164 0 0 1 0 .054zm66.35 1.274l.079-.31c0-.015.01-.031.014-.046l-.093.356zm-65.509-5.574c0-.034.018-.068.028-.103-.01.035-.02.069-.028.103zm.807-2.426zm-.284.766l.012-.035c.002.012.002.024-.012.035zm.887-2.18v-.014zm-1.614 4.606c0-.032.018-.067.027-.101l-.027.1zm-.341 1.586zm-.183 1.105l.018-.125zm66.564.717v-.012c0 .034-.014.069-.022.103a.71.71 0 0 0 .022-.091zm.305-1.693c0-.032 0-.065.014-.097 0 .036 0 .073-.016.11l.002-.013zm-.248 1.414c0-.024 0-.048.014-.073 0 .025 0 .049-.014.073zm.32-1.929v-.022.024zm-2.546 8.124c.04-.066.079-.132.117-.203l-.117.202zm-37.353 9.159c0 .032 0 .062.014.095l.012.084c0-.06-.018-.119-.026-.18zm39.345-14.287l.012-.055c0 .03-.014.06-.023.091l.01-.036zm-63.508-10.261c0-.018.02-.034.028-.052l-.028.052zm62.283 13.923l.079-.18-.081.187.002-.007zm-.573 1.13l.018-.033c.014-.026.028-.054.044-.08a3.227 3.227 0 0 0-.062.115v-.002zm-1.318 1.832c.055-.059.11-.117.162-.178-.053.06-.107.12-.162.178zm-.08.084zm-36.098 7.952c0 .03.01.061.015.09l-.018-.112.002.022zm36.453-8.347l.04-.049-.047.057zm.252-.309l.024-.032c-.012.016-.024.03-.034.046l.01-.014zm-64-5.808l-.012.15.012-.15zm66.131 1.442v-.022c0 .028-.019.055-.027.08l.027-.058zm.78-3.16v-.012c0-.02 0-.04.01-.06 0 .024-.01.05-.014.075l.004-.002zm-.696 2.894l.039-.13a4.452 4.452 0 0 0-.039.13zm-58.364-17.792h.01-.01zm-3.963 4.775c0 .019-.022.037-.034.055a.81.81 0 0 0 .034-.055zm1.977-2.674l.013-.015-.012.015zm-.661.816l-.073.095zm1.422-1.677l-.026.03.026-.03zm-1.852 2.246l-.07.097.07-.097zm2.331-2.749l-.035.034.034-.034zm58.432 18.947l.06-.147-.062.152zm-62.101-14.159l.055-.093z" fill="#282828"/><path d="M184.041 335.64c0-.054.018-.109.026-.163-.03.202-.064.386-.1.584 0-.025 0-.05.014-.075 0-.065.022-.127.034-.202.012-.075.016-.091.026-.144zm.111-.713c-.024.168-.05.34-.079.513 0-.044.014-.088.023-.135l.03-.202c0-.036.012-.073.016-.11l.01-.066zm.028-.21c0-.042.014-.087.018-.131v-.024c0-.061.015-.12.023-.18-.01.113-.025.222-.04.335zm.067-.505a.301.301 0 0 1 0-.042.145.145 0 0 1 0 .042zm-2.926 9.002l.04-.056.09-.132.114-.18c.026-.044.055-.088.083-.133l.117-.202.077-.13c.02-.038.04-.076.062-.114l.057-.103c.022-.04.044-.08.064-.12a12.351 12.351 0 0 0 .176-.345c.046-.093.09-.19.135-.285a.822.822 0 0 0 .032-.067l.045-.096.08-.186c.013-.027.025-.05.035-.077l.058-.137.063-.152.012-.026a.376.376 0 0 1 .02-.05l.06-.154a9.62 9.62 0 0 0 .083-.218l.06-.16c.027-.07.053-.142.078-.202l.058-.168.07-.202a8.42 8.42 0 0 0 .073-.222c0-.026.018-.053.027-.08l.024-.08.052-.165c.018-.055.024-.085.039-.13l.018-.062v-.028l.048-.16.067-.245.038-.135c.03-.12.063-.238.093-.355v-.015l.036-.147c0-.018.01-.038.014-.059.004-.02.016-.06.023-.09.006-.03.014-.053.02-.08l.04-.173a6.57 6.57 0 0 0 .044-.202l.04-.184c0-.034.017-.069.023-.103v-.03c-.44 2.18-1.227 4.618-2.488 6.44zm2.627-7.06a.313.313 0 0 0 0-.043c-.038.202-.078.404-.123.624v-.026c.012-.063.026-.125.039-.188 0-.024 0-.048.014-.073.014-.024.014-.07.02-.105.006-.034.04-.127.05-.19z" fill="#282828"/><path d="M212.55 338.448c6.189.405 12.107.673 14.797-.808 2.69-1.48 8.745-7.676 5.516-9.293-3.228-1.616-2.732 1.075-6.188 4.04-3.768 3.233-8.879 5.387-14.125 6.061zm-47.484 18.047c-4.036 1.885-8.071 1.616-13.453.673-5.381-.944-10.76-2.154-10.76-4.445 0-2.29 1.479-3.905 5.379-3.365 3.9.539 8.61 3.636 10.896 4.713 2.286 1.076 4.71 3.232 7.938 2.424zm-27.981-7.541c-2.69.537-6.321 2.153-11.164 1.212-4.843-.942-11.974-2.964-13.184-5.657-.133-2.828 2.181-3.353 4.185-3.697 2.003-.343 6.307 4.774 11.15 6.39a35.332 35.332 0 0 0 9.013 1.752z" fill="#494949"/></g><g fill-rule="nonzero"><path d="M185.04 313.194c.867-.079 1.596-.17 2.207-.257a5.73 5.73 0 0 0 1.314.035c.141 0 .286-.023.436-.039l.369-.048h.087c.312-.045.64-.103.98-.172l.247-.052.226-.049.258-.058.236-.057.252-.063c.16-.04.32-.08.484-.125l.606-.164c2.207-.626 4.673-1.519 6.953-2.424l.404-.16.22-.086.129-.053.042-.016.165-.067.136-.054.086-.037.202-.078.188-.077.218-.089.16-.067.18-.074.077-.033.113-.046.222-.091.142-.06.201-.08.136-.056.028-.012.266-.113h.016l.069-.03.23-.098.105-.046.202-.08.115-.051.022-.01.226-.097.064-.029.035-.014.201-.09c.035-.015.071-.029.103-.045l.218-.093.073-.032.202-.085.078-.035h.023l.187-.082c1.514-.67 2.474-1.12 2.474-1.12l.355 1.653h.035a8.465 8.465 0 0 1 1.854.293c.604.162 1.198.365 1.775.606a28.86 28.86 0 0 1 3.352 1.634c2.17 1.22 4.2 2.675 6.053 4.338a22.491 22.491 0 0 1 2.577 2.703 10.23 10.23 0 0 1 1.856 3.246 9.5 9.5 0 0 1 .404 3.715c-.032.62-.099 1.237-.093 1.849.006.612.121 1.224.5 1.695l-.062.05c.42.545.966.98 1.59 1.269-.42.161-.858.295-1.285.42l-8.37 2.45c4.237-2.787 5.202-6.507 6.41-10.632a7.332 7.332 0 0 0-.19-.45 8.019 8.019 0 0 0-.806-1.43 12.605 12.605 0 0 0-1.066-1.304 25.181 25.181 0 0 0-2.522-2.424c-.218-.202-.448-.382-.68-.565-.232-.184-.456-.376-.694-.552l-.706-.541c-.238-.176-.485-.346-.725-.52a44.007 44.007 0 0 0-2.98-1.957c-.25-.16-.512-.297-.769-.447l-.383-.226-.39-.202c-.26-.14-.518-.285-.782-.404-.265-.12-.521-.275-.785-.386-.265-.11-.529-.25-.791-.345-.218-.087-.438-.186-.654-.263a29.408 29.408 0 0 0-5.543-.244l-1.562.327a28.971 28.971 0 0 0-4.64 5.757c-.325.522-1.11 1.617-1.11 1.617s1.144 1.705 1.412 2.12c2.46 3.819 5.4 6.855 8.677 10 3.276 3.146 7.044 6.308 11.5 5.455-.927.691-1.123 1.72-.843 2.744a28.79 28.79 0 0 1-5.008 1.109c1.163.075 2.315.145 3.43.202-1.755-.014-3.444-.093-5.032-.172l-.268-.016-.202-.014c-1.541-.115-4.453-.469-7.817-.976l-.403-.06-.097-.015-.363-.056-.132-.02-.345-.055-.157-.024-.313-.05-.202-.03-.302-.051-.202-.033-.305-.05-.201-.035-.295-.048-.22-.036-.284-.049-.237-.04-.27-.047-.248-.044-.266-.047-.255-.044-.264-.047-.252-.046-.267-.049-.254-.046-.256-.047-.266-.05-.245-.044-.272-.053-.24-.046-.275-.053-.238-.046-.274-.055-.232-.046-.272-.055-.235-.046-.27-.057-.228-.046-.27-.057-.226-.049-.267-.056-.224-.049-.266-.058-.214-.047-.266-.06-.202-.047-.258-.06-.202-.049-.252-.058-.202-.05-.246-.06-.202-.05-.069-.018-.173-.043-.202-.05-.238-.06-.202-.051-.23-.06-.202-.053-.224-.06-.187-.051-.218-.063-.182-.05-.201-.063-.178-.053-.202-.06-.171-.053-.202-.062-.164-.051-.187-.063-.16-.052-.18-.063-.149-.052-.175-.063-.141-.052-.168-.065-.13-.05-.162-.065-.121-.05-.152-.065-.113-.05-.161-.076-.085-.038-.228-.115a24.24 24.24 0 0 1-.042.456v.077c-.014.133-.03.27-.047.404v.053c0 .054-.014.113-.022.17-.014.108-.028.222-.044.335 0 .07-.018.14-.029.202a29.4 29.4 0 0 1-.078.513v.034c-.03.202-.065.386-.101.584a.313.313 0 0 1 0 .043c-.038.202-.079.414-.123.624v.016c-.462 2.202-1.25 4.646-2.51 6.465-.029.038-.055.078-.083.119-.028.04-.06.085-.093.125l-.066.089c-.013.016-.025.03-.035.046l-.03.039c-.03.038-.06.079-.093.117-.032.038-.052.065-.079.095l-.046.056-.016.019c-.03.036-.059.072-.09.107-.033.034-.108.119-.162.177l-.081.085c-.08.085-.165.168-.25.249-2.938 2.745-11.95 11.572-17.436 12.943-2.897.725-7.546.521-11.433-.384l.285.049c5.381.943 9.417 1.212 13.452-.673-3.228.808-5.65-1.347-7.937-2.424-2.289-1.077-6.994-4.176-10.896-4.713a9.442 9.442 0 0 0-1.948-.087 12.606 12.606 0 0 1-.252-.723c0-.202-.014-.404-.02-.619v-.117c0-.216-.01-.434-.014-.656l-.313.09a17.881 17.881 0 0 1-.161-.795 7.206 7.206 0 0 1-.293.929l-.502.143h-.01c-.975.277-2.036.566-3.154.85l-.214.055-.357.09-.277.066-.339.083-.304.073-.325.078-.331.077-.309.07-.357.082-.299.064-.377.083-.19.04c.42-.109.82-.201 1.211-.282a35.332 35.332 0 0 1-9.013-1.752c-4.843-1.616-9.147-6.733-11.15-6.39 0-.305 0-.606.011-.905v-.28c0-.215.017-.427.029-.637v-.301c.014-.218.03-.432.048-.644v-.095l.012-.15c.026-.289.057-.574.089-.856a.508.508 0 0 1 0-.055v-.08c.028-.24.06-.475.095-.71l.018-.125c0-.047.014-.093.022-.14.03-.201.063-.385.097-.577a29.393 29.393 0 0 1 .172-.897l.032-.164c.058-.265.119-.525.181-.784 0-.032.019-.066.027-.1a33.623 33.623 0 0 1 .178-.67c0-.036.017-.07.028-.104l.038-.134a41.745 41.745 0 0 1 .23-.753c.073-.225.147-.449.224-.669l.012-.034v-.017c.087-.242.176-.48.268-.717v-.03a33.321 33.321 0 0 1 .274-.669l.083-.202c.077-.176.156-.35.237-.52v-.015c.02-.047.042-.093.064-.14.21-.447.431-.882.664-1.304 0-.019.02-.035.028-.053.008-.018.033-.055.047-.083.094-.168.19-.335.286-.499l.055-.093a22.953 22.953 0 0 1 .355-.582l.012-.02c.012-.018.024-.036.034-.054.26-.404.529-.8.807-1.186l.07-.097c.118-.16.237-.32.358-.475l.073-.095c.216-.279.436-.55.662-.808l.012-.014c.226-.267.454-.527.688-.782l.034-.034.026-.03c.146-.158.293-.312.44-.465l.034-.035c.245-.25.495-.496.747-.735h.01c.254-.241.511-.475.77-.703l.035-.03a29.859 29.859 0 0 1 2.183-1.734 34.656 34.656 0 0 1 4.036-2.486c.454-.24.91-.471 1.364-.69.222-.106.444-.201.664-.31h.022c.222-.101.444-.202.666-.3h.028c.202-.09.404-.177.605-.262l.081-.032c.212-.09.422-.176.634-.259l.042-.018.571-.222.121-.047.606-.224.042-.014c.184-.069.367-.134.549-.202l.147-.053.577-.202.053-.145h.04l.688-2.02 1.412-3.938.358-.998c.302.245.605.469.91.679 2.157 1.495 4.352 2.204 7.09 2.57 2.505.302 5.025.465 7.549.49h.33c.245.328.553.603.907.809 1.321.808 3.632 1.335 6.563 1.709.146.404.249.648.23.77 0 0 2.724-.37 6.895 1.515 4.17 1.884 5.357 6.903 5.357 6.903-4.035-5.758-12.778-5.522-16.007-4.31-3.228 1.213-4.776 4.916-4.776 8.552 0 4.097 3.43 7.946 6.255 13.737 2.825 5.792 1.576 5.976 4.036 9.495 1.412 2.02 4.17 2.425 7.803-.943 3.026-2.8 5.946-4.947 7.31-6.667 1.074-5.2 2.73-14.638-1.071-20.347 1.697-2.392 3.182-2.548 4.453-8.091zm.942 20.709l-.175-.063.175.063zm.338.115l-.18-.062.18.062zm6.896 1.766l-.27-.057.27.057zm17.472 2.658h-.002z" fill="#091426" opacity=".3"/><path d="M193.715 335.887l-.271-.057.27.057zm-7.057-1.754l-.188-.062.188.062zm8.582 2.055l-.275-.053.275.053zm-10.939-2.518v.077-.076zm-.135 1.166zm13.654 1.824l-.254-.044.255.045zm-13.575-2.434v.083a.19.19 0 0 1 0-.083zm10.483 1.863l-.275-.055.275.055zm-.507-.101l-.273-.055.273.055zm-9.647-2.658l-.228-.116.228.115zm.793.343l-.162-.065.162.065zm-.547-.231l-.162-.074.162.074zm.264.116l-.151-.065.151.065zm1.934.688l-.203-.062.203.062zm9.245 2.136l-.267-.05.267.05zm-5.463-1.129l-.252-.06.253.06zm8.536 1.667l-.22-.037.22.036zm1.011.169l-.202-.032.202.032zm-.509-.083l-.202-.034.202.034zm-9.499-1.863l-.247-.058.247.058zm.932.219l-.259-.061.259.06zm.479.107l-.267-.06.266.06zm6.575 1.283l-.248-.045.248.045zm-6.095-1.178l-.267-.059.267.059zm5.062.996l-.252-.047.252.047zm-.518-.095l-.255-.047.255.047zm2.056.363l-.237-.04.237.04zm2.017.332l-.202-.03.202.03zm-12.257-2.473l-.225-.06.224.06zm-.412-.109l-.218-.063.218.063zm4.542 1.091l-.267-.057.267.057zm-4.942-1.204l-.202-.063.202.063zm-.388-.115l-.201-.061.202.06zm1.621.452l-.23-.06.23.06zm12.306 2.432l-.157-.024.157.024zm-5.564-.957l-.273-.053.273.053zm6.507 1.103l-.097-.014.097.014zm-12.815-2.467l-.238-.06.238.06zm.442.111l-.243-.06.243.06zm11.907 2.289l-.132-.02.132.02zm-16.128-3.535l-.168-.065.168.065zm-4.345 9.428v-.002.002zm2.635-7.105v-.05a.313.313 0 0 1 0 .05zm0 0zm-2.635 7.105v-.002zm2.51-6.464v-.015z" fill="#091426" opacity=".3"/><path d="M184.225 334.382c0-.024 0-.049.01-.073.01-.024 0-.056 0-.083v-.014a.806.806 0 0 1-.01.17zm-.152 1.06v.018-.017zm.079-.515v-.064a.12.12 0 0 1 0-.027c0-.04.01-.078.014-.119a.928.928 0 0 1-.014.21zm-58.431-14.507l-.034.03zm10.355 28.756l.374-.081-.378.083zm7.607-1.954l.314-.09-.314.09zm-26.711-8.252v-.202c.006.066.002.133 0 .202zm27.287 12.582c0 .054.014.107.02.16v.058c-.01-.071-.018-.144-.029-.218h.009zm-.178-2.011c0 .083.012.164.016.245v.069c0-.103-.012-.202-.02-.314h.004zm.049.695a.495.495 0 0 1 0 .055c0-.063 0-.127-.015-.202.008.056.012.103.014.147zm-26.986-13.316a.507.507 0 0 1 0-.055.164.164 0 0 1 0 .054zm66.35 1.274l.079-.31c0-.015.01-.031.014-.046l-.093.356zm-65.509-5.574c0-.034.018-.068.028-.103-.01.035-.02.069-.028.103zm.807-2.426zm-.284.766l.012-.035c.002.012.002.024-.012.035zm.887-2.18v-.014zm-1.614 4.606c0-.032.018-.067.027-.101l-.027.1zm-.341 1.586zm-.183 1.105l.018-.125zm66.564.717v-.012c0 .034-.014.069-.022.103a.71.71 0 0 0 .022-.091zm.305-1.693c0-.032 0-.065.014-.097 0 .036 0 .073-.016.11l.002-.013zm-.248 1.414c0-.024 0-.048.014-.073 0 .025 0 .049-.014.073zm.32-1.929v-.022.024zm-2.546 8.124c.04-.066.079-.132.117-.203l-.117.202zm-37.353 9.159c0 .032 0 .062.014.095l.012.084c0-.06-.018-.119-.026-.18zm39.345-14.287l.012-.055c0 .03-.014.06-.023.091l.01-.036zm-63.508-10.261c0-.018.02-.034.028-.052l-.028.052zm62.283 13.923l.079-.18-.081.187.002-.007zm-.573 1.13l.018-.033c.014-.026.028-.054.044-.08a3.227 3.227 0 0 0-.062.115v-.002zm-1.318 1.832zm-.08.084zm-36.098 7.952c0 .03.01.061.015.09l-.018-.112.002.022zm36.453-8.347l.04-.049-.047.057zm.252-.309l.024-.032c-.012.016-.024.03-.034.046l.01-.014zm-64-5.808l-.012.15.012-.15zm66.131 1.442v-.022c0 .028-.019.055-.027.08l.027-.058zm.78-3.16v-.012c0-.02 0-.04.01-.06 0 .024-.01.05-.014.075l.004-.002zm-.696 2.894l.039-.13a2.67 2.67 0 0 0-.039.13zm-58.364-17.792h.01-.01zm-3.963 4.775c0 .019-.022.037-.034.055.012-.018.024-.036.034-.055zm1.977-2.674l.013-.015-.012.015zm-.661.816l-.073.095zm1.422-1.677l-.026.03.026-.03zm-1.852 2.246l-.07.097.07-.097zm2.331-2.749l-.035.034.034-.034zm58.432 18.947l.06-.147-.062.152zm-62.101-14.159l.055-.093z" fill="#091426" opacity=".3"/><path d="M184.041 335.64c0-.054.018-.109.026-.163-.03.202-.064.386-.1.584 0-.025 0-.05.014-.075 0-.065.022-.127.034-.202.012-.075.016-.091.026-.144zm.111-.713c-.024.168-.05.34-.079.513 0-.044.014-.088.023-.135l.03-.202c0-.036.012-.073.016-.11l.01-.066zm.028-.21c0-.042.014-.087.018-.131v-.024c0-.061.015-.12.023-.18-.01.113-.025.222-.04.335zm.067-.505a.301.301 0 0 1 0-.042.145.145 0 0 1 0 .042zm-2.926 9.002l.04-.056.09-.132.114-.18c.026-.044.055-.088.083-.133l.117-.202.077-.13c.02-.038.04-.076.062-.114l.057-.103c.022-.04.044-.08.064-.12a12.35 12.35 0 0 0 .176-.345c.046-.093.09-.19.135-.285a.822.822 0 0 0 .032-.067l.045-.096.08-.186c.013-.027.025-.05.035-.077l.058-.137.063-.152.012-.026a.376.376 0 0 1 .02-.05l.06-.154a9.62 9.62 0 0 0 .083-.218l.06-.16c.027-.07.053-.142.078-.202l.058-.168.07-.202a8.418 8.418 0 0 0 .073-.222c0-.026.018-.053.027-.08l.024-.08.052-.165c.018-.055.024-.085.039-.13l.018-.062v-.028l.048-.16.067-.245.038-.135c.03-.12.063-.238.093-.355v-.015l.036-.147c0-.018.01-.038.014-.059.004-.02.016-.06.023-.09.006-.03.014-.053.02-.08l.04-.173a6.57 6.57 0 0 0 .044-.202l.04-.184c0-.034.017-.069.023-.103v-.03c-.44 2.18-1.227 4.618-2.488 6.44zm2.627-7.06a.313.313 0 0 0 0-.043c-.038.202-.078.404-.123.624v-.026c.012-.063.026-.125.039-.188 0-.024 0-.048.014-.073.014-.024.014-.07.02-.105.006-.034.04-.127.05-.19zm-44.502-24.978l1.413-3.938-2.141 5.97h.04c.23-.69.46-1.367.688-2.032z" fill="#091426" opacity=".3"/><path d="M184.77 329.12a55.62 55.62 0 0 1 .861-6.065 23.41 23.41 0 0 1 .49-1.962c.378-1.297.822-2.588 1.245-3.9a51.013 51.013 0 0 0 1.14-4l.055-.241a5.73 5.73 0 0 1-1.314-.035 63.896 63.896 0 0 1-.964 3.95c-.36 1.323-.767 2.626-1.082 3.986a28.148 28.148 0 0 0-.403 2.052 26.553 26.553 0 0 0-.259 2.059 57.86 57.86 0 0 0-.238 4.129 95.678 95.678 0 0 0-.026 2.06c0 .685.018 1.374-.012 2.051l.08.01h.08c.16-1.368.217-2.731.346-4.095zm-30.38-10.554c-.232.165-.462.337-.688.515-.95.75-1.852 1.56-2.7 2.424-.432.429-.84.88-1.225 1.352-.379.477-.73.976-1.05 1.495a20.84 20.84 0 0 0-1.613 3.258 40.4 40.4 0 0 0-1.978 6.976 51.09 51.09 0 0 0-.785 14.432l.16-.014c.14-4.773.77-9.52 1.882-14.164.148-.57.297-1.141.458-1.709.162-.567.311-1.135.485-1.693a30.484 30.484 0 0 1 1.192-3.256c.43-1.04.945-2.042 1.54-2.996.291-.462.61-.905.956-1.327.172-.202.345-.404.53-.606.088-.093.193-.202.293-.304l.307-.31a27.214 27.214 0 0 1 2.522-2.328c.301-.24.606-.47.92-.687l.162.045.048-.188.216-.144c.113-.076.228-.147.345-.216.117-.068.232-.137.35-.202.23-.13.49-.264.734-.404a20.47 20.47 0 0 1 3.133-1.279c.273-.08.545-.163.82-.236.274-.073.55-.143.827-.202a21.39 21.39 0 0 1 1.683-.341c1.14-.176 2.29-.279 3.444-.308a10.83 10.83 0 0 1 3.323.368 9.698 9.698 0 0 1 3.061 1.46c.48.339.937.71 1.366 1.112.443.404.864.832 1.261 1.28l.134-.092a14.394 14.394 0 0 0-2.408-2.715 10 10 0 0 0-3.127-1.84 11.489 11.489 0 0 0-3.574-.653 24.674 24.674 0 0 0-3.632.129 23.002 23.002 0 0 0-3.565.687 21.84 21.84 0 0 0-3.858 1.485 829.328 829.328 0 0 0 1.659-6.596 3.046 3.046 0 0 1-.906-.808h-.331c-.154.571-.305 1.145-.46 1.717a373.117 373.117 0 0 1-1.911 6.883zm-37.446 21.04c0-.214.016-.426.028-.636v-.302c.014-.217.03-.432.049-.644v-.095l.012-.15c.026-.288.056-.573.088-.856a.508.508 0 0 1 0-.054v-.081c.029-.239.061-.475.095-.71l.018-.124c0-.047.015-.093.023-.14.03-.202.062-.386.096-.578.015-.087.03-.175.047-.262.04-.214.08-.425.125-.635l.032-.163c.059-.265.12-.525.182-.784 0-.032.018-.067.026-.101a33.623 33.623 0 0 1 .178-.67c0-.035.018-.07.028-.104l.038-.133a41.745 41.745 0 0 1 .23-.754 40.2 40.2 0 0 1 .224-.668l.012-.035v-.016c.087-.242.176-.48.269-.717v-.03a33.318 33.318 0 0 1 .274-.669l.083-.202c.077-.175.155-.349.236-.521v-.014a22.783 22.783 0 0 1 .728-1.444c0-.019.02-.035.029-.053.008-.019.032-.055.046-.083.095-.168.19-.336.287-.5l.054-.092a22.953 22.953 0 0 1 .355-.582l.012-.02a26.988 26.988 0 0 1 .841-1.24l.071-.098c.117-.16.236-.319.357-.474l.073-.095c.216-.279.436-.55.662-.808l.012-.014c.226-.267.454-.528.688-.782l.034-.035.027-.03c.145-.157.292-.311.44-.465l.034-.034c.244-.25.494-.497.746-.735h.01c.255-.241.512-.476.771-.703l.035-.03a29.859 29.859 0 0 1 2.183-1.734 34.656 34.656 0 0 1 4.035-2.487c.454-.24.91-.47 1.364-.689.222-.107.444-.202.664-.31h.022c.222-.102.444-.203.666-.3h.029c.201-.09.403-.178.605-.262l.08-.033c.212-.089.422-.175.634-.258l.043-.019.57-.222.122-.046.605-.224.042-.015c.184-.068.368-.133.55-.202l.146-.052.578-.202.052-.146-.08.015h-.013a42.5 42.5 0 0 0-8.539 3.866 28.61 28.61 0 0 0-7.23 6.087 24.617 24.617 0 0 0-4.57 8.263 26.88 26.88 0 0 0-1.063 4.618 35.98 35.98 0 0 0-.303 4.727h.08c0-.31 0-.62.013-.925l.01-.285z" fill="#FFF" opacity=".04"/><path d="M117.388 338.477c.07-.384.133-.77.23-1.148.097-.377.155-.761.248-1.137a31.42 31.42 0 0 1 1.412-4.376 24.773 24.773 0 0 1 2.018-4.04c.388-.639.807-1.257 1.253-1.855.446-.598.91-1.178 1.413-1.733a30.82 30.82 0 0 1 6.868-5.717c2.553-1.616 5.325-2.897 8.178-4.055a12.9 12.9 0 0 1 2.52-.353c.922-.04 1.846-.009 2.763.093.926.095 1.841.277 2.734.543.448.134.884.303 1.305.505.109.045.214.098.315.158l.309.175a3.1 3.1 0 0 1 .292.202l.295.202.117-.109a7.264 7.264 0 0 0-2.421-1.63 13.991 13.991 0 0 0-2.783-.873 17.049 17.049 0 0 0-2.9-.335c-.484-.014-.968 0-1.454.026a384.62 384.62 0 0 0 2.028-6.103 12.637 12.637 0 0 1-.91-.679l-.357.998-1.413 3.938c-.223.664-.453 1.337-.688 2.02h-.04l-.053.145-.577.202-.147.053c-.182.063-.365.127-.549.202l-.042.014-.606.224-.12.047-.572.222-.042.018c-.202.083-.422.17-.634.259l-.08.032a26.43 26.43 0 0 0-.606.263h-.028c-.222.097-.444.202-.666.299h-.022a39.242 39.242 0 0 0-2.028 1 34.656 34.656 0 0 0-4.035 2.487 29.859 29.859 0 0 0-2.184 1.733l-.034.03c-.26.228-.517.462-.77.703h-.01c-.253.239-.503.485-.747.736l-.035.034a32.16 32.16 0 0 0-.44.465l-.026.03-.034.034c-.234.255-.462.515-.688.782l-.012.014c-.226.267-.446.538-.662.808l-.073.095c-.12.156-.24.315-.357.475l-.07.097c-.28.384-.548.78-.808 1.186 0 .018-.022.036-.034.054l-.012.02a20.104 20.104 0 0 0-.355.582l-.055.093c-.097.164-.202.332-.286.5a.828.828 0 0 1-.047.082c-.016.026-.018.034-.028.053a25.71 25.71 0 0 0-.728 1.445v.013a18.5 18.5 0 0 0-.236.521l-.083.202a33.322 33.322 0 0 0-.275.67v.03c-.092.236-.181.474-.268.717v.016l-.012.034a32.442 32.442 0 0 0-.293.885 41.75 41.75 0 0 0-.161.537l-.038.134-.029.103a33.627 33.627 0 0 0-.177.67c0 .035-.018.07-.026.101-.063.259-.123.52-.182.784 0 .055-.022.11-.032.164-.045.202-.085.42-.125.634a26.519 26.519 0 0 0-.143.84c0 .047-.015.094-.023.14l-.018.125c-.034.235-.067.471-.095.71v.08a.508.508 0 0 0 0 .055c-.032.283-.062.567-.089.856l-.012.15v.095c-.018.202-.034.426-.048.644v.301c-.012.202-.02.422-.028.637v.28c0 .305-.013.606-.013.926h.081c.045-.74.141-1.52.295-2.29zm51.308-139.134l.297-.333z" fill="#FFF" opacity=".04"/></g><path d="M261.784 212.677c-7.16-2.952-10.492-5.521-13.497-7.02-.112 1.419-.3 2.83-.563 4.23l-.038.202-.097.487c-.05.236-.101.47-.153.703-.045.202-.091.386-.138.576 0 .028-.014.054-.02.08a32.852 32.852 0 0 1-.403 1.48 29.165 29.165 0 0 1-.591 1.796c-.02.06-.043.118-.065.179-.095.252-.192.503-.29.747l-.045.105-.059.14c-.08.202-.161.38-.244.563l-.097.217c-.062.135-.125.268-.19.404l-.042.087-.103.202-.133.262c-.058.113-.119.224-.177.336l-.067.119c-.073.133-.147.264-.222.404l-.024.042-.137.233-.05.082c-.071.115-.142.229-.202.338l-.103.155-.166.245-.083.117c-.064.09-.129.184-.201.27l-.02.029c-.12.16-.24.311-.362.458l-.052.065a10.59 10.59 0 0 1-.371.426c-.38.42-.801.8-1.258 1.134-3.525 2.55-10.185-1.962-25.662-13.334-14.136-10.392-23.368-24.052-28.594-26.79-1.06-1.616-.119-2.666 1.086-3.412l-.054.012a98.165 98.165 0 0 0 17.393-6.167c-10.049 2.893-15.186.965-19.867 1.212-7.87.404-14.73 6.263-22.801 6.263-25.828 0-46.005-11.92-48.225-22.02-2.167-9.865 2.881-14.732 2.623-17.576-.403-4.445-4.64-7.273-6.659-22.627-2.017-15.353 7.466-27.474 22.801-32.525 15.335-5.05 31.074 8.283 47.216 8.08 16.143-.201 29.662-16.496 34.504-16.767 3.632-.202 12.107 1.414 14.528 14.142 2.422 12.727-.201 29.495.202 37.171.018.34.17.658.422.885.95 2.388 4.62 5.212 5.43 12.045.266 2.244-.321 5.064-1.804 8.123 1.555-3.138 2.177-6.03 1.905-8.325-.913-7.69-5.448-10.303-5.65-12.93-.202-2.626 3.834-16.767 3.43-34.343-.404-17.576-8.878-26.06-18.564-34.546-9.685-8.484-27.845-17.171-55.892-16.767-28.047.404-60.38 24.02-65.99 34.95-7.465 14.545-10.492 25.454-3.833 51.918 5.09 20.235 19.342 42.829 49.637 50.707 9.326 2.425 20.531 2.849 32.89 1.819.728-.06 1.455-.13 2.175-.202.759.689-.666 1.94-1.996 3.171-3.775 2.459-8.745 7.576-15.278 12.54-7.968 6.048-39.964 23.731-47.997 35.697-8.033 11.965.202 22.555 7.248 29.812 4.223 4.343 9.847 8.125 14.441 10.84l-.313.14-.097.042-.244.111-.135.063-.24.11-.151.072-.25.117-.166.079-.262.123-.178.087-.27.131-.188.093-.282.14-.202.096-.295.15-.202.1-.302.158-.202.105-.315.168-.202.107-.326.18-.202.105-.341.202-.184.103-.363.202-.163.095-.404.242-.121.073c-.176.107-.35.214-.52.323l-.53.342c-2.461 1.616-4.602 3.489-5.056 5.303-1.174 4.707 1.176 7.844 3.919 5.687 4.99 8.119 12.712 13.004 20.595 14.46a2.27 2.27 0 0 0-.038.107l-.073.202c-.018.053-.038.103-.056.154l-.06.172v.022c-.02.05-.037.1-.053.151-.017.05-.057.154-.083.23a2.607 2.607 0 0 1-.04.116v.014l-.059.17-.02.056a.455.455 0 0 0-.016.049c-.03.08-.057.161-.083.238l-.03.087c-.018.057-.039.113-.057.166v.014c0 .022-.014.044-.022.066-.024.071-.046.142-.069.203 0 .016-.01.032-.014.046l-.05.151-.018.061-.053.172v.02l-.038.133v.041l-.034.133-.202.537c2.46 1.97 4.877 2.829 8 3.249 2.506.302 5.026.466 7.549.49h.33c.246.328.554.603.907.809 1.321.808 3.632 1.335 6.564 1.709 2.342.299 5.084.505 8.04.693 5.852.372 9.787.228 12.434-.012.868-.079 1.596-.17 2.207-.257a5.73 5.73 0 0 0 1.314.035c1.148-.08 2.595-.39 4.173-.839 2.207-.626 4.673-1.519 6.953-2.424a148.754 148.754 0 0 0 7.936-3.404s5.878-36.091 1.96-62.568a53.45 53.45 0 0 0-.203-1.272l-.064-.404-.141-.87c-.025-.155-.053-.312-.08-.468-.044-.27-.09-.541-.136-.808l-.085-.483c-.046-.268-.095-.535-.143-.808l-.085-.47c-.053-.28-.103-.556-.155-.835-.029-.141-.055-.285-.083-.426l-.178-.917-.066-.34-.228-1.125a169.251 169.251 0 0 0-.876-4.004l-.03-.131a179.54 179.54 0 0 0-.309-1.31l-.268-1.109c-.015-.054-.027-.107-.04-.161-.094-.382-.19-.766-.287-1.146l-.025-.099c-.314-1.239-.64-2.467-.976-3.684l-.024-.087-.303-.606.303.606c-.152-.546-.305-1.091-.46-1.633.094.124.19.249.286.372l.133.176c.093.121.188.242.285.363.048.065.097.128.147.19.097.124.202.249.293.372l.145.184c.103.13.202.26.31.39l.108.133c.185.232.375.465.569.701l.028.035.512.62.075.089.07.086.13.152.115.137.127.152c.042.048.083.099.125.15l.067.074.133.158.17.202c.042.048.084.099.128.147v.014l.154.178.226.26.079.09a101.6 101.6 0 0 0 1.935 2.16l.052.054c.034.04.07.079.107.117l.351.378.093.099.064.068c.122.13.243.259.366.386l.036.04.063.065.018.018c.339.357.683.714 1.033 1.071l.036.037c.354.36.712.72 1.076 1.078 8.432 8.328 19.312 16 29.925 15.887 17.636-.19 29.765-20.23 34.076-28.806-1.178-.608-7.15-3.077-16.513-6.937zm-137.41 64.58c-.152.038-.31.084-.465.129.156-.045.313-.091.464-.13zm-.699.202c-.143.042-.292.093-.438.139a6.26 6.26 0 0 1 .438-.147v.008zm.785-.215c5.68-1.434 9.221.607 11.984 2.459-2.763-1.859-6.306-3.901-11.984-2.467v.008zm12.958 3.11zm-.462-.312l.43.29-.43-.29zm31.958-79.963v.046c-.012.09-.024.18-.039.271-.053.38-.112.773-.175 1.18 0 .054-.018.11-.026.165l-.136.861v.036c-.04.259-.082.52-.127.786-.016.105-.034.202-.052.315-.016.091-.03.182-.047.273l-.04.24c-.036.22-.075.445-.113.671v.043c-.016.097-.032.202-.05.297 0 .04-.014.08-.023.12-.129.754-.266 1.536-.403 2.34 0 .059-.02.117-.032.176-.027.143-.053.289-.077.434-.016.085-.032.17-.046.255-.103.578-.212 1.168-.321 1.768-.06.333-.123.67-.186 1.01l-.09.48v.015l-.094.499-.04.214v.012c-.056.307-.115.606-.173.925v.044c-.053.28-.105.56-.16.843l-.02.107c-.052.283-.107.566-.16.85v.023l-.01.05-.022.115c0 .045-.016.09-.026.134a73.46 73.46 0 0 1-.202 1.044c-.014.07-.026.14-.04.202l-.351 1.839-.03.161a503399.916 503399.916 0 0 0-1.465 7.655c0 .032-.014.066-.02.099l-.164.864v.081c-.056.293-.11.586-.167.879v.075l-.358 1.88c0 .057-.022.114-.032.17-.046.25-.095.503-.143.756l-.044.24-.128.669c-.018.103-.038.202-.056.307l-.123.657c-.018.092-.037.183-.053.274l-.17.907c-.058.32-.118.639-.177.958v.04l-.03.16-.131.717-.024.125c-.012.07-.027.14-.039.202-.038.202-.074.404-.11.606-.019.095-.035.188-.053.283v.043l-.117.636c-.018.105-.039.202-.057.313-.042.228-.082.459-.125.69l-.042.227v.023l-.17.93-.012.074-.028.153-.127.707-.057.321a46.15 46.15 0 0 0-.113.623v.014l-.06.335c-.034.202-.07.404-.105.596l-.063.352c-.036.202-.072.418-.11.626 0 .065-.023.13-.035.202l-.02.121-.164.93c-.058.34-.12.686-.185 1.032 0 .036-.014.074-.022.11-.152.809-.32 1.645-.499 2.492 0 .034-.014.07-.022.105-.062.293-.127.586-.202.883-.018.074-.032.147-.05.222l-.242 1.065c-.024.105-.049.202-.075.319l-.085.365c-6.158-5.561-15.294-12.224-20.4-14.533 7.13-10.774 9.282-13.52 16.143-21.951 3.811-4.691 9.425-11.055 14.027-16.22-.123.302-.153.523-.185.747z" fill="#282828" fill-rule="nonzero"/><path d="M205.109 223.188l-.303-.608zm-66.274 14.404c5.105 2.309 14.241 8.972 20.4 14.533l.084-.365.075-.32c.083-.356.164-.711.242-1.064.018-.075.032-.148.05-.222.065-.297.13-.59.202-.883 0-.035.014-.071.022-.105.18-.847.347-1.68.499-2.491 0-.037.014-.075.022-.111.065-.346.127-.691.186-1.033l.163-.929c0-.04.014-.08.02-.121.006-.04.024-.13.035-.202.038-.202.074-.418.11-.626.02-.118.043-.235.063-.352.034-.202.07-.404.105-.596l.06-.335v-.014c.039-.202.075-.417.114-.623.018-.107.036-.214.056-.32l.127-.708.028-.153.013-.073.169-.932v-.022l.042-.228c.043-.23.083-.46.126-.689.018-.103.038-.202.056-.313l.117-.636v-.043l.052-.283.111-.606.039-.202.024-.125.131-.717.03-.16v-.04c.059-.32.12-.639.178-.958l.17-.907c.016-.09.034-.182.052-.275.04-.218.08-.436.123-.656.018-.103.038-.202.057-.307l.127-.669.044-.24c.048-.253.097-.505.143-.756 0-.056.023-.113.033-.17l.357-1.88v-.075c.056-.293.11-.586.167-.879v-.081l.164-.864c0-.033.014-.067.02-.1.316-1.663.629-3.296.938-4.898l.527-2.756.03-.161.351-1.839c.014-.07.026-.14.04-.202a96.254 96.254 0 0 1 .228-1.178l.023-.115.01-.05v-.023c.052-.284.107-.567.16-.85l.02-.107.159-.843v-.044c.058-.311.117-.618.173-.925v-.012l.04-.215c.03-.167.063-.333.093-.499v-.014l.091-.48.186-1.01c.109-.607.218-1.19.32-1.768l.047-.255a27.731 27.731 0 0 1 .11-.61c.142-.808.28-1.586.403-2.34 0-.04.014-.08.022-.12l.05-.297v-.043c.039-.226.077-.45.113-.67l.04-.241c.017-.09.03-.182.047-.273.018-.105.036-.202.052-.315.045-.267.087-.527.128-.786v-.036c.046-.293.09-.58.135-.86 0-.055.016-.112.026-.166.063-.404.122-.798.176-1.18.014-.091.026-.182.038-.27v-.047c.032-.225.062-.445.09-.659-4.602 5.166-10.215 11.53-14.027 16.22-6.761 8.344-8.918 11.09-16.047 21.863z"/><path fill="#282828" fill-rule="nonzero" d="M245.928 216.135v.002zm1.508-4.855c-.045.203-.091.387-.138.577.047-.19.093-.382.138-.576zm-.158.66c-.052.216-.109.428-.165.64.056-.214.113-.426.165-.64zm-1.697 5.007l-.097.217zm.303-.705c-.02.049-.038.095-.059.142l.059-.14v-.002zm-2.742 4.772l.052-.065-.052.065zm4.447-10.436l.097-.487c-.026.162-.065.327-.097.487zm-2.294 6.988l-.043.087zm.924-2.178l.065-.18c-.02.06-.037.12-.065.18zm.597-1.776l.059-.202c-.023.075-.039.137-.059.202zm-2.96 6.458l-.085.12zm1.294-2.207l-.134.262zm-1.574 2.597l-.02.03zm.813-1.212c-.018.029-.037.055-.053.083l.05-.083h.003zm.161-.274l-.024.042zm-.425.695l-.103.157zm.71-1.209l-.067.12z"/><path d="M244.274 219.432c-.049.08-.1.16-.15.237.071-.11.142-.223.202-.338l-.052.101zm.876-1.569l.102-.202-.103.202zm-1.294 2.207l.166-.244-.166.245zm.791-1.264l-.097.168c.075-.13.15-.26.222-.404-.04.087-.082.167-.125.236zm-.258.442l.137-.232-.137.232zm.511-.903l-.061.116c.058-.112.119-.223.177-.336a7.59 7.59 0 0 1-.117.22zm-2.13 3.095zm-35.815 3.033l-.028-.035.028.035zm36.629-4.02c.066-.087.131-.18.202-.271-.077.097-.14.186-.202.27zm-.39.507c.121-.148.242-.3.362-.459-.12.15-.24.301-.362.459zm3.366-6.54zm.722-2.495v.012c0-.026.012-.052.02-.08a.326.326 0 0 0-.02.068zm-.169.653zm.325-1.305c.052-.233.103-.467.153-.703-.052.242-.1.474-.153.703zm-1.155 3.935c.095-.259.188-.52.277-.786-.089.275-.182.527-.277.786zm1.403-5.118l.038-.201-.038.202zm-1.976 6.569l-.072.161c-.018.045-.039.085-.057.127.083-.183.164-.371.245-.563l-.115.275zm-.314.697l-.101.202c.064-.134.127-.267.19-.404l-.09.202zm.488-1.114c.014-.034.03-.068.044-.105-.014.037-.03.071-.044.105zm.044-.107z" fill="#494949" fill-rule="nonzero"/><path d="M207.613 225.269l.371.44.125.15.37.432c.042.048.084.099.128.147l.39.453c.026.03.054.06.08.093a105.334 105.334 0 0 0 2.438 2.697l.099.107.466.495.063.064c.705.74 1.429 1.48 2.173 2.223.177.175.357.351.539.525l.062.06c.178.174.357.348.539.52l.04.04c.965.92 1.956 1.823 2.974 2.71l.019.017.605.52.022.02a72.956 72.956 0 0 0 3.834 3.052c4.158 3.085 8.608 5.637 13.136 7.095h.018a28.35 28.35 0 0 0 4.271 1.029h.055c.23.034.458.066.688.097h.02c.95.12 1.907.18 2.865.183 4.048-1.36 5.943-5.442 6.875-11.745.932-6.303-1.986-18.721-3.126-27.028l-.038.202-.038.202-.097.487c-.05.236-.101.47-.154.703-.044.202-.09.385-.137.575 0 .029-.014.055-.02.081a32.852 32.852 0 0 1-.403 1.479l-.059.202a29.169 29.169 0 0 1-.533 1.594c-.02.06-.042.12-.064.18-.095.252-.192.503-.29.747l-.045.105-.059.14c-.08.202-.161.38-.244.563l-.097.216c-.062.136-.125.27-.19.404l-.042.087-.103.202-.133.263c-.058.113-.119.224-.177.335l-.067.12c-.073.133-.147.264-.222.404l-.024.042-.137.232-.05.083c-.071.115-.142.228-.203.338l-.102.155-.166.245-.083.117c-.064.09-.129.184-.201.27l-.02.029c-.12.16-.24.31-.362.458l-.052.065c-.123.147-.246.29-.372.426a201.445 201.445 0 0 1-2.261 5.439c-1.369 3.094-4.191 5.76-9.9 5.494-5.369-.248-11.188-5.923-16.848-11.919-7.042-7.46-13.677-15.917-17.008-20.838 2.789 6.224 5.55 13.753 7.896 21.937l.288.376.133.176c.093.121.188.242.285.363.048.065.097.128.147.19.097.124.202.249.293.372l.145.184c.103.13.202.26.31.39l.108.133c.185.232.375.465.569.701l.028.034c.192.235.388.471.587.71l.073.11z" fill="#494949" fill-rule="nonzero"/><path d="M203.335 217.174c2.258 1.35 4.502 2.274 5.448 1.458 1.21-1.042-1.33-4.264-4.764-7.392-1.65-1.503-2.839-2.52-3.763-3.04 1.067 2.844 2.1 5.848 3.079 8.974zm9.72 7.422c-1.552 1.762 2.32 6.162 3.833 7.778 1.514 1.616 5.198 4.198 6.86 2.424 1.514-1.616-2.824-6.162-4.54-7.778-1.714-1.616-4.64-4.141-6.153-2.424zm18.765 13.939c1.374 4.584 5.044 6.364 7.97 6.465 2.926.101 6.255-1.92 5.55-5.758-.707-3.838-5.348-6.666-8.677-6.06-3.588.652-5.448 3.333-4.843 5.353zm15.571-27.238c.043-.35-.728 3.002-.7 2.71a29.172 29.172 0 0 1-.763 2.13c-.014.037-.03.071-.044.107a9.24 9.24 0 0 1-.174.404l-.072.162c-.05.117-.101.23-.154.344l-.088.202c-.049.1-.095.202-.144.297l-.103.202-.133.262c-.038.073-.076.148-.117.22-.04.073-.082.158-.127.235-.044.076-.083.151-.125.226l-.121.202-.14.232-.112.184-.13.202c-.605 2.95.168 6.103 1.633 6.103 3.196.02 1.075-10.115 1.614-14.424z" fill="#99C7C9" fill-rule="nonzero"/><path d="M159.234 252.123l.083-.353v-.012c.026-.107.05-.215.075-.322a91.332 91.332 0 0 0 .292-1.29c.065-.298.13-.59.202-.883 0-.037.014-.073.022-.107a66.613 66.613 0 0 0 .26-1.255l.025-.12c.062-.316.125-.632.184-.945l.03-.165c0-.037.014-.075.022-.113.065-.346.127-.691.186-1.033.058-.341.123-.7.183-1.05.012-.063.022-.128.035-.19l.339-1.91v-.013l.296-1.65v-.027l.022-.127.182-1.01v-.023l.17-.925.054-.301v-.012l.125-.679.05-.275.111-.606v-.01l.037-.202c.052-.28.105-.561.155-.842v-.012c0-.049.018-.1.026-.148l.358-1.913c.018-.087.034-.176.05-.263.04-.218.08-.436.123-.656v-.016c.018-.093.034-.186.053-.28v-.011c.235-1.249.47-2.487.704-3.715v-.047l.171-.9v-.05l1.128-5.884.527-2.756.03-.161c.065-.332.127-.661.19-.988l.018-.093.125-.659.018-.099.043-.22.08-.422c0-.057.02-.111.033-.168l.084-.454.027-.136a3.99 3.99 0 0 1 .022-.115l.014-.073c.052-.285.107-.567.16-.85l.02-.107.159-.843v-.044c.012-.059.022-.117.032-.176.032-.161.063-.323.093-.485l.048-.264.043-.227.048-.26.045-.239.092-.499.043-.228c.048-.265.097-.525.143-.784.046-.258.095-.517.141-.771l.053-.295c.024-.13.048-.259.07-.386.023-.128.039-.202.057-.315l.048-.259c0-.04.014-.08.02-.12.02-.104.039-.201.057-.314 0-.06.022-.12.032-.18.01-.06.024-.13.035-.202l.054-.303.065-.372.06-.341c.034-.202.067-.382.101-.572.018-.115.038-.23.058-.343l.037-.215c0-.042.016-.084.022-.125.018-.1.034-.202.05-.297v-.042c.017-.1.033-.202.05-.293.02-.091.031-.19.047-.285 0-.03.01-.063.016-.093.015-.08.029-.164.04-.244l.047-.273c.016-.091.037-.216.053-.325l.048-.293.079-.493v-.04c.016-.1.03-.203.046-.298.016-.095.028-.185.045-.276.016-.091.03-.202.044-.287 0-.059.016-.113.026-.17.01-.057.01-.07.016-.107l.043-.275c.012-.09.026-.182.04-.27.014-.09.026-.18.038-.27l.039-.258c.014-.09.026-.182.038-.27v-.049c0-.065.018-.13.026-.202l.06-.432v-.035c-4.602 5.166-10.215 11.53-14.027 16.22-6.86 8.433-9.013 11.178-16.142 21.952 5.105 2.31 14.242 8.972 20.4 14.533l.078-.02z"/><path fill="#282828" fill-rule="nonzero" d="M168.143 204.947v.043zm.387-2.339v.04zm.384-2.529v.048zm-.618 3.953c-.012.081-.026.164-.04.245l.04-.24v-.005zm.396-2.454c0 .056-.018.11-.026.17.008-.06.016-.116.026-.17zm-.297 1.858c-.016.11-.034.217-.052.326l.052-.326zm-1.81 10.122v.044-.02zm.216-1.152l-.042.226v-.012c.016-.07.028-.145.042-.214zm1.283-7.119c0 .04-.014.083-.022.125 0-.04.014-.08.022-.121v-.004zm-1.846 10.115l-.014.073.01-.05zm1.415-7.65c0 .06-.023.119-.033.18l.033-.18zm-.099.614l-.049.258c.006-.089.023-.173.049-.258zm-.567 3.046c-.03.166-.063.331-.093.5v-.015l.093-.485zm40.957 23.508c.076.375.153.749.228 1.124-.075-.375-.152-.741-.228-1.125zm1.444 7.957zm-42.99-28.325l.02-.108-.02.108zm-.844 4.438l.03-.162-.03.162zm-3.474 18.333c.036-.202.072-.404.11-.606-.038.202-.074.404-.11.606zm.744-4.002c.04-.218.08-.436.123-.656-.034.214-.082.438-.123.656zm46.359 8.277zm-.444-2.566c.048.269.097.536.143.808-.046-.272-.095-.539-.143-.808zm-42.537-23.442c0 .044-.016.089-.026.135.01-.044.018-.089.026-.133v-.002zm40.866 15.325c.296 1.285.579 2.578.85 3.879a255.864 255.864 0 0 0-.85-3.879zm1.17 5.469c.06.305.12.606.178.917-.059-.305-.117-.612-.178-.917zm-1.468-6.738c.09.378.18.757.268 1.14-.092-.383-.181-.762-.269-1.14zm1.729 8.081l.155.835-.155-.835zm.468 2.593zm-2.833-13.261c.097.38.202.763.287 1.145-.093-.376-.19-.766-.287-1.145zM142.13 303.94a58.606 58.606 0 0 1-.123.345c.014-.039.028-.077.04-.115.022-.077.05-.152.083-.23zm-.131.359l-.08.226.021-.056c.018-.057.039-.111.059-.17zm-.426 1.261l.05-.152-.05.152zm64.887-77.194c.091.367.18.739.27 1.109-.09-.37-.179-.742-.27-1.11zm-64.67 76.533l-.06.18v-.014c.022-.053.043-.11.06-.166zm.031-.087c.026-.077.053-.157.083-.238-.03.08-.057.161-.083.238zm-.266.808a5.58 5.58 0 0 0-.055.18l.055-.18zm-.145.507l.034-.133-.035.133zm24.568-89.357l-.042.22c.016-.07.028-.15.042-.22zm-24.27 88.375l-.083.255c0-.014 0-.03.014-.046.023-.067.045-.138.07-.209zm-.298.982l-.194.538zm17.984-54.689c-.024.107-.049.215-.075.322l.075-.32v-.002zm-17.9 54.382c-.016.05-.028.1-.042.146v-.012c.016-.043.028-.087.042-.134zm.809-2.38l.073-.202c-.066.182-.13.358-.19.528l.06-.172c.02-.05.04-.101.057-.154zm21.587-75.751l-.172.9v-.021c.06-.293.115-.586.172-.88zm-4.205 22.461l-.051.226c.02-.079.034-.152.05-.227zm2.342-12.544l-.125.679c.038-.202.079-.424.117-.637l.008-.042zm-.183 1l-.17.925.042-.228c.045-.238.085-.469.128-.697zm.756-4.095l.17-.907-.358 1.913v-.04c.07-.328.13-.647.188-.966zm-.928 5.034l-.182 1.01.012-.072zm.712-3.876c-.05.28-.103.561-.155.842l.024-.125c.055-.24.087-.477.131-.717zm.791-4.221c.049-.252.097-.505.143-.755 0-.057.023-.113.033-.17a18732.595 18732.595 0 0 0-.347 1.835l.127-.67.044-.24zm-3.275 17.71c0 .034-.014.07-.022.107.008-.037.008-.073.022-.107zm1.098-5.859c.035-.202.07-.404.105-.596l.06-.335-.339 1.909c.039-.202.075-.418.112-.626l.062-.352zm-.208 1.171c-.06.35-.12.702-.183 1.051l.163-.93.02-.12zm3.28-17.727c0-.032.013-.066.02-.099.315-1.663.628-3.296.938-4.899l-1.128 5.881v-.022l.17-.86zm-3.649 19.811c0 .038-.014.076-.022.113 0-.037.014-.075.022-.111v-.002zm.914-5.144l.127-.707-.297 1.65c.039-.201.075-.416.114-.622.02-.107.036-.214.056-.32zm6.544 18.166l-.134-.132.134.132zm-8.419 40.349z"/><path d="M138.835 237.592c5.105 2.309 14.241 8.972 20.4 14.533l.084-.365.075-.32c.083-.356.164-.711.242-1.064.018-.075.032-.148.05-.222.065-.297.13-.59.202-.883 0-.035.014-.071.022-.105.18-.847.347-1.68.499-2.491 0-.037.014-.075.022-.111.065-.346.127-.691.186-1.033l.163-.929c0-.04.014-.08.02-.121.006-.04.024-.13.035-.202.038-.202.074-.418.11-.626.02-.118.043-.235.063-.352.034-.202.07-.404.105-.596l.06-.335v-.014c.039-.202.075-.417.114-.623.018-.107.036-.214.056-.32l.127-.708.028-.153.013-.073.169-.932v-.022l.042-.228c.043-.23.083-.46.126-.689.018-.103.038-.202.056-.313l.117-.636v-.043l.052-.283.111-.606.039-.202.024-.125.131-.717.03-.16v-.04c.059-.32.12-.639.178-.958l.17-.907c.016-.09.034-.182.052-.275.04-.218.08-.436.123-.656.018-.103.038-.202.057-.307l.127-.669.044-.24c.048-.253.097-.505.143-.756 0-.056.023-.113.033-.17l.357-1.88v-.075c.056-.293.11-.586.167-.879v-.081l.164-.864c0-.033.014-.067.02-.1.316-1.663.629-3.296.938-4.898l.527-2.756.03-.161.351-1.839c.014-.07.026-.14.04-.202a96.254 96.254 0 0 1 .228-1.178l.023-.115.01-.05v-.023c.052-.284.107-.567.16-.85l.02-.107.159-.843v-.044c.058-.311.117-.618.173-.925v-.012l.04-.215c.03-.167.063-.333.093-.499v-.014l.091-.48.186-1.01c.109-.607.218-1.19.32-1.768l.047-.255a27.731 27.731 0 0 1 .11-.61c.142-.808.28-1.586.403-2.34 0-.04.014-.08.022-.12l.05-.297v-.043c.039-.226.077-.45.113-.67l.04-.241c.017-.09.03-.182.047-.273.018-.105.036-.202.052-.315.045-.267.087-.527.128-.786v-.036c.046-.293.09-.58.135-.86 0-.055.016-.112.026-.166.063-.404.122-.798.176-1.18.014-.091.026-.182.038-.27v-.047c.032-.225.062-.445.09-.659-4.602 5.166-10.215 11.53-14.027 16.22-6.761 8.344-8.918 11.09-16.047 21.863zm66.274-14.404l-.303-.608z"/><path d="M126.3 275.707l.315-.168-.315.168zm-.514.287l.327-.18-.327.18zm-.545.299l.341-.202c-.113.073-.228.135-.341.202zm-.547.313l.364-.202-.364.202zm2.121-1.172l.303-.157-.303.157zm.5-.258l.295-.15-.295.15zm-3.188 1.767l.404-.242-.404.242zm81.813-53.729c.103.13.202.26.31.39l.108.133a67.528 67.528 0 0 1-.591-.743l.028.036.145.184zm-.438-.555c.065.084.131.17.202.252l-.444-.568c.032.043.065.085.099.126.034.04.093.127.143.19zm.198.252l.067.083-.067-.083zm-77.896 52.019l.282-.14-.282.14zm77.266-52.825l.066.085c-.163-.202-.326-.422-.483-.63.092.12.187.246.284.37l.133.175zm-81.584 55.235zm81.651-55.15l.12.153-.12-.153zm-75.588 51.9l.24-.11-.24.11zm-.829.389l.262-.123-.262.123zm.427-.202l.25-.117-.25.117zm.777-.362l.245-.111-.245.111zm.341-.153l.313-.14-.313.14zm-1.993.935l.27-.131-.27.131z" fill="#282828" fill-rule="nonzero"/><path d="M124.006 277.016l.121-.073-.12.073zm5.783-3.038l.135-.063-.135.063zm-2.187 1.048l.202-.097-.202.097zm-.484.251l.202-.101-.202.1zm3.05-1.473l.097-.042-.097.042zm-2.084.986l.188-.093-.188.093zm.898-.434l.166-.08-.166.08zm-2.367 1.184l.202-.106-.202.105zm-.512.274l.202-.107-.202.107zm-.519.285l.202-.105-.202.105zm2.958-1.533l.178-.087-.178.087zm.856-.406l.151-.071-.151.07zm-4.868 2.541l.164-.095-.163.095zm.527-.305l.184-.103-.184.103z" fill="#494949" fill-rule="nonzero"/><path d="M138.028 280.758c3.43 2.222 9.887 7.541 11.23 6.127 1.344-1.414-3.496-4.78-6.053-6.33-2.33-1.414-8.638-4.848-12.944-7.123l.317.19-.313.14-.097.042-.244.111-.135.063-.24.11-.151.072-.25.117-.166.079-.262.123-.178.087-.27.131-.188.093-.282.14-.202.096-.295.15-.202.1-.302.158-.202.105-.315.168-.202.107-.326.18-.202.105-.341.202-.184.103-.363.202-.164.095-.403.242-.121.073c-.176.107-.35.214-.52.323l-.53.342c7.817-2.647 11.875.988 15.1 3.077z" fill="#494949" fill-rule="nonzero"/><path d="M205.109 223.182l-.303-.606c5.055 24.04 6.03 53.333 3.91 67.879-1.188 8.163-2.387 14.852-3.351 17.054-2.948-.345-5.004-3.578-5.876-6.566-1.895-6.49-1.239-13.406-.99-20.163a161.795 161.795 0 0 0-2.462-34.748c-.434-2.404-.632-7.147-1.953-9.622-.03-.238-.059-.477-.09-.713-1.613-12.727-5.649-31.92-8.676-43.434 1.816 9.293 3.632 24.848 5.045 50.1 1.412 25.253-3.21 58.195-4.623 67.488a52.076 52.076 0 0 1-.692 3.737c.868-.079 1.596-.17 2.207-.257a5.73 5.73 0 0 0 1.314.035c.141 0 .286-.023.436-.039l.369-.048h.087c.313-.045.64-.103.98-.172l.247-.052.226-.049.258-.059.236-.056.252-.063c.16-.04.321-.08.484-.125l.606-.164c2.207-.626 4.673-1.519 6.953-2.424l.404-.16.22-.086.129-.053.042-.016.165-.067.136-.054.086-.037.202-.078.188-.077.218-.089.16-.067.18-.074.077-.033.113-.046.222-.091.142-.06.201-.08.136-.056.028-.012.266-.113h.016l.069-.03.23-.098.105-.046.202-.08.115-.051.022-.01.226-.097.064-.029.035-.014.202-.09.102-.045.218-.093.073-.032.202-.085.079-.035H205l.187-.083c1.514-.668 2.474-1.119 2.474-1.119s5.878-36.09 1.96-62.567c-.062-.426-.13-.85-.202-1.273a154.928 154.928 0 0 0-.206-1.273c-.024-.155-.053-.313-.079-.469a84.03 84.03 0 0 0-.137-.808l-.085-.482c-.046-.27-.095-.536-.143-.809l-.085-.47-.155-.835-.083-.426a161.43 161.43 0 0 0-.178-.917l-.066-.34-.228-1.125a169.252 169.252 0 0 0-.876-4.004l-.03-.131c-.089-.382-.178-.762-.268-1.14l-.04-.17c-.09-.369-.178-.74-.27-1.108-.013-.055-.025-.107-.04-.162-.092-.382-.19-.765-.286-1.145l-.024-.1a181.71 181.71 0 0 0-.977-3.684l-.024-.085-.03-.024zm63.303-7.768l-1.287-.533-.067-.026c-.914-.38-3.069 4.115-3.391 4.806-.497 1.062-.987 2.086-1.48 3.117a28.563 28.563 0 0 1-1.688 3.131c-.781 1.236-1.615 2.489-2.785 3.352-1.449 1.064-2.946.99-4.63.727-1.918-.3-2.72-.23-4.349.87-1.285.871-3.834 2.1-5.406 2.393-2.24.418-4.538.343-6.816.264-3.004-.1-6.067-.214-8.878-1.26-2.08-.772-2.338-.695-4.18-1.936-4.036-2.709-7.442-6.693-10.762-10.234-5.916-6.313-13.048-20.202-20.448-28.687 2.985 6.465 9.906 21.404 12.412 30.156 8.234 10.83 24.2 27.07 39.609 26.91.286 0 .57-.011.853-.026.095 0 .188-.012.28-.018.19 0 .38-.022.568-.038.11 0 .22-.02.329-.033.171-.016.34-.032.508-.052l.347-.046.484-.07.351-.058c.158-.028.315-.054.47-.085l.352-.07c.155-.033.31-.065.464-.101l.345-.081.464-.117.333-.091.468-.136.319-.097c.161-.05.32-.103.482-.157.099-.032.202-.065.297-.101.167-.059.337-.12.502-.182l.264-.097c.186-.07.368-.145.551-.22.069-.028.14-.055.202-.085.222-.09.442-.188.66-.285l.089-.04a29.738 29.738 0 0 0 2.255-1.138l.033-.02c.232-.13.462-.26.69-.404l.08-.048c.214-.128.424-.257.634-.388l.099-.063c.206-.135.408-.27.605-.404l.097-.062.606-.415.082-.058c.202-.146.414-.291.62-.44l.058-.045c.216-.158.43-.317.642-.48l.022-.017a48.927 48.927 0 0 0 6.794-6.408c5.105-5.77 8.77-12.184 10.763-16.148-.89-.462-4.383-1.935-9.916-4.226zm-61.211-43.252l-.361.173.361-.173zm-1.005.48l-.357.17.357-.17zm-20.381 1.448c-7.87.405-14.73 6.264-22.801 6.264-17.89 0-33.064-5.718-41.441-12.588a5.544 5.544 0 0 1-.226-.14c-9.282-6.262-10.148-11.757-11.703-14.545-2.299-4.121.109-8.501-2.601-10.182-6.356-3.94-18.967-40.097-5.448-62.117 1.689-2.754 5.89-5.253 8.25-7.566 1.816-1.788 1.685-3.483 3.816-5.01 17.204-12.323 43.55-16.541 57.846-11.667-13.116-4.444-16.665-5.478-14.042-7.7 2.49-2.11 26.974-.76 32.734 2.838-6.132-4.586-5.23-8.328-29.772-9.313-.38 0-.763 0-1.146.01-28.047.404-60.372 24.02-65.981 34.95-7.466 14.545-10.493 25.454-3.834 51.918 5.09 20.235 19.342 42.829 49.637 50.707 9.326 2.425 20.531 2.849 32.89 1.819a99.884 99.884 0 0 0 33.68-8.89c-10.042 2.898-15.18.973-19.858 1.213zm25.205-3.904a2.48 2.48 0 0 0 .126-.069l-.125.069zm-2.846 1.494l-.307.152.307-.151zm2.157-1.116l-.242.129.242-.13zm-1.211.63l-.038.022.038-.022zm-.466 67.368l.085.47-.085-.47z" fill="#091426" fill-rule="nonzero" opacity=".3"/><path d="M207.91 234.794c0 .042.015.085.026.125a.409.409 0 0 0-.027-.125zm.262 1.25l.066.34-.066-.34zm.244 1.257c.028.141.054.285.083.426-.029-.141-.055-.285-.083-.426zm.466 2.535l.085.483-.085-.483zm.222 1.294c.026.155.054.312.079.468-.025-.156-.053-.313-.08-.469zm-2.066-10.346l.03.131-.03-.131zm2.284 11.683zm-3.212-15.507l.024.099-.025-.1zm.619 2.515zm-.309-1.271l.04.162-.04-.162zm-43.598 5.126c-.016.086-.032.175-.05.262.016-.091.034-.182.052-.275l-.002.012zm-.434 2.327v.012l.03-.16a1.91 1.91 0 0 0-.03.148zm6.479-35.259l.039-.27-.039.27zm-6.674 36.319v.012l.038-.202-.038.19zm.809-4.347l-.053.278v.017c.018-.103.039-.202.057-.307l-.004.012zm-2.582 14.184c.066-.346.128-.691.187-1.033-.059.342-.115.691-.186 1.033zm-.052.278c-.059.313-.121.629-.184.946l-.024.119c-.068.347-.14.698-.215 1.052-.014.07-.03.138-.045.203.18-.847.347-1.68.498-2.491l-.03.171zm8.253-44.798c-.016.091-.03.184-.044.277-.014.093-.03.202-.047.297l.136-.86-.045.286zm-1.057 6.212c0 .039-.014.08-.02.12.024-.146.05-.291.076-.435-.018.1-.036.21-.056.315zm-3.856 20.39v-.052zm3.732-19.696l-.072.385c-.016.097-.034.202-.052.295l-.142.772c.11-.606.219-1.19.322-1.768-.019.105-.037.214-.057.315zm-5.768 30.605v-.022zm-.204 1.132v.026l.028-.154-.028.128zm.61-3.354c-.017.093-.035.184-.05.275.017-.095.033-.188.052-.283l-.002.008zM169 199.455l-.06.432c0 .062-.018.127-.026.202.032-.224.062-.445.09-.659l-.003.025zm-7.096 38.842l-.054.301c.018-.103.038-.202.056-.313l-.002.012zm-1.079 5.983c-.013.063-.023.128-.035.19.012-.064.024-.129.035-.201v.012zm-1.141 5.867zm9.146-49.49l-.04.268c-.011.091-.027.18-.04.271l-.042.275c0 .036-.012.07-.016.107.063-.404.122-.798.176-1.18l-.039.259zm-2.412 13.787l.16-.842c-.053.287-.106.56-.16.842zm-7.184 37.679v.002zm7.004-36.721l.16-.85c-.055.282-.107.565-.16.85zm.472-2.505c-.03.162-.06.323-.092.485-.01.058-.02.117-.033.176l.174-.926-.049.265zm1.316-7.271c-.02.113-.04.229-.058.344-.035.19-.067.38-.101.571l-.06.342-.066.372-.054.303c0 .064-.022.129-.034.202.143-.808.28-1.586.403-2.34l-.03.206zm.058-.339c.019-.101.035-.202.051-.297l-.05.297zm-1.054 5.893l-.043.228.186-1.01-.144.782zm-7.713 40.592l-.083.353.085-.365-.002.012zm9.127-48.631l-.049.293c.045-.266.087-.527.127-.786l-.078.493zm-1.594 9.004l-.049.261c.03-.168.063-.333.093-.499l-.044.238zm1.446-8.113c.016-.09.03-.181.047-.272-.016.09-.03.181-.047.272zm-3.268 17.713zm-1.136 5.934v-.059zm2.025-10.59c-.042.218-.082.438-.125.658l-.018.093a10065.56 10065.56 0 0 0 .161-.85l-.018.099zm.174-.909a4.9 4.9 0 0 0-.032.167c-.027.142-.055.281-.081.423.066-.352.133-.7.202-1.045l-.089.455zm-6.697 35.258zm6.808-35.848l.022-.115c-.008.03-.014.077-.022.115zm2.038-11.22l-.047.285c-.014.094-.034.202-.05.292.038-.226.077-.45.113-.67l-.016.093zm-26.746 101.448v-.02zm-.05.176zm.555-1.695v-.014zm.185-.525v.014-.022zm-.28.798a.455.455 0 0 1 .016-.049l-.016.049zm.51-1.441l-.036.097.038-.107-.002.01zm-.593 1.681l-.03.087.03-.087zm-.248.748l-.018.06zm.135-.417c0-.022.016-.044.022-.066a.606.606 0 0 1-.022.066z" fill="#091426" fill-rule="nonzero" opacity=".3"/><path d="M174.884 194.899s0-.014-.149-1.897c-1.44 1.616-3.462 3.873-5.73 6.418-.029.214-.059.435-.091.659v.046c-.012.09-.024.18-.039.271-.053.38-.112.773-.175 1.18 0 .054-.018.11-.026.165l-.136.861v.036c-.04.259-.082.52-.127.786-.016.105-.034.202-.052.315-.016.091-.03.182-.047.273l-.04.24c-.036.22-.075.445-.113.671v.043c-.016.097-.032.202-.05.297 0 .04-.014.08-.023.12-.129.754-.266 1.536-.403 2.34 0 .059-.02.117-.032.176-.027.143-.053.289-.077.434-.016.085-.032.17-.046.255-.103.578-.212 1.168-.321 1.768-.06.333-.123.67-.186 1.01l-.09.48v.015l-.094.499-.04.214v.012c-.056.307-.115.606-.173.925v.044c-.053.28-.105.56-.16.843l-.02.107c-.052.283-.107.566-.16.85v.023l-.01.05-.022.115c0 .045-.016.09-.026.134a73.46 73.46 0 0 1-.202 1.044c-.014.07-.026.14-.04.202l-.351 1.839-.03.161a503399.916 503399.916 0 0 0-1.465 7.655c0 .032-.014.066-.02.099l-.164.864v.081c-.056.293-.11.586-.167.879v.075l-.358 1.88c0 .057-.022.114-.032.17-.046.25-.095.503-.143.756l-.044.24-.128.669c-.018.103-.038.202-.056.307l-.123.657c-.018.092-.037.183-.053.274l-.17.907c-.058.32-.118.639-.177.958v.04l-.03.16-.131.717-.024.125c-.012.07-.027.14-.039.202-.038.202-.074.404-.11.606-.019.095-.035.188-.053.283v.043l-.117.636c-.018.105-.039.202-.057.313-.042.228-.082.459-.125.69l-.042.227v.023l-.17.93-.012.074-.028.153-.127.707-.057.321a46.15 46.15 0 0 0-.113.623v.014l-.06.335c-.034.202-.07.404-.105.596l-.063.352c-.036.202-.072.418-.11.626 0 .065-.023.13-.035.202l-.02.121-.164.93c-.058.34-.12.686-.185 1.032 0 .036-.014.074-.022.11-.152.809-.32 1.645-.499 2.492 0 .034-.014.07-.022.105-.062.293-.127.586-.202.883-.018.074-.032.147-.05.222l-.242 1.065c-.024.105-.049.202-.075.319l-.085.365a63.778 63.778 0 0 1 3.136 3.008c1.32.792 3.11 2.156 4.988 3.938.129.123.258.246.387.374l.133.13a41.512 41.512 0 0 1 1.972 2.07c1.013-11.77 5.056-55.845 4.94-66.657z" fill="#091426" fill-rule="nonzero" opacity=".3"/><path d="M205.109 223.188l-.303-.608z"/><path d="M141.216 306.665c.302.244.605.468.91.678 2.157 1.495 4.352 2.204 7.09 2.57 2.506.302 5.025.466 7.549.491h.33c.245.328.554.602.907.808 1.321.808 3.632 1.335 6.563 1.71-.337-.936-.9-2.724-.71-5.831.022-.382-.087-.857-.097-1.414 1.945-.681 5.166-1.778 6.538-3.382 4.17-4.87 6.507-12.665 5.46-18.218a15.114 15.114 0 0 0 1.31-4.22c.807-5.691-1.849-11.33-5.279-15.85.23 1.124.394 2.261.492 3.405.844 10.28-5.099 20.677-14.164 25.58-9.066 4.903-20.725 4.287-29.504-1.123-3.517-2.168-6.681-5.455-6.808-9.792-1.298 2.313-1.588 4.765-1.74 7.272.058.003.116.003.174 0h.044l.158-.022.066-.012.146-.034.084-.026c.047-.013.091-.029.137-.045l.103-.042.125-.055.122-.06c.036-.02.074-.039.11-.061.037-.022.101-.06.15-.093l.09-.057c.081-.054.162-.113.243-.177a32.858 32.858 0 0 0 3.632 4.862 32.176 32.176 0 0 0 2.365 2.356 30.81 30.81 0 0 0 8.028 5.204 29.285 29.285 0 0 0 6.556 2.038 2.27 2.27 0 0 0-.038.107l-.073.202c-.018.053-.038.103-.056.154l-.06.172v.022a2.7 2.7 0 0 0-.053.151c-.016.05-.057.154-.083.23-.012.039-.026.077-.04.116v.014l-.059.17-.02.056a.455.455 0 0 0-.016.049c-.03.08-.057.161-.083.238l-.03.087c-.018.056-.039.113-.057.166v.014c0 .022-.014.044-.022.066-.024.071-.046.142-.069.202 0 .017-.01.033-.014.047l-.05.151-.018.061-.053.172v.02l-.038.133v.041l-.034.133-.214.566zm18.244-6.74h-.014l.027-.014-.013.014zm-28.882-26.303l-.289.127.29-.127z" fill="#091426" fill-rule="nonzero" opacity=".3"/><path d="M149.563 279.984c-1.34-2.087-3.553-3.418-5.686-4.677l-9.887-5.84c-5.448-3.219-11.08-6.59-14.706-11.786-3.625-5.196-6.896-13.885-2.94-18.833-2.037 1.213-3.908 1.76-4.792 3.205a.966.966 0 0 1-1.775-.26c-.214-.924-.091-1.817.157-3.072.547-2.74 2.958-6.309 4.651-8.531 6.534-8.578 10.934-10.4 19.684-17.245 2.917-2.282 11.18-6.854 13.59-9.668-12.713 8.08-32.826 20.553-38.962 29.697-8.03 11.963.202 22.555 7.248 29.812 4.223 4.343 9.847 8.125 14.441 10.84l-.317-.19c4.306 2.28 10.614 5.71 12.944 7.124 2.557 1.55 7.4 4.915 6.054 6.329-.234.246-.626.285-1.128.176 2.923 1.024 3.323-4.128 1.424-7.081zm-21.558-5.156l.057-.028zm.465-.226l-.134.065.134-.065zm1.352-.636l-.162.072.162-.072zm.355-.164l-.202.087.202-.087zm-1.364.636l-.063.03.063-.03zm.639-.305l-.11.05.11-.05z" fill="#091426" fill-rule="nonzero" opacity=".3"/><path d="M137.489 236.717c.563.24 1.055.457 1.507.63 7-10.57 9.177-13.333 15.981-21.707 4.592-5.656 11.8-13.737 16.705-19.22 3.202-3.273 3.202-3.743 4.355-6.521-8.976 8.818-18.26 17.66-26.433 27.222-5.943 6.944-13.27 14.412-21.59 18.182 2.532-.404 7.11.404 9.475 1.414z" fill="#091426" fill-rule="nonzero" opacity=".3"/><path d="M172.164 184.733c-3.775 2.459-8.745 7.576-15.278 12.54-2.494 1.893-7.339 4.923-13.065 8.561.22-.036.44-.085.655-.135a37.556 37.556 0 0 0 14.805-7.13c2.825-2.244 5.335-4.896 8.287-6.977 2.952-2.08 6.54-3.584 10.117-3.091 2.192.32 4.402.5 6.616.54 1.594 0 3.096-.809 4.613-1.12.577.606 1.21 1.182 1.705 1.721 2.484 2.667 4.758 5.52 7.088 8.32 4.544 5.454 9.397 10.973 15.929 14.068 3.162 1.5 6.54 2.348 10.002 2.86a612.043 612.043 0 0 1-7.787-5.656c-13.45-9.887-22.46-22.733-27.805-26.315a5.05 5.05 0 0 0-.222.26c-.06-.074-.117-.15-.183-.227-1.633-1.908-.624-3.1.702-3.92a100.735 100.735 0 0 1-14.183 2.534c.759.685-.666 1.935-1.996 3.167z" fill="#091426" fill-rule="nonzero" opacity=".3"/><path d="M106.05 158.168a63.73 63.73 0 0 1-3.679-4.647c-.575.107-1.148.237-1.717.382a65.892 65.892 0 0 0 6.203 7.535 57.935 57.935 0 0 1 1.596-.67 61.5 61.5 0 0 1-2.403-2.6zm129.61-13.489a19.468 19.468 0 0 1-1.614 4.606 19.813 19.813 0 0 0 1.664-4.608l-.05.002zm-37.745 29.691a99.67 99.67 0 0 1-26.055 5.782c-4.137.345-8.112.519-11.814.519-7.777 0-14.686-.772-20.537-2.291-11.177-2.905-20.783-8.024-28.62-15.249a36.74 36.74 0 0 0-1.548.768c7.518 7.05 17.276 12.798 29.762 16.044 6.217 1.617 13.271 2.344 20.943 2.344 3.833 0 7.827-.182 11.947-.525a99.825 99.825 0 0 0 33.697-8.89 40.357 40.357 0 0 1-7.775 1.498zm-99.291-23.511a42.5 42.5 0 0 1 1.738-.287 73.33 73.33 0 0 1-9.33-21.728c-3.18-12.648-4.216-21.858-3.342-29.856.83-7.592 3.416-13.857 7.046-20.925 2.825-5.51 12.682-14.05 23.965-20.772 8.17-4.867 24.307-13.067 40.604-13.301.618 0 1.241-.014 1.852-.014 12.17 0 23.286 1.745 33.04 5.19 7.82 2.76 14.707 6.63 19.913 11.192 4.471 3.917 9.114 8.185 12.46 13.509 3.61 5.743 5.373 12.054 5.553 19.856.201 9.115-.785 17.265-1.76 23.384-.26 4.47-.504 8.38-.359 11.125.018.34.17.658.422.885.512 1.29 1.816 2.705 3.036 4.81l.162-.095c-1.52-2.658-3.196-4.228-3.317-5.802-.202-2.626 3.833-16.767 3.43-34.343-.404-17.576-8.878-26.06-18.564-34.546-9.467-8.293-27.038-16.781-54.016-16.781-.621 0-1.245 0-1.876.014-28.047.404-60.372 24.02-65.981 34.95-7.466 14.545-10.493 25.454-3.834 51.918a75.068 75.068 0 0 0 9.158 21.617zm137.332-9.899a18.604 18.604 0 0 0-1.269-4.966l-.151.079a18.604 18.604 0 0 1 1.32 5.089c.042.368.062.74.06 1.11l.099-.013a9.387 9.387 0 0 0-.059-1.3zm-68.077 118.616l-.134-.132.134.132zm.281-1.041l1.008-7.78 1.033-7.78c.686-5.186 1.35-10.375 1.992-15.567.313-2.598.614-5.197.904-7.798l.43-3.903c.13-1.303.278-2.604.389-3.907l.175-1.956.087-.977.07-.98c.094-1.307.203-2.612.251-3.921.034-.655.069-1.31.093-1.964.024-.655.04-1.311.052-1.966a68.755 68.755 0 0 0-.028-3.933c-.605 5.208-1.223 10.388-1.8 15.584-.29 2.596-.569 5.196-.878 7.792l-.891 7.79c-.584 5.198-1.211 10.39-1.816 15.584l-.927 7.804-.966 7.785-.07.546c.159.15.318.305.477.46l.134.132.139.135.141-1.18zm-10.158 52.673a683.547 683.547 0 0 0 1.54-6.36c.457-1.91.904-3.824 1.341-5.74l-.059.035c-.454.271-.91.532-1.364.782-.379 1.541-.764 3.08-1.156 4.618a367.547 367.547 0 0 1-1.54 5.859h.332c.245.327.553.6.906.806z" fill="#FFF" fill-rule="nonzero" opacity=".04"/><path d="M128.734 235.232a12.88 12.88 0 0 1 5.246.293 20.42 20.42 0 0 1 4.885 1.996c2.238 1.035 4.332 2.336 6.388 3.679s4.052 2.782 6.013 4.26a128.481 128.481 0 0 1 5.759 4.6c1.875 1.59 3.705 3.233 5.422 4.999l-.022-.019c.903.556 1.77 1.17 2.592 1.839a40.962 40.962 0 0 1 6.661 6.784 32.448 32.448 0 0 1 3.404 5.357 21.634 21.634 0 0 1 2.018 6.02 15.052 15.052 0 0 1-.22 6.344c-.55 2.064-1.542 3.98-2.71 5.745a33.709 33.709 0 0 1-4.035 4.9 45.334 45.334 0 0 1-4.77 4.185 47.484 47.484 0 0 1-5.277 3.5 37.55 37.55 0 0 1-5.745 2.688c-.996.364-2.014.664-3.048.897a15.63 15.63 0 0 1-3.154.404 27.66 27.66 0 0 1-6.314-.572 30.19 30.19 0 0 1-11.52-5.127 32.355 32.355 0 0 1-8.545-9.293.044.044 0 0 1 0-.022c-.115-.517-.232-1.032-.335-1.552a11.166 11.166 0 0 1-.224-1.577 6.71 6.71 0 0 1 .103-1.596 12.65 12.65 0 0 1 .404-1.544l.133.043c-.274 1.01-.474 2.056-.365 3.08.058.516.151 1.027.278 1.53.121.509.252 1.01.382 1.533l-.037-.093a31.758 31.758 0 0 0 8.677 8.867 29.558 29.558 0 0 0 11.28 4.735c2 .385 4.039.536 6.075.45 1.965-.064 3.914-.605 5.821-1.308a36.158 36.158 0 0 0 5.527-2.657 46.337 46.337 0 0 0 5.107-3.457 44.298 44.298 0 0 0 4.58-4.082 32.263 32.263 0 0 0 3.854-4.712 18.897 18.897 0 0 0 2.514-5.333c.123-.46.22-.928.289-1.4.067-.478.108-.96.125-1.442.03-.975-.039-1.95-.202-2.911a20.267 20.267 0 0 0-1.879-5.645 32.752 32.752 0 0 0-3.228-5.163 40.245 40.245 0 0 0-4.088-4.594 38.521 38.521 0 0 0-2.296-2.045 25.684 25.684 0 0 0-2.438-1.782l-.03-.018a1.058 1.058 0 0 1-.186-.153c-1.644-1.748-3.43-3.404-5.26-5.012a100.273 100.273 0 0 0-2.785-2.368c-.94-.77-1.887-1.54-2.84-2.307a123.58 123.58 0 0 0-5.874-4.37c-1.996-1.396-4.036-2.75-6.195-3.838l-.028-.014a19.853 19.853 0 0 0-4.722-2.101 14.682 14.682 0 0 0-2.542-.51 11.35 11.35 0 0 0-2.605.019l-.018-.13zm60.208 76.342l.367-2.02c.483-2.701.93-5.41 1.364-8.122l.606-4.072c.202-1.36.375-2.722.555-4.083.349-2.725.653-5.455.938-8.188.284-2.733.506-5.47.71-8.212.204-2.742.327-5.5.404-8.249.076-2.75.064-5.503.02-8.25-.044-2.748-.15-5.495-.295-8.239-.284-5.486-.752-10.96-1.333-16.418-.582-5.458-1.33-10.895-2.151-16.319-.822-5.424-1.744-10.83-2.71-16.228l-.158.028c.86 5.414 1.675 10.834 2.387 16.269a415.665 415.665 0 0 1 1.829 16.331c.496 5.453.885 10.91 1.087 16.386.107 2.733.17 5.469.174 8.202a188.08 188.08 0 0 1-.142 8.196c-.115 2.73-.284 5.454-.53 8.172a294.418 294.418 0 0 1-.872 8.16c-.323 2.716-.656 5.43-1.009 8.143a794.748 794.748 0 0 1-1.098 8.135c-.38 2.711-.768 5.42-1.172 8.127l-.303 2.033-.16 1.01c-.063.329-.122.662-.189.992a5.73 5.73 0 0 0 1.314.034c.059-.259.115-.517.171-.778l.196-1.04z" fill="#FFF" fill-rule="nonzero" opacity=".04"/><path d="M169.975 199.43l-.861-.125-.103.115c-.672 4.968-2.08 12.418-3.72 20.972a1050.867 1050.867 0 0 1-3.75 19.915 863.22 863.22 0 0 0-.928 5.214 112.626 112.626 0 0 1-1.372 6.604c.318.291.631.576.934.859 4.294-20.198 8.014-41.392 9.8-53.554z" fill="#FFF" fill-rule="nonzero" opacity=".04"/><g fill-rule="nonzero"><path d="M235.856 141.162c-.808-6.833-4.48-9.657-5.43-12.045a1.285 1.285 0 0 1-.422-.885c-.404-7.676 2.22-24.444-.202-37.171-2.421-12.728-10.896-14.344-14.528-14.142-4.842.27-18.362 16.566-34.504 16.768-16.142.202-31.88-13.131-47.216-8.08-15.335 5.05-24.818 17.17-22.8 32.524 2.017 15.354 6.254 18.182 6.658 22.627.258 2.844-4.79 7.71-2.623 17.575 2.22 10.101 22.397 22.02 48.225 22.02 8.07 0 14.931-5.858 22.8-6.262 4.682-.24 9.82 1.687 19.868-1.212.288-.083.579-.168.875-.259 9.006-4.319 16.344-9.616 21.43-14.899 2.741-2.848 4.753-5.74 6.065-8.442 1.483-3.053 2.07-5.873 1.804-8.117z" fill="#FFC5AF"/><path d="M179.725 142.723c.113 1.802 3.783 1.616 5.636 1.368 1.852-.249 3.96-1.632 3.89-2.222-.07-.59-1.439-2.524-5.246-2.053-3.808.47-4.28 2.907-4.28 2.907z" stroke="#8E4637" stroke-width=".606" fill="#A34F3E"/></g><path d="M180.137 142.117c-.39.3-.275.857.1 1.17.376.313.92.436 1.445.533 2.407.45 5.06.558 7.232-.404.052-.024.111-.056.111-.103 0-.046-.109-.069-.111-.022-2.296 1.68-5.131 2.402-8.21 2.14-.949-.082-1.98-.312-2.504-.958a1.393 1.393 0 0 1 .036-1.786c.438-.515 1.124-.622 1.9-.57zm47.849 15.61c2.492-2.588 4.379-5.21 5.686-7.697-18.297 19.09-30.178 20.275-47.353 21.839-17.756 1.616-6.457-.808-23.003 1.212-15.369 1.877-34.907-1.818-48.94-17.263.088.845.223 1.685.403 2.515 2.22 10.101 22.397 22.02 48.225 22.02 8.07 0 14.931-5.858 22.8-6.262 4.817-.247 10.112 1.8 20.743-1.465 9.016-4.319 16.352-9.616 21.44-14.899zm1.816-66.667c-2.421-12.727-10.896-14.343-14.528-14.14-4.604.256-17.004 14.949-32.05 16.611-1.025.045-2.049.097-3.071.156-15.927-.138-31.46-13.067-46.599-8.08-15.335 5.05-24.818 17.17-22.8 32.524 2.017 15.354 6.254 18.182 6.658 22.627a2.96 2.96 0 0 1-.032.699c.117-.762 4.974-1.69 5.65-1.839a47.692 47.692 0 0 1 7.734-.978c6.957-.357 13.959.417 20.783 1.77.726.144 1.451.263 2.175.358l.5.202.822.192c.173 0 .349-.015.524-.02-.129-.07-.256-.144-.383-.217 3.604.291 7.12-.123 10.29-1.634 7.166-2.053 14.424-4.998 21.046-4.594 9.887.606 9.887 4.04 15.133 2.828.832-.202 1.679-.624 2.585-1.212 1.816-.644 3.404-1.921 4.891-3.192.461-.394.92-.792 1.378-1.194 4.353-2.717 10.305-5.103 19.496-3.703-.404-7.668 2.22-24.436-.202-37.163z" fill="#000D26" fill-rule="nonzero" opacity=".03"/><path d="M108.836 150.657c-8.474-1.819-22.599 2.828-25.827 8.08-2.018 2.829 0 4.647 2.22 3.03 2.219-1.615 13.25-9.696 22.936-8.484 1.614.202 1.747-2.156.671-2.626zm1.614 9.359c-10.223 3.637-19.774 10.64-21.927 16.297-.94 2.289 1.346 4.31 3.364 2.289 2.018-2.02 9.55-11.313 19.64-15.758 1.48-.537.27-3.097-1.076-2.828z" fill="#282828" fill-rule="nonzero"/><path d="M108.29 152.62c-1.57.093-3.146.012-4.72.07a26.868 26.868 0 0 0-12.95 3.912c-1.572.962-3.065 2.097-4.798 2.715-.739.265-1.592.422-2.284.053a1.357 1.357 0 0 1-.555-.592c-1.972 2.804.036 4.606 2.245 2.99 2.21-1.616 13.251-9.697 22.937-8.485.768.097 1.21-.39 1.327-.976a2.768 2.768 0 0 1-1.202.313zm-16.403 25.982c2.018-2.02 9.55-11.313 19.64-15.758.683-.248.792-.925.58-1.56-.45.607-1.235 1.023-1.957 1.338-2.508 1.09-5.097 2.05-7.357 3.59-3.04 2.07-5.313 5.065-7.9 7.677-1.25 1.267-2.691 2.507-4.45 2.78-.473.072-1.024.042-1.33-.324a1.463 1.463 0 0 1-.31-.688 8.109 8.109 0 0 0-.28.65c-.94 2.295 1.346 4.315 3.364 2.295z" fill="#091426" fill-rule="nonzero" opacity=".3"/><path d="M255.105 145c-3.777-2.921-13.832-3.503-19.11-2.741a12.613 12.613 0 0 1-.299 2.424c6.738-.277 15.509 2.202 17.19 2.95 1.816.801 3.026-.41 2.22-2.633zm-4.035-15.556c-2.347-.541-11.633 1.01-17.466 4.388.4.697.756 1.42 1.063 2.162 5.121-2.578 12.964-3.103 15.999-2.913 3.228.202 3.027-3.03.404-3.637z" fill="#282828" fill-rule="nonzero"/><path d="M255.105 145c-.04-.032-.087-.063-.129-.093a2.856 2.856 0 0 1-.952.774c-1.282.626-2.795.438-4.201.202a73.588 73.588 0 0 1-10.166-2.511 1.331 1.331 0 0 1-.44-.202c-.48-.392-.319-.78-.036-1.172-.133 0-.269 0-.404.018-.187 0-.373.02-.557.03h-.1l-.475.035h-.066a28.26 28.26 0 0 0-.527.048h-.038l-.468.05h-.067l-.482.065a12.613 12.613 0 0 1-.299 2.425c.209-.008.419-.014.63-.018h.664c1.336.015 2.67.1 3.997.258 1.57.18 3.127.436 4.578.725l.605.124c.808.17 1.578.347 2.293.523l.508.13h.028l.475.124h.032l.446.122h.034l.424.12h.018c.282.082.549.16.793.237h.012l.337.107h.032l.295.097.038.012.259.09.036.011.226.083h.028l.202.077h.016l.167.07c1.83.873 3.041-.339 2.234-2.561zm-4.094-11.92h.256l.174-.02h.056l.202-.04.043-.012c.052-.014.104-.028.153-.044l.062-.02a1.19 1.19 0 0 0 .124-.05l.054-.021c.05-.022.097-.047.141-.071l.02-.01c.049-.028.097-.059.142-.091l.038-.03a.795.795 0 0 0 .09-.073l.041-.036a2.17 2.17 0 0 0 .079-.08l.03-.034a1.01 1.01 0 0 0 .09-.117l.015-.022a1.107 1.107 0 0 0 .085-.147c.016-.03.03-.06.042-.091l.018-.047c.012-.036.025-.07.035-.107.01-.036 0-.02 0-.032.011-.046.02-.093.028-.14v-.044a.81.81 0 0 0 0-.101.457.457 0 0 0 0-.053v-.149c0-.016 0-.093-.018-.14v-.028c0-.042-.018-.083-.029-.125-.01-.042 0-.036-.016-.054-.016-.019-.02-.063-.032-.093a.471.471 0 0 0-.022-.057 1.075 1.075 0 0 0-.043-.101c0-.014-.014-.03-.022-.046a5.326 5.326 0 0 0-.074-.138c0-.014-.02-.028-.029-.042l-.064-.097-.04-.053-.07-.085c-.013-.016-.025-.032-.042-.048-.016-.016-.062-.069-.094-.101l-.027-.028c-.43.423-.913.787-1.438 1.082-1.255.71-2.676 1.065-4.092 1.334-2.945.56-5.943.782-8.937.662a2.217 2.217 0 0 1-.755-.125 1.212 1.212 0 0 1-.647-.723c-.218.093-.434.186-.646.28l-.228.106c-.135.06-.273.123-.404.188l-.27.131-.347.172-.285.15-.312.165-.287.161-.17.097c.401.696.756 1.418 1.062 2.16.123-.063.246-.121.371-.18l.131-.062c.115-.053.232-.105.351-.156l.168-.075c.113-.048.228-.095.345-.141l.186-.075c.113-.046.23-.089.345-.133l.201-.073.35-.123.201-.07.353-.116.202-.067.355-.109.216-.062.36-.101.213-.059.388-.107.201-.055.372-.089.201-.048c.126-.03.25-.059.378-.085l.202-.044.385-.081.184-.034.403-.08.147-.025c.148-.027.293-.055.44-.08h.029a45.91 45.91 0 0 1 1.55-.236l.114-.014.372-.046.201-.024.337-.039.218-.024.317-.032.23-.023.297-.028.238-.02.28-.022.24-.017c.09-.008.178-.014.267-.018l.238-.016.25-.014.238-.012h2.629l.309.016h.266l.091-.022z" fill="#091426" fill-rule="nonzero" opacity=".3"/><path d="M174.818 43.182c5.044 1.414 13.317 8.485 16.142 9.09 2.825.607 3.162-.943 3.162-.943 5.448.606 16.007 6.6 18.832 9.227 1.412 1.616 3.026 2.828 3.026-.404 0-3.233 1.211-27.677-5.448-33.334-7.96-6.761-31.477 9.091-35.714 16.364z" fill="#282828" fill-rule="nonzero"/><path d="M193.097 52.02a6.253 6.253 0 0 1-1.261-.046c-2.24-.352-3.786-2.45-4.67-4.542-2.068-4.895-.913-11.606 1.597-16.248-6.413 3.877-12.069 8.778-13.945 11.998 5.044 1.414 13.317 8.485 16.142 9.09.938.203 1.63.045 2.137-.252zm2.262.253a.666.666 0 0 1-.43-1.08c1.72-2.094 4.058-7.654 4.843-9.563.94-2.289 4.035-9.561 5.379-10.638 1.344-1.077 2.692-1.348 3.499-1.212.807.135 1.882 1.48 2.421 3.77.539 2.288 2.151 14.14 2.286 16.565.136 2.424 1.48 7.544.672 7.948-.807.404-3.396-1.966-5.246-2.964-1.747-.943-6.59-2.828-9.282-3.097-1.303-.133-3.034.42-4.142.27z" fill="#091426" fill-rule="nonzero" opacity=".3"/><g fill-rule="nonzero"><path d="M163.452 150.723a5.596 5.596 0 0 1-1.35.77 8.384 8.384 0 0 1-3.027.606 6.23 6.23 0 0 1-1.544-.164c.507-.127 1.01-.214 1.498-.31l1.463-.282c.488-.097.974-.202 1.462-.303.489-.1.983-.218 1.498-.317z" fill="#8D5548"/><path d="M161.702 151.224a25.315 25.315 0 0 0 5.196 3.144 31.706 31.706 0 0 0 5.75 1.992 32.57 32.57 0 0 0 6.016.868c2.025.08 4.052-.043 6.053-.367a27.82 27.82 0 0 0 5.852-1.617 31.388 31.388 0 0 0 5.448-2.743c.435-.267.851-.562 1.279-.842.214-.138.42-.29.623-.443l.606-.456a31.486 31.486 0 0 0 2.362-1.954c.382-.341.745-.7 1.116-1.054l.531-.554.266-.277.253-.287c.165-.202.337-.386.5-.581l.47-.607c.157-.202.293-.404.44-.622.074-.102.141-.209.202-.319l.187-.327.335.151a12.29 12.29 0 0 1-1.7 2.659l-.245.311-.256.297-.51.606c-.362.378-.71.77-1.084 1.137a35.382 35.382 0 0 1-2.335 2.1l-.617.488c-.202.162-.404.326-.626.475-.427.301-.847.618-1.283.907l-1.328.849-1.372.773c-.226.136-.468.24-.702.36l-.708.347c-.466.245-.959.433-1.445.635a27.68 27.68 0 0 1-6.067 1.75 30.078 30.078 0 0 1-6.304.403 31.575 31.575 0 0 1-6.239-.947 30.417 30.417 0 0 1-5.918-2.176 24.517 24.517 0 0 1-5.276-3.459l.53-.62z" fill="#8D5548"/><path d="M161.53 151.416c.505.202.947.455 1.445.628l.715.295c.238.093.48.18.718.27.238.088.474.179.712.262l.723.238c.47.168.956.303 1.434.443a42.15 42.15 0 0 0 5.753 1.25l.714.111.72.07c.24.023.477.055.715.084.238.028.478.034.716.052l.715.045.357.026h.357c.474 0 .948.028 1.422.03.475.002.945-.024 1.413-.032.236 0 .47-.028.704-.045l.704-.054c.47-.016.934-.085 1.399-.142l.698-.084c.234-.02.462-.087.692-.124.46-.082.926-.147 1.384-.244.458-.097.906-.228 1.362-.33.23-.048.457-.109.68-.181l.676-.202c.226-.069.454-.125.676-.202.222-.077.446-.158.67-.235a38.94 38.94 0 0 0 5.282-2.272 48.975 48.975 0 0 0 5.08-3.03c.419-.275.806-.58 1.232-.867l.605-.457.305-.228.297-.236.605-.481.579-.5c.202-.165.373-.345.565-.52.099-.09.178-.184.264-.277l.265-.285.276.123-.18.356c-.062.117-.119.238-.201.347-.142.22-.273.45-.424.663l-.458.636c-.16.202-.327.404-.488.606l-.246.305-.26.293-.52.586c-.363.372-.718.754-1.093 1.115a34.321 34.321 0 0 1-4.881 3.895 31.464 31.464 0 0 1-5.535 2.9 27.943 27.943 0 0 1-6.01 1.72 30.326 30.326 0 0 1-6.244.362 32.325 32.325 0 0 1-6.174-.94 31.15 31.15 0 0 1-5.87-2.123 24.98 24.98 0 0 1-5.246-3.39l.202-.23z" opacity=".03" fill="#000"/><path d="M161.597 151.341a24.53 24.53 0 0 0 5.176 3.275 30.874 30.874 0 0 0 5.785 2.079 31.39 31.39 0 0 0 6.081.897 29.667 29.667 0 0 0 6.132-.384 27.432 27.432 0 0 0 5.91-1.67 31.02 31.02 0 0 0 5.449-2.829 34.21 34.21 0 0 0 4.832-3.808c.373-.352.727-.725 1.09-1.087l.514-.57.259-.284.244-.297c.161-.202.329-.404.486-.594l.452-.606c.151-.202.276-.425.416-.637.068-.104.13-.212.183-.325l.174-.33.458.203-.143.384a2.957 2.957 0 0 1-.16.375c-.12.237-.234.487-.367.72l-.404.694c-.143.225-.294.443-.444.665l-.226.331-.24.32-.48.642c-.335.404-.674.826-1.033 1.212a35.347 35.347 0 0 1-2.26 2.277l-.605.527c-.202.176-.404.354-.62.515-.423.328-.837.673-1.273.988l-1.324.936c-.454.288-.918.571-1.38.852-.228.148-.472.267-.71.404l-.718.386c-.475.27-.979.477-1.475.705a27.62 27.62 0 0 1-6.255 1.988l-.404.083a3.99 3.99 0 0 1-.404.068l-.819.1c-.545.072-1.091.157-1.642.181l-.826.05c-.274.013-.55.043-.825.035h-1.654c-.55-.024-1.1-.065-1.649-.105l-.403-.032-.404-.053-.82-.109c-.272-.04-.546-.065-.806-.12l-.807-.155-.808-.155c-.266-.065-.532-.14-.807-.202a21.375 21.375 0 0 1-6.033-2.592 16.37 16.37 0 0 1-1.35-.948c-.44-.328-.86-.685-1.257-1.066-.202-.202-.403-.37-.589-.576-.186-.206-.371-.404-.549-.62-.089-.105-.18-.202-.264-.315a9.563 9.563 0 0 1-.244-.34c-.156-.232-.317-.452-.458-.69l.298-.393z" opacity=".03" fill="#000"/><path d="M202.326 144.192c.533.05 1.07.042 1.6-.026.527-.05 1.056-.12 1.59-.176.535-.057 1.074-.11 1.614-.13a5.964 5.964 0 0 1 1.647.13l-1.592.345c-.53.105-1.065.202-1.614.257a9.378 9.378 0 0 1-1.653.048 3.346 3.346 0 0 1-1.592-.448z" fill="#8D5548"/></g><path d="M92.896 81.162c-2.018-20.606 11.703-50.101 27.845-53.334 6.255-1.25 21.59 15.354 24.415 22.02 1.211 2.829-4.035 1.01-10.492 2.829-6.457 1.818-17.353 9.697-17.756 11.515-.404 1.818 1.21 9.293-.404 11.313-1.614 2.02-9.484.943-13.99 1.414-4.384.459-6.591 2.02-9.618 4.243z" fill="#282828" fill-rule="nonzero"/><path d="M103.227 56.907c-.96-4.705-.85-9.564-.171-14.325-7.05 11.13-11.353 26.406-10.16 38.58 3.027-2.223 5.234-3.784 9.619-4.243.884-.093 1.9-.125 2.972-.133a34.738 34.738 0 0 0 1.659-2.053c1.101-1.482 2.623-2.596 4.148-3.416-4.274-3.624-6.947-8.913-8.067-14.41zm42.038-6.032c-.653.133-1.438-.19-2.092-.493a20.497 20.497 0 0 0-5.168-1.616 1.94 1.94 0 0 1-.807-.26 1.913 1.913 0 0 1-.482-.607 51.795 51.795 0 0 0-9.905-12.077c-1.863-1.675-4.195-3.307-6.659-2.842-2.088.394-3.614 2.222-4.586 4.11-1.221 2.383-1.853 5.02-2.381 7.645a114.864 114.864 0 0 0-2.234 20.243c-.012.624-.018 1.262.184 1.854.201.592.651 1.136 1.26 1.275 1.637.376 3.302-1.085 4.474-2.16a7.484 7.484 0 0 1 .039-1.755c.403-1.818 11.3-9.697 17.756-11.515 5.436-1.532 10.012-.485 10.601-1.802z" fill="#091426" fill-rule="nonzero" opacity=".3"/><g transform="translate(142.533 100.152)" fill-rule="nonzero"><path d="M10.84 39.889c2.853.109 6.531 1.07 8.287 1.778 4.237-2.786 6.475-12.564 4.481-22.206a19.003 19.003 0 0 0-2.403-6.071C16.545 5.778 7.264 2.667 3.027 8.552c-3.041 4.216-3.33 10.1 0 19.125 1.348 3.656 3.026 6.703 4.963 9.058a32.332 32.332 0 0 0 2.85 3.154z" fill="#D9E9E6"/><path d="M2.922 27.715a46.688 46.688 0 0 1-1.8-5.822 23.445 23.445 0 0 1-.648-6.073c.04-2.061.55-4.086 1.49-5.921.124-.224.243-.453.375-.675l.425-.644c.07-.11.146-.215.228-.315l.238-.307c.17-.202.35-.386.53-.574a7.39 7.39 0 0 1 2.622-1.659 8.403 8.403 0 0 1 3.07-.438c1.03.054 2.049.252 3.026.586 1.942.68 3.73 1.739 5.258 3.117a18.92 18.92 0 0 1 3.854 4.733 19.148 19.148 0 0 1 2.123 5.715l-.218.045a23.896 23.896 0 0 0-2.942-5.16 20.416 20.416 0 0 0-3.985-4.006l-.559-.404c-.19-.13-.383-.252-.575-.378l-.581-.355-.591-.33c-.78-.41-1.599-.742-2.444-.991a9.473 9.473 0 0 0-2.445-.384 6.355 6.355 0 0 0-2.242.343 5.283 5.283 0 0 0-1.844 1.134c-.132.133-.267.262-.404.404l-.184.222-.092.11c-.033.04-.06.088-.093.13l-.367.523-.333.548c-.113.182-.215.37-.305.564a5.268 5.268 0 0 0-.275.581l-.244.606-.201.623c-.071.21-.13.423-.176.64-.052.216-.117.428-.151.653l-.125.668c-.04.224-.057.455-.087.683-.226 1.832-.147 3.776.044 5.741.192 1.966.535 3.962.836 6.007l-.208.06z" fill="#C6D9D5"/><path d="M7.99 36.735a25.834 25.834 0 0 1-3.694-5.434 36.285 36.285 0 0 1-1.384-2.998 33.18 33.18 0 0 1-.592-1.541 59.195 59.195 0 0 1-.544-1.558c-.085-.263-.18-.521-.257-.786l-.234-.796c-.163-.527-.286-1.066-.417-1.604-.132-.537-.228-1.085-.34-1.628-.06-.27-.088-.548-.13-.822a19 19 0 0 1-.116-.829l-.074-.834c0-.137-.024-.277-.032-.416v-.42c0-.281-.017-.56-.015-.84l.035-.843c.063-1.13.253-2.25.569-3.338.335-1.087.81-2.127 1.412-3.092a8.493 8.493 0 0 1 2.327-2.538c.48-.33.997-.6 1.541-.808a7.89 7.89 0 0 1 .826-.273c.139-.036.282-.064.423-.095l.202-.046.214-.03.428-.059.43-.026.213-.012h.644a10.65 10.65 0 0 1 1.687.234c1.099.243 2.16.634 3.154 1.162a16.14 16.14 0 0 1 2.768 1.852 17.626 17.626 0 0 1 4.17 5.075 19.384 19.384 0 0 0-4.477-4.685 15.755 15.755 0 0 0-2.754-1.648 15.3 15.3 0 0 0-1.48-.594 11.948 11.948 0 0 0-1.536-.388 9.674 9.674 0 0 0-1.56-.162h-.591l-.202.016-.386.03-.381.063-.17.037-.187.044c-.123.032-.25.059-.373.093a7.476 7.476 0 0 0-.73.267 6.455 6.455 0 0 0-1.92 1.228c-.093.087-.202.168-.278.26l-.26.283a3.014 3.014 0 0 0-.247.295l-.236.303-.434.657c-.549.893-.98 1.854-1.283 2.858a14.03 14.03 0 0 0-.55 3.11l-.039.796v1.212c0 .133.018.266.026.404l.057.808a35.15 35.15 0 0 0 1.295 6.327 47.68 47.68 0 0 0 2.22 6.117 30.261 30.261 0 0 0 3.262 5.612z" fill="#8D5548"/><path d="M65.854 32.998c1.324-1.566 2.524-3.657 3.507-6.042 3.253-7.891 4.33-19.152-.757-24.633-3.969-4.277-9.58.17-12.072 6.433a39.024 39.024 0 0 0-1.85 5.991c-1.413 6.566-.454 18.334 2.018 20.809 1.598 1.6 3.775 1.099 5.365.361a24.186 24.186 0 0 1 3.79-2.919z" fill="#D9E9E6"/><path d="M69.26 26.913c.273-1.782.573-3.499.739-5.226.165-1.727.319-3.422.349-5.107a36.65 36.65 0 0 0-.202-4.964 23.9 23.9 0 0 0-.391-2.376c-.16-.76-.377-1.506-.648-2.234a11.604 11.604 0 0 0-.944-2.02l-.287-.463-.309-.44-.337-.414c-.113-.122-.201-.243-.318-.352a4.049 4.049 0 0 0-.668-.541 3.356 3.356 0 0 0-.71-.325 3.249 3.249 0 0 0-.808-.108 4.176 4.176 0 0 0-.914.124c-.334.093-.66.211-.976.353-.34.161-.668.343-.985.544-.676.433-1.31.93-1.89 1.484-1.23 1.122-2.293 2.487-3.328 3.952l-.202-.083a17.986 17.986 0 0 1 2.601-4.62 12.464 12.464 0 0 1 1.863-1.915A8.35 8.35 0 0 1 63.197.808c.427-.157.87-.266 1.321-.325.457-.05.918-.035 1.37.042.452.088.889.239 1.298.449.402.217.777.48 1.118.784 1.338 1.226 2.254 2.828 2.877 4.488.303.84.541 1.7.712 2.576.166.874.28 1.756.343 2.643.064.885.084 1.773.059 2.66-.02.885-.08 1.77-.178 2.649a35.943 35.943 0 0 1-.383 2.626 36.56 36.56 0 0 1-.569 2.59 37.455 37.455 0 0 1-1.701 5.018l-.204-.095z" fill="#C6D9D5"/><path d="M69.361 26.956a43.291 43.291 0 0 0 2.181-10.25c.154-1.73.16-3.469.016-5.199a24.027 24.027 0 0 0-.357-2.555 16.702 16.702 0 0 0-.7-2.463 12.734 12.734 0 0 0-1.09-2.289l-.344-.527-.378-.505-.403-.477c-.144-.15-.283-.297-.432-.436a5.23 5.23 0 0 0-.97-.708 4.196 4.196 0 0 0-1.108-.404 4.38 4.38 0 0 0-1.185-.06c-.404.043-.803.13-1.188.26a7.933 7.933 0 0 0-2.188 1.23 12.196 12.196 0 0 0-1.86 1.78 19.33 19.33 0 0 0-2.825 4.405 16.722 16.722 0 0 1 2.436-4.718 12.572 12.572 0 0 1 1.828-1.981 8.322 8.322 0 0 1 2.33-1.457c.442-.17.9-.293 1.368-.364a4.791 4.791 0 0 1 2.825.495 6.196 6.196 0 0 1 1.687 1.301l.454.522.418.55c.13.189.256.38.383.573a13.55 13.55 0 0 1 1.199 2.46c.6 1.707.957 3.49 1.06 5.295.057.894.068 1.79.033 2.685-.012.447-.042.893-.074 1.338a21.32 21.32 0 0 1-.144 1.329A33.823 33.823 0 0 1 71.253 22a31.828 31.828 0 0 1-1.892 4.956z" fill="#8D5548"/><path d="M59.726 38.485a16.487 16.487 0 0 1 2.486-3.03 20.448 20.448 0 0 1 3.067-2.457c.273-.184.56-.345.842-.511.143-.083.284-.168.427-.247l.44-.224.44-.22c.15-.069.303-.131.454-.202.299-.138.605-.259.916-.364a11.97 11.97 0 0 1 3.834-.741c-1.26.268-2.489.664-3.668 1.182-.297.119-.582.266-.868.404-.143.07-.289.137-.432.202l-.418.232-.421.228c-.14.08-.275.164-.404.247-.274.163-.549.327-.807.509-.54.341-1.061.715-1.574 1.099a38.34 38.34 0 0 0-1.505 1.198 34.23 34.23 0 0 0-2.809 2.695z" fill="#894733"/><path d="M58.112 35.758h-.131c-2.589-.168-4.461-5.233-4.086-11.063.37-5.762 2.762-10.45 5.335-10.45h.129c1.186.074 2.312 1.248 3.085 3.218.836 2.123 1.19 4.907 1.01 7.842-.382 5.772-2.775 10.453-5.342 10.453z" fill="#A34F3E"/><path d="M59.224 13.737v1.01h.097c2.017.13 4.003 4.485 3.618 10.526-.18 2.806-.848 5.412-1.879 7.337-.9 1.679-1.975 2.643-2.954 2.643h-.099c-2.018-.13-4.003-4.485-3.616-10.526.18-2.804.848-5.41 1.879-7.337.9-1.679 1.975-2.64 2.954-2.64v-1.013zm0 .002c-2.853 0-5.448 4.823-5.84 10.924-.403 6.218 1.643 11.41 4.559 11.598h.163c2.853 0 5.448-4.823 5.84-10.926.403-6.218-1.643-11.41-4.56-11.598h-.162v.002z" fill="#8E4637"/><path d="M14.064 39.277c-3.398 0-6.752-4.542-7.635-10.336-.949-6.222 1.186-11.729 4.76-12.274.188-.03.38-.045.57-.045 3.397 0 6.75 4.54 7.634 10.336.95 6.222-1.185 11.717-4.76 12.274a3.83 3.83 0 0 1-.57.045z" fill="#A34F3E"/><path d="M11.76 16.117v1.01c1.444 0 2.964.952 4.275 2.681 1.413 1.865 2.434 4.43 2.86 7.226.453 2.97.201 5.859-.71 8.113-.842 2.083-2.13 3.358-3.633 3.586a3.325 3.325 0 0 1-.492.039c-1.445 0-2.964-.952-4.278-2.681-1.412-1.865-2.421-4.43-2.859-7.226-.892-5.847 1.096-11.204 4.338-11.7.164-.024.33-.037.495-.038v-1.01h.004zm-.004 0a4.22 4.22 0 0 0-.646.05c-3.846.6-6.172 6.342-5.18 12.851.939 6.144 4.494 10.764 8.134 10.764.216 0 .432-.017.646-.05 3.856-.59 6.176-6.344 5.183-12.851-.938-6.144-4.495-10.764-8.133-10.764h-.004z" fill="#8E4637"/><path d="M19.875 42.02a12.185 12.185 0 0 0-1.443-.454c-.486-.134-.974-.25-1.462-.368a40.646 40.646 0 0 0-1.471-.327c-.493-.1-.981-.202-1.475-.293a47.651 47.651 0 0 0-1.48-.253c-.494-.074-.99-.135-1.487-.19a13.181 13.181 0 0 0-1.493-.08 6.339 6.339 0 0 0-1.493.147 4.63 4.63 0 0 1 1.471-.444c.51-.071 1.026-.103 1.542-.095.512 0 1.025.042 1.533.093.509.05 1.01.137 1.518.226a23.49 23.49 0 0 1 2.962.763c.486.158.962.34 1.432.54a6.96 6.96 0 0 1 1.346.735z" fill="#894733"/><ellipse fill="#FFF" transform="rotate(-12.32 13.861 18.505)" cx="13.861" cy="18.505" rx="1.681" ry="4.176"/><ellipse fill="#FFF" transform="rotate(-.91 61.062 15.844)" cx="61.062" cy="15.844" rx="1.681" ry="4.176"/></g><g fill-rule="nonzero"><path d="M298.62 190.17c-6.053-4.546-27.15-14.8-39.257-8.74-6.477 3.233-7.759 6.958-9.205 12.463a1.06 1.06 0 0 0-.077.202c-.176.66-.323 1.402-.454 2.192a44.666 44.666 0 0 0-.51 3.679c-.235 1.856-.479 3.757-.852 5.442.226 4.065 4.397 11.937 11.703 14.95 10.29 4.242 18.564-.809 18.564-.809l.38-1.383c4.428 2.365 9.743 3.45 13.655 2.006 0 0 1.528 2.592 6.748 3.418 3.833.606 8.749-8.962 9.483-15.758.807-7.478-4.124-13.117-10.177-17.662z" fill="#282828"/><path d="M308.798 207.828c.807-7.474-4.124-13.113-10.177-17.658-6.054-4.546-27.959-14.8-39.46-9.008-1.978.996-3.453 2.052-4.589 3.204-1.28 1.616-2.48 3.751-3.632 6.666a79.49 79.49 0 0 0-.73 2.627c2.518-5.568 2.797-6.235 6.126-4.013 3.632 2.425 8.273 6.87 15.133 10.91 6.86 4.04 13.116 6.868 16.143 10.707 3.026 3.838 3.833 8.282 7.264 10.303 1.198.707 2.15 1.289 2.978 1.72.452.116.936.217 1.46.3 3.834.606 8.75-8.962 9.484-15.758z" fill="#494949"/><path d="M264.494 179.564c-.581 2.18 3.717 6.343 8.993 8.264 6.659 2.425 16.546 5.657 20.178 4.647 3.632-1.01-5.65-7.071-10.29-9.495a46.93 46.93 0 0 0-3.895-1.804c-5.055-1.467-10.34-2.27-14.986-1.612z" fill="#99C7C9"/></g><g fill-rule="nonzero"><path d="M288.972 213.283c-.156.32-.35.62-.578.893-1.473 1.767-4.096 2.068-6.364 1.693-5.125-.853-9.152-4.334-12.375-8.21-.82-.988-3.567-4.142-4.392-5.643.153 3.117.557 6.754.692 8.37.302 3.636-2.54 7.325-2.813 11.012.783.195 1.577.348 2.377.457.216.028.428.052.642.074l.102.012c.202.02.404.039.606.053h.09c.202.012.404.024.606.03h.03c.202 0 .404.012.606.014h.734c.186 0 .37 0 .55-.02h.067c.188 0 .372-.022.555-.036h.09c.37-.03.732-.068 1.083-.115h.08l.507-.075.066-.012.487-.083h.022c.163-.03.323-.063.482-.097l.075-.016.46-.101h.036l.426-.105.05-.012.42-.115.067-.019c.277-.08.541-.16.793-.242l.058-.018.36-.121.046-.017.333-.12h.016l.32-.122.053-.02.295-.12h.022l.264-.109.035-.016.246-.109.04-.018c.16-.07.303-.14.432-.202l.03-.014.174-.087.024-.014.141-.07h.012l.125-.068h.02l.095-.052.065-.036.04-.025h.012l.382-1.384c4.427 2.366 9.742 3.451 13.654 2.007.134.205.288.395.46.57.016-.065.03-.132.046-.203-1.66-1.955-2.548-4.713-4.08-7.34z" fill="#091426" opacity=".3"/><path d="M308.798 207.828c.022-.202.039-.404.053-.606-.1.275-.202.548-.32.808-.968 2.285-2.596 4.39-4.854 5.414-3.027 1.378-6.659.576-9.558-1.074-2.9-1.65-5.26-4.065-7.84-6.174-6.48-5.303-14.27-8.687-21.59-12.737-3.068-1.7-6.244-3.72-7.667-6.93a8.494 8.494 0 0 1-.696-3.662c-.624.45-1.21.95-1.752 1.497-1.28 1.616-2.48 3.751-3.632 6.666a79.49 79.49 0 0 0-.73 2.627c2.516-5.566 2.795-6.233 6.124-4.01 3.632 2.424 8.273 6.868 15.133 10.909 6.86 4.04 13.116 6.868 16.143 10.707 3.026 3.838 3.496 8.686 6.927 10.707 1.21.707 2.488.885 3.315 1.317.452.115.936.216 1.46.299 3.834.606 8.75-8.962 9.484-15.758z" fill="#091426" opacity=".3"/><path d="M266.383 206.212c.988.956 1.77 1.972 2.588 2.97a32.22 32.22 0 0 0 2.644 2.81l.349.33.36.318c.239.217.487.42.73.629.241.208.492.404.742.606.25.202.506.404.763.588a28.34 28.34 0 0 0 3.24 2.072 27.202 27.202 0 0 0 7.163 2.772c1.252.302 2.526.505 3.81.606.32.03.641.04.964.055.323.014.644 0 .967.014h.242a.905.905 0 0 0 .16-.02 3.17 3.17 0 0 0 .38-.122c.14-.046.287-.097.449-.135a.736.736 0 0 1 .605.08l.032.076a1.503 1.503 0 0 1-.39.31 4.074 4.074 0 0 1-.447.233c-.16.07-.326.124-.496.162a1.653 1.653 0 0 1-.269.032h-.248c-.331 0-.662.018-.993 0-.33-.018-.662 0-.99-.036a25.234 25.234 0 0 1-3.93-.536 27.421 27.421 0 0 1-7.394-2.78 28.776 28.776 0 0 1-6.352-4.694 25.024 25.024 0 0 1-4.75-6.306l.07-.034z" fill="#FFF" opacity=".04"/></g></g></svg>