<?xml version="1.0" encoding="utf-8"?>
<!-- Generator: Adobe Illustrator 21.0.2, SVG Export Plug-In . SVG Version: 6.00 Build 0)  -->
<svg version="1.1" id="Layer_1" xmlns="http://www.w3.org/2000/svg" xmlns:xlink="http://www.w3.org/1999/xlink" x="0px" y="0px"
	 viewBox="0 0 2000 2000" enable-background="new 0 0 2000 2000" xml:space="preserve">
<g>
	<path fill="#9F592A" d="M1177.6,891.1c-4.7,17.7-7,35.7-5.7,53.9c0.7-5,1.5-9.9,2.4-14.8c2.8-14.9,6.7-29.6,11.1-44.2
		c-2.2,0.1-4.3,0.3-6.5,0.4C1178.5,888,1178,889.5,1177.6,891.1z"/>
	<path fill="#9F592A" d="M1144.1,918.9c0.3-2.3,0.6-4.5,0.9-6.8c1.2-8,2.6-16,4.1-24c-1.7,0.1-3.5,0.2-5.2,0.2
		C1143.8,898.5,1143.6,908.8,1144.1,918.9z"/>
	<path fill="#9F592A" d="M1157.3,889.4c0.2-0.6,0.4-1.2,0.6-1.8c-0.6,0-1.2,0.1-1.9,0.1c0,0.5,0,1,0.1,1.5
		C1156.1,889.9,1157,890,1157.3,889.4z"/>
	<path opacity="0.35" fill="#E8FFFA" enable-background="new    " d="M1157.3,889.4c0.2-0.6,0.4-1.2,0.6-1.8c-0.6,0-1.2,0.1-1.9,0.1
		c0,0.5,0,1,0.1,1.5C1156.1,889.9,1157,890,1157.3,889.4z"/>
	<path fill="#9F592A" d="M1197.4,889.1c0.7-1.3,1.4-2.7,2-4.1c-0.9,0.1-1.7,0.1-2.6,0.2c-0.2,1.2-0.4,2.4-0.5,3.6
		C1196.2,889.4,1197.2,889.6,1197.4,889.1z"/>
	<path opacity="0.35" fill="#E8FFFA" enable-background="new    " d="M1197.4,889.1c0.7-1.3,1.4-2.7,2-4.1c-0.9,0.1-1.7,0.1-2.6,0.2
		c-0.2,1.2-0.4,2.4-0.5,3.6C1196.2,889.4,1197.2,889.6,1197.4,889.1z"/>
	<path fill="#9F592A" d="M1057.7,947.9c0.3,0.9,1.6,0.5,1.4-0.4c-3.1-13.9-6.8-27.4-7.9-41.6c-0.4-5.4-0.6-10.8-0.5-16.1
		c-0.6,0-1.2,0-1.7,0C1047.5,909.4,1050.6,929.5,1057.7,947.9z"/>
	<path opacity="0.35" fill="#E8FFFA" enable-background="new    " d="M1057.7,947.9c0.3,0.9,1.6,0.5,1.4-0.4
		c-3.1-13.9-6.8-27.4-7.9-41.6c-0.4-5.4-0.6-10.8-0.5-16.1c-0.6,0-1.2,0-1.7,0C1047.5,909.4,1050.6,929.5,1057.7,947.9z"/>
	<path fill="#9F592A" d="M1060.6,907.9c-0.5-5.9-0.6-12-0.8-18.1c-0.8,0-1.5,0-2.2,0c0.2,6,0.3,12,0.8,18.1
		C1058.4,909.4,1060.8,909.4,1060.6,907.9z"/>
	<path opacity="0.35" fill="#E8FFFA" enable-background="new    " d="M1060.6,907.9c-0.5-5.9-0.6-12-0.8-18.1c-0.8,0-1.5,0-2.2,0
		c0.2,6,0.3,12,0.8,18.1C1058.4,909.4,1060.8,909.4,1060.6,907.9z"/>
	<path fill="#9F592A" d="M1065.9,903.2c-0.3-4.3-0.7-8.8-1.2-13.3c-0.6,0-1.3,0-1.9,0c0.5,4.4,0.7,8.9,0.8,13.4
		C1063.6,904.7,1066,904.7,1065.9,903.2z"/>
	<path opacity="0.35" fill="#E8FFFA" enable-background="new    " d="M1065.9,903.2c-0.3-4.3-0.7-8.8-1.2-13.3c-0.6,0-1.3,0-1.9,0
		c0.5,4.4,0.7,8.9,0.8,13.4C1063.6,904.7,1066,904.7,1065.9,903.2z"/>
	<path fill="#9F592A" d="M1023.3,914c0.1,1.6,2.6,1.6,2.5,0c-0.7-8.2-1.3-16.5-0.3-24.6c-0.6,0-1.1,0-1.7,0
		C1022.9,897.6,1022.8,905.9,1023.3,914z"/>
	<path opacity="0.35" fill="#E8FFFA" enable-background="new    " d="M1023.3,914c0.1,1.6,2.6,1.6,2.5,0c-0.7-8.2-1.3-16.5-0.3-24.6
		c-0.6,0-1.1,0-1.7,0C1022.9,897.6,1022.8,905.9,1023.3,914z"/>
	<path fill="#9F592A" d="M1029.9,906.2c0.1-5.6,0.1-11.2,0.4-16.7c-0.7,0-1.4,0-2.1,0c-0.6,5.6-0.9,11.2-0.8,16.8
		C1027.4,907.8,1029.9,907.8,1029.9,906.2z"/>
	<path opacity="0.35" fill="#E8FFFA" enable-background="new    " d="M1029.9,906.2c0.1-5.6,0.1-11.2,0.4-16.7c-0.7,0-1.4,0-2.1,0
		c-0.6,5.6-0.9,11.2-0.8,16.8C1027.4,907.8,1029.9,907.8,1029.9,906.2z"/>
	<path fill="#9F592A" d="M930.5,961.1c0.1,1.4,2.3,1.4,2.2,0c-1.2-25.8,4.4-50.9,12.4-75.2c-1.1-0.1-2.2-0.1-3.3-0.2
		C933.8,910.1,928.4,935.5,930.5,961.1z"/>
	<path opacity="0.35" fill="#E8FFFA" enable-background="new    " d="M930.5,961.1c0.1,1.4,2.3,1.4,2.2,0
		c-1.2-25.8,4.4-50.9,12.4-75.2c-1.1-0.1-2.2-0.1-3.3-0.2C933.8,910.1,928.4,935.5,930.5,961.1z"/>
	<path fill="#9F592A" d="M788.8,906.6c0.2,1.2,2.2,0.9,2.1-0.3c-1-12-1.9-23.9-1.6-35.8c-1-0.1-2-0.3-3-0.4
		C785.7,882.4,786.3,894.8,788.8,906.6z"/>
	<path opacity="0.35" fill="#E8FFFA" enable-background="new    " d="M788.8,906.6c0.2,1.2,2.2,0.9,2.1-0.3c-1-12-1.9-23.9-1.6-35.8
		c-1-0.1-2-0.3-3-0.4C785.7,882.4,786.3,894.8,788.8,906.6z"/>
	<path fill="#9F592A" d="M764.6,898.9c0.4,1.4,2.3,0.8,2.1-0.6c-1.5-10.5-2.6-20.9-2.6-31.3c-0.9-0.1-1.8-0.3-2.7-0.4
		C760.8,877.5,761.4,888.5,764.6,898.9z"/>
	<path opacity="0.35" fill="#E8FFFA" enable-background="new    " d="M764.6,898.9c0.4,1.4,2.3,0.8,2.1-0.6
		c-1.5-10.5-2.6-20.9-2.6-31.3c-0.9-0.1-1.8-0.3-2.7-0.4C760.8,877.5,761.4,888.5,764.6,898.9z"/>
	<path fill="#9F592A" d="M733.6,876.9c-1-4.9-1.5-9.9-1.7-14.9c-1-0.2-2-0.3-3.1-0.5c0.2,5.4,0.9,10.8,2,16.2
		C731.2,879.6,734,878.8,733.6,876.9z"/>
	<path opacity="0.35" fill="#E8FFFA" enable-background="new    " d="M733.6,876.9c-1-4.9-1.5-9.9-1.7-14.9c-1-0.2-2-0.3-3.1-0.5
		c0.2,5.4,0.9,10.8,2,16.2C731.2,879.6,734,878.8,733.6,876.9z"/>
	<path fill="#9F592A" d="M1086.5,958.7c0.2,1.4,2.4,1,2.4-0.3c0.8-18.9-3.1-36.9-6.9-55.3c-1-4.5-2-8.9-3.2-13.3c-1.3,0-2.5,0-3.8,0
		c1.5,4.7,2.8,9.3,4,14.1C1083.4,921.8,1083.7,940.5,1086.5,958.7z"/>
	<path opacity="0.3" fill="#091426" enable-background="new    " d="M1086.5,958.7c0.2,1.4,2.4,1,2.4-0.3
		c0.8-18.9-3.1-36.9-6.9-55.3c-1-4.5-2-8.9-3.2-13.3c-1.3,0-2.5,0-3.8,0c1.5,4.7,2.8,9.3,4,14.1
		C1083.4,921.8,1083.7,940.5,1086.5,958.7z"/>
	<path fill="#9F592A" d="M1001.1,918c0.2,1.4,2.3,1.5,2.3,0c-0.2-9.9-0.2-19.6,1.2-29.2c-0.9,0-1.8-0.1-2.8-0.1
		C1000.4,898.4,999.9,908.4,1001.1,918z"/>
	<path opacity="0.3" fill="#091426" enable-background="new    " d="M1001.1,918c0.2,1.4,2.3,1.5,2.3,0c-0.2-9.9-0.2-19.6,1.2-29.2
		c-0.9,0-1.8-0.1-2.8-0.1C1000.4,898.4,999.9,908.4,1001.1,918z"/>
	<path fill="#9F592A" d="M1201.3,921.1c0.7-12.8,5.3-25,9.7-37c-1,0.1-2.1,0.2-3.1,0.3c-4.1,12.1-7.4,24.1-8.6,36.8
		C1199.2,922.4,1201.2,922.4,1201.3,921.1z"/>
	<path opacity="0.3" fill="#091426" enable-background="new    " d="M1201.3,921.1c0.7-12.8,5.3-25,9.7-37c-1,0.1-2.1,0.2-3.1,0.3
		c-4.1,12.1-7.4,24.1-8.6,36.8C1199.2,922.4,1201.2,922.4,1201.3,921.1z"/>
	<path fill="#9F592A" d="M1240.8,907.2c0.1,7.7,0.2,15.7,4.2,22.5c0.4,0.7,1.4,0.2,1.2-0.5c-2-8.9-4.2-17.3-3.4-26.6
		c0.7-7.3,1.8-14.6,3.1-21.9c-1.2,0.1-2.4,0.3-3.6,0.4c-0.1,0.7-0.2,1.4-0.3,2.2C1240.8,891.3,1240.7,899.2,1240.8,907.2z"/>
	<path opacity="0.3" fill="#091426" enable-background="new    " d="M1240.8,907.2c0.1,7.7,0.2,15.7,4.2,22.5
		c0.4,0.7,1.4,0.2,1.2-0.5c-2-8.9-4.2-17.3-3.4-26.6c0.7-7.3,1.8-14.6,3.1-21.9c-1.2,0.1-2.4,0.3-3.6,0.4c-0.1,0.7-0.2,1.4-0.3,2.2
		C1240.8,891.3,1240.7,899.2,1240.8,907.2z"/>
	<path fill="#9F592A" d="M873.7,905.4c0-7.9-1.6-15.9-2.1-23.8c0-0.5,0-1-0.1-1.6c-0.9-0.1-1.8-0.2-2.7-0.3
		c0.7,8.6,1.6,17.6,3.5,25.8C872.5,906.4,873.7,906.2,873.7,905.4z"/>
	<path opacity="0.3" fill="#091426" enable-background="new    " d="M873.7,905.4c0-7.9-1.6-15.9-2.1-23.8c0-0.5,0-1-0.1-1.6
		c-0.9-0.1-1.8-0.2-2.7-0.3c0.7,8.6,1.6,17.6,3.5,25.8C872.5,906.4,873.7,906.2,873.7,905.4z"/>
	<path fill="#9F592A" d="M926.1,889.8c0.1,0.5,0.8,0.3,0.8-0.1c0-1.7,0.1-3.3,0.2-5c-0.5,0-1.1-0.1-1.6-0.1
		C925.6,886.3,925.8,888.1,926.1,889.8z"/>
	<path opacity="0.3" fill="#091426" enable-background="new    " d="M926.1,889.8c0.1,0.5,0.8,0.3,0.8-0.1c0-1.7,0.1-3.3,0.2-5
		c-0.5,0-1.1-0.1-1.6-0.1C925.6,886.3,925.8,888.1,926.1,889.8z"/>
	<g>
		<path fill="#9F592A" d="M953.5,1339.2c-2.4-2.3-4.7-4.4-6.8-6.2C949,1335.1,951.2,1337.2,953.5,1339.2z"/>
		<path fill="#9F592A" d="M1157.3,889.4c-0.3,0.6-1.2,0.5-1.2-0.2c0-0.5,0-1-0.1-1.5c-0.8,0-1.6,0.1-2.5,0.1
			c-0.8,4.4-1.6,8.8-2.4,13.1c-3.4,19.6-5.2,39.4-0.2,58.9c0,0.2,0,0.5-0.1,0.7c1.1,3.6,2.3,7.1,3.7,10.5c-0.2-1.8-0.4-3.6-0.6-5.4
			c-0.9-9.9-0.9-19.9-0.8-29.8c0.1-8.8,0.1-17.6,1.3-26.3c1.1-7.6,3.3-15,6-22.1c-0.9,0-1.8,0.1-2.6,0.1
			C1157.7,888.2,1157.5,888.8,1157.3,889.4z"/>
		<path fill="#9F592A" d="M1242.8,902.6c-0.8,9.3,1.4,17.7,3.4,26.6c0.2,0.7-0.8,1.2-1.2,0.5c-4-6.8-4.1-14.8-4.2-22.5
			c-0.1-8,0-15.9,1.2-23.9c0.1-0.7,0.2-1.5,0.3-2.2c-10.5,1.1-20.9,2.1-31.3,3c-4.4,12-9,24.3-9.7,37c-0.1,1.3-2.1,1.3-2,0
			c1.3-12.7,4.5-24.7,8.6-36.8c-2.8,0.2-5.7,0.5-8.5,0.7c-0.6,1.4-1.3,2.8-2,4.1c-0.2,0.5-1.2,0.3-1.1-0.3c0.1-1.2,0.3-2.4,0.5-3.6
			c-2.3,0.2-4.7,0.4-7,0.5c-3.8,12.9-7.3,25.9-10,39.1c-2,9.8-3.4,19.6-4.2,29.5c-0.3,4.2-0.4,8.5-0.4,12.8
			c2.8,12.7,6.6,25.1,10,37.7c0.1-4.3,0.5-8.4,1-12.1c1.2-8.7,2.2-17.3,3.5-26c0.7-5,1.2-9.8,1.8-14.8c0.4-3.3,1-6.7,2.3-9.7
			c0.2-0.5,0.9-0.2,1,0.2c0,0,0.1,0.2,0,0.3c0.3,3.7-0.2,7.7-1,11.4c-0.9,4.3-1.3,8.5-1.7,12.9c-0.7,7.8-1.5,15.7-1.8,23.6
			c-0.3,7.7-0.2,15.4,1,23c0.9,5.2,2.7,10.4,3.9,15.6c12.5,28.7,26,57.9,31.6,88.8c2.9,16.1,3.5,32.5,0.4,48.6
			c-1.6,8.3-3.7,16.4-6.3,24.4c-2.5,7.7-4.6,16.5-9,23.2c-0.2,0.2-0.3,0.4-0.5,0.5c-0.6,3.1-1.4,6.2-2.2,9.2
			c-4.9,17.4-13.4,33.1-11.9,51.6c0,0.1,0,0.3,0,0.4c0.1,0.3,0.1,0.7,0.2,1c0.4,2,0.9,4,1.6,6c-1.1-11.5,1.4-23.9,4.5-34
			c2.1-6.9,4.8-13.6,7.6-20.2c2.7-7.3,6.4-14.4,9.1-21.7c3.3-8.9,6.1-18,8.3-27.3c8.1-33.6,9-67.9,0.9-101.7
			c-4.2-17.7-10.3-34.8-16-52c-2.9-8.7-5.6-17.4-7.7-26.3c-1.8-7.7-3.5-15.9-2.3-23.8c0-0.6,1-0.5,1.1,0c2.6,10.3,3.7,20.8,6.7,31.1
			c2.9,10,6.7,19.7,10.1,29.6c11.6,34,18.8,68.4,16.8,104.4c-0.9,16.7-3,33-7.6,49.2c-2.3,8-5,15.9-8.2,23.7
			c-0.8,1.8-1.5,3.7-2.3,5.5c-3.3,8.2-6.8,16.3-9.7,24.7c-4.2,12.1-7,24.8-5.6,36.9c0-0.2,0.1-0.3,0.1-0.4c2-8.5,4.4-17,7.2-25.3
			c2.6-7.9,5.7-15.7,9.2-23.2c1.8-3.8,3.9-7.4,6-11.1c1.7-3.1,3.3-7.2,6.5-8.9c0.2-0.1,0.5,0.1,0.5,0.3c0.2,3.2-1.9,5.9-3.3,8.7
			c-1.7,3.2-3,6.6-4.5,9.9c-3.4,7.5-6.6,15.1-9.3,22.9c-2.6,7.4-5,14.9-6.5,22.6c-0.1,0.8-0.3,1.7-0.4,2.5
			c9.8-12.4,18.1-26.1,24.7-40.6c12.9-28.1,22.1-60.6,20.8-91.6c-0.7-17-2.9-34-5.3-50.8c-1.2-8.5-2.6-17-4.2-25.5
			c-0.9-5.2-2.6-10.6-3.2-16c-1.1-3.9-2.1-7.8-3.3-11.6c-3.6-11.5-7.3-22.9-10.8-34.5c-3.6-11.7-6.8-23.5-9.1-35.6
			c-1.1-5.5-1.9-11-2.5-16.5c-0.5-4.7-1.3-10.2,0.6-14.6c0.1-0.4,0.7-0.3,0.9,0c2.2,4.3,2,9.9,2.6,14.6c0.8,6.3,1.9,12.6,3.2,18.8
			c2.4,11.4,5.7,22.6,9.3,33.7c3.7,11.2,7.7,22.3,11.5,33.4c3.7,10.8,8,21.5,7.7,33c1.6,9.1,2.9,18.2,4.1,27.4
			c2.2,17.7,4.7,35.8,4.3,53.7c-0.4,16.3-3.9,32.6-8.3,48.3c-5.8,20.7-14.1,40.7-25.3,59c-2.1,5.9-5.9,11.1-8.6,16.8
			c-1.1,2.5-2.2,5.1-3.1,7.7c-1.3,4.1-2.4,8.4-3.4,12.6c-0.1,0.4-0.2,0.7-0.4,0.9c1.7,1.2,3.5,2.2,5.5,3c4.3,1.7,7.5,0.8,11-1.4
			c1.2-1.4,1.9-3,2.4-5c1.1-5,0-10-1-14.9c0-0.1,0.2-0.3,0.3-0.1c1.5,2.9,2.9,11,2.2,17.5c0.2-0.3,0.4-0.6,0.6-0.9
			c9.4-14.5,16.3-30.6,22.5-46.7c6.1-16.1,12-32.3,16.8-48.8c1.4-4.8,2.7-9.7,3.9-14.5c0.4-2.5,0.8-5,1.3-7.5c1.6-9,3.2-18,4.1-27.1
			c1.7-18,2.4-35.9,1.2-54c-1.3-18.3-4.1-36.6-8.6-54.5c-2.2-8.5-4.7-16.8-7.4-25.1c-0.7-2.2-1.5-4.4-2.3-6.5
			c-1.4-3.6-2.7-7.2-3.8-10.8c-1.2-3-2.3-6-3.2-9c-0.1-0.4,0.2-0.6,0.5-0.7c-2.7-10.6-4.6-21.5-6-32.2c-3.6-27.2-3-55.4,1.9-82.6
			c-2.8,0.3-5.7,0.6-8.5,0.9C1244.6,888,1243.5,895.3,1242.8,902.6z M1269.5,1164.2c-0.9,13.2-1.8,27-4.7,40c-0.2,1-2,0.8-1.9-0.3
			c1.3-13.6,3.5-27,4.3-40.7c0.7-13,0.9-26,0.4-39c-0.5-13.3-1.5-26.7-3.2-39.9c-0.9-7.1-1.9-14.3-2.9-21.4c-1.2-6.6-3-13-4.1-19.6
			c-0.1-0.4,0.5-0.6,0.6-0.2c4.2,13,6.5,27.5,8.4,41c1.8,13.1,3.1,26.1,3.6,39.2C1270.5,1136.9,1270.3,1150.6,1269.5,1164.2z
			 M1254.4,1000.1c7.1,19.6,12.3,39.9,16.6,60.2c4.1,19.2,9,40.4,6.8,60.1c0,0.4-0.7,0.6-0.8,0.1c-1.7-9.7-2.1-19.6-3.1-29.3
			c-1.1-10.5-2.7-21-4.8-31.4c-4-20.2-10-39.8-15.3-59.5C1253.7,999.9,1254.3,999.8,1254.4,1000.1z"/>
		<path fill="#9F592A" d="M1137.3,961.5c3.7,21,7.6,43.1,17.4,62.3c0.4,0.7-0.1,1.3-0.6,1.4c0.6,0,1.2-0.7,0.8-1.4
			c-9.8-19.2-13.7-41.3-17.4-62.3c-4-22.6-6.5-45.5-7.7-68.4c-0.1-1.4-0.1-2.8-0.2-4.3c-0.1,0-0.1,0-0.2,0c0.1,1.4,0.1,2.9,0.2,4.3
			C1130.8,916,1133.3,938.9,1137.3,961.5z"/>
		<path fill="#9F592A" d="M700.3,927.5c-0.2,1.9-0.4,3.8-0.6,5.7c0.6,6.9,1.6,13.7,3.1,20.5c1.7,8,4.1,15.9,7,23.6
			c-2.1-18.6-2.5-37.5-2.9-56.2c-0.4-20.5-0.5-42.4,6.1-62.2c-3.1-0.5-6.1-1-9.1-1.6c-1.1,8.1-1.8,16.3-2,24.5
			C701.5,897.2,702.1,912.2,700.3,927.5z"/>
		<path fill="#9F592A" d="M711.6,922.1c0,3.8,0.1,7.6,0.2,11.4c0.1-8.8,0.6-17.7,1.5-26.4c1.5-14.7,4.1-30.2,10.8-43.5
			c0.5-1.1,2.2-0.3,1.9,0.8c-3.5,15.5-6.8,30.5-8,46.4c-1.1,14.5-1,29.2-0.3,43.8c0.8,15.1,2.4,30.2,5.9,44.9
			c1.1,4.8,2.5,9.6,4,14.3c0.6,1.1,1.2,2.3,1.7,3.5c2.9,6.5,5.4,13.3,8.9,19.5c1.2,2.1,2.6,4.2,4,6.2c-3.7-8.1-6.9-16.4-9.2-25.2
			c-4.5-17-6.8-34.7-8.7-52.2c-1-8.9-1.7-17.9-1-26.8c0.5-6.8,1.1-16.1,5.9-21.3c0.5-0.6,1.4-0.1,1.4,0.6c0.2,4.1-1.4,8.4-2,12.5
			c-0.7,4.5-1,9-1.1,13.5c-0.2,8.3,0.6,16.7,1.7,25c2.3,17.4,5.3,34.7,10.7,51.4c5.2,16,13.8,29.9,22.8,44
			c4.4,6.9,8.7,13.8,12.3,21.1c2.4,4.3,4.6,8.7,6.4,13.2c4,7.6,7.7,15.4,11.4,23c7.3,14.9,14,30.1,19.4,45.8
			c2.7,5.9,5.3,11.9,7.5,18.1c2.9,8.2,5.6,16.6,8.8,24.7c0.3,0.7,0.7,1.5,1,2.3c1.2,1,2.5,1.9,3.6,2.8c1.5,1.2,3,2.6,4.6,3.7
			c0.3,0.2,0.5,0.3,0.8,0.5c1.5-3.6,3.1-6.9,3.5-11.1c0.1-0.8,0.1-1.6,0.2-2.4c-0.1-1.2-0.1-2.5-0.2-3.7c-0.2-2.6-0.4-5.2-0.6-7.7
			c-0.2-0.2-0.4-0.5-0.5-0.9c-0.8-4-0.9-8.1-1.9-12.1c-1.1-4.5-2.8-8.7-4.6-12.9c-3.2-7.2-6.4-14.4-9.9-21.4
			c-7-14.1-17.1-26.4-23.6-40.7c-6.1-13.4-9.9-27.6-11.9-42.1c-0.9-7-1.3-14-1.4-21.1c-0.1-4.7-0.6-10.3-0.2-15.4c0-1.4,0-2.9,0-4.4
			c-0.1-13.1-1.5-26.2-4.6-38.9c-3-12.2-7.9-23.7-12.6-35.3c-2.3-5.6-4.6-11.3-6.8-16.9c-2.3-5.8-3.6-11.4-5.2-17.4
			c-0.2-0.7,0.8-1,1.1-0.3c2.2,5.9,5.1,11.8,7.5,17.7c2.6,6.4,5.5,12.5,8.3,18.8c4.8,10.8,9.1,21.8,12.1,33.2
			c3.3,12.2,4.9,24.6,5.1,37.2c0.2,6.8-0.1,13.7-0.1,20.5c0,5.1,1,10.4,0.7,15.4c0.4,3,0.8,6.1,1.3,9.1c2.4,15.1,6.8,30,14,43.6
			c3.7,7.1,8.4,13.6,12.7,20.4c4.2,6.7,7.9,13.6,11.3,20.7c3.1,6.4,6.2,12.9,8.8,19.6c0.1-2.9,0.2-5.8,0.3-8.7
			c-3.3-13.8-8.4-27-12-40.7c-3.6-13.9-5.3-28.2-6.2-42.5c-0.9-14.7-1-29.5-2-44.2c-1-15.3-4.1-29.9-6.5-44.9c0-0.4,0.5-0.7,0.7-0.3
			c6.1,12.6,7.4,27.7,8.5,41.5c1.1,14.7,1.4,29.5,2.3,44.2c0.9,15.6,2.9,30.9,7.2,46c2.1,7.3,4.5,14.5,7.1,21.7
			c0.4,1.4,1,2.8,1.5,4.2c0.7-14.1,1.6-28.3,3-42.3c0.2-4.7,0.4-9.3,0.6-14c0.2-3.9,0.5-7.9,0.7-11.9c-0.1-14.7-1.4-29.4-4.7-43.8
			c-3.9-17.1-10.9-33.2-16.8-49.6c-5.9-16.4-10.1-33.3-11.8-50.6c-0.9-8.7-1.2-17.5-0.9-26.2c0.3-8,0.6-16.8,3.4-24.4
			c0.2-0.6,1.1-0.5,1.2,0.2c0.7,8.6-0.6,17.5-0.6,26.1c0,8.7,0.5,17.4,1.6,26.1c2.3,17.8,7,35,13.3,51.8
			c5.4,14.5,11.2,28.7,14.9,43.7c7.5,17.6,6.1,38,5.5,56.6c-0.4,11.5-0.8,22.9-1.6,34.4c-0.4,5.9-1.1,11.8-1.7,17.7
			c-0.4,3.8-0.5,7.8-1,11.7c-0.6,13.8-1,27.7,0.2,41.4c1,11.4,3.6,22.7,9,32.6c0-0.5-0.1-1-0.2-1.5c-1.9-13.1-1.1-26.2,0.1-39.4
			c1.3-13.5,3.3-27,5.8-40.3c1.3-6.9,2.9-13.8,4.6-20.7c0.1-0.4,0.2-0.8,0.3-1.2c0.2-1.3,0.4-2.5,0.6-3.8c1.1-6.8,2.5-13.6,4-20.3
			c1.1-6.2,2.1-12.4,2.9-18.6c0.1-1.3,0.3-2.6,0.4-3.9c-0.5-8.5-0.2-17.1-1.5-25.6c-1.8-11.8-4.6-23.5-8-35
			c-11.6-39.5-29.6-77.5-32.1-119.2c-0.4-7.1-0.3-14.3,0.3-21.5c-1.5-0.2-3-0.3-4.5-0.5c-0.5,3-0.9,6-1.3,9.1
			c-2.1,18.5,2.1,35.4,7.1,53c4.5,16.1,9.8,32,18.1,46.7c1.4,2.4-2.3,4.6-3.7,2.2c-9-16-15-33.4-20.1-51.1
			c-2.5-8.7-5.2-17.5-6.4-26.5c-1.2-9.2-0.9-18.4,0.4-27.5c0.3-2.2,0.7-4.3,1.1-6.5c-7.6-0.9-15-1.8-22.2-2.7
			c0,7.4,0.4,14.8,0.8,22.2c0.3,6.2,0.9,12.4,1.5,18.6c0.6,5.9,1.5,11.8,0.9,17.7c-0.1,0.9-1.4,1.2-1.6,0.2
			c-1.6-6.4-1.8-13.2-2.5-19.8c-0.8-6.9-1.8-13.7-2.5-20.6c-0.6-6.3-1-12.6-1-18.9c-2.8-0.4-5.5-0.7-8.2-1.1
			c-0.4,11.9,0.6,23.7,1.6,35.8c0.1,1.2-1.9,1.5-2.1,0.3c-2.5-11.8-3.1-24.2-2.4-36.5c-3.4-0.5-6.8-0.9-10.2-1.4
			c0,17.9,2.7,35.5,9.5,52.3c0.8,2-2.2,3-3.3,1.4c-5.7-8.7-7.3-20.4-8.6-30.4c-1-7.9-1.6-15.9-1.6-23.8c-2.7-0.4-5.4-0.8-8.1-1.2
			c0,10.4,1.1,20.8,2.6,31.3c0.2,1.4-1.7,2-2.1,0.6c-3.2-10.4-3.8-21.4-3.1-32.3c-1.3-0.2-2.6-0.4-3.9-0.6c0.3,1,0.6,2,0.9,3
			c0.2,0.8-1,1.4-1.4,0.6c-0.6-1.3-1.2-2.6-1.8-3.9c-3.9-0.6-7.7-1.2-11.5-1.8c0.4,4.9,0.9,9.9,1.6,14.8
			c3.9,27.9,10.9,56.1,24.4,80.9c0.7,1.2-1.2,2.3-1.8,1.1c-13.8-25.9-22.2-53.9-26-83c-0.6-4.7-1.1-9.5-1.4-14.3
			c-2.9-0.5-5.8-0.9-8.7-1.4c0.2,5,0.8,9.9,1.7,14.9c0.4,1.9-2.4,2.7-2.8,0.8c-1.1-5.4-1.8-10.8-2-16.2c-4.1-0.7-8.1-1.3-12-2
			C712,880.2,711.2,900.8,711.6,922.1z M815.8,1064.2c0-0.4,0.6-0.4,0.6,0c1,14.3,2.4,28.6,5.4,42.7c1.4,6.9,3.2,13.7,5.3,20.5
			c1.6,5.2,4,10.3,5.5,15.5c1.7,4.4,3.4,9,4.2,13.6c0.2,0.8-1.1,1.5-1.5,0.6c-1.6-3.6-2.8-7.4-4-11.2c-3.1-5.3-4.8-12-6.6-17.8
			c-2.1-7-4-14.2-5.4-21.4C816.6,1092.7,815.1,1078.4,815.8,1064.2z M808.5,1082.6c2.8,8.5,4.7,17.5,7.4,26.1
			c0.4,1.2-1.5,1.7-1.9,0.5c-2.7-8.4-5.5-17.6-6.4-26.5C807.6,1082.2,808.4,1082.2,808.5,1082.6z M770.5,1053.3
			c3.7,12.5,6.3,25.3,11.3,37.4c4.8,11.5,11.2,21.8,18.3,32.1c4,5.8,8,11.8,11.8,17.9c-5.2-9.8-10.7-19.6-15.8-29.6
			c-15-29.5-23.2-65.8-18-98.9c0-0.3,0.6-0.3,0.6,0.1c-0.6,18.1-0.3,35.9,3.5,53.7c3.8,17.6,10.4,34,19.2,49.7
			c8.9,15.8,17.5,31,24.3,47.9c6.8,16.9,12.5,23.9,14.6,43.7c0.2,1.8-0.8,10.9-1,9.2c-1.3-9.2-3-19-6.3-27.7
			c-0.7,0.4-1.8,0.2-2.2-0.8c-6.8-24.8-20.6-45.7-35-66.7c-14-20.4-21.8-43.4-26.6-67.6C769.1,1052.8,770.3,1052.5,770.5,1053.3z"/>
		<path fill="#9F592A" d="M1267.4,918.1c-0.5,19.7,2.3,39,6.9,57.9c-0.6-9.5-0.2-19.1,0.5-28c2-24.6,8-48.5,13.9-72.5
			c-4.8,0.7-9.5,1.3-14.3,1.9c-1.5,4.3-2.8,8.7-3.8,13.1C1268.5,899.6,1267.6,908.8,1267.4,918.1z"/>
		<path fill="#9F592A" d="M1215.1,1171.7c-0.5-36.7-10.4-72-21.4-106.7c-2.6-8.3-5.4-16.6-8.9-24.6c-3.7-8.4-7.3-17.1-13.4-24
			c-0.1-0.1-0.2-0.1-0.3-0.1c0.1,0,0.1,0.1,0.1,0.1c6.2,6.9,9.7,15.6,13.4,24c3.5,8,6.3,16.3,8.9,24.6c11,34.7,20.9,70,21.4,106.7
			c0.1,7.7-0.1,15.6-0.8,23.4c0.1-0.2,0.2-0.4,0.2-0.6C1215,1186.9,1215.2,1179.2,1215.1,1171.7z"/>
		<path fill="#9F592A" d="M1166.5,1111.6c-9.7-38.8-25.9-75.6-38-113.7c-3.4-10.8-6.8-21.6-9.9-32.4c-2.1-7.3-4.1-14.6-6.6-21.8
			c-1.8-8.9-3.3-17.9-4.2-27c-0.9-9.1-1.3-18.2-1.2-27.2c-0.1,0-0.2,0-0.3,0c0,9,0.3,18.1,1.3,27.2c0.9,9.1,2.4,18.1,4.2,27
			c2.5,7.2,4.5,14.5,6.6,21.8c3.1,10.8,6.5,21.6,9.9,32.4c12.1,38.1,28.3,74.9,38,113.7c4.8,19.2,8.3,38.6,10.4,58.2
			c0.5,4.2,0.9,8.4,1.2,12.6c0-0.6,0-1.1,0-1.7c-0.3-3.6-0.6-7.3-1-10.9C1174.7,1150.2,1171.3,1130.7,1166.5,1111.6z"/>
		<path fill="#9F592A" d="M1181.2,1200.1c0.7-15.6,0.7-31.1,0-46.6c-0.7-14.7-2.5-29.2-5-43.7c-1.3-7.5-2.7-15.1-4.2-22.6
			c-1.3-6.5-2-14.7-5.4-20.5c-0.1-0.2-0.3-0.3-0.5-0.2c0.1,0,0.2,0.1,0.3,0.2c3.4,5.8,4.1,14,5.4,20.5c1.5,7.5,2.9,15,4.2,22.6
			c2.5,14.5,4.3,29,5,43.7c0.7,15.6,0.6,31.1,0,46.6c-0.3,7.9-0.7,15.9-1.2,23.8c-0.3,4.6-0.4,9.3-0.8,14c0.1-1,0.3-2,0.4-3
			c0.2-3.7,0.3-7.4,0.6-11C1180.5,1216,1180.9,1208,1181.2,1200.1z"/>
		<path fill="#9F592A" d="M1082,903.1c3.8,18.4,7.7,36.4,6.9,55.3c0,1.3-2.2,1.7-2.4,0.3c-2.8-18.2-3.1-36.9-7.5-54.8
			c-1.2-4.7-2.5-9.4-4-14.1c-1.3,0-2.5,0-3.8,0c1.9,9.8,4,19.5,5.7,29.4c1.7,9.5,3,19,3.9,28.6c0.9,9.5,2.4,20.1,0.7,29.6
			c-0.2,1.1-2.1,1.1-2.3,0c-1.3-9.4-0.8-19.2-1.7-28.7c-1-10.3-2.6-20.5-4.2-30.7c-1.5-9.4-3-18.8-4.7-28.2c-1.3,0-2.7,0-4,0
			c0.5,4.5,0.9,9,1.2,13.3c0.1,1.5-2.3,1.5-2.3,0c-0.1-4.5-0.4-8.9-0.8-13.4c-1,0-2,0-3,0c0.2,6.1,0.3,12.2,0.8,18.1
			c0.2,1.5-2.2,1.5-2.3,0c-0.5-6.1-0.6-12.1-0.8-18.1c-2.3,0-4.6,0-6.8-0.1c-0.1,5.4,0.1,10.8,0.5,16.1c1.1,14.2,4.8,27.7,7.9,41.6
			c0.2,0.9-1.1,1.3-1.4,0.4c-7.1-18.4-10.2-38.5-8.7-58.2c-0.4,0-0.8,0-1.2,0c-0.2,7.7-0.4,15.4-0.2,23.2c0.2,9,1.1,17.8,2.4,26.7
			c0.7,4.4,1.4,8.7,2.3,13c0.7,3.8,2,7.6,2.1,11.5c0.1,1.3-1.8,1.8-2.4,0.7c-3.9-7.4-4.8-17.7-5.9-26c-1.2-8.5-1.8-17.2-2-25.8
			c-0.2-7.8,0.1-15.5,0.6-23.3c-2.3,0-4.7-0.1-7-0.1c0.2,19.2,1.9,38.2,6.2,57.1c3.3,14.3,7.1,28.6,10.8,42.8
			c3.5,13.7,8.8,27.5,10.5,41.5c0.3,2.3-3,2.3-3.7,0.5c-5.5-13.8-7.7-29.4-11.4-43.8c-3.7-14.2-7.7-28.4-10.7-42.8
			c-3.8-18.3-4.9-36.8-4.4-55.4c-1.5,0-3-0.1-4.6-0.1c-0.3,5.6-0.3,11.2-0.4,16.7c0,1.6-2.5,1.6-2.5,0c-0.1-5.6,0.2-11.2,0.8-16.8
			c-0.9,0-1.8,0-2.7-0.1c-1.1,8.1-0.4,16.5,0.3,24.6c0.1,1.6-2.4,1.6-2.5,0c-0.5-8.1-0.4-16.4,0.6-24.7c-4.2-0.1-8.4-0.2-12.5-0.3
			c0,6.4,0.3,12.9,0.6,19.1c1.5,31.6,8,62.7,12.9,93.9c2.4,14.8,4.4,29.7,5.5,44.6c1.1,15,1.7,30.5-0.9,45.3
			c-0.2,1.1-1.9,0.8-1.9-0.3c-0.2-18.2-0.1-36.1-2.1-54.2c-3.4-31.3-10.4-62.2-14-93.5c-1.8-15.9-3.3-31.8-3-47.8
			c0-2.4,0.1-4.8,0.2-7.2c-1.3,0-2.7-0.1-4-0.1c-1.4,9.7-1.4,19.4-1.2,29.2c0,1.5-2.1,1.4-2.3,0c-1.2-9.6-0.7-19.6,0.7-29.3
			c-5.8-0.2-11.6-0.4-17.3-0.7c-1.1,13.2,0.3,26.5,2.1,39.9c2.8,21,6.2,42,9.8,62.9c1.1,4,2.1,8,3.2,12c2.6,9.9,4.4,20.1,6.1,30.1
			c6,36.6,4.5,73.2-4.8,109.1c-4.8,18.4-10.1,36.7-13.1,55.5c-0.7,4.4-1.3,8.7-1.7,13.1c0,4.3-0.5,8.8-0.6,12.7
			c-0.3,7.4-0.6,14.7-0.9,22c-0.6,14,0.3,27.3,4.6,40.7c6.9,21.9,20.9,40.6,38.5,55c-8.5-15.1-15-31.9-19.3-48.6
			c-4.2-16.4-6.6-33.5-7.1-50.5s0.2-35.2,5.6-51.4c0.4-0.9,2-0.8,1.9,0.3c-1.7,19.5-4.3,38.5-3,58.2c2.3,34,12.9,71.4,34,98.7
			c10.4,13.5,23.8,24.6,35.3,37.1c3.4,3.7,6.7,7.5,9.8,11.5c-1.3-2.6-2.7-5.3-4.1-7.9c-0.4-0.8-0.8-1.5-1.2-2.2
			c-12.7-17.8-23.8-38.2-32-58.5c-30.8-76.6-13.9-162.3,10.6-238.1c0.3-1.2,2.1-0.7,1.8,0.5c-6.4,22.1-12.2,44.4-16.7,67
			c-7.8,39.1-9.5,79.8-2.7,119.3c3.3,19,8.7,37.6,16.6,55.2c6.9,15.2,15.9,28.9,24.2,43.2c2.3,3.4,4.5,6.8,6.5,10.4
			c4.9,8.7,9.6,17.7,13.8,26.9c-2.9-17.2-6.3-34.4-10.5-51.3c-4.8-19.2-11.2-38-12.7-57.9c-1.4-18.7,0.7-37.9,4.9-56.2
			c4.5-19.4,9.8-38.5,13.3-58.1c3.7-20.3,5.4-40.7,5.4-61.3c0-0.6,0.9-0.6,0.9,0c1.3,21.7-0.5,43.3-4.5,64.7
			c-3.6,19.3-7.8,38.4-10.6,57.8s-5.2,39-3,58.6c2.3,20.1,9.4,39.5,14,59.2c3.6,15.5,6.5,31.1,9.1,46.7c0.5-3.9,1.2-7.7,1.9-11.6
			c2.7-14.2,5.3-28.7,9.1-42.6c0.4-1.3,2.1-0.9,2.2,0.3c0.7,10.5-1,21.2-2.7,31.7c1.7-3.6,3.5-7.2,5.5-10.7c2.3-4,4.4-8.6,6.9-12.6
			c2.5-6,4.7-12,7-18c2.7-7.1,4.8-16.1,9.8-22c0.3-0.3,0.9,0,0.9,0.4c-0.1,7.6-4.3,15.7-6.8,22.7c-2.8,7.8-5.6,15.5-8,23.3
			c-0.9,2.9-1.8,5.9-2.8,8.8c4.9-7.3,9.8-14.6,13.8-22.5c7.7-15.2,11.9-32.1,14.3-49c2.5-17.8,3.3-35.8,4.2-53.8
			c0.3-6,0.6-11.9,0.9-17.9c-0.3-10.7-1.1-21.4-2.2-32.1c-1.3-12.9-3-25.7-5.2-38.5c-2.5-12.3-5.6-24.6-8.9-36.7
			c-9.5-34.3-21.3-68-29.9-102.5c-4.3-17.7-7.8-35.8-10.7-53.8c-1.2-7.3-2.3-14.6-3.3-22c-0.5,4.6-1.3,9.1-2.4,13.5
			c0.3,4.2,0.6,8.5,0.9,12.7c1.2,17.3,3.7,34.2,7.5,51.1c1.8,8.1,3.8,16.2,6.2,24.2s6,15.6,8.3,23.6c0.2,0.8-1.1,1.4-1.5,0.6
			c-4-8-6.2-17.1-8.7-25.6c-2.6-8.9-5-17.8-6.9-26.9c-6.9-31.8-10.8-63.8-12.1-96.2c-0.6-14.2-0.8-28.5-2.2-42.5
			c-4.8,0.1-9.5,0.1-14.2,0.1C1080,894.2,1081,898.6,1082,903.1z M1059.5,1202.5c1.4-14.9,3.6-29.7,6.4-44.4
			c2.7-14.7,5.5-30.2,10.8-44.2c0.4-0.8,1.6-0.5,1.4,0.4c-2.9,14.2-7.2,28.2-9.8,42.5c-2.8,14.8-4.5,29.8-5.7,44.8
			c-1.1,14.2-1.7,28.5-1,42.7c0.3,7.4,1.1,14.9,2.5,22.3c1.3,7,3.6,13.6,5.2,20.4c0.4,1.5-1.9,2.6-2.6,1.1
			c-5.8-12.4-7.4-27.6-8.3-41.1C1057.5,1232.2,1058.2,1217.3,1059.5,1202.5z M1068.1,1307.1c-10.7-24.6-14.6-52.4-16.2-79
			c-1.7-27.1-1.2-55.8,4.7-82.5c0.1-0.7,1.3-0.5,1.2,0.2c-2,26.9-5,53.4-3.4,80.5c1.6,27.5,8,53.6,15.3,80.1
			C1069.9,1307.4,1068.5,1308,1068.1,1307.1z M1088.9,1371.9c1,3.4,2.1,6.9,3.1,10.3c-1.9-8.9-5.1-17.7-6.5-26.7
			c0-0.3,0.4-0.5,0.6-0.2c4.6,8.5,6.6,19.4,8.7,28.8c1.8,8,4.6,15.6,5.4,23.8c0.2,1.1-9.5-22.2-13.5-35.4s-8.9-26.2-12.5-39.5
			c-0.2-0.8,0.9-1,1.2-0.3C1080.7,1345.4,1084.9,1358.8,1088.9,1371.9z M1083.2,1154.9c-0.8,5.7-1.5,11.4-2,17.1
			c-0.9,10.7-1.1,21.3-1.7,32c-0.1,1.1-1.7,1.1-1.7,0c-0.4-11,0.5-22.1,1.7-32.9c0.5-4.9,1.1-9.8,1.8-14.7
			c0.7-5.3,1.1-11.2,3.1-16.2c0.1-0.4,0.7-0.3,0.7,0.1C1085.2,1145.2,1083.9,1150.1,1083.2,1154.9z M1098.6,1279.8
			c-0.1,1.3-2,1.3-2,0c-0.2-36,7.2-71.7,10.8-107.3c0-0.3,0.4-0.4,0.5-0.1c1.7,7.6-0.4,15.9-1.5,23.4c-1.3,9.5-2.6,19.1-3.7,28.7
			C1100.8,1242.9,1100.3,1261.4,1098.6,1279.8z M1101.5,1310.2c-0.2,2.1-1,5.1-0.3,7.1c0.2,0.7-0.8,1.3-1.3,0.7
			c-1.4-1.7-0.7-4.1-0.4-6.2c0.3-2.8,0.7-5.8,1.7-8.4c0.2-0.3,0.7-0.3,0.7,0.1C1102.1,1305.7,1101.8,1308.1,1101.5,1310.2z
			 M1105.2,1377.5c-1.2-9.7-2-19.5-2.2-29.3c-0.2-8.8-1.1-19.1,1.2-27.6c0.1-0.3,0.6-0.4,0.7,0c1.3,8.9,0,18.6,0.4,27.6
			c0.4,9.8,1.4,19.6,2.7,29.3C1108.2,1379.3,1105.4,1379.3,1105.2,1377.5z M1130.7,1113.3c4.3,5.3,6,13.5,7.7,19.9
			c1.9,7.1,3.4,14.4,5,21.6c3.1,14,5.4,28.3,7.3,42.5c2.1,15.1,3.4,30.3,5,45.4c0.8,7.5,1.6,15,2.1,22.6c0.5,7.3,1,15.3-1.1,22.4
			c-0.4,1.4-2.3,1.1-2.4-0.3c-0.3-7.7,0.2-15.4-0.3-23c-0.5-7.5-1.2-15.1-1.8-22.6c-1.2-14.2-2.7-28.4-4.6-42.6
			c-2-14.9-4.5-29.7-8-44.3c-1.7-6.9-3.8-13.7-6-20.4c-2-6.3-5.6-13.4-5.8-20C1127.7,1113.1,1129.7,1112.1,1130.7,1113.3z
			 M1124.2,1182.1c0.2-10.6-0.5-21.3,0-31.9c0-0.3,0.6-0.4,0.6,0c1.6,10.7,1.4,22,1.3,32.9c-0.1,11-0.8,21.9-1.7,32.8
			c-1.8,21.5-4,44.4-10.5,65.1c-0.4,1.4-2.3,0.8-2.1-0.6c1.7-10.8,4.5-21.5,6.3-32.3c1.9-11,3.4-22.1,4.4-33.2
			C1123.4,1204,1124,1193,1124.2,1182.1z M1104,1101.4c7.3,12.9,9.8,28.7,12,43.2s2.6,29.3,2.1,43.9c-0.5,15.3-2,30.5-4.1,45.6
			c-2.2,15.6-4.2,31.6-8.1,46.9c-0.4,1.4-2.8,1.1-2.6-0.4c2-14.9,5.5-29.6,7.8-44.4c2.3-15.1,4.1-30.5,4.7-45.8
			c1.1-29.6-1.1-61.1-12.3-88.8C1103.3,1101.3,1103.8,1101.1,1104,1101.4z"/>
		<path fill="#9F592A" d="M1186.1,1303.2c-4.7-12.2-4.8-26.1-5.7-38.9c-0.1-2.1-0.3-4.2-0.4-6.3c0.4-3.3,0.8-6.7,1.2-10
			c1.6-12.3,3.5-24.6,5.6-36.8c1.9-11.3,4-22.6,6-34c0.9-5.3,1.7-10.8,1.8-16.2c0.1-5.5-1.1-10.5-2.1-15.8c0-0.3-0.3-0.4-0.5-0.3
			c0.1,0,0.3,0.1,0.3,0.3c1,5.3,2.2,10.3,2.1,15.8c-0.1,5.4-0.9,10.9-1.8,16.2c-1.9,11.3-4,22.6-6,34c-2.1,12.2-4,24.5-5.6,36.8
			c-0.5,3.3-0.8,6.7-1.2,10c0.1,2.1,0.3,4.2,0.4,6.3c0.9,12.9,1,26.7,5.7,38.9c2.3,5.8,5.7,11.3,12.3,11.4
			C1191.6,1314.4,1188.3,1308.9,1186.1,1303.2z"/>
		<path fill="#9F592A" d="M1206,1160.9c-0.5-18.4-3.3-36.7-7.2-54.7c-4.4-20-10.4-40.1-18.8-58.9c-0.1-0.3-0.3-0.4-0.6-0.4
			c0.1,0.1,0.3,0.2,0.4,0.4c8.4,18.7,14.4,38.8,18.8,58.9c3.9,17.9,6.6,36.3,7.2,54.7c0.6,19.2-1.9,38.3-4.5,57.2
			c-0.7,5.5-1.7,11.1-2.6,16.8c0.1-0.3,0.2-0.6,0.3-0.9c0.9-5.4,1.8-10.7,2.5-15.9C1204.1,1199.2,1206.6,1180.1,1206,1160.9z"/>
		<path fill="#9F592A" d="M880.6,970.2c3.9,9.7,7.4,19.6,9.1,29.9c1.7,10.6,2,21.3,1.7,32c-0.6,20.9-3.1,41.6-8.7,61.8
			c-0.2,0.6-0.5,1.1-0.8,1.6c-1.4,6.6-2.8,13.3-4.2,19.9c-3.7,18.3-6.9,36.4-7.4,55.1c-0.3,9.2,0,18.5,1.2,27.6
			c0.5,3.5,1,7,1.7,10.5c3.3,12.4,8.2,24.4,13.8,36.2c5.4,11.3,10.9,22.9,17,34c-3.5-9.6-6.1-19.5-8.3-29.5
			c-2.3-9.8-5.5-21-4.8-31.1c0-0.5,0.6-0.5,0.8-0.1c3.2,9.4,3.9,20,6.2,29.6c2.3,9.5,5,19,8.4,28.1c3.3,9,7.7,17.7,13.5,25.4
			c2.8,3.7,6,7.2,9.6,10.1c0.9,0.7,1.9,1.4,2.8,2c-3.9-6.2-7.3-12.8-10.3-19.5c-13.4-30.2-16.8-64.1-17.9-96.8
			c-1.1-32.3,2.2-67,17.1-96.1c0.2-0.4,1-0.1,0.8,0.3c-6.4,17.3-11.2,35.3-13.2,53.7c-3.4,32.2-1.2,65.6,5.3,97.2
			c5.1,25.1,15.4,48.4,30.3,68.9c0.2,0.1,0.3,0.2,0.5,0.3c-2.1-6.5-3.7-13.1-5.1-19.2c-4.4-19.4-6-39.6-6.7-59.5
			c-0.7-20.7,2.3-40.2,7.5-60.2c5.2-20.3,10.4-40.6,13.9-61.3c1.8-10.9,3.4-21.8,4.6-32.7c0.1-0.9,0.2-1.9,0.3-2.9
			c-0.5-7.1,0.6-14.7,0.5-21.7c-0.2-8.7-0.8-17.4-1.8-26c-3.6-31.7-10.2-62.9-9.7-94.9c0.3-15.8,2.6-31.4,6.2-46.8
			c0.8-3.2,1.6-6.3,2.4-9.5c-4-0.2-7.9-0.5-11.8-0.7c-8.1,24.3-13.6,49.4-12.4,75.2c0.1,1.4-2.1,1.4-2.2,0
			c-2.1-25.6,3.3-51,11.4-75.4c-4.9-0.3-9.9-0.6-14.7-1c-0.1,1.6-0.2,3.3-0.2,5c0,0.4-0.7,0.6-0.8,0.1c-0.3-1.7-0.5-3.5-0.6-5.2
			c-8.4-0.6-16.7-1.2-24.9-1.9c-1.8,12.8-2.1,25.8-1.2,38.6c1.2,19.1,6.6,36.9,12.6,54.8c3,7.5,6.3,14.9,8.9,22.6
			c0.1,0.4-0.4,0.6-0.6,0.3c-6.1-8.3-10.2-18.6-13.4-28.9c-7.3-18.5-10.7-39.4-11.7-58.7c-0.5-9.5-0.3-19.3,0.9-29.1
			c-8.3-0.7-16.5-1.5-24.5-2.2c0,0.5,0,1,0.1,1.6c0.5,7.9,2.1,15.9,2.1,23.8c0,0.8-1.2,1-1.4,0.2c-1.9-8.3-2.8-17.3-3.5-25.8
			c-5.9-0.6-11.8-1.2-17.6-1.8c0.7,11.3,3.2,22.5,6.8,33.5C864.4,931.5,872.8,950.7,880.6,970.2z M923.9,1198.8c0,0.9-1.4,0.9-1.4,0
			c-1-32,4.3-62.4,16.5-92c0.2-0.3,0.6-0.2,0.5,0.2C929,1136,923.5,1167.9,923.9,1198.8z M934.7,1085c2.1-7.9,5.3-15.3,6.7-23.5
			c1.5-8.7,1.7-17.7,1.6-26.5c-0.1-18.1-0.6-36.8-4-54.6c-0.1-0.5,0.6-0.7,0.8-0.2c3.2,8.8,3.8,18.8,5,28s2,18.5,2,27.8
			c0,8.9-1,17.6-2.7,26.3c-1.5,7.7-3.5,16.8-8.1,23.3C935.6,1086.2,934.5,1085.8,934.7,1085z M925.7,1117.7
			c1.9-5.9,3.8-12.6,7.3-17.8c0.2-0.3,0.7-0.1,0.6,0.3c-1.3,6.4-4.3,12.7-6.1,19c-1.8,6.1-3.3,12.3-4.4,18.5
			c-2.5,13.4-3.6,26.9-2.9,40.5c0.1,1-1.5,1-1.6,0c-0.7-13.5-0.3-26.9,2.1-40.2C922,1131.2,923.5,1124.3,925.7,1117.7z
			 M900.4,1099.3c3.5-9.9,6.5-20.9,12-30c0.2-0.3,0.8-0.1,0.7,0.3c-2.6,10.6-7.8,20.8-11.3,31.1c-3.5,10.2-6.8,20.5-9,31
			c-2.4,11.5-2.6,23.2-1.6,34.9c0.2,2.4,0.4,4.9,0.7,7.3c0.1-1.2,0.2-2.5,0.3-3.8c0.6-8.4,1.7-16.8,3.2-25c1.6-8.9,4.3-17.2,7-25.8
			c0.1-0.3,0.7-0.2,0.6,0.2c-4.6,15.8-7.3,33.1-8.1,49.6c-0.8,15.9-0.8,31.5,5,46.5c0.3,0.6-0.7,0.9-1,0.4
			c-3.2-5.3-5.1-11.1-6.1-17.2c0-0.1,0-0.1-0.2-0.1c-2.1-5.1-2.5-11.3-3.2-16.8c-0.7-5.4-1.1-10.8-1.4-16.2
			c-0.5-11.1,0.2-21.8,2.5-32.7C892.9,1121.5,896.5,1110.3,900.4,1099.3z"/>
		<path fill="#9F592A" d="M1103.1,1441c-3.3-5.8-9.4-24.4-33-49.6c-23.4-25.1-58.8-54.3-94.3-81.7c-6.8-13.5-10.5-28.5-11.8-43.5
			c-1.9-22,1.5-44,6.7-65.3c2.7-11.3,6-22.4,9.4-33.4c2.4-7.9,4.8-16.1,8.2-23.8c5.4-17.8,9.6-35.4,10.8-54.2
			c0.7-10.5,0.8-21.1,0.4-31.6c-0.3-7.2-1.3-14.6-1.5-22c-3.5-18.9-7-37.9-10.3-56.9c-3.6-20.7-6.8-41.6-9.5-62.5
			c-1.2-9.7-1.5-19.3-0.8-28.8c-1.3-0.1-2.5-0.1-3.8-0.2c-3.2,27.2-2.1,54.5,4.1,81.6c3.9,17.2,8.6,34.1,11.3,51.5
			c1.3,8.3,2.1,16.7,2.8,25.1c0.7,8.7,2.2,18,1.3,26.7c-0.1,1-1.7,1.5-1.9,0.3c-1.6-8.8-1.2-18.1-2.2-27c-1-9.4-2.6-18.7-4.2-28
			c-3-17.7-8-34.8-11.6-52.3c-5.3-25.3-6.5-52.2-2.2-78c-2.9-0.1-5.8-0.3-8.7-0.5c-1.6,6-3,11.9-4.2,18c-3.2,15.9-4.8,32.1-4.1,48.3
			c0.7,16.3,3,32.5,5.4,48.6c2.2,15,4.4,30.1,5.6,45.3c0.3,3.8,0.5,7.6,0.7,11.4c0,0.1,0.1,0.2,0.1,0.3c0.6,5,0.5,10.2,0.1,15.4
			c-0.1,4.2-0.3,8.6-1.3,12.6c-0.3,2.2-0.5,4.4-0.8,6.5c-1.3,10.7-2.9,21.4-4.8,32c-3.6,19.4-8.4,38.4-13.7,57.4
			c-5.4,19.6-8.2,38.8-7.6,59.1c0.6,19.9,2.2,40,6.6,59.4c3.4,14.9,8.7,33.7,21.2,43.9c-1.6-3.5-3.1-7-4.4-10.5
			c-6-16-9.5-32.9-11-49.9c-3.2-36.1-2.2-73.6,9.3-108.3c0.5-1.4,2.8-0.8,2.3,0.6c-5.4,17.2-7.7,35.1-8.6,53.1
			c-0.9,17.1-0.9,34.6,1.1,51.7c1.9,16.9,5.2,33.7,11.3,49.7c3,7.7,6.6,15.2,10.8,22.2c0.2,0.4,0.5,0.9,0.8,1.3
			c0.7,0.8,1.4,1.6,2.1,2.4c0.5,0.7,1.1,1.3,1.6,1.9c0.9,0.4,1.7,0.8,2.6,1.2c3.5,1.4,7.8,2.2,10.3,5.1c1.2,1.4,0.1,3.3-1.7,3
			c-2.2-0.4-4.3-1.6-6.4-2.9c0.3,0.4,0.5,0.9,0.7,1.4c-9.9-8.2-20.9-17.8-32.1-27.9c-2.4-2.3-4.7-4.4-6.8-6.2
			c-8.4-7.2-14.1-10.3-14.1-10.3s-27.7-25-42.2-36.5c-0.1,0-0.1-0.1-0.2-0.1c-9-6.9-16.9-12.8-22.9-17.3
			c-29.6-22.4-51.3-32.3-51.3-32.3s-9.4-32.8-16.5-56.8c-7-24-17.3-57.5-41.4-89.1c-24.1-31.6-42.7-60.6-51.7-76.9
			c-9.1-16.4-17.5-34.8-15.9-83.9c1.6-47.6,4.8-59.7,4-74c-0.2,0-0.4-0.1-0.6-0.1c0.8,14.4-2.4,26.4-4,74.1
			c-1.6,49.1,6.8,67.5,15.9,83.9c9,16.3,27.6,45.3,51.7,76.9c24.1,31.6,34.4,65.1,41.4,89.1c7.1,24,16.5,56.8,16.5,56.8
			s21.7,9.9,51.3,32.3c6,4.5,13.9,10.4,22.9,17.3c0.1,0,0.1,0.1,0.2,0.1c14.5,11.5,42.2,36.5,42.2,36.5s5.7,3.1,14.1,10.3
			c0,0,0,0,0,0c0,0,0,0,0,0c2.1,1.8,4.4,3.8,6.8,6.2c0,0,0,0,0,0c0,0,0,0,0,0c25.2,22.8,49.2,42.4,62.8,51.7
			c15,10.2-8.5-11.3-23.1-38s-18.3-43.2-18.3-43.2c35.6,27.6,71.3,56.9,94.8,82.1c23.6,25.2,29.7,43.8,33,49.6
			c1.5,2.7,2.7,3,3.7,1.8C1105.5,1443.8,1104.4,1443.3,1103.1,1441z M978.6,1356.7c-11.6-19.2-17.8-42.3-21.1-64.3
			c-1.7-10.9-2.5-21.9-2.9-32.9c-0.2-6.2-0.2-12.3-0.1-18.5c0.1-5.6-1-12.4,0.8-17.6c0.1-0.4,0.7-0.4,0.8,0
			c1.6,5.2,0.4,12.1,0.4,17.6s0,11.1,0.2,16.7c0.4,11.4,1.5,22.8,3.3,34c3.7,22.6,11,43.2,20.7,63.8
			C981.3,1356.9,979.4,1358.1,978.6,1356.7z M975.9,1313.5c4.1,13.5,8.1,26.9,14.5,39.6c5.9,11.8,13.7,21.8,22.6,31.3
			c0.2,0.3-0.1,0.9-0.5,0.6c-21.9-15.9-32.7-45.7-36.9-71.4C975.6,1313.4,975.8,1313.3,975.9,1313.5z M985.8,1359.9
			c0.7,1.6-1.8-0.7-2.6-2.3c-14-28.5-19.5-44.3-22.4-75.9c-1.5-17.3-1.5-34.7-0.2-52c0.6-7.8,1.4-15.6,2.5-23.4
			c0.6-4.5,0.9-9.7,1.8-14.6c-0.1-0.1-0.1-0.2-0.1-0.4c1.2-11.4,5.2-22.9,8.3-33.9c3.2-11.7,7.1-23.2,11-34.7c-0.1,0-0.1,0-0.1-0.1
			c0-0.2,0-0.3,0-0.5c0-0.3,0.5-0.3,0.5,0c0,0.1,0,0.2,0,0.3c0.1,0,0.3,0.1,0.2,0.3c-3.5,11.3-6.4,22.9-9.4,34.3
			c-2.6,9.7-4.1,19.9-6.9,29.6c-0.5,6.1-2.3,12.4-3.1,18.3c-1.2,8.9-2.1,17.8-2.8,26.8c-1.1,16.1-1.1,32.3,0.3,48.3
			C965.5,1311,972.8,1331.6,985.8,1359.9z"/>
		<path fill="#9F592A" d="M1163.5,1338.5c0,0-0.1,0.2-0.3,0.7c7,17.5,40.1,48.6,40.1,48.6s0-0.2,0.2-0.6
			C1200.5,1384.4,1170,1355.2,1163.5,1338.5z"/>
		<path fill="#9F592A" d="M1292.7,1017.2c7.1,27.5,16.4,55.7,17.9,93.2c-1.3-6.2-2.4-12.6-4.1-18.7c-2.7-9.8-5.7-19.5-9-29.1
			c-11.9-35.1-26.9-69.5-32.8-106.3c-2.6-16.2-3.6-32.8-1.2-49.1c1.2-8.1,3-16.3,5.4-24.2c0.5-1.6,1-3.4,1.6-5.1
			c-3.7,0.5-7.4,0.9-11,1.3c-1.9,9.4-3.2,18.9-4,28.5c-1.6,19.5-1.1,39.1,1.7,58.5c2.7,18.8,8.3,36.6,13.9,54.7
			c0.1,0.3,0.1,0.5,0,0.8c2.1,5.9,3.9,11.9,5.6,17.9c7.6,27.8,11.3,56.9,10.7,85.8c-0.2,10-0.8,19.8-1.9,29.7
			c0.7,7.5-1.2,15.4-2.7,22.7c-1.8,8.9-4,17.6-6.4,26.3c-4.9,17.4-10.6,34.6-16.7,51.1c-6.4,16.5-13.8,32.4-22.7,47.7
			c-4.7,8.1-9.6,15.7-15.4,22.7c-1,2.4-2,4.8-2.7,7c-0.5,1.7-1,3.5-1.6,5.3c-0.8,5.2-2,10.4-3.4,15.5c-0.2,1-0.3,2.1-0.4,3.1
			c-0.3,1.7-0.5,3.4-0.8,5c1.6-3.7,3.5-7.7,5.7-12c11.6-22.6,28.2-38.5,40.2-61c12.1-22.4,45.7-78.9,51.3-141.6
			C1315,1089.9,1301.9,1052.9,1292.7,1017.2z M1297.8,1138c-0.1,1.6-2.5,1.6-2.5,0c0-3,0-5.9,0-8.9c-0.6,0.4-1.7,0.1-1.8-0.9
			c-1-14.3-1.5-28.5-3.3-42.7c-1-7.6-2.2-15.2-3.4-22.8c-1-6.4-2.9-12.9-3.2-19.4c0-0.3,0.5-0.5,0.6-0.2c2.7,6.4,3.8,13.9,5.1,20.8
			c1.2,6.4,2.3,13,3.1,19.5c1.3,9.9,2.5,20,3,30c0-2.8,0-5.6,0-8.4c0-10-1.3-20.8,0.1-30.8c0-0.3,0.5-0.3,0.6,0
			c2.1,9.8,1.2,20.8,1.5,31.1C1297.9,1116.2,1298,1127.1,1297.8,1138z"/>
		<path fill="#9F592A" d="M1291.8,1013.8c0.3,1.1,0.6,2.3,0.9,3.4C1292.3,1016,1292,1014.9,1291.8,1013.8z"/>
		<path fill="#9F592A" d="M946.7,1333C946.7,1333,946.7,1333,946.7,1333c2.1,1.8,4.4,3.9,6.8,6.2c0,0,0,0,0,0
			C951.1,1336.8,948.8,1334.8,946.7,1333z"/>
		<path fill="#9F592A" d="M1296.1,1074.2c-0.1-0.3-0.6-0.3-0.6,0c-1.4,10-0.1,20.8-0.1,30.8c0,2.8,0,5.6,0,8.4
			c-0.5-10-1.7-20.1-3-30c-0.8-6.5-1.9-13.1-3.1-19.5c-1.3-6.9-2.4-14.4-5.1-20.8c-0.1-0.3-0.6-0.1-0.6,0.2c0.3,6.5,2.2,13,3.2,19.4
			c1.2,7.6,2.4,15.2,3.4,22.8c1.8,14.2,2.3,28.4,3.3,42.7c0.1,1,1.2,1.3,1.8,0.9c0,3,0,5.9,0,8.9c0,1.6,2.4,1.6,2.5,0
			c0.2-10.9,0.1-21.8-0.2-32.7C1297.3,1095,1298.2,1084,1296.1,1074.2z"/>
		<path opacity="0.35" fill="#E8FFFA" enable-background="new    " d="M1296.1,1074.2c-0.1-0.3-0.6-0.3-0.6,0
			c-1.4,10-0.1,20.8-0.1,30.8c0,2.8,0,5.6,0,8.4c-0.5-10-1.7-20.1-3-30c-0.8-6.5-1.9-13.1-3.1-19.5c-1.3-6.9-2.4-14.4-5.1-20.8
			c-0.1-0.3-0.6-0.1-0.6,0.2c0.3,6.5,2.2,13,3.2,19.4c1.2,7.6,2.4,15.2,3.4,22.8c1.8,14.2,2.3,28.4,3.3,42.7c0.1,1,1.2,1.3,1.8,0.9
			c0,3,0,5.9,0,8.9c0,1.6,2.4,1.6,2.5,0c0.2-10.9,0.1-21.8-0.2-32.7C1297.3,1095,1298.2,1084,1296.1,1074.2z"/>
		<path fill="#9F592A" d="M1269.1,1059.8c2.1,10.4,3.7,20.9,4.8,31.4c1,9.7,1.4,19.6,3.1,29.3c0.1,0.5,0.8,0.3,0.8-0.1
			c2.2-19.7-2.7-40.9-6.8-60.1c-4.3-20.3-9.5-40.6-16.6-60.2c-0.1-0.3-0.7-0.2-0.6,0.2C1259.1,1020,1265.1,1039.6,1269.1,1059.8z"/>
		<path opacity="0.35" fill="#E8FFFA" enable-background="new    " d="M1269.1,1059.8c2.1,10.4,3.7,20.9,4.8,31.4
			c1,9.7,1.4,19.6,3.1,29.3c0.1,0.5,0.8,0.3,0.8-0.1c2.2-19.7-2.7-40.9-6.8-60.1c-4.3-20.3-9.5-40.6-16.6-60.2
			c-0.1-0.3-0.7-0.2-0.6,0.2C1259.1,1020,1265.1,1039.6,1269.1,1059.8z"/>
		<path fill="#9F592A" d="M1266.4,1084.1c-1.9-13.5-4.2-28-8.4-41c-0.1-0.4-0.7-0.2-0.6,0.2c1.1,6.6,2.9,13,4.1,19.6
			c1,7.1,2,14.3,2.9,21.4c1.7,13.2,2.7,26.6,3.2,39.9c0.5,13,0.3,26-0.4,39c-0.8,13.7-3,27.1-4.3,40.7c-0.1,1.1,1.7,1.3,1.9,0.3
			c2.9-13,3.8-26.8,4.7-40c0.8-13.6,1-27.3,0.5-40.9C1269.5,1110.2,1268.2,1097.2,1266.4,1084.1z"/>
		<path opacity="0.35" fill="#E8FFFA" enable-background="new    " d="M1266.4,1084.1c-1.9-13.5-4.2-28-8.4-41
			c-0.1-0.4-0.7-0.2-0.6,0.2c1.1,6.6,2.9,13,4.1,19.6c1,7.1,2,14.3,2.9,21.4c1.7,13.2,2.7,26.6,3.2,39.9c0.5,13,0.3,26-0.4,39
			c-0.8,13.7-3,27.1-4.3,40.7c-0.1,1.1,1.7,1.3,1.9,0.3c2.9-13,3.8-26.8,4.7-40c0.8-13.6,1-27.3,0.5-40.9
			C1269.5,1110.2,1268.2,1097.2,1266.4,1084.1z"/>
		<path fill="#9F592A" d="M1101.2,1303.4c-1,2.6-1.4,5.6-1.7,8.4c-0.3,2.1-1,4.5,0.4,6.2c0.5,0.6,1.5,0,1.3-0.7
			c-0.7-2,0.1-5,0.3-7.1c0.3-2.1,0.6-4.5,0.4-6.7C1101.9,1303.1,1101.4,1303.1,1101.2,1303.4z"/>
		<path opacity="0.35" fill="#E8FFFA" enable-background="new    " d="M1101.2,1303.4c-1,2.6-1.4,5.6-1.7,8.4
			c-0.3,2.1-1,4.5,0.4,6.2c0.5,0.6,1.5,0,1.3-0.7c-0.7-2,0.1-5,0.3-7.1c0.3-2.1,0.6-4.5,0.4-6.7
			C1101.9,1303.1,1101.4,1303.1,1101.2,1303.4z"/>
		<path fill="#9F592A" d="M1105.3,1348.2c-0.4-9,0.9-18.7-0.4-27.6c-0.1-0.4-0.6-0.3-0.7,0c-2.3,8.5-1.4,18.8-1.2,27.6
			c0.2,9.8,1,19.6,2.2,29.3c0.2,1.8,3,1.8,2.8,0C1106.7,1367.8,1105.7,1358,1105.3,1348.2z"/>
		<path opacity="0.35" fill="#E8FFFA" enable-background="new    " d="M1105.3,1348.2c-0.4-9,0.9-18.7-0.4-27.6
			c-0.1-0.4-0.6-0.3-0.7,0c-2.3,8.5-1.4,18.8-1.2,27.6c0.2,9.8,1,19.6,2.2,29.3c0.2,1.8,3,1.8,2.8,0
			C1106.7,1367.8,1105.7,1358,1105.3,1348.2z"/>
		<path fill="#9F592A" d="M1074.2,1333c3.6,13.3,8.5,26.3,12.5,39.5s13.7,36.5,13.5,35.4c-0.8-8.2-3.6-15.8-5.4-23.8
			c-2.1-9.4-4.1-20.3-8.7-28.8c-0.2-0.3-0.6-0.1-0.6,0.2c1.4,9,4.6,17.8,6.5,26.7c-1-3.4-2.1-6.9-3.1-10.3
			c-4-13.1-8.2-26.5-13.5-39.2C1075.1,1332,1074,1332.2,1074.2,1333z"/>
		<path opacity="0.35" fill="#E8FFFA" enable-background="new    " d="M1074.2,1333c3.6,13.3,8.5,26.3,12.5,39.5
			s13.7,36.5,13.5,35.4c-0.8-8.2-3.6-15.8-5.4-23.8c-2.1-9.4-4.1-20.3-8.7-28.8c-0.2-0.3-0.6-0.1-0.6,0.2c1.4,9,4.6,17.8,6.5,26.7
			c-1-3.4-2.1-6.9-3.1-10.3c-4-13.1-8.2-26.5-13.5-39.2C1075.1,1332,1074,1332.2,1074.2,1333z"/>
		<path fill="#9F592A" d="M1115.8,1190.4c-0.6,15.3-2.4,30.7-4.7,45.8c-2.3,14.8-5.8,29.5-7.8,44.4c-0.2,1.5,2.2,1.8,2.6,0.4
			c3.9-15.3,5.9-31.3,8.1-46.9c2.1-15.1,3.6-30.3,4.1-45.6c0.5-14.6,0.1-29.4-2.1-43.9s-4.7-30.3-12-43.2c-0.2-0.3-0.7-0.1-0.5,0.2
			C1114.7,1129.3,1116.9,1160.8,1115.8,1190.4z"/>
		<path opacity="0.35" fill="#E8FFFA" enable-background="new    " d="M1115.8,1190.4c-0.6,15.3-2.4,30.7-4.7,45.8
			c-2.3,14.8-5.8,29.5-7.8,44.4c-0.2,1.5,2.2,1.8,2.6,0.4c3.9-15.3,5.9-31.3,8.1-46.9c2.1-15.1,3.6-30.3,4.1-45.6
			c0.5-14.6,0.1-29.4-2.1-43.9s-4.7-30.3-12-43.2c-0.2-0.3-0.7-0.1-0.5,0.2C1114.7,1129.3,1116.9,1160.8,1115.8,1190.4z"/>
		<path fill="#9F592A" d="M1111.8,1280.4c-0.2,1.4,1.7,2,2.1,0.6c6.5-20.7,8.7-43.6,10.5-65.1c0.9-10.9,1.6-21.8,1.7-32.8
			c0.1-10.9,0.3-22.2-1.3-32.9c0-0.4-0.6-0.3-0.6,0c-0.5,10.6,0.2,21.3,0,31.9c-0.2,10.9-0.8,21.9-1.7,32.8
			c-1,11.1-2.5,22.2-4.4,33.2C1116.3,1258.9,1113.5,1269.6,1111.8,1280.4z"/>
		<path opacity="0.35" fill="#E8FFFA" enable-background="new    " d="M1111.8,1280.4c-0.2,1.4,1.7,2,2.1,0.6
			c6.5-20.7,8.7-43.6,10.5-65.1c0.9-10.9,1.6-21.8,1.7-32.8c0.1-10.9,0.3-22.2-1.3-32.9c0-0.4-0.6-0.3-0.6,0
			c-0.5,10.6,0.2,21.3,0,31.9c-0.2,10.9-0.8,21.9-1.7,32.8c-1,11.1-2.5,22.2-4.4,33.2C1116.3,1258.9,1113.5,1269.6,1111.8,1280.4z"
			/>
		<path fill="#9F592A" d="M1106.4,1195.8c1.1-7.5,3.2-15.8,1.5-23.4c-0.1-0.3-0.5-0.2-0.5,0.1c-3.6,35.6-11,71.3-10.8,107.3
			c0,1.3,1.9,1.3,2,0c1.7-18.4,2.2-36.9,4.1-55.3C1103.8,1214.9,1105.1,1205.3,1106.4,1195.8z"/>
		<path opacity="0.35" fill="#E8FFFA" enable-background="new    " d="M1106.4,1195.8c1.1-7.5,3.2-15.8,1.5-23.4
			c-0.1-0.3-0.5-0.2-0.5,0.1c-3.6,35.6-11,71.3-10.8,107.3c0,1.3,1.9,1.3,2,0c1.7-18.4,2.2-36.9,4.1-55.3
			C1103.8,1214.9,1105.1,1205.3,1106.4,1195.8z"/>
		<path fill="#9F592A" d="M1084.4,1140.2c-2,5-2.4,10.9-3.1,16.2c-0.7,4.9-1.3,9.8-1.8,14.7c-1.2,10.8-2.1,21.9-1.7,32.9
			c0,1.1,1.6,1.1,1.7,0c0.6-10.7,0.8-21.3,1.7-32c0.5-5.7,1.2-11.4,2-17.1c0.7-4.8,2-9.7,1.9-14.6
			C1085.1,1139.9,1084.5,1139.8,1084.4,1140.2z"/>
		<path opacity="0.35" fill="#E8FFFA" enable-background="new    " d="M1084.4,1140.2c-2,5-2.4,10.9-3.1,16.2
			c-0.7,4.9-1.3,9.8-1.8,14.7c-1.2,10.8-2.1,21.9-1.7,32.9c0,1.1,1.6,1.1,1.7,0c0.6-10.7,0.8-21.3,1.7-32c0.5-5.7,1.2-11.4,2-17.1
			c0.7-4.8,2-9.7,1.9-14.6C1085.1,1139.9,1084.5,1139.8,1084.4,1140.2z"/>
		<path fill="#9F592A" d="M1066.7,1288.1c0.7,1.5,3,0.4,2.6-1.1c-1.6-6.8-3.9-13.4-5.2-20.4c-1.4-7.4-2.2-14.9-2.5-22.3
			c-0.7-14.2-0.1-28.5,1-42.7c1.2-15,2.9-30,5.7-44.8c2.6-14.3,6.9-28.3,9.8-42.5c0.2-0.9-1-1.2-1.4-0.4c-5.3,14-8.1,29.5-10.8,44.2
			c-2.8,14.7-5,29.5-6.4,44.4c-1.3,14.8-2,29.7-1.1,44.5C1059.3,1260.5,1060.9,1275.7,1066.7,1288.1z"/>
		<path opacity="0.35" fill="#E8FFFA" enable-background="new    " d="M1066.7,1288.1c0.7,1.5,3,0.4,2.6-1.1
			c-1.6-6.8-3.9-13.4-5.2-20.4c-1.4-7.4-2.2-14.9-2.5-22.3c-0.7-14.2-0.1-28.5,1-42.7c1.2-15,2.9-30,5.7-44.8
			c2.6-14.3,6.9-28.3,9.8-42.5c0.2-0.9-1-1.2-1.4-0.4c-5.3,14-8.1,29.5-10.8,44.2c-2.8,14.7-5,29.5-6.4,44.4
			c-1.3,14.8-2,29.7-1.1,44.5C1059.3,1260.5,1060.9,1275.7,1066.7,1288.1z"/>
		<path fill="#9F592A" d="M1054.4,1226.3c-1.6-27.1,1.4-53.6,3.4-80.5c0.1-0.7-1.1-0.9-1.2-0.2c-5.9,26.7-6.4,55.4-4.7,82.5
			c1.6,26.6,5.5,54.4,16.2,79c0.4,0.9,1.8,0.3,1.6-0.7C1062.4,1279.9,1056,1253.8,1054.4,1226.3z"/>
		<path opacity="0.35" fill="#E8FFFA" enable-background="new    " d="M1054.4,1226.3c-1.6-27.1,1.4-53.6,3.4-80.5
			c0.1-0.7-1.1-0.9-1.2-0.2c-5.9,26.7-6.4,55.4-4.7,82.5c1.6,26.6,5.5,54.4,16.2,79c0.4,0.9,1.8,0.3,1.6-0.7
			C1062.4,1279.9,1056,1253.8,1054.4,1226.3z"/>
		<path fill="#9F592A" d="M960,1291.7c-1.8-11.2-2.9-22.6-3.3-34c-0.2-5.6-0.2-11.2-0.2-16.7s1.2-12.4-0.4-17.6
			c-0.1-0.4-0.7-0.4-0.8,0c-1.8,5.2-0.7,12-0.8,17.6c-0.1,6.2-0.1,12.3,0.1,18.5c0.4,11,1.2,22,2.9,32.9c3.3,22,9.5,45.1,21.1,64.3
			c0.8,1.4,2.7,0.2,2.1-1.2C971,1334.9,963.7,1314.3,960,1291.7z"/>
		<path opacity="0.35" fill="#E8FFFA" enable-background="new    " d="M960,1291.7c-1.8-11.2-2.9-22.6-3.3-34
			c-0.2-5.6-0.2-11.2-0.2-16.7s1.2-12.4-0.4-17.6c-0.1-0.4-0.7-0.4-0.8,0c-1.8,5.2-0.7,12-0.8,17.6c-0.1,6.2-0.1,12.3,0.1,18.5
			c0.4,11,1.2,22,2.9,32.9c3.3,22,9.5,45.1,21.1,64.3c0.8,1.4,2.7,0.2,2.1-1.2C971,1334.9,963.7,1314.3,960,1291.7z"/>
		<path fill="#9F592A" d="M1012.5,1385c0.4,0.3,0.7-0.3,0.5-0.6c-8.9-9.5-16.7-19.5-22.6-31.3c-6.4-12.7-10.4-26.1-14.5-39.6
			c-0.1-0.2-0.3-0.1-0.3,0.1C979.8,1339.3,990.6,1369.1,1012.5,1385z"/>
		<path opacity="0.35" fill="#E8FFFA" enable-background="new    " d="M1012.5,1385c0.4,0.3,0.7-0.3,0.5-0.6
			c-8.9-9.5-16.7-19.5-22.6-31.3c-6.4-12.7-10.4-26.1-14.5-39.6c-0.1-0.2-0.3-0.1-0.3,0.1C979.8,1339.3,990.6,1369.1,1012.5,1385z"
			/>
		<path fill="#9F592A" d="M962.5,1231.7c0.7-9,1.6-17.9,2.8-26.8c0.8-5.9,2.6-12.2,3.1-18.3c2.8-9.7,4.3-19.9,6.9-29.6
			c3-11.4,5.9-23,9.4-34.3c0.1-0.2-0.1-0.3-0.2-0.3c0-0.1,0-0.2,0-0.3c0-0.3-0.5-0.3-0.5,0c0,0.2,0,0.3,0,0.5c0,0.1,0,0.1,0.1,0.1
			c-3.9,11.5-7.8,23-11,34.7c-3.1,11-7.1,22.5-8.3,33.9c0,0.2,0,0.3,0.1,0.4c-0.9,4.9-1.2,10.1-1.8,14.6c-1.1,7.8-1.9,15.6-2.5,23.4
			c-1.3,17.3-1.3,34.7,0.2,52c2.9,31.6,8.4,47.4,22.4,75.9c0.8,1.6,3.3,3.9,2.6,2.3c-13-28.3-20.3-48.9-23-79.9
			C961.4,1264,961.4,1247.8,962.5,1231.7z"/>
		<path opacity="0.35" fill="#E8FFFA" enable-background="new    " d="M962.5,1231.7c0.7-9,1.6-17.9,2.8-26.8
			c0.8-5.9,2.6-12.2,3.1-18.3c2.8-9.7,4.3-19.9,6.9-29.6c3-11.4,5.9-23,9.4-34.3c0.1-0.2-0.1-0.3-0.2-0.3c0-0.1,0-0.2,0-0.3
			c0-0.3-0.5-0.3-0.5,0c0,0.2,0,0.3,0,0.5c0,0.1,0,0.1,0.1,0.1c-3.9,11.5-7.8,23-11,34.7c-3.1,11-7.1,22.5-8.3,33.9
			c0,0.2,0,0.3,0.1,0.4c-0.9,4.9-1.2,10.1-1.8,14.6c-1.1,7.8-1.9,15.6-2.5,23.4c-1.3,17.3-1.3,34.7,0.2,52
			c2.9,31.6,8.4,47.4,22.4,75.9c0.8,1.6,3.3,3.9,2.6,2.3c-13-28.3-20.3-48.9-23-79.9C961.4,1264,961.4,1247.8,962.5,1231.7z"/>
		<path fill="#9F592A" d="M939,1106.8c-12.2,29.6-17.5,60-16.5,92c0,0.9,1.4,0.9,1.4,0c-0.4-30.9,5.1-62.8,15.6-91.8
			C939.6,1106.6,939.2,1106.5,939,1106.8z"/>
		<path opacity="0.35" fill="#E8FFFA" enable-background="new    " d="M939,1106.8c-12.2,29.6-17.5,60-16.5,92c0,0.9,1.4,0.9,1.4,0
			c-0.4-30.9,5.1-62.8,15.6-91.8C939.6,1106.6,939.2,1106.5,939,1106.8z"/>
		<path fill="#9F592A" d="M918.6,1178.2c0.1,1,1.7,1,1.6,0c-0.7-13.6,0.4-27.1,2.9-40.5c1.1-6.2,2.6-12.4,4.4-18.5
			c1.8-6.3,4.8-12.6,6.1-19c0.1-0.4-0.4-0.6-0.6-0.3c-3.5,5.2-5.4,11.9-7.3,17.8c-2.2,6.6-3.7,13.5-5,20.3
			C918.3,1151.3,917.9,1164.7,918.6,1178.2z"/>
		<path opacity="0.35" fill="#E8FFFA" enable-background="new    " d="M918.6,1178.2c0.1,1,1.7,1,1.6,0c-0.7-13.6,0.4-27.1,2.9-40.5
			c1.1-6.2,2.6-12.4,4.4-18.5c1.8-6.3,4.8-12.6,6.1-19c0.1-0.4-0.4-0.6-0.6-0.3c-3.5,5.2-5.4,11.9-7.3,17.8
			c-2.2,6.6-3.7,13.5-5,20.3C918.3,1151.3,917.9,1164.7,918.6,1178.2z"/>
		<path fill="#9F592A" d="M888,1165.7c0.3,5.4,0.7,10.8,1.4,16.2c0.7,5.5,1.1,11.7,3.2,16.8c0.2,0,0.2,0,0.2,0.1
			c1,6.1,2.9,11.9,6.1,17.2c0.3,0.5,1.3,0.2,1-0.4c-5.8-15-5.8-30.6-5-46.5c0.8-16.5,3.5-33.8,8.1-49.6c0.1-0.4-0.5-0.5-0.6-0.2
			c-2.7,8.6-5.4,16.9-7,25.8c-1.5,8.2-2.6,16.6-3.2,25c-0.1,1.3-0.2,2.6-0.3,3.8c-0.3-2.4-0.5-4.9-0.7-7.3
			c-1-11.7-0.8-23.4,1.6-34.9c2.2-10.5,5.5-20.8,9-31c3.5-10.3,8.7-20.5,11.3-31.1c0.1-0.4-0.5-0.6-0.7-0.3c-5.5,9.1-8.5,20.1-12,30
			c-3.9,11-7.5,22.2-9.9,33.7C888.2,1143.9,887.5,1154.6,888,1165.7z"/>
		<path opacity="0.35" fill="#E8FFFA" enable-background="new    " d="M888,1165.7c0.3,5.4,0.7,10.8,1.4,16.2
			c0.7,5.5,1.1,11.7,3.2,16.8c0.2,0,0.2,0,0.2,0.1c1,6.1,2.9,11.9,6.1,17.2c0.3,0.5,1.3,0.2,1-0.4c-5.8-15-5.8-30.6-5-46.5
			c0.8-16.5,3.5-33.8,8.1-49.6c0.1-0.4-0.5-0.5-0.6-0.2c-2.7,8.6-5.4,16.9-7,25.8c-1.5,8.2-2.6,16.6-3.2,25
			c-0.1,1.3-0.2,2.6-0.3,3.8c-0.3-2.4-0.5-4.9-0.7-7.3c-1-11.7-0.8-23.4,1.6-34.9c2.2-10.5,5.5-20.8,9-31
			c3.5-10.3,8.7-20.5,11.3-31.1c0.1-0.4-0.5-0.6-0.7-0.3c-5.5,9.1-8.5,20.1-12,30c-3.9,11-7.5,22.2-9.9,33.7
			C888.2,1143.9,887.5,1154.6,888,1165.7z"/>
		<path fill="#9F592A" d="M824.7,1128.1c1.8,5.8,3.5,12.5,6.6,17.8c1.2,3.8,2.4,7.6,4,11.2c0.4,0.9,1.7,0.2,1.5-0.6
			c-0.8-4.6-2.5-9.2-4.2-13.6c-1.5-5.2-3.9-10.3-5.5-15.5c-2.1-6.8-3.9-13.6-5.3-20.5c-3-14.1-4.4-28.4-5.4-42.7
			c0-0.4-0.6-0.4-0.6,0c-0.7,14.2,0.8,28.5,3.5,42.5C820.7,1113.9,822.6,1121.1,824.7,1128.1z"/>
		<path opacity="0.35" fill="#E8FFFA" enable-background="new    " d="M824.7,1128.1c1.8,5.8,3.5,12.5,6.6,17.8
			c1.2,3.8,2.4,7.6,4,11.2c0.4,0.9,1.7,0.2,1.5-0.6c-0.8-4.6-2.5-9.2-4.2-13.6c-1.5-5.2-3.9-10.3-5.5-15.5
			c-2.1-6.8-3.9-13.6-5.3-20.5c-3-14.1-4.4-28.4-5.4-42.7c0-0.4-0.6-0.4-0.6,0c-0.7,14.2,0.8,28.5,3.5,42.5
			C820.7,1113.9,822.6,1121.1,824.7,1128.1z"/>
		<path fill="#9F592A" d="M815.9,1108.7c-2.7-8.6-4.6-17.6-7.4-26.1c-0.1-0.4-0.9-0.4-0.9,0.1c0.9,8.9,3.7,18.1,6.4,26.5
			C814.4,1110.4,816.3,1109.9,815.9,1108.7z"/>
		<path opacity="0.35" fill="#E8FFFA" enable-background="new    " d="M815.9,1108.7c-2.7-8.6-4.6-17.6-7.4-26.1
			c-0.1-0.4-0.9-0.4-0.9,0.1c0.9,8.9,3.7,18.1,6.4,26.5C814.4,1110.4,816.3,1109.9,815.9,1108.7z"/>
		<path fill="#9F592A" d="M830.8,1188c0.4,1,1.5,1.2,2.2,0.8c3.3,8.7,5,18.5,6.3,27.7c0.2,1.7,1.2-7.4,1-9.2
			c-2.1-19.8-7.8-26.8-14.6-43.7c-6.8-16.9-15.4-32.1-24.3-47.9c-8.8-15.7-15.4-32.1-19.2-49.7c-3.8-17.8-4.1-35.6-3.5-53.7
			c0-0.4-0.6-0.4-0.6-0.1c-5.2,33.1,3,69.4,18,98.9c5.1,10,10.6,19.8,15.8,29.6c-3.8-6.1-7.8-12.1-11.8-17.9
			c-7.1-10.3-13.5-20.6-18.3-32.1c-5-12.1-7.6-24.9-11.3-37.4c-0.2-0.8-1.4-0.5-1.3,0.4c4.8,24.2,12.6,47.2,26.6,67.6
			C810.2,1142.3,824,1163.2,830.8,1188z"/>
		<path opacity="0.35" fill="#E8FFFA" enable-background="new    " d="M830.8,1188c0.4,1,1.5,1.2,2.2,0.8c3.3,8.7,5,18.5,6.3,27.7
			c0.2,1.7,1.2-7.4,1-9.2c-2.1-19.8-7.8-26.8-14.6-43.7c-6.8-16.9-15.4-32.1-24.3-47.9c-8.8-15.7-15.4-32.1-19.2-49.7
			c-3.8-17.8-4.1-35.6-3.5-53.7c0-0.4-0.6-0.4-0.6-0.1c-5.2,33.1,3,69.4,18,98.9c5.1,10,10.6,19.8,15.8,29.6
			c-3.8-6.1-7.8-12.1-11.8-17.9c-7.1-10.3-13.5-20.6-18.3-32.1c-5-12.1-7.6-24.9-11.3-37.4c-0.2-0.8-1.4-0.5-1.3,0.4
			c4.8,24.2,12.6,47.2,26.6,67.6C810.2,1142.3,824,1163.2,830.8,1188z"/>
		<path fill="#9F592A" d="M1223.6,1157.3c3.3-34.3-7.8-67.3-21.5-98.2c-6.5-14.8-14.7-28.9-20.4-44.1c-0.8-2-1.6-4.1-2.3-6.2
			c-20.7-5.8-29.2-32.4-33.5-51c-5.3-22.8-5.5-46.1-5.4-69.4c-3.6,0.1-7.3,0.3-10.9,0.4c0.1,1.4,0.1,2.9,0.2,4.3
			c1.2,22.9,3.7,45.8,7.7,68.4c3.7,21,7.6,43.1,17.4,62.3c0.4,0.7-0.2,1.4-0.8,1.4c-0.4,0.1-0.8,0-1.1-0.4
			c-6.3-8.7-9.5-18.3-12.1-28.7c-2.8-11.1-5-22.3-7-33.6c-3.6-20-6.3-40.2-8.1-60.5c-0.4-4.3-0.7-8.7-0.9-13
			c-6.1,0.2-12.2,0.3-18.3,0.5c0,9.1,0.3,18.1,1.2,27.2c0.9,9.1,2.4,18.1,4.2,27c2.5,7.2,4.5,14.5,6.6,21.8
			c3.1,10.8,6.5,21.6,9.9,32.4c12.1,38.1,28.3,74.9,38,113.7c4.8,19.1,8.2,38.6,10.4,58.2c0.4,3.6,0.7,7.3,1,10.9
			c0.3-8.7,0.3-17.5,0-26.2c-0.7-15.4-2.5-30.6-5.1-45.8c-1.3-7.2-2.8-14.4-4.3-21.6c-1.3-6.3-3.8-13.6-3.2-20.1
			c0.1-0.4,0.5-0.7,0.8-0.5c0.2,0,0.4,0,0.5,0.2c3.4,5.8,4.1,14,5.4,20.5c1.5,7.5,2.9,15.1,4.2,22.6c2.5,14.5,4.3,29,5,43.7
			c0.7,15.5,0.7,31,0,46.6c-0.3,7.9-0.7,15.9-1.2,23.8c-0.2,3.6-0.4,7.3-0.6,11c0.9-6.6,2-13.2,3.1-19.7c2-11.4,4.3-22.6,6.9-33.9
			c2.5-10.9,5-24.8,2-35.8c-0.1-0.4,0.3-0.7,0.6-0.6c0.2,0,0.5,0,0.5,0.3c1,5.3,2.2,10.3,2.1,15.8c-0.1,5.4-0.9,10.9-1.8,16.2
			c-2,11.4-4.1,22.7-6,34c-2.1,12.2-4,24.5-5.6,36.8c-0.4,3.3-0.8,6.7-1.2,10c0.1,2.1,0.3,4.2,0.4,6.3c0.9,12.8,1,26.7,5.7,38.9
			c2.2,5.7,5.5,11.2,12.1,11.4c0.4,0,0.8,0,1.2-0.1c5.2-0.5,9.4-2.9,13.6-5.4c-7.5-3-13.6-10.4-17.2-17.3
			c-8.9-17.1-6.1-36.1-2.5-54.3c4.4-22,8.6-43.7,9.2-66.2c0.6-21.3-1.4-42.6-6.1-63.4c-4.6-20.5-11.5-40.1-18.1-59.9
			c-0.2-0.8,0.6-1.3,1.1-1.1c0.2,0,0.5,0.1,0.6,0.4c8.4,18.8,14.4,38.9,18.8,58.9c3.9,18,6.7,36.3,7.2,54.7
			c0.6,19.2-1.9,38.3-4.5,57.2c-0.7,5.2-1.6,10.5-2.5,15.9c1.6-4.1,3-8.1,4.2-12.1c5-17.4,7.3-34.8,6.8-52.9
			c-0.5-18.2-3.4-36-7-53.8c-3.6-17.8-8.3-35.3-13.4-52.7c-2.3-7.7-4.5-15.5-7.5-22.9c-3.2-7.9-7.7-15.1-11.8-22.5
			c-0.3-0.5,0.3-1.1,0.8-0.8c0.1,0,0.2,0,0.3,0.1c6.1,6.9,9.7,15.6,13.4,24c3.5,8,6.3,16.3,8.9,24.6c11,34.7,20.9,70,21.4,106.7
			c0.1,7.5-0.1,15.2-0.8,22.8c1.2-3.2,2.5-6.4,3.5-9.6C1220.6,1175.9,1222.7,1166.7,1223.6,1157.3z M1191.4,1152.3
			c0,1.2-1.8,1.2-1.9,0c-1.6-17.8-2.9-35.6-6.1-53.2c0-0.4,0.5-0.6,0.6-0.2C1187.8,1116.4,1191.2,1134.3,1191.4,1152.3z
			 M1180.6,1070.4c13.5,30.6,20.6,65.6,20.6,99.1c0,17.4-4.1,33.9-7.9,50.8c-2.1,9.3-3.7,18.6-4.6,28c-0.6,6.5-0.2,13.4-0.6,20
			c0.9,9.5,2,18.9,3.5,28.4c2.8,6.3,7,11.3,13.5,12.8c-4.1-1.9-6.1-5.5-7.4-9.7c-0.1-0.4,0.5-0.7,0.7-0.3c4.3,8.3,13.5,9.7,13.1,10
			c-5.9,4-11,3.2-16-1c-6.5-5.5-9.1-14.2-10.5-22.3c-1.9-10.4-2.5-21-2.1-31.6c0.4-10.3,1.2-21.8,5.2-31.4c0.2-0.6,1.1-0.6,1.1,0.1
			c0,0.9-0.1,1.9-0.2,2.8c0.1-0.7,0.3-1.3,0.4-2c3.6-17.1,8.5-34,9-51.6c1.1-34.7-7.4-69.1-18.4-101.8
			C1179.8,1070.3,1180.4,1070,1180.6,1070.4z M1214.6,1129.9c-1.8-8.3-4.6-16.3-7.5-24.2c-0.2-0.4,0.4-0.7,0.6-0.3
			c3.4,6.8,6,13.8,8.1,21.1c-0.3-2.7-0.6-5.5-0.9-8.3c-1.2-10.6-4.4-20-7.1-30.2c-0.1-0.3,0.3-0.5,0.5-0.2c4.9,8.4,6.7,19,8.4,28.4
			c0.8,4.8,1.4,9.7,1.9,14.6c0.4,3.5,1.2,7.5,0.9,11.1c0.7,4.3,1.2,8.7,0.9,12.8c-0.1,1-1.6,1.3-1.7,0.2
			C1216.9,1146.7,1216.5,1138.2,1214.6,1129.9z"/>
		<path fill="#9F592A" d="M1220.4,1154.7c0.3-4.1-0.2-8.5-0.9-12.8c0.3-3.6-0.5-7.6-0.9-11.1c-0.5-4.9-1.1-9.8-1.9-14.6
			c-1.7-9.4-3.5-20-8.4-28.4c-0.2-0.3-0.6-0.1-0.5,0.2c2.7,10.2,5.9,19.6,7.1,30.2c0.3,2.8,0.6,5.6,0.9,8.3
			c-2.1-7.3-4.7-14.3-8.1-21.1c-0.2-0.4-0.8-0.1-0.6,0.3c2.9,7.9,5.7,15.9,7.5,24.2c1.9,8.3,2.3,16.8,4.1,25
			C1218.8,1156,1220.3,1155.7,1220.4,1154.7z"/>
		<path opacity="0.35" fill="#E8FFFA" enable-background="new    " d="M1220.4,1154.7c0.3-4.1-0.2-8.5-0.9-12.8
			c0.3-3.6-0.5-7.6-0.9-11.1c-0.5-4.9-1.1-9.8-1.9-14.6c-1.7-9.4-3.5-20-8.4-28.4c-0.2-0.3-0.6-0.1-0.5,0.2
			c2.7,10.2,5.9,19.6,7.1,30.2c0.3,2.8,0.6,5.6,0.9,8.3c-2.1-7.3-4.7-14.3-8.1-21.1c-0.2-0.4-0.8-0.1-0.6,0.3
			c2.9,7.9,5.7,15.9,7.5,24.2c1.9,8.3,2.3,16.8,4.1,25C1218.8,1156,1220.3,1155.7,1220.4,1154.7z"/>
		<path fill="#9F592A" d="M1183.4,1099.1c3.2,17.6,4.5,35.4,6.1,53.2c0.1,1.2,1.9,1.2,1.9,0c-0.2-18-3.6-35.9-7.4-53.4
			C1183.9,1098.5,1183.4,1098.7,1183.4,1099.1z"/>
		<path opacity="0.35" fill="#E8FFFA" enable-background="new    " d="M1183.4,1099.1c3.2,17.6,4.5,35.4,6.1,53.2
			c0.1,1.2,1.9,1.2,1.9,0c-0.2-18-3.6-35.9-7.4-53.4C1183.9,1098.5,1183.4,1098.7,1183.4,1099.1z"/>
		<path fill="#9F592A" d="M1198.4,1172.5c-0.5,17.6-5.4,34.5-9,51.6c-0.1,0.7-0.3,1.3-0.4,2c0.1-0.9,0.2-1.9,0.2-2.8
			c0-0.7-0.9-0.7-1.1-0.1c-4,9.6-4.8,21.1-5.2,31.4c-0.4,10.6,0.2,21.2,2.1,31.6c1.4,8.1,4,16.8,10.5,22.3c5,4.2,10.1,5,16,1
			c0.4-0.3-8.8-1.7-13.1-10c-0.2-0.4-0.8-0.1-0.7,0.3c1.3,4.2,3.3,7.8,7.4,9.7c-6.5-1.5-10.7-6.5-13.5-12.8
			c-1.5-9.5-2.6-18.9-3.5-28.4c0.4-6.6,0-13.5,0.6-20c0.9-9.4,2.5-18.7,4.6-28c3.8-16.9,7.9-33.4,7.9-50.8
			c0-33.5-7.1-68.5-20.6-99.1c-0.2-0.4-0.8-0.1-0.6,0.3C1191,1103.4,1199.5,1137.8,1198.4,1172.5z"/>
		<path opacity="0.35" fill="#E8FFFA" enable-background="new    " d="M1198.4,1172.5c-0.5,17.6-5.4,34.5-9,51.6
			c-0.1,0.7-0.3,1.3-0.4,2c0.1-0.9,0.2-1.9,0.2-2.8c0-0.7-0.9-0.7-1.1-0.1c-4,9.6-4.8,21.1-5.2,31.4c-0.4,10.6,0.2,21.2,2.1,31.6
			c1.4,8.1,4,16.8,10.5,22.3c5,4.2,10.1,5,16,1c0.4-0.3-8.8-1.7-13.1-10c-0.2-0.4-0.8-0.1-0.7,0.3c1.3,4.2,3.3,7.8,7.4,9.7
			c-6.5-1.5-10.7-6.5-13.5-12.8c-1.5-9.5-2.6-18.9-3.5-28.4c0.4-6.6,0-13.5,0.6-20c0.9-9.4,2.5-18.7,4.6-28
			c3.8-16.9,7.9-33.4,7.9-50.8c0-33.5-7.1-68.5-20.6-99.1c-0.2-0.4-0.8-0.1-0.6,0.3C1191,1103.4,1199.5,1137.8,1198.4,1172.5z"/>
		<path fill="#9F592A" d="M1077.6,948.8c0.9,9.5,0.4,19.3,1.7,28.7c0.2,1.1,2.1,1.1,2.3,0c1.7-9.5,0.2-20.1-0.7-29.6
			c-0.9-9.6-2.2-19.1-3.9-28.6c-1.8-9.9-3.9-19.6-5.7-29.4c-0.9,0-1.7,0-2.6,0c1.8,9.4,3.2,18.8,4.7,28.2
			C1075,928.3,1076.6,938.5,1077.6,948.8z"/>
		<path opacity="0.3" fill="#091426" enable-background="new    " d="M1077.6,948.8c0.9,9.5,0.4,19.3,1.7,28.7
			c0.2,1.1,2.1,1.1,2.3,0c1.7-9.5,0.2-20.1-0.7-29.6c-0.9-9.6-2.2-19.1-3.9-28.6c-1.8-9.9-3.9-19.6-5.7-29.4c-0.9,0-1.7,0-2.6,0
			c1.8,9.4,3.2,18.8,4.7,28.2C1075,928.3,1076.6,938.5,1077.6,948.8z"/>
		<path fill="#9F592A" d="M1044,913c0.2,8.6,0.8,17.3,2,25.8c1.1,8.3,2,18.6,5.9,26c0.6,1.1,2.5,0.6,2.4-0.7
			c-0.1-3.9-1.4-7.7-2.1-11.5c-0.9-4.3-1.6-8.6-2.3-13c-1.3-8.9-2.2-17.7-2.4-26.7c-0.2-7.8,0-15.4,0.2-23.2c-1,0-2.1,0-3.1,0
			C1044.1,897.5,1043.8,905.2,1044,913z"/>
		<path opacity="0.3" fill="#091426" enable-background="new    " d="M1044,913c0.2,8.6,0.8,17.3,2,25.8c1.1,8.3,2,18.6,5.9,26
			c0.6,1.1,2.5,0.6,2.4-0.7c-0.1-3.9-1.4-7.7-2.1-11.5c-0.9-4.3-1.6-8.6-2.3-13c-1.3-8.9-2.2-17.7-2.4-26.7
			c-0.2-7.8,0-15.4,0.2-23.2c-1,0-2.1,0-3.1,0C1044.1,897.5,1043.8,905.2,1044,913z"/>
		<path fill="#9F592A" d="M1039.3,944.9c3,14.4,7,28.6,10.7,42.8c3.7,14.4,5.9,30,11.4,43.8c0.7,1.8,4,1.8,3.7-0.5
			c-1.7-14-7-27.8-10.5-41.5c-3.7-14.2-7.5-28.5-10.8-42.8c-4.3-18.9-6.1-38-6.2-57.1c-0.9,0-1.8,0-2.7,0
			C1034.4,908.1,1035.5,926.6,1039.3,944.9z"/>
		<path opacity="0.3" fill="#091426" enable-background="new    " d="M1039.3,944.9c3,14.4,7,28.6,10.7,42.8
			c3.7,14.4,5.9,30,11.4,43.8c0.7,1.8,4,1.8,3.7-0.5c-1.7-14-7-27.8-10.5-41.5c-3.7-14.2-7.5-28.5-10.8-42.8
			c-4.3-18.9-6.1-38-6.2-57.1c-0.9,0-1.8,0-2.7,0C1034.4,908.1,1035.5,926.6,1039.3,944.9z"/>
		<path fill="#9F592A" d="M1011.4,943.9c3.6,31.3,10.6,62.2,14,93.5c2,18.1,1.9,36,2.1,54.2c0,1.1,1.7,1.4,1.9,0.3
			c2.6-14.8,2-30.3,0.9-45.3c-1.1-14.9-3.1-29.8-5.5-44.6c-4.9-31.2-11.4-62.3-12.9-93.9c-0.3-6.2-0.6-12.7-0.6-19.1
			c-0.9,0-1.8-0.1-2.8-0.1c-0.1,2.4-0.2,4.8-0.2,7.2C1008.1,912.1,1009.6,928,1011.4,943.9z"/>
		<path opacity="0.3" fill="#091426" enable-background="new    " d="M1011.4,943.9c3.6,31.3,10.6,62.2,14,93.5
			c2,18.1,1.9,36,2.1,54.2c0,1.1,1.7,1.4,1.9,0.3c2.6-14.8,2-30.3,0.9-45.3c-1.1-14.9-3.1-29.8-5.5-44.6
			c-4.9-31.2-11.4-62.3-12.9-93.9c-0.3-6.2-0.6-12.7-0.6-19.1c-0.9,0-1.8-0.1-2.8-0.1c-0.1,2.4-0.2,4.8-0.2,7.2
			C1008.1,912.1,1009.6,928,1011.4,943.9z"/>
		<path fill="#9F592A" d="M1139.6,1154.9c3.5,14.6,6,29.4,8,44.3c1.9,14.2,3.4,28.4,4.6,42.6c0.6,7.5,1.3,15.1,1.8,22.6
			c0.5,7.6,0,15.3,0.3,23c0.1,1.4,2,1.7,2.4,0.3c2.1-7.1,1.6-15.1,1.1-22.4c-0.5-7.6-1.3-15.1-2.1-22.6c-1.6-15.1-2.9-30.3-5-45.4
			c-1.9-14.2-4.2-28.5-7.3-42.5c-1.6-7.2-3.1-14.5-5-21.6c-1.7-6.4-3.4-14.6-7.7-19.9c-1-1.2-3-0.2-2.9,1.2c0.2,6.6,3.8,13.7,5.8,20
			C1135.8,1141.2,1137.9,1148,1139.6,1154.9z"/>
		<path opacity="0.3" fill="#091426" enable-background="new    " d="M1139.6,1154.9c3.5,14.6,6,29.4,8,44.3
			c1.9,14.2,3.4,28.4,4.6,42.6c0.6,7.5,1.3,15.1,1.8,22.6c0.5,7.6,0,15.3,0.3,23c0.1,1.4,2,1.7,2.4,0.3c2.1-7.1,1.6-15.1,1.1-22.4
			c-0.5-7.6-1.3-15.1-2.1-22.6c-1.6-15.1-2.9-30.3-5-45.4c-1.9-14.2-4.2-28.5-7.3-42.5c-1.6-7.2-3.1-14.5-5-21.6
			c-1.7-6.4-3.4-14.6-7.7-19.9c-1-1.2-3-0.2-2.9,1.2c0.2,6.6,3.8,13.7,5.8,20C1135.8,1141.2,1137.9,1148,1139.6,1154.9z"/>
		<path opacity="0.3" fill="#091426" enable-background="new    " d="M1203.7,1387.4c0,0,2.2-9.8,8.8-25c0.1-0.3,0.1-0.6,0.2-0.9
			c-6,13.7-8.6,23.2-9.2,25.7C1203.6,1387.3,1203.7,1387.4,1203.7,1387.4z"/>
		<path opacity="0.3" fill="#091426" enable-background="new    " d="M1137.7,1387.8c-13,21-27.8,39.4-28.9,46.8
			c-0.6,3.9-1.3,7.2-2.4,8.6c1.3-1,2.2-4.6,2.8-9c1.1-7.4,15.9-25.8,28.9-46.8c11.9-19.1,23.2-44,25.1-48.2c0-0.1-0.1-0.2-0.1-0.3
			C1163.1,1338.9,1150.8,1366.8,1137.7,1387.8z"/>
		<path fill="#9F592A" d="M973.2,965.4c3.6,17.5,8.6,34.6,11.6,52.3c1.6,9.3,3.2,18.6,4.2,28c1,8.9,0.6,18.2,2.2,27
			c0.2,1.2,1.8,0.7,1.9-0.3c0.9-8.7-0.6-18-1.3-26.7c-0.7-8.4-1.5-16.8-2.8-25.1c-2.7-17.4-7.4-34.3-11.3-51.5
			c-6.1-27.1-7.3-54.4-4.1-81.6c-0.9,0-1.8-0.1-2.7-0.1C966.7,913.2,967.9,940.1,973.2,965.4z"/>
		<path opacity="0.3" fill="#091426" enable-background="new    " d="M973.2,965.4c3.6,17.5,8.6,34.6,11.6,52.3
			c1.6,9.3,3.2,18.6,4.2,28c1,8.9,0.6,18.2,2.2,27c0.2,1.2,1.8,0.7,1.9-0.3c0.9-8.7-0.6-18-1.3-26.7c-0.7-8.4-1.5-16.8-2.8-25.1
			c-2.7-17.4-7.4-34.3-11.3-51.5c-6.1-27.1-7.3-54.4-4.1-81.6c-0.9,0-1.8-0.1-2.7-0.1C966.7,913.2,967.9,940.1,973.2,965.4z"/>
		<path fill="#9F592A" d="M1213.9,1353.4c1.4-5.1,2.6-10.3,3.4-15.5c0.6-1.8,1.1-3.6,1.6-5.3c0.7-2.2,1.7-4.6,2.7-7
			c5.8-7,10.7-14.6,15.4-22.7c8.9-15.3,16.3-31.2,22.7-47.7c6.1-16.5,11.8-33.7,16.7-51.1c2.4-8.7,4.6-17.4,6.4-26.3
			c1.5-7.3,3.4-15.2,2.7-22.7c1.1-9.9,1.7-19.7,1.9-29.7c0.6-28.9-3.1-58-10.7-85.8c-1.7-6-3.5-12-5.6-17.9c0.1-0.3,0.1-0.5,0-0.8
			c-5.6-18.1-11.2-35.9-13.9-54.7c-2.8-19.4-3.3-39-1.7-58.5c0.8-9.6,2.1-19.1,4-28.5c-1.7,0.2-3.4,0.4-5.1,0.6
			c-4.9,27.2-5.5,55.3-1.9,82.6c1.4,10.7,3.3,21.6,6,32.2c-0.3,0.1-0.6,0.3-0.5,0.7c0.9,3,2,6,3.2,9c1.1,3.6,2.4,7.2,3.8,10.8
			c0.8,2.1,1.6,4.3,2.3,6.5c2.7,8.3,5.2,16.6,7.4,25.1c4.5,17.9,7.3,36.2,8.6,54.5c1.2,18.1,0.5,36-1.2,54
			c-0.9,9.1-2.5,18.1-4.1,27.1c-0.5,2.5-0.9,5-1.3,7.5c-1.2,4.8-2.5,9.7-3.9,14.5c-4.8,16.5-10.7,32.7-16.8,48.8
			c-6.2,16.1-13.1,32.2-22.5,46.7c-0.2,0.3-0.4,0.6-0.6,0.9c0.7-6.5-0.7-14.6-2.2-17.5c-0.1-0.2-0.3,0-0.3,0.1c1,4.9,2.1,9.9,1,14.9
			c-0.5,2-1.2,3.6-2.4,5c-3.5,2.2-6.7,3.1-11,1.4c-2-0.8-3.8-1.8-5.5-3c0.2-0.2,0.3-0.5,0.4-0.9c1-4.2,2.1-8.5,3.4-12.6
			c0.9-2.6,2-5.2,3.1-7.7c2.7-5.7,6.5-10.9,8.6-16.8c11.2-18.3,19.5-38.3,25.3-59c4.4-15.7,7.9-32,8.3-48.3
			c0.4-17.9-2.1-36-4.3-53.7c-1.2-9.2-2.5-18.3-4.1-27.4c0.3-11.5-4-22.2-7.7-33c-3.8-11.1-7.8-22.2-11.5-33.4
			c-3.6-11.1-6.9-22.3-9.3-33.7c-1.3-6.2-2.4-12.5-3.2-18.8c-0.6-4.7-0.4-10.3-2.6-14.6c-0.2-0.3-0.8-0.4-0.9,0
			c-1.9,4.4-1.1,9.9-0.6,14.6c0.6,5.5,1.4,11,2.5,16.5c2.3,12.1,5.5,23.9,9.1,35.6c3.5,11.6,7.2,23,10.8,34.5
			c1.2,3.8,2.2,7.7,3.3,11.6c0.6,5.4,2.3,10.8,3.2,16c1.6,8.5,3,17,4.2,25.5c2.4,16.8,4.6,33.8,5.3,50.8c1.3,31-7.9,63.5-20.8,91.6
			c-6.6,14.5-14.9,28.2-24.7,40.6c0.1-0.8,0.3-1.7,0.4-2.5c1.5-7.7,3.9-15.2,6.5-22.6c2.7-7.8,5.9-15.4,9.3-22.9
			c1.5-3.3,2.8-6.7,4.5-9.9c1.4-2.8,3.5-5.5,3.3-8.7c0-0.2-0.3-0.4-0.5-0.3c-3.2,1.7-4.8,5.8-6.5,8.9c-2.1,3.7-4.2,7.3-6,11.1
			c-3.5,7.5-6.6,15.3-9.2,23.2c-2.8,8.3-5.2,16.8-7.2,25.3c0,0.1-0.1,0.2-0.1,0.4c-1.4-12.1,1.4-24.8,5.6-36.9
			c2.9-8.4,6.4-16.5,9.7-24.7c0.8-1.8,1.5-3.7,2.3-5.5c3.2-7.8,5.9-15.7,8.2-23.7c4.6-16.2,6.7-32.5,7.6-49.2
			c2-36-5.2-70.4-16.8-104.4c-3.4-9.9-7.2-19.6-10.1-29.6c-3-10.3-4.1-20.8-6.7-31.1c-0.1-0.5-1.1-0.6-1.1,0
			c-1.2,7.9,0.5,16.1,2.3,23.8c2.1,8.9,4.8,17.6,7.7,26.3c5.7,17.2,11.8,34.3,16,52c8.1,33.8,7.2,68.1-0.9,101.7
			c-2.2,9.3-5,18.4-8.3,27.3c-2.7,7.3-6.4,14.4-9.1,21.7c-2.8,6.6-5.5,13.3-7.6,20.2c-3.1,10.1-5.6,22.5-4.5,34c-0.7-2-1.2-4-1.6-6
			c-0.1-0.3-0.1-0.7-0.2-1c0-0.1,0-0.3,0-0.4c-1.5-18.5,7-34.2,11.9-51.6c0.8-3,1.6-6.1,2.2-9.2c0.2-0.1,0.3-0.3,0.5-0.5
			c4.4-6.7,6.5-15.5,9-23.2c2.6-8,4.7-16.1,6.3-24.4c3.1-16.1,2.5-32.5-0.4-48.6c-5.6-30.9-19.1-60.1-31.6-88.8
			c-1.2-5.2-3-10.4-3.9-15.6c-1.2-7.6-1.3-15.3-1-23c0.3-7.9,1.1-15.8,1.8-23.6c0.4-4.4,0.8-8.6,1.7-12.9c0.8-3.7,1.3-7.7,1-11.4
			c0.1-0.1,0-0.3,0-0.3c-0.1-0.4-0.8-0.7-1-0.2c-1.3,3-1.9,6.4-2.3,9.7c-0.6,5-1.1,9.8-1.8,14.8c-1.3,8.7-2.3,17.3-3.5,26
			c-0.5,3.7-0.9,7.8-1,12.1c-3.4-12.6-7.2-25-10-37.7c0-4.3,0.1-8.6,0.4-12.8c0.8-9.9,2.2-19.7,4.2-29.5c2.7-13.2,6.2-26.2,10-39.1
			c-1.5,0.1-2.9,0.2-4.4,0.3c-4.4,14.6-8.3,29.2-11.1,44.2c-0.9,4.9-1.7,9.8-2.4,14.8c-1.3-18.2,1-36.2,5.7-53.9
			c0.4-1.6,0.9-3.1,1.3-4.7c-6.1,0.4-12.2,0.7-18.3,1.1c-2.7,7.1-5,14.5-6,22.1c-1.2,8.7-1.2,17.5-1.3,26.3
			c-0.1,9.9-0.1,19.9,0.8,29.8c0.2,1.8,0.4,3.6,0.6,5.4c-1.4-3.4-2.6-6.9-3.7-10.5c0.1-0.2,0.1-0.5,0.1-0.7
			c-5-19.5-3.2-39.3,0.2-58.9c0.8-4.4,1.6-8.8,2.4-13.1c-1.5,0.1-3,0.1-4.5,0.2c-1.5,8-2.9,16-4.1,24c-0.3,2.3-0.6,4.5-0.9,6.8
			c-0.5-10.1-0.3-20.4-0.2-30.6c-1.1,0-2.2,0.1-3.2,0.1c-0.1,23.3,0.1,46.5,5.4,69.4c4.3,18.6,12.8,45.2,33.5,51
			c0.8,2.1,1.5,4.1,2.3,6.2c5.7,15.2,13.8,29.3,20.4,44.1c13.7,30.9,24.8,63.9,21.5,98.2c-0.9,9.4-3,18.6-5.8,27.6
			c-1,3.4-2.4,6.8-3.7,10.2c0-0.2,0-0.4,0-0.6c-0.1,0.2-0.2,0.4-0.2,0.6c0.7-7.8,0.9-15.7,0.8-23.4c-0.5-36.7-10.4-72-21.4-106.7
			c-2.6-8.3-5.4-16.6-8.9-24.6c-3.7-8.4-7.2-17.1-13.4-24c0-0.1-0.1-0.1-0.1-0.1c-0.4,0-0.8,0.4-0.6,0.8c4.1,7.5,8.6,14.6,11.8,22.5
			c3,7.4,5.3,15.2,7.5,22.9c5.1,17.4,9.8,34.9,13.4,52.7s6.5,35.6,7,53.8c0.4,18-1.8,35.5-6.8,52.9c-1.2,4.2-2.8,8.6-4.5,13
			c0-0.3,0.1-0.6,0.1-0.9c-0.1,0.3-0.2,0.6-0.3,0.9c0.9-5.7,1.9-11.3,2.6-16.8c2.6-18.9,5.1-38,4.5-57.2
			c-0.6-18.4-3.3-36.8-7.2-54.7c-4.4-20.1-10.4-40.2-18.8-58.9c-0.1-0.2-0.2-0.3-0.4-0.4c-0.5,0-1.1,0.4-0.9,1.1
			c6.6,19.9,13.5,39.5,18.1,59.9c4.7,20.8,6.6,42.1,6.1,63.4c-0.6,22.5-4.8,44.2-9.2,66.2c-3.6,18.1-6.4,37.1,2.5,54.3
			c3.6,6.9,9.6,14.4,17.4,17.4c-4.4,2.3-8.5,4.8-13.8,5.3c-0.5,0-1,0.1-1.4,0.1c-6.6,0-10-5.6-12.3-11.4c-4.7-12.2-4.8-26-5.7-38.9
			c-0.1-2.1-0.3-4.2-0.4-6.3c0.4-3.3,0.7-6.7,1.2-10c1.6-12.3,3.5-24.6,5.6-36.8c2-11.4,4.1-22.7,6-34c0.9-5.3,1.7-10.8,1.8-16.2
			c0.1-5.5-1.1-10.5-2.1-15.8c0-0.2-0.2-0.3-0.3-0.3c-0.3,0.1-0.5,0.3-0.4,0.6c3,11,0.5,24.9-2,35.8c-2.6,11.3-5,22.5-6.9,33.9
			c-1.2,7.6-2.4,15.1-3.5,22.7c0.1-1,0.2-2,0.2-3c-0.1,1-0.3,2-0.4,3c0.4-4.7,0.5-9.4,0.8-14c0.5-7.9,0.9-15.9,1.2-23.8
			c0.6-15.5,0.7-31,0-46.6c-0.7-14.7-2.5-29.2-5-43.7c-1.3-7.6-2.7-15.1-4.2-22.6c-1.3-6.5-2-14.7-5.4-20.5
			c-0.1-0.1-0.2-0.2-0.3-0.2c-0.3,0-0.5,0.3-0.6,0.5c-0.7,6.4,1.9,13.8,3.2,20.1c1.5,7.2,3,14.4,4.3,21.6
			c2.6,15.2,4.5,30.4,5.1,45.8c0.4,9.3,0.3,18.6,0,27.9c-0.1-0.6-0.1-1.1-0.2-1.7c0,0.6,0,1.1,0,1.7c-0.3-4.2-0.7-8.4-1.2-12.6
			c-2.1-19.6-5.6-39-10.4-58.2c-9.7-38.8-25.9-75.6-38-113.7c-3.4-10.8-6.8-21.6-9.9-32.4c-2.1-7.3-4.1-14.6-6.6-21.8
			c-1.8-8.9-3.3-17.9-4.2-27c-1-9.2-1.3-18.2-1.3-27.2c-4.4,0.1-8.8,0.2-13.2,0.2c1.4,14,1.6,28.3,2.2,42.5
			c1.3,32.4,5.2,64.4,12.1,96.2c1.9,9.1,4.3,18,6.9,26.9c2.5,8.5,4.7,17.6,8.7,25.6c0.4,0.8,1.7,0.2,1.5-0.6
			c-2.3-8-5.9-15.6-8.3-23.6s-4.4-16.1-6.2-24.2c-3.8-16.9-6.3-33.8-7.5-51.1c-0.3-4.2-0.6-8.5-0.9-12.7c1.1-4.4,1.9-8.9,2.4-13.5
			c1,7.4,2.1,14.7,3.3,22c2.9,18,6.4,36.1,10.7,53.8c8.6,34.5,20.4,68.2,29.9,102.5c3.3,12.1,6.4,24.4,8.9,36.7
			c2.2,12.8,3.9,25.6,5.2,38.5c1.1,10.7,1.9,21.4,2.2,32.1c-0.3,6-0.6,11.9-0.9,17.9c-0.9,18-1.7,36-4.2,53.8
			c-2.4,16.9-6.6,33.8-14.3,49c-4,7.9-8.9,15.2-13.8,22.5c1-2.9,1.9-5.9,2.8-8.8c2.4-7.8,5.2-15.5,8-23.3c2.5-7,6.7-15.1,6.8-22.7
			c0-0.4-0.6-0.7-0.9-0.4c-5,5.9-7.1,14.9-9.8,22c-2.3,6-4.5,12-7,18c-2.5,4-4.6,8.6-6.9,12.6c-2,3.5-3.8,7.1-5.5,10.7
			c1.7-10.5,3.4-21.2,2.7-31.7c-0.1-1.2-1.8-1.6-2.2-0.3c-3.8,13.9-6.4,28.4-9.1,42.6c-0.7,3.9-1.4,7.7-1.9,11.6
			c-2.6-15.6-5.5-31.2-9.1-46.7c-4.6-19.7-11.7-39.1-14-59.2c-2.2-19.6,0.2-39.2,3-58.6s7-38.5,10.6-57.8c4-21.4,5.8-43,4.5-64.7
			c0-0.6-0.9-0.6-0.9,0c0,20.6-1.7,41-5.4,61.3c-3.5,19.6-8.8,38.7-13.3,58.1c-4.2,18.3-6.3,37.5-4.9,56.2
			c1.5,19.9,7.9,38.7,12.7,57.9c4.2,16.9,7.6,34.1,10.5,51.3c-4.2-9.2-8.9-18.2-13.8-26.9c-2-3.6-4.2-7-6.5-10.4
			c-8.3-14.3-17.3-28-24.2-43.2c-7.9-17.6-13.3-36.2-16.6-55.2c-6.8-39.5-5.1-80.2,2.7-119.3c4.5-22.6,10.3-44.9,16.7-67
			c0.3-1.2-1.5-1.7-1.8-0.5c-24.5,75.8-41.4,161.5-10.6,238.1c8.2,20.3,19.3,40.7,32,58.5c0.4,0.7,0.8,1.4,1.2,2.2
			c1.4,2.6,2.8,5.3,4.1,7.9c-3.1-4-6.4-7.8-9.8-11.5c-11.5-12.5-24.9-23.6-35.3-37.1c-21.1-27.3-31.7-64.7-34-98.7
			c-1.3-19.7,1.3-38.7,3-58.2c0.1-1.1-1.5-1.2-1.9-0.3c-5.4,16.2-6.1,34.4-5.6,51.4s2.9,34.1,7.1,50.5c4.3,16.7,10.8,33.5,19.3,48.6
			c-17.6-14.4-31.6-33.1-38.5-55c-4.3-13.4-5.2-26.7-4.6-40.7c0.3-7.3,0.6-14.6,0.9-22c0.1-3.9,0.6-8.4,0.6-12.7
			c0.4-4.4,1-8.7,1.7-13.1c3-18.8,8.3-37.1,13.1-55.5c9.3-35.9,10.8-72.5,4.8-109.1c-1.7-10-3.5-20.2-6.1-30.1c-1.1-4-2.1-8-3.2-12
			c-3.6-20.9-7-41.9-9.8-62.9c-1.8-13.4-3.2-26.7-2.1-39.9c-2.3-0.1-4.7-0.2-7-0.3c-0.7,9.5-0.4,19.1,0.8,28.8
			c2.7,20.9,5.9,41.8,9.5,62.5c3.3,19,6.8,38,10.3,56.9c0.2,7.4,1.2,14.8,1.5,22c0.4,10.5,0.3,21.1-0.4,31.6
			c-1.2,18.8-5.4,36.4-10.8,54.2c-3.4,7.7-5.8,15.9-8.2,23.8c-3.4,11-6.7,22.1-9.4,33.4c-5.2,21.3-8.6,43.3-6.7,65.3
			c1.3,15,5,30,11.8,43.5c35.5,27.4,70.9,56.6,94.3,81.7c23.6,25.2,29.7,43.8,33,49.6c1.3,2.3,2.4,2.8,3.3,2.2
			c1.1-1.4,1.8-4.6,2.4-8.6c1.1-7.4,15.9-25.8,28.9-46.8c13.1-21,25.4-48.9,25.4-48.9c0,0.1,0.1,0.2,0.1,0.3
			c0.2-0.4,0.3-0.7,0.3-0.7c6.5,16.7,37,45.9,40,48.7c0.6-2.5,3.2-12,9.2-25.7c0.3-1.6,0.6-3.3,0.8-5
			C1213.6,1355.5,1213.7,1354.4,1213.9,1353.4z"/>
		<path opacity="0.3" fill="#091426" enable-background="new    " d="M1213.9,1353.4c1.4-5.1,2.6-10.3,3.4-15.5
			c0.6-1.8,1.1-3.6,1.6-5.3c0.7-2.2,1.7-4.6,2.7-7c5.8-7,10.7-14.6,15.4-22.7c8.9-15.3,16.3-31.2,22.7-47.7
			c6.1-16.5,11.8-33.7,16.7-51.1c2.4-8.7,4.6-17.4,6.4-26.3c1.5-7.3,3.4-15.2,2.7-22.7c1.1-9.9,1.7-19.7,1.9-29.7
			c0.6-28.9-3.1-58-10.7-85.8c-1.7-6-3.5-12-5.6-17.9c0.1-0.3,0.1-0.5,0-0.8c-5.6-18.1-11.2-35.9-13.9-54.7
			c-2.8-19.4-3.3-39-1.7-58.5c0.8-9.6,2.1-19.1,4-28.5c-1.7,0.2-3.4,0.4-5.1,0.6c-4.9,27.2-5.5,55.3-1.9,82.6
			c1.4,10.7,3.3,21.6,6,32.2c-0.3,0.1-0.6,0.3-0.5,0.7c0.9,3,2,6,3.2,9c1.1,3.6,2.4,7.2,3.8,10.8c0.8,2.1,1.6,4.3,2.3,6.5
			c2.7,8.3,5.2,16.6,7.4,25.1c4.5,17.9,7.3,36.2,8.6,54.5c1.2,18.1,0.5,36-1.2,54c-0.9,9.1-2.5,18.1-4.1,27.1
			c-0.5,2.5-0.9,5-1.3,7.5c-1.2,4.8-2.5,9.7-3.9,14.5c-4.8,16.5-10.7,32.7-16.8,48.8c-6.2,16.1-13.1,32.2-22.5,46.7
			c-0.2,0.3-0.4,0.6-0.6,0.9c0.7-6.5-0.7-14.6-2.2-17.5c-0.1-0.2-0.3,0-0.3,0.1c1,4.9,2.1,9.9,1,14.9c-0.5,2-1.2,3.6-2.4,5
			c-3.5,2.2-6.7,3.1-11,1.4c-2-0.8-3.8-1.8-5.5-3c0.2-0.2,0.3-0.5,0.4-0.9c1-4.2,2.1-8.5,3.4-12.6c0.9-2.6,2-5.2,3.1-7.7
			c2.7-5.7,6.5-10.9,8.6-16.8c11.2-18.3,19.5-38.3,25.3-59c4.4-15.7,7.9-32,8.3-48.3c0.4-17.9-2.1-36-4.3-53.7
			c-1.2-9.2-2.5-18.3-4.1-27.4c0.3-11.5-4-22.2-7.7-33c-3.8-11.1-7.8-22.2-11.5-33.4c-3.6-11.1-6.9-22.3-9.3-33.7
			c-1.3-6.2-2.4-12.5-3.2-18.8c-0.6-4.7-0.4-10.3-2.6-14.6c-0.2-0.3-0.8-0.4-0.9,0c-1.9,4.4-1.1,9.9-0.6,14.6
			c0.6,5.5,1.4,11,2.5,16.5c2.3,12.1,5.5,23.9,9.1,35.6c3.5,11.6,7.2,23,10.8,34.5c1.2,3.8,2.2,7.7,3.3,11.6
			c0.6,5.4,2.3,10.8,3.2,16c1.6,8.5,3,17,4.2,25.5c2.4,16.8,4.6,33.8,5.3,50.8c1.3,31-7.9,63.5-20.8,91.6
			c-6.6,14.5-14.9,28.2-24.7,40.6c0.1-0.8,0.3-1.7,0.4-2.5c1.5-7.7,3.9-15.2,6.5-22.6c2.7-7.8,5.9-15.4,9.3-22.9
			c1.5-3.3,2.8-6.7,4.5-9.9c1.4-2.8,3.5-5.5,3.3-8.7c0-0.2-0.3-0.4-0.5-0.3c-3.2,1.7-4.8,5.8-6.5,8.9c-2.1,3.7-4.2,7.3-6,11.1
			c-3.5,7.5-6.6,15.3-9.2,23.2c-2.8,8.3-5.2,16.8-7.2,25.3c0,0.1-0.1,0.2-0.1,0.4c-1.4-12.1,1.4-24.8,5.6-36.9
			c2.9-8.4,6.4-16.5,9.7-24.7c0.8-1.8,1.5-3.7,2.3-5.5c3.2-7.8,5.9-15.7,8.2-23.7c4.6-16.2,6.7-32.5,7.6-49.2
			c2-36-5.2-70.4-16.8-104.4c-3.4-9.9-7.2-19.6-10.1-29.6c-3-10.3-4.1-20.8-6.7-31.1c-0.1-0.5-1.1-0.6-1.1,0
			c-1.2,7.9,0.5,16.1,2.3,23.8c2.1,8.9,4.8,17.6,7.7,26.3c5.7,17.2,11.8,34.3,16,52c8.1,33.8,7.2,68.1-0.9,101.7
			c-2.2,9.3-5,18.4-8.3,27.3c-2.7,7.3-6.4,14.4-9.1,21.7c-2.8,6.6-5.5,13.3-7.6,20.2c-3.1,10.1-5.6,22.5-4.5,34c-0.7-2-1.2-4-1.6-6
			c-0.1-0.3-0.1-0.7-0.2-1c0-0.1,0-0.3,0-0.4c-1.5-18.5,7-34.2,11.9-51.6c0.8-3,1.6-6.1,2.2-9.2c0.2-0.1,0.3-0.3,0.5-0.5
			c4.4-6.7,6.5-15.5,9-23.2c2.6-8,4.7-16.1,6.3-24.4c3.1-16.1,2.5-32.5-0.4-48.6c-5.6-30.9-19.1-60.1-31.6-88.8
			c-1.2-5.2-3-10.4-3.9-15.6c-1.2-7.6-1.3-15.3-1-23c0.3-7.9,1.1-15.8,1.8-23.6c0.4-4.4,0.8-8.6,1.7-12.9c0.8-3.7,1.3-7.7,1-11.4
			c0.1-0.1,0-0.3,0-0.3c-0.1-0.4-0.8-0.7-1-0.2c-1.3,3-1.9,6.4-2.3,9.7c-0.6,5-1.1,9.8-1.8,14.8c-1.3,8.7-2.3,17.3-3.5,26
			c-0.5,3.7-0.9,7.8-1,12.1c-3.4-12.6-7.2-25-10-37.7c0-4.3,0.1-8.6,0.4-12.8c0.8-9.9,2.2-19.7,4.2-29.5c2.7-13.2,6.2-26.2,10-39.1
			c-1.5,0.1-2.9,0.2-4.4,0.3c-4.4,14.6-8.3,29.2-11.1,44.2c-0.9,4.9-1.7,9.8-2.4,14.8c-1.3-18.2,1-36.2,5.7-53.9
			c0.4-1.6,0.9-3.1,1.3-4.7c-6.1,0.4-12.2,0.7-18.3,1.1c-2.7,7.1-5,14.5-6,22.1c-1.2,8.7-1.2,17.5-1.3,26.3
			c-0.1,9.9-0.1,19.9,0.8,29.8c0.2,1.8,0.4,3.6,0.6,5.4c-1.4-3.4-2.6-6.9-3.7-10.5c0.1-0.2,0.1-0.5,0.1-0.7
			c-5-19.5-3.2-39.3,0.2-58.9c0.8-4.4,1.6-8.8,2.4-13.1c-1.5,0.1-3,0.1-4.5,0.2c-1.5,8-2.9,16-4.1,24c-0.3,2.3-0.6,4.5-0.9,6.8
			c-0.5-10.1-0.3-20.4-0.2-30.6c-1.1,0-2.2,0.1-3.2,0.1c-0.1,23.3,0.1,46.5,5.4,69.4c4.3,18.6,12.8,45.2,33.5,51
			c0.8,2.1,1.5,4.1,2.3,6.2c5.7,15.2,13.8,29.3,20.4,44.1c13.7,30.9,24.8,63.9,21.5,98.2c-0.9,9.4-3,18.6-5.8,27.6
			c-1,3.4-2.4,6.8-3.7,10.2c0-0.2,0-0.4,0-0.6c-0.1,0.2-0.2,0.4-0.2,0.6c0.7-7.8,0.9-15.7,0.8-23.4c-0.5-36.7-10.4-72-21.4-106.7
			c-2.6-8.3-5.4-16.6-8.9-24.6c-3.7-8.4-7.2-17.1-13.4-24c0-0.1-0.1-0.1-0.1-0.1c-0.4,0-0.8,0.4-0.6,0.8c4.1,7.5,8.6,14.6,11.8,22.5
			c3,7.4,5.3,15.2,7.5,22.9c5.1,17.4,9.8,34.9,13.4,52.7s6.5,35.6,7,53.8c0.4,18-1.8,35.5-6.8,52.9c-1.2,4.2-2.8,8.6-4.5,13
			c0-0.3,0.1-0.6,0.1-0.9c-0.1,0.3-0.2,0.6-0.3,0.9c0.9-5.7,1.9-11.3,2.6-16.8c2.6-18.9,5.1-38,4.5-57.2
			c-0.6-18.4-3.3-36.8-7.2-54.7c-4.4-20.1-10.4-40.2-18.8-58.9c-0.1-0.2-0.2-0.3-0.4-0.4c-0.5,0-1.1,0.4-0.9,1.1
			c6.6,19.9,13.5,39.5,18.1,59.9c4.7,20.8,6.6,42.1,6.1,63.4c-0.6,22.5-4.8,44.2-9.2,66.2c-3.6,18.1-6.4,37.1,2.5,54.3
			c3.6,6.9,9.6,14.4,17.4,17.4c-4.4,2.3-8.5,4.8-13.8,5.3c-0.5,0-1,0.1-1.4,0.1c-6.6,0-10-5.6-12.3-11.4c-4.7-12.2-4.8-26-5.7-38.9
			c-0.1-2.1-0.3-4.2-0.4-6.3c0.4-3.3,0.7-6.7,1.2-10c1.6-12.3,3.5-24.6,5.6-36.8c2-11.4,4.1-22.7,6-34c0.9-5.3,1.7-10.8,1.8-16.2
			c0.1-5.5-1.1-10.5-2.1-15.8c0-0.2-0.2-0.3-0.3-0.3c-0.3,0.1-0.5,0.3-0.4,0.6c3,11,0.5,24.9-2,35.8c-2.6,11.3-5,22.5-6.9,33.9
			c-1.2,7.6-2.4,15.1-3.5,22.7c0.1-1,0.2-2,0.2-3c-0.1,1-0.3,2-0.4,3c0.4-4.7,0.5-9.4,0.8-14c0.5-7.9,0.9-15.9,1.2-23.8
			c0.6-15.5,0.7-31,0-46.6c-0.7-14.7-2.5-29.2-5-43.7c-1.3-7.6-2.7-15.1-4.2-22.6c-1.3-6.5-2-14.7-5.4-20.5
			c-0.1-0.1-0.2-0.2-0.3-0.2c-0.3,0-0.5,0.3-0.6,0.5c-0.7,6.4,1.9,13.8,3.2,20.1c1.5,7.2,3,14.4,4.3,21.6
			c2.6,15.2,4.5,30.4,5.1,45.8c0.4,9.3,0.3,18.6,0,27.9c-0.1-0.6-0.1-1.1-0.2-1.7c0,0.6,0,1.1,0,1.7c-0.3-4.2-0.7-8.4-1.2-12.6
			c-2.1-19.6-5.6-39-10.4-58.2c-9.7-38.8-25.9-75.6-38-113.7c-3.4-10.8-6.8-21.6-9.9-32.4c-2.1-7.3-4.1-14.6-6.6-21.8
			c-1.8-8.9-3.3-17.9-4.2-27c-1-9.2-1.3-18.2-1.3-27.2c-4.4,0.1-8.8,0.2-13.2,0.2c1.4,14,1.6,28.3,2.2,42.5
			c1.3,32.4,5.2,64.4,12.1,96.2c1.9,9.1,4.3,18,6.9,26.9c2.5,8.5,4.7,17.6,8.7,25.6c0.4,0.8,1.7,0.2,1.5-0.6
			c-2.3-8-5.9-15.6-8.3-23.6s-4.4-16.1-6.2-24.2c-3.8-16.9-6.3-33.8-7.5-51.1c-0.3-4.2-0.6-8.5-0.9-12.7c1.1-4.4,1.9-8.9,2.4-13.5
			c1,7.4,2.1,14.7,3.3,22c2.9,18,6.4,36.1,10.7,53.8c8.6,34.5,20.4,68.2,29.9,102.5c3.3,12.1,6.4,24.4,8.9,36.7
			c2.2,12.8,3.9,25.6,5.2,38.5c1.1,10.7,1.9,21.4,2.2,32.1c-0.3,6-0.6,11.9-0.9,17.9c-0.9,18-1.7,36-4.2,53.8
			c-2.4,16.9-6.6,33.8-14.3,49c-4,7.9-8.9,15.2-13.8,22.5c1-2.9,1.9-5.9,2.8-8.8c2.4-7.8,5.2-15.5,8-23.3c2.5-7,6.7-15.1,6.8-22.7
			c0-0.4-0.6-0.7-0.9-0.4c-5,5.9-7.1,14.9-9.8,22c-2.3,6-4.5,12-7,18c-2.5,4-4.6,8.6-6.9,12.6c-2,3.5-3.8,7.1-5.5,10.7
			c1.7-10.5,3.4-21.2,2.7-31.7c-0.1-1.2-1.8-1.6-2.2-0.3c-3.8,13.9-6.4,28.4-9.1,42.6c-0.7,3.9-1.4,7.7-1.9,11.6
			c-2.6-15.6-5.5-31.2-9.1-46.7c-4.6-19.7-11.7-39.1-14-59.2c-2.2-19.6,0.2-39.2,3-58.6s7-38.5,10.6-57.8c4-21.4,5.8-43,4.5-64.7
			c0-0.6-0.9-0.6-0.9,0c0,20.6-1.7,41-5.4,61.3c-3.5,19.6-8.8,38.7-13.3,58.1c-4.2,18.3-6.3,37.5-4.9,56.2
			c1.5,19.9,7.9,38.7,12.7,57.9c4.2,16.9,7.6,34.1,10.5,51.3c-4.2-9.2-8.9-18.2-13.8-26.9c-2-3.6-4.2-7-6.5-10.4
			c-8.3-14.3-17.3-28-24.2-43.2c-7.9-17.6-13.3-36.2-16.6-55.2c-6.8-39.5-5.1-80.2,2.7-119.3c4.5-22.6,10.3-44.9,16.7-67
			c0.3-1.2-1.5-1.7-1.8-0.5c-24.5,75.8-41.4,161.5-10.6,238.1c8.2,20.3,19.3,40.7,32,58.5c0.4,0.7,0.8,1.4,1.2,2.2
			c1.4,2.6,2.8,5.3,4.1,7.9c-3.1-4-6.4-7.8-9.8-11.5c-11.5-12.5-24.9-23.6-35.3-37.1c-21.1-27.3-31.7-64.7-34-98.7
			c-1.3-19.7,1.3-38.7,3-58.2c0.1-1.1-1.5-1.2-1.9-0.3c-5.4,16.2-6.1,34.4-5.6,51.4s2.9,34.1,7.1,50.5c4.3,16.7,10.8,33.5,19.3,48.6
			c-17.6-14.4-31.6-33.1-38.5-55c-4.3-13.4-5.2-26.7-4.6-40.7c0.3-7.3,0.6-14.6,0.9-22c0.1-3.9,0.6-8.4,0.6-12.7
			c0.4-4.4,1-8.7,1.7-13.1c3-18.8,8.3-37.1,13.1-55.5c9.3-35.9,10.8-72.5,4.8-109.1c-1.7-10-3.5-20.2-6.1-30.1c-1.1-4-2.1-8-3.2-12
			c-3.6-20.9-7-41.9-9.8-62.9c-1.8-13.4-3.2-26.7-2.1-39.9c-2.3-0.1-4.7-0.2-7-0.3c-0.7,9.5-0.4,19.1,0.8,28.8
			c2.7,20.9,5.9,41.8,9.5,62.5c3.3,19,6.8,38,10.3,56.9c0.2,7.4,1.2,14.8,1.5,22c0.4,10.5,0.3,21.1-0.4,31.6
			c-1.2,18.8-5.4,36.4-10.8,54.2c-3.4,7.7-5.8,15.9-8.2,23.8c-3.4,11-6.7,22.1-9.4,33.4c-5.2,21.3-8.6,43.3-6.7,65.3
			c1.3,15,5,30,11.8,43.5c35.5,27.4,70.9,56.6,94.3,81.7c23.6,25.2,29.7,43.8,33,49.6c1.3,2.3,2.4,2.8,3.3,2.2
			c1.1-1.4,1.8-4.6,2.4-8.6c1.1-7.4,15.9-25.8,28.9-46.8c13.1-21,25.4-48.9,25.4-48.9c0,0.1,0.1,0.2,0.1,0.3
			c0.2-0.4,0.3-0.7,0.3-0.7c6.5,16.7,37,45.9,40,48.7c0.6-2.5,3.2-12,9.2-25.7c0.3-1.6,0.6-3.3,0.8-5
			C1213.6,1355.5,1213.7,1354.4,1213.9,1353.4z"/>
		<path fill="#9F592A" d="M822.6,908.9c1.2,9,3.9,17.8,6.4,26.5c5.1,17.7,11.1,35.1,20.1,51.1c1.4,2.4,5.1,0.2,3.7-2.2
			c-8.3-14.7-13.6-30.6-18.1-46.7c-5-17.6-9.2-34.5-7.1-53c0.3-3.1,0.8-6.1,1.3-9.1c-1.6-0.2-3.2-0.4-4.8-0.6
			c-0.4,2.2-0.8,4.3-1.1,6.5C821.7,890.5,821.4,899.7,822.6,908.9z"/>
		<path opacity="0.3" fill="#091426" enable-background="new    " d="M822.6,908.9c1.2,9,3.9,17.8,6.4,26.5
			c5.1,17.7,11.1,35.1,20.1,51.1c1.4,2.4,5.1,0.2,3.7-2.2c-8.3-14.7-13.6-30.6-18.1-46.7c-5-17.6-9.2-34.5-7.1-53
			c0.3-3.1,0.8-6.1,1.3-9.1c-1.6-0.2-3.2-0.4-4.8-0.6c-0.4,2.2-0.8,4.3-1.1,6.5C821.7,890.5,821.4,899.7,822.6,908.9z"/>
		<path fill="#9F592A" d="M895.2,911.4c1,19.3,4.4,40.2,11.7,58.7c3.2,10.3,7.3,20.6,13.4,28.9c0.2,0.3,0.7,0.1,0.6-0.3
			c-2.6-7.7-5.9-15.1-8.9-22.6c-6-17.9-11.4-35.7-12.6-54.8c-0.8-12.8-0.5-25.8,1.2-38.6c-1.5-0.1-3.1-0.3-4.6-0.4
			C894.9,892.1,894.7,901.9,895.2,911.4z"/>
		<path opacity="0.3" fill="#091426" enable-background="new    " d="M895.2,911.4c1,19.3,4.4,40.2,11.7,58.7
			c3.2,10.3,7.3,20.6,13.4,28.9c0.2,0.3,0.7,0.1,0.6-0.3c-2.6-7.7-5.9-15.1-8.9-22.6c-6-17.9-11.4-35.7-12.6-54.8
			c-0.8-12.8-0.5-25.8,1.2-38.6c-1.5-0.1-3.1-0.3-4.6-0.4C894.9,892.1,894.7,901.9,895.2,911.4z"/>
		<path fill="#9F592A" d="M954.5,896.1c-3.6,15.4-5.9,31-6.2,46.8c-0.5,32,6.1,63.2,9.7,94.9c1,8.6,1.6,17.3,1.8,26
			c0.1,7-1,14.6-0.5,21.7c-0.1,1-0.2,2-0.3,2.9c-1.2,10.9-2.8,21.8-4.6,32.7c-3.5,20.7-8.7,41-13.9,61.3c-5.2,20-8.2,39.5-7.5,60.2
			c0.7,19.9,2.3,40.1,6.7,59.5c1.4,6.1,3,12.7,5.1,19.2c-0.2-0.1-0.3-0.2-0.5-0.3c-14.9-20.5-25.2-43.8-30.3-68.9
			c-6.5-31.6-8.7-65-5.3-97.2c2-18.4,6.8-36.4,13.2-53.7c0.2-0.4-0.6-0.7-0.8-0.3c-14.9,29.1-18.2,63.8-17.1,96.1
			c1.1,32.7,4.5,66.6,17.9,96.8c3,6.7,6.4,13.3,10.3,19.5c-0.9-0.6-1.9-1.3-2.8-2c-3.6-2.9-6.8-6.4-9.6-10.1
			c-5.8-7.7-10.2-16.4-13.5-25.4c-3.4-9.1-6.1-18.6-8.4-28.1c-2.3-9.6-3-20.2-6.2-29.6c-0.2-0.4-0.8-0.4-0.8,0.1
			c-0.7,10.1,2.5,21.3,4.8,31.1c2.2,10,4.8,19.9,8.3,29.5c-6.1-11.1-11.6-22.7-17-34c-5.6-11.8-10.5-23.8-13.8-36.2
			c-0.7-3.5-1.2-7-1.7-10.5c-1.2-9.1-1.5-18.4-1.2-27.6c0.5-18.7,3.7-36.8,7.4-55.1c1.4-6.6,2.8-13.3,4.2-19.9
			c0.3-0.5,0.6-1,0.8-1.6c5.6-20.2,8.1-40.9,8.7-61.8c0.3-10.7,0-21.4-1.7-32c-1.7-10.3-5.2-20.2-9.1-29.9
			c-7.8-19.5-16.2-38.7-22.6-58.7c-3.6-11-6.1-22.2-6.8-33.5c-6-0.6-12-1.3-17.8-2c-0.6,7.1-0.7,14.4-0.3,21.5
			c2.5,41.7,20.5,79.7,32.1,119.2c3.4,11.5,6.2,23.2,8,35c1.3,8.5,1,17.1,1.5,25.6c-0.1,1.3-0.3,2.6-0.4,3.9
			c-0.8,6.2-1.8,12.4-2.9,18.6c-1.5,6.7-2.9,13.5-4,20.3c-0.2,1.3-0.4,2.5-0.6,3.8c-0.1,0.4-0.2,0.8-0.3,1.2
			c-1.7,6.9-3.3,13.8-4.6,20.7c-2.5,13.3-4.5,26.8-5.8,40.3c-1.2,13.2-2,26.3-0.1,39.4c0.1,0.5,0.2,1,0.2,1.5
			c-5.4-9.9-8-21.2-9-32.6c-1.2-13.7-0.8-27.6-0.2-41.4c0.5-3.9,0.6-7.9,1-11.7c0.6-5.9,1.3-11.8,1.7-17.7
			c0.8-11.5,1.2-22.9,1.6-34.4c0.6-18.6,2-39-5.5-56.6c-3.7-15-9.5-29.2-14.9-43.7c-6.3-16.8-11-34-13.3-51.8
			c-1.1-8.7-1.6-17.4-1.6-26.1c0-8.6,1.3-17.5,0.6-26.1c-0.1-0.7-1-0.8-1.2-0.2c-2.8,7.6-3.1,16.4-3.4,24.4
			c-0.3,8.7,0,17.5,0.9,26.2c1.7,17.3,5.9,34.2,11.8,50.6c5.9,16.4,12.9,32.5,16.8,49.6c3.3,14.4,4.6,29.1,4.7,43.8
			c-0.2,4-0.5,8-0.7,11.9c-0.2,4.7-0.4,9.3-0.6,14c-1.4,14-2.3,28.2-3,42.3c-0.5-1.4-1.1-2.8-1.5-4.2c-2.6-7.2-5-14.4-7.1-21.7
			c-4.3-15.1-6.3-30.4-7.2-46c-0.9-14.7-1.2-29.5-2.3-44.2c-1.1-13.8-2.4-28.9-8.5-41.5c-0.2-0.4-0.7-0.1-0.7,0.3
			c2.4,15,5.5,29.6,6.5,44.9c1,14.7,1.1,29.5,2,44.2c0.9,14.3,2.6,28.6,6.2,42.5c3.6,13.7,8.7,26.9,12,40.7
			c-0.1,2.9-0.2,5.8-0.3,8.7c-2.6-6.7-5.7-13.2-8.8-19.6c-3.4-7.1-7.1-14-11.3-20.7c-4.3-6.8-9-13.3-12.7-20.4
			c-7.2-13.6-11.6-28.5-14-43.6c-0.5-3-0.9-6.1-1.3-9.1c0.3-5-0.7-10.3-0.7-15.4c0-6.8,0.3-13.7,0.1-20.5c-0.2-12.6-1.8-25-5.1-37.2
			c-3-11.4-7.3-22.4-12.1-33.2c-2.8-6.3-5.7-12.4-8.3-18.8c-2.4-5.9-5.3-11.8-7.5-17.7c-0.3-0.7-1.3-0.4-1.1,0.3
			c1.6,6,2.9,11.6,5.2,17.4c2.2,5.6,4.5,11.3,6.8,16.9c4.7,11.6,9.6,23.1,12.6,35.3c3.1,12.7,4.5,25.8,4.6,38.9c0,1.5,0,3,0,4.4
			c-0.4,5.1,0.1,10.7,0.2,15.4c0.1,7.1,0.5,14.1,1.4,21.1c2,14.5,5.8,28.7,11.9,42.1c6.5,14.3,16.6,26.6,23.6,40.7
			c3.5,7,6.7,14.2,9.9,21.4c1.8,4.2,3.5,8.4,4.6,12.9c1,4,1.1,8.1,1.9,12.1c0.1,0.4,0.3,0.7,0.5,0.9c0.2,2.5,0.4,5.1,0.6,7.7
			c0.1,1.2,0.1,2.5,0.2,3.7c-0.1,0.8-0.1,1.6-0.2,2.4c-0.4,4.2-2,7.5-3.5,11.1c-0.3-0.2-0.5-0.3-0.8-0.5c-1.6-1.1-3.1-2.5-4.6-3.7
			c-1.1-0.9-2.4-1.8-3.6-2.8c-0.3-0.8-0.7-1.6-1-2.3c-3.2-8.1-5.9-16.5-8.8-24.7c-2.2-6.2-4.8-12.2-7.5-18.1
			c-5.4-15.7-12.1-30.9-19.4-45.8c-3.7-7.6-7.4-15.4-11.4-23c-1.8-4.5-4-8.9-6.4-13.2c-3.6-7.3-7.9-14.2-12.3-21.1
			c-9-14.1-17.6-28-22.8-44c-5.4-16.7-8.4-34-10.7-51.4c-1.1-8.3-1.9-16.7-1.7-25c0.1-4.5,0.4-9,1.1-13.5c0.6-4.1,2.2-8.4,2-12.5
			c0-0.7-0.9-1.2-1.4-0.6c-4.8,5.2-5.4,14.5-5.9,21.3c-0.7,8.9,0,17.9,1,26.8c1.9,17.5,4.2,35.2,8.7,52.2c2.3,8.8,5.5,17.1,9.2,25.2
			c-1.4-2-2.8-4.1-4-6.2c-3.5-6.2-6-13-8.9-19.5c-0.5-1.2-1.1-2.4-1.7-3.5c-1.5-4.7-2.9-9.5-4-14.3c-3.5-14.7-5.1-29.8-5.9-44.9
			c-0.7-14.6-0.8-29.3,0.3-43.8c1.2-15.9,4.5-30.9,8-46.4c0.3-1.1-1.4-1.9-1.9-0.8c-6.7,13.3-9.3,28.8-10.8,43.5
			c-0.9,8.7-1.4,17.6-1.5,26.4c-0.1-3.8-0.2-7.6-0.2-11.4c-0.4-21.3,0.4-41.9,5.2-62.5c-1.3-0.2-2.5-0.4-3.8-0.6
			c-6.6,19.8-6.5,41.7-6.1,62.2c0.4,18.7,0.8,37.6,2.9,56.2c-2.9-7.7-5.3-15.6-7-23.6c-1.5-6.8-2.5-13.6-3.1-20.5
			c0.2-1.9,0.4-3.8,0.6-5.7c1.8-15.3,1.2-30.3,1.6-45.6c0.2-8.2,0.9-16.4,2-24.5c-3-0.5-5.9-1-8.8-1.6c0.8,14.3-2.4,26.4-4,74
			c-1.6,49.1,6.8,67.5,15.9,83.9c9,16.3,27.6,45.3,51.7,76.9c24.1,31.6,34.4,65.1,41.4,89.1c7.1,24,16.5,56.8,16.5,56.8
			s21.7,9.9,51.3,32.3c6,4.5,13.9,10.4,22.9,17.3c0.1,0,0.1,0.1,0.2,0.1c14.5,11.5,42.2,36.5,42.2,36.5s5.7,3.1,14.1,10.3
			c2.1,1.8,4.4,3.9,6.8,6.2c11.2,10.1,22.2,19.7,32.1,27.9c-0.2-0.5-0.4-1-0.7-1.4c2.1,1.3,4.2,2.5,6.4,2.9c1.8,0.3,2.9-1.6,1.7-3
			c-2.5-2.9-6.8-3.7-10.3-5.1c-0.9-0.4-1.7-0.8-2.6-1.2c-0.5-0.6-1.1-1.2-1.6-1.9c-0.7-0.8-1.4-1.6-2.1-2.4
			c-0.3-0.4-0.6-0.9-0.8-1.3c-4.2-7-7.8-14.5-10.8-22.2c-6.1-16-9.4-32.8-11.3-49.7c-2-17.1-2-34.6-1.1-51.7
			c0.9-18,3.2-35.9,8.6-53.1c0.5-1.4-1.8-2-2.3-0.6c-11.5,34.7-12.5,72.2-9.3,108.3c1.5,17,5,33.9,11,49.9c1.3,3.5,2.8,7,4.4,10.5
			c-12.5-10.2-17.8-29-21.2-43.9c-4.4-19.4-6-39.5-6.6-59.4c-0.6-20.3,2.2-39.5,7.6-59.1c5.3-19,10.1-38,13.7-57.4
			c1.9-10.6,3.5-21.3,4.8-32c0.3-2.1,0.5-4.3,0.8-6.5c1-4,1.2-8.4,1.3-12.6c0.4-5.2,0.5-10.4-0.1-15.4c0-0.1-0.1-0.2-0.1-0.3
			c-0.2-3.8-0.4-7.6-0.7-11.4c-1.2-15.2-3.4-30.3-5.6-45.3c-2.4-16.1-4.7-32.3-5.4-48.6c-0.7-16.2,0.9-32.4,4.1-48.3
			c1.2-6.1,2.7-12,4.2-18c-1.8-0.1-3.5-0.2-5.3-0.3C956.1,889.8,955.3,892.9,954.5,896.1z"/>
		<path opacity="0.3" fill="#091426" enable-background="new    " d="M954.5,896.1c-3.6,15.4-5.9,31-6.2,46.8
			c-0.5,32,6.1,63.2,9.7,94.9c1,8.6,1.6,17.3,1.8,26c0.1,7-1,14.6-0.5,21.7c-0.1,1-0.2,2-0.3,2.9c-1.2,10.9-2.8,21.8-4.6,32.7
			c-3.5,20.7-8.7,41-13.9,61.3c-5.2,20-8.2,39.5-7.5,60.2c0.7,19.9,2.3,40.1,6.7,59.5c1.4,6.1,3,12.7,5.1,19.2
			c-0.2-0.1-0.3-0.2-0.5-0.3c-14.9-20.5-25.2-43.8-30.3-68.9c-6.5-31.6-8.7-65-5.3-97.2c2-18.4,6.8-36.4,13.2-53.7
			c0.2-0.4-0.6-0.7-0.8-0.3c-14.9,29.1-18.2,63.8-17.1,96.1c1.1,32.7,4.5,66.6,17.9,96.8c3,6.7,6.4,13.3,10.3,19.5
			c-0.9-0.6-1.9-1.3-2.8-2c-3.6-2.9-6.8-6.4-9.6-10.1c-5.8-7.7-10.2-16.4-13.5-25.4c-3.4-9.1-6.1-18.6-8.4-28.1
			c-2.3-9.6-3-20.2-6.2-29.6c-0.2-0.4-0.8-0.4-0.8,0.1c-0.7,10.1,2.5,21.3,4.8,31.1c2.2,10,4.8,19.9,8.3,29.5
			c-6.1-11.1-11.6-22.7-17-34c-5.6-11.8-10.5-23.8-13.8-36.2c-0.7-3.5-1.2-7-1.7-10.5c-1.2-9.1-1.5-18.4-1.2-27.6
			c0.5-18.7,3.7-36.8,7.4-55.1c1.4-6.6,2.8-13.3,4.2-19.9c0.3-0.5,0.6-1,0.8-1.6c5.6-20.2,8.1-40.9,8.7-61.8c0.3-10.7,0-21.4-1.7-32
			c-1.7-10.3-5.2-20.2-9.1-29.9c-7.8-19.5-16.2-38.7-22.6-58.7c-3.6-11-6.1-22.2-6.8-33.5c-6-0.6-12-1.3-17.8-2
			c-0.6,7.1-0.7,14.4-0.3,21.5c2.5,41.7,20.5,79.7,32.1,119.2c3.4,11.5,6.2,23.2,8,35c1.3,8.5,1,17.1,1.5,25.6
			c-0.1,1.3-0.3,2.6-0.4,3.9c-0.8,6.2-1.8,12.4-2.9,18.6c-1.5,6.7-2.9,13.5-4,20.3c-0.2,1.3-0.4,2.5-0.6,3.8
			c-0.1,0.4-0.2,0.8-0.3,1.2c-1.7,6.9-3.3,13.8-4.6,20.7c-2.5,13.3-4.5,26.8-5.8,40.3c-1.2,13.2-2,26.3-0.1,39.4
			c0.1,0.5,0.2,1,0.2,1.5c-5.4-9.9-8-21.2-9-32.6c-1.2-13.7-0.8-27.6-0.2-41.4c0.5-3.9,0.6-7.9,1-11.7c0.6-5.9,1.3-11.8,1.7-17.7
			c0.8-11.5,1.2-22.9,1.6-34.4c0.6-18.6,2-39-5.5-56.6c-3.7-15-9.5-29.2-14.9-43.7c-6.3-16.8-11-34-13.3-51.8
			c-1.1-8.7-1.6-17.4-1.6-26.1c0-8.6,1.3-17.5,0.6-26.1c-0.1-0.7-1-0.8-1.2-0.2c-2.8,7.6-3.1,16.4-3.4,24.4
			c-0.3,8.7,0,17.5,0.9,26.2c1.7,17.3,5.9,34.2,11.8,50.6c5.9,16.4,12.9,32.5,16.8,49.6c3.3,14.4,4.6,29.1,4.7,43.8
			c-0.2,4-0.5,8-0.7,11.9c-0.2,4.7-0.4,9.3-0.6,14c-1.4,14-2.3,28.2-3,42.3c-0.5-1.4-1.1-2.8-1.5-4.2c-2.6-7.2-5-14.4-7.1-21.7
			c-4.3-15.1-6.3-30.4-7.2-46c-0.9-14.7-1.2-29.5-2.3-44.2c-1.1-13.8-2.4-28.9-8.5-41.5c-0.2-0.4-0.7-0.1-0.7,0.3
			c2.4,15,5.5,29.6,6.5,44.9c1,14.7,1.1,29.5,2,44.2c0.9,14.3,2.6,28.6,6.2,42.5c3.6,13.7,8.7,26.9,12,40.7
			c-0.1,2.9-0.2,5.8-0.3,8.7c-2.6-6.7-5.7-13.2-8.8-19.6c-3.4-7.1-7.1-14-11.3-20.7c-4.3-6.8-9-13.3-12.7-20.4
			c-7.2-13.6-11.6-28.5-14-43.6c-0.5-3-0.9-6.1-1.3-9.1c0.3-5-0.7-10.3-0.7-15.4c0-6.8,0.3-13.7,0.1-20.5c-0.2-12.6-1.8-25-5.1-37.2
			c-3-11.4-7.3-22.4-12.1-33.2c-2.8-6.3-5.7-12.4-8.3-18.8c-2.4-5.9-5.3-11.8-7.5-17.7c-0.3-0.7-1.3-0.4-1.1,0.3
			c1.6,6,2.9,11.6,5.2,17.4c2.2,5.6,4.5,11.3,6.8,16.9c4.7,11.6,9.6,23.1,12.6,35.3c3.1,12.7,4.5,25.8,4.6,38.9c0,1.5,0,3,0,4.4
			c-0.4,5.1,0.1,10.7,0.2,15.4c0.1,7.1,0.5,14.1,1.4,21.1c2,14.5,5.8,28.7,11.9,42.1c6.5,14.3,16.6,26.6,23.6,40.7
			c3.5,7,6.7,14.2,9.9,21.4c1.8,4.2,3.5,8.4,4.6,12.9c1,4,1.1,8.1,1.9,12.1c0.1,0.4,0.3,0.7,0.5,0.9c0.2,2.5,0.4,5.1,0.6,7.7
			c0.1,1.2,0.1,2.5,0.2,3.7c-0.1,0.8-0.1,1.6-0.2,2.4c-0.4,4.2-2,7.5-3.5,11.1c-0.3-0.2-0.5-0.3-0.8-0.5c-1.6-1.1-3.1-2.5-4.6-3.7
			c-1.1-0.9-2.4-1.8-3.6-2.8c-0.3-0.8-0.7-1.6-1-2.3c-3.2-8.1-5.9-16.5-8.8-24.7c-2.2-6.2-4.8-12.2-7.5-18.1
			c-5.4-15.7-12.1-30.9-19.4-45.8c-3.7-7.6-7.4-15.4-11.4-23c-1.8-4.5-4-8.9-6.4-13.2c-3.6-7.3-7.9-14.2-12.3-21.1
			c-9-14.1-17.6-28-22.8-44c-5.4-16.7-8.4-34-10.7-51.4c-1.1-8.3-1.9-16.7-1.7-25c0.1-4.5,0.4-9,1.1-13.5c0.6-4.1,2.2-8.4,2-12.5
			c0-0.7-0.9-1.2-1.4-0.6c-4.8,5.2-5.4,14.5-5.9,21.3c-0.7,8.9,0,17.9,1,26.8c1.9,17.5,4.2,35.2,8.7,52.2c2.3,8.8,5.5,17.1,9.2,25.2
			c-1.4-2-2.8-4.1-4-6.2c-3.5-6.2-6-13-8.9-19.5c-0.5-1.2-1.1-2.4-1.7-3.5c-1.5-4.7-2.9-9.5-4-14.3c-3.5-14.7-5.1-29.8-5.9-44.9
			c-0.7-14.6-0.8-29.3,0.3-43.8c1.2-15.9,4.5-30.9,8-46.4c0.3-1.1-1.4-1.9-1.9-0.8c-6.7,13.3-9.3,28.8-10.8,43.5
			c-0.9,8.7-1.4,17.6-1.5,26.4c-0.1-3.8-0.2-7.6-0.2-11.4c-0.4-21.3,0.4-41.9,5.2-62.5c-1.3-0.2-2.5-0.4-3.8-0.6
			c-6.6,19.8-6.5,41.7-6.1,62.2c0.4,18.7,0.8,37.6,2.9,56.2c-2.9-7.7-5.3-15.6-7-23.6c-1.5-6.8-2.5-13.6-3.1-20.5
			c0.2-1.9,0.4-3.8,0.6-5.7c1.8-15.3,1.2-30.3,1.6-45.6c0.2-8.2,0.9-16.4,2-24.5c-3-0.5-5.9-1-8.8-1.6c0.8,14.3-2.4,26.4-4,74
			c-1.6,49.1,6.8,67.5,15.9,83.9c9,16.3,27.6,45.3,51.7,76.9c24.1,31.6,34.4,65.1,41.4,89.1c7.1,24,16.5,56.8,16.5,56.8
			s21.7,9.9,51.3,32.3c6,4.5,13.9,10.4,22.9,17.3c0.1,0,0.1,0.1,0.2,0.1c14.5,11.5,42.2,36.5,42.2,36.5s5.7,3.1,14.1,10.3
			c2.1,1.8,4.4,3.9,6.8,6.2c11.2,10.1,22.2,19.7,32.1,27.9c-0.2-0.5-0.4-1-0.7-1.4c2.1,1.3,4.2,2.5,6.4,2.9c1.8,0.3,2.9-1.6,1.7-3
			c-2.5-2.9-6.8-3.7-10.3-5.1c-0.9-0.4-1.7-0.8-2.6-1.2c-0.5-0.6-1.1-1.2-1.6-1.9c-0.7-0.8-1.4-1.6-2.1-2.4
			c-0.3-0.4-0.6-0.9-0.8-1.3c-4.2-7-7.8-14.5-10.8-22.2c-6.1-16-9.4-32.8-11.3-49.7c-2-17.1-2-34.6-1.1-51.7
			c0.9-18,3.2-35.9,8.6-53.1c0.5-1.4-1.8-2-2.3-0.6c-11.5,34.7-12.5,72.2-9.3,108.3c1.5,17,5,33.9,11,49.9c1.3,3.5,2.8,7,4.4,10.5
			c-12.5-10.2-17.8-29-21.2-43.9c-4.4-19.4-6-39.5-6.6-59.4c-0.6-20.3,2.2-39.5,7.6-59.1c5.3-19,10.1-38,13.7-57.4
			c1.9-10.6,3.5-21.3,4.8-32c0.3-2.1,0.5-4.3,0.8-6.5c1-4,1.2-8.4,1.3-12.6c0.4-5.2,0.5-10.4-0.1-15.4c0-0.1-0.1-0.2-0.1-0.3
			c-0.2-3.8-0.4-7.6-0.7-11.4c-1.2-15.2-3.4-30.3-5.6-45.3c-2.4-16.1-4.7-32.3-5.4-48.6c-0.7-16.2,0.9-32.4,4.1-48.3
			c1.2-6.1,2.7-12,4.2-18c-1.8-0.1-3.5-0.2-5.3-0.3C956.1,889.8,955.3,892.9,954.5,896.1z"/>
		<path fill="#9F592A" d="M1134.1,962.5c2,11.2,4.2,22.5,7,33.6c2.6,10.4,5.8,20,12.1,28.7c0.2,0.3,0.6,0.4,0.9,0.4
			c0.6-0.1,1-0.7,0.6-1.4c-9.8-19.2-13.7-41.3-17.4-62.3c-4-22.6-6.5-45.5-7.7-68.4c-0.1-1.4-0.1-2.8-0.2-4.3
			c-1.4,0-2.9,0.1-4.3,0.1c0.2,4.3,0.5,8.7,0.9,13C1127.8,922.3,1130.5,942.4,1134.1,962.5z"/>
		<path opacity="0.3" fill="#091426" enable-background="new    " d="M1134.1,962.5c2,11.2,4.2,22.5,7,33.6
			c2.6,10.4,5.8,20,12.1,28.7c0.2,0.3,0.6,0.4,0.9,0.4c0.6-0.1,1-0.7,0.6-1.4c-9.8-19.2-13.7-41.3-17.4-62.3
			c-4-22.6-6.5-45.5-7.7-68.4c-0.1-1.4-0.1-2.8-0.2-4.3c-1.4,0-2.9,0.1-4.3,0.1c0.2,4.3,0.5,8.7,0.9,13
			C1127.8,922.3,1130.5,942.4,1134.1,962.5z"/>
		<path fill="#9F592A" d="M1178.3,1048c6.6,19.8,13.5,39.4,18.1,59.9c4.7,20.8,6.7,42.1,6.1,63.4c-0.6,22.5-4.8,44.2-9.2,66.2
			c-3.6,18.2-6.4,37.2,2.5,54.3c3.6,6.9,9.7,14.3,17.2,17.3c-4.2,2.5-8.4,4.9-13.6,5.4c-0.4,0-0.8,0.1-1.2,0.1c0.5,0,0.9,0,1.4-0.1
			c5.3-0.5,9.4-3,13.8-5.3c-7.8-3-13.8-10.5-17.4-17.4c-8.9-17.2-6.1-36.2-2.5-54.3c4.4-22,8.6-43.7,9.2-66.2
			c0.5-21.3-1.4-42.6-6.1-63.4c-4.6-20.4-11.5-40-18.1-59.9c-0.2-0.6,0.4-1.1,0.9-1.1C1178.9,1046.7,1178.1,1047.2,1178.3,1048z"/>
		<path opacity="0.3" fill="#091426" enable-background="new    " d="M1178.3,1048c6.6,19.8,13.5,39.4,18.1,59.9
			c4.7,20.8,6.7,42.1,6.1,63.4c-0.6,22.5-4.8,44.2-9.2,66.2c-3.6,18.2-6.4,37.2,2.5,54.3c3.6,6.9,9.7,14.3,17.2,17.3
			c-4.2,2.5-8.4,4.9-13.6,5.4c-0.4,0-0.8,0.1-1.2,0.1c0.5,0,0.9,0,1.4-0.1c5.3-0.5,9.4-3,13.8-5.3c-7.8-3-13.8-10.5-17.4-17.4
			c-8.9-17.2-6.1-36.2-2.5-54.3c4.4-22,8.6-43.7,9.2-66.2c0.5-21.3-1.4-42.6-6.1-63.4c-4.6-20.4-11.5-40-18.1-59.9
			c-0.2-0.6,0.4-1.1,0.9-1.1C1178.9,1046.7,1178.1,1047.2,1178.3,1048z"/>
		<path fill="#9F592A" d="M1170.3,1017.1c4.1,7.4,8.6,14.6,11.8,22.5c3,7.4,5.2,15.2,7.5,22.9c5.1,17.4,9.8,34.9,13.4,52.7
			c3.6,17.8,6.5,35.6,7,53.8c0.5,18.1-1.8,35.5-6.8,52.9c-1.1,4-2.6,8-4.2,12.1c0,0.3-0.1,0.6-0.1,0.9c1.7-4.4,3.3-8.8,4.5-13
			c5-17.4,7.2-34.9,6.8-52.9c-0.5-18.2-3.4-36-7-53.8s-8.3-35.3-13.4-52.7c-2.2-7.7-4.5-15.5-7.5-22.9c-3.2-7.9-7.7-15-11.8-22.5
			c-0.2-0.4,0.1-0.8,0.6-0.8C1170.6,1016,1170,1016.6,1170.3,1017.1z"/>
		<path opacity="0.3" fill="#091426" enable-background="new    " d="M1170.3,1017.1c4.1,7.4,8.6,14.6,11.8,22.5
			c3,7.4,5.2,15.2,7.5,22.9c5.1,17.4,9.8,34.9,13.4,52.7c3.6,17.8,6.5,35.6,7,53.8c0.5,18.1-1.8,35.5-6.8,52.9
			c-1.1,4-2.6,8-4.2,12.1c0,0.3-0.1,0.6-0.1,0.9c1.7-4.4,3.3-8.8,4.5-13c5-17.4,7.2-34.9,6.8-52.9c-0.5-18.2-3.4-36-7-53.8
			s-8.3-35.3-13.4-52.7c-2.2-7.7-4.5-15.5-7.5-22.9c-3.2-7.9-7.7-15-11.8-22.5c-0.2-0.4,0.1-0.8,0.6-0.8
			C1170.6,1016,1170,1016.6,1170.3,1017.1z"/>
		<path fill="#9F592A" d="M1191.4,1145.5c3,11,0.5,24.9-2,35.8c-2.6,11.3-4.9,22.5-6.9,33.9c-1.1,6.5-2.2,13.1-3.1,19.7
			c-0.1,1-0.1,2-0.2,3c1.1-7.6,2.3-15.1,3.5-22.7c1.9-11.4,4.3-22.6,6.9-33.9c2.5-10.9,5-24.8,2-35.8c-0.1-0.3,0.1-0.6,0.4-0.6
			C1191.7,1144.8,1191.3,1145.1,1191.4,1145.5z"/>
		<path opacity="0.3" fill="#091426" enable-background="new    " d="M1191.4,1145.5c3,11,0.5,24.9-2,35.8
			c-2.6,11.3-4.9,22.5-6.9,33.9c-1.1,6.5-2.2,13.1-3.1,19.7c-0.1,1-0.1,2-0.2,3c1.1-7.6,2.3-15.1,3.5-22.7
			c1.9-11.4,4.3-22.6,6.9-33.9c2.5-10.9,5-24.8,2-35.8c-0.1-0.3,0.1-0.6,0.4-0.6C1191.7,1144.8,1191.3,1145.1,1191.4,1145.5z"/>
		<path fill="#9F592A" d="M1145.9,957.8c4.3,18.6,12.8,45.2,33.5,51c0.7,2.1,1.5,4.2,2.3,6.2c5.7,15.2,13.9,29.3,20.4,44.1
			c13.7,30.9,24.8,63.9,21.5,98.2c-0.9,9.4-3,18.6-5.8,27.6c-0.9,3.2-2.2,6.4-3.5,9.6c0,0.2,0,0.4,0,0.6c1.3-3.4,2.7-6.8,3.7-10.2
			c2.8-9,4.9-18.2,5.8-27.6c3.3-34.3-7.8-67.3-21.5-98.2c-6.6-14.8-14.7-28.9-20.4-44.1c-0.8-2.1-1.5-4.1-2.3-6.2
			c-20.7-5.8-29.2-32.4-33.5-51c-5.3-22.8-5.5-46.1-5.4-69.4c-0.1,0-0.1,0-0.2,0C1140.4,911.7,1140.6,935,1145.9,957.8z"/>
		<path opacity="0.3" fill="#091426" enable-background="new    " d="M1145.9,957.8c4.3,18.6,12.8,45.2,33.5,51
			c0.7,2.1,1.5,4.2,2.3,6.2c5.7,15.2,13.9,29.3,20.4,44.1c13.7,30.9,24.8,63.9,21.5,98.2c-0.9,9.4-3,18.6-5.8,27.6
			c-0.9,3.2-2.2,6.4-3.5,9.6c0,0.2,0,0.4,0,0.6c1.3-3.4,2.7-6.8,3.7-10.2c2.8-9,4.9-18.2,5.8-27.6c3.3-34.3-7.8-67.3-21.5-98.2
			c-6.6-14.8-14.7-28.9-20.4-44.1c-0.8-2.1-1.5-4.1-2.3-6.2c-20.7-5.8-29.2-32.4-33.5-51c-5.3-22.8-5.5-46.1-5.4-69.4
			c-0.1,0-0.1,0-0.2,0C1140.4,911.7,1140.6,935,1145.9,957.8z"/>
		<path fill="#9F592A" d="M1125.8,902c1.8,20.3,4.5,40.5,8.1,60.5c2,11.3,4.2,22.5,7,33.6c2.6,10.4,5.8,20,12.1,28.7
			c0.3,0.4,0.7,0.5,1.1,0.4c-0.3,0-0.6-0.1-0.9-0.4c-6.3-8.7-9.5-18.3-12.1-28.7c-2.8-11.1-5-22.4-7-33.6
			c-3.6-20.1-6.3-40.2-8.1-60.5c-0.4-4.3-0.7-8.7-0.9-13c-0.1,0-0.1,0-0.2,0C1125.1,893.3,1125.4,897.7,1125.8,902z"/>
		<path opacity="0.3" fill="#091426" enable-background="new    " d="M1125.8,902c1.8,20.3,4.5,40.5,8.1,60.5
			c2,11.3,4.2,22.5,7,33.6c2.6,10.4,5.8,20,12.1,28.7c0.3,0.4,0.7,0.5,1.1,0.4c-0.3,0-0.6-0.1-0.9-0.4c-6.3-8.7-9.5-18.3-12.1-28.7
			c-2.8-11.1-5-22.4-7-33.6c-3.6-20.1-6.3-40.2-8.1-60.5c-0.4-4.3-0.7-8.7-0.9-13c-0.1,0-0.1,0-0.2,0
			C1125.1,893.3,1125.4,897.7,1125.8,902z"/>
		<path fill="#9F592A" d="M1165.3,1067c-0.6,6.5,1.9,13.8,3.2,20.1c1.5,7.2,3,14.4,4.3,21.6c2.6,15.2,4.4,30.4,5.1,45.8
			c0.4,8.7,0.3,17.5,0,26.2c0.1,0.6,0.1,1.1,0.2,1.7c0.3-9.3,0.4-18.6,0-27.9c-0.6-15.4-2.5-30.6-5.1-45.8
			c-1.3-7.2-2.8-14.4-4.3-21.6c-1.3-6.3-3.9-13.7-3.2-20.1c0.1-0.3,0.3-0.5,0.6-0.5C1165.8,1066.3,1165.4,1066.6,1165.3,1067z"/>
		<path opacity="0.3" fill="#091426" enable-background="new    " d="M1165.3,1067c-0.6,6.5,1.9,13.8,3.2,20.1
			c1.5,7.2,3,14.4,4.3,21.6c2.6,15.2,4.4,30.4,5.1,45.8c0.4,8.7,0.3,17.5,0,26.2c0.1,0.6,0.1,1.1,0.2,1.7c0.3-9.3,0.4-18.6,0-27.9
			c-0.6-15.4-2.5-30.6-5.1-45.8c-1.3-7.2-2.8-14.4-4.3-21.6c-1.3-6.3-3.9-13.7-3.2-20.1c0.1-0.3,0.3-0.5,0.6-0.5
			C1165.8,1066.3,1165.4,1066.6,1165.3,1067z"/>
		<path fill="#9F592A" d="M1274.8,948c-0.7,8.9-1.1,18.5-0.5,28c-4.6-18.9-7.4-38.2-6.9-57.9c0.2-9.3,1.1-18.5,3.2-27.6
			c1-4.4,2.3-8.8,3.8-13.1c-1.3,0.2-2.6,0.3-3.9,0.5c-0.6,1.8-1.1,3.5-1.6,5.1c-2.4,7.9-4.2,16.1-5.4,24.2
			c-2.4,16.3-1.4,32.9,1.2,49.1c5.9,36.8,20.9,71.2,32.8,106.3c3.3,9.6,6.3,19.3,9,29.1c1.7,6.1,2.8,12.5,4.1,18.7
			c-1.5-37.4-10.8-65.7-17.9-93.2c0,0,0,0,0-0.1c-0.3-1.1-0.6-2.3-0.9-3.4c-0.1-0.2-0.1-0.4-0.2-0.6c-0.2-0.9-0.5-1.8-0.7-2.8
			c-0.1-0.3-0.1-0.6-0.2-0.9c-0.3-1.1-0.5-2.3-0.8-3.4c-9.2-39.4-2.1-81.9,1.8-100.9c1.9-9.3,5-17.9,8.3-31.3
			c-3.8,0.6-7.6,1.1-11.3,1.6C1282.8,899.5,1276.8,923.4,1274.8,948z"/>
		<path opacity="0.3" fill="#091426" enable-background="new    " d="M1274.8,948c-0.7,8.9-1.1,18.5-0.5,28
			c-4.6-18.9-7.4-38.2-6.9-57.9c0.2-9.3,1.1-18.5,3.2-27.6c1-4.4,2.3-8.8,3.8-13.1c-1.3,0.2-2.6,0.3-3.9,0.5
			c-0.6,1.8-1.1,3.5-1.6,5.1c-2.4,7.9-4.2,16.1-5.4,24.2c-2.4,16.3-1.4,32.9,1.2,49.1c5.9,36.8,20.9,71.2,32.8,106.3
			c3.3,9.6,6.3,19.3,9,29.1c1.7,6.1,2.8,12.5,4.1,18.7c-1.5-37.4-10.8-65.7-17.9-93.2c0,0,0,0,0-0.1c-0.3-1.1-0.6-2.3-0.9-3.4
			c-0.1-0.2-0.1-0.4-0.2-0.6c-0.2-0.9-0.5-1.8-0.7-2.8c-0.1-0.3-0.1-0.6-0.2-0.9c-0.3-1.1-0.5-2.3-0.8-3.4
			c-9.2-39.4-2.1-81.9,1.8-100.9c1.9-9.3,5-17.9,8.3-31.3c-3.8,0.6-7.6,1.1-11.3,1.6C1282.8,899.5,1276.8,923.4,1274.8,948z"/>
		<path fill="#9F592A" d="M1292.6,1017.2C1292.6,1017.2,1292.6,1017.2,1292.6,1017.2C1292.6,1017.2,1292.6,1017.2,1292.6,1017.2z"/>
		<path opacity="0.3" fill="#091426" enable-background="new    " d="M1292.6,1017.2C1292.6,1017.2,1292.6,1017.2,1292.6,1017.2
			C1292.6,1017.2,1292.6,1017.2,1292.6,1017.2z"/>
		<path fill="#9F592A" d="M936,1085.6c4.6-6.5,6.6-15.6,8.1-23.3c1.7-8.7,2.7-17.4,2.7-26.3c0-9.3-0.8-18.6-2-27.8s-1.8-19.2-5-28
			c-0.2-0.5-0.9-0.3-0.8,0.2c3.4,17.8,3.9,36.5,4,54.6c0.1,8.8-0.1,17.8-1.6,26.5c-1.4,8.2-4.6,15.6-6.7,23.5
			C934.5,1085.8,935.6,1086.2,936,1085.6z"/>
		<path opacity="0.3" fill="#091426" enable-background="new    " d="M936,1085.6c4.6-6.5,6.6-15.6,8.1-23.3
			c1.7-8.7,2.7-17.4,2.7-26.3c0-9.3-0.8-18.6-2-27.8s-1.8-19.2-5-28c-0.2-0.5-0.9-0.3-0.8,0.2c3.4,17.8,3.9,36.5,4,54.6
			c0.1,8.8-0.1,17.8-1.6,26.5c-1.4,8.2-4.6,15.6-6.7,23.5C934.5,1085.8,935.6,1086.2,936,1085.6z"/>
	</g>
	<path fill="#9F592A" d="M801,911.1c0.7,6.6,0.9,13.4,2.5,19.8c0.2,1,1.5,0.7,1.6-0.2c0.6-5.9-0.3-11.8-0.9-17.7
		c-0.6-6.2-1.2-12.4-1.5-18.6c-0.4-7.4-0.8-14.8-0.8-22.2c-1.5-0.2-2.9-0.4-4.3-0.6c0,6.3,0.4,12.6,1,18.9
		C799.2,897.4,800.2,904.2,801,911.1z"/>
	<path opacity="0.3" fill="#091426" enable-background="new    " d="M801,911.1c0.7,6.6,0.9,13.4,2.5,19.8c0.2,1,1.5,0.7,1.6-0.2
		c0.6-5.9-0.3-11.8-0.9-17.7c-0.6-6.2-1.2-12.4-1.5-18.6c-0.4-7.4-0.8-14.8-0.8-22.2c-1.5-0.2-2.9-0.4-4.3-0.6
		c0,6.3,0.4,12.6,1,18.9C799.2,897.4,800.2,904.2,801,911.1z"/>
	<path fill="#9F592A" d="M782.4,922.4c1.1,1.6,4.1,0.6,3.3-1.4c-6.8-16.8-9.5-34.3-9.5-52.3c-1.3-0.2-2.6-0.4-4-0.6
		c0,8,0.5,16,1.6,23.8C775.1,902,776.7,913.7,782.4,922.4z"/>
	<path opacity="0.3" fill="#091426" enable-background="new    " d="M782.4,922.4c1.1,1.6,4.1,0.6,3.3-1.4
		c-6.8-16.8-9.5-34.3-9.5-52.3c-1.3-0.2-2.6-0.4-4-0.6c0,8,0.5,16,1.6,23.8C775.1,902,776.7,913.7,782.4,922.4z"/>
	<path fill="#9F592A" d="M768,960.7c0.6,1.2,2.5,0.1,1.8-1.1c-13.5-24.8-20.5-53-24.4-80.9c-0.7-4.9-1.2-9.8-1.6-14.8
		c-1.1-0.2-2.2-0.3-3.2-0.5c0.3,4.8,0.8,9.5,1.4,14.3C745.8,906.8,754.2,934.8,768,960.7z"/>
	<path opacity="0.3" fill="#091426" enable-background="new    " d="M768,960.7c0.6,1.2,2.5,0.1,1.8-1.1
		c-13.5-24.8-20.5-53-24.4-80.9c-0.7-4.9-1.2-9.8-1.6-14.8c-1.1-0.2-2.2-0.3-3.2-0.5c0.3,4.8,0.8,9.5,1.4,14.3
		C745.8,906.8,754.2,934.8,768,960.7z"/>
	<path fill="#9F592A" d="M757.1,869.6c0.4,0.8,1.6,0.2,1.4-0.6c-0.3-1-0.6-2-0.9-3c-0.8-0.1-1.6-0.2-2.3-0.3
		C755.8,867,756.5,868.3,757.1,869.6z"/>
	<path opacity="0.3" fill="#091426" enable-background="new    " d="M757.1,869.6c0.4,0.8,1.6,0.2,1.4-0.6c-0.3-1-0.6-2-0.9-3
		c-0.8-0.1-1.6-0.2-2.3-0.3C755.8,867,756.5,868.3,757.1,869.6z"/>
</g>

</svg>
