<?xml version="1.0" encoding="utf-8"?>
<!-- Generator: Adobe Illustrator 21.0.2, SVG Export Plug-In . SVG Version: 6.00 Build 0)  -->
<svg version="1.1" id="Layer_1" xmlns="http://www.w3.org/2000/svg" xmlns:xlink="http://www.w3.org/1999/xlink" x="0px" y="0px"
	 viewBox="0 0 300 400" enable-background="new 0 0 300 400" xml:space="preserve">
<g>
	<g>
		<g>
			<path fill="#EDECD1" d="M242.3,217.9c-3.2-5.6-9.1-9.3-15.2-11.4c-6.1-2-12.7-2.6-19.1-3.1c-2.2-0.2-4.6-0.3-6.5,0.9
				c-1.9,1.2-2.8,3.5-3.4,5.7c-1.5,5.6-1.8,11.6-0.9,17.3c0.3,1.6,0.5,3.5-0.7,4.6c-0.5,0.5-1.3,0.7-2,0.9c-9.4,2.2-19.5-1-27.3-6.7
				c-7.8-5.7-13.7-13.6-19-21.7c-1.6-2.5-3.3-5.1-5.9-6.4c-1.5-0.8-3.2-1-4.9-1.2c-8.4-0.9-15,0.3-23,2.8
				c-16.1,14.9-37.6,24.5-50,42.7c-2.9,4.3-5.2,10-2.5,14.4c1.8,2.8,5.1,4.1,8.1,5.6c6.5,3.3,12.1,8.5,16,14.7
				c-4.5,0.1-9.2,0.7-12.9,3.3c-3.7,2.6-5.9,7.8-3.8,11.8c1.1,2.1,3.2,3.6,5.3,4.7c7.6,4.1,17,4.9,25.2,2.2
				c-1.6,6.2-3.2,12.5-4.7,18.7c-0.3,1-0.5,2-1.1,2.9c-1.5,2-4.3,2-6.8,2.5c-9.8,1.7-16.6,13.3-13.3,22.7c0.4,1,0.8,2,1.7,2.7
				c0.9,0.7,2,1,3.1,1.2c7.4,1.4,15,1.3,22.4-0.3c-1.1-0.9-2.2-1.8-3.3-2.8c2.4,0.6,4.8,1.2,7.2,1.8c-1.3,0.4-2.6,0.7-3.9,1
				c6.6,4.9,14.8,7.6,23,7.4c9.6-0.3,19.1-4.6,25.6-11.7c0.6-0.7,1.2-1.4,1.2-2.3c0-0.4-0.2-0.8-0.5-1.1c-0.4-0.1-0.9-0.2-1.3-0.2
				c0.4-0.3,0.9-0.1,1.3,0.2c13.4,2.6,27,3.9,40.7,4c1.2,0,2.6-0.1,3.4-0.9c0.6-0.6,0.8-1.5,1-2.3c1.5-10-6.8-19.4-16.5-22.5
				c-9.7-3-20.1-1.2-30,1.1c4.2-4,5.1-10.3,5.7-16c2.9-25.4,5.8-51.4,0.9-76.5c6.6,8,13.6,16.3,23,20.7c9.4,4.4,22,3.8,28.6-4.2
				c3.5-4.3,4.8-9.9,6-15.3c0.7-3,1.3-5.9,2-8.9c4.4,3.8,10.6,5.4,16.3,4.1c1.4-0.3,2.9-0.8,4.3-0.4c1.4,0.5,2.5,1.9,4,2.2
				c1.8,0.4,3.6-1.3,4-3.1C243.9,221.4,243.2,219.5,242.3,217.9z M91,259.7c-4.2-3.8-9-7-14.2-9.5c4.6-6.3,11.3-9.1,17.1-14.3
				c1.7-1.6,3.3-3.3,5.1-4.8c3.2-2.6,7.1-4.3,11.2-4.8C103.7,237.4,97.4,248.5,91,259.7z"/>
		</g>
		<g>
			<path fill="#CCCAA8" d="M243.3,217.3c-4.7-7.5-12.6-11.5-21.1-13.3c-4.7-1-9.6-1.5-14.4-1.7c-3.6-0.2-6.9,0-9.2,3.2
				c-1.9,2.7-2.5,6.6-2.9,9.8c-0.4,2.9-0.5,5.8-0.3,8.7c0.3,3.3,1,6.8-2.9,8.1c-5.4,1.7-12.9-0.5-17.8-2.8
				c-5.5-2.5-10.2-6.3-14.4-10.7c-3.9-4.1-7.1-8.6-10.2-13.3c-2.1-3.2-4-6.7-7.6-8.4c-4-1.9-9.4-1.7-13.7-1.4
				c-4.6,0.3-10.9,0.8-14.9,3c-3.4,1.9-6.6,5.6-9.8,8c-4.1,3.1-8.3,6.1-12.5,9.1c-7.5,5.4-15.1,10.9-21.5,17.6
				c-5.2,5.4-13.5,14.6-10.1,22.8c1.9,4.5,6.7,5.9,10.6,8.1c5.8,3.3,10.5,7.9,14.1,13.5c0.4-0.6,0.7-1.3,1.1-1.9
				c-5.2,0.2-10.9,0.8-14.9,4.5c-3.3,3-5.1,8.1-3,12.3c2.2,4.6,8.3,6.9,12.9,8.1c6.3,1.7,12.8,1.4,19.1-0.5c-0.5-0.5-1-1-1.5-1.5
				c-1.3,5-2.5,10-3.8,15c-0.9,3.7-2.1,6.8-6.1,7.9c-1.7,0.5-3.3,0.6-5,1.2c-5.4,2.1-9.5,7.1-11.2,12.6c-1.3,4.4-1.6,12.3,3.3,14.8
				c3.1,1.6,7.8,1.6,11.2,1.7c4.8,0.2,9.6-0.3,14.3-1.3c0.9-0.2,1.3-1.5,0.6-2.1c-1.1-0.9-2.2-1.8-3.3-2.8c-0.4,0.7-0.8,1.4-1.2,2.1
				c2.4,0.6,4.8,1.2,7.2,1.8c0-0.8,0-1.6,0-2.4c-1.3,0.4-2.6,0.7-3.9,1c-1.1,0.3-1.1,1.7-0.3,2.3c10.2,7.3,23.1,9.6,34.9,5.4
				c5.2-1.8,10.2-4.8,14.1-8.7c2.1-2.2,4.5-6,0-6.9c0,0.8,0,1.6,0,2.4c1.7-0.3,4.6,1,6.4,1.3c2.7,0.4,5.4,0.8,8,1.2
				c6.4,0.8,12.9,1.4,19.4,1.6c3.1,0.1,9.5,1.5,12.1-1.1c2.1-2.2,1.7-6.5,1.1-9.2c-1.6-7.8-8-14-15.2-17
				c-10.4-4.3-22.1-2.1-32.7,0.4c0.4,0.7,0.8,1.4,1.2,2.1c4-4.3,5.2-9.7,5.9-15.5c1.1-8.8,2-17.6,2.7-26.4
				c1.4-17.3,1.5-34.8-1.7-51.9c-0.7,0.4-1.4,0.8-2.1,1.2c9.6,11.6,21.3,24.8,37.9,23.7c5.9-0.4,11.8-2.7,15.6-7.4
				c5.5-6.7,6.4-16.5,8.2-24.6c-0.7,0.2-1.4,0.4-2.1,0.6c3,2.4,6.2,4,10,4.6c4.8,0.8,8.9-1.3,13.3,0.7
				C244.3,229.8,245.9,222.2,243.3,217.3c-0.7-1.4-2.9-0.2-2.2,1.3c0.3,0.8,0.7,1.5,1,2.3c-1.3,1.2-2.6,2.3-4,3.5
				c-0.3,0-1.7-1.1-2.1-1.2c-1.3-0.4-2.4-0.2-3.7,0c-6.2,0.8-11.3,0.8-16.5-3.4c-0.7-0.5-1.9-0.5-2.1,0.6c-1.5,6.9-2.4,15-6,21.2
				c-3.8,6.5-10.8,9.3-18.1,9c-14.6-0.5-24.8-12.6-33.4-23c-0.9-1-2.3,0.1-2.1,1.2c3,15.7,3.1,31.6,1.9,47.4
				c-0.5,7.7-1.3,15.4-2.2,23c-0.8,7.1-0.8,15.3-6,20.9c-0.9,0.9,0,2.4,1.2,2.1c15-3.5,39.9-5.8,44.6,14.2c0.7,3,1.2,6.7-2.9,8
				c-1.4,0.4-4.4,0-5.8-0.1c-4.5-0.1-9.1-0.4-13.6-0.8c-5.1-0.5-10.1-1.1-15.1-2c-2.5-0.4-5.2-1.7-7.7-1.3c-1.2,0.2-1.2,2.2,0,2.4
				c1.7,0.3-3.2,4.6-3.5,4.8c-1.6,1.3-3.3,2.4-5,3.4c-4.1,2.3-8.5,3.8-13.2,4.3c-9.1,1.1-18-1.6-25.4-6.9c-0.1,0.8-0.2,1.5-0.3,2.3
				c1.3-0.3,2.6-0.6,3.9-1c1.2-0.3,1.2-2.1,0-2.4c-2.4-0.6-4.8-1.2-7.2-1.8c-1.2-0.3-2.2,1.2-1.2,2.1c1.1,1,2.1,1.9,3.3,2.8
				c0.2-0.7,0.4-1.4,0.6-2.1c-6.9,1.4-24.1,4.5-26.2-5.1c-1.4-6.6,2.8-14.1,8.5-17.2c3.7-2,9.4-1,12-4.7c1.7-2.4,2-6,2.7-8.8
				c1.1-4.4,2.2-8.7,3.3-13.1c0.2-0.9-0.6-1.8-1.5-1.5c-8.2,2.4-17.4,2-24.9-2.4c-5.3-3.1-6.4-9.1-1.7-13.4
				c3.5-3.2,8.6-3.6,13.1-3.8c0.9,0,1.6-1.1,1.1-1.9c-4.4-7-10.3-12.1-17.7-15.8c-2.2-1.1-4.9-2.2-6.3-4.5c-2-3.2-0.8-7.3,0.8-10.4
				c2.2-4.2,5.4-7.9,8.7-11.2c11.9-12.3,27.1-21.2,40.4-31.8c6.7-5.3,24.8-7.8,31.3-1.4c3.1,3,5.2,7.5,7.7,11
				c2.8,3.8,5.7,7.4,9.1,10.6c5.9,5.6,13.1,10,21.2,11.5c4,0.8,14,2.2,16.1-2.8c0.6-1.4,0.2-2.9,0-4.3c-0.3-3.1-0.6-6.1-0.4-9.2
				c0.2-2.8,0.6-6.1,1.6-8.7c1.8-4.6,5.8-4.6,10-4.2c11.7,0.9,24.7,2.9,31.5,13.7C242,219.9,244.2,218.6,243.3,217.3z"/>
			<path fill="#CCCAA8" d="M91.9,258.8c-4.4-3.8-9.2-7.1-14.4-9.7c0.1,0.7,0.2,1.3,0.3,2c4-5.1,9.5-8.2,14.5-12.2
				c6.1-4.8,10.1-10.2,18.2-11.4c-0.5-0.6-0.9-1.2-1.4-1.8c-6.4,11.1-12.8,22.3-19.2,33.4c-0.8,1.4,1.4,2.7,2.2,1.3
				c6.4-11.1,12.8-22.3,19.2-33.4c0.6-1-0.4-2-1.4-1.8c-7.4,1.1-11.5,5.1-16.8,9.9c-5.6,5-12.3,8.3-17.1,14.3
				c-0.5,0.6-0.5,1.6,0.3,2c5,2.5,9.7,5.6,13.9,9.3C91.3,261.6,93.1,259.8,91.9,258.8z"/>
		</g>
	</g>
	<g>
		<path fill="#EDECD1" d="M91.7,321.9c2.7-0.1,5.5,0.3,8.2,1"/>
		<g>
			<path fill="#CCCAA8" d="M91.7,323.2c2.7,0,5.2,0.3,7.8,1c1.6,0.4,2.2-2,0.7-2.4c-2.8-0.8-5.6-1.1-8.5-1.1
				C90.1,320.7,90.1,323.2,91.7,323.2L91.7,323.2z"/>
		</g>
	</g>
	<g>
		<path fill="#EDECD1" d="M98.8,347.6c2.4-3.4,4.4-7,6.1-10.8c1-2.2,1.9-4.6,3.7-6.3c2.1-2,5.1-2.7,8-2.8c1.6-0.1,3.3,0,4.8,0.7
			c1.5,0.6,2.8,1.9,3.2,3.5"/>
		<g>
			<path fill="#CCCAA8" d="M99.9,348.2c2.7-3.9,4.7-7.9,6.7-12.1c1.4-3,2.7-5.2,6.1-6.4c3.1-1.1,9.3-1.4,10.8,2.6
				c0.6,1.5,3,0.8,2.4-0.7c-2.3-5.9-10.1-6.1-15.2-3.8c-2.6,1.2-4.3,3.2-5.6,5.7c-2.4,4.6-4.4,9.2-7.3,13.5
				C96.8,348.3,99,349.5,99.9,348.2L99.9,348.2z"/>
		</g>
	</g>
	<g>
		<path fill="#EDECD1" d="M99,298.9c3.2,0.8,6.7-0.2,9.4-2.2c2.6-2,4.4-5.1,5.2-8.3c0.4-1.7,0.6-3.6,0.2-5.3c-0.5-2.2-2-4.1-3.4-5.8
			c-6-7.1-12.8-13.4-20.3-18.9"/>
		<g>
			<path fill="#CCCAA8" d="M98.7,300.1c9.3,1.5,18.3-7.5,16.4-17c-1.1-5.1-6.1-9.6-9.6-13.1c-4.5-4.6-9.5-8.8-14.7-12.7
				c-1.3-1-2.5,1.2-1.3,2.2c6.4,4.8,12.4,10.1,17.7,16.1c3.6,4.1,6.8,8.2,4.8,13.9c-1.9,5.4-6.8,9.2-12.6,8.3
				C97.7,297.5,97.1,299.9,98.7,300.1L98.7,300.1z"/>
		</g>
	</g>
	<g>
		<path fill="#EDECD1" d="M112.4,327c1.1-5.6,2.2-11.3,3.3-16.9c0.5-2.6,1-5.1,0.9-7.7c-0.1-2-0.4-3.9-0.6-5.9
			c-0.3-3.9,0.4-7.8,1-11.7"/>
		<g>
			<path fill="#CCCAA8" d="M113.6,327.4c1.4-6.9,3.1-13.9,4.1-20.9c0.4-2.9,0.1-5.6-0.2-8.5c-0.4-4.4,0.1-8.5,0.8-12.8
				c0.3-1.6-2.1-2.3-2.4-0.7c-0.5,3.3-1.1,6.7-1.1,10.1c0,3,0.7,5.8,0.6,8.8c-0.1,7.7-2.7,15.8-4.2,23.3
				C110.9,328.3,113.3,329,113.6,327.4L113.6,327.4z"/>
		</g>
	</g>
	<g>
		<path fill="#EDECD1" d="M116.8,285.4c4.2-13.7,3.2-28.3,2.2-42.6"/>
		<g>
			<path fill="#CCCAA8" d="M118,285.7c4-14,3.3-28.5,2.3-42.9c-0.1-1.6-2.6-1.6-2.5,0c1,14.2,1.8,28.4-2.2,42.3
				C115.1,286.6,117.5,287.3,118,285.7L118,285.7z"/>
		</g>
	</g>
	<g>
		<path fill="#EDECD1" d="M140.1,348.3c3.2-2.6,3.6-7.2,3.6-11.3c0.3-15.2,0.5-30.3,0.4-45.5c0-8.4-0.1-16.7-0.9-25
			c-1-11.8-3.6-24-10.9-33.3"/>
		<g>
			<path fill="#CCCAA8" d="M141,349.2c5.9-5.7,4.1-16.7,4.2-24c0.2-11.8,0.2-23.7,0.2-35.5c-0.1-19.1,0.1-41-11.9-57
				c-1-1.3-3.1,0-2.2,1.3c11.4,15.2,11.4,35.7,11.6,53.8c0.1,9.9,0,19.7-0.1,29.6c-0.1,5.3-0.1,10.5-0.2,15.8
				c-0.1,4.9,0.5,10.7-3.4,14.4C138.1,348.5,139.9,350.3,141,349.2L141,349.2z"/>
		</g>
	</g>
</g>
<g>
	<g>
		<path fill="#EDECD1" d="M77.2,73.7c2.4-8.5,3-17.6,7.2-25.3c3.2-6.1,8.6-11,14.9-13.8c2.7-1.2,6.5-1.6,8,0.9
			c0.4,0.8,0.6,1.7,0.7,2.6c0.6,5.4,1.2,10.8,1.7,16.2c0.1,0.5,0.1,1.1-0.2,1.5c-0.4,0.7-1.4,0.8-2.3,0.9
			c-7.8,0.9-13.5,7.7-20.8,10.7c-3.7,1.5-8.3,2.4-10,6"/>
		<g>
			<path fill="#CCCAA8" d="M78.4,74.1c2.6-9.6,3.3-20.3,9.3-28.6c2.7-3.6,6.1-6.7,10.1-8.8c3.4-1.8,7.4-2.6,8.8,1.9
				c0.8,2.6,0.7,5.9,0.9,8.6c0.2,1.6,1.4,5.8,0.8,7.2c-0.8,1.7-4.1,1.7-5.7,2.3c-3.3,1.2-6.3,3.3-9.2,5.3c-3.8,2.6-7.6,4.3-11.9,6
				c-2.7,1.1-4.8,2.4-6.3,4.9c-0.9,1.4,1.3,2.6,2.2,1.3c2.8-4.5,10.4-5.5,14.8-8.3c5.2-3.3,9.3-6.2,15.3-7.8
				c4.7-1.3,3.2-4.8,2.7-9.1c-0.4-4,0.2-10.8-2.2-14.3c-4.9-7.1-16.9,2.9-20.4,6.8c-8,8.9-8.7,20.9-11.7,31.9
				C75.5,75,78,75.6,78.4,74.1L78.4,74.1z"/>
		</g>
	</g>
	<g>
		<path fill="#EDECD1" d="M172.7,59.9c9.1-4.7,19.2-7.5,29.4-8.2c3.1-0.2,6.6-0.1,8.8,2c1.9,1.8,2.4,4.6,2.8,7.2
			c0.3,2.4,0.5,4.9-0.6,7c-0.8,1.5-2.1,2.6-3.3,3.7c-4.1,3.5-8.3,7-12.4,10.5c-0.4,0.4-1,0.8-1.5,0.7c-0.5-0.1-0.8-0.5-1.1-1
			c-6.1-8.8-14.1-16.3-23.4-21.6"/>
		<g>
			<path fill="#CCCAA8" d="M173.3,61c8.5-4.2,17.6-7,27-7.9c5.3-0.5,9.9-0.4,11.8,5.6c0.7,2.1,1,5.5,0.3,7.6
				c-0.8,2.7-3.6,4.5-5.6,6.2c-2.5,2.1-7.1,7.8-10.4,7.5c-2.9-0.3-5.3-5.1-7.3-7.2c-5-5.4-10.8-9.9-17.2-13.6
				c-1.4-0.8-2.6,1.3-1.3,2.2c5.5,3.2,10.5,7,15,11.5c2.2,2.2,4.3,4.6,6.2,7.2c0.8,1.1,1.9,3.4,3.3,3.9c2.7,1,6.1-3.5,7.8-4.9
				c3.7-3.2,9.7-6.6,11.5-11.3c2.6-6.8-0.7-16.1-8.4-17.1c-11.2-1.5-24.3,3.4-34.1,8.3C170.6,59.5,171.9,61.7,173.3,61L173.3,61z"/>
		</g>
	</g>
</g>
<g>
	<circle fill="#EDECD1" stroke="#CCCAA8" stroke-width="3" stroke-miterlimit="10" cx="132.8" cy="124.6" r="76.5"/>
</g>
</svg>
