<?xml version="1.0" encoding="UTF-8"?>
<svg width="48px" height="48px" viewBox="0 0 48 48" version="1.1" xmlns="http://www.w3.org/2000/svg" xmlns:xlink="http://www.w3.org/1999/xlink">
    <!-- Generator: Sketch 51.3 (57544) - http://www.bohemiancoding.com/sketch -->
    <title>footwear-mendressshoes</title>
    <desc>Created with Sketch.</desc>
    <defs></defs>
    <g id="SVGs" stroke="none" stroke-width="1" fill="none" fill-rule="evenodd">
        <g id="Slices" transform="translate(-118.000000, -413.000000)"></g>
        <g id="Group-86" transform="translate(12.000000, 15.000000)" fill-rule="nonzero">
            <path d="M3,1 L8,1 C8.55228475,1 9,1.44771525 9,2 L9,13 L2,13 L2,2 C2,1.44771525 2.44771525,1 3,1 Z" id="Rectangle-39" fill="#2A1958"></path>
            <path d="M4.31891274,10.3624708 L7.12587928,9.6351186 C7.39319303,9.56585121 7.66604596,9.72639951 7.73531334,9.99371326 C7.75675799,10.0764715 7.75662462,10.1633461 7.734926,10.2460381 L6.99961997,13.0482405 C6.9535891,13.2236611 6.81617777,13.3604029 6.64053443,13.4055764 L3.88492671,14.1142884 C3.61748774,14.1830707 3.34492651,14.0220277 3.27614416,13.7545888 C3.2555875,13.6746606 3.25513525,13.5908868 3.27482774,13.5107413 L3.95877495,10.7271791 C4.00264233,10.5486455 4.1409465,10.4085861 4.31891274,10.3624708 Z" id="Rectangle-40" fill="#3157B2" transform="translate(5.513367, 11.871857) rotate(45.000000) translate(-5.513367, -11.871857) "></path>
            <path d="M1.61096191,17.0865479 L22.5029907,17.0865479 C23.1969121,16.0465332 23.2918421,15.0794108 22.7877808,14.1851807 C22.2110596,13.1620483 20.6415924,12.3893423 19.1873169,12.1766357 C17.8243934,11.9772906 17.3987641,11.9632896 17.0292969,11.9344788 C16.0769348,11.8602142 15.9096121,11.9228001 15.1197479,11.5214707 C14.3298837,11.1201413 12.2390137,10.1190186 9.51660156,8.82427979 C9.00348444,8.5802489 8.3478583,8.68967646 7.98827031,9.31032354 C7.62868232,9.93097061 6.83892786,11.5214707 5.15744787,11.5214707 C4.03646122,11.5214707 3.28380711,11.2127235 2.89948555,10.595229 C2.75565767,10.3245585 2.52762225,10.1892233 2.21537928,10.1892233 C1.74701482,10.1892233 1.4934043,10.5491481 1.4798484,10.7931089 C1.46629251,11.0370696 1.45405378,11.4591538 1.27365608,11.7243948 C1.09325838,11.9896357 0.558706029,12.9149842 0.558706029,14.3909388 C0.558706029,15.3749086 0.909457991,16.2734449 1.61096191,17.0865479 Z" id="Path-165" fill="#6E3A0C"></path>
            <path d="M11.3822021,9.25109863 L10.9036865,10.3017578" id="Path-170" stroke="#542E0C" stroke-linecap="round"></path>
            <path d="M12.7519531,9.88537598 L12.2734375,10.9360352" id="Path-170" stroke="#542E0C" stroke-linecap="round"></path>
            <path d="M14.1166992,10.5059814 L13.6381836,11.5566406" id="Path-170" stroke="#542E0C" stroke-linecap="round"></path>
            <path d="M15.4841309,11.1081543 L15.0056152,12.1588135" id="Path-170" stroke="#542E0C" stroke-linecap="round"></path>
            <path d="M7.22140503,10.4915771 C7.35679764,10.3213116 7.45685461,10.1890891 7.52157593,10.0949097 C7.58629725,10.0007302 7.67496098,9.85833522 7.78756714,9.66772461 L12.5153727,11.9313506 C12.8821935,12.111021 13.1598804,12.4325126 13.2842905,12.8215641 L13.3955446,13.1694743 C13.4568602,13.3612184 13.6271867,13.4974904 13.8277123,13.5152359 L15.0052941,13.6194456 C15.1702887,13.6340467 15.3318056,13.5659885 15.4365947,13.4377089 C15.9842407,12.7643672 16.3949752,12.2593609 16.6687982,11.92269 C16.6746157,11.9155373 17.0764337,11.9438708 17.8742523,12.0076904 L16.2110457,14.0703428 C15.8966784,14.4551816 15.4121277,14.6593562 14.9171439,14.6155528 L13.7395621,14.5113431 C13.1379855,14.4581067 12.6270059,14.0492906 12.4430592,13.4740584 L12.3318051,13.1261482 C12.290335,12.9964643 12.1977727,12.8893005 12.0754991,12.8294103 L7.22140503,10.4915771 Z" id="Path-171" fill="#542E0C"></path>
            <path d="M18.8149872,12.1222992 C19.1038055,12.1676687 19.3078817,12.2000427 19.4272156,12.2194214 C19.5465495,12.2388 19.7067922,12.2754771 19.9079437,12.3294525 C19.1736742,13.2413561 17.9723206,14.7806549 17.3927819,15.5230029 C17.350601,15.5836671 17.2962321,15.6310735 17.2296753,15.6652222 C17.1631185,15.6993709 17.087528,15.7186435 17.002904,15.7230399 C15.6224667,15.7512847 14.3035388,16.2970865 14.3136906,17.2226657 L13.3137508,17.2336331 C13.2956354,15.5819911 14.9412444,14.8286771 16.7362238,14.732349 C17.2886963,14.0353851 18.1368483,12.9644931 18.8149872,12.1222992 Z" id="Path-172" fill="#542E0C"></path>
            <path d="M1.10614014,16.3973389 L1.10614014,17.8684082 C1.10614014,18.420693 1.55385539,18.8684082 2.10614014,18.8684082 L6.3972168,18.8684082 C6.94950155,18.8684082 7.3972168,18.420693 7.3972168,17.8684082 L7.3972168,17.6656494 C8.25476074,17.8857422 9.60432943,18.273234 11.4459229,18.828125 C12.5399529,18.8320054 16.1291698,18.8321853 22.2135735,18.8286647 L22.2135736,18.8286678 C22.7135195,18.8283785 23.1186523,18.4230112 23.1186523,17.9230652 L23.1186523,17.9230652 C23.1186523,17.4232145 22.7134433,17.0180054 22.2135925,17.0180054 L11.4049655,17.0180054 L7.41690293,16.4294809 C7.27189375,16.4080816 7.12551121,16.3973389 6.97893158,16.3973389 L1.10614014,16.3973389 Z" id="Path-174" fill="#542E0C"></path>
            <path d="M4.31891274,2.3624708 L7.12587928,1.6351186 C7.39319303,1.56585121 7.66604596,1.72639951 7.73531334,1.99371326 C7.75675799,2.07647151 7.75662462,2.16334607 7.734926,2.24603809 L6.99961997,5.0482405 C6.9535891,5.22366111 6.81617777,5.36040292 6.64053443,5.40557645 L3.88492671,6.11428839 C3.61748774,6.18307075 3.34492651,6.02202775 3.27614416,5.75458879 C3.2555875,5.67466059 3.25513525,5.59088679 3.27482774,5.51074131 L3.95877495,2.72717915 C4.00264233,2.54864551 4.1409465,2.40858611 4.31891274,2.3624708 Z" id="Rectangle-40" fill="#3157B2" transform="translate(5.513367, 3.871857) rotate(45.000000) translate(-5.513367, -3.871857) "></path>
            <path d="M4.31918403,6.35634959 L7.12615057,5.6289974 C7.39346432,5.55973001 7.66631724,5.72027831 7.73558463,5.98759206 C7.75702927,6.0703503 7.75689591,6.15722487 7.73519728,6.23991688 L6.99989126,9.0421193 C6.95386038,9.2175399 6.81644905,9.35428171 6.64080572,9.39945525 L3.88519799,10.1081672 C3.61775903,10.1769495 3.3451978,10.0159065 3.27641544,9.74846758 C3.25585879,9.66853938 3.25540654,9.58476559 3.27509903,9.5046201 L3.95904624,6.72105794 C4.00291362,6.54252431 4.14121778,6.4024649 4.31918403,6.35634959 Z" id="Rectangle-40" fill="#622160" transform="translate(5.506113, 7.868469) rotate(45.000000) translate(-5.506113, -7.868469) "></path>
            <path d="M1.93217637,17.7643477 L1.3082428,16.6791687 C1.36656189,16.6791687 1.62480981,16.603892 1.63929333,16.5994778 C3.26493186,16.1040218 4.4,14.5972025 4.4,12.8683472 C4.4,12.4806164 4.34359514,12.1011492 4.23389331,11.7381638 C4.23001925,11.7253451 4.16192627,11.5115908 4.10163879,11.403595 C4.39908346,11.461792 4.62396749,11.4977906 4.77629089,11.5115908 C5.004776,11.5322911 5.18203735,11.5377808 5.4173992,11.5115908 C5.53811837,11.9499682 5.6,12.4052695 5.6,12.8683472 C5.6,15.1493184 4.08949828,17.1342144 1.93217637,17.7643477 Z" id="Oval-36" fill="#542E0C"></path>
        </g>
    </g>
</svg>