<?xml version="1.0" encoding="utf-8"?>
<!-- Generator: Adobe Illustrator 22.1.0, SVG Export Plug-In . SVG Version: 6.00 Build 0)  -->
<svg version="1.1" xmlns="http://www.w3.org/2000/svg" xmlns:xlink="http://www.w3.org/1999/xlink" x="0px" y="0px"
	 viewBox="0 0 2000 2000" enable-background="new 0 0 2000 2000" xml:space="preserve">
<g id="_x30_7_x5F_HeadGear_x5F_WizardHat_x5F_Background">
	<g>
		<g>
			<path fill="#A3A72E" d="M587,542.7c-0.6,6.2-6.4,4.7-9.8,1.8c-0.3-0.3-0.7-0.6-1-1c-0.2-0.8-0.3-1.7-0.2-2.5
				c0.7-1.6,1.4-3,2.9-4.1c2-1.5,4-1.7,6.3-1.6c0.4,0.2,0.8,0.4,1.1,0.6C587.8,537.4,587.2,540.9,587,542.7z"/>
			<path fill="#A3A72E" d="M824.8,389c-1.9,0.7-7.9,4.9-19,16c-1.7,1.7-2.6,2.4-2.6,4.2c0,1.8,1.8,2,4.1,4.4s3.6-1.1,6.9-5
				s12.1-12.7,12.1-12.7s10.2,12.5,12.2,15.4s4.2,6.1,5.8,5.2s4.2-3.3,5-4.6s-3.4-5.6-11.9-15S826.6,388.3,824.8,389z"/>
			<path fill="#A3A72E" d="M836.6,431.6c-4.5,4-14.2,9.9-14.2,9.9s-9.1-9.5-12.5-12.9s-4.5-3-8.5,0c-4.2,3.2-2.8,3.4-1.9,5.4
				s14.7,13.1,18.1,15.5s4.4,3.9,6.6,3.1s17.1-12.6,20.2-15.6s3.5-4.8,1-7.5S841.1,427.6,836.6,431.6z"/>
			<path fill="#A3A72E" d="M953.6,384.6c-1.6,2.7-4,3.8-6.8,4.2c-1.5-1.1-2.8-2.2-2.6-4.6c0.2-2.5,3.7-6.8,6.4-6.9
				C954.6,377.1,955.2,381.8,953.6,384.6z"/>
		</g>
		<g>
			<path fill="#93ABEB" d="M1636.3,489.2c-33.6,54.9-140.8,119.4-217.5,164.1c-76.7,44.8-138.6,61.1-138.6,61.1s-6.4-9.3-10.6-15
				c-4.2-5.7,1.4-22.1,3.9-43.2c2.5-21.1,11.9-71.4,10.5-112.9c-0.2-6.5-0.5-12.2-0.8-17.5c-1.6-28.3-4.1-39.3-7.3-45.9
				c-3.8-7.9-24.5-13.5-58.1-14.8c-33.6-1.3-139.8-11-234.4,13.6c-94.6,24.5-186.7,60.5-232.8,80.3c-46.1,19.8-128.4,53.6-160.8,71
				c-23.6,12.7-28.2,18-27.6,22.9c0.6,4.9,5.6,41.2,17.6,76.5c6.3,18.4,15.7,38.2,23.2,53c6.9,13.5,12.2,22.7,12.2,22.7
				s-12.8-0.5-52.6,2c-39.8,2.5-112.6,1.2-183.2-9.8s-109.6-30.6-118.2-51.9c-8.6-21.3-3.2-48.7,92-102s109.1-58.5,244-91.2
				c134.9-32.8,205.4-73.9,302.1-107.7c96.7-33.8,215.4-106.9,335.9-150.6c120.5-43.7,155.8-41.8,232.1-39.3
				c76.2,2.5,161.9,35.4,192.5,78.9C1690.3,376.8,1669.9,434.3,1636.3,489.2z"/>
		</g>
		<path opacity="0.3" fill="#091426" d="M1467.3,428.4c9.2-21.2-36.1-37.3-93.4-21.6c-57.3,15.6-85.4,12.2-243.5,24.9
			s-274,49.7-421.6,96.2C561.2,574.3,490.6,589.1,410,630.5c-80.5,41.4-117.1,81.5-118.3,107.2s26.7,40.5,89.8,48.3
			c54.8,6.8,145.6,2.8,221.4-3.8c-7.5-14.7-16.9-34.6-23.2-53c-12-35.3-17-71.6-17.6-76.5c-0.6-4.9,4-10.2,27.6-22.9
			c32.4-17.4,114.7-51.2,160.8-71c46.1-19.8,138.2-55.8,232.8-80.3c94.6-24.5,200.8-14.9,234.4-13.6s54.3,6.9,58.1,14.8
			c3.2,6.6,5.8,17.6,7.3,45.9c17-8.3,71.9-35,95.3-44.4C1406.3,470.1,1458.1,449.6,1467.3,428.4z"/>
	</g>
</g>

</svg>
