<?xml version="1.0" encoding="utf-8"?>
<!-- Generator: Adobe Illustrator 21.0.2, SVG Export Plug-In . SVG Version: 6.00 Build 0)  -->
<svg version="1.1" id="_x31_7_x5F_HeadGear_x5F_DadCap"
	 xmlns="http://www.w3.org/2000/svg" xmlns:xlink="http://www.w3.org/1999/xlink" x="0px" y="0px" viewBox="0 0 2000 2000"
	 enable-background="new 0 0 2000 2000" xml:space="preserve">
<g>
	<path fill="#5C6E9D" d="M1202,299.9c-7.4,1.4-19.1,2.8-27.7,0.8c-13.7-3.3-31.5-2.3-50.3-5s-42.5-11.8-58-19.2
		c-15.5-7.4-42.5-10.6-44.7-11.8c-2.2-1.2-12.6-8.6-5.3-15.5c-3,10.3,6.7,12.6,17.3,15c10.6,2.4,25.9,0.8,41.2,9.3
		c15.2,8.6,49.2,16.5,83.7,20.8c34.4,4.3,39.7,3.8,39.7,3.8C1199.2,298.1,1200.6,298.7,1202,299.9z"/>
	<path fill="#5C6E9D" d="M1466,572.8c-2,9.9-4.8,12.7-22,21.3c-17.2,8.7-62.2-0.8-102.2-12.8c-40-12.1-56.1-23.1-56.1-23.1
		c-0.3-27.6-2-49.2-2-49.2s-118.3-29-226.7-2s-219.3,73.3-262.7,96.7c-43.3,23.3-109.3,47.7-158,34s-34-31.1-34-31.1
		c-30.8,18-37.7,33.1-43.4,40.9c-6.1,8.3-11.6,7.6-20.1-14.3c-8.5-21.8-7.8-48.9-4-73s14.5-46.2,23.8-73s0.2-28.3,5.3-46.2
		s10.6-62,23-74.4s13.5-11.3,13.5-11.3l-2.9,10.4c12.6-2.4,41.1,1.7,54.9,6.4c13.8,4.7,25,9.9,31,8.3s9.6-3,16.8-10.7
		s16.8-20.7,31.7-31.2s24.7-13.2,47-19s32.8-18.8,38.5-28s8-17.6,8-17.6l-13.8-16.4c0,0,6-6.9,20-10.2c13.9-3.2,24.8-4.7,24.8-4.7
		s22.7-14.4,42.5-15.5s22.6,1.3,25.3,2c2.8,0.7,12.5-0.5,32,0.8s37.4,2.1,48,7.2c10.6,5.1,11.7,12,11.7,12
		c-7.3,6.9,3.2,14.3,5.3,15.5c2.2,1.2,29.2,4.4,44.7,11.8s39.2,16.5,58,19.2s36.7,1.7,50.3,5c8.6,2.1,20.3,0.6,27.7-0.8
		c11.2,9.3,24.9,52.6,28,63.8c3.4,12.6,9.3,24.7,9.3,24.7s12.9,11.6,21.2,25.3s14.4,25.8,19.5,35c1.4,2.6,2.9,5.2,4.2,7.7
		c3.3,6.2,5.8,12,6.3,16.6c0.8,6.5-4.4,9.8-4.4,9.8c10.6,2,40.9,13.5,72,25c31.1,11.5,50.8,18.2,77.3,29.5
		c19.3,8.2,27.7,18,30.1,26.6C1466.5,567.1,1466.6,570.1,1466,572.8z"/>
	<path fill="#93AAED" d="M1031.7,426c-65.8,5.2-84.5,14.2-127,26.3S814,487,749.3,515.7S635.6,586.2,619.6,594s-12.7,11.2-13.7,15
		s26,54.7,129.3,10s141.2-62.7,227-93.3c85.8-30.7,143.2-41.7,246.3-36.3c60,3.1,98.8,17.8,128.7,28.7c29.8,10.8,74.5,31,89.7,48
		s21.7,14.3,27,12c3.9-1.7,6.3-1.9,11.6-14.1c-2.4-8.5-10.8-18.3-30.1-26.6c-26.5-11.3-46.2-18-77.3-29.5c-31.1-11.5-61.5-23-72-25
		c-25-3.8-43.6-14.2-87.7-30.8C1154.4,435.3,1097.5,420.8,1031.7,426z"/>
	<path fill="#93AAED" d="M764,329.8c-33.8,7.2-45.7,24.7-51.7,32.2s-12,23.3-40,22.7c-28-0.7-34.4,4.7-43.7,7
		c-9.2,2.3-11,5.3-12.3,10.3s-3,16.2-7.7,43.7s-11,47.3-18,63.3s-10.3,28.5-9.3,34s1.8,17.3,17.3,35s18.7,10.7,45.7-6.3
		s61.2-40.5,101-60.7s128.7-57,206.2-77s131.8-12,181.5-5.3s114.2,36.9,129.7,43.3c15.4,6.5,18.1,6.8,20.7,0
		c1.6-4.3,1.4-6.5,0.8-15.6c-1.3-2.5-2.7-5.1-4.2-7.7c-5.1-9.2-11.2-21.2-19.5-35s-21.2-25.3-21.2-25.3s-5.9-12.1-9.3-24.7
		c-3-11.2-16.7-54.5-28-63.8c-7.4,1.4-19.1,2.9-27.7,0.8c-13.7-3.3-31.5-2.3-50.3-5s-42.5-11.8-58-19.2s-42.5-10.6-44.7-11.8
		c-2.2-1.2-12.6-8.6-5.3-15.5c0,0-1.1-6.9-11.7-12c-10.6-5.1-28.5-5.8-48-7.2c-19.5-1.3-29.2-0.2-32-0.8c-2.8-0.7-5.5-3.1-25.3-2
		s-42.5,15.5-42.5,15.5s-10.9,1.4-24.8,4.7c-13.9,3.2-20,10.1-20,10.1l13.8,16.4C832.4,300.3,797.8,322.7,764,329.8z"/>
	<path fill="#93AAED" d="M971.7,231c27.7,2,51.3,11.5,51.3,11.5l-7,6.7l-7,2.2c0,0-19.7-8-20.7-9S971.7,231,971.7,231z"/>
	<path fill="#5C6E9D" d="M1262.7,472c1.6,0.7,3,1.3,4.3,1.8c0.4-3.6,0.3-7.6,0.2-11.1c-0.1-4.3-0.9-8.6-2.1-12.7
		c-2.5-8.6-7.3-16.5-11.7-24.3c-4.9-8.8-9.3-17.7-11.2-27.7c-0.5-2.7-0.9-5.4-1.2-8.1c-1.1-1-1.7-1.6-1.7-1.6s-0.7-1.3-1.7-3.6
		c0.3,3.4,0.6,6.9,1.1,10.3c1.3,8.6,4.5,16.2,8.5,24c4.3,8.4,9.4,16.3,12.9,25c1.5,3.9,2.9,7.8,3.7,11.9c0.5,2.8,0.9,5.7,0.8,8.5
		C1264.5,467.5,1263.7,469.5,1262.7,472C1262.6,472,1262.6,472,1262.7,472z"/>
	<path fill="#5C6E9D" d="M1262.7,434.9c-0.2,0.2-0.5,0.4-0.7,0.6s-0.4,0.3-0.5,0.5c1.2,2.2,2.4,4.5,3.5,6.8c0.4-0.4,0.8-0.7,1.3-1
		C1265.2,439.5,1264,437.2,1262.7,434.9z"/>
	<path fill="#5C6E9D" d="M1270.7,473.2c-0.6-0.3-1.2-0.6-1.7-1c-0.1,0.7-0.2,1.5-0.3,2.2c0.6,0.2,1.2,0.5,1.8,0.7
		C1270.5,474.5,1270.6,473.8,1270.7,473.2z"/>
	<path fill="#5C6E9D" d="M1250.9,413.4c-0.3-0.7-0.7-1.3-1-2v-0.1c-0.8,0.2-1.5,0.3-2.3,0.4c0.4,0.9,0.9,1.7,1.4,2.6
		C1249.6,413.9,1250.2,413.6,1250.9,413.4z"/>
	<path fill="#5C6E9D" d="M1251,417.9c1.1,1.8,2.2,3.6,3.2,5.4c0.5-0.3,1-0.6,1.4-0.9c-1-1.7-1.9-3.4-2.8-5.2c-0.5,0.2-1,0.4-1.6,0.6
		C1251.2,417.8,1251.1,417.8,1251,417.9z"/>
	<path fill="#5C6E9D" d="M1259.1,431.7c0.4-0.4,0.8-0.7,1.3-1c-0.9-1.6-1.8-3.2-2.7-4.8c-0.5,0.3-0.9,0.6-1.4,0.9
		C1257.1,428.4,1258.1,430,1259.1,431.7z"/>
	<path fill="#5C6E9D" d="M1266.7,447.1c0.4,1,0.7,2,1,3.1c0.4,1.4,0.7,2.9,0.9,4.4c0.4-0.2,0.9-0.4,1.3-0.5c0.1,0,0.2-0.1,0.3-0.1
		c-0.5-2.6-1.2-5.1-2.1-7.6C1267.7,446.5,1267.2,446.8,1266.7,447.1z"/>
	<path fill="#5C6E9D" d="M1269.4,465.2c0.3,0.2,0.5,0.3,0.8,0.5c0.3,0.3,0.6,0.5,0.9,0.8l0,0c0.1-2.5,0-5-0.2-7.5
		c-0.3,0-0.6,0.1-0.9,0.1s-0.5,0-0.8,0.1C1269.4,461.1,1269.4,463.1,1269.4,465.2z"/>
	<path fill="#5C6E9D" d="M1234.5,388.6c-0.7,0-1.5,0-2.2-0.1c-0.2,1.9-0.2,3.9-0.2,5.8c0.7,0,1.5,0.1,2.2,0.3
		C1234.3,392.6,1234.4,390.6,1234.5,388.6z"/>
	<path fill="#5C6E9D" d="M1235,383.4c0.1-1.3,0.3-2.6,0.4-3.9c-0.5-1.3-1-2.6-1.6-4.1c-0.3,2.7-0.6,5.4-1,8
		C1233.6,383.4,1234.3,383.3,1235,383.4z"/>
	<path fill="#5C6E9D" d="M1246.9,428.4c-1.1-1.7-2.2-3.5-3.1-5.2c-0.4-0.7-0.8-1.5-1.2-2.2c-0.8,0.1-1.5,0.3-2.3,0.5
		c1.5,2.8,3.3,5.5,5,8.2C1245.8,429.3,1246.3,428.9,1246.9,428.4z"/>
	<path fill="#5C6E9D" d="M1248.8,431.4c-0.6,0.4-1.2,0.7-1.7,1.1c1.6,2.6,3.1,5.1,4.4,7.8c0.6-0.5,1.1-0.9,1.7-1.4
		C1251.8,436.4,1250.3,433.9,1248.8,431.4z"/>
	<path fill="#5C6E9D" d="M1255.2,443.6c-0.6,0.4-1.3,0.8-1.9,1.2c0.9,2.7,1.6,5.5,1.9,8.4c0.9-0.4,1.5-1,2.1-1.6
		c-0.3-1.7-0.7-3.5-1.1-5.2C1255.8,445.5,1255.5,444.6,1255.2,443.6z"/>
	<path fill="#5C6E9D" d="M1235.2,408.2c-0.2,0-0.4,0.1-0.6,0.1c1,3.1,2.2,6.2,3.6,9.2c0.7-0.2,1.4-0.4,2.2-0.6
		c-1.3-2.8-2.5-5.7-3.5-8.6C1236.4,408.1,1235.8,408.1,1235.2,408.2z"/>
	<path fill="#5C6E9D" d="M1257.9,457.7c-0.7,0.5-1.4,0.8-2.2,1.1c0.1,1.7,0.1,3.4,0.1,5.1c0.2,0,0.4,0,0.6,0.1
		c0.1,0,0.8,0.1,0.8,0.1c0.3,0,0.6-0.1,0.9-0.2C1258.1,461.9,1258.1,459.8,1257.9,457.7z"/>
	<path fill="#5C6E9D" d="M1234.8,399.5c-0.8-0.1-1.5-0.2-2.3-0.2c0.3,1.9,0.6,3.8,1.1,5.6c0.7-0.1,1.5-0.2,2.2-0.2
		C1235.4,403,1235,401.2,1234.8,399.5z"/>
	<path fill="#5C6E9D" d="M1272.3,453.3c0.3-0.2,0.4-0.3,0.4-0.3C1272.6,453.1,1272.4,453.2,1272.3,453.3z"/>
	<path fill="#5C6E9D" d="M1257.2,464.1c-0.1,0-0.1,0-0.2,0C1257.2,464.1,1257.2,464.1,1257.2,464.1z"/>
	<path fill="#5C6E9D" d="M1243.8,398.4c0.5,0.1,1.1,0.2,1.7,0.2c-0.1-0.5-0.1-1-0.1-1.7c0-1,0.2-1.1-0.1-2c-0.4-1.3-2.3-0.8-2.1,0.6
		C1243.4,396.5,1243.7,397.4,1243.8,398.4z"/>
	<path fill="#5C6E9D" d="M1248.6,408.1c-0.8-1.8-1.4-3.7-2-5.6h-2.3c0.6,2.2,1.5,4.4,2.4,6.4C1247.2,409.9,1249,409.2,1248.6,408.1z
		"/>
	<path fill="#5C6E9D" d="M1035.9,421.5c-0.1-5.2-0.7-10-1.8-15c-0.5-2.2-1.1-4.5-1.7-6.8c-1.4-11.8-4.4-24.8-5.7-36.9
		c-0.3-2.5-0.7-4.9-0.8-7.5c-0.2-4.7-0.8-9.3-1.6-13.9c-1.4-9-3.7-17.9-6.8-26.5c-6-16.5-14.3-33.5-24.7-47.7
		c-10.7-14.5-27.8-19.9-43.8-26.8c-7.9-3.4-15.5-6.9-22.8-11.2c-0.8,0-1.5-0.1-1.9-0.2c-1.8-0.4-3.7-1.7-10.6-2.1
		c1.3,0.6,2.5,1.2,3.8,2c6.9,4.1,13.8,7.9,21.2,11.1c15.8,6.6,35.5,11,47.6,23.8c6.1,6.4,10.9,14.6,15.2,22.2
		c4.6,8.1,8.6,16.6,12,25.3c3.3,8.5,5.8,17.3,7.6,26.2c0.6,3,1.2,5.9,1.6,8.9c4.1,18.4,5.1,36.4,7.5,54.7c0.8,2.7,1.6,5.6,2.2,8.4
		c0.9,4,1.3,8.1,0.7,11.9C1034.2,421.6,1035.1,421.5,1035.9,421.5z"/>
	<path fill="#5C6E9D" d="M1017,350.9c0.3,2.8,0.4,5.6,0.6,8.4c0.5-0.1,1-0.2,1.5-0.3c-0.1-2.8-0.3-5.7-0.6-8.5
		C1018,350.6,1017.5,350.8,1017,350.9z"/>
	<path fill="#5C6E9D" d="M985.9,274.6c0.5-0.3,1-0.6,1.6-0.9c-0.7-0.8-1.4-1.5-2.2-2.2c-1.7-1.6-3.6-3-5.5-4.4
		c-0.6,0.2-1.3,0.4-1.9,0.7c0.7,0.5,1.3,0.9,2,1.4C982,270.8,984,272.6,985.9,274.6z"/>
	<path fill="#5C6E9D" d="M999.2,291.5c-1-1.9-2-3.8-3.1-5.7c-0.4,0.2-0.7,0.3-1.1,0.5c-0.1,0.1-0.2,0.1-0.4,0.2
		c0.8,1.3,1.5,2.7,2.2,4c0.3,0.5,0.6,1.1,0.8,1.6C998.2,291.9,998.7,291.6,999.2,291.5z"/>
	<path fill="#5C6E9D" d="M912.3,233.1c0.4-0.5,0.8-1,1.2-1.5c-0.5-0.2-1-0.4-1.6-0.5c-1.8-0.6-3.6-1.1-5.4-1.7
		c-0.5,0.5-1.1,1-1.6,1.5c1.2,0.3,2.4,0.6,3.6,1C909.8,232.3,911.1,232.7,912.3,233.1z"/>
	<path fill="#5C6E9D" d="M989.7,276.2c-0.6,0.3-1.1,0.5-1.6,0.8c1.7,2.1,3.3,4.2,4.8,6.5c0.5-0.3,1-0.6,1.5-0.8
		C992.9,280.5,991.4,278.3,989.7,276.2z"/>
	<path fill="#5C6E9D" d="M950.9,249c-0.4,0.4-0.8,0.9-1.2,1.3c1.6,0.9,3.2,1.8,4.7,2.7c0.1-0.1,0.2-0.2,0.3-0.2c0.3-0.3,0.7-0.6,1-1
		C954.1,250.9,952.5,250,950.9,249z"/>
	<path fill="#5C6E9D" d="M943.8,245.1c-0.2,0.3-0.4,0.5-0.7,0.7c-0.2,0.2-0.4,0.3-0.6,0.5c1.2,0.6,2.4,1.3,3.6,1.9
		c0.4-0.4,0.8-0.8,1.2-1.3C946.2,246.4,945,245.7,943.8,245.1z"/>
	<path fill="#5C6E9D" d="M932,239.2c-2-1-4.1-1.9-6.2-2.8c-0.4,0.5-0.8,0.9-1.1,1.4c2,0.8,3.9,1.7,5.9,2.6c0.1-0.1,0.2-0.2,0.3-0.3
		C931.3,239.8,931.7,239.5,932,239.2z"/>
	<path fill="#5C6E9D" d="M917.5,233.1c-0.4,0.5-0.9,0.9-1.3,1.4c2.2,0.8,4.4,1.6,6.6,2.5c0.3-0.5,0.7-1,1.1-1.4
		C921.8,234.7,919.7,233.8,917.5,233.1z"/>
	<path fill="#5C6E9D" d="M939.6,242.9c-1.2-0.6-2.3-1.2-3.5-1.8l0,0c-0.5,0.4-1.1,0.7-1.6,1.1c1.5,0.7,3,1.5,4.5,2.3
		c0.4-0.4,0.9-0.8,1.3-1.2C940.1,243.1,939.8,243,939.6,242.9z"/>
	<path fill="#5C6E9D" d="M902.2,230.2c0.2-0.3,0.5-0.6,0.8-0.9c0.2-0.2,0.4-0.4,0.6-0.7c-1.8-0.5-3.7-0.9-5.6-1.3
		c-2.1,0.2-4.3,0.5-6.4,0.9C895.1,228.7,898.6,229.4,902.2,230.2z"/>
	<path fill="#5C6E9D" d="M1025,421.2c-0.6,0.1-1.2,0.3-1.7,0.4c0.1,0.2,0.1,0.4,0.2,0.6c0.6,0,1.2-0.1,1.8-0.1
		C1025.2,421.7,1025.1,421.5,1025,421.2z"/>
	<path fill="#5C6E9D" d="M968.5,259.5c-0.5,0.3-1,0.6-1.5,1c2.7,1.7,5.5,3.4,8.1,5.2c0.5-0.4,1-0.7,1.6-1
		C973.9,263,971.2,261.2,968.5,259.5z"/>
	<path fill="#5C6E9D" d="M1014.8,331.3c-0.4,0.1-0.8,0.3-1.1,0.4c0.5,2,1,4.1,1.4,6.1c0.5-0.2,1-0.3,1.5-0.4
		c-0.4-2.1-0.9-4.2-1.5-6.2C1015,331.2,1014.9,331.3,1014.8,331.3z"/>
	<path fill="#5C6E9D" d="M1019.5,374.8c-0.5-0.1-1-0.2-1.6-0.2c0,2.2,0.1,4.4,0.1,6.6c0.5,0,1.1-0.1,1.6-0.1c0-1.8-0.1-3.7-0.1-5.5
		C1019.6,375.3,1019.5,375,1019.5,374.8z"/>
	<path fill="#5C6E9D" d="M1009.8,319.3c1,2.9,2,5.9,2.9,8.9c0.5-0.2,1-0.4,1.5-0.5c-0.8-2.9-1.8-5.9-2.8-8.7
		C1010.8,319,1010.3,319.1,1009.8,319.3z"/>
	<path fill="#5C6E9D" d="M1018.9,398.3L1018.9,398.3c0.2,2.9,0.5,5.8,1,8.7c0.6,0,1.2,0,1.8,0.1c-0.4-2.7-0.8-5.4-1-8.1
		C1020.1,398.6,1019.5,398.4,1018.9,398.3z"/>
	<path fill="#5C6E9D" d="M964,258.2c0.3-0.3,0.7-0.5,1.1-0.8c-0.6-0.3-1.1-0.7-1.7-1c-1.7-1-3.4-2.1-5.1-3.1c-0.5,0.3-1.1,0.7-1.6,1
		c0.2,0.1,0.4,0.2,0.5,0.3c2.1,1.3,4.3,2.5,6.4,3.8C963.8,258.4,963.9,258.3,964,258.2z"/>
	<path fill="#5C6E9D" d="M1022.2,418c0.6-0.2,1.2-0.3,1.7-0.5c-0.5-1.9-1-3.9-1.4-5.8c-0.6-0.3-1.3-0.5-2-0.7
		C1021,413.4,1021.5,415.7,1022.2,418z"/>
	<path fill="#5C6E9D" d="M1017.1,340.5c-0.5,0-1,0.1-1.5,0.3c0.1,0.8,0.3,1.5,0.4,2.3c0.2,1.4,0.4,2.8,0.6,4.2
		c0.5-0.2,1-0.4,1.5-0.5c0-0.4-0.1-0.7-0.1-1.1C1017.7,344,1017.5,342.2,1017.1,340.5z"/>
	<path fill="#5C6E9D" d="M1003.3,303.4c0.7,1.4,1.3,2.9,1.9,4.3c0.5-0.1,1.1-0.2,1.6-0.2c-0.6-1.5-1.3-2.9-1.9-4.3
		C1004.4,303.2,1003.8,303.3,1003.3,303.4z"/>
	<path fill="#5C6E9D" d="M1006.5,310.7c0.7,1.6,1.3,3.2,1.9,4.8c0.5-0.2,1-0.3,1.5-0.4c-0.6-1.5-1.2-3-1.8-4.4
		C1007.6,310.6,1007,310.6,1006.5,310.7z"/>
	<path fill="#5C6E9D" d="M1019.2,384.6c-0.3-0.1-0.7-0.2-1.1-0.2c0.1,3.3,0.2,6.6,0.4,9.8c0.6-0.1,1.1-0.1,1.7,0
		c-0.2-3.1-0.4-6.3-0.5-9.4C1019.6,384.8,1019.4,384.7,1019.2,384.6z"/>
	<path fill="#5C6E9D" d="M1017.7,363c0.1,2.5,0.1,4.9,0.2,7.4c0.5,0,1,0,1.6,0c0-2.5-0.1-5.1-0.2-7.6
		C1018.8,362.9,1018.3,362.9,1017.7,363z"/>
	<path fill="#5C6E9D" d="M1000.9,294.8c-0.5,0.1-1,0.3-1.5,0.5c0.7,1.4,1.5,2.9,2.2,4.4c0.5-0.2,1-0.3,1.5-0.4
		C1002.3,297.7,1001.6,296.3,1000.9,294.8z"/>
	<path fill="#5C6E9D" d="M962.6,243L962.6,243c1.7,0.6,3.2,1.3,4.8,1.9c0.3-0.3,0.7-0.6,1-0.8c0.1-0.1,0.2-0.2,0.3-0.3
		c-1.6-0.7-3.1-1.3-4.7-2c-0.2,0.1-0.3,0.3-0.5,0.4C963.2,242.5,962.9,242.8,962.6,243z"/>
	<path fill="#5C6E9D" d="M975.7,249c0.4-0.4,0.7-0.8,1.1-1.2c-1.5-0.8-3-1.6-4.5-2.3c-0.4,0.4-0.9,0.7-1.4,1.1
		C972.5,247.3,974.1,248.1,975.7,249z"/>
	<path fill="#5C6E9D" d="M1036.4,369.5c0,0.1,0.1,0.2,0.1,0.3c0.4,1.8,0.7,3.5,1.1,5.3c0.5-0.1,1-0.3,1.5-0.4
		c-0.4-1.9-0.8-3.9-1.2-5.8C1037.4,369.1,1036.9,369.3,1036.4,369.5z"/>
	<path fill="#5C6E9D" d="M1030.2,342.8c0.8,3,1.5,6.1,2.2,9.1c0.5,0.1,1.1,0.1,1.6,0.1c-0.8-3.2-1.5-6.4-2.3-9.6
		C1031.2,342.5,1030.7,342.7,1030.2,342.8z"/>
	<path fill="#5C6E9D" d="M1026.8,330c0.9,3,1.7,6,2.5,8.9c0.5-0.1,1-0.3,1.5-0.4c-0.8-3-1.6-5.9-2.4-8.8
		C1027.8,329.8,1027.3,329.9,1026.8,330z"/>
	<path fill="#5C6E9D" d="M1038.4,379.1c0.6,2.8,1.2,5.6,1.7,8.3c0.5-0.1,1-0.2,1.6-0.3c-0.6-2.8-1.2-5.7-1.8-8.5
		C1039.4,378.8,1038.9,378.9,1038.4,379.1z"/>
	<path fill="#5C6E9D" d="M1043.2,406.6c0.1,2.8,0,5.6-0.4,8.5c0.5,0,1,0,1.6,0c0.4-2.8,0.6-5.5,0.5-8.4
		C1044.3,406.6,1043.8,406.6,1043.2,406.6z"/>
	<path fill="#5C6E9D" d="M939.8,234.2c3.1,1.4,6.2,2.6,9.4,3.8c0.3-0.5,0.7-0.9,1.1-1.3c-1.3-0.5-2.6-1-3.8-1.5
		c-1.7-0.7-3.4-1.4-5-2.2C940.9,233.4,940.3,233.8,939.8,234.2z"/>
	<path fill="#5C6E9D" d="M933.9,229.3c-1.3,0-2.5,0-3.6,0c2,1.2,4.1,2.4,6.3,3.4c0.4-0.5,0.8-1,1.2-1.4
		C936.5,230.7,935.2,230,933.9,229.3z"/>
	<path fill="#5C6E9D" d="M958.9,241.6c0.1-0.2,0.2-0.5,0.4-0.7c0.1-0.2,0.3-0.5,0.5-0.7c-1.7-0.6-3.4-1.3-5.1-1.9
		c-0.2,0.1-0.4,0.3-0.6,0.4c-0.3,0.2-0.6,0.5-0.9,0.7C955.1,240.2,957,240.9,958.9,241.6z"/>
	<path fill="#5C6E9D" d="M984.2,253.9c-0.1,0.1-0.2,0.2-0.3,0.2c1.7,1.3,3.4,2.6,5,4c0.4-0.2,0.9-0.5,1.3-0.7
		c-1.7-1.5-3.4-2.9-5.2-4.2C984.8,253.4,984.5,253.7,984.2,253.9z"/>
	<path fill="#5C6E9D" d="M1044.3,401.1c-0.5-3.4-1.1-6.7-1.8-10.1c-0.5,0.1-1.1,0.2-1.6,0.3c0.6,3.4,1.3,6.7,1.8,10.1
		C1043.2,401.3,1043.7,401.2,1044.3,401.1z"/>
	<path fill="#5C6E9D" d="M1033.5,356.1c0.7,3.2,1.4,6.3,2.1,9.5c0.5-0.2,1-0.4,1.5-0.6c-0.6-3-1.3-6-2-9
		C1034.5,356.1,1034,356.1,1033.5,356.1z"/>
	<path fill="#5C6E9D" d="M1012.7,287.7c-1.1-2.2-2.2-4.3-3.5-6.4c-0.5,0.2-1,0.4-1.5,0.6c1.2,2.1,2.4,4.3,3.5,6.5
		C1011.8,288.2,1012.2,288,1012.7,287.7z"/>
	<path fill="#5C6E9D" d="M1012.8,291.5c1,2.1,2,4.3,2.9,6.4c0.5-0.2,1-0.5,1.4-0.7c-0.9-2.2-1.9-4.4-2.9-6.5
		C1013.7,291,1013.3,291.3,1012.8,291.5z"/>
	<path fill="#5C6E9D" d="M1001.8,272.5c1.4,2,2.8,4,4,6.1c0.5-0.2,1-0.4,1.5-0.6c-0.6-0.9-1.2-1.9-1.8-2.8c-0.7-1-1.4-2.1-2.1-3.1
		C1002.9,272.3,1002.4,272.4,1001.8,272.5z"/>
	<path fill="#5C6E9D" d="M993,261.9c0.2,0,0.3-0.1,0.5-0.1c0.4-0.1,0.8-0.2,1.3-0.2c-0.6-0.6-1.3-1.3-1.9-1.9
		c-0.5,0.2-0.9,0.4-1.4,0.7C991.9,260.9,992.4,261.4,993,261.9z"/>
	<path fill="#5C6E9D" d="M999.5,269.5c0.5-0.1,1.1-0.3,1.6-0.4c-1-1.3-2-2.5-3.1-3.8c-0.6,0.1-1.2,0.2-1.8,0.2
		C997.4,266.8,998.5,268.1,999.5,269.5z"/>
	<path fill="#5C6E9D" d="M1019.3,307.1c0.5-0.1,1-0.3,1.5-0.4c-0.8-2.2-1.7-4.5-2.6-6.7c-0.4,0.4-0.8,0.8-1.3,1.1
		C1017.8,303.1,1018.6,305.1,1019.3,307.1z"/>
	<path fill="#5C6E9D" d="M1043.7,419.1c-0.5,0-1,0-1.5-0.1c-0.2,0.8-0.3,1.5-0.5,2.3c0.5,0,1,0,1.6,0
		C1043.4,420.6,1043.5,419.9,1043.7,419.1z"/>
	<path fill="#5C6E9D" d="M1020.3,310c0.6,1.5,1.1,3.1,1.6,4.6c0.5-0.1,1-0.3,1.5-0.5c-0.5-1.5-1-3-1.6-4.5
		C1021.4,309.7,1020.9,309.9,1020.3,310z"/>
	<path fill="#5C6E9D" d="M1024.8,318.1c-0.5,0.2-1,0.4-1.5,0.6c0.8,2.5,1.6,5,2.4,7.5c0.5-0.1,0.9-0.2,1.4-0.3c0.1,0,0.1,0,0.2,0
		c-0.5-1.7-1-3.5-1.6-5.2C1025.3,319.9,1025.1,319,1024.8,318.1z"/>
	<path fill="#5C6E9D" d="M978,250.3c1.3,0.7,2.5,1.5,3.7,2.3c0.3-0.3,0.7-0.5,1-0.7c0.1-0.1,0.2-0.1,0.3-0.2
		c-1.2-0.9-2.5-1.7-3.8-2.5c-0.2,0.2-0.4,0.3-0.6,0.5C978.3,249.9,978.2,250.1,978,250.3z"/>
	<path fill="#5C6E9D" d="M1044.8,405.6c0-0.2,0-0.3-0.1-0.5c-0.4,0-0.7,0.1-1,0.2c-0.2,0-0.4,0.1-0.6,0.1c0,0.4,0,0.7,0.1,1.1
		c0.5,0,1.1,0.1,1.7,0.1C1044.9,406.3,1044.8,406,1044.8,405.6z"/>
	<path fill="#5C6E9D" d="M1042.7,401.5c0,0.2,0.1,0.5,0.1,0.7c0.6,0,1.1,0,1.6,0.1c0-0.4-0.1-0.8-0.2-1.2
		C1043.7,401.2,1043.2,401.3,1042.7,401.5L1042.7,401.5z"/>
	<path fill="#5C6E9D" d="M961.7,243.5c-0.2,0.1-0.5,0.3-0.7,0.4c0.2-0.1,0.4-0.2,0.6-0.3C961.6,243.7,961.6,243.6,961.7,243.5z"/>
	<path fill="#5C6E9D" d="M885.2,248.2c0.4,0.1,0.6-0.5,0.2-0.7c-7.9-2.8-15.7-5.4-24.1-6.6c-0.5-0.1-1-0.1-1.5-0.2
		c-2.1,1.2-3.3,1.9-3.3,1.9s-1.6,0.2-4.4,0.7C863.3,244.2,874.4,245.6,885.2,248.2z"/>
	<path fill="#5C6E9D" d="M984.8,232.9c0.8,1.5,1.4,4,3.1,4.7c0.4,0.2,0.9,0.1,1-0.4c0.5-1.5-0.5-3.2-1.4-4.5c-1-0.1-2-0.3-3.1-0.4
		C984.6,232.5,984.7,232.7,984.8,232.9z"/>
	<path fill="#5C6E9D" d="M661.8,447.4c0.2,1.8,0.3,3.7,0.3,5.5c0.7,0.1,1.4,0.2,2.1,0.3c0-1.8-0.1-3.6-0.2-5.3
		C663.3,447.7,662.6,447.5,661.8,447.4z"/>
	<path fill="#5C6E9D" d="M660.1,434.3c0.4,2.7,0.9,5.4,1.2,8c0.8,0.1,1.5,0.1,2.3,0.2c-0.3-2.7-0.6-5.4-1.1-8.2
		C661.8,434.4,661,434.4,660.1,434.3z"/>
	<path fill="#5C6E9D" d="M664.4,457.7c-0.7,0-1.4-0.1-2.1-0.1c0,1.8-0.1,3.7-0.2,5.5c0.7,0.1,1.4,0.2,2.2,0.3
		C664.3,461.5,664.4,459.6,664.4,457.7z"/>
	<path fill="#5C6E9D" d="M657.3,414.6c0.7-0.1,1.5-0.1,2.3-0.1c-0.2-2.3-0.2-4.6-0.2-6.9c-0.7-0.1-1.5-0.3-2.2-0.4
		C657.1,409.7,657.1,412.1,657.3,414.6z"/>
	<path fill="#5C6E9D" d="M657.3,403.3c0.7,0.1,1.4,0.2,2.1,0.3c0.1,0,0.1,0,0.2,0c0-0.1,0-0.3,0-0.4c0.2-2.2,0.4-4.3,0.8-6.4
		c-0.8-0.1-1.6-0.2-2.4-0.3C657.6,398.7,657.4,401,657.3,403.3z"/>
	<path fill="#5C6E9D" d="M659.2,428.9c0.8,0,1.6,0.1,2.5,0.1c0-0.1-0.1-0.3-0.1-0.4c-0.6-3.3-1.2-6.6-1.6-9.9c-0.8,0-1.6,0-2.3,0
		c0.3,2.9,0.7,5.8,1.3,8.7C659,427.9,659.1,428.4,659.2,428.9z"/>
	<path fill="#5C6E9D" d="M663.8,468.6c-0.7-0.1-1.5-0.2-2.2-0.3c-0.1,1.4-0.3,2.8-0.5,4.2c0.7,0.3,1.5,0.7,2.1,1
		C663.5,471.8,663.7,470.2,663.8,468.6z"/>
	<path fill="#5C6E9D" d="M657.2,523c0.8-0.1,1.6-0.2,2.3-0.3c-0.8-3.5-1.1-7.1-1.2-10.6c-0.8,0-1.5,0.1-2.2,0.2
		C656.2,515.9,656.5,519.4,657.2,523z"/>
	<path fill="#5C6E9D" d="M662.4,536.4c0.8,0,1.7-0.2,2.5-0.5c-1.6-2.6-2.9-5.3-3.9-8.2c-0.8,0.1-1.6,0.1-2.4,0.1
		c0.4,1.2,0.8,2.5,1.3,3.7C660.6,533.2,661.4,534.9,662.4,536.4z"/>
	<path fill="#5C6E9D" d="M662.4,479c-0.7-0.3-1.4-0.6-2.1-1c-0.3,2-0.7,4.1-1,6.1c0.7,0.2,1.4,0.4,2.1,0.6
		C661.8,482.8,662.1,480.9,662.4,479z"/>
	<path fill="#5C6E9D" d="M678.3,547.6c-0.6,0.5-1.3,0.9-1.8,1.4l0,0c0.6,0.3,1.2,0.6,1.9,0.9c0.7-0.5,1.4-0.9,2.1-1.4
		C679.8,548.2,679,547.9,678.3,547.6z"/>
	<path fill="#5C6E9D" d="M671,545.6c0.6-0.4,1.1-0.8,1.8-1.3c-0.6-0.4-1.2-0.9-1.8-1.4c-1.3-1.1-2.4-2.2-3.5-3.5
		c-0.7,0.4-1.4,0.7-2.2,0.9C667,542.4,668.9,544.1,671,545.6z"/>
	<path fill="#5C6E9D" d="M660.1,385.1c-0.7,2.6-1.2,5.3-1.7,8c0.8,0.1,1.6,0.2,2.5,0.3c0.5-2.7,1.1-5.4,1.7-8.1
		c-0.9-0.1-1.5-0.1-1.9-0.1C660.5,385.1,660.3,385.1,660.1,385.1z"/>
	<path fill="#5C6E9D" d="M656.2,507.8c0.7,0,1.5,0,2.2-0.1c0.1-2.3,0.3-4.5,0.5-6.8c-0.7-0.1-1.4-0.2-2.2-0.3
		C656.5,503,656.3,505.4,656.2,507.8z"/>
	<path fill="#5C6E9D" d="M659.6,495.7c0.3-2,0.6-4.1,1-6.1c-0.7-0.2-1.4-0.4-2.1-0.6c-0.4,2.2-0.7,4.3-1.1,6.5
		C658.2,495.5,658.9,495.6,659.6,495.7z"/>
	<path fill="#5C6E9D" d="M653.8,552.9c0.6-0.5,1.3-1.1,1.9-1.5c-1-1.5-2-3-2.8-4.6c-0.9,0.1-1.9,0.3-2.8,0.7c1,2,2.2,3.9,3.5,5.6
		C653.7,553,653.7,553,653.8,552.9z"/>
	<path fill="#5C6E9D" d="M643.9,400.9c0,2,0,4,0.2,6c0.8-0.1,1.6-0.3,2.5-0.5c0.1,0,0.1,0,0.2-0.1c-0.2-3-0.2-6,0-9.1
		c0-0.3,0-0.6,0.1-0.8c-0.9,0.1-1.8,0.2-2.7,0.2C644,398,643.9,399.4,643.9,400.9z"/>
	<path fill="#5C6E9D" d="M648.1,419.9c-0.8,0.1-1.7,0.1-2.5,0.2c0.4,2.7,0.8,5.4,1.1,8.1c0,0.1,0,0.3,0,0.4c0.8-0.1,1.6-0.1,2.5-0.1
		c-0.2-1.5-0.3-3-0.5-4.5C648.5,422.5,648.3,421.2,648.1,419.9z"/>
	<path fill="#5C6E9D" d="M646,490.9c-0.7-0.3-1.4-0.7-2.2-1c-0.4,2.8-0.7,5.7-0.9,8.8c0.9,0.1,1.8,0.2,2.7,0.3
		c0.2-2.6,0.5-5.2,0.8-7.8C646.3,491,646.2,490.9,646,490.9z"/>
	<path fill="#5C6E9D" d="M650.2,456c-0.9-0.1-1.8-0.2-2.7-0.4c-0.1,2.8-0.3,5.5-0.5,8.3c0.9,0.2,1.8,0.4,2.7,0.6
		C649.9,461.7,650.1,458.8,650.2,456z"/>
	<path fill="#5C6E9D" d="M650.2,442.2c-0.1-2.7-0.3-5.5-0.5-8.2c-0.9,0-1.7-0.1-2.5-0.2c0.2,2.7,0.4,5.5,0.4,8.2
		C648.5,442.1,649.3,442.1,650.2,442.2z"/>
	<path fill="#5C6E9D" d="M648.3,535.1c-0.7-2.3-1.2-4.7-1.7-7.1c-0.9,0-1.8,0.1-2.7,0.2c0.5,2.7,1,5.3,1.8,7.9
		C646.5,535.6,647.4,535.3,648.3,535.1z"/>
	<path fill="#5C6E9D" d="M642.6,514.6c0.1,3.1,0.4,6.1,0.7,9.2c0.9-0.1,1.7-0.2,2.6-0.3c-0.4-3.1-0.7-6.2-0.8-9.2
		C644.3,514.4,643.4,514.5,642.6,514.6z"/>
	<path fill="#5C6E9D" d="M646.7,468.3c-0.2,2.3-0.5,4.7-0.8,7.1c0.2,0.1,0.5,0.2,0.7,0.3c0.6,0.3,1.2,0.5,1.9,0.8
		c0.1-0.5,0.1-0.9,0.2-1.4c0.3-1.9,0.5-3.8,0.7-5.7C648.4,469,647.5,468.7,646.7,468.3z"/>
	<path fill="#5C6E9D" d="M650.3,446.7c-0.9,0-1.7,0-2.6,0c0,1.6,0,3.2-0.1,4.8c0.9,0,1.8,0.1,2.6,0.2
		C650.3,450,650.3,448.3,650.3,446.7z"/>
	<path fill="#5C6E9D" d="M645.3,503.7c-0.9-0.1-1.8-0.2-2.6-0.4c-0.1,2.5-0.2,5-0.2,7.5c0.9-0.1,1.7-0.3,2.6-0.6
		C645.1,508,645.2,505.8,645.3,503.7z"/>
	<path fill="#5C6E9D" d="M658.9,555.3c-0.6,0.3-1.2,0.6-1.8,1c-0.2,0.1-0.4,0.2-0.5,0.3c1.4,1.5,3,2.9,4.6,4.2
		c0.8-0.5,1.5-1,2.3-1.5C661.8,558.2,660.3,556.8,658.9,555.3z"/>
	<path fill="#5C6E9D" d="M647.7,481.6c-0.8-0.3-1.7-0.8-2.5-1.2c-0.3,2-0.6,4-0.9,6c0.9,0.3,1.8,0.6,2.6,0.8
		C647.2,485.3,647.4,483.5,647.7,481.6z"/>
	<path fill="#5C6E9D" d="M644.4,410.7c0.2,1.8,0.4,3.7,0.7,5.5c0.9,0,1.7,0,2.6-0.1l0,0c-0.2-2-0.5-3.9-0.6-5.9
		C646.2,410.4,645.3,410.6,644.4,410.7z"/>
	<path fill="#5C6E9D" d="M648.2,539.1c-0.5,0.1-1,0.3-1.5,0.4c0.5,1.4,1,2.8,1.6,4.2c0.9-0.4,1.7-0.8,2.6-1c-0.5-1.3-1-2.5-1.5-3.9
		C649.1,538.9,648.6,538.9,648.2,539.1z"/>
	<path fill="#5C6E9D" d="M644.3,393.4c0.9,0,1.8,0,2.7-0.1c0.2-2.1,0.3-4.3,0.5-6.4c-0.9,0.3-1.9,0.5-2.8,0.6
		C644.5,389.4,644.4,391.4,644.3,393.4z"/>
	<path fill="#5C6E9D" d="M654.2,477.4c1-8.1,1.9-16.3,2.2-24.5c0.3-9.1-0.6-18.1-1.5-27.1c-1.4-14-1.6-27.4,1.4-40.8
		c-1.3,0.1-2.6,0.2-3.8,0.4c-3.5,12.9-1.8,27.4-0.4,40.4c1,9.6,2,19.3,1.7,29c-0.3,9.1-1.6,18.2-2.7,27.3
		c-3.1,25-4.4,57.5,15.5,75.4c0.8-0.5,1.7-1.1,2.5-1.6C647.5,537.8,651,503.1,654.2,477.4z"/>
</g>
</svg>
