<?xml version="1.0" encoding="utf-8"?>
<!-- Generator: Adobe Illustrator 22.1.0, SVG Export Plug-In . SVG Version: 6.00 Build 0)  -->
<svg version="1.1" id="Layer_1" xmlns="http://www.w3.org/2000/svg" xmlns:xlink="http://www.w3.org/1999/xlink" x="0px" y="0px"
	 viewBox="0 0 2000 2000" enable-background="new 0 0 2000 2000" xml:space="preserve">
<g id="_x31_7_x5F_HeadGear_x5F_DadCap_x5F_Background">
	<path fill="#5C6E9D" d="M1000.6,463.6l301.5,33l55.9,11.1c31.1,11.5,50.8,18.2,77.3,29.5c19.3,8.2,27.7,18,30.1,26.6
		c1.1,3.3,1.2,6.3,0.6,9c-2,9.9-4.8,12.7-22,21.3c-17.2,8.7-62.2-0.8-102.2-12.8c-40-12.1-56.1-23.1-56.1-23.1
		c-0.3-27.6-2-49.2-2-49.2s-118.3-29-226.7-2s-219.3,73.3-262.7,96.7c-43.3,23.3-109.3,47.7-158,34s-34-31.1-34-31.1
		c-30.8,18-37.7,33.1-43.4,40.9c-6.1,8.3-11.6,7.6-20.1-14.3c-8.5-21.8-7.8-48.9-4-73L1000.6,463.6z"/>
	<path fill="#5C6E9D" d="M678.3,547.6c-0.6,0.5-1.3,0.9-1.8,1.4l0,0c0.6,0.3,1.2,0.6,1.9,0.9c0.7-0.5,1.4-0.9,2.1-1.4
		C679.8,548.2,679,547.9,678.3,547.6z"/>
	<path fill="#5C6E9D" d="M671,545.6c0.6-0.4,1.1-0.8,1.8-1.3c-0.6-0.4-1.2-0.9-1.8-1.4c-1.3-1.1-2.4-2.2-3.5-3.5
		c-0.7,0.4-1.4,0.7-2.2,0.9C667,542.4,668.9,544.1,671,545.6z"/>
	<path fill="#5C6E9D" d="M653.8,552.9c0.6-0.5,1.3-1.1,1.9-1.5c-1-1.5-2-3-2.8-4.6c-0.9,0.1-1.9,0.3-2.8,0.7c1,2,2.2,3.9,3.5,5.6
		C653.7,553,653.7,553,653.8,552.9z"/>
	<path fill="#5C6E9D" d="M658.9,555.3c-0.6,0.3-1.2,0.6-1.8,1c-0.2,0.1-0.4,0.2-0.5,0.3c1.4,1.5,3,2.9,4.6,4.2
		c0.8-0.5,1.5-1,2.3-1.5C661.8,558.2,660.3,556.8,658.9,555.3z"/>
</g>

</svg>
