<?xml version="1.0" encoding="utf-8"?>
<!-- Generator: Adobe Illustrator 22.1.0, SVG Export Plug-In . SVG Version: 6.00 Build 0)  -->
<svg version="1.1" id="_x31_8_x5F_HeadGear_x5F_Snapback"
	 xmlns="http://www.w3.org/2000/svg" xmlns:xlink="http://www.w3.org/1999/xlink" x="0px" y="0px" viewBox="0 0 2000 2000"
	 enable-background="new 0 0 2000 2000" xml:space="preserve">
	 <g id="_x31_8_x5F_HeadGear_x5F_Snapback_x5F_background">
	 	<g>
	 		<g>
	 			<g>
	 				<path fill="#5AB0A3" d="M689.4,547.4c30.4-11.9,65.2-22.8,133.7-40.9s125.9-30.2,194.4-34.9c68.5-4.7,66.1-11.4,157.7-2.2
	 					c91.6,9.2,103.2,12.3,107.4,23.4c4.2,11.2,3.5,28.7,3.5,28.7s29.3-2.6,66.8-21.2c34.4-17,68.4-46.1,85-70.7
	 					c11.1-35.8-11-46.8-45.1-52.8c-37.4-6.7-111.1-25.1-228.6-23.7c-117.5,1.5-168.5,15-261.2,33.5S759.6,427,697.5,471.9"/>
	 			</g>
	 		</g>
	 	</g>

</svg>
