<?xml version="1.0" encoding="utf-8"?>
<!-- Generator: Adobe Illustrator 21.0.2, SVG Export Plug-In . SVG Version: 6.00 Build 0)  -->
<svg version="1.1" id="_x31_8_x5F_HeadGear_x5F_Snapback"
	 xmlns="http://www.w3.org/2000/svg" xmlns:xlink="http://www.w3.org/1999/xlink" x="0px" y="0px" viewBox="0 0 2000 2000"
	 enable-background="new 0 0 2000 2000" xml:space="preserve">
<g>
	<g>
		<g>
			<g>
				<path fill="#47339B" d="M1233.2,329.7L809.7,480l-115.4,41L594,589c-25,23.8-36.4,46.8-36.4,46.8s-12.6-5.8-18.1-26.3
					S530.2,568,518,536s-19.5-64.7-14-102.5s11-56.8,11-56.8s-4-27.6,5.2-44.9c6.9-12.9,9.7-22.1,14.1-31.7c1.5-3.2,3.1-6.5,5.2-10
					c4.5-7.8,11.2-17.5,19-25.6c6-6.3,12.7-11.6,19.7-14.3c0,0,1.3-4.5,4.9-11.7c4.2-8.5,11.7-20.8,24-34.1c0.6-0.6,1.1-1.2,1.7-1.8
					c5.1-5.3,10.7-10.2,16.7-14.9c22.4-17.2,50.5-29.9,77.8-41.4c34.5-14.6,96.8-29.5,122.4-44.2c25.6-14.8,48.4-13,48.4-13l6.8,2.7
					c0,0,23.4,2.9,49.2,5.2c25.8,2.3,59.3,12.8,105.2,24.4c45.9,11.6,101.7,36.5,119.5,47.8c17.8,11.3,28.5,17.7,35,23.6
					c6.6,5.9,3.9,15.1,12.1,34.3s10.1,23.7,21.5,55.4C1234.6,314.1,1233.2,329.7,1233.2,329.7z"/>
			</g>
			<path fill="#583688" d="M610,223.7l-7.6,9.8l11.5,6.4l7.6-9.9c5.9,1.2,12.4,0.2,18.1-2.7c3.8-1.9,7.2-4.7,9.9-8.1
				c4-5.1,5.7-11.1,4.9-16.8c-0.5-3.5-2-6.7-4.3-9.2l7.6-9.8l-11.5-6.4l-7.6,9.8c-3.7-0.7-7.7-0.6-11.7,0.4
				c-0.5,0.1-1.1,0.3-1.6,0.5c-6,4.6-11.6,9.5-16.7,14.9c-0.6,0.6-1.1,1.2-1.7,1.8C604.3,211.3,605.5,218.5,610,223.7z M622.1,204
				c1.1-1.4,2.5-2.5,4.1-3.3c0.7-0.4,1.5-0.7,2.4-0.9c0.1,0,0.2-0.1,0.2-0.1c2.7-0.7,5.3-0.4,7.4,0.8c2.1,1.2,3.5,3.1,3.8,5.4
				c0,0.1,0,0.1,0,0.2c0.3,2.3-0.4,4.6-2,6.7c-1.6,2.1-4,3.5-6.4,4.2c-2.6,0.7-5.4,0.5-7.7-0.7s-3.6-3.3-3.9-5.6
				C619.9,208.5,620.5,206.1,622.1,204z"/>
			<path fill="#583688" d="M522.5,390.1c1.8-1.8,3.2-4.3,4.3-7.2c1.7-4.7,2-10.1,0.9-15.1s-3.5-9.2-6.7-11.6c-2-1.5-4.1-2.3-6.3-2.2
				l-0.2-1.1c-0.4,4.7-0.5,9.2-0.4,13c0.2,0,0.5-0.1,0.7-0.1c0.9,0,1.8,0.4,2.7,1c1.2,1,2.2,2.6,2.6,4.6c0.4,2.1,0.3,4.2-0.3,6
				c-0.6,1.9-1.8,3.5-3.3,4.2c-1,0.5-2,0.5-2.9,0.2c-0.7,2.7-1.5,6.4-2.5,11.1c1.2,0.5,2.5,0.8,3.8,0.8h0.1l2.1,9.6l7.6-3.5
				L522.5,390.1z"/>
			<path fill="#583688" d="M624.5,377.1c-0.4-6.3-2.2-12.1-5.1-16.4c-1.8-2.6-3.9-4.5-6.1-5.5l-0.7-12l-8.3,0.5l0.7,12
				c-2.1,1.2-3.9,3.3-5.4,6.2c-2.4,4.6-3.5,10.6-3.1,16.9c0.6,10.5,5.3,19.2,11.2,21.9l0.7,12l8.3-0.5l-0.7-12
				C621.5,396.8,625.1,387.6,624.5,377.1z M615,384.3c-0.9,1.9-2.3,3.1-4,3.2l0,0c-1.6,0.1-3.2-1-4.3-2.7s-1.8-4-2-6.5
				c-0.1-2.5,0.3-4.9,1.2-6.7c0-0.1,0.1-0.1,0.1-0.2c1-1.9,2.4-3,3.9-3.1l0,0c1.5-0.1,3,0.8,4.2,2.6c0,0.1,0.1,0.1,0.1,0.2
				c1.1,1.7,1.8,4,2,6.5C616.4,380.1,615.9,382.5,615,384.3z"/>
			<path fill="#583688" d="M657.1,299.2c-1.7-3.8-4.3-7.1-7.5-9.6l4.6-12.1l-14-5.3l-4.6,12.1c-4.1-0.3-8.2,0.5-12,2.2
				c-6.2,2.8-10.9,7.8-13.3,14.1c-4.1,10.6-0.5,22.3,8.1,29l-4.6,12.1l14,5.3l4.6-12.1c1.3,0.1,2.6,0.1,3.9,0
				c9.3-0.9,17.9-6.9,21.4-16.2C660.1,312.3,659.9,305.4,657.1,299.2z M643.7,313.3c-1,2.6-2.9,4.5-5.2,5.6
				c-2.5,1.2-5.4,1.4-8.2,0.4c-2.7-1.1-4.8-3.2-5.9-5.7c-1-2.4-1.1-5.1-0.1-7.7s2.9-4.5,5.2-5.7c2.5-1.2,5.4-1.4,8.2-0.3
				s4.8,3.2,5.9,5.7C644.5,308,644.7,310.7,643.7,313.3z"/>
			<path fill="#583688" d="M591.7,273.2c-3.3-0.9-6.5-1.1-9.5-0.6l-6.4-8.1l-9.2,4.9l6.4,8.1c-1.8,2-3,4.5-3.3,7.3
				c-0.6,4.6,0.9,9.4,4.2,13.7c5.6,7.1,15,10.8,22.9,9.4l6.4,8.1l9.2-4.9L606,303c0.6-0.7,1.1-1.4,1.5-2.1
				c3.1-5.3,2.5-12.6-2.5-18.9C601.8,277.8,597,274.7,591.7,273.2z"/>
			<path fill="#583688" d="M657.1,299.2c-1.7-3.8-4.3-7.1-7.5-9.6l4.6-12.1l-14-5.3l-4.6,12.1c-4.1-0.3-8.2,0.5-12,2.2
				c-6.2,2.8-10.9,7.8-13.3,14.1c-4.1,10.6-0.5,22.3,8.1,29l-4.6,12.1l14,5.3l4.6-12.1c1.3,0.1,2.6,0.1,3.9,0
				c9.3-0.9,17.9-6.9,21.4-16.2C660.1,312.3,659.9,305.4,657.1,299.2z M643.7,313.3c-1,2.6-2.9,4.5-5.2,5.6
				c-2.5,1.2-5.4,1.4-8.2,0.4c-2.7-1.1-4.8-3.2-5.9-5.7c-1-2.4-1.1-5.1-0.1-7.7s2.9-4.5,5.2-5.7c2.5-1.2,5.4-1.4,8.2-0.3
				s4.8,3.2,5.9,5.7C644.5,308,644.7,310.7,643.7,313.3z"/>
			<path fill="#583688" d="M583,506l1.8-11.5l-10.8-1.7l-1.8,11.6c-3,0.6-5.8,2.1-8.4,4.5c-1.2,1.1-2.3,2.4-3.3,3.8
				c5.9,16.7,11.4,33.4,14.7,43.5l1.1-6.9c7.9-1.7,14.6-9.5,16.2-19.6C594.1,519.5,590,510,583,506z M581.7,527.9
				c-0.4,2.5-1.5,4.6-3,6.1c-1.6,1.5-3.7,2.4-5.9,2c-2-0.3-3.7-1.6-4.8-3.5c0-0.1-0.1-0.1-0.1-0.2c-1.1-1.9-1.4-4.3-1.1-6.7
				c0.4-2.4,1.5-4.5,3.1-6.1l0.1-0.1c1.7-1.5,3.7-2.2,5.7-1.9l0,0c2.1,0.3,3.9,1.7,4.9,3.7C581.6,523.1,582.1,525.5,581.7,527.9z"/>
			<path fill="#6241CE" d="M660.1,478.2c-9.1-11.5-15.9-24.5-21.5-38c-3.1-7.6-5.8-15.4-8.4-23.2c-2-6.2-4.7-12.7-6-19.2
				c-9.3-23.1-14.4-47.4-19.2-71.8c-4.4-21.9-9-44.2-6.5-66.4c0.6-16,3.4-31.5,10.2-46.4c3.9-8.4,8.8-16.2,14.5-23.4
				c0.4-0.5,0.9-1.1,1.3-1.6c-2.5,1.9-5,4-7.3,6c0.3-0.1,0.6-0.3,1-0.4c-1.2,1.7-2.4,3.5-3.6,5.3c-0.6,0.2-1.3,0.4-1.9,0.7
				c0.9-1.3,1.7-2.6,2.6-3.9c-2.4,2.1-4.6,4.3-6.8,6.6c-13.3,13.9-21.2,27-25.7,35.9c-2.7,14.1-3.7,26.6-3.9,34.9
				c-0.3,15.2,3.2,32.3,3.3,39.3c0.2,7,2,12.6-6.7-3.4c-5.2-9.6-12.5-30.1-17.4-44.9c-7.8,8.1-14.4,17.8-18.9,25.6
				c-2,3.5-3.7,6.8-5.2,10c0.9,26.6,2.1,40,3.5,46.7c2.2,10,6,21.7,6,21.7s-0.2,6.5,4.3,28s19,57.7,26.5,79.2s7,38,11.2,47.1
				c4.2,9.2,22.7,21.7,22.7,21.7l73.6-23.5c-4.5-10-14.5-31.6-20.5-42C660.9,478.9,660.5,478.7,660.1,478.2z M610.4,203.4
				c0.6-0.2,1.2-0.3,1.8-0.5c-1.5,2.4-3,4.8-4.3,7.3c-0.6,0.2-1.2,0.3-1.8,0.5C607.5,208.2,608.9,205.8,610.4,203.4z M604.3,214.1
				c0.6-0.1,1.1-0.2,1.7-0.4c-0.9,1.7-1.7,3.4-2.6,5.2c-0.5,0-1,0-1.5,0C602.6,217.3,603.4,215.7,604.3,214.1z M600.4,222.2
				c0.2,0,0.4,0,0.5,0c0.3,0,0.6,0,1,0c-0.6,1.3-1.1,2.6-1.6,4c-0.3,0.7-0.5,1.4-0.7,2c-0.5,0-1,0-1.6,0.1
				C598.7,226.3,599.5,224.2,600.4,222.2z M596.9,231.2c0.5,0.1,1,0.1,1.5,0.2c-0.7,2.2-1.3,4.3-1.8,6.5c-0.6,0-1.1-0.1-1.7-0.1
				C595.6,235.6,596.2,233.4,596.9,231.2z M594.3,240.8c0.6,0.1,1.1,0.2,1.7,0.4c-0.7,3.7-1.2,7.4-1.5,11.2
				c-0.6-0.3-1.3-0.6-1.9-0.9C592.9,247.8,593.5,244.3,594.3,240.8z M592.4,253.8c0.6,0.4,1.3,0.7,1.9,1.1c-0.1,1.8-0.2,3.6-0.2,5.4
				c-0.6-0.3-1.3-0.5-2-0.8C592.2,257.7,592.3,255.7,592.4,253.8z M592.2,261.6c0.7,0.4,1.3,0.8,2,1.2c0,2.6,0.1,5.1,0.2,7.7
				c-0.6-0.5-1.3-1-2-1.4C592.2,266.6,592.2,264.1,592.2,261.6z M592.5,271.7c0.7,0.5,1.4,1.1,2,1.6c0.1,2.5,0.3,5.1,0.5,7.7
				c0,0.4,0.1,0.9,0.1,1.3c-0.6,0-1.2,0.1-1.8,0.1C593,278.8,592.7,275.3,592.5,271.7z M593.7,286c0.6,0.1,1.2,0.1,1.7,0.2
				c0.3,4,0.7,7.9,1.1,11.9c-0.5,0.1-1,0.2-1.6,0.3C594.5,294.3,594.1,290.1,593.7,286z M595.2,301.5c0.5-0.1,1-0.1,1.6-0.2
				c0.2,2.1,0.4,4.2,0.7,6.3c-0.5-0.1-1.1-0.2-1.6-0.2C595.7,305.4,595.4,303.4,595.2,301.5z M596.1,309.6c0.6,0.2,1.1,0.4,1.7,0.6
				c0.4,3.4,0.9,6.8,1.3,10.2c-0.5,0-1.1-0.1-1.6-0.1C597,316.8,596.5,313.2,596.1,309.6z M598,323.7c0.6,0.1,1.1,0.2,1.7,0.3
				c0.5,3.2,1,6.4,1.6,9.6c-0.6-0.1-1.1-0.1-1.7-0.2C599,330.2,598.5,327,598,323.7z M601.3,343.2c-0.4-1.8-0.7-3.7-1-5.5
				c0.6,0.1,1.1,0.2,1.7,0.2c0.5,2.5,1,5,1.5,7.5c-0.6-0.1-1.1-0.2-1.7-0.3C601.6,344.5,601.4,343.9,601.3,343.2z M602.6,349.4
				c0.6,0.1,1.2,0.3,1.8,0.6c0.4,1.9,0.9,3.8,1.3,5.7c-0.1,0-0.2,0-0.3,0c-0.5,0-0.9,0-1.3,0.1C603.6,353.7,603.1,351.6,602.6,349.4
				z M607.4,367.9c-0.8-2.7-1.6-5.5-2.3-8.3c0.2,0,0.4,0,0.6,0c0.3,0,0.7,0.1,1,0.1c0.7,2.7,1.4,5.4,2.2,8
				C608.4,367.7,607.9,367.8,607.4,367.9z M608.7,372c0.5-0.1,1-0.2,1.4-0.3c0.7,2.4,1.5,4.8,2.3,7.1c-0.5,0-0.9,0.1-1.4,0.2
				C610.2,376.7,609.4,374.4,608.7,372z M616.8,394.6C616.9,394.8,616.5,394.5,616.8,394.6L616.8,394.6z M615.5,391.4
				c-1.1-2.9-2.2-5.8-3.3-8.7c0.5-0.1,1-0.1,1.4-0.1c1,2.8,2,5.7,3.2,8.5c0,0.1,0.1,0.2,0.1,0.2C616.5,391.3,616,391.4,615.5,391.4z
				 M617,395.4c0.5,0,0.9,0.1,1.4,0.2c1.1,3.3,2.3,7.3,3.5,10.9c-0.5,0.1-1,0.1-1.5,0.2C619.3,402.9,618.1,399.2,617,395.4z
				 M621.5,410.5c0.5-0.1,1-0.1,1.5-0.2c0.1,0.4,0.3,0.9,0.4,1.3c0.7,2.3,1.5,4.6,2.2,6.9c-0.5,0.2-0.9,0.5-1.4,0.7
				C623.3,416.3,622.4,413.4,621.5,410.5z M625.5,422.7c0.5-0.2,1-0.4,1.5-0.6c1.1,3.1,2.2,6.1,3.4,9.1c-0.6,0.1-1.1,0.3-1.7,0.4
				C627.5,428.6,626.5,425.7,625.5,422.7z M633.8,444.1c-0.7-1.5-1.4-3.1-2-4.6c-0.6-1.4-1.2-2.8-1.7-4.2c0.6-0.1,1.2-0.2,1.8-0.3
				c0.5,1.2,1,2.4,1.5,3.6c0.7,1.6,1.4,3.2,2.1,4.8c-0.6,0.3-1.1,0.5-1.5,0.7C633.9,444,633.9,444.1,633.8,444.1z M642,460.6
				C642,460.7,642,460.7,642,460.6c-2.4-4.2-4.5-8.6-6.5-13c0.5-0.2,1-0.4,1.5-0.6c0.1,0,0.1-0.1,0.2-0.1c2,4.2,4.2,8.4,6.4,12.5
				C643.1,459.9,642.5,460.3,642,460.6z M647.3,470.3c-1.2-2.1-2.4-4.1-3.5-6.2c0.6-0.3,1.2-0.7,1.8-1.1c1.1,2,2.3,4.1,3.5,6.1
				C648.4,469.6,647.9,470,647.3,470.3z M657.8,486.3c-3-2.8-5-6.8-7.2-10.2c-0.5-0.9-1.1-1.8-1.6-2.6c0.6-0.4,1.2-0.8,1.8-1.1
				c0.5,0.9,1.1,1.8,1.6,2.7c2.2,3.5,4.9,6.8,6.5,10.6C659.3,486.3,658.3,486.7,657.8,486.3z"/>
			<path fill="#7A44B3" d="M583,506l1.8-11.5l-5.3-0.8c2.7,12.7,3.3,22.7,6.2,29c1.2,2.7,3.7,5.6,6.5,8.5c0.1-0.5,0.2-1,0.3-1.6
				C594.1,519.5,590,510,583,506z"/>
			<g>
				<path fill="none" d="M613,223.3c-0.5,0-1-0.1-1.4-0.1c-0.1,0-0.1,0-0.2,0c-0.8,1.8-1.4,3.5-2,5.4c0.6,0,1.2,0.1,1.7,0.1
					C611.6,226.9,612.3,225.1,613,223.3z"/>
				<path fill="none" d="M614.7,219.5c0.4-0.8,0.8-1.6,1.3-2.4c1-1.8,2.1-3.6,3.1-5.3c-0.6,0.1-1.3,0.2-1.9,0.2
					c-1.5,2.4-2.9,4.9-4.1,7.4c0.1,0,0.2,0,0.2,0C613.8,219.5,614.3,219.5,614.7,219.5z"/>
				<path fill="none" d="M610.1,232.5c-0.6-0.1-1.2-0.1-1.8-0.2c-0.6,2.3-1.1,4.7-1.4,7.1c0.6,0.1,1.2,0.3,1.8,0.4
					C609,237.4,609.5,234.9,610.1,232.5z"/>
				<path fill="none" d="M607.5,254.7c0.1-3.6,0.3-7.2,0.7-10.7c-0.6-0.1-1.2-0.2-1.8-0.4c-0.4,3.9-0.6,7.8-0.7,11.8
					c0.6,0,1.2,0,1.8,0C607.5,255.2,607.5,255,607.5,254.7z"/>
				<path fill="none" d="M628.4,198.4c-0.7,0.2-1.5,0.4-2.2,0.6c-2.2,3-4.3,6-6.3,9c0.6-0.1,1.2-0.1,1.8-0.2
					C623.9,204.6,626.1,201.5,628.4,198.4z"/>
				<path fill="none" d="M607.4,259.1c-0.6-0.1-1.2-0.2-1.8-0.3c0,2.5,0,5.1,0,7.6c0.6,0.2,1.2,0.4,1.8,0.7
					C607.4,264.3,607.4,261.7,607.4,259.1z"/>
				<path fill="none" d="M643.7,464.1c1.1,2.1,2.3,4.2,3.5,6.2c0.6-0.4,1.2-0.8,1.8-1.2c-1.2-2-2.4-4-3.5-6.1
					C644.9,463.4,644.3,463.8,643.7,464.1z"/>
				<path fill="none" d="M637,447.1c-0.5,0.2-1,0.4-1.5,0.6c2,4.4,4.2,8.7,6.4,13c0,0,0.1,0,0.1-0.1c0.5-0.3,1.1-0.7,1.6-1.1
					c-2.2-4.1-4.4-8.3-6.4-12.5C637.1,447,637.1,447.1,637,447.1z"/>
				<path fill="none" d="M652.5,475c-0.6-0.9-1.1-1.8-1.6-2.7c-0.6,0.4-1.2,0.8-1.8,1.1c0.5,0.9,1,1.8,1.6,2.6
					c2.2,3.5,4.2,7.4,7.2,10.2c0.5,0.4,1.4,0,1.2-0.7C657.5,481.8,654.7,478.5,652.5,475z"/>
				<path fill="none" d="M638.6,186.1c-1,0.3-1.9,0.7-2.9,1c-1.9,2.2-3.8,4.5-5.6,6.8c0.8-0.2,1.6-0.5,2.4-0.7
					C634.5,190.8,636.5,188.4,638.6,186.1z"/>
				<path fill="none" d="M609.6,297.8c-0.6,0.2-1.2,0.4-1.7,0.6c0.4,3.2,0.8,6.3,1.3,9.5c0.6-0.1,1.2-0.2,1.8-0.3
					C610.4,304.3,610,301.1,609.6,297.8z"/>
				<path fill="none" d="M624.8,368.5c-0.6,0.2-1.2,0.4-1.8,0.6c1.1,3.7,2.2,7.3,3.4,10.9c0.4,0,0.8,0,1.2-0.1
					c0.3,0,0.5-0.1,0.8-0.1C627.1,376,626,372.3,624.8,368.5z"/>
				<path fill="none" d="M622.8,361.6c-0.5-1.6-0.9-3.3-1.4-4.9c-0.6,0.2-1.2,0.4-1.8,0.6c0.7,2.6,1.5,5.3,2.2,7.9
					c0.6-0.2,1.2-0.4,1.9-0.6C623.4,363.6,623.1,362.6,622.8,361.6z"/>
				<path fill="none" d="M629.5,383.4c-0.6,0.2-1.3,0.3-1.9,0.4c1.5,4.5,3,8.9,4.6,13.3c0.6-0.1,1.2-0.3,1.9-0.5
					C632.5,392.2,631,387.8,629.5,383.4z"/>
				<path fill="none" d="M616.9,339.1c-0.6,0.1-1.3,0.1-1.9,0.1c1.1,4.7,2.3,9.4,3.5,14.1c0.6-0.1,1.2-0.3,1.8-0.5
					C619.2,348.3,618,343.7,616.9,339.1z"/>
				<path fill="none" d="M635.5,400.3c-0.6,0.2-1.2,0.4-1.9,0.5c1.5,4,3,8,4.5,12c0.6-0.2,1.2-0.4,1.8-0.7
					C638.4,408.3,636.9,404.3,635.5,400.3z"/>
				<path fill="none" d="M608.7,290c-0.2-1.9-0.3-3.8-0.5-5.6c-0.6-0.1-1.2-0.3-1.8-0.4c0.3,3.7,0.6,7.4,1,11
					c0.6-0.2,1.2-0.4,1.7-0.6C609,293,608.9,291.5,608.7,290z"/>
				<path fill="none" d="M607.5,271.2c-0.6-0.2-1.2-0.4-1.8-0.7c0.1,2.6,0.2,5.1,0.3,7.6c0,0.6,0.1,1.3,0.1,1.9
					c0.6,0.2,1.2,0.3,1.8,0.4C607.8,277.4,607.6,274.3,607.5,271.2z"/>
				<path fill="none" d="M641.3,415.9c-0.6,0.2-1.2,0.4-1.9,0.7c0.8,1.9,1.5,3.9,2.3,5.8s1.5,3.8,2.3,5.8c0.7-0.1,1.4-0.2,2.1-0.4
					C644.5,423.8,642.9,419.8,641.3,415.9z"/>
				<path fill="none" d="M633.3,438.5c-0.5-1.2-1-2.4-1.5-3.6c-0.6,0.1-1.2,0.2-1.8,0.3c0.6,1.4,1.1,2.8,1.7,4.2
					c0.7,1.6,1.4,3.1,2,4.6c0,0,0.1,0,0.1-0.1c0.4-0.2,1-0.4,1.5-0.7C634.8,441.7,634,440.1,633.3,438.5z"/>
				<path fill="none" d="M611.5,311.5c-0.6,0.1-1.2,0.2-1.8,0.3c0.5,3.1,1,6.2,1.6,9.3c0.6,0,1.2-0.1,1.8-0.2
					C612.5,317.7,612,314.6,611.5,311.5z"/>
				<path fill="none" d="M613.8,324.6c-0.6,0.1-1.2,0.2-1.9,0.2c0.7,3.5,1.4,6.9,2.1,10.3c0.6,0,1.3,0,1.9-0.1
					C615.2,331.7,614.5,328.1,613.8,324.6z"/>
				<path fill="none" d="M594.3,254.9c-0.6-0.3-1.3-0.7-1.9-1.1c-0.1,1.9-0.2,3.8-0.2,5.7c0.7,0.2,1.3,0.5,2,0.8
					C594.2,258.5,594.2,256.7,594.3,254.9z"/>
				<path fill="none" d="M596,241.2c-0.6-0.1-1.1-0.2-1.7-0.4c-0.8,3.5-1.3,7-1.7,10.6c0.6,0.3,1.3,0.6,1.9,0.9
					C594.8,248.6,595.3,244.9,596,241.2z"/>
				<path fill="none" d="M594.1,262.8c-0.6-0.4-1.3-0.9-2-1.2c0,2.5,0,5,0.2,7.5c0.7,0.4,1.3,0.9,2,1.4
					C594.2,267.9,594.1,265.3,594.1,262.8z"/>
				<path fill="none" d="M595,281c-0.2-2.6-0.4-5.1-0.5-7.7c-0.6-0.6-1.3-1.1-2-1.6c0.2,3.6,0.5,7.2,0.8,10.7c0.6,0,1.2-0.1,1.8-0.1
					C595.1,281.9,595,281.5,595,281z"/>
				<path fill="none" d="M595.4,286.2c-0.6,0-1.2-0.1-1.7-0.2c0.4,4.1,0.9,8.3,1.3,12.3c0.5-0.1,1-0.2,1.6-0.3
					C596.1,294.1,595.7,290.1,595.4,286.2z"/>
				<path fill="none" d="M600.2,226.2c0.5-1.3,1.1-2.7,1.6-4c-0.3,0-0.6,0-1,0c-0.2,0-0.4,0-0.5,0c-0.9,2-1.7,4.1-2.5,6.1
					c0.5,0,1,0,1.6-0.1C599.7,227.6,600,226.9,600.2,226.2z"/>
				<path fill="none" d="M612.2,202.9c-0.6,0.2-1.2,0.3-1.8,0.5c-1.5,2.4-3,4.8-4.3,7.3c0.6-0.2,1.2-0.3,1.8-0.5
					C609.2,207.7,610.7,205.3,612.2,202.9z"/>
				<path fill="none" d="M605.9,213.7c-0.6,0.1-1.1,0.2-1.7,0.4c-0.8,1.6-1.6,3.2-2.4,4.8c0.5,0,1,0,1.5,0
					C604.2,217.2,605.1,215.4,605.9,213.7z"/>
				<path fill="none" d="M596.8,301.3c-0.5,0.1-1,0.1-1.6,0.2c0.2,1.9,0.4,3.9,0.6,5.8c0.5,0.1,1.1,0.2,1.6,0.2
					C597.2,305.4,597,303.4,596.8,301.3z"/>
				<path fill="none" d="M598.4,231.4c-0.5,0-1-0.1-1.5-0.2c-0.7,2.2-1.4,4.3-1.9,6.5c0.6,0,1.1,0.1,1.7,0.1
					C597.2,235.7,597.7,233.6,598.4,231.4z"/>
				<path fill="none" d="M610.1,371.7c-0.4,0.1-0.9,0.2-1.4,0.3c0.7,2.4,1.5,4.7,2.3,7c0.5-0.1,0.9-0.1,1.4-0.2
					C611.6,376.5,610.9,374.1,610.1,371.7z"/>
				<path fill="none" d="M613.7,382.6c-0.5,0-1,0.1-1.4,0.1c1,2.9,2.1,5.8,3.3,8.7c0.5-0.1,0.9-0.1,1.4-0.1c0-0.1-0.1-0.2-0.1-0.2
					C615.7,388.3,614.7,385.4,613.7,382.6z"/>
				<path fill="none" d="M626.9,422.1c-0.5,0.2-1,0.4-1.5,0.6c1,3,2.1,5.9,3.2,8.9c0.6-0.1,1.1-0.3,1.7-0.4
					C629.1,428.2,628,425.1,626.9,422.1z"/>
				<path fill="none" d="M616.8,394.6C616.5,394.5,616.9,394.8,616.8,394.6L616.8,394.6z"/>
				<path fill="none" d="M618.4,395.6c-0.5-0.1-0.9-0.1-1.4-0.2c1.1,3.8,2.2,7.5,3.4,11.3c0.5-0.1,1-0.1,1.5-0.2
					C620.7,402.8,619.5,398.9,618.4,395.6z"/>
				<path fill="none" d="M597.8,310.2c-0.6-0.2-1.1-0.4-1.7-0.6c0.4,3.6,0.9,7.2,1.4,10.7c0.5,0,1.1,0.1,1.6,0.1
					C598.7,317,598.2,313.6,597.8,310.2z"/>
				<path fill="none" d="M602,337.9c-0.6-0.1-1.1-0.2-1.7-0.2c0.3,1.8,0.7,3.7,1,5.5c0.1,0.7,0.3,1.3,0.4,2c0.6,0.1,1.2,0.1,1.7,0.3
					C603,343,602.5,340.5,602,337.9z"/>
				<path fill="none" d="M599.7,324c-0.6-0.1-1.1-0.2-1.7-0.3c0.5,3.3,1,6.5,1.5,9.7c0.6,0.1,1.1,0.1,1.7,0.2
					C600.7,330.5,600.1,327.3,599.7,324z"/>
				<path fill="none" d="M606.8,359.7c-0.3,0-0.7-0.1-1-0.1c-0.2,0-0.4,0-0.6,0c0.7,2.8,1.5,5.5,2.3,8.3c0.5-0.1,1-0.1,1.5-0.2
					C608.2,365,607.5,362.4,606.8,359.7z"/>
				<path fill="none" d="M605.8,355.7c-0.5-1.9-0.9-3.8-1.3-5.7c-0.6-0.3-1.2-0.5-1.8-0.6c0.5,2.1,1,4.3,1.5,6.4
					c0.4-0.1,0.9-0.1,1.3-0.1C605.6,355.7,605.7,355.7,605.8,355.7z"/>
				<path fill="none" d="M623.4,411.6c-0.1-0.4-0.3-0.8-0.4-1.3c-0.5,0.1-1,0.1-1.5,0.2c0.9,2.9,1.8,5.8,2.7,8.7
					c0.5-0.2,0.9-0.5,1.4-0.7C624.9,416.2,624.1,413.9,623.4,411.6z"/>
				<path fill="none" d="M947.5,128.6c2.9,2.5,5.7,5.1,8.5,7.8c0.7,0,1.3-0.1,2-0.1c-2.9-2.7-5.8-5.4-8.8-8
					C948.7,128.3,948.1,128.4,947.5,128.6z"/>
				<path fill="none" d="M959.4,139.6c2.4,2.4,4.7,4.8,7.1,7.2c0.7,0,1.5,0.1,2.2,0.1c-2.3-2.5-4.7-4.9-7.1-7.3
					C960.8,139.6,960.1,139.6,959.4,139.6z"/>
				<path fill="none" d="M981.1,163.5c2.5,3.1,5,6.2,7.4,9.4c0.7,0.1,1.5,0.1,2.2,0.2c-2.4-3.2-4.9-6.3-7.4-9.4
					C982.6,163.6,981.9,163.6,981.1,163.5z"/>
				<path fill="none" d="M936.7,119.6c2.5,2,5,4,7.4,6c0.5-0.1,1.1-0.3,1.6-0.4c-2.4-2-4.9-4.1-7.4-6
					C937.8,119.3,937.2,119.5,936.7,119.6z"/>
				<path fill="none" d="M970.5,151.1c2.6,2.8,5.1,5.7,7.5,8.6c0.7,0,1.4,0,2.1,0c-2.4-2.8-4.8-5.6-7.3-8.3
					C972,151.3,971.2,151.2,970.5,151.1z"/>
				<path fill="none" d="M913.6,102.4c-1-0.6-2-1.2-3-1.8c-0.7,0-1.4,0.1-2.2,0.1c1.1,0.6,2.1,1.2,3.2,1.8c1.8,1.1,3.6,2.2,5.4,3.3
					c2.3,1.4,4.5,2.8,6.7,4.3c0.5-0.1,1.1-0.3,1.6-0.4c-2.1-1.4-4.1-2.7-6.2-4.1C917.2,104.6,915.4,103.5,913.6,102.4z"/>
				<path fill="none" d="M1020.3,316.1c-0.5,0-1.1,0.1-1.6,0.1c1.3,7,1.2,13.1,3.3,20.2c0.3,1,2,0.8,1.9-0.2
					c-0.8-6.8-1.4-13-2.9-20.1C1020.7,316,1020.5,316,1020.3,316.1z"/>
				<path fill="none" d="M898.4,95.2c-0.2,0-0.4,0.1-0.6,0.1c2.4,1.2,4.7,2.3,7,3.6c0.6-0.1,1.3-0.2,1.9-0.3
					c-2.2-1.2-4.5-2.4-6.8-3.5C899.4,95.1,898.9,95.1,898.4,95.2z"/>
				<path fill="none" d="M991.5,176.8c2.6,3.5,5.2,7.1,7.7,10.7c0.7,0,1.4,0.1,2.1,0.1c-2.5-3.5-5-7-7.5-10.5
					C993,177,992.2,176.9,991.5,176.8z"/>
				<path fill="none" d="M926.9,112.4c2.5,1.7,4.9,3.5,7.3,5.3c0.5-0.2,0.9-0.4,1.4-0.5c-2.3-1.7-4.6-3.4-7-5.1
					C928,112.2,927.5,112.3,926.9,112.4z"/>
				<path fill="none" d="M1052.9,282.3c-0.8,0.1-1.6,0.1-2.5,0.2c1.7,4.2,3.3,8.5,4.9,12.7c0.8-0.1,1.6-0.2,2.4-0.3
					C1056.2,290.7,1054.6,286.5,1052.9,282.3z"/>
				<path fill="none" d="M1059.1,298.7c-0.8,0.1-1.6,0.2-2.4,0.3c1.3,3.8,2.6,7.7,3.7,11.6c0.8,0,1.7,0,2.5,0
					C1061.7,306.6,1060.4,302.7,1059.1,298.7z"/>
				<path fill="none" d="M1019.9,312.1c0-0.1,0-0.1,0-0.2l0,0c-0.8-3.4-1.6-6.8-2.4-10.2c-0.7,0-1.4-0.1-2.1-0.1
					c0.9,3.5,1.7,7,2.4,10.6c0.5,0,1-0.1,1.5-0.1C1019.5,312.1,1019.7,312.1,1019.9,312.1z"/>
				<path fill="none" d="M1064,314.5c-0.8,0-1.7,0-2.5,0c1.7,6,3.2,12.1,4.4,18.3c0.3,1.7,2.9,1,2.5-0.7
					C1067.2,326.3,1065.7,320.4,1064,314.5z"/>
				<path fill="none" d="M1045.5,265.1c-0.6,0.1-1.2,0.1-1.8,0.2c-0.2,0-0.5,0.1-0.7,0.1c2,4.4,4,8.8,5.9,13.2
					c0.8-0.1,1.6-0.1,2.5-0.2C1049.5,274,1047.5,269.5,1045.5,265.1z"/>
				<path fill="none" d="M1027.9,230.7c-0.7,0.1-1.4,0.2-2.2,0.3c2.5,4.6,5,9.3,7.3,14c0.8-0.1,1.6-0.3,2.3-0.4
					C1033,239.9,1030.5,235.3,1027.9,230.7z"/>
				<path fill="none" d="M1020.1,217.1c-0.6,0.1-1.3,0.3-1.9,0.5c1.9,3.3,3.8,6.5,5.6,9.8c0.7-0.1,1.4-0.2,2.1-0.3
					C1024,223.7,1022,220.4,1020.1,217.1z"/>
				<path fill="none" d="M647.7,431.6c-0.7,0.1-1.4,0.2-2.1,0.4c2,4.9,4.1,9.8,6.3,14.7c0.6-0.4,1.3-0.7,1.9-1.1
					C651.7,440.9,649.7,436.3,647.7,431.6z"/>
				<path fill="none" d="M1037.2,248.1c-0.8,0.1-1.6,0.2-2.4,0.4c2.2,4.4,4.3,8.8,6.4,13.2c0.8-0.1,1.7-0.2,2.5-0.3
					C1041.6,256.9,1039.4,252.4,1037.2,248.1z"/>
				<path fill="none" d="M1001.9,191.5c2.2,3.2,4.3,6.4,6.3,9.7c0.2,0,0.5,0,0.7,0c0.4,0,0.8-0.1,1.3-0.1c-2-3.2-4.1-6.3-6.2-9.4
					C1003.3,191.5,1002.6,191.5,1001.9,191.5z"/>
				<path fill="none" d="M1012.6,204.8c-0.7,0-1.4,0.1-2,0.1c1.9,3.1,3.8,6.2,5.7,9.4c0.6-0.1,1.3-0.2,1.9-0.4
					c-0.2-0.3-0.3-0.5-0.5-0.8C1016,210.3,1014.3,207.5,1012.6,204.8z"/>
				<path fill="none" d="M896.5,107.4c3.6,2.2,7,4.5,10.4,7c0.5-0.1,1-0.3,1.5-0.4c-3.2-2.4-6.6-4.6-10-6.8
					C897.8,107.3,897.2,107.3,896.5,107.4z"/>
				<path fill="none" d="M888.8,103c0.7,0.4,1.4,0.7,2.1,1.1c0.7-0.1,1.3-0.2,2-0.2c-0.7-0.4-1.4-0.8-2.1-1.2
					C890.1,102.8,889.5,102.9,888.8,103z"/>
				<path fill="none" d="M909.7,116.5c3.1,2.3,6,4.8,9,7.3c0.5-0.2,0.9-0.3,1.4-0.5c-2.9-2.5-5.8-4.9-8.9-7.2
					C910.7,116.2,910.2,116.3,909.7,116.5z"/>
				<path fill="none" d="M920.3,125.2c2,1.8,4,3.7,6,5.6c0.5-0.2,1-0.3,1.5-0.5c-2-1.9-4-3.8-6.1-5.6
					C921.2,124.8,920.8,125,920.3,125.2z"/>
				<path fill="none" d="M929.1,133.5c1.4,1.4,2.7,2.8,4.1,4.3c0.6-0.1,1.2-0.2,1.7-0.2c-1.4-1.5-2.9-3-4.3-4.5
					C930.1,133.2,929.6,133.4,929.1,133.5z"/>
				<path fill="none" d="M653.5,450.1c1.9,4,3.9,8,6.1,11.9c0.6-0.4,1.2-0.8,1.9-1.3c-2.1-3.8-4.1-7.7-6-11.6
					C654.8,449.4,654.1,449.8,653.5,450.1z"/>
				<path fill="none" d="M935.4,140.2c1.8,2,3.7,4.1,5.4,6.2c0.6-0.1,1.2-0.1,1.8-0.2c-1.8-2.1-3.5-4.1-5.4-6.1
					C936.7,140.1,936.1,140.2,935.4,140.2z"/>
				<path fill="none" d="M880.6,98.9c1.8,0.8,3.7,1.7,5.5,2.6c0.6-0.1,1.3-0.2,1.9-0.3c-1.9-1-3.7-1.9-5.6-2.8
					C881.7,98.6,881.2,98.7,880.6,98.9z"/>
				<path fill="none" d="M663.3,464.1c-0.6,0.4-1.3,0.8-1.9,1.3c4.8,8.3,10.4,16.1,17.2,23.1c1.1,1.1,2.8-0.6,1.7-1.7
					C673.6,480,668.1,472.3,663.3,464.1z"/>
				<path fill="none" d="M869.6,94.5c2.5,0.9,4.9,1.8,7.3,2.8c0.5-0.2,1.1-0.4,1.6-0.6c-2.2-1-4.5-1.9-6.8-2.7
					C871,94.1,870.3,94.3,869.6,94.5z"/>
				<path fill="none" d="M963.8,175.1c-0.6,0-1.2,0-1.8,0c2.5,3.9,5,7.9,7.3,11.9c0.6,0,1.2,0,1.8,0
					C968.8,183,966.4,179,963.8,175.1z"/>
				<path fill="none" d="M943,148.9c3.1,3.8,6.2,7.7,9.1,11.7c0.6-0.1,1.1-0.1,1.7-0.2c-2.8-3.9-5.8-7.7-8.8-11.4
					C944.3,149,943.6,148.9,943,148.9z"/>
				<path fill="none" d="M989,221c-0.6,0.1-1.2,0.1-1.8,0.2c1.7,3.8,3.4,7.5,5,11.2c0.6-0.1,1.2-0.2,1.8-0.3
					C992.4,228.4,990.7,224.7,989,221z"/>
				<path fill="none" d="M1002.1,252.1c-0.7,0-1.3,0.1-2,0.1c1.7,4.6,3.4,9.2,4.9,13.8c0.6-0.1,1.3-0.2,1.9-0.3
					C1005.4,261.2,1003.8,256.6,1002.1,252.1z"/>
				<path fill="none" d="M1008.2,269.6c-0.6,0.1-1.3,0.2-1.9,0.2c1.3,3.9,2.5,7.8,3.7,11.7c0.7-0.1,1.3-0.1,2-0.2
					C1010.8,277.4,1009.5,273.5,1008.2,269.6z"/>
				<path fill="none" d="M995.3,235.1c-0.6,0.1-1.2,0.2-1.9,0.3c1.8,4.3,3.5,8.6,5.2,12.8c0.2,0.4,0.3,0.9,0.5,1.3
					c0.6-0.1,1.3-0.1,1.9-0.2C999.2,244.6,997.3,239.8,995.3,235.1z"/>
				<path fill="none" d="M1012.9,284.8c-0.7,0-1.3,0.1-2,0.1c1.3,4.5,2.5,9,3.7,13.6c0.7,0,1.4,0,2-0.1
					C1015.5,293.8,1014.2,289.3,1012.9,284.8z"/>
				<path fill="none" d="M954,163.2c2.1,2.9,4.2,5.9,6.2,9c0.6,0,1.1-0.1,1.7-0.1c-2-3-4-6-6.1-8.9
					C955.2,163.2,954.6,163.2,954,163.2z"/>
				<path fill="none" d="M975.3,194.3c-0.8-1.5-1.6-2.9-2.5-4.4c-0.6,0-1.2-0.1-1.8-0.1c2.5,4.4,4.9,8.8,7.3,13.3
					c0.6,0,1.2-0.1,1.7-0.1C978.5,200.1,977,197.2,975.3,194.3z"/>
				<path fill="none" d="M987.8,218.4c-2-4.2-4.1-8.4-6.2-12.5c-0.6,0-1.2,0-1.8,0.1c2.2,4.2,4.2,8.4,6.2,12.7
					c0.5-0.1,1.1-0.1,1.6-0.2C987.7,218.4,987.7,218.4,987.8,218.4z"/>
				<g>
					<path fill="none" d="M641.3,415.9c-0.6,0.2-1.2,0.4-1.9,0.7c0.8,1.9,1.5,3.9,2.3,5.8s1.5,3.8,2.3,5.8c0.7-0.1,1.4-0.2,2.1-0.4
						C644.5,423.8,642.9,419.8,641.3,415.9z"/>
					<path fill="none" d="M663.3,464.1c-0.6,0.4-1.3,0.8-1.9,1.3c4.8,8.3,10.4,16.1,17.2,23.1c1.1,1.1,2.8-0.6,1.7-1.7
						C673.6,480,668.1,472.3,663.3,464.1z"/>
					<path fill="none" d="M647.7,431.6c-0.7,0.1-1.4,0.2-2.1,0.4c2,4.9,4.1,9.8,6.3,14.7c0.6-0.4,1.3-0.7,1.9-1.1
						C651.7,440.9,649.7,436.3,647.7,431.6z"/>
					<path fill="none" d="M608.7,290c-0.2-1.9-0.3-3.8-0.5-5.6c-0.6-0.1-1.2-0.3-1.8-0.4c0.3,3.7,0.6,7.4,1,11
						c0.6-0.2,1.2-0.4,1.7-0.6C609,293,608.9,291.5,608.7,290z"/>
					<path fill="none" d="M653.5,450.1c1.9,4,3.9,8,6.1,11.9c0.6-0.4,1.2-0.8,1.9-1.3c-2.1-3.8-4.1-7.7-6-11.6
						C654.8,449.4,654.1,449.8,653.5,450.1z"/>
					<path fill="none" d="M609.6,297.8c-0.6,0.2-1.2,0.4-1.7,0.6c0.4,3.2,0.8,6.3,1.3,9.5c0.6-0.1,1.2-0.2,1.8-0.3
						C610.4,304.3,610,301.1,609.6,297.8z"/>
					<path fill="none" d="M607.5,254.7c0.1-3.6,0.3-7.2,0.7-10.7c-0.6-0.1-1.2-0.2-1.8-0.4c-0.4,3.9-0.6,7.8-0.7,11.8
						c0.6,0,1.2,0,1.8,0C607.5,255.2,607.5,255,607.5,254.7z"/>
					<path fill="none" d="M607.4,259.1c-0.6-0.1-1.2-0.2-1.8-0.3c0,2.5,0,5.1,0,7.6c0.6,0.2,1.2,0.4,1.8,0.7
						C607.4,264.3,607.4,261.7,607.4,259.1z"/>
					<path fill="none" d="M629.5,383.4c-0.6,0.2-1.3,0.3-1.9,0.4c1.5,4.5,3,8.9,4.6,13.3c0.6-0.1,1.2-0.3,1.9-0.5
						C632.5,392.2,631,387.8,629.5,383.4z"/>
					<path fill="none" d="M613.8,324.6c-0.6,0.1-1.2,0.2-1.9,0.2c0.7,3.5,1.4,6.9,2.1,10.3c0.6,0,1.3,0,1.9-0.1
						C615.2,331.7,614.5,328.1,613.8,324.6z"/>
					<path fill="none" d="M635.5,400.3c-0.6,0.2-1.2,0.4-1.9,0.5c1.5,4,3,8,4.5,12c0.6-0.2,1.2-0.4,1.8-0.7
						C638.4,408.3,636.9,404.3,635.5,400.3z"/>
					<path fill="none" d="M611.5,311.5c-0.6,0.1-1.2,0.2-1.8,0.3c0.5,3.1,1,6.2,1.6,9.3c0.6,0,1.2-0.1,1.8-0.2
						C612.5,317.7,612,314.6,611.5,311.5z"/>
					<path fill="none" d="M616.9,339.1c-0.6,0.1-1.3,0.1-1.9,0.1c1.1,4.7,2.3,9.4,3.5,14.1c0.6-0.1,1.2-0.3,1.8-0.5
						C619.2,348.3,618,343.7,616.9,339.1z"/>
					<path fill="none" d="M610.1,232.5c-0.6-0.1-1.2-0.1-1.8-0.2c-0.6,2.3-1.1,4.7-1.4,7.1c0.6,0.1,1.2,0.3,1.8,0.4
						C609,237.4,609.5,234.9,610.1,232.5z"/>
					<path fill="none" d="M624.8,368.5c-0.6,0.2-1.2,0.4-1.8,0.6c1.1,3.7,2.2,7.3,3.4,10.9c0.4,0,0.8,0,1.2-0.1
						c0.3,0,0.5-0.1,0.8-0.1C627.1,376,626,372.3,624.8,368.5z"/>
					<path fill="none" d="M622.8,361.6c-0.5-1.6-0.9-3.3-1.4-4.9c-0.6,0.2-1.2,0.4-1.8,0.6c0.7,2.6,1.5,5.3,2.2,7.9
						c0.6-0.2,1.2-0.4,1.9-0.6C623.4,363.6,623.1,362.6,622.8,361.6z"/>
					<path fill="none" d="M607.5,271.2c-0.6-0.2-1.2-0.4-1.8-0.7c0.1,2.6,0.2,5.1,0.3,7.6c0,0.6,0.1,1.3,0.1,1.9
						c0.6,0.2,1.2,0.3,1.8,0.4C607.8,277.4,607.6,274.3,607.5,271.2z"/>
					<path fill="none" d="M613,223.3c-0.5,0-1-0.1-1.4-0.1c-0.1,0-0.1,0-0.2,0c-0.8,1.8-1.4,3.5-2,5.4c0.6,0,1.2,0.1,1.7,0.1
						C611.6,226.9,612.3,225.1,613,223.3z"/>
					<path fill="none" d="M628.4,198.4c-0.7,0.2-1.5,0.4-2.2,0.6c-2.2,3-4.3,6-6.3,9c0.6-0.1,1.2-0.1,1.8-0.2
						C623.9,204.6,626.1,201.5,628.4,198.4z"/>
					<path fill="none" d="M614.7,219.5c0.4-0.8,0.8-1.6,1.3-2.4c1-1.8,2.1-3.6,3.1-5.3c-0.6,0.1-1.3,0.2-1.9,0.2
						c-1.5,2.4-2.9,4.9-4.1,7.4c0.1,0,0.2,0,0.2,0C613.8,219.5,614.3,219.5,614.7,219.5z"/>
					<path fill="none" d="M638.6,186.1c-1,0.3-1.9,0.7-2.9,1c-1.9,2.2-3.8,4.5-5.6,6.8c0.8-0.2,1.6-0.5,2.4-0.7
						C634.5,190.8,636.5,188.4,638.6,186.1z"/>
					<path fill="none" d="M1020.3,316.1c-0.5,0-1.1,0.1-1.6,0.1c1.3,7,1.2,13.1,3.3,20.2c0.3,1,2,0.8,1.9-0.2
						c-0.8-6.8-1.4-13-2.9-20.1C1020.7,316,1020.5,316,1020.3,316.1z"/>
					<path fill="none" d="M968.6,146.9c-2.3-2.5-4.7-4.9-7.1-7.3c-0.7,0-1.4,0-2.2,0c2.4,2.4,4.7,4.8,7.1,7.2
						C967.2,146.8,967.9,146.9,968.6,146.9z"/>
					<path fill="none" d="M1008.2,201.1c0.2,0,0.5,0,0.7,0c0.4,0,0.8-0.1,1.3-0.1c-0.5-0.8-1.1-1.7-1.6-2.5c-0.3,0.5-0.7,1-1.1,1.6
						C1007.7,200.4,1007.9,200.8,1008.2,201.1z"/>
					<path fill="none" d="M958,136.2c-2.9-2.7-5.8-5.4-8.8-8c-0.6,0.1-1.2,0.2-1.7,0.3c2.9,2.5,5.7,5.1,8.5,7.8
						C956.7,136.3,957.4,136.3,958,136.2z"/>
					<path fill="none" d="M945.8,125.2c-2.4-2-4.9-4.1-7.4-6c-0.5,0.1-1.1,0.3-1.6,0.4c2.5,2,5,4,7.4,6
						C944.7,125.5,945.2,125.4,945.8,125.2z"/>
					<path fill="none" d="M917,105.9c2.3,1.4,4.5,2.8,6.7,4.3c0.5-0.1,1.1-0.3,1.6-0.4c-2.1-1.4-4.1-2.7-6.2-4.1
						c-1.8-1.1-3.6-2.2-5.5-3.3c-1-0.6-2-1.2-3-1.8c-0.7,0-1.4,0.1-2.2,0.1c1.1,0.6,2.1,1.2,3.2,1.8
						C913.4,103.7,915.2,104.8,917,105.9z"/>
					<path fill="none" d="M906.7,98.6c-2.2-1.2-4.5-2.4-6.8-3.5c-0.5,0-1,0.1-1.5,0.1c-0.2,0-0.4,0.1-0.6,0.1c2.4,1.2,4.7,2.3,7,3.6
						C905.4,98.7,906.1,98.7,906.7,98.6z"/>
					<path fill="none" d="M935.6,117.1c-2.3-1.7-4.6-3.4-7-5.1c-0.6,0.1-1.1,0.2-1.7,0.3c2.5,1.7,4.9,3.5,7.3,5.3
						C934.6,117.5,935.1,117.3,935.6,117.1z"/>
					<path fill="none" d="M980.1,159.8c-2.4-2.8-4.8-5.6-7.3-8.3c-0.8-0.1-1.6-0.2-2.4-0.3c2.6,2.8,5.1,5.7,7.5,8.6
						C978.7,159.8,979.4,159.8,980.1,159.8z"/>
					<path fill="none" d="M1010.5,204.9c1.9,3.1,3.8,6.2,5.7,9.4c0.6-0.1,1.3-0.2,1.9-0.4c-0.2-0.3-0.3-0.5-0.5-0.8
						c-1.7-2.8-3.4-5.5-5.1-8.3C1011.9,204.8,1011.2,204.9,1010.5,204.9z"/>
					<path fill="none" d="M1052.9,282.3c-0.8,0.1-1.6,0.1-2.5,0.2c1.7,4.2,3.3,8.5,4.9,12.7c0.8-0.1,1.6-0.2,2.4-0.3
						C1056.2,290.7,1054.6,286.5,1052.9,282.3z"/>
					<path fill="none" d="M1059.1,298.7c-0.8,0.1-1.6,0.2-2.4,0.3c1.3,3.8,2.6,7.7,3.7,11.6c0.8,0,1.7,0,2.5,0
						C1061.7,306.6,1060.4,302.7,1059.1,298.7z"/>
					<path fill="none" d="M1068.5,332.2c-1.3-5.9-2.8-11.8-4.4-17.6c-0.8,0-1.7,0-2.5,0c1.7,6,3.2,12.1,4.4,18.3
						C1066.3,334.5,1068.8,333.8,1068.5,332.2z"/>
					<path fill="none" d="M1033.1,245c0.8-0.1,1.6-0.3,2.3-0.4c-2.4-4.7-4.9-9.3-7.5-13.9c-0.7,0.1-1.4,0.2-2.2,0.3
						C1028.3,235.7,1030.7,240.3,1033.1,245z"/>
					<path fill="none" d="M1025.9,227.1c-1.9-3.3-3.8-6.7-5.8-9.9c-0.6,0.1-1.3,0.3-1.9,0.5c1.9,3.3,3.8,6.5,5.6,9.8
						C1024.5,227.3,1025.2,227.2,1025.9,227.1z"/>
					<path fill="none" d="M1041.2,261.6c0.8-0.1,1.7-0.2,2.5-0.3c-2.1-4.4-4.3-8.9-6.5-13.2c-0.8,0.1-1.6,0.2-2.4,0.4
						C1037,252.8,1039.1,257.2,1041.2,261.6z"/>
					<path fill="none" d="M1048.9,278.6c0.8-0.1,1.6-0.1,2.5-0.2c-1.9-4.5-3.8-9-5.9-13.4c-0.6,0.1-1.2,0.1-1.8,0.2
						c-0.2,0-0.5,0.1-0.7,0.1C1045,269.8,1047,274.2,1048.9,278.6z"/>
					<path fill="none" d="M1019.9,312.1c0-0.1,0-0.1,0-0.2l0,0c-0.8-3.4-1.6-6.8-2.4-10.2c-0.7,0-1.4-0.1-2.1-0.1
						c0.9,3.5,1.7,7,2.4,10.6c0.5,0,1-0.1,1.5-0.1C1019.5,312.1,1019.7,312.1,1019.9,312.1z"/>
					<path fill="none" d="M920.3,125.2c2,1.8,4,3.7,6,5.6c0.5-0.2,1-0.3,1.5-0.5c-2-1.9-4-3.8-6.1-5.6
						C921.2,124.8,920.8,125,920.3,125.2z"/>
					<path fill="none" d="M929.1,133.5c1.4,1.4,2.7,2.8,4.1,4.3c0.6-0.1,1.2-0.2,1.7-0.2c-1.4-1.5-2.9-3-4.3-4.5
						C930.1,133.2,929.6,133.4,929.1,133.5z"/>
					<path fill="none" d="M943,148.9c3.1,3.8,6.2,7.7,9.1,11.7c0.6-0.1,1.1-0.1,1.7-0.2c-2.8-3.9-5.8-7.7-8.8-11.4
						C944.3,149,943.6,148.9,943,148.9z"/>
					<path fill="none" d="M935.4,140.2c1.8,2,3.7,4.1,5.4,6.2c0.6-0.1,1.2-0.1,1.8-0.2c-1.8-2.1-3.5-4.1-5.4-6.1
						C936.7,140.1,936.1,140.2,935.4,140.2z"/>
					<path fill="none" d="M909.7,116.5c3.1,2.3,6,4.8,9,7.3c0.5-0.2,0.9-0.3,1.4-0.5c-2.9-2.5-5.8-4.9-8.9-7.2
						C910.7,116.2,910.2,116.3,909.7,116.5z"/>
					<path fill="none" d="M869.6,94.5c2.5,0.9,4.9,1.8,7.3,2.8c0.5-0.2,1.1-0.4,1.6-0.6c-2.2-1-4.5-1.9-6.8-2.7
						C871,94.1,870.3,94.3,869.6,94.5z"/>
					<path fill="none" d="M896.5,107.4c3.6,2.2,7,4.5,10.4,7c0.5-0.1,1-0.3,1.5-0.4c-3.2-2.4-6.6-4.6-10-6.8
						C897.8,107.3,897.2,107.3,896.5,107.4z"/>
					<path fill="none" d="M961.9,172.1c-2-3-4-6-6.1-8.9c-0.6,0-1.2,0-1.8,0c2.1,2.9,4.2,5.9,6.2,9
						C960.7,172.2,961.3,172.1,961.9,172.1z"/>
					<path fill="none" d="M888.8,103c0.7,0.4,1.4,0.7,2.1,1.1c0.7-0.1,1.3-0.2,2-0.2c-0.7-0.4-1.4-0.8-2.1-1.2
						C890.1,102.8,889.5,102.9,888.8,103z"/>
					<path fill="none" d="M880.6,98.9c1.8,0.8,3.7,1.7,5.5,2.6c0.6-0.1,1.3-0.2,1.9-0.3c-1.9-1-3.7-1.9-5.6-2.8
						C881.7,98.6,881.2,98.7,880.6,98.9z"/>
					<path fill="none" d="M1008.2,269.6c-0.6,0.1-1.3,0.2-1.9,0.2c1.3,3.9,2.5,7.8,3.7,11.7c0.7-0.1,1.3-0.1,2-0.2
						C1010.8,277.4,1009.5,273.5,1008.2,269.6z"/>
					<path fill="none" d="M1002.1,252.1c-0.7,0-1.3,0.1-2,0.1c1.7,4.6,3.4,9.2,4.9,13.8c0.6-0.1,1.3-0.2,1.9-0.3
						C1005.4,261.2,1003.8,256.6,1002.1,252.1z"/>
					<path fill="none" d="M995.3,235.1c-0.6,0.1-1.2,0.2-1.9,0.3c1.8,4.3,3.5,8.6,5.2,12.8c0.2,0.4,0.3,0.9,0.5,1.3
						c0.6-0.1,1.3-0.1,1.9-0.2C999.2,244.6,997.3,239.8,995.3,235.1z"/>
					<path fill="none" d="M1012.9,284.8c-0.7,0-1.3,0.1-2,0.1c1.3,4.5,2.5,9,3.7,13.6c0.7,0,1.4,0,2-0.1
						C1015.5,293.8,1014.2,289.3,1012.9,284.8z"/>
					<path fill="none" d="M962.1,175.1c0.4,0.6,0.7,1.2,1.1,1.7c0.2-0.6,0.4-1.2,0.7-1.7C963.2,175.1,962.6,175.1,962.1,175.1z"/>
					<path fill="none" d="M989,221c-0.6,0.1-1.2,0.1-1.8,0.2c1.7,3.8,3.4,7.5,5,11.2c0.6-0.1,1.2-0.2,1.8-0.3
						C992.4,228.4,990.7,224.7,989,221z"/>
					<path fill="none" d="M986,218.6c0.5-0.1,1.1-0.1,1.6-0.2c0.1,0,0.1,0,0.2,0c-1.3-2.8-2.7-5.6-4.1-8.4c-0.7-0.1-1.4-0.2-2-0.4
						C983.1,212.6,984.6,215.6,986,218.6z"/>
					<path fill="#6241CE" d="M1044.7,339c-6-24.8-11.6-49.9-22.2-73.3c0-0.1-0.1-0.2-0.1-0.3c-7.2-15.4-13.3-31.3-20.3-46.8
						c-1.6-3.5-3.2-7-4.9-10.4c-3.2,1.4-6.6,2-10,2c-1.2,0-2.4-0.1-3.5-0.3c1.4,2.8,2.8,5.6,4.1,8.4c-0.1,0-0.1,0-0.2,0
						c-0.5,0.1-1.1,0.1-1.6,0.2c-1.4-3-2.9-6-4.4-9c-1.4-0.3-2.7-0.7-4-1.3l-8.2,10l-11.6-9.5l8.2-10c-4.3-6.5-5.3-14.7-2.8-22
						c-0.4-0.6-0.7-1.2-1.1-1.7c0.6,0,1.2,0,1.7,0c0.9-2.2,2.2-4.4,3.8-6.3c0.9-1,1.8-2,2.8-2.9c-10.1-12.6-21.1-24.8-32.4-36.3
						c-13.7-14-30-22.8-47.2-31.8c-5.9-3.1-11.9-6-18-8.8c-2-0.1-6.8,0-13.5,1c1.8,0.5,3.6,1,5.4,1.6c-0.8,0.2-1.6,0.4-2.4,0.5
						c-2-0.6-4-1.1-6-1.6c-8.5,1.6-19.4,4.9-30.9,11.5c-25.6,14.8-87.9,29.7-122.4,44.2c-15.6,6.6-31.4,13.5-46.3,21.5
						c-4.6,4.2-9,8.6-13.3,13.1c-1,0.3-2.1,0.7-3.1,1c3.5-3.8,7.1-7.5,10.8-11c-4,2.3-7.9,4.6-11.8,7c-1.7,1.4-3.6,2.8-5.1,4.3
						c-3,2.9-5.8,5.9-8.4,9.1c-5.7,6.9-10.4,14.5-14.3,22.6c-3.9,8.3-6.8,17.1-8.5,26.2c-1.7,8.9-2,18.1-2.8,27.1l0,0
						c0,20.4,4,40.7,8,60.7c4.7,23.5,9.8,46.9,18.7,69.1c0.1,0.3,0.1,0.5,0.1,0.7c2.3,5.3,3.6,11.1,5.4,16.4
						c2.4,7.3,5,14.7,7.8,21.9c5.6,14.2,12.6,27.7,22.1,39.7c0.4,0.5,0.5,1,0.3,1.5l22,42.5L809.7,480l241.5-85.8
						c-0.9-13.7-2.8-39-4.5-53.7C1045.8,340.6,1045,340.1,1044.7,339z M635.7,187.1c1-0.3,1.9-0.7,2.9-1c-2.1,2.3-4.1,4.7-6.1,7.1
						c-0.8,0.2-1.6,0.5-2.4,0.7C631.9,191.6,633.8,189.4,635.7,187.1z M626.2,199c0.7-0.2,1.5-0.4,2.2-0.6c-2.3,3.1-4.6,6.2-6.7,9.5
						c-0.6,0.1-1.2,0.1-1.8,0.2C621.9,205,624,202,626.2,199z M617.3,212.1c0.6-0.1,1.3-0.1,1.9-0.2c-1.1,1.7-2.1,3.5-3.1,5.3
						c-0.5,0.8-0.9,1.6-1.3,2.4c-0.5,0-0.9,0-1.4-0.1c-0.1,0-0.2,0-0.2,0C614.4,217,615.7,214.5,617.3,212.1z M611.4,223.2
						c0.1,0,0.1,0,0.2,0c0.5,0.1,0.9,0.1,1.4,0.1c-0.7,1.8-1.4,3.6-1.9,5.4c-0.6-0.1-1.2-0.1-1.7-0.1
						C610,226.8,610.6,225,611.4,223.2z M608.3,232.3c0.6,0.1,1.2,0.1,1.8,0.2c-0.6,2.4-1.1,4.9-1.4,7.4c-0.6-0.1-1.2-0.3-1.8-0.4
						C607.2,237,607.7,234.6,608.3,232.3z M606.4,243.7c0.6,0.1,1.2,0.3,1.8,0.4c-0.4,3.5-0.5,7.1-0.7,10.7c0,0.2,0,0.5,0,0.7
						c-0.6,0-1.2,0-1.8,0C605.8,251.5,606,247.6,606.4,243.7z M605.6,258.8c0.6,0.1,1.2,0.2,1.8,0.3c0,2.6,0,5.3,0,7.9
						c-0.6-0.2-1.2-0.4-1.8-0.7C605.6,263.8,605.5,261.3,605.6,258.8z M606.1,278.2c-0.1-2.5-0.3-5.1-0.3-7.6
						c0.6,0.2,1.2,0.5,1.8,0.7c0.1,3.1,0.2,6.2,0.4,9.3c-0.6-0.1-1.2-0.2-1.8-0.4C606.2,279.5,606.1,278.9,606.1,278.2z M606.5,284
						c0.6,0.2,1.2,0.3,1.8,0.4c0.1,1.9,0.3,3.8,0.5,5.6c0.1,1.5,0.3,2.9,0.4,4.4c-0.6,0.2-1.2,0.4-1.7,0.6
						C607.1,291.3,606.7,287.7,606.5,284z M607.8,298.4c0.6-0.2,1.2-0.4,1.7-0.6c0.4,3.3,0.8,6.5,1.3,9.7c-0.6,0.1-1.2,0.2-1.8,0.3
						C608.6,304.7,608.2,301.6,607.8,298.4z M609.7,311.7c0.6-0.1,1.2-0.2,1.8-0.3c0.5,3.1,1,6.3,1.6,9.4c-0.6,0.1-1.2,0.2-1.8,0.2
						C610.7,318,610.2,314.9,609.7,311.7z M612,324.9c0.6-0.1,1.2-0.1,1.9-0.2c0.7,3.5,1.4,7,2.2,10.5c-0.6,0-1.3,0.1-1.9,0.1
						C613.4,331.8,612.6,328.3,612,324.9z M615,339.3c0.6,0,1.3-0.1,1.9-0.1c1.1,4.6,2.2,9.2,3.4,13.7c-0.6,0.2-1.2,0.4-1.8,0.5
						C617.3,348.7,616.1,344,615,339.3z M619.6,357.3c0.6-0.1,1.2-0.3,1.8-0.6c0.5,1.6,0.9,3.3,1.4,4.9c0.3,1,0.6,2,0.9,3
						c-0.6,0.2-1.2,0.4-1.9,0.6C621.1,362.5,620.3,359.9,619.6,357.3z M626.4,380c-1.2-3.6-2.3-7.3-3.4-10.9
						c0.6-0.2,1.2-0.4,1.8-0.6c1.1,3.8,2.3,7.6,3.5,11.3c-0.3,0-0.5,0.1-0.8,0.1C627.2,380,626.8,380,626.4,380z M632.2,397.1
						c-1.6-4.4-3.1-8.9-4.6-13.3c0.6-0.1,1.3-0.2,1.9-0.4c1.5,4.4,3,8.8,4.6,13.2C633.4,396.8,632.8,397,632.2,397.1z M633.6,400.9
						c0.6-0.2,1.3-0.4,1.9-0.5c1.4,4,2.9,7.9,4.4,11.8c-0.6,0.2-1.2,0.4-1.8,0.7C636.5,408.9,635,404.9,633.6,400.9z M641.8,422.3
						c-0.8-1.9-1.5-3.9-2.3-5.8c0.6-0.2,1.2-0.5,1.9-0.7c1.6,4,3.1,7.9,4.8,11.9c-0.7,0.1-1.4,0.2-2.1,0.4
						C643.3,426.1,642.5,424.2,641.8,422.3z M645.6,431.9c0.7-0.1,1.4-0.2,2.1-0.4c2,4.7,4,9.3,6.1,14c-0.6,0.4-1.3,0.7-1.9,1.1
						C649.7,441.8,647.6,436.9,645.6,431.9z M659.5,462c-2.2-3.9-4.2-7.9-6.1-11.9c0.7-0.3,1.3-0.7,2-1c1.9,3.9,3.8,7.8,6,11.6
						C660.8,461.2,660.2,461.6,659.5,462z M678.6,488.5c-6.8-7-12.4-14.8-17.2-23.1c0.6-0.4,1.3-0.8,1.9-1.3
						c4.8,8.1,10.3,15.8,17,22.7C681.4,487.9,679.7,489.6,678.6,488.5z M876.9,97.3c-2.4-1-4.8-2-7.3-2.8c0.7-0.2,1.4-0.3,2.1-0.5
						c2.3,0.9,4.6,1.8,6.8,2.7C878,96.9,877.4,97.1,876.9,97.3z M886.1,101.5c-1.8-0.9-3.6-1.8-5.5-2.6c0.6-0.2,1.2-0.3,1.7-0.5
						c1.9,0.9,3.8,1.8,5.6,2.8C887.3,101.3,886.7,101.4,886.1,101.5z M890.9,104.1c-0.7-0.4-1.4-0.8-2.1-1.1c0.7-0.1,1.3-0.2,2-0.3
						c0.7,0.4,1.4,0.8,2.1,1.2C892.2,103.9,891.6,104,890.9,104.1z M906.9,114.4c-3.4-2.5-6.9-4.8-10.4-7c0.7-0.1,1.3-0.1,2-0.2
						c3.4,2.1,6.8,4.4,10,6.8C908,114.1,907.5,114.3,906.9,114.4z M918.7,123.8c-2.9-2.5-5.9-5-9-7.3c0.5-0.1,1-0.3,1.5-0.4
						c3,2.3,6,4.7,8.9,7.2C919.6,123.4,919.2,123.6,918.7,123.8z M926.3,130.8c-2-1.9-4-3.8-6-5.6c0.5-0.2,1-0.3,1.5-0.5
						c2.1,1.8,4.1,3.7,6.1,5.6C927.3,130.5,926.8,130.6,926.3,130.8z M933.2,137.8c-1.4-1.4-2.7-2.9-4.1-4.3c0.5-0.2,1-0.3,1.5-0.5
						c1.5,1.5,2.9,3,4.3,4.5C934.3,137.6,933.8,137.7,933.2,137.8z M940.9,146.4c-1.8-2.1-3.6-4.2-5.4-6.2c0.6,0,1.2-0.1,1.8-0.1
						c1.8,2,3.6,4.1,5.4,6.1C942.1,146.3,941.5,146.3,940.9,146.4z M952.1,160.6c-2.9-4-6-7.9-9.1-11.7c0.7,0,1.3,0.1,2,0.1
						c3.1,3.7,6,7.5,8.8,11.4C953.2,160.5,952.7,160.5,952.1,160.6z M955.8,163.2c2.1,2.9,4.1,5.9,6.1,8.9c-0.6,0-1.2,0.1-1.7,0.1
						c-2-3-4.1-6-6.2-9C954.6,163.2,955.2,163.2,955.8,163.2z M987.2,221.2c0.6-0.1,1.2-0.1,1.8-0.2c1.7,3.7,3.4,7.4,5,11.1
						c-0.6,0.1-1.2,0.2-1.8,0.3C990.6,228.7,988.9,224.9,987.2,221.2z M998.6,248.2c-1.6-4.2-3.4-8.5-5.2-12.8
						c0.6-0.1,1.2-0.2,1.9-0.3c2,4.7,3.9,9.4,5.7,14.2c-0.6,0.1-1.3,0.1-1.9,0.2C999,249.1,998.8,248.7,998.6,248.2z M1000.1,252.2
						c0.7,0,1.3-0.1,2-0.1c1.7,4.5,3.3,9.1,4.9,13.7c-0.6,0.1-1.3,0.2-1.9,0.3C1003.5,261.4,1001.9,256.8,1000.1,252.2z
						 M1006.3,269.8c0.6-0.1,1.3-0.2,1.9-0.2c1.3,3.9,2.5,7.8,3.7,11.7c-0.7,0.1-1.3,0.1-2,0.2
						C1008.8,277.6,1007.6,273.7,1006.3,269.8z M1010.9,284.8c0.7,0,1.3-0.1,2-0.1c1.3,4.5,2.5,9,3.7,13.6c-0.7,0-1.4,0-2,0.1
						C1013.5,293.9,1012.2,289.3,1010.9,284.8z M1015.4,301.6c0.7,0,1.4,0.1,2.1,0.1c0.8,3.4,1.6,6.8,2.4,10.2l0,0
						c0,0.1,0,0.1,0,0.2c-0.2,0-0.4,0-0.6,0c-0.5,0-1,0.1-1.5,0.1C1017.1,308.7,1016.2,305.2,1015.4,301.6z M1021.9,336.4
						c-2.1-7.1-2-13.2-3.3-20.2c0.5,0,1.1-0.1,1.6-0.1c0.2,0,0.4,0,0.6,0c1.5,7.1,2.1,13.3,2.9,20.1
						C1023.9,337.2,1022.2,337.3,1021.9,336.4z"/>
					<path fill="#6241CE" d="M979.2,178.3c-1.8,2.1-2.5,4.8-2.3,7.4c0.2,2.7,1.5,5.4,3.7,7.2c2.3,1.9,5.1,2.6,7.8,2.3
						c0.6-0.1,1.1-0.2,1.7-0.3c-3.3-5.8-6.8-11.4-10.6-16.9C979.4,178.1,979.3,178.2,979.2,178.3z"/>
					<path fill="#7A44B3" d="M967.6,168.8c-1.6,2-2.9,4.1-3.8,6.3l0,0c2.5,3.9,5,7.9,7.3,11.9c-0.6,0-1.2,0-1.8,0
						c-2-3.4-4.1-6.8-6.2-10.1c-2.5,7.3-1.4,15.5,2.8,22l-8.2,10l11.6,9.5l8.2-10c1.3,0.5,2.7,1,4,1.3c-0.6-1.2-1.2-2.4-1.8-3.7
						c0.6,0,1.2,0,1.8-0.1c0.7,1.4,1.4,2.7,2.1,4.1c1.2,0.2,2.3,0.3,3.5,0.3c3.4,0,6.8-0.7,10-2c-2.2-4.5-4.6-9-7.1-13.4
						c-0.5,0.2-1.1,0.3-1.7,0.3c-2.7,0.3-5.6-0.4-7.8-2.3c-2.3-1.9-3.5-4.5-3.7-7.2c-0.2-2.6,0.6-5.2,2.3-7.4
						c0.1-0.1,0.2-0.2,0.3-0.3c-1.7-2.4-3.4-4.8-5.2-7.1c-1.3-1.7-2.6-3.3-3.9-5C969.4,166.8,968.5,167.7,967.6,168.8z M975.3,194.3
						c1.6,2.9,3.2,5.8,4.7,8.7c-0.6,0-1.2,0.1-1.7,0.1c-2.3-4.5-4.7-8.9-7.3-13.3c0.6,0,1.2,0.1,1.8,0.1
						C973.7,191.4,974.5,192.8,975.3,194.3z"/>
				</g>
			</g>
			<path fill="#6241CE" d="M1223.2,282.3c-11.4-31.7-13.2-36.2-21.5-55.4s-5.6-28.4-12.1-34.3s-17.2-12.3-35-23.6
				s-73.6-36.2-119.5-47.8s-79.4-22.1-105.2-24.4c-17.4-1.5-33.6-3.3-42.4-4.4c3.5,1.8,7.1,3.7,10.6,5.6c8.4,4.5,17,8.8,24.8,14.3
				c7.5,5.3,14,11.7,20.3,18.4c12.4,13.2,24.6,26.9,35.6,41.4c22.9,30.4,33.8,66.9,50.7,100.5c0.2,0.4,0.2,0.8,0.1,1.1
				c3.6,8.3,6.6,16.8,9.1,25.6c3.7,12.6,7.7,25.4,10.3,38.4c0.3,1.2-0.4,2.1-1.3,2.5l6.8,52.7l178.6-63.4
				C1233.2,329.7,1234.6,314.1,1223.2,282.3z M904.8,98.8c-2.3-1.2-4.7-2.4-7-3.6c0.2,0,0.4-0.1,0.6-0.1c0.5,0,1-0.1,1.5-0.1
				c2.3,1.1,4.5,2.3,6.8,3.5C906.1,98.7,905.4,98.7,904.8,98.8z M923.7,110.2c-2.2-1.5-4.4-2.9-6.7-4.3c-1.8-1.1-3.6-2.2-5.4-3.3
				c-1.1-0.6-2.1-1.2-3.2-1.8c0.7,0,1.4-0.1,2.2-0.1c1,0.6,2,1.2,3,1.8c1.8,1.1,3.7,2.2,5.5,3.3c2.1,1.3,4.2,2.7,6.2,4.1
				C924.8,109.9,924.2,110.1,923.7,110.2z M934.2,117.7c-2.4-1.8-4.8-3.6-7.3-5.3c0.6-0.1,1.1-0.2,1.7-0.3c2.4,1.6,4.7,3.3,7,5.1
				C935.1,117.3,934.6,117.5,934.2,117.7z M944.1,125.7c-2.4-2.1-4.9-4.1-7.4-6c0.5-0.1,1.1-0.3,1.6-0.4c2.5,2,5,4,7.4,6
				C945.2,125.4,944.7,125.5,944.1,125.7z M956,136.3c-2.8-2.6-5.6-5.2-8.5-7.8c0.6-0.1,1.2-0.2,1.7-0.3c3,2.6,5.9,5.3,8.8,8
				C957.4,136.3,956.7,136.3,956,136.3z M966.4,146.8c-2.3-2.4-4.7-4.9-7.1-7.2c0.7,0,1.4,0,2.2,0c2.4,2.4,4.8,4.8,7.1,7.3
				C967.9,146.9,967.2,146.8,966.4,146.8z M978,159.8c-2.5-2.9-5-5.8-7.5-8.6c0.8,0.1,1.6,0.2,2.4,0.3c2.5,2.7,4.9,5.5,7.3,8.3
				C979.4,159.8,978.7,159.8,978,159.8z M988.6,173c-2.4-3.2-4.9-6.3-7.4-9.4c0.7,0.1,1.5,0.1,2.2,0.2c2.5,3.1,5,6.2,7.4,9.4
				C990,173.1,989.3,173,988.6,173z M999.2,187.5c-2.5-3.6-5.1-7.2-7.7-10.7c0.8,0.1,1.5,0.2,2.3,0.3c2.6,3.5,5.1,7,7.5,10.5
				C1000.6,187.6,999.9,187.6,999.2,187.5z M1008.9,201.1c-0.2,0-0.5,0-0.7,0c-2.1-3.2-4.2-6.5-6.3-9.7c0.7,0,1.4,0.1,2.1,0.1
				c2.1,3.1,4.2,6.2,6.2,9.4C1009.8,201,1009.3,201,1008.9,201.1z M1016.2,214.2c-1.9-3.1-3.7-6.3-5.7-9.4c0.7,0,1.4,0,2-0.1
				c1.7,2.7,3.4,5.5,5.1,8.3c0.2,0.3,0.3,0.5,0.5,0.8C1017.5,214,1016.9,214.1,1016.2,214.2z M1018.2,217.6c0.6-0.2,1.3-0.3,1.9-0.5
				c1.9,3.3,3.9,6.6,5.8,9.9c-0.7,0.1-1.4,0.2-2.1,0.3C1021.9,224.1,1020.1,220.9,1018.2,217.6z M1025.7,231
				c0.7-0.1,1.4-0.2,2.2-0.3c2.6,4.6,5.1,9.2,7.5,13.9c-0.8,0.1-1.6,0.3-2.3,0.4C1030.7,240.3,1028.3,235.7,1025.7,231z
				 M1034.8,248.4c0.8-0.1,1.6-0.2,2.4-0.4c2.2,4.4,4.4,8.8,6.5,13.2c-0.8,0.1-1.7,0.2-2.5,0.3
				C1039.1,257.2,1037,252.8,1034.8,248.4z M1048.9,278.6c-1.9-4.4-3.8-8.9-5.9-13.2c0.2,0,0.5-0.1,0.7-0.1c0.6-0.1,1.2-0.1,1.8-0.2
				c2,4.4,4,8.9,5.9,13.4C1050.5,278.5,1049.7,278.6,1048.9,278.6z M1050.5,282.5c0.8-0.1,1.6-0.1,2.5-0.2c1.7,4.2,3.3,8.4,4.8,12.6
				c-0.8,0.1-1.6,0.2-2.4,0.3C1053.8,291,1052.2,286.7,1050.5,282.5z M1056.7,299c0.8-0.1,1.6-0.2,2.4-0.3c1.4,3.9,2.6,7.9,3.8,11.8
				c-0.8,0-1.7,0-2.5,0C1059.2,306.7,1058,302.9,1056.7,299z M1065.9,332.9c-1.2-6.2-2.7-12.3-4.4-18.3c0.8,0,1.7,0,2.5,0
				c1.7,5.8,3.1,11.7,4.4,17.6C1068.8,333.8,1066.3,334.5,1065.9,332.9z"/>
			<path fill="#7A44B3" d="M571.2,360.1c-0.8-2.7-2.1-5-3.7-6.8l2.3-9l-6.9-3.4l-2.3,9c-2-0.1-4,0.6-5.9,2c-3,2.2-5.4,6.1-6.5,10.8
				c-2,7.9-0.2,16.3,3.9,20.9l-2.3,9l6.9,3.4l2.3-9c2,0.1,4-0.6,5.9-2c3-2.2,5.4-6.1,6.5-10.8C572.7,369.5,572.6,364.5,571.2,360.1z
				 M564.6,370.8c-0.5,1.9-1.4,3.4-2.6,4.3c-1.2,1-2.6,1.2-4,0.5s-2.4-2.1-2.9-3.9c-0.5-1.7-0.5-3.7-0.1-5.6
				c0.5-1.9,1.4-3.4,2.6-4.3l0.1-0.1c1.2-0.9,2.6-1.1,3.9-0.4c1.3,0.6,2.3,2,2.8,3.8c0,0.1,0,0.1,0,0.2
				C565,367,565.1,369,564.6,370.8z"/>
			<g>
				<path fill="none" d="M608.9,367.7c-0.8-2.7-1.5-5.3-2.2-8c-0.3,0-0.7-0.1-1-0.1c-0.2,0-0.4,0-0.6,0c0.7,2.8,1.5,5.5,2.3,8.3
					C607.9,367.8,608.4,367.7,608.9,367.7z"/>
				<path fill="none" d="M616.8,394.6C616.5,394.5,616.9,394.8,616.8,394.6L616.8,394.6z"/>
				<path fill="none" d="M611.1,387.5c0.9-0.1,1.8-0.5,2.5-1.2c0.6,1.7,1.3,3.4,1.9,5.1c0.5-0.1,0.9-0.1,1.4-0.1
					c0-0.1-0.1-0.2-0.1-0.2c-0.8-2-1.5-4-2.3-6c0.2-0.2,0.3-0.5,0.4-0.8c0.9-1.8,1.3-4.2,1.2-6.7s-0.9-4.8-2-6.5
					c0-0.1-0.1-0.1-0.1-0.2c-1.2-1.8-2.7-2.7-4.2-2.6l0,0c-1.5,0.1-2.9,1.2-3.9,3.1c0,0.1-0.1,0.1-0.1,0.2c-0.9,1.9-1.3,4.2-1.2,6.7
					c0.2,2.6,0.9,4.9,2,6.5C607.9,386.5,609.4,387.6,611.1,387.5L611.1,387.5z"/>
				<path fill="#7A44B3" d="M616.7,412.1l-0.7-12c0.7-0.4,1.4-0.9,2-1.5c-0.3-1.1-0.6-2.1-0.9-3.2c0.5,0,0.9,0.1,1.4,0.2
					c0.2,0.6,0.4,1.2,0.6,1.9c1.2-1.4,2.3-3.2,3.1-5.2c-5.9-15.9-10-32.3-13.5-48.8l-4.3,0.3l0.5,7.7c0.3,1.5,0.7,2.9,1,4.4
					c-0.1,0-0.2,0-0.3,0c-0.2,0-0.4,0-0.5,0c-2,1.2-3.9,3.3-5.3,6.1c-2.4,4.6-3.5,10.6-3.1,16.9c0.6,10.5,5.3,19.2,11.2,21.9l0.7,12
					L616.7,412.1z M616.8,394.6C616.9,394.8,616.5,394.5,616.8,394.6L616.8,394.6z M605.7,359.6c0.3,0,0.7,0.1,1,0.1
					c0.7,2.7,1.4,5.4,2.2,8c-0.5,0-1,0.1-1.5,0.2c-0.8-2.7-1.6-5.5-2.3-8.3C605.3,359.6,605.5,359.6,605.7,359.6z M606.7,384.8
					c-1.1-1.7-1.8-4-2-6.5c-0.1-2.5,0.3-4.9,1.2-6.7c0-0.1,0.1-0.1,0.1-0.2c1-1.9,2.4-3,3.9-3.1l0,0c1.5-0.1,3,0.8,4.2,2.6
					c0,0.1,0.1,0.1,0.1,0.2c1.1,1.7,1.8,4,2,6.5c0.2,2.6-0.3,4.9-1.2,6.7c-0.1,0.3-0.3,0.5-0.4,0.8c0.7,2,1.5,4,2.3,6
					c0,0.1,0.1,0.2,0.1,0.2c-0.5,0-0.9,0-1.4,0.1c-0.7-1.7-1.3-3.4-1.9-5.1c-0.7,0.7-1.6,1.2-2.5,1.2l0,0
					C609.4,387.6,607.9,386.5,606.7,384.8z"/>
			</g>
			<path fill="#7A44B3" d="M783.1,248.2c-1.6-3.9-4.1-7.2-7.3-9.8l4.9-12l-13.9-5.7l-4.9,12c-10.8-1-21.4,5.1-25.7,15.6
				c-2.6,6.3-2.6,13.2,0,19.4c1.6,3.9,4.1,7.2,7.3,9.8l-4.9,12l13.9,5.7l4.9-12c0.8,0.1,1.5,0.1,2.3,0.1c3.3,0,6.6-0.7,9.8-2
				c6.2-2.6,11.1-7.5,13.7-13.8C785.8,261.3,785.8,254.5,783.1,248.2z M769.3,261.9c-1,2.6-3,4.5-5.4,5.5c-2.5,1.1-5.4,1.3-8.2,0.1
				c-2.6-1.1-4.6-3-5.6-5.6c0-0.1-0.1-0.1-0.1-0.2c-1-2.5-1-5.2,0.1-7.7c1.1-2.6,3-4.5,5.4-5.5c1.3-0.6,2.8-0.9,4.2-0.9
				c1.3,0,2.6,0.2,3.9,0.8c2.6,1,4.6,3,5.6,5.6c0,0.1,0,0.2,0.1,0.2C770.4,256.7,770.3,259.4,769.3,261.9z"/>
			<path fill="#7A44B3" d="M893,181.8c0.1-4.1-0.7-8.2-2.6-11.9c-3-6.1-8.2-10.7-14.6-12.9c-10.8-3.7-22.3,0.3-28.7,9l-12.2-4.2
				L830,176l12.2,4.2c-0.3,10.8,6.4,21.1,17.1,24.8c2.7,0.9,5.5,1.4,8.3,1.4c3.8,0,7.6-0.9,11.1-2.6c3.8-1.8,7-4.5,9.3-7.8l12.2,4.2
				l4.9-14.2L893,181.8z M864.3,190.8c-2.6-0.9-4.6-2.8-5.8-5c-1.3-2.4-1.6-5.3-0.6-8.1s3-4.9,5.5-6c1.3-0.6,2.8-1,4.3-1
				c1.1,0,2.2,0.2,3.4,0.6c2.5,0.9,4.6,2.7,5.8,5c0,0.1,0.1,0.1,0.1,0.2c1.2,2.5,1.4,5.3,0.5,7.9c-0.4,1.3-1.1,2.5-2,3.5
				s-2,1.8-3.2,2.4c-0.1,0-0.1,0.1-0.2,0.1C869.6,191.5,866.8,191.7,864.3,190.8z"/>
			<path fill="#7A44B3" d="M912.5,250.1l-12.5-8.2l-7.1,10.8c-10.4-3-22,0.9-28.2,10.4c-3.7,5.7-5,12.4-3.6,19.1
				c0.8,4.1,2.7,7.9,5.2,11l-7.1,10.8l12.5,8.2l7.1-10.8c2.3,0.7,4.6,1,7,1c8.3,0,16.4-4,21.2-11.4c6.2-9.5,5.3-21.7-1.6-30.1
				L912.5,250.1z M894.5,282.8c-1.5,2.3-3.8,3.8-6.3,4.4c-2.7,0.6-5.6,0.2-8-1.4c-2.3-1.5-3.9-3.8-4.5-6.6c0-0.1,0-0.2,0-0.2
				c-0.5-2.6,0-5.3,1.5-7.5c1.5-2.3,3.8-3.8,6.3-4.4c0.8-0.2,1.6-0.3,2.4-0.3c2,0,3.9,0.5,5.7,1.7c1.2,0.8,2.2,1.8,3,3
				s1.3,2.5,1.5,3.8C896.5,277.7,896,280.4,894.5,282.8z"/>
			<path fill="#7A44B3" d="M851,360.6c-2.5-10.5-11.6-18.7-23-19.4c-11.4-0.8-21.5,6.1-25.4,16.2l-12.9-0.9l-1,15l12.9,0.9
				c2.5,10.5,11.7,18.7,23,19.4c0.6,0,1.1,0.1,1.7,0.1c10.7,0,20-6.7,23.7-16.3l12.9,0.9l1-15L851,360.6z M825.7,376.9
				c-2.8-0.2-5.2-1.4-6.9-3.3c-1.9-2-2.9-4.8-2.7-7.7c0.2-2.9,1.6-5.5,3.7-7.3c1.8-1.5,4.1-2.4,6.6-2.4c0.2,0,0.5,0,0.7,0
				c2.8,0.2,5.2,1.5,6.9,3.3c1.8,2,2.9,4.8,2.7,7.7c-0.1,1.5-0.5,2.8-1.1,4.1c-0.6,1.2-1.5,2.3-2.6,3.2
				C831,376.1,828.5,377,825.7,376.9z"/>
			<path fill="#7A44B3" d="M692.7,392.5l1.4-12.9l-14.9-1.6l-1.4,12.9c-10.6,2.1-19.1,10.9-20.3,22.2c-1.2,11.3,5.3,21.7,15.2,26
				l-1.4,12.9l14.9,1.6l1.4-12.9c4-0.8,7.8-2.5,11-5.2c5.3-4.3,8.6-10.3,9.3-17.1C709.2,407.2,702.7,396.8,692.7,392.5z M693,417
				c-0.3,2.7-1.6,5.1-3.6,6.8c-0.1,0-0.1,0.1-0.2,0.2c-2.1,1.7-4.9,2.5-7.6,2.2c-1.5-0.2-2.8-0.6-4-1.3c-1.2-0.7-2.2-1.6-3.1-2.7
				c-1.6-2-2.4-4.7-2.1-7.4c0.3-2.8,1.7-5.1,3.6-6.8c2.1-1.8,4.9-2.7,7.8-2.4c2.8,0.3,5.2,1.6,7,3.8c0.1,0.1,0.1,0.1,0.2,0.2
				C692.6,411.6,693.3,414.3,693,417z"/>
			<g>
				<path fill="none" d="M595.2,301.5c0.2,1.9,0.4,3.9,0.6,5.8c0.5,0.1,1.1,0.2,1.6,0.2c-0.2-2.1-0.5-4.2-0.7-6.3
					C596.3,301.3,595.8,301.4,595.2,301.5z"/>
				<path fill="none" d="M594.8,296.7c0.1,0.5,0.1,1.1,0.2,1.6c0.5-0.1,1-0.2,1.6-0.3c-0.1-0.8-0.1-1.7-0.2-2.5
					c0.8-0.9,1.3-2,1.4-3.2c0.2-1.7-0.4-3.7-1.7-5.4c-0.2-0.2-0.3-0.4-0.5-0.6c0-0.1,0-0.1,0-0.2c-0.1,0-0.1,0-0.2,0
					c-1.3-1.3-2.9-2.3-4.6-2.8c-2.1-0.6-4.4-0.6-6.2,0.4s-2.8,2.6-3,4.5c-0.2,1.7,0.4,3.7,1.7,5.4c1.4,1.7,3.3,3,5.3,3.6
					c2.1,0.6,4.4,0.5,6.2-0.4C594.7,296.8,594.7,296.8,594.8,296.7z"/>
				<path fill="#7A44B3" d="M596.8,308l6.2,7.9c-2.6-13.3-4.8-26.6-5.2-40.1c-1.1-0.6-2.2-1.2-3.4-1.6c0.1,2.3,0.3,4.5,0.5,6.8
					c0,0.4,0.1,0.9,0.1,1.3c-0.6,0-1.2,0.1-1.8,0.1c-0.3-3-0.5-5.9-0.7-8.9c-0.3-0.1-0.6-0.2-0.9-0.3c-3.3-0.9-6.5-1.1-9.5-0.6
					l-3-3.9c-0.1,1.6-0.1,3.2-0.2,4.6c-0.2,11.1,1.6,23.2,2.6,31.7C586.4,307.7,591.9,308.8,596.8,308z M595.9,307.3
					c-0.2-1.9-0.4-3.9-0.6-5.8c0.5-0.1,1-0.1,1.6-0.2c0.2,2.1,0.4,4.2,0.7,6.3C596.9,307.4,596.4,307.4,595.9,307.3z M588.4,297.2
					c-2-0.6-3.9-1.8-5.3-3.6c-1.4-1.7-1.9-3.7-1.7-5.4c0.2-1.9,1.2-3.5,3-4.5s4.1-1,6.2-0.4c1.7,0.5,3.3,1.4,4.6,2.8
					c0.1,0,0.1,0,0.2,0c0,0.1,0,0.1,0,0.2c0.2,0.2,0.3,0.4,0.5,0.6c1.4,1.7,1.9,3.7,1.7,5.4c-0.1,1.2-0.6,2.3-1.4,3.2
					c0.1,0.8,0.1,1.7,0.2,2.5c-0.5,0.1-1,0.2-1.6,0.3c-0.1-0.5-0.1-1.1-0.2-1.6l-0.1,0.1C592.8,297.8,590.6,297.8,588.4,297.2z"/>
			</g>
			<path fill="#7A44B3" d="M590,434.4c-2.7-4.5-5.9-7.6-9.2-9c-2-0.8-3.9-0.9-5.4-0.2l-5.1-8.5l-4.2,5.7l5.1,8.5
				c-0.6,2.3-0.8,5-0.5,8.1c0.5,5,2.3,10.2,5,14.6c4.4,7.3,10.2,10.8,14.4,9.2c0.1,0,0.2-0.1,0.3-0.1l5.1,8.5l4.2-5.7l-5.1-8.5
				C596.2,451.1,594.5,441.9,590,434.4z M586.9,450.9c-0.8,1.1-2.1,1.3-3.4,0.7c-1.2-0.6-2.5-1.8-3.6-3.6c-1.1-1.8-1.8-3.8-2-5.8
				c0-0.1,0-0.1,0-0.2c-0.2-2,0.1-3.7,0.9-4.8c0.3-0.4,0.7-0.7,1.2-0.9c0.6-0.2,1.3-0.2,2.1,0.1c0,0,0.1,0,0.1,0.1
				c1.3,0.6,2.6,1.8,3.6,3.6c1.1,1.8,1.8,3.9,2,5.8C588,448,587.7,449.8,586.9,450.9z"/>
			<path fill="#583688" d="M525.5,479.9c-1.5-8.8-5.6-15.8-9.9-17.6l-1.7-10l-5.6,1l1.7,10c-1.3,1.2-2.4,3.1-3.1,5.6
				c-1.2,4-1.3,9.1-0.4,14.4c0.9,5.2,2.7,10,5.2,13.4c1.5,2.1,3.1,3.5,4.8,4.2l1.7,10l5.6-1l-1.7-10
				C525.5,496.6,527,488.7,525.5,479.9z M519.7,486.6c-0.4,1.7-1.3,2.8-2.4,3l0,0c-1,0.2-2.2-0.5-3.2-1.9l-0.1-0.1
				c-1-1.4-1.7-3.3-2-5.3c-0.4-2.1-0.3-4.1,0.1-5.7c0-0.1,0-0.1,0-0.2c0.5-1.6,1.3-2.6,2.4-2.8l0,0c1.1-0.2,2.3,0.6,3.2,2
				c0.9,1.3,1.7,3.2,2,5.3C520.2,483,520.1,485,519.7,486.6z"/>
			<path fill="#583688" d="M560.5,586.7c5.2-0.2,6-4.9,1.3-12.1c-4.7-7.2-13.4-14.6-21.2-18.4l-5.3-8.1l-9.5-2.6l5.3,8.2
				c-5.2,0.2-6,4.9-1.3,12.1c2.5,3.9,6.2,7.8,10.4,11.2c3.5,2.9,7.3,5.4,10.9,7.2l5.3,8.2l9.5,2.6L560.5,586.7z M539.3,568.3
				c-1.1-1.7-1.5-3.1-1.1-4s1.5-1.2,3.4-0.7s4.1,1.8,6.1,3.4c0.2,0.1,0.3,0.3,0.5,0.4c1.7,1.4,3.2,3,4.2,4.6c1.1,1.7,1.5,3.1,1.1,4
				s-1.5,1.2-3.4,0.7s-4-1.8-6.1-3.3C542.2,571.8,540.4,570,539.3,568.3z"/>
			<path fill="#7A44B3" d="M639.5,465.3c-1.2-3.4-2.8-6.3-4.8-8.3l1.6-11.5l-8-3.9l-1.6,11.5c-2.2,0-4.4,1-6.3,2.9
				c-3.1,3-5.3,8-6.2,14c-0.8,6-0.2,12.4,1.7,17.9c1.2,3.4,2.8,6.3,4.8,8.3l-1.6,11.5l8,3.9l1.6-11.5c0.1,0,0.2,0,0.3,0
				c2.1-0.1,4.2-1.1,6.1-2.9c3.1-3,5.3-8,6.2-14C642.1,477.2,641.5,470.8,639.5,465.3z M633.3,479.2c-0.3,2.4-1.2,4.4-2.4,5.6
				l-0.1,0.1c-1.3,1.2-2.8,1.5-4.3,0.8c-0.7-0.4-1.4-1-2-1.7c-0.6-0.8-1.1-1.8-1.5-2.9c0-0.1,0-0.1-0.1-0.2c-0.7-2.2-1-4.7-0.6-7.1
				c0.3-2.4,1.2-4.4,2.4-5.6l0.1-0.1c0.8-0.7,1.6-1.1,2.5-1.2c0.6,0,1.2,0.1,1.8,0.4c1.5,0.7,2.7,2.4,3.5,4.6c0,0.1,0,0.1,0.1,0.2
				C633.4,474.3,633.6,476.8,633.3,479.2z"/>
			<path fill="#7A44B3" d="M1017.1,316.7c3.9-10.1,1-22-7.9-29.1c-5.3-4.2-12-6.1-18.7-5.3c-4.2,0.5-8.1,2-11.4,4.3l-10.2-8
				l-9.3,11.8l10.1,8c-3.9,10.1-1,22,7.9,29c4.5,3.6,10,5.5,15.7,5.5c1,0,2-0.1,3-0.2c4.2-0.5,8.1-2,11.4-4.3l10.1,8l9.3-11.8
				L1017.1,316.7z M987,315.7c-2.2-1.7-3.5-4.1-3.8-6.7c-0.4-2.7,0.3-5.6,2.1-7.9c1.7-2.2,4.2-3.5,6.9-3.9c0.1,0,0.2,0,0.2,0
				c0.3,0,0.7-0.1,1-0.1c2.3,0,4.6,0.8,6.4,2.2c2.2,1.7,3.5,4.1,3.8,6.7c0.4,2.7-0.3,5.6-2.1,7.9c-0.9,1.1-1.9,2-3.1,2.6
				c-1.2,0.7-2.5,1.1-3.9,1.2c-0.1,0-0.2,0-0.2,0C991.8,318.1,989.1,317.3,987,315.7z"/>
			<path fill="#7A44B3" d="M1148.9,286.7l16.6,4c-4.5,7.6-12.8,12.4-21.8,12.4c-2,0-4-0.2-6-0.7c-11.1-2.7-18.7-12.3-19.4-23.1
				l-12.6-3l3.5-14.6l12.6,3c2.1-3.5,5-6.5,8.6-8.7c5.8-3.5,12.6-4.6,19.2-3c11.1,2.7,18.7,12.3,19.4,23.1l-16.6-4
				c-1.4-2.2-3.7-3.8-6.3-4.5c-0.8-0.2-1.6-0.3-2.4-0.3c-1.8,0-3.6,0.5-5.2,1.4c-2.4,1.4-4.2,3.7-4.9,6.5c-0.7,2.9-0.1,5.8,1.4,8
				c1.4,2.2,3.6,3.8,6.3,4.5C1143.9,288.4,1146.6,288,1148.9,286.7z"/>
			<path fill="#7A44B3" d="M1181.6,279.1l-3.5,14.6l-12.6-3l-16.6-4c0.1,0,0.1-0.1,0.2-0.1c2.4-1.4,4-3.7,4.7-6.4
				c0.6-2.7,0.2-5.5-1.2-7.8c0-0.1-0.1-0.1-0.1-0.2l16.6,4L1181.6,279.1z"/>
			<path fill="#7A44B3" d="M1129.6,165.6c-0.1-6.9-7.3-13.6-18.1-16.4c-10.9-2.7-22.2-0.6-28.2,4.8l-12.4-3.1l-4.2,8.9l12.4,3.1
				c0.1,2.6,1.1,5.2,3.1,7.7c3.2,4,8.6,7.1,15,8.7c1.8,0.5,3.7,0.8,5.5,1c9,0.9,17.7-1.3,22.7-5.7l12.4,3.1l4.2-8.9L1129.6,165.6z
				 M1101.4,170.4c-2.6-0.6-4.7-1.9-6-3.4l-0.1-0.1c-1.3-1.6-1.6-3.4-0.8-5.1c0.8-1.7,2.8-3,5.2-3.7c2.3-0.6,5-0.7,7.6,0
				s4.7,1.9,6,3.4c1.4,1.6,1.8,3.5,1,5.2s-2.8,3-5.2,3.7C1106.8,171,1104.1,171.1,1101.4,170.4z"/>
			<path fill="#7A44B3" d="M1190,218.1l6.5-6.8c-2.3-9.2-2.4-14.7-6.9-18.7c-1.3-1.2-2.8-2.4-4.5-3.6c0.4,3.3,1.4,6.5,3,9.4l-9,9.3
				L1190,218.1z"/>
			<path fill="#7A44B3" d="M1016.4,128.4c-1.9-7.3-10.5-13.5-21.8-14.8c-11.3-1.4-21.8,2.5-26.2,9l-12.8-1.6l-1.8,10l12.8,1.6
				c1.9,7.3,10.5,13.5,21.8,14.8c0.7,0.1,1.3,0.1,2,0.2c10.5,0.7,20.1-3,24.3-9.2l12.8,1.6l1.9-10L1016.4,128.4z M990.2,137.3
				c-2.7-0.3-5.1-1.4-6.7-2.8c-1.7-1.5-2.6-3.4-2.3-5.4c0.4-2,1.9-3.6,4.1-4.6c2.1-1,4.7-1.4,7.4-1.1s5.1,1.4,6.7,2.8
				c1.7,1.5,2.6,3.4,2.3,5.4c-0.4,2-1.9,3.6-4.1,4.6C995.6,137.2,993,137.6,990.2,137.3z"/>
			<g>
				<path fill="#7A44B3" d="M611.6,343.2c0.5,2.1,0.9,4.3,1.4,6.4l-0.4-6.5L611.6,343.2z"/>
				<path fill="#7A44B3" d="M624.5,377.1c-0.4-6.3-2.2-12.1-5.1-16.4c-1.5-2.2-3.2-3.9-5-4.9c2.6,10.8,5.5,21.5,9.2,32
					C624.4,384.5,624.7,380.9,624.5,377.1z"/>
			</g>
			<g>
				<path fill="none" d="M730.5,154.6c2.4,1.4,5.3,1.8,8,1.4c2.5-0.4,4.9-1.6,6.5-3.5s2.2-4.1,1.8-6.2c-0.4-2.3-1.9-4.4-4.3-5.8
					c-1.8-1.1-3.9-1.6-6-1.6c-0.7,0-1.3,0.1-2,0.2c-2.5,0.4-4.9,1.6-6.5,3.5s-2.2,4.1-1.8,6.2C726.6,151.1,728.1,153.2,730.5,154.6z
					"/>
				<path fill="#7A44B3" d="M716.3,160.4l-7.5,8.8l12.2,7.2l7.5-8.8c2.6,0.7,5.2,1,7.8,1c8,0,15.8-3.1,20.8-8.9
					c6.6-7.7,6-17.9-0.6-25.1l7.5-8.8l-0.6-0.3c-18.2,5.8-36.7,11.6-51.8,17.3C710.1,148.9,711.7,155.4,716.3,160.4z M728,142.6
					c1.6-1.9,3.9-3.1,6.5-3.5c0.7-0.1,1.3-0.2,2-0.2c2.1,0,4.2,0.5,6,1.6c2.4,1.4,3.9,3.5,4.3,5.8c0.4,2.1-0.2,4.4-1.8,6.2
					c-1.6,1.9-4,3.1-6.5,3.5c-2.7,0.4-5.6,0-8-1.4s-3.9-3.5-4.2-5.8C725.8,146.7,726.4,144.5,728,142.6z"/>
				<path fill="#7A44B3" d="M859.4,90C859.5,90,859.5,90,859.4,90C859.4,89.9,859.3,90,859.4,90C859.4,90,859.4,90,859.4,90z"/>
				<path fill="#7A44B3" d="M849,94.6c3.2-0.6,6.3-1.9,9.1-3.7c-0.6-0.2-1.2-0.3-1.8-0.5c-6.5,1.2-14.4,3.5-22.8,7.4l-0.9,8
					l14.9,1.7L849,94.6z"/>
				<path fill="#7A44B3" d="M928.3,120.8c-4.3-3.4-8.7-6.6-13.3-9.5l-2.4,11.1l14.7,3.1L928.3,120.8z"/>
			</g>
			<path fill="none" d="M1044.7,339c-6-24.8-11.6-49.9-22.2-73.3c0-0.1-0.1-0.2-0.1-0.3c-7.2-15.4-13.3-31.3-20.3-46.8
				c-7.6-16.9-16.4-33.1-27.8-47.8c-11.2-14.5-23.5-28.2-36.3-41.3c-13.7-14-30-22.8-47.2-31.8c-5.9-3.1-11.9-6-18-8.8
				c-2-0.1-6.8,0-13.5,1c1.8,0.5,3.6,1,5.4,1.6c-0.8,0.2-1.6,0.4-2.4,0.5c-2-0.6-4-1.1-6-1.6c-8.5,1.6-19.4,4.9-30.9,11.5
				c-25.6,14.8-87.9,29.7-122.4,44.2c-15.6,6.6-31.4,13.5-46.3,21.5c-4.6,4.2-9,8.6-13.3,13.1c-1,0.3-2.1,0.7-3.1,1
				c3.5-3.8,7.1-7.5,10.8-11c-4,2.3-7.9,4.6-11.8,7c-1.7,1.4-3.6,2.8-5.1,4.3c-3,2.9-5.8,5.9-8.4,9.1c-5.7,6.9-10.4,14.5-14.3,22.6
				c-3.9,8.3-6.8,17.1-8.5,26.2c-1.7,8.9-2,18.1-2.8,27.1l0,0c0,20.4,4,40.7,8,60.7c4.7,23.5,9.8,46.9,18.7,69.1
				c0.1,0.3,0.1,0.5,0.1,0.7c2.3,5.3,3.6,11.1,5.4,16.4c2.4,7.3,5,14.7,7.8,21.9c5.6,14.2,12.6,27.7,22.1,39.7
				c0.4,0.5,0.5,1,0.3,1.5l22,42.5L809.7,480l241.5-85.8c-0.9-13.7-2.8-39-4.5-53.7C1045.8,340.6,1045,340.1,1044.7,339z"/>
			<g>
				<path fill="none" d="M531.3,448.8c0,1.9,0.8,4.3,2.2,6.6c0,0.1,0.1,0.1,0.1,0.2c1.4,2.2,3.1,4.1,5,5.4c1.1,0.8,2.2,1.3,3.2,1.4
					c-2.4-5.2-5-11.1-7.8-17.4c-0.2,0-0.4,0-0.6,0.1C532.1,445.5,531.3,446.7,531.3,448.8z"/>
				<path fill="#583688" d="M551.2,474.7c2-0.7,3.5-2.1,4.3-4.3l9,6.1l-0.2-10.5l-9-6.1c-2.3-8.7-9.1-18.6-17.1-23.9
					c-3.6-2.4-6.9-3.6-9.6-3.7c1.8,4.3,3.7,8.6,5.4,12.6c1.2-0.1,2.7,0.4,4.3,1.5s3,2.6,4.3,4.2c0.3,0.4,0.5,0.8,0.8,1.1
					c1.4,2.3,2.3,4.7,2.3,6.8l0,0c0,1.9-0.7,3.2-2,3.7h-0.1c-0.5,0.2-1.1,0.2-1.7,0c2.3,5.1,4.3,9.4,5.9,12.7
					C549,475.1,550.2,475,551.2,474.7z"/>
			</g>
			<g>
				<path fill="none" d="M575.7,517.5L575.7,517.5c-2-0.3-4,0.4-5.7,1.9l-0.1,0.1c-1.6,1.5-2.7,3.7-3.1,6.1c-0.4,2.4,0,4.8,1.1,6.7
					c0,0.1,0.1,0.1,0.1,0.2c1.1,2,2.9,3.2,4.8,3.5c2.1,0.3,4.2-0.5,5.9-2c1.5-1.5,2.7-3.6,3-6.1c0.4-2.5-0.1-4.8-1.1-6.7
					C579.5,519.3,577.8,517.9,575.7,517.5z"/>
			</g>
			<g>
				<path fill="none" d="M630.3,319.3c2.8,1.1,5.7,0.8,8.2-0.4c2.3-1.1,4.2-3.1,5.2-5.6c1-2.6,0.9-5.3-0.1-7.7
					c-1.1-2.5-3.1-4.6-5.9-5.7c-2.8-1.1-5.7-0.8-8.2,0.3c-2.3,1.1-4.2,3.1-5.2,5.7s-0.9,5.3,0.1,7.7
					C625.5,316.2,627.5,318.3,630.3,319.3z"/>
				<path fill="#7A44B3" d="M609.7,311.7c0.6-0.1,1.2-0.2,1.8-0.3c0.5,3.1,1,6.3,1.6,9.4c-0.6,0.1-1.2,0.2-1.7,0.2
					c0.6,1.3,1.4,2.5,2.2,3.6c0.1,0,0.2,0,0.2,0c0,0.2,0.1,0.3,0.1,0.5c1.3,1.7,2.8,3.2,4.4,4.5l-4.6,12.1l2.1,0.8
					c-0.3-1.1-0.5-2.2-0.8-3.2c0.6,0,1.3-0.1,1.9-0.1c0.3,1.4,0.7,2.8,1,4.2l9.8,3.7l4.6-12.1c1.3,0.1,2.6,0.1,3.9,0
					c9.3-0.9,17.9-6.9,21.4-16.2c2.4-6.3,2.2-13.2-0.6-19.4c-1.7-3.8-4.3-7.1-7.5-9.6l4.6-12.1l-14-5.3l-4.6,12.1
					c-4.1-0.3-8.2,0.5-12,2.2c-6.2,2.8-10.9,7.8-13.3,14.1c-0.1,0.3-0.2,0.5-0.3,0.8c0.3,2.1,0.5,4.1,0.9,6.2
					c-0.6,0.1-1.2,0.2-1.8,0.3c-0.1-0.6-0.2-1.1-0.2-1.7c-0.7,5,0.2,10.1,2.3,14.5C610.7,317.7,610.1,314.7,609.7,311.7z
					 M624.3,305.9c1-2.6,2.9-4.5,5.2-5.7c2.5-1.2,5.4-1.4,8.2-0.3s4.8,3.2,5.9,5.7c1,2.4,1.1,5.1,0.1,7.7s-2.9,4.5-5.2,5.6
					c-2.5,1.2-5.4,1.4-8.2,0.4c-2.7-1.1-4.8-3.2-5.9-5.7C623.4,311.3,623.3,308.5,624.3,305.9z"/>
			</g>
			<path fill="#7A44B3" d="M613.8,197.4c-0.5,0.5-1.1,1-1.6,1.5c-1,1-2.1,2-3.1,3.1c-0.2,0.2-0.3,0.3-0.5,0.5
				c-0.6,0.6-1.1,1.2-1.7,1.8c-1.7,4.7-1.7,9.5-0.2,13.7c0.7-1.6,1.4-3.3,2.1-4.9c3.9-8.4,8.8-16.2,14.5-23.4
				c0.4-0.5,0.9-1.1,1.3-1.6c-2,1.6-4,3.2-6,4.9c-0.5,0.4-0.9,0.8-1.4,1.2c0.3-0.1,0.6-0.3,0.9-0.4c-1.2,1.7-2.4,3.5-3.6,5.3
				c-0.6,0.2-1.3,0.4-1.9,0.7c0.8-1.3,1.7-2.5,2.6-3.8C614.8,196.4,614.3,196.9,613.8,197.4z"/>
			<g>
				<path fill="none" d="M609.6,297.8c-0.6,0.2-1.2,0.4-1.7,0.6c0.4,3.2,0.8,6.3,1.3,9.5c0.6-0.1,1.2-0.2,1.8-0.3
					C610.4,304.3,610,301.1,609.6,297.8z"/>
				<path fill="none" d="M607.5,271.2c-0.6-0.2-1.2-0.4-1.8-0.7c0.1,2.6,0.2,5.1,0.3,7.6c0,0.6,0.1,1.3,0.1,1.9
					c0.6,0.2,1.2,0.3,1.8,0.4C607.8,277.4,607.6,274.3,607.5,271.2z"/>
				<path fill="none" d="M611.5,311.5c-0.6,0.1-1.2,0.2-1.8,0.3c0.5,3.1,1,6.2,1.6,9.3c0.6,0,1.2-0.1,1.8-0.2
					C612.5,317.7,612,314.6,611.5,311.5z"/>
				<path fill="none" d="M607.4,259.1c-0.6-0.1-1.2-0.2-1.8-0.3c0,2.5,0,5.1,0,7.6c0.6,0.2,1.2,0.4,1.8,0.7
					C607.4,264.3,607.4,261.7,607.4,259.1z"/>
				<path fill="none" d="M608.7,290c-0.2-1.9-0.3-3.8-0.5-5.6c-0.6-0.1-1.2-0.3-1.8-0.4c0.3,3.7,0.6,7.4,1,11
					c0.6-0.2,1.2-0.4,1.7-0.6C609,293,608.9,291.5,608.7,290z"/>
				<path fill="none" d="M663.3,464.1c-0.6,0.4-1.3,0.8-1.9,1.3c4.8,8.3,10.4,16.1,17.2,23.1c1.1,1.1,2.8-0.6,1.7-1.7
					C673.6,480,668.1,472.3,663.3,464.1z"/>
				<path fill="none" d="M624.8,368.5c-0.6,0.2-1.2,0.4-1.8,0.6c1.1,3.7,2.2,7.3,3.4,10.9c0.4,0,0.8,0,1.2-0.1
					c0.3,0,0.5-0.1,0.8-0.1C627.1,376,626,372.3,624.8,368.5z"/>
				<path fill="none" d="M622.8,361.6c-0.5-1.6-0.9-3.3-1.4-4.9c-0.6,0.2-1.2,0.4-1.8,0.6c0.7,2.6,1.5,5.3,2.2,7.9
					c0.6-0.2,1.2-0.4,1.9-0.6C623.4,363.6,623.1,362.6,622.8,361.6z"/>
				<path fill="none" d="M616.9,339.1c-0.6,0.1-1.3,0.1-1.9,0.1c1.1,4.7,2.3,9.4,3.5,14.1c0.6-0.1,1.2-0.3,1.8-0.5
					C619.2,348.3,618,343.7,616.9,339.1z"/>
				<path fill="none" d="M635.5,400.3c-0.6,0.2-1.2,0.4-1.9,0.5c1.5,4,3,8,4.5,12c0.6-0.2,1.2-0.4,1.8-0.7
					C638.4,408.3,636.9,404.3,635.5,400.3z"/>
				<path fill="none" d="M653.5,450.1c1.9,4,3.9,8,6.1,11.9c0.6-0.4,1.2-0.8,1.9-1.3c-2.1-3.8-4.1-7.7-6-11.6
					C654.8,449.4,654.1,449.8,653.5,450.1z"/>
				<path fill="none" d="M647.7,431.6c-0.7,0.1-1.4,0.2-2.1,0.4c2,4.9,4.1,9.8,6.3,14.7c0.6-0.4,1.3-0.7,1.9-1.1
					C651.7,440.9,649.7,436.3,647.7,431.6z"/>
				<path fill="none" d="M641.3,415.9c-0.6,0.2-1.2,0.4-1.9,0.7c0.8,1.9,1.5,3.9,2.3,5.8s1.5,3.8,2.3,5.8c0.7-0.1,1.4-0.2,2.1-0.4
					C644.5,423.8,642.9,419.8,641.3,415.9z"/>
				<path fill="none" d="M629.5,383.4c-0.6,0.2-1.3,0.3-1.9,0.4c1.5,4.5,3,8.9,4.6,13.3c0.6-0.1,1.2-0.3,1.9-0.5
					C632.5,392.2,631,387.8,629.5,383.4z"/>
				<path fill="none" d="M613.8,324.6c-0.6,0.1-1.2,0.2-1.9,0.2c0.7,3.5,1.4,6.9,2.1,10.3c0.6,0,1.3,0,1.9-0.1
					C615.2,331.7,614.5,328.1,613.8,324.6z"/>
				<path fill="#7A44B3" d="M646.9,177.3l-0.6-0.3l-3.1,4c0.1,0,0.1,0,0.2-0.1C644.5,179.7,645.7,178.5,646.9,177.3z"/>
				<path fill="none" d="M1020.3,316.1c-0.5,0-1.1,0.1-1.6,0.1c1.3,7,1.2,13.1,3.3,20.2c0.3,1,2,0.8,1.9-0.2
					c-0.8-6.8-1.4-13-2.9-20.1C1020.7,316,1020.5,316,1020.3,316.1z"/>
				<path fill="none" d="M968.6,146.9c-2.3-2.5-4.7-4.9-7.1-7.3c-0.7,0-1.4,0-2.2,0c2.4,2.4,4.7,4.8,7.1,7.2
					C967.2,146.8,967.9,146.9,968.6,146.9z"/>
				<path fill="none" d="M1008.9,201.1c0.4,0,0.8-0.1,1.3-0.1c-2-3.2-4.1-6.3-6.2-9.4c-0.7,0-1.4-0.1-2.1-0.1
					c2.2,3.2,4.3,6.4,6.3,9.7C1008.4,201.1,1008.7,201.1,1008.9,201.1z"/>
				<path fill="none" d="M990.8,173.1c-2.4-3.2-4.9-6.3-7.4-9.4c-0.7-0.1-1.5-0.1-2.2-0.2c2.5,3.1,5,6.2,7.4,9.4
					C989.3,173,990,173.1,990.8,173.1z"/>
				<path fill="none" d="M1001.3,187.6c-2.5-3.5-5-7-7.5-10.5c-0.8-0.1-1.5-0.2-2.3-0.3c2.6,3.5,5.2,7.1,7.7,10.7
					C999.9,187.6,1000.6,187.6,1001.3,187.6z"/>
				<path fill="none" d="M958,136.2c-2.9-2.7-5.8-5.4-8.8-8c-0.6,0.1-1.2,0.2-1.7,0.3c2.9,2.5,5.7,5.1,8.5,7.8
					C956.7,136.3,957.4,136.3,958,136.2z"/>
				<path fill="none" d="M945.8,125.2c-2.4-2-4.9-4.1-7.4-6c-0.5,0.1-1.1,0.3-1.6,0.4c2.5,2,5,4,7.4,6
					C944.7,125.5,945.2,125.4,945.8,125.2z"/>
				<path fill="none" d="M917,105.9c2.3,1.4,4.5,2.8,6.7,4.3c0.5-0.1,1.1-0.3,1.6-0.4c-2.1-1.4-4.1-2.7-6.2-4.1
					c-1.8-1.1-3.6-2.2-5.5-3.3c-1-0.6-2-1.2-3-1.8c-0.7,0-1.4,0.1-2.2,0.1c1.1,0.6,2.1,1.2,3.2,1.8
					C913.4,103.7,915.2,104.8,917,105.9z"/>
				<path fill="none" d="M906.7,98.6c-2.2-1.2-4.5-2.4-6.8-3.5c-0.5,0-1,0.1-1.5,0.1c-0.2,0-0.4,0.1-0.6,0.1c2.4,1.2,4.7,2.3,7,3.6
					C905.4,98.7,906.1,98.7,906.7,98.6z"/>
				<path fill="none" d="M935.6,117.1c-2.3-1.7-4.6-3.4-7-5.1c-0.6,0.1-1.1,0.2-1.7,0.3c2.5,1.7,4.9,3.5,7.3,5.3
					C934.6,117.5,935.1,117.3,935.6,117.1z"/>
				<path fill="none" d="M980.1,159.8c-2.4-2.8-4.8-5.6-7.3-8.3c-0.8-0.1-1.6-0.2-2.4-0.3c2.6,2.8,5.1,5.7,7.5,8.6
					C978.7,159.8,979.4,159.8,980.1,159.8z"/>
				<path fill="none" d="M1018.1,213.9c-0.2-0.3-0.3-0.5-0.5-0.8c-1.7-2.8-3.4-5.5-5.1-8.3c-0.7,0-1.4,0.1-2,0.1
					c1.9,3.1,3.8,6.2,5.7,9.4C1016.9,214.1,1017.5,214,1018.1,213.9z"/>
				<path fill="none" d="M1052.9,282.3c-0.8,0.1-1.6,0.1-2.5,0.2c1.7,4.2,3.3,8.5,4.9,12.7c0.8-0.1,1.6-0.2,2.4-0.3
					C1056.2,290.7,1054.6,286.5,1052.9,282.3z"/>
				<path fill="none" d="M1059.1,298.7c-0.8,0.1-1.6,0.2-2.4,0.3c1.3,3.8,2.6,7.7,3.7,11.6c0.8,0,1.7,0,2.5,0
					C1061.7,306.6,1060.4,302.7,1059.1,298.7z"/>
				<path fill="none" d="M1068.5,332.2c-1.3-5.9-2.8-11.8-4.4-17.6c-0.8,0-1.7,0-2.5,0c1.7,6,3.2,12.1,4.4,18.3
					C1066.3,334.5,1068.8,333.8,1068.5,332.2z"/>
				<path fill="none" d="M1033.1,245c0.8-0.1,1.6-0.3,2.3-0.4c-2.4-4.7-4.9-9.3-7.5-13.9c-0.7,0.1-1.4,0.2-2.2,0.3
					C1028.3,235.7,1030.7,240.3,1033.1,245z"/>
				<path fill="none" d="M1025.9,227.1c-1.9-3.3-3.8-6.7-5.8-9.9c-0.6,0.1-1.3,0.3-1.9,0.5c1.9,3.3,3.8,6.5,5.6,9.8
					C1024.5,227.3,1025.2,227.2,1025.9,227.1z"/>
				<path fill="none" d="M1041.2,261.6c0.8-0.1,1.7-0.2,2.5-0.3c-2.1-4.4-4.3-8.9-6.5-13.2c-0.8,0.1-1.6,0.2-2.4,0.4
					C1037,252.8,1039.1,257.2,1041.2,261.6z"/>
				<path fill="none" d="M1048.9,278.6c0.8-0.1,1.6-0.1,2.5-0.2c-1.9-4.5-3.8-9-5.9-13.4c-0.6,0.1-1.2,0.1-1.8,0.2
					c-0.2,0-0.5,0.1-0.7,0.1C1045,269.8,1047,274.2,1048.9,278.6z"/>
				<path fill="none" d="M1019.9,312.1c0-0.1,0-0.1,0-0.2l0,0c-0.8-3.4-1.6-6.8-2.4-10.2c-0.7,0-1.4-0.1-2.1-0.1
					c0.9,3.5,1.7,7,2.4,10.6c0.5,0,1-0.1,1.5-0.1C1019.5,312.1,1019.7,312.1,1019.9,312.1z"/>
				<path fill="none" d="M920.3,125.2c2,1.8,4,3.7,6,5.6c0.5-0.2,1-0.3,1.5-0.5c-2-1.9-4-3.8-6.1-5.6
					C921.2,124.8,920.8,125,920.3,125.2z"/>
				<path fill="none" d="M929.1,133.5c1.4,1.4,2.7,2.8,4.1,4.3c0.6-0.1,1.2-0.2,1.7-0.2c-1.4-1.5-2.9-3-4.3-4.5
					C930.1,133.2,929.6,133.4,929.1,133.5z"/>
				<path fill="none" d="M943,148.9c3.1,3.8,6.2,7.7,9.1,11.7c0.6-0.1,1.1-0.1,1.7-0.2c-2.8-3.9-5.8-7.7-8.8-11.4
					C944.3,149,943.6,148.9,943,148.9z"/>
				<path fill="none" d="M935.4,140.2c1.8,2,3.7,4.1,5.4,6.2c0.6-0.1,1.2-0.1,1.8-0.2c-1.8-2.1-3.5-4.1-5.4-6.1
					C936.7,140.1,936.1,140.2,935.4,140.2z"/>
				<path fill="none" d="M909.7,116.5c3.1,2.3,6,4.8,9,7.3c0.5-0.2,0.9-0.3,1.4-0.5c-2.9-2.5-5.8-4.9-8.9-7.2
					C910.7,116.2,910.2,116.3,909.7,116.5z"/>
				<path fill="none" d="M869.6,94.5c2.5,0.9,4.9,1.8,7.3,2.8c0.5-0.2,1.1-0.4,1.6-0.6c-2.2-1-4.5-1.9-6.8-2.7
					C871,94.1,870.3,94.3,869.6,94.5z"/>
				<path fill="none" d="M896.5,107.4c3.6,2.2,7,4.5,10.4,7c0.5-0.1,1-0.3,1.5-0.4c-3.2-2.4-6.6-4.6-10-6.8
					C897.8,107.3,897.2,107.3,896.5,107.4z"/>
				<path fill="none" d="M954,163.2c2.1,2.9,4.2,5.9,6.2,9c0.6,0,1.1-0.1,1.7-0.1c-2-3-4-6-6.1-8.9
					C955.2,163.2,954.6,163.2,954,163.2z"/>
				<path fill="none" d="M888.8,103c0.7,0.4,1.4,0.7,2.1,1.1c0.7-0.1,1.3-0.2,2-0.2c-0.7-0.4-1.4-0.8-2.1-1.2
					C890.1,102.8,889.5,102.9,888.8,103z"/>
				<path fill="none" d="M880.6,98.9c1.8,0.8,3.7,1.7,5.5,2.6c0.6-0.1,1.3-0.2,1.9-0.3c-1.9-1-3.7-1.9-5.6-2.8
					C881.7,98.6,881.2,98.7,880.6,98.9z"/>
				<path fill="none" d="M1008.2,269.6c-0.6,0.1-1.3,0.2-1.9,0.2c1.3,3.9,2.5,7.8,3.7,11.7c0.7-0.1,1.3-0.1,2-0.2
					C1010.8,277.4,1009.5,273.5,1008.2,269.6z"/>
				<path fill="none" d="M1002.1,252.1c-0.7,0-1.3,0.1-2,0.1c1.7,4.6,3.4,9.2,4.9,13.8c0.6-0.1,1.3-0.2,1.9-0.3
					C1005.4,261.2,1003.8,256.6,1002.1,252.1z"/>
				<path fill="none" d="M995.3,235.1c-0.6,0.1-1.2,0.2-1.9,0.3c1.8,4.3,3.5,8.6,5.2,12.8c0.2,0.4,0.3,0.9,0.5,1.3
					c0.6-0.1,1.3-0.1,1.9-0.2C999.2,244.6,997.3,239.8,995.3,235.1z"/>
				<path fill="none" d="M1012.9,284.8c-0.7,0-1.3,0.1-2,0.1c1.3,4.5,2.5,9,3.7,13.6c0.7,0,1.4,0,2-0.1
					C1015.5,293.8,1014.2,289.3,1012.9,284.8z"/>
				<path fill="none" d="M963.8,175.1c-0.6,0-1.2,0-1.8,0c2.5,3.9,5,7.9,7.3,11.9c0.6,0,1.2,0,1.8,0
					C968.8,183,966.4,179,963.8,175.1z"/>
				<path fill="none" d="M989,221c-0.6,0.1-1.2,0.1-1.8,0.2c1.7,3.8,3.4,7.5,5,11.2c0.6-0.1,1.2-0.2,1.8-0.3
					C992.4,228.4,990.7,224.7,989,221z"/>
				<path fill="none" d="M975.3,194.3c-0.8-1.5-1.6-2.9-2.5-4.4c-0.6,0-1.2-0.1-1.8-0.1c2.5,4.4,4.9,8.8,7.3,13.3
					c0.6,0,1.2-0.1,1.7-0.1C978.5,200.1,977,197.2,975.3,194.3z"/>
				<path fill="none" d="M987.8,218.4c-2-4.2-4.1-8.4-6.2-12.5c-0.6,0-1.2,0-1.8,0.1c2.2,4.2,4.2,8.4,6.2,12.7
					c0.5-0.1,1.1-0.1,1.6-0.2C987.7,218.4,987.7,218.4,987.8,218.4z"/>
				<path fill="#7A44B3" d="M622.1,204c-0.8,1-1.3,2.1-1.7,3.1c1.1-1.7,2.3-3.4,3.5-5C623.3,202.7,622.7,203.3,622.1,204z"/>
				<path fill="#7A44B3" d="M608.3,232.3c0.6,0.1,1.2,0.1,1.8,0.2c-0.4,1.6-0.7,3.1-1,4.7l4.8,2.7l7.6-9.9
					c5.9,1.2,12.4,0.2,18.1-2.7c3.8-1.9,7.2-4.7,9.9-8.1c4-5.1,5.7-11.1,4.9-16.8c-0.5-3.5-2-6.7-4.3-9.2l7.6-9.8l-10.9-6
					c-1.2,1.2-2.3,2.4-3.5,3.6c-0.1,0-0.1,0-0.2,0.1l-4.6,5.9c-0.2,0-0.4-0.1-0.6-0.1c-1.9,2.1-3.7,4.3-5.5,6.5
					c-0.8,0.2-1.6,0.5-2.4,0.7c1.8-2.3,3.7-4.6,5.6-6.8c0.5-0.2,1-0.4,1.5-0.5c-2.3-0.3-4.8-0.3-7.2,0c-1.4,1.5-2.8,3.1-4.1,4.7
					c-5.7,6.9-10.4,14.5-14.3,22.6c-1.2,2.5-2.2,5-3.2,7.6c0.5,0.7,1,1.5,1.6,2.1l-4.2,5.4c-0.6,1.8-1.1,3.7-1.5,5.6l3,1.7
					C607.6,234.9,607.9,233.6,608.3,232.3z M622.1,204c0.5-0.7,1.2-1.3,1.8-1.9c0.7-1,1.5-2.1,2.2-3.1c0.7-0.2,1.5-0.4,2.2-0.6
					c-0.5,0.6-1,1.3-1.4,2c0.5-0.2,1-0.4,1.5-0.5c0.1,0,0.2-0.1,0.2-0.1c2.7-0.7,5.3-0.4,7.4,0.8c2.1,1.2,3.5,3.1,3.8,5.4
					c0,0.1,0,0.1,0,0.2c0.3,2.3-0.4,4.6-2,6.7c-1.6,2.1-4,3.5-6.4,4.2c-2.6,0.7-5.4,0.5-7.7-0.7s-3.6-3.3-3.9-5.6
					c-0.1-0.9-0.1-1.8,0.1-2.7c-0.1,0-0.3,0-0.4,0c0.2-0.3,0.4-0.6,0.6-0.9C620.8,206.1,621.4,205,622.1,204z M617.3,212.1
					c0.6-0.1,1.3-0.1,1.9-0.2c-1.1,1.7-2.1,3.5-3.1,5.3c-0.5,0.8-0.9,1.6-1.3,2.4c-0.5,0-0.9,0-1.4-0.1c-0.1,0-0.2,0-0.2,0
					C614.4,217,615.7,214.5,617.3,212.1z M611.4,223.2c0.1,0,0.1,0,0.2,0c0.5,0.1,0.9,0.1,1.4,0.1c-0.7,1.8-1.4,3.6-1.9,5.4
					c-0.6-0.1-1.2-0.1-1.7-0.1C610,226.8,610.6,225,611.4,223.2z"/>
			</g>
			<g>
				<path fill="#5AB0A3" d="M1392.8,376.8c-37.4-6.7-111.1-25.1-228.6-23.7c-117.5,1.5-168.5,15-261.2,33.5S759.6,427,697.5,471.9
					c-62.1,44.8-96,96.6-96,96.6c-8.3,1.8-10-3.9-11.5-13.4c-0.6,1.4-1.3,2.8-1.9,4.1c-9.6,22.1-15.7,45.7-15.7,45.7l4.1,4.5
					c0,0,8.2-3.7,25.9-19.1c17.7-15.4,56.6-31,87-42.9s65.2-22.8,133.7-40.9s125.9-30.2,194.4-34.9c68.5-4.7,66.1-11.4,157.7-2.2
					c91.6,9.2,103.2,12.3,107.4,23.4c4.2,11.2,3.5,28.7,3.5,28.7s29.3-2.6,66.8-21.2c34.4-17,68.4-46.1,85-70.7
					C1449,393.8,1426.9,382.8,1392.8,376.8z"/>
				<path fill="#7DF3D9" d="M1423.2,357.1c-23.6-18.2-82-28.6-168.2-33.7c-86.1-5.2-185.3,2-230.2,8.1
					c-44.9,6.1-132.2,22.2-177,33.7c-44.7,11.5-83.7,33.3-114,49.1c-30.3,15.8-70.1,51.2-95.8,77.1c-24.1,24.2-38.4,43.2-48,63.7
					c1.5,9.5,3.2,15.2,11.5,13.4c0,0,33.9-51.8,96-96.6s112.8-66.8,205.5-85.2s143.6-32,261.2-33.5c117.5-1.5,191.2,17,228.6,23.7
					c34.1,6.1,56.2,17,45.1,52.9c1.5-2.2,2.9-4.4,4.1-6.6C1456.4,397.4,1446.9,375.3,1423.2,357.1z"/>
			</g>
			<g>
				<path fill="none" d="M1043.7,261.3c-1-2.2-2.1-4.3-3.1-6.5c1.5-1,2.7-2.3,3.5-4c1.2-2.4,1.4-5.1,0.6-7.7c0-0.1,0-0.2-0.1-0.2
					c-0.9-2.6-2.8-4.7-5.2-6c-2.5-1.2-5.3-1.4-7.9-0.5c-0.1,0-0.1,0.1-0.2,0.1h-0.1c-1.1-2-2.1-3.9-3.2-5.9
					c-0.7,0.1-1.4,0.2-2.2,0.3c1.2,2.2,2.3,4.3,3.5,6.5c-1.6,1-2.9,2.4-3.7,4.1c-1.2,2.5-1.4,5.2-0.6,7.7c0.8,2.6,2.7,4.9,5.3,6.2
					c2.6,1.3,5.6,1.4,8.2,0.4c0,0,0.1,0,0.1-0.1c0.9,1.9,1.8,3.8,2.7,5.7C1042.1,261.5,1042.9,261.4,1043.7,261.3z"/>
				<path fill="#7A44B3" d="M1043,265.4c0.2,0,0.5-0.1,0.7-0.1c0.6-0.1,1.2-0.1,1.8-0.2c0.5,1.1,1,2.3,1.5,3.4
					c4.4-2.4,8.2-6.1,10.6-11c3-6.1,3.4-13,1.3-19.4c-1.3-4-3.6-7.5-6.6-10.3l5.7-11.6l-13.4-6.6l-5.7,11.6c-4-0.7-8.2-0.3-12.2,1
					c-1,0.3-2,0.8-2.9,1.2c0.7,1.2,1.4,2.4,2.1,3.6c-0.7,0.1-1.4,0.2-2.1,0.3c-0.6-1-1.2-2.1-1.7-3.1c-4.2,2.4-7.6,6-9.8,10.4
					c5.5,12.8,10.9,25.6,17.2,38c0.2,0.4,0.2,0.8,0.1,1.1l0,0l1.3-2.5c1.3,0.2,2.6,0.3,3.9,0.3c3.5,0,7-0.7,10.1-2.1
					C1044.3,268.1,1043.6,266.8,1043,265.4z M1038.4,256c-2.6,0.9-5.5,0.9-8.2-0.4c-2.6-1.3-4.5-3.6-5.3-6.2
					c-0.8-2.4-0.6-5.2,0.6-7.7c0.8-1.7,2.1-3.1,3.7-4.1c-1.1-2.2-2.3-4.3-3.5-6.5c0.7-0.1,1.4-0.2,2.2-0.3c1.1,1.9,2.2,3.9,3.2,5.9
					h0.1c0.1,0,0.2-0.1,0.2-0.1c2.6-0.9,5.4-0.7,7.9,0.5s4.3,3.3,5.2,6c0,0.1,0,0.2,0.1,0.2c0.8,2.5,0.6,5.3-0.6,7.7
					c-0.8,1.7-2.1,3-3.5,4c1.1,2.2,2.1,4.3,3.1,6.5c-0.8,0.1-1.7,0.2-2.5,0.3C1040.2,259.9,1039.3,258,1038.4,256
					C1038.4,255.9,1038.4,256,1038.4,256z"/>
			</g>
		</g>
		<g>
			<path fill="#5AB0A3" d="M695.8,145.3c0.6,3.9,1.5,4.8,7.6,3.2s33.4-14.5,50.4-19.9c0,0,0.8-2-7.6-3.5c-8.4-1.5-31.4,3.6-35.5,5.2
				s-7.7,5.2-9.6,7.7C699.2,140.4,695.5,143.7,695.8,145.3z"/>
			<path fill="#7DF3D9" d="M731.1,133.8c8.9-3.2,15.5-5.6,16.5-8.4c-0.4-0.1-0.9-0.2-1.4-0.3c-8.4-1.5-31.4,3.6-35.5,5.2
				c-4,1.6-7.5,5-9.5,7.5c-0.8,4.8-0.5,5.8,2.2,5.2C707.2,142.1,720.9,137.5,731.1,133.8z"/>
		</g>
	</g>
	<path fill="#5AB0A3" d="M1191.4,471.1c64.6,6.4,90.4,25.5,94.8,50.5L1307,504l-37.5-49.5l-75.5,12L1191.4,471.1z"/>
</g>
</svg>
