<?xml version="1.0" encoding="utf-8"?>
<!-- Generator: Adobe Illustrator 22.1.0, SVG Export Plug-In . SVG Version: 6.00 Build 0)  -->
<svg version="1.1" id="_x31_8_x5F_HeadGear_x5F_Snapback"
	 xmlns="http://www.w3.org/2000/svg" xmlns:xlink="http://www.w3.org/1999/xlink" x="0px" y="0px" viewBox="0 0 2000 2000"
	 enable-background="new 0 0 2000 2000" xml:space="preserve">

<g id="_x31_8_x5F_HeadGear_x5F_Snapback_x5F_Foreground">
	<path fill="#F6F8FA" d="M1440.8,412.1c0,2.3-0.1,4.7-0.5,7.3l0,0C1440.7,416.8,1440.8,414.4,1440.8,412.1z"/>
	<path fill="#F6F8FA" d="M557.6,635.8l18.9-26.4l-0.6-0.7C563.4,624.1,557.6,635.8,557.6,635.8z"/>
	<path fill="#F6F8FA" d="M1503.3,65.9L303.9,14.6l221.4,542c-2-6.4-4.4-13.2-7.2-20.6c-12.2-32-19.5-64.7-14-102.5
		c2.6-17.6,5.1-31.2,7.1-40.6c0,0,0,0,0,0c1-4.7,1.8-8.4,2.5-11.1c0,0,0,0,0.1,0c0.8-3.4,1.3-5.1,1.3-5.1s-0.6-4.4-0.8-10.8
		c0,0-0.1,0-0.1,0c-0.1-3.8,0-8.3,0.4-13l0.1,0.3c0.7-7.3,2.3-15,5.6-21.4c6.8-12.6,9.6-21.7,13.8-31.1c0-0.3,0-0.5,0-0.8
		c1.5-3.2,3.2-6.5,5.2-10c4.5-7.8,11.1-17.5,18.9-25.6c0.1,0.2,0.1,0.3,0.2,0.5c0.1-0.1,0.2-0.2,0.2-0.3c6-6.3,12.7-11.6,19.7-14.3
		c0,0,1.2-4.1,4.4-10.7c0.1-0.4,0.1-0.8,0.2-1.1c4.5-8.9,12.4-22,25.7-35.9c2.2-2.3,4.4-4.5,6.8-6.6c-0.1,0.1-0.2,0.3-0.3,0.4
		c0.8-0.8,1.7-1.5,2.5-2.3c-0.1,0.1-0.2,0.1-0.4,0.2c2.1-1.8,4.3-3.7,6.5-5.4c0.3-0.2,0.6-0.5,0.9-0.7c-0.1,0.1-0.2,0.3-0.4,0.4
		c0.4-0.3,0.7-0.6,1.1-0.8c0.1,0,0.3-0.1,0.4-0.1c3.6-2.7,7.3-5.4,11.2-7.9c0.8-0.7,1.7-1.3,2.5-2c3.9-2.4,7.8-4.7,11.8-7
		c-0.3,0.3-0.5,0.5-0.8,0.8c1.8-1,3.7-2.1,5.5-3.1c0.3-0.3,0.6-0.5,0.9-0.8c13-7,26.7-13.1,40.4-19c-0.7-0.6-1-1.7-1.3-3.3
		c-0.3-1.6,3.4-4.9,5.3-7.3c0,0,0.1-0.1,0.1-0.1c0,0,0-0.1,0-0.1c0.9-1.1,2-2.3,3.4-3.5c1.8-1.6,3.9-3.1,6.1-4c0,0,0,0,0,0
		c3.6-1.4,21.6-5.5,31.7-5.5c1.4,0,2.7,0.1,3.8,0.3c7.2,1.3,7.6,2.9,7.6,3.4c27.8-8.8,56.3-17.7,71.6-26.6
		c9.2-5.3,18.1-8.5,25.6-10.3c0.1,0,0.2,0,0.2-0.1c0.7-0.2,1.4-0.3,2.1-0.5c0.3-0.1,0.7-0.1,1-0.2c0.7-0.1,1.3-0.3,2-0.4l0,0h0
		c0,0,0,0,0,0c0.2,0,0.3,0.1,0.5,0.1c1-0.2,2-0.4,2.9-0.5c-0.1,0-0.3-0.1-0.4-0.1c6.7-1,11.5-1.1,13.5-1c0.1,0.1,0.2,0.1,0.3,0.2
		c0.6,0,1,0,1,0l6.8,2.7c0,0,2.6,0.3,7.1,0.8c-0.2-0.1-0.3-0.2-0.5-0.2c8.8,1.1,25,2.9,42.4,4.4c25.8,2.3,59.3,12.8,105.2,24.4
		c45.9,11.6,101.7,36.5,119.5,47.8c16,10.2,26.2,16.4,32.9,21.8c0.1,0.1,0.3,0.2,0.4,0.3c0.2,0.1,0.3,0.3,0.5,0.4
		c0.4,0.4,0.9,0.7,1.2,1.1c0.2,0.2,0.4,0.4,0.6,0.6c6.1,5.9,3.7,15.1,11.7,33.9c8.2,19.2,10.1,23.7,21.5,55.4
		c6.8,19.1,8.9,32.3,9.6,39.8c7.4,0.3,14.8,0.6,22,1.1c86.2,5.1,144.6,15.5,168.2,33.7c20.8,16,30.7,35,23,56.9l41.8-38L1503.3,65.9
		z M859.4,90C859.5,90,859.5,90,859.4,90C859.5,90,859.5,90,859.4,90C859.3,90,859.4,89.9,859.4,90z"/>
	<path fill="#47339B" d="M1053,282.3c-0.9,0.1-1.7,0.1-2.5,0.2c1.7,4.2,3.3,8.5,4.9,12.7c0.8-0.1,1.6-0.2,2.4-0.3
		C1056.3,290.7,1054.7,286.5,1053,282.3z"/>
	<path fill="#47339B" d="M1012.5,204.7c-0.6,0.1-1.3,0.1-2,0.1c2,3.1,3.8,6.3,5.7,9.4c0.7-0.1,1.3-0.2,1.9-0.4
		c-0.2-0.3-0.3-0.5-0.5-0.8C1015.9,210.2,1014.2,207.4,1012.5,204.7z"/>
	<path fill="#47339B" d="M1001.9,191.4c2.1,3.2,4.2,6.5,6.3,9.7c0.2,0,0.5,0,0.7,0c0.4-0.1,0.9-0.1,1.3-0.2c-2-3.2-4.1-6.3-6.2-9.4
		C1003.3,191.5,1002.6,191.4,1001.9,191.4z"/>
	<path fill="#47339B" d="M864.7,91.5c-1.7-0.6-3.3-1-5-1.5c-0.9,0.1-1.9,0.3-2.9,0.5c1.8,0.5,3.7,0.9,5.5,1.5
		C863.1,91.9,863.9,91.7,864.7,91.5z"/>
	<path fill="#47339B" d="M1056.7,299c1.3,3.9,2.5,7.7,3.7,11.5c0.8,0,1.7,0,2.5,0c-1.2-3.9-2.4-7.9-3.8-11.8
		C1058.3,298.8,1057.5,298.9,1056.7,299z"/>
	<path fill="#47339B" d="M938,129.5c11.3,11.5,22.3,23.7,32.4,36.3c-1,0.9-1.9,1.9-2.8,2.9c-1.6,1.9-2.9,4.1-3.8,6.3
		c-0.5,0-1.1,0-1.7,0c0.4,0.5,0.7,1.1,1.1,1.7c0,0.1,0,0.2-0.1,0.2c2.1,3.3,4.2,6.7,6.2,10.1c0.6,0,1.2,0,1.8,0
		c-2.3-4-4.8-8-7.3-11.9c0.9-2.2,2.2-4.3,3.8-6.3c0.9-1.1,1.8-2,2.7-2.9c1.3,1.7,2.6,3.3,3.9,5c1.8,2.3,3.5,4.7,5.2,7.1
		c-0.1,0.1-0.2,0.2-0.3,0.3c-1.7,2.2-2.5,4.8-2.3,7.4c0.2,2.7,1.4,5.3,3.7,7.2c1.9,1.7,4.4,2.4,6.8,2.4c-2.4,0-4.7-0.7-6.7-2.4
		c-2.2-1.8-3.5-4.5-3.7-7.2c-0.2-2.6,0.5-5.3,2.3-7.4c0.1-0.1,0.2-0.2,0.3-0.3c3.8,5.5,7.3,11.1,10.6,16.9c0,0-0.1,0-0.1,0
		c2.5,4.4,4.9,8.9,7.1,13.3c0,0,0.1,0,0.1-0.1c1.7,3.4,3.3,6.9,4.9,10.4c7,15.5,13.1,31.4,20.3,46.8c0,0.1,0.1,0.2,0.1,0.3
		c9.2,20.4,14.7,42,19.9,63.7c1.5-0.2,3.1-0.3,4.6-0.5c-2.4-10-5.5-19.8-8.3-29.6c-2.5-8.8-5.5-17.3-9.1-25.6
		c0.1-0.3,0.1-0.7-0.1-1.1c0,0,0-0.1,0-0.1c-6.3-12.4-11.7-25.1-17.2-37.9c0,0,0,0,0,0c-9.4-21.8-19.1-43.3-33.5-62.5
		c-11-14.5-23.2-28.2-35.6-41.4c-6.3-6.7-12.8-13.1-20.3-18.4c-7.8-5.5-16.4-9.8-24.8-14.3c-3.3-1.8-6.8-3.6-10.1-5.4
		c-4.4-0.5-7.1-0.8-7.1-0.8l-6.8-2.7c0,0-0.3,0-1,0c6,2.8,11.9,5.6,17.7,8.6C908,106.7,924.3,115.5,938,129.5z"/>
	<path fill="#47339B" d="M991.5,176.8c2.6,3.5,5.2,7.1,7.7,10.7c0.7,0.1,1.4,0.1,2.1,0.1c-2.4-3.5-4.9-7-7.5-10.5
		C993,177,992.3,176.9,991.5,176.8z"/>
	<path fill="#47339B" d="M913.6,102.5c-1-0.6-2-1.2-3-1.8c-0.8,0-1.5,0.1-2.2,0.1c1.1,0.6,2.1,1.2,3.2,1.8c1.8,1.1,3.6,2.2,5.4,3.3
		c2.3,1.4,4.5,2.8,6.7,4.3c0.5-0.1,1.1-0.3,1.6-0.3c-2-1.4-4.1-2.8-6.2-4.1C917.3,104.7,915.4,103.6,913.6,102.5z"/>
	<path fill="#47339B" d="M926.9,112.4c2.5,1.7,4.9,3.5,7.3,5.3c0.4-0.2,0.9-0.4,1.4-0.5c-2.3-1.8-4.6-3.5-7-5.1
		C928,112.2,927.5,112.3,926.9,112.4z"/>
	<path fill="#47339B" d="M959.3,139.6c2.4,2.3,4.8,4.8,7.1,7.2c0.8,0,1.5,0.1,2.2,0.1c-2.3-2.5-4.7-4.9-7.1-7.3
		C960.7,139.6,960,139.6,959.3,139.6z"/>
	<path fill="#47339B" d="M981.2,163.6c2.5,3.1,5,6.2,7.4,9.4c0.7,0,1.4,0.1,2.2,0.2c-2.4-3.2-4.9-6.3-7.4-9.4
		C982.7,163.7,981.9,163.7,981.2,163.6z"/>
	<path fill="#47339B" d="M970.5,151.2c2.5,2.8,5,5.7,7.5,8.6c0.7,0,1.4,0,2.2,0c-2.4-2.8-4.8-5.6-7.3-8.3
		C972.1,151.4,971.3,151.3,970.5,151.2z"/>
	<path fill="#47339B" d="M947.5,128.5c2.9,2.6,5.7,5.2,8.5,7.8c0.7,0,1.4,0,2-0.1c-2.9-2.7-5.8-5.4-8.8-8
		C948.7,128.3,948.1,128.4,947.5,128.5z"/>
	<path fill="#47339B" d="M953.8,160.4c-2.8-3.9-5.7-7.7-8.8-11.4c-0.7,0-1.3-0.1-2-0.1c3.1,3.8,6.2,7.7,9.1,11.7
		C952.7,160.5,953.2,160.5,953.8,160.4z"/>
	<path fill="#47339B" d="M961.9,172.1c-2-3-4-6-6.1-8.9c-0.6,0-1.2,0-1.8,0c2.1,3,4.2,6,6.2,9C960.7,172.2,961.3,172.1,961.9,172.1z
		"/>
	<path fill="#47339B" d="M920.3,125.2c2,1.8,4,3.7,6,5.6c0.5-0.2,1-0.3,1.6-0.5c-2-1.9-4-3.8-6.1-5.6
		C921.3,124.9,920.8,125,920.3,125.2z"/>
	<path fill="#47339B" d="M606.9,239.5c0.6,0.1,1.2,0.3,1.8,0.4c0.1-0.9,0.2-1.8,0.4-2.7l-1.7-0.9C607.2,237.3,607,238.4,606.9,239.5
		z"/>
	<path fill="#47339B" d="M994,232.1c-1.6-3.7-3.3-7.4-5-11.1c-0.6,0.1-1.2,0.1-1.8,0.2c1.7,3.7,3.4,7.5,5,11.2
		C992.8,232.3,993.4,232.2,994,232.1z"/>
	<path fill="#47339B" d="M934.9,137.5c-1.4-1.5-2.8-3-4.3-4.5c-0.5,0.2-1,0.3-1.5,0.5c1.4,1.4,2.7,2.9,4.1,4.3
		C933.8,137.7,934.3,137.6,934.9,137.5z"/>
	<path fill="#47339B" d="M942.7,146.2c-1.8-2-3.6-4.1-5.4-6.1c-0.6,0-1.2,0.1-1.8,0.1c1.8,2,3.6,4.1,5.4,6.2
		C941.5,146.3,942.1,146.3,942.7,146.2z"/>
	<path fill="#47339B" d="M624,202.1c-1.2,1.7-2.4,3.5-3.6,5.2c-0.1,0.2-0.1,0.5-0.2,0.7c0.5-0.1,1-0.1,1.5-0.2
		c1.7-2.6,3.4-5.1,5.2-7.5c0,0,0,0,0,0c0,0,0,0,0,0c-0.2,0.1-0.5,0.2-0.7,0.3C625.4,201.1,624.7,201.6,624,202.1z"/>
	<path fill="#47339B" d="M640.3,181.7c1-0.3,2-0.7,3-1l2.9-3.7l0.1,0l0,0l0.5,0.2c3-3,6-6,9.1-8.8c-1.9,1-3.7,2-5.5,3.1
		C646.9,174.7,643.5,178.2,640.3,181.7z"/>
	<path fill="#47339B" d="M638.6,186.1c-0.5,0.1-0.9,0.3-1.4,0.5c0.3,0,0.6,0.1,0.8,0.1C638.2,186.5,638.4,186.3,638.6,186.1z"/>
	<path fill="#47339B" d="M1005.1,266.1c0.6-0.1,1.3-0.2,1.9-0.3c-1.6-4.6-3.2-9.2-4.9-13.7c-0.7,0-1.3,0.1-2,0.1
		C1001.9,256.8,1003.5,261.4,1005.1,266.1z"/>
	<path fill="#47339B" d="M998.6,248.2c0.2,0.5,0.4,0.9,0.5,1.3c0.6-0.1,1.3-0.1,1.9-0.2c-1.8-4.8-3.7-9.5-5.7-14.2
		c-0.7,0.1-1.3,0.2-1.9,0.3C995.2,239.7,997,244,998.6,248.2z"/>
	<path fill="#47339B" d="M1009.9,281.5c0.7-0.1,1.3-0.1,2-0.2c-1.2-3.9-2.4-7.8-3.7-11.7c-0.6,0-1.3,0.1-1.9,0.2
		C1007.6,273.7,1008.8,277.6,1009.9,281.5z"/>
	<path fill="#47339B" d="M906.7,98.5c-2.3-1.2-4.5-2.4-6.8-3.5c-0.5,0-1,0.1-1.5,0.1c-0.2,0-0.4,0.1-0.6,0.1c2.3,1.2,4.7,2.4,7,3.6
		C905.4,98.7,906.1,98.7,906.7,98.5z"/>
	<path fill="#47339B" d="M608.2,327.7c-0.9-4.3-1.7-8.7-2.5-13l-2.4,1.3l-0.2-0.3c0,0.1,0,0.1,0,0.2l0,0c0.7,3.4,1.3,6.8,2,10.1
		c1.1,5.8,2.3,11.6,3.5,17.4l2.9-0.2C610.3,338.1,609.2,332.9,608.2,327.7z"/>
	<path fill="#47339B" d="M614.2,355.7c-0.4-1.7-0.8-3.4-1.2-5.1l0.3,4.7C613.6,355.3,613.9,355.5,614.2,355.7z"/>
	<path fill="#47339B" d="M600.2,267c0.8-9,1.1-18.2,2.8-27.1c0.3-1.8,0.7-3.6,1.2-5.4l-1.8-1l3.1-4c0.8-2.8,1.7-5.5,2.8-8.2
		c-0.7-1.1-1.2-2.2-1.6-3.3c-5.3,13.4-7.6,27.3-8.2,41.6c-0.6,5.4-0.8,10.8-0.7,16.2c0.9,0.5,1.9,1.1,2.7,1.8
		C600.3,274.1,600.2,270.5,600.2,267z"/>
	<path fill="#47339B" d="M604.3,214.1c-0.9,1.6-1.7,3.2-2.4,4.8c0.5,0,1,0,1.5,0c0.8-1.6,1.5-3.1,2.3-4.7c0-0.1,0-0.3-0.1-0.4
		C605.2,213.9,604.8,214,604.3,214.1z"/>
	<path fill="#47339B" d="M1196.5,211.3L1196.5,211.3c1,4.4,2.5,9.5,5.2,15.6c8.3,19.2,10.1,23.7,21.5,55.4c6.9,19.3,9.1,32.6,9.8,40
		c0,0,0,0,0,0c-0.7-7.5-2.8-20.7-9.6-39.8c-11.4-31.7-13.3-36.2-21.5-55.4c-8-18.8-5.6-28-11.7-33.9c0,0,0,0,0,0
		C1194.1,197.1,1194.3,202.5,1196.5,211.3z"/>
	<path fill="#47339B" d="M632.4,413.9c-1.8-5.3-3.1-11.1-5.4-16.4c0-0.2,0-0.4-0.1-0.7c-1.2-2.9-2.3-5.9-3.3-8.9
		c-0.4,1.5-0.8,2.9-1.4,4.3c0,0,0,0.1,0,0.1c0,0.1,0,0.1-0.1,0.1c0.7,1.8,1.3,3.6,2.1,5.4c1.3,6.5,4,13,6,19.2
		c2.6,7.8,5.3,15.6,8.4,23.2c4.8,11.7,10.6,23,17.9,33.2c0.8-0.8,1.6-1.5,2.5-2.3c-7.9-10.9-13.9-22.8-18.8-35.3
		C637.4,428.6,634.8,421.2,632.4,413.9z"/>
	<path fill="#47339B" d="M608.7,372c0.7,2.4,1.5,4.7,2.3,7c0.5-0.1,0.9-0.2,1.4-0.2c-0.8-2.3-1.6-4.7-2.3-7.1
		C609.7,371.8,609.2,371.9,608.7,372z"/>
	<path fill="#47339B" d="M575.7,517.5c-2-0.3-4,0.4-5.7,1.9l-0.1,0.1c-1.6,1.6-2.7,3.7-3.1,6.1c-0.3,2.4,0,4.8,1.1,6.7
		c0,0.1,0.1,0.1,0.1,0.2c1.1,1.9,2.8,3.2,4.8,3.5c2.2,0.4,4.3-0.5,5.9-2c1.5-1.5,2.6-3.6,3-6.1c0.4-2.4-0.1-4.8-1.1-6.7
		C579.6,519.2,577.8,517.8,575.7,517.5z"/>
	<path fill="#47339B" d="M661.4,465.4c0.4,0.8,0.9,1.5,1.4,2.3c0.6-0.5,1.2-1.1,1.8-1.6c-0.4-0.7-0.8-1.3-1.2-2
		C662.7,464.6,662,465,661.4,465.4z"/>
	<path fill="#47339B" d="M918.7,123.8c0.1,0,0.1,0,0.2-0.1l-0.4-0.1C918.6,123.7,918.6,123.7,918.7,123.8z"/>
	<path fill="#47339B" d="M642,460.6c0.5-0.3,1.1-0.7,1.6-1.2c-2.2-4.1-4.4-8.3-6.4-12.5c-0.1,0-0.1,0.1-0.2,0.1
		c-0.3,0.1-0.6,0.3-1,0.4l-0.1,1.1C637.8,452.6,639.8,456.7,642,460.6z"/>
	<path fill="#47339B" d="M620.4,406.7c0.5-0.1,1-0.1,1.5-0.2c-1-2.9-2-6.1-2.9-9c-0.3,0.4-0.7,0.8-1,1.1
		C618.8,401.3,619.6,404,620.4,406.7z"/>
	<path fill="#47339B" d="M594.5,273.3c-0.6-0.5-1.3-1.1-2-1.6c0,0.6,0.1,1.2,0.1,1.8c0.7,0.2,1.3,0.4,1.9,0.7
		C594.5,273.9,594.5,273.6,594.5,273.3z"/>
	<path fill="#47339B" d="M650.8,472.4c-0.6,0.3-1.2,0.7-1.8,1.1c0.5,0.8,1.1,1.7,1.6,2.6c0.4,0.6,0.8,1.2,1.2,1.9
		c0.5-0.5,1-1,1.5-1.5c-0.3-0.5-0.6-0.9-0.9-1.4C651.9,474.2,651.3,473.3,650.8,472.4z"/>
	<path fill="#47339B" d="M614.5,385.2c-0.3-0.9-0.6-1.7-0.9-2.6c-0.4,0-0.9,0-1.4,0.1c0.5,1.2,0.9,2.4,1.4,3.6
		C613.9,386,614.2,385.6,614.5,385.2z"/>
	<path fill="#47339B" d="M1035.4,244.6c-1.4-2.7-2.8-5.3-4.2-7.9c0,0,0,0,0,0h-0.1c-1-2-2.1-4-3.2-5.9c-0.8,0.1-1.5,0.2-2.1,0.3
		c2.6,4.7,5,9.2,7.3,13.9C1033.8,244.9,1034.6,244.7,1035.4,244.6z"/>
	<path fill="#47339B" d="M1023.8,227.3c0.7-0.1,1.4-0.2,2.1-0.3c-1.9-3.3-3.9-6.6-5.8-9.9c-0.6,0.2-1.3,0.3-1.9,0.5
		c1.3,2.3,2.6,4.5,3.8,6.6c0,0,0.1,0,0.1,0C1022.6,225.2,1023.2,226.3,1023.8,227.3z"/>
	<path fill="#47339B" d="M1045.5,265.1c-0.6,0.1-1.2,0.1-1.8,0.2c-0.2,0-0.5,0.1-0.7,0.1c0.5,1.1,1,2.2,1.5,3.2
		c0.1,0.3,0.3,0.5,0.4,0.8c0,0,0,0,0,0c1.4,3,2.7,6.1,4,9.2c0.8,0,1.6-0.1,2.5-0.1c-1.4-3.4-2.9-6.7-4.4-10c0,0,0,0,0,0
		C1046.5,267.4,1046,266.2,1045.5,265.1z"/>
	<path fill="#47339B" d="M1061.5,314.6c1.2,4.1,2.2,8.3,3.2,12.6c0.8-0.1,1.7-0.1,2.5-0.2c-1-4.1-2-8.3-3.2-12.4
		C1063.2,314.6,1062.3,314.6,1061.5,314.6z"/>
	<path fill="#47339B" d="M972.8,189.9c-0.6,0-1.2-0.1-1.8-0.1c2.6,4.4,5,8.8,7.3,13.3c0.5,0,1.1-0.1,1.7-0.1
		c-1.5-2.9-3.1-5.8-4.7-8.7C974.5,192.8,973.7,191.4,972.8,189.9z"/>
	<path fill="#47339B" d="M1034.8,248.4c2.2,4.4,4.3,8.8,6.4,13.1c0.7-0.1,1.5-0.2,2.3-0.3c-1-2.1-1.9-4.1-3-6.2c0,0,0.1-0.1,0.1-0.1
		c-1.1-2.3-2.3-4.6-3.4-6.9C1036.4,248.2,1035.6,248.3,1034.8,248.4z"/>
	<path fill="#47339B" d="M1020.8,316.1c-0.2,0-0.4,0-0.6,0c-0.5,0-1.1,0.1-1.6,0.1c0.1,0.7,0.2,1.3,0.3,1.9l2.7,2.1
		C1021.4,318.9,1021.1,317.5,1020.8,316.1z"/>
	<path fill="#47339B" d="M1021.3,332c0.6-0.1,1.3-0.2,1.9-0.3c-0.1-0.6-0.1-1.2-0.2-1.9L1021.3,332z"/>
	<path fill="#47339B" d="M1012.9,284.7c-0.7,0-1.3,0.1-2,0.1c0.6,2,1.2,4.1,1.7,6.1c1.3,1.5,2.4,3.2,3.3,4.9
		C1015,292.1,1014,288.4,1012.9,284.7z"/>
	<path fill="#47339B" d="M1019.3,312.1c0.2,0,0.4,0,0.6,0c0-0.1,0-0.1,0-0.2c-0.4-1.6-0.7-3.2-1.1-4.7c0,1.7-0.1,3.3-0.4,5
		C1018.7,312.1,1019,312.1,1019.3,312.1z"/>
	<path fill="#47339B" d="M989.8,194.9c-0.4,0.1-0.9,0.2-1.3,0.2C989,195.2,989.4,195.1,989.8,194.9z"/>
	<path fill="#47339B" d="M965.9,198.9l-8.1,9.8l0,0L965.9,198.9C965.9,198.9,965.9,198.9,965.9,198.9z"/>
	<path fill="#47339B" d="M981.5,205.9c-0.6,0.1-1.2,0.1-1.8,0.1c0.6,1.2,1.1,2.3,1.7,3.4c0.1,0,0.1,0,0.2,0.1c1.5,3,3,6,4.4,9
		c0.5-0.1,1.1-0.1,1.6-0.2c0.1,0,0.1,0,0.2,0c-1.3-2.8-2.7-5.5-4-8.3c-0.1,0-0.1,0-0.2,0C982.9,208.6,982.2,207.3,981.5,205.9z"/>
	<path fill="#47339B" d="M936.7,119.7c2.5,1.9,5,3.9,7.4,6c0.6-0.2,1.1-0.3,1.6-0.4c-2.4-2-4.9-4-7.4-6
		C937.8,119.4,937.2,119.6,936.7,119.7z"/>
	<path fill="#47339B" d="M607.5,254.8c0.2-3.6,0.3-7.2,0.7-10.7c-0.6-0.1-1.2-0.3-1.8-0.4c-0.4,3.9-0.6,7.8-0.7,11.8
		c0.6,0,1.2,0,1.8,0C607.5,255.3,607.5,255,607.5,254.8z"/>
	<path fill="#47339B" d="M611.3,321C611.3,321,611.3,321,611.3,321c0-0.1,0-0.1,0-0.2C611.3,320.9,611.3,321,611.3,321z"/>
	<path fill="#47339B" d="M548.2,567.4c-0.2-0.1-0.3-0.3-0.5-0.4c-2-1.6-4.2-2.9-6.1-3.4s-3-0.2-3.4,0.7c-0.4,0.9,0,2.3,1.1,4
		c1.1,1.7,2.9,3.5,4.7,5.1c2.1,1.5,4.2,2.8,6.1,3.3s3,0.2,3.4-0.7s0-2.3-1.1-4C551.4,570.4,549.9,568.8,548.2,567.4z"/>
	<path fill="#47339B" d="M607.4,267c0-2.6,0-5.3,0-7.9c-0.6-0.1-1.2-0.2-1.8-0.3c-0.1,2.5,0,5,0,7.5
		C606.2,266.6,606.8,266.8,607.4,267z"/>
	<path fill="#47339B" d="M572.4,604.9c0,0,6.1-23.6,15.7-45.7c0.6-1.3,1.3-2.7,1.9-4.1c0.8,5.3,1.8,9.5,3.9,11.8
		c-2.1-2.3-3-6.4-3.9-11.8c2.7-5.8,5.9-11.6,9.5-17.3c-2.4-1.9-5-4.2-7.3-6.5c-2,9.3-8.4,16.4-15.9,18l-1.1,6.9
		c-3.3-10.1-8.8-26.8-14.7-43.5c1-1.4,2.1-2.7,3.3-3.8c2.6-2.4,5.4-3.9,8.4-4.5l1.8-11.6l5.3,0.8c-1.2-5.5-2.7-11.6-5-18.1
		c-7.5-21.5-22-57.7-26.5-79.2s-4.3-28-4.3-28s-3.8-11.7-6-21.7c-1.4-6.6-2.6-19.8-3.5-45.9c-4.2,9.4-7.1,18.5-13.8,31.1
		c-3.4,6.4-5,14.1-5.6,21.4l0.1,0.8c2.2-0.1,4.3,0.7,6.3,2.2c3.2,2.4,5.6,6.6,6.7,11.6s0.8,10.4-0.9,15.1c-1.1,2.9-2.5,5.4-4.3,7.2
		l2.2,9.7l-7.6,3.5l-2.1-9.6h-0.1c-1.3,0-2.6-0.3-3.8-0.8c-2,9.4-4.6,23-7.1,40.6c-5.5,37.8,1.8,70.5,14,102.5
		c2.8,7.4,5.2,14.2,7.2,20.6c6.8,21.1,10,37.2,14.3,52.9c5.5,20.5,18.1,26.3,18.1,26.3s5.8-11.7,18.3-27.1L572.4,604.9z M538.2,436
		c8,5.3,14.8,15.2,17.1,23.9l9,6.1l0.2,10.5l-9-6.1c-0.8,2.2-2.3,3.6-4.3,4.3c-1,0.3-2.2,0.4-3.4,0.2c-1.6-3.3-3.6-7.6-5.9-12.7
		c0.6,0.2,1.2,0.2,1.7,0h0.1c1.3-0.5,2-1.8,2-3.7c0-2.1-0.9-4.5-2.3-6.8c-0.3-0.3-0.5-0.7-0.8-1.1c-1.3-1.6-2.7-3.1-4.3-4.2
		s-3.1-1.6-4.3-1.5c-1.7-4-3.6-8.3-5.4-12.6C531.3,432.4,534.6,433.6,538.2,436z M518.2,510.9l-1.7-10c-1.7-0.7-3.3-2.1-4.8-4.2
		c-2.5-3.4-4.3-8.2-5.2-13.4c-0.9-5.3-0.8-10.4,0.4-14.4c0.7-2.5,1.8-4.4,3.1-5.6l-1.7-10l5.6-1l1.7,10c4.3,1.8,8.4,8.8,9.9,17.6
		c1.5,8.8,0,16.7-3.4,20l1.7,10L518.2,510.9z M556.4,592.4l-5.3-8.2c-3.6-1.8-7.4-4.3-10.9-7.2c-4.2-3.4-7.9-7.3-10.4-11.2
		c-4.7-7.2-3.9-11.9,1.3-12.1l-5.3-8.2l9.5,2.6l5.3,8.1c7.8,3.8,16.5,11.2,21.2,18.4c4.7,7.2,3.9,11.9-1.3,12.1l5.4,8.3L556.4,592.4
		z"/>
	<path fill="#47339B" d="M629.7,186.7c1.5-1.6,3-3.1,4.5-4.7c0.8-0.8,1.7-1.6,2.6-2.3c-3.8,2.5-7.6,5.1-11.2,7.9
		c0.4-0.1,0.8-0.3,1.2-0.4C627.8,187,628.7,186.8,629.7,186.7z"/>
	<path fill="#47339B" d="M594.3,240.8c-0.8,3.5-1.4,7-1.7,10.7c0.6,0.3,1.3,0.6,1.9,0.9c0.3-3.8,0.8-7.5,1.5-11.2
		C595.4,241,594.9,240.9,594.3,240.8z"/>
	<path fill="#47339B" d="M613.9,325c-0.1-0.1-0.2-0.2-0.2-0.3c-0.6,0.1-1.1,0.1-1.7,0.2c0.6,3.4,1.4,6.9,2.2,10.4
		c0.6,0,1.3-0.1,1.9-0.1c-0.8-3.3-1.4-6.6-2.1-10C614,325.2,613.9,325.1,613.9,325C613.9,325.1,613.9,325.1,613.9,325z"/>
	<path fill="#47339B" d="M594.9,237.8c0.6,0,1.1,0.1,1.7,0.1c0.5-2.2,1.1-4.3,1.8-6.5c-0.5-0.1-1-0.1-1.5-0.2
		C596.2,233.4,595.6,235.6,594.9,237.8z"/>
	<path fill="#47339B" d="M594.3,254.9c-0.6-0.4-1.3-0.7-1.9-1.1c-0.1,1.9-0.2,3.9-0.3,5.7c0.7,0.3,1.4,0.5,2,0.8
		C594.1,258.5,594.2,256.7,594.3,254.9z"/>
	<path fill="#47339B" d="M619.6,357.3c0.7,2.6,1.5,5.2,2.2,7.9c0.7-0.2,1.3-0.4,1.9-0.6c-0.3-1-0.6-2-0.9-3
		c-0.5-1.6-0.9-3.3-1.4-4.9C620.8,357,620.2,357.2,619.6,357.3z"/>
	<path fill="#47339B" d="M629.5,383.4c-0.6,0.2-1.3,0.3-1.9,0.4c1.5,4.4,3,8.9,4.6,13.3c0.6-0.1,1.2-0.3,1.9-0.5
		C632.5,392.2,631,387.8,629.5,383.4z"/>
	<path fill="#47339B" d="M635.5,400.4c-0.6,0.1-1.3,0.3-1.9,0.5c1.4,4,2.9,8,4.5,12c0.6-0.3,1.2-0.5,1.8-0.7
		C638.4,408.3,636.9,404.4,635.5,400.4z"/>
	<path fill="#47339B" d="M600.4,222.2c-0.9,2-1.7,4.1-2.4,6.1c0.6-0.1,1.1-0.1,1.6-0.1c0.2-0.6,0.4-1.3,0.7-2c0.5-1.4,1-2.7,1.6-4
		c-0.4,0-0.7,0-1,0C600.8,222.2,600.6,222.2,600.4,222.2z"/>
	<path fill="#47339B" d="M624.8,368.5c-0.6,0.2-1.1,0.4-1.7,0.6c0.2,0.8,0.4,1.6,0.6,2.5c0.9,2.8,1.7,5.7,2.7,8.5
		c0.4,0,0.8,0,1.1-0.1c0.3,0,0.5-0.1,0.8-0.1C627.1,376.1,625.9,372.3,624.8,368.5z"/>
	<path fill="#47339B" d="M606.5,284.2c1,1.6,1.7,3.2,2.2,4.8c-0.2-1.5-0.3-3-0.4-4.6c-0.6-0.1-1.2-0.2-1.8-0.4
		C606.5,284.1,606.5,284.1,606.5,284.2z"/>
	<path fill="#47339B" d="M641.4,415.8c-0.7,0.2-1.3,0.5-1.9,0.7c0.8,1.9,1.5,3.9,2.3,5.8c0.7,1.9,1.5,3.8,2.3,5.8
		c0.7-0.2,1.4-0.3,2.1-0.4C644.5,423.7,643,419.8,641.4,415.8z"/>
	<path fill="#47339B" d="M617.9,343.2l-2.1-0.8c0,0,0,0,0,0l0,0c0.9,3.6,1.8,7.3,2.7,10.9c0.6-0.1,1.2-0.3,1.8-0.5
		c-0.8-3.1-1.6-6.3-2.4-9.5l0,0C617.9,343.3,617.9,343.3,617.9,343.2z"/>
	<path fill="#47339B" d="M653.4,450.1c1.9,4,3.9,8,6.1,11.9c0.7-0.4,1.3-0.8,1.9-1.3c-2.2-3.8-4.1-7.7-6-11.6
		C654.7,449.4,654.1,449.8,653.4,450.1z"/>
	<path fill="#47339B" d="M647.7,431.5c-0.7,0.2-1.4,0.3-2.1,0.4c2,5,4.1,9.9,6.3,14.7c0.6-0.4,1.3-0.7,1.9-1.1
		C651.7,440.8,649.7,436.2,647.7,431.5z"/>
	<path fill="#47339B" d="M609.9,301.6c0-0.1,0-0.1,0.1-0.2c-0.2-1.2-0.3-2.4-0.5-3.6c-0.2,0.1-0.5,0.2-0.8,0.3
		c-0.2,0.6-0.4,1.3-0.7,1.9c0.3,2.2,0.6,4.3,0.8,6.5c0.2-1.6,0.6-3.1,1.1-4.7C609.9,301.7,609.9,301.6,609.9,301.6z"/>
	<path fill="#47339B" d="M592.2,261.6c0,2.5,0,5,0.2,7.5c0.7,0.4,1.4,0.9,2,1.4c-0.1-2.6-0.2-5.1-0.2-7.7
		C593.5,262.4,592.9,262,592.2,261.6z"/>
	<path fill="#47339B" d="M582.2,312.6c0-1.9-0.3-4.5-0.7-7.6c0,0,0,0,0,0c0,0,0,0,0-0.1c-2.9-1.6-5.5-3.8-7.6-6.4
		c-3.3-4.3-4.8-9.1-4.2-13.7c0.3-2.8,1.5-5.3,3.3-7.3l-6.4-8.1l9.2-4.9l3.3,4.2c0.4-7.7,1.4-17.9,3.5-29.1
		c-3.2,6.6-4.4,10.7-4.4,10.7c-7,2.7-13.7,8-19.7,14.3c-0.1,0.1-0.2,0.2-0.2,0.3c4.9,14.8,12.1,34.9,17.2,44.4
		C584.2,325.2,582.4,319.6,582.2,312.6z"/>
	<path fill="#47339B" d="M517.7,475.6c-0.9-1.4-2.1-2.2-3.2-2c-1.1,0.2-1.9,1.2-2.4,2.8c0,0.1,0,0.1,0,0.2c-0.4,1.6-0.5,3.6-0.1,5.7
		c0.3,2,1,3.9,2,5.3l0.1,0.1c1,1.4,2.2,2.1,3.2,1.9c1.1-0.2,2-1.3,2.4-3c0.4-1.6,0.5-3.6,0-5.7C519.4,478.8,518.6,476.9,517.7,475.6
		z"/>
	<path fill="#47339B" d="M913.6,118c-0.8-0.6-1.6-1.2-2.4-1.9c-0.5,0.1-1,0.3-1.5,0.4c1.2,0.9,2.4,1.8,3.6,2.8L913.6,118z"/>
	<path fill="#47339B" d="M599.1,320.4c-0.4-3.4-0.9-6.8-1.3-10.2c-0.6-0.2-1.1-0.4-1.7-0.6c0.4,3.6,0.9,7.2,1.4,10.7
		C598,320.3,598.6,320.4,599.1,320.4z"/>
	<path fill="#47339B" d="M608,280.6c-0.2-3.1-0.3-6.2-0.4-9.3c-0.6-0.2-1.2-0.5-1.8-0.7c0,2.5,0.2,5.1,0.3,7.6c0,0.7,0.1,1.3,0.1,2
		C606.8,280.4,607.4,280.5,608,280.6z"/>
	<path fill="#47339B" d="M908.5,114c-3.2-2.4-6.6-4.7-10-6.8c-0.7,0.1-1.3,0.1-2,0.2c3.5,2.2,7,4.5,10.4,7
		C907.5,114.3,908,114.1,908.5,114z"/>
	<path fill="#47339B" d="M869.6,94.5c2.5,0.8,4.9,1.8,7.3,2.8c0.5-0.2,1.1-0.4,1.6-0.6c-2.2-0.9-4.5-1.8-6.8-2.7
		C871,94.2,870.3,94.3,869.6,94.5z"/>
	<path fill="#47339B" d="M887.9,101.2c-1.8-1-3.7-1.9-5.6-2.8c-0.5,0.2-1.1,0.3-1.7,0.5c1.9,0.8,3.7,1.7,5.5,2.6
		C886.7,101.4,887.3,101.3,887.9,101.2z"/>
	<path fill="#47339B" d="M892.9,103.9c-0.7-0.4-1.4-0.8-2.1-1.2c-0.7,0.1-1.3,0.2-2,0.3c0.7,0.3,1.4,0.7,2.1,1.1
		C891.6,104,892.2,103.9,892.9,103.9z"/>
	<path fill="#47339B" d="M516.5,381.6c1.5-0.7,2.7-2.3,3.3-4.2c0.6-1.8,0.7-3.9,0.3-6c-0.4-2-1.4-3.6-2.6-4.6c-0.9-0.6-1.8-1-2.7-1
		c-0.2,0-0.4,0.1-0.6,0.1c0.2,6.4,0.8,10.8,0.8,10.8s-0.5,1.7-1.3,5.1C514.5,382.1,515.5,382.1,516.5,381.6z"/>
	<path fill="#47339B" d="M631.8,439.5c0.6,1.5,1.3,3.1,2,4.6c0.1,0,0.1-0.1,0.2,0c0.4-0.2,0.9-0.4,1.5-0.7c-0.7-1.6-1.4-3.2-2.1-4.8
		c-0.5-1.2-1-2.4-1.5-3.6c-0.6,0.1-1.2,0.2-1.8,0.3C630.6,436.7,631.2,438.1,631.8,439.5z"/>
	<path fill="#47339B" d="M628.7,431.6c0.6-0.1,1.1-0.3,1.7-0.4c-1.2-3-2.3-6-3.4-9.1c-0.5,0.2-1,0.4-1.5,0.6
		C626.5,425.7,627.5,428.6,628.7,431.6z"/>
	<path fill="#47339B" d="M649.1,469.1c-1.2-2-2.4-4.1-3.5-6.1c-0.6,0.4-1.2,0.8-1.8,1.1c1.1,2.1,2.3,4.1,3.5,6.2
		C647.9,470,648.4,469.6,649.1,469.1z"/>
	<path fill="#47339B" d="M601.3,343.2c0.1,0.7,0.3,1.3,0.5,1.9c0.6,0.1,1.1,0.2,1.7,0.3c-0.5-2.5-1-5-1.5-7.5
		c-0.6,0-1.1-0.1-1.7-0.2C600.6,339.5,600.9,341.4,601.3,343.2z"/>
	<path fill="#47339B" d="M599.6,333.4c0.6,0.1,1.1,0.1,1.7,0.2c-0.6-3.2-1.1-6.4-1.6-9.6c-0.6-0.1-1.1-0.2-1.7-0.3
		C598.5,327,599,330.2,599.6,333.4z"/>
	<path fill="#47339B" d="M604.8,351.6c-0.1-0.5-0.2-1.1-0.4-1.6c-0.6-0.3-1.2-0.5-1.8-0.6c0.5,2.2,1,4.3,1.5,6.4
		c0.3-0.1,0.6-0.1,0.9-0.1c0,0,0,0,0,0L604.8,351.6z"/>
	<path fill="#47339B" d="M625.6,418.5c-0.7-2.3-1.5-4.6-2.2-6.9c-0.1-0.4-0.3-0.9-0.4-1.3c-0.5,0.1-1,0.1-1.5,0.2
		c0.9,2.9,1.8,5.8,2.7,8.7C624.7,419,625.1,418.7,625.6,418.5z"/>
	<path fill="#583688" d="M619.9,208.1c0.1,0,0.2,0,0.3,0c0.1-0.2,0.1-0.5,0.2-0.7C620.2,207.6,620.1,207.8,619.9,208.1z"/>
	<path fill="#583688" d="M611.4,223.2c-0.8,1.8-1.4,3.6-2,5.4c0.5,0,1.1,0,1.7,0.1c0.5-1.8,1.2-3.6,1.9-5.4c-0.5,0-0.9,0-1.4-0.1
		C611.5,223.2,611.5,223.2,611.4,223.2z"/>
	<path fill="#583688" d="M613.2,219.5c0,0,0.1,0,0.2,0c0.5,0.1,0.9,0.1,1.4,0.1c0.4-0.8,0.8-1.6,1.3-2.4c1-1.8,2-3.6,3.1-5.3
		c-0.6,0.1-1.3,0.1-1.9,0.2C615.7,214.5,614.4,217,613.2,219.5z"/>
	<path fill="#583688" d="M623.3,189.7c-5.7,7.2-10.6,15-14.5,23.4c-0.7,1.6-1.4,3.3-2.1,4.9c0,0,0,0,0-0.1c0,0,0,0,0,0.1
		c0.4,1.2,1,2.3,1.6,3.3c1-2.6,2.1-5.1,3.2-7.6c3.9-8.1,8.6-15.7,14.3-22.6c1.2-1.5,2.5-3,3.9-4.4c-0.9,0.1-1.8,0.3-2.8,0.5
		c-0.4,0.1-0.8,0.2-1.2,0.4c-0.1,0-0.3,0.1-0.4,0.1c-0.4,0.3-0.7,0.6-1.1,0.8C623.9,188.9,623.6,189.3,623.3,189.7z"/>
	<path fill="#583688" d="M612.7,199.7c0.6-0.3,1.2-0.5,1.8-0.6c1.2-1.8,2.4-3.6,3.6-5.2c-0.2,0.1-0.4,0.1-0.5,0.2
		c-0.9,0.7-1.7,1.5-2.5,2.3C614.2,197.5,613.5,198.6,612.7,199.7z"/>
	<path fill="#583688" d="M635.6,187.3c-1.8,2.1-3.7,4.4-5.4,6.6c0.8-0.2,1.5-0.5,2.3-0.7c1.8-2.2,3.7-4.4,5.6-6.5
		c-0.3,0-0.6-0.1-0.8-0.1c-0.2,0.1-0.4,0.1-0.5,0.2c0.1,0,0.3,0,0.4,0C636.6,186.9,636.1,187.1,635.6,187.3z"/>
	<path fill="#583688" d="M646.2,177l-2.9,3.7c0,0,0.1,0,0.1,0c0.1-0.1,0.1-0.1,0.2-0.2L646.2,177L646.2,177z"/>
	<path fill="#583688" d="M609.2,236.9c0.3-1.5,0.6-3,0.9-4.4c-0.6-0.1-1.2-0.1-1.8-0.2c-0.3,1.3-0.6,2.6-0.9,4l1.7,0.9c0,0,0,0,0,0
		l0,0C609.1,237.1,609.1,237,609.2,236.9z"/>
	<path fill="#583688" d="M604.2,234.5c0.4-1.7,0.8-3.3,1.3-5l-3.1,4L604.2,234.5z"/>
	<path fill="#583688" d="M605.7,213.8c0,0.1,0,0.3,0.1,0.4c0,0,0-0.1,0.1-0.1C605.8,214,605.8,213.9,605.7,213.8
		C605.7,213.8,605.7,213.8,605.7,213.8z"/>
	<path fill="#583688" d="M624,202.1c0.7-0.5,1.4-1,2.2-1.4c0.2-0.1,0.5-0.2,0.7-0.3c0.4-0.7,0.9-1.3,1.3-1.9
		c-0.7,0.2-1.4,0.4-2.1,0.6C625.4,200,624.7,201.1,624,202.1z"/>
	<path fill="#583688" d="M515,393.7l2.1,9.6l7.6-3.5l-2.2-9.7c1.8-1.8,3.2-4.3,4.3-7.2c1.7-4.7,2-10.1,0.9-15.1s-3.5-9.2-6.7-11.6
		c-2-1.5-4.1-2.3-6.3-2.2l-0.1-0.8l-0.1-0.3c-0.4,4.7-0.5,9.2-0.4,13c0,0,0.1,0,0.1,0c0.2,0,0.4-0.1,0.6-0.1c0.9,0,1.8,0.4,2.7,1
		c1.2,1,2.2,2.6,2.6,4.6c0.4,2.1,0.3,4.2-0.3,6c-0.6,1.9-1.8,3.5-3.3,4.2c-1,0.5-2,0.5-2.8,0.2c0,0,0,0-0.1,0
		c-0.7,2.7-1.5,6.4-2.5,11.1c0,0,0,0,0,0C512.3,393.4,513.6,393.7,515,393.7L515,393.7z"/>
	<path fill="#583688" d="M605,355.7C605,355.7,605,355.7,605,355.7c0.1,0,0.3,0,0.4,0c0.1,0,0.2,0,0.3,0c-0.3-1.4-0.6-2.7-0.9-4.1
		L605,355.7z"/>
	<path fill="#583688" d="M616.8,391.1c-0.8-2-1.6-4-2.3-5.9c-0.3,0.4-0.6,0.8-0.9,1.2c0,0,0,0,0,0.1c0,0,0.1-0.1,0.1-0.1
		c0.6,1.7,1.2,3.4,1.9,5.1c0,0,0.1,0,0.1,0c0.4-0.1,0.8-0.1,1.2-0.1c0,0,0,0,0,0C616.9,391.3,616.8,391.2,616.8,391.1z"/>
	<path fill="#583688" d="M622.2,392.2c0.6-1.3,1-2.8,1.4-4.3c-3.7-10.6-6.7-21.3-9.3-32.3c-0.3-0.2-0.6-0.3-0.9-0.5l-0.3-4.7
		c-0.6-2.4-1.1-4.8-1.6-7.3l-2.9,0.2c0,0,0,0,0,0.1l0.1,0C612.2,360,616.3,376.3,622.2,392.2z"/>
	<path fill="#583688" d="M616.8,394.6C616.5,394.5,616.9,394.8,616.8,394.6L616.8,394.6z"/>
	<path fill="#583688" d="M618,398.6C618,398.6,618,398.6,618,398.6c0.4-0.3,0.7-0.7,1.1-1.1c-0.2-0.7-0.4-1.3-0.6-1.9
		c-0.5-0.1-0.8-0.2-1.3-0.2C617.4,396.5,617.7,397.5,618,398.6C618,398.6,618,398.6,618,398.6z"/>
	<path fill="#583688" d="M608.2,367.8c0.2,0,0.5-0.1,0.8-0.1c-0.8-2.6-1.5-5.3-2.2-8c-0.3,0-0.7-0.1-1-0.1c-0.2,0-0.4,0-0.6,0
		c0.7,2.8,1.5,5.6,2.3,8.3C607.7,367.8,607.9,367.8,608.2,367.8z"/>
	<path fill="#583688" d="M578.9,273.3c0-1.4,0.1-3,0.2-4.6l-3.3-4.2l-9.2,4.9l6.4,8.1c-1.8,2-3,4.5-3.3,7.3
		c-0.6,4.6,0.9,9.4,4.2,13.7c2.1,2.7,4.7,4.8,7.6,6.4c-0.3-2.2-0.6-4.7-0.9-7.3C579.7,290.2,578.7,281.5,578.9,273.3z"/>
	<path fill="#583688" d="M595.9,307.3c0.5,0.1,1,0.1,1.6,0.3c-0.3-2.1-0.5-4.2-0.7-6.3c-0.6,0.1-1,0.1-1.5,0.2
		C595.5,303.4,595.7,305.4,595.9,307.3z"/>
	<path fill="#583688" d="M607.8,298.4c0.1,0.5,0.1,1,0.2,1.6c0.3-0.6,0.5-1.2,0.7-1.9C608.4,298.2,608.1,298.3,607.8,298.4z"/>
	<path fill="#583688" d="M594.9,298.3c0.6-0.1,1-0.2,1.5-0.3c-0.1-0.8-0.1-1.7-0.2-2.5c0,0,0,0,0-0.1c-0.3-3-0.6-6.1-0.8-9.1
		c0,0,0,0,0,0c0-0.1,0-0.1,0-0.1c-0.5-0.1-1.1-0.1-1.7-0.2C594.1,290.1,594.5,294.2,594.9,298.3z"/>
	<path fill="#583688" d="M598.4,286.2c0.9,9.9,2.6,19.7,4.5,29.5l0.2,0.3l2.4-1.3c-2.3-12.3-4.3-24.7-5.1-37.1
		c-0.9-0.7-1.8-1.2-2.7-1.8c0.1,2.1,0.2,4.3,0.3,6.4c0.1,1.2,0.2,2.3,0.3,3.5C598.4,285.9,598.4,286,598.4,286.2z"/>
	<path fill="#583688" d="M607.5,295c0.5-0.2,1.1-0.4,1.7-0.6c-0.1-1.5-0.3-2.9-0.4-4.4c0-0.3-0.1-0.7-0.1-1
		c-0.5-1.6-1.2-3.3-2.2-4.8C606.7,287.8,607.1,291.4,607.5,295z"/>
	<path fill="#583688" d="M594.9,281c-0.2-2.3-0.4-4.5-0.5-6.8c0.1,0,0.1,0,0.2,0.1c0,0,0,0,0-0.1c-0.6-0.3-1.3-0.5-1.9-0.7
		c0.2,3,0.4,5.9,0.7,8.9c0.6,0,1.1-0.1,1.7-0.1C595,281.9,594.9,281.4,594.9,281z"/>
	<path fill="#583688" d="M613.8,324.7c-0.1,0-0.1,0-0.2,0c0.1,0.1,0.2,0.2,0.2,0.3C613.9,324.9,613.8,324.8,613.8,324.7z"/>
	<path fill="#583688" d="M616.9,339.2c-0.6,0-1.3,0.1-1.9,0.1c0.3,1,0.5,2.1,0.8,3.2l2.1,0.8C617.6,341.9,617.2,340.5,616.9,339.2z"
		/>
	<path fill="#583688" d="M608.8,306.4c0.1,0.5,0.1,0.9,0.2,1.4c0.6-0.1,1.2-0.2,1.8-0.3c-0.4-2-0.6-3.8-0.8-5.8
		C609.4,303.3,609,304.9,608.8,306.4z"/>
	<path fill="#583688" d="M611.5,311.4c-0.6,0.1-1.2,0.2-1.8,0.3c0.5,3.1,1,6.2,1.6,9.1c0,0,0.1,0.1,0.1,0.1c0.6,0,1.2-0.1,1.8-0.2
		C612.5,317.7,612,314.5,611.5,311.4z"/>
	<path fill="#583688" d="M585.5,522.6c-2.9-6.3-3.6-16.3-6.2-29l-5.3-0.8l-1.8,11.6c-3,0.6-5.8,2.1-8.4,4.5
		c-1.2,1.1-2.3,2.4-3.3,3.8c5.9,16.7,11.4,33.4,14.7,43.5l1.1-6.9c7.5-1.6,13.9-8.7,15.9-18C589.3,528.4,586.8,525.3,585.5,522.6z
		 M581.7,527.9c-0.4,2.5-1.5,4.6-3,6.1c-1.6,1.5-3.7,2.4-5.9,2c-2-0.3-3.7-1.6-4.8-3.5c0-0.1-0.1-0.1-0.1-0.2
		c-1.1-1.9-1.4-4.3-1.1-6.7c0.4-2.4,1.5-4.5,3.1-6.1l0.1-0.1c1.7-1.5,3.7-2.2,5.7-1.9c2.1,0.3,3.9,1.7,4.9,3.7
		C581.6,523.1,582.1,525.5,581.7,527.9z"/>
	<path fill="#6241CE" d="M623.7,188.8c-2.2,1.7-4.5,3.6-6.5,5.4c0.5-0.4,0.9-0.8,1.4-1.2C620.3,191.5,622,190.2,623.7,188.8z"/>
	<path fill="#6241CE" d="M632.6,471.9c-0.8-2.2-2-3.9-3.5-4.6c-0.6-0.3-1.2-0.4-1.8-0.4c-0.9,0.1-1.7,0.5-2.5,1.2l-0.1,0.1
		c-1.2,1.2-2.1,3.2-2.4,5.6c-0.4,2.4-0.1,4.9,0.6,7.1c0.1,0.1,0.1,0.1,0.1,0.2c0.4,1.1,0.9,2.1,1.5,2.9c0.6,0.7,1.3,1.3,2,1.7
		c1.5,0.7,3,0.4,4.3-0.8l0.1-0.1c1.2-1.2,2.1-3.2,2.4-5.6c0.3-2.4,0.1-4.9-0.6-7.1C632.6,472,632.6,472,632.6,471.9z"/>
	<path fill="#6241CE" d="M558,375.6c1.4,0.7,2.8,0.5,4-0.5c1.2-0.9,2.1-2.4,2.6-4.3c0.5-1.8,0.4-3.8-0.2-5.5c0-0.1,0-0.1,0-0.2
		c-0.5-1.8-1.5-3.2-2.8-3.8c-1.3-0.7-2.7-0.5-3.9,0.4l-0.1,0.1c-1.2,0.9-2.1,2.4-2.6,4.3c-0.4,1.9-0.4,3.9,0.1,5.6
		C555.6,373.5,556.6,374.9,558,375.6z"/>
	<path fill="#6241CE" d="M577.9,442.2c0.2,2,0.9,4,2,5.8s2.4,3,3.6,3.6c1.3,0.6,2.6,0.4,3.4-0.7c0.8-1.1,1.1-2.9,0.9-5
		c-0.2-1.9-0.9-4-2-5.8c-1-1.8-2.3-3-3.6-3.6c0-0.1-0.1-0.1-0.1-0.1c-0.8-0.3-1.5-0.3-2.1-0.1c-0.5,0.2-0.9,0.5-1.2,0.9
		c-0.8,1.1-1.1,2.8-0.9,4.8C577.9,442.1,577.9,442.1,577.9,442.2z"/>
	<path fill="#6241CE" d="M543.5,368.3c0,0-0.2,6.5,4.3,28s19,57.7,26.5,79.2c2.3,6.5,3.8,12.6,5,18.1c2.7,12.7,3.3,22.6,6.2,29
		c1.3,2.7,3.8,5.8,6.7,8.7c2.3,2.3,4.9,4.5,7.3,6.5c5.9-9.3,13-18.7,22-28.9l-2.4-1.2l1.6-11.5c-2-2-3.6-4.9-4.8-8.3
		c-1.9-5.5-2.5-11.9-1.7-17.9c0.9-6,3.1-11,6.2-14c1.9-1.9,4.1-2.9,6.3-2.9l1.6-11.5l8,3.9l-0.3,1.9c0.3-0.1,0.6-0.3,1-0.4
		c0.1,0,0.1-0.1,0.2-0.1c2,4.2,4.2,8.4,6.4,12.5c-0.5,0.5-1.1,0.9-1.6,1.2c-2.2-3.9-4.2-8-6.1-12.2l-1.2,8.6c2,2,3.6,4.9,4.8,8.3
		c2,5.5,2.6,11.9,1.8,17.9c-0.4,2.4-0.9,4.6-1.6,6.5c3.8-3.8,7.8-7.7,12.1-11.8c-0.4-0.6-0.8-1.2-1.2-1.9c-0.5-0.9-1.1-1.8-1.6-2.6
		c0.6-0.4,1.2-0.8,1.8-1.1c0.5,0.9,1.1,1.8,1.6,2.7c0.3,0.5,0.6,0.9,0.9,1.4c1.1-1,2.1-2,3.2-3c-7.3-10.3-13.1-21.6-17.9-33.2
		c-3.1-7.6-5.8-15.4-8.4-23.2c-2-6.2-4.7-12.7-6-19.2c-0.7-1.8-1.4-3.6-2.1-5.4c-0.8,1.9-1.9,3.7-3,5.1c-0.2-0.7-0.4-1.3-0.6-1.9
		c-0.5-0.1-0.9-0.2-1.4-0.2c0,0,0,0,0,0c0.5,0,0.8,0.1,1.3,0.2c0.2,0.6,0.4,1.3,0.6,1.9c0.9,2.9,1.9,6.1,2.9,9
		c-0.5,0.1-1,0.1-1.5,0.2c-0.8-2.7-1.6-5.4-2.4-8c0,0,0,0,0,0c-0.6,0.6-1.3,1.1-2,1.5l0.7,12l-8.1,0.7l-0.7-12
		c-5.9-2.7-10.6-11.4-11.2-21.9c-0.4-6.3,0.7-12.3,3.1-16.9c1.4-2.8,3.3-4.9,5.3-6.1c0.1,0,0.3,0,0.5,0c0.1,0,0.2,0,0.3,0
		c-0.3-1.5-0.7-2.9-1-4.4l-0.5-7.7l4.2-0.3c0,0,0,0,0-0.1c-1.2-5.8-2.4-11.6-3.5-17.4c-0.7-3.4-1.4-6.7-2-10.1l-6.2-7.9
		c-4.9,0.8-10.4-0.3-15.3-3c0.4,3.1,0.6,5.7,0.7,7.6c0.2,7,2,12.6-6.7-3.4c-5.1-9.5-12.3-29.7-17.2-44.4c-0.1-0.2-0.1-0.3-0.2-0.5
		c-7.8,8.1-14.4,17.8-18.9,25.6c-2,3.5-3.7,6.8-5.2,10c0,0.3,0,0.5,0,0.8c0.9,26.1,2.1,39.3,3.5,45.9
		C539.7,356.6,543.5,368.3,543.5,368.3z M645.6,463c1.1,2,2.3,4.1,3.5,6.1c-0.7,0.5-1.2,0.9-1.8,1.2c-1.2-2.1-2.4-4.1-3.5-6.2
		C644.4,463.8,645,463.4,645.6,463z M633.4,438.6c0.7,1.6,1.4,3.2,2.1,4.8c-0.6,0.3-1.1,0.5-1.5,0.7c-0.1-0.1-0.1,0-0.2,0
		c-0.7-1.5-1.4-3.1-2-4.6c-0.6-1.4-1.2-2.8-1.7-4.2c0.6-0.1,1.2-0.2,1.8-0.3C632.4,436.2,632.9,437.4,633.4,438.6z M630.4,431.2
		c-0.6,0.1-1.1,0.3-1.7,0.4c-1.2-3-2.2-5.9-3.2-8.9c0.5-0.2,1-0.4,1.5-0.6C628.1,425.2,629.2,428.2,630.4,431.2z M623,410.3
		c0.1,0.4,0.3,0.9,0.4,1.3c0.7,2.3,1.5,4.6,2.2,6.9c-0.5,0.2-0.9,0.5-1.4,0.7c-0.9-2.9-1.8-5.8-2.7-8.7
		C622,410.4,622.5,410.4,623,410.3z M592.5,529.6c-0.1,0.6-0.2,1.1-0.3,1.6c-2.8-2.9-5.3-5.8-6.5-8.5c-2.9-6.3-3.5-16.3-6.2-29
		l5.3,0.8L583,506C590,510,594.1,519.5,592.5,529.6z M605.7,355.7c-0.1,0-0.2,0-0.3,0c-0.1,0-0.3,0-0.4,0c-0.3,0-0.6,0-0.9,0.1
		c-0.5-2.1-1-4.2-1.5-6.4c0.6,0.1,1.2,0.3,1.8,0.6c0.1,0.5,0.2,1.1,0.4,1.6C605.1,353,605.4,354.3,605.7,355.7z M603.5,345.4
		c-0.6-0.1-1.1-0.2-1.7-0.3c-0.2-0.6-0.4-1.2-0.5-1.9c-0.4-1.8-0.7-3.7-1-5.5c0.6,0.1,1.1,0.2,1.7,0.2
		C602.5,340.4,603,342.9,603.5,345.4z M601.3,333.6c-0.6-0.1-1.1-0.1-1.7-0.2c-0.6-3.2-1.1-6.4-1.6-9.7c0.6,0.1,1.1,0.2,1.7,0.3
		C600.2,327.2,600.7,330.4,601.3,333.6z M597.8,310.2c0.4,3.4,0.9,6.8,1.3,10.2c-0.5,0-1.1-0.1-1.6-0.1c-0.5-3.5-1-7.1-1.4-10.7
		C596.7,309.8,597.2,310,597.8,310.2z M580.8,425.4c3.3,1.4,6.5,4.5,9.2,9c4.5,7.5,6.2,16.7,4.6,22.6l5.1,8.5l-4.2,5.7l-5.1-8.5
		c-0.1,0-0.2,0.1-0.3,0.1c-4.2,1.6-10-1.9-14.4-9.2c-2.7-4.4-4.5-9.6-5-14.6c-0.3-3.1-0.1-5.8,0.5-8.1l-5.1-8.5l4.2-5.7l5.1,8.5
		C576.9,424.5,578.8,424.6,580.8,425.4z M560.6,349.9l2.3-9l6.9,3.4l-2.3,9c1.6,1.8,2.9,4.1,3.7,6.8c1.4,4.4,1.5,9.4,0.2,14.1
		c-1.1,4.7-3.5,8.6-6.5,10.8c-1.9,1.4-3.9,2.1-5.9,2l-2.3,9l-6.9-3.4l2.3-9c-4.1-4.6-5.9-13-3.9-20.9c1.1-4.7,3.5-8.6,6.5-10.8
		C556.6,350.5,558.6,349.8,560.6,349.9z"/>
	<path fill="#6241CE" d="M628.7,500.1l-0.1,1.1c0.4-0.4,0.7-0.7,1.1-1.1c-0.2,0-0.4,0.1-0.6,0.1
		C628.9,500.1,628.8,500.1,628.7,500.1z"/>
	<path fill="#6241CE" d="M618.1,193.9C618.1,193.8,618.1,193.8,618.1,193.9c-0.3,0-0.6,0.2-0.9,0.3c0.1,0,0.2-0.1,0.4-0.2
		C617.7,194,617.9,193.9,618.1,193.9z"/>
	<path fill="#6241CE" d="M608.2,367.8c-0.2,0-0.5,0.1-0.8,0.1c-0.8-2.7-1.6-5.5-2.3-8.3l0,0c0.7,2.8,1.5,5.6,2.3,8.3
		C607.7,367.8,607.9,367.8,608.2,367.8z"/>
	<path fill="#6241CE" d="M614.6,385.1c0.1-0.3,0.3-0.5,0.4-0.8c0.9-1.8,1.4-4.1,1.2-6.7c-0.2-2.5-0.9-4.8-2-6.5
		c0-0.1-0.1-0.1-0.1-0.2c-1.2-1.8-2.7-2.7-4.2-2.6s-2.9,1.2-3.9,3.1c0,0.1-0.1,0.1-0.1,0.2c-0.9,1.8-1.3,4.2-1.2,6.7
		c0.2,2.5,0.9,4.8,2,6.5c1.2,1.7,2.7,2.8,4.5,2.7c0.9,0,1.7-0.5,2.4-1.1c0,0,0,0,0-0.1c-0.5-1.2-0.9-2.4-1.4-3.6
		c0.5-0.1,1-0.1,1.4-0.1C613.9,383.4,614.2,384.3,614.6,385.1c0.6,2,1.4,4,2.2,6c0,0.1,0.1,0.2,0.1,0.2c0,0,0,0,0,0c0,0,0.1,0,0.1,0
		c0,0-0.1-0.1-0.1-0.2C616.1,389.1,615.3,387.1,614.6,385.1z M611,379c-0.8-2.3-1.6-4.6-2.3-7c0.5-0.1,1-0.2,1.4-0.3
		c0.7,2.4,1.5,4.8,2.3,7.1C611.9,378.8,611.5,378.9,611,379z"/>
	<path fill="#6241CE" d="M615.6,391.4c0,0,0.1,0,0.1,0C615.7,391.4,615.6,391.4,615.6,391.4C615.6,391.4,615.6,391.4,615.6,391.4z"
		/>
	<path fill="#6241CE" d="M597.6,292.3c0.2-1.7-0.3-3.7-1.7-5.4c-0.2-0.2-0.3-0.4-0.5-0.6c0.2,3.1,0.5,6.1,0.8,9.1
		C597,294.6,597.5,293.5,597.6,292.3z"/>
	<path fill="#6241CE" d="M597.6,307.6c-0.3-2.1-0.5-4.2-0.7-6.3c0,0-0.1,0-0.1,0c0.2,2.1,0.4,4.2,0.7,6.3
		C597.5,307.6,597.6,307.6,597.6,307.6z"/>
	<path fill="#6241CE" d="M588.4,297.2c2.2,0.6,4.4,0.6,6.1-0.4l0.1-0.1c0.1,0.5,0.1,1.1,0.2,1.6c0,0,0.1,0,0.1,0
		c-0.4-4.1-0.8-8.2-1.2-12.3c0.6,0.1,1.2,0.1,1.7,0.2c0,0,0-0.1,0-0.1c-0.1,0-0.1,0-0.2,0c-1.3-1.4-2.9-2.3-4.6-2.8
		c-2.1-0.6-4.4-0.6-6.2,0.4s-2.8,2.6-3,4.5c-0.2,1.7,0.3,3.7,1.7,5.4C584.5,295.4,586.4,296.6,588.4,297.2z"/>
	<path fill="#6241CE" d="M598.4,286.2c0-0.1,0-0.3,0-0.4C598.4,285.9,598.4,286,598.4,286.2z"/>
	<path fill="#6241CE" d="M580.6,297.6c-0.9-7.4-1.8-16.1-1.7-24.3C578.7,281.5,579.7,290.2,580.6,297.6z"/>
	<path fill="#6241CE" d="M578.9,273.3c0.1-1.4,0.1-3,0.2-4.6l3,3.9c3-0.5,6.2-0.3,9.5,0.6c0.3,0.1,0.6,0.2,0.9,0.3
		c0.2,3,0.4,5.9,0.7,8.9c0,0,0.1,0,0.1,0c-0.2-3-0.5-5.9-0.7-8.9c0-0.6-0.1-1.2-0.1-1.8c0.7,0.5,1.4,1.1,2,1.6c0,0.3,0,0.6,0.1,0.9
		c0,0,0,0,0,0.1c1.1,0.4,2.2,1,3.2,1.5c0.1,2.2,0.2,4.3,0.3,6.4c-0.1-2.1-0.2-4.3-0.3-6.4c-0.1-5.4,0.1-10.8,0.7-16.2
		c0.5-14.3,2.8-28.2,8.2-41.6c0,0,0,0,0-0.1c-0.4-1.2-0.7-2.5-0.9-3.8c0,0,0,0.1-0.1,0.1c-0.8,1.5-1.5,3.1-2.3,4.7c-0.5,0-1,0-1.5,0
		c0.7-1.6,1.5-3.2,2.4-4.8c0.5-0.1,0.9-0.2,1.4-0.3c0,0,0,0,0.1,0c-0.3-3.1,0-6.3,1.2-9.5c0.6-0.6,1.1-1.2,1.7-1.8
		c0.2-0.2,0.3-0.3,0.5-0.5c1-1.1,2.1-2.1,3.1-3.1c0.5-0.5,1.1-1,1.6-1.5s1-1,1.4-1.4c-0.9,1.3-1.8,2.5-2.6,3.8c0,0,0.1,0,0.1-0.1
		c0.8-1.1,1.5-2.3,2.3-3.4c0.1-0.1,0.2-0.3,0.3-0.4c-2.4,2.1-4.6,4.3-6.8,6.6c-13.3,13.9-21.2,27-25.7,35.9
		c-0.1,0.4-0.1,0.8-0.2,1.1c-2.1,11.2-3.1,21.4-3.5,29.1C579,270.3,578.9,271.9,578.9,273.3z M592.4,269.1c-0.2-2.5-0.2-5-0.2-7.5
		c0.7,0.4,1.3,0.8,2,1.2c0,2.6,0.1,5.1,0.2,7.7C593.8,270,593.1,269.5,592.4,269.1z M592.1,259.5c0.1-1.8,0.2-3.8,0.3-5.7
		c0.6,0.4,1.3,0.7,1.9,1.1c-0.1,1.8-0.2,3.6-0.2,5.4C593.5,260,592.8,259.8,592.1,259.5z M592.6,251.5c0.3-3.7,0.9-7.2,1.7-10.7
		c0.6,0.1,1.1,0.2,1.7,0.4c-0.7,3.7-1.2,7.4-1.5,11.2C593.9,252.1,593.2,251.8,592.6,251.5z M596.6,237.9c-0.6,0-1.1-0.1-1.7-0.1
		c0.7-2.2,1.3-4.4,2-6.6c0.5,0.1,1,0.1,1.5,0.2C597.7,233.6,597.1,235.7,596.6,237.9z M600.3,226.2c-0.3,0.7-0.5,1.4-0.7,2
		c-0.5,0-1,0-1.6,0.1c0.7-2,1.5-4.1,2.4-6.1c0.2,0,0.4,0,0.5,0c0.3,0,0.6,0,1,0C601.3,223.5,600.8,224.8,600.3,226.2z"/>
	<path fill="#7A44B3" d="M583,506l1.8-11.5l-5.3-0.8c2.7,12.7,3.3,22.7,6.2,29c1.2,2.7,3.7,5.6,6.5,8.5c0.1-0.5,0.2-1,0.3-1.6
		C594.1,519.5,590,510,583,506z"/>
	<path fill="#6241CE" d="M851.2,91.5c0.7-0.2,1.4-0.3,2.1-0.5C852.6,91.2,851.9,91.3,851.2,91.5z"/>
	<path fill="#6241CE" d="M856.3,90.4c-0.6,0.1-1.3,0.3-2,0.4C855,90.7,855.7,90.5,856.3,90.4L856.3,90.4z"/>
	<path fill="#6241CE" d="M834,359.5c-1.7-1.8-4.1-3.1-6.9-3.3c-0.2,0-0.5,0-0.7,0c-2.5,0-4.8,0.9-6.6,2.4c-2.1,1.8-3.5,4.4-3.7,7.3
		c-0.2,2.9,0.8,5.7,2.7,7.7c0.1,0.2,0.3,0.3,0.5,0.5c5.7-2,11.4-4,17.3-5.7c0.1-0.4,0.1-0.7,0.1-1.1
		C836.9,364.3,835.8,361.5,834,359.5z"/>
	<path fill="#6241CE" d="M864.3,190.8c2.5,0.9,5.3,0.7,7.8-0.4c0.1,0,0.1-0.1,0.2-0.1c1.2-0.6,2.3-1.4,3.2-2.4s1.6-2.2,2-3.5
		c0.9-2.6,0.7-5.4-0.5-7.9c0-0.1-0.1-0.1-0.1-0.2c-1.2-2.3-3.3-4.1-5.8-5c-1.2-0.4-2.3-0.6-3.4-0.6c-1.5,0-3,0.4-4.3,1
		c-2.5,1.1-4.5,3.2-5.5,6s-0.7,5.7,0.6,8.1C859.7,188,861.7,189.9,864.3,190.8z"/>
	<path fill="#6241CE" d="M750.1,261.9c1,2.6,3,4.5,5.6,5.6c2.8,1.2,5.7,1,8.2-0.1c2.4-1,4.4-2.9,5.4-5.5c1-2.5,1.1-5.2,0-7.7
		c-0.1,0-0.1-0.1-0.1-0.2c-1-2.6-3-4.6-5.6-5.6c-1.3-0.6-2.6-0.8-3.9-0.8c-1.4,0-2.9,0.3-4.2,0.9c-2.4,1-4.3,2.9-5.4,5.5
		c-1.1,2.5-1.1,5.2-0.1,7.7C750,261.8,750.1,261.8,750.1,261.9z"/>
	<path fill="#6241CE" d="M894.6,271.5c-0.8-1.2-1.8-2.2-3-3c-1.8-1.2-3.7-1.7-5.7-1.7c-0.8,0-1.6,0.1-2.4,0.3
		c-2.5,0.6-4.8,2.1-6.3,4.4c-1.5,2.2-2,4.9-1.5,7.5c0,0,0,0.1,0,0.2c0.6,2.8,2.2,5.1,4.5,6.6c2.4,1.6,5.3,2,8,1.4
		c2.5-0.6,4.8-2.1,6.3-4.4c1.5-2.4,2-5.1,1.6-7.5C895.9,274,895.4,272.7,894.6,271.5z"/>
	<path fill="#6241CE" d="M999.8,299.3c-1.8-1.4-4.1-2.2-6.4-2.2c-0.3,0-0.7,0.1-1,0.1c0,0-0.1,0-0.2,0c-2.7,0.4-5.2,1.7-6.9,3.9
		c-1.8,2.3-2.5,5.2-2.1,7.9c0.3,2.6,1.6,5,3.8,6.7c2.1,1.6,4.8,2.4,7.3,2c0,0,0.1,0,0.2,0c1.4-0.1,2.7-0.5,3.9-1.2
		c1.2-0.6,2.2-1.5,3.1-2.6c1.8-2.3,2.5-5.2,2.1-7.9C1003.3,303.4,1002,301,999.8,299.3z"/>
	<path fill="#6241CE" d="M689.4,423.8c2-1.7,3.3-4.1,3.6-6.8s-0.4-5.4-2-7.4c-0.1-0.1-0.1-0.1-0.2-0.2c-1.8-2.2-4.2-3.5-7-3.8
		c-2.9-0.3-5.7,0.6-7.8,2.4c-1.9,1.7-3.3,4-3.6,6.8c-0.3,2.7,0.5,5.4,2.1,7.4c0.9,1.1,1.9,2,3.1,2.7c1.2,0.7,2.5,1.1,4,1.3
		c2.7,0.3,5.5-0.5,7.6-2.2C689.3,423.9,689.3,423.8,689.4,423.8z"/>
	<path fill="#6241CE" d="M630.3,319.3c0.7,0.2,1.4,0.4,2.1,0.5c0.7,0.1,1.4,0.1,2.1,0.1c0.7,0,1.4-0.1,2-0.3s1.3-0.4,1.9-0.7
		c0.9-0.4,1.7-0.9,2.4-1.6c0.2-0.2,0.5-0.4,0.7-0.7c0.9-0.9,1.6-2.1,2.1-3.4c1-2.6,0.9-5.3-0.1-7.7c-1.1-2.5-3.1-4.6-5.9-5.7
		c-2.8-1.1-5.7-0.9-8.2,0.3c-1.4,0.8-2.7,1.8-3.7,3.1c-0.4,0.5-0.8,1.1-1.1,1.7c-0.2,0.3-0.3,0.6-0.4,0.9c-1,2.6-0.9,5.4,0.1,7.7
		C625.5,316.1,627.6,318.2,630.3,319.3z"/>
	<path fill="#6241CE" d="M637.8,212.9c1.6-2.1,2.3-4.4,2-6.7c0-0.1,0-0.1,0-0.2c-0.3-2.3-1.7-4.2-3.8-5.4c-2.1-1.2-4.7-1.5-7.4-0.8
		c0,0-0.1,0.1-0.2,0.1c-0.5,0.1-1,0.3-1.5,0.5c-1.8,2.4-3.6,4.9-5.2,7.5c-0.5,0.1-1,0.1-1.5,0.2c-0.1,0-0.2,0-0.3,0
		c0.2-0.3,0.3-0.5,0.5-0.8c1.2-1.8,2.3-3.5,3.6-5.2c0.7-1,1.5-2.1,2.2-3.1c0.7-0.2,1.4-0.4,2.1-0.6c0,0,0,0,0,0
		c-0.7,0.2-1.5,0.4-2.2,0.6c-0.7,1-1.5,2.1-2.2,3.1c-1.2,1.6-2.4,3.3-3.5,5c0.2-0.5,0.4-1,0.7-1.5c-0.3,0.5-0.6,1.1-1,1.6
		c-0.2,0.3-0.4,0.6-0.6,0.9c0.1,0,0.3,0,0.4,0c-0.2,0.9-0.2,1.8-0.1,2.7c0.3,2.3,1.6,4.4,3.9,5.6c2.3,1.2,5.1,1.4,7.7,0.7
		C633.8,216.4,636.2,215,637.8,212.9z"/>
	<path fill="#6241CE" d="M742.5,140.5c-1.8-1.1-3.9-1.6-6-1.6c-0.7,0-1.3,0.1-2,0.2c-2.6,0.4-4.9,1.6-6.5,3.5s-2.2,4.1-1.7,6.2
		c0.3,2.3,1.8,4.4,4.2,5.8c2.4,1.4,5.3,1.8,8,1.4c2.5-0.4,4.9-1.6,6.5-3.5c1.6-1.8,2.2-4.1,1.8-6.2
		C746.4,144,744.9,141.9,742.5,140.5z"/>
	<path fill="#6241CE" d="M629.7,186.7c-1.3,1.4-2.6,2.9-3.9,4.4c-5.7,6.9-10.4,14.5-14.3,22.6c-1.2,2.5-2.2,5-3.2,7.6
		c-1,2.7-2,5.4-2.8,8.2c-0.5,1.6-0.9,3.3-1.3,5c-0.4,1.8-0.8,3.6-1.2,5.4c-1.7,8.9-2,18.1-2.8,27.1c0,3.5,0.1,7.1,0.3,10.6
		c0.8,12.4,2.8,24.8,5.1,37.1c0.8,4.3,1.7,8.7,2.5,13c1,5.2,2.1,10.4,3.2,15.6c0.5,2.4,1.1,4.8,1.6,7.3c0.4,1.7,0.8,3.4,1.2,5.1
		c2.6,10.9,5.6,21.7,9.3,32.3c1.1,3,2.2,5.9,3.3,8.9c0.1,0.3,0.1,0.5,0.1,0.7c2.3,5.3,3.6,11.1,5.4,16.4c2.4,7.3,5,14.7,7.8,21.9
		c4.9,12.5,11,24.5,18.8,35.3c1.2-1.1,2.5-2.3,3.8-3.4c-0.5-0.8-0.9-1.5-1.4-2.3c0.6-0.4,1.3-0.8,1.9-1.3c0.4,0.7,0.8,1.3,1.2,2
		c4.9-4.4,10-8.9,15.1-13.2l-8.3-0.9l1.4-12.9c-9.9-4.3-16.4-14.7-15.2-26s9.7-20.1,20.3-22.2l1.4-12.9l14.9,1.6l-1.4,12.9
		c10,4.3,16.5,14.7,15.2,25.9c-0.7,6.8-4,12.8-9.3,17.1c-3.2,2.7-7,4.4-11,5.2l-0.7,6.1c16.1-13.2,32.5-25,46.9-32.5
		c20.1-10.5,44-23.6,70.8-34.6c-1.4-2.2-2.4-4.7-3-7.3l-12.9-0.9l1-15l12.9,0.9c3.9-10.1,14-17,25.4-16.2c11.4,0.7,20.5,8.9,23,19.4
		l12.2,0.9c43.2-10.1,108.8-22.2,150.4-28.4l-5.9-4.7c-3.3,2.3-7.2,3.8-11.4,4.3c-1,0.1-2,0.2-3,0.2c-5.7,0-11.2-1.9-15.7-5.5
		c-8.9-7-11.8-18.9-7.9-29l-10.1-8l9.3-11.8l10.2,8c3.3-2.3,7.2-3.8,11.4-4.3c6.7-0.8,13.4,1.1,18.7,5.3c1.3,1,2.4,2.1,3.4,3.3
		c-0.6-2.1-1.2-4.1-1.7-6.1c0.7,0,1.3-0.1,2-0.1c1.1,3.7,2.1,7.4,3.1,11.1c1.8,3.5,2.8,7.4,2.8,11.3c0.4,1.6,0.7,3.2,1.1,4.7
		c0,0.1,0,0.1,0,0.2c-0.2,0-0.4,0-0.6,0c-0.3,0-0.6,0-0.9,0.1c-0.3,1.5-0.7,3.1-1.3,4.5l1.8,1.4c-0.1-0.6-0.2-1.3-0.3-1.9
		c0.5,0,1.1-0.1,1.6-0.1c0.2,0,0.4,0,0.6,0c0.3,1.4,0.6,2.8,0.8,4.1l5.5,4.4l-4.1,5.3c0.1,0.6,0.1,1.2,0.2,1.9
		c0.5-0.1,1.1-0.1,1.6-0.2c5.2-0.7,11.1-1.4,17.6-2.1c-5.2-21.6-10.7-43.3-19.9-63.7c0-0.1-0.1-0.2-0.1-0.3
		c-7.2-15.4-13.3-31.3-20.3-46.8c-1.6-3.5-3.2-7-4.9-10.4c0,0-0.1,0-0.1,0.1c0,0,0,0,0,0c-3.2,1.3-6.6,2-10,2
		c-1.1,0-2.2-0.1-3.3-0.3c1.4,2.8,2.8,5.5,4,8.3c-0.1,0-0.1,0-0.2,0c-0.5,0.1-1.1,0.1-1.6,0.2c-1.4-3-2.9-6-4.4-9
		c-0.1,0-0.1,0-0.2-0.1c0,0.1,0.1,0.2,0.1,0.3c-1.3-0.3-2.7-0.8-4-1.3l-8.2,10l-11.6-9.5l0.1-0.2l0,0l8.1-9.8
		c-4.2-6.5-5.3-14.7-2.8-22c0,0,0,0,0,0c0-0.1,0-0.2,0.1-0.2c-0.4-0.6-0.7-1.2-1.1-1.7c0.6,0,1.2,0,1.7,0c0.9-2.2,2.2-4.4,3.8-6.3
		c0.9-1,1.8-2,2.8-2.9c-10.1-12.6-21.1-24.8-32.4-36.3c-13.7-14-30-22.8-47.2-31.8c-5.8-3-11.7-5.9-17.7-8.6
		c-0.1-0.1-0.2-0.1-0.3-0.2c-2-0.1-6.8,0-13.5,1c0.1,0,0.3,0.1,0.4,0.1c1.7,0.5,3.3,0.9,5,1.5c-0.8,0.2-1.6,0.4-2.4,0.5
		c-1.8-0.6-3.7-1-5.5-1.5c-0.2,0-0.3-0.1-0.5-0.1c0.6,0.2,1.2,0.3,1.8,0.5c-2.8,1.8-5.9,3.1-9.1,3.7l-1.5,12.9l-14.9-1.7l0.9-8
		c6.2-2.9,12.2-4.9,17.5-6.2c-7.5,1.9-16.4,5-25.6,10.3c-15.3,8.9-43.8,17.8-71.6,26.6c0,0,0,0.1,0,0.1c3.2-1,6.4-2,9.6-3.1l0.6,0.3
		l-7.5,8.8c6.6,7.2,7.2,17.4,0.6,25.1c-5,5.8-12.8,8.9-20.8,8.9c-2.6,0-5.2-0.3-7.8-1l-7.5,8.8l-12.2-7.2l7.5-8.8
		c-3.9-4.2-5.6-9.6-5.2-14.8c-3.5,1.4-6.3,2.5-7.7,2.9c-3.6,0.9-5.4,1-6.3,0.1c-13.6,5.8-27.3,12-40.4,19c-0.3,0.3-0.6,0.5-0.9,0.8
		c-3.1,2.9-6.1,5.8-9.1,8.8l0.1,0.1c0,0-0.1,0.1-0.1,0.1l10.9,6l-7.6,9.8c2.3,2.5,3.8,5.7,4.3,9.2c0.8,5.7-0.9,11.7-4.9,16.8
		c-2.7,3.4-6.1,6.2-9.9,8.1c-5.7,2.9-12.2,3.9-18.1,2.7l-7.6,9.9l-4.8-2.7c0,0,0,0,0,0c-0.2,0.9-0.3,1.8-0.4,2.7
		c-0.6-0.1-1.2-0.3-1.8-0.4c0.1-1.1,0.3-2.2,0.5-3.2c0.3-1.4,0.6-2.7,0.9-4c-0.4,1.3-0.7,2.6-1.1,4.2l-3-1.7
		c0.4-1.9,0.9-3.8,1.5-5.6l4.2-5.4c-0.6-0.6-1.1-1.4-1.6-2.1c1-2.6,2-5.1,3.2-7.6c3.9-8.1,8.6-15.7,14.3-22.6
		c1.3-1.6,2.7-3.2,4.1-4.7c2.3-0.3,4.6-0.3,6.8,0c0.2-0.1,0.4-0.1,0.5-0.2c0.5-0.2,0.9-0.3,1.4-0.5c-0.2,0.2-0.4,0.4-0.5,0.6
		c-1.9,2.1-3.7,4.3-5.6,6.5c-0.8,0.2-1.5,0.5-2.3,0.7c-0.1,0.1-0.1,0.1-0.2,0.2c0.8-0.2,1.6-0.5,2.4-0.7c1.8-2.2,3.6-4.4,5.5-6.5
		c0.2,0,0.4,0.1,0.6,0.1l4.6-5.9c0.1-0.1,0.1-0.1,0.2-0.1c0,0,0.1-0.1,0.1-0.1c-0.1,0.1-0.1,0.1-0.2,0.1l0.4-0.5
		c-0.1,0.1-0.1,0.1-0.2,0.2c0,0-0.1,0-0.1,0c-1,0.3-2,0.7-3,1c3.2-3.5,6.6-7,10-10.2c0.3-0.3,0.5-0.5,0.8-0.8c-4,2.3-7.9,4.6-11.8,7
		c-0.8,0.7-1.6,1.3-2.5,2c-0.9,0.8-1.8,1.5-2.6,2.3C632.6,183.5,631.1,185.1,629.7,186.7z M1011.9,281.3c-0.7,0.1-1.3,0.1-2,0.2
		c-1.1-3.9-2.3-7.8-3.6-11.7c0.6-0.1,1.3-0.2,1.9-0.2C1009.5,273.5,1010.7,277.4,1011.9,281.3z M1007,265.8
		c-0.6,0.1-1.3,0.2-1.9,0.3c-1.6-4.7-3.2-9.3-5-13.9c0.7,0,1.3-0.1,2-0.1C1003.8,256.6,1005.4,261.2,1007,265.8z M1001,249.3
		c-0.6,0.1-1.3,0.1-1.9,0.2c-0.1-0.4-0.3-0.8-0.5-1.3c-1.6-4.2-3.4-8.5-5.2-12.8c0.6-0.1,1.2-0.2,1.9-0.3
		C997.3,239.8,999.2,244.5,1001,249.3z M989,221c1.7,3.7,3.4,7.4,5,11.1c-0.6,0.1-1.2,0.2-1.8,0.3c-1.6-3.7-3.3-7.5-5-11.2
		C987.8,221.1,988.4,221.1,989,221z M907,291c-4.8,7.4-12.9,11.4-21.2,11.4c-2.4,0-4.7-0.3-7-1l-7.1,10.8l-12.5-8.2l7.1-10.8
		c-2.5-3.1-4.4-6.9-5.2-11c-1.4-6.7-0.1-13.4,3.6-19.1c6.2-9.5,17.8-13.4,28.2-10.4l7.1-10.8l12.5,8.2l-7.1,10.8
		C912.3,269.3,913.2,281.5,907,291z M926.3,130.8c-2-1.9-4-3.8-6-5.6c0.5-0.2,1-0.3,1.5-0.5c2.1,1.8,4.1,3.7,6.1,5.6
		C927.3,130.5,926.8,130.6,926.3,130.8z M955.8,163.2c2.1,2.9,4.1,5.9,6.1,8.9c-0.6,0-1.2,0.1-1.7,0.1c-2-3-4.1-6-6.2-9
		C954.6,163.2,955.2,163.2,955.8,163.2z M945,149c3.1,3.7,6,7.5,8.8,11.4c-0.6,0.1-1.1,0.1-1.7,0.2c-2.9-4-6-7.9-9.1-11.7
		C943.7,148.9,944.3,149,945,149z M937.3,140.1c1.8,2,3.6,4.1,5.4,6.1c-0.6,0.1-1.2,0.1-1.8,0.2c-1.8-2.1-3.6-4.2-5.4-6.2
		C936.1,140.2,936.7,140.1,937.3,140.1z M930.6,133c1.5,1.5,2.9,3,4.3,4.5c-0.6,0.1-1.1,0.2-1.7,0.3c-1.4-1.4-2.7-2.9-4.1-4.3
		C929.6,133.3,930.1,133.2,930.6,133z M911.2,116.1c0.8,0.6,1.6,1.2,2.4,1.9l1.4-6.7c4.6,2.9,9,6.1,13.3,9.5l-1,4.7l-8.4-1.8
		c-0.1,0-0.1,0-0.2,0.1c-0.1-0.1-0.1-0.1-0.2-0.2l-5.9-1.2l0.7-3.1c-1.2-0.9-2.4-1.9-3.6-2.8C910.2,116.4,910.7,116.2,911.2,116.1z
		 M898.5,107.2c3.4,2.1,6.8,4.4,10,6.8c-0.5,0.1-1,0.3-1.6,0.4c-3.4-2.5-6.9-4.8-10.4-7C897.2,107.3,897.8,107.3,898.5,107.2z
		 M890.8,102.7c0.7,0.4,1.4,0.8,2.1,1.2c-0.7,0-1.3,0.1-2,0.2c-0.7-0.4-1.4-0.8-2.1-1.1C889.5,102.9,890.1,102.8,890.8,102.7z
		 M882.3,98.4c1.9,0.9,3.8,1.8,5.6,2.8c-0.6,0.1-1.2,0.2-1.8,0.3c-1.8-0.9-3.6-1.8-5.5-2.6C881.2,98.7,881.8,98.6,882.3,98.4z
		 M878.5,96.7c-0.5,0.2-1.1,0.4-1.6,0.6c-2.4-1-4.8-2-7.3-2.8c0.7-0.2,1.4-0.3,2.1-0.5C874,94.9,876.3,95.8,878.5,96.7z
		 M834.9,161.8l12.2,4.2c6.4-8.7,17.9-12.7,28.7-9c6.4,2.2,11.6,6.8,14.6,12.9c1.9,3.7,2.7,7.8,2.6,11.9l12.1,4.2l-4.9,14.2L888,196
		c-2.3,3.3-5.5,6-9.3,7.8c-3.5,1.7-7.3,2.6-11.1,2.6c-2.8,0-5.6-0.5-8.3-1.4c-10.7-3.7-17.4-14-17.1-24.8L830,176L834.9,161.8z
		 M736.2,248.3c4.3-10.5,14.9-16.6,25.7-15.6l4.9-12l13.9,5.7l-4.9,12c3.2,2.6,5.7,5.9,7.3,9.8c2.7,6.3,2.7,13.1,0.1,19.3
		c-2.6,6.3-7.5,11.2-13.7,13.8c-3.2,1.3-6.5,2-9.8,2c-0.8,0-1.5,0-2.3-0.1l-4.9,12l-13.9-5.7l4.9-12c-3.2-2.6-5.7-5.9-7.3-9.8
		C733.6,261.5,733.6,254.6,736.2,248.3z M605.8,270.6c0.6,0.2,1.2,0.5,1.8,0.7c0.1,3.1,0.2,6.2,0.4,9.3c-0.6-0.1-1.2-0.2-1.8-0.4
		c0-0.7-0.1-1.3-0.1-2C606,275.7,605.8,273.1,605.8,270.6z M611.6,343.2l1-0.1l0.4,6.5C612.5,347.5,612.1,345.3,611.6,343.2z
		 M616.1,335.2c-0.6,0-1.3,0.1-1.9,0.1c-0.8-3.5-1.6-7-2.2-10.4c0.5-0.1,1.1-0.1,1.7-0.2c0.1,0,0.1,0,0.2,0c0,0,0-0.1,0-0.1
		c0,0-0.1,0-0.2,0c-0.8-1.1-1.6-2.3-2.2-3.6c0.5,0,1.1-0.1,1.7-0.2c-0.6,0.1-1.2,0.2-1.8,0.2c0,0,0,0,0,0c0,0,0-0.1,0-0.2
		c-0.6-3-1.1-6-1.6-9.1c0.4,3,1,6,1.4,9.2c-2.1-4.4-3-9.5-2.3-14.5c0,0.6,0.1,1.1,0.2,1.7c0.6-0.1,1.2-0.2,1.8-0.3
		c0-0.1,0-0.2,0-0.3c-0.6,0.1-1.2,0.2-1.8,0.3c-0.1-0.5-0.1-0.9-0.2-1.4c-0.3-2.1-0.6-4.3-0.8-6.5c-0.1-0.5-0.1-1-0.2-1.6
		c0.3-0.1,0.6-0.2,0.9-0.3c0.3-0.1,0.5-0.2,0.8-0.3c0.1,1.2,0.3,2.4,0.5,3.6c0.1-0.2,0.2-0.4,0.2-0.6c2.4-6.3,7.1-11.3,13.3-14.1
		c3.8-1.7,7.9-2.5,12-2.2l4.6-12.1l14,5.3l-4.6,12.1c3.2,2.5,5.8,5.8,7.5,9.6c2.8,6.2,3,13.1,0.6,19.4c-3.5,9.3-12.1,15.3-21.4,16.2
		c-1.3,0.1-2.6,0.1-3.9,0l-4.6,12.1l-9.8-3.7c0.8,3.2,1.6,6.4,2.4,9.5c-0.6,0.2-1.2,0.4-1.8,0.5c-0.9-3.6-1.8-7.3-2.7-10.9l-2.1-0.8
		l4.6-12.1c-1.6-1.3-3-2.7-4.3-4.4C614.7,328.6,615.3,331.9,616.1,335.2z M623.7,364.6c-0.6,0.2-1.2,0.4-1.9,0.6
		c-0.7-2.7-1.5-5.3-2.2-7.9c0.6-0.1,1.2-0.3,1.8-0.6c0.5,1.6,0.9,3.3,1.4,4.9C623.1,362.6,623.4,363.6,623.7,364.6z M626.4,380
		c-0.9-2.8-1.8-5.7-2.7-8.5c0.4,1.8,0.6,3.7,0.8,5.6c0.2,3.8-0.1,7.4-0.9,10.7c-3.7-10.5-6.6-21.2-9.2-32c1.8,1,3.5,2.7,5,4.9
		c1.6,2.4,2.9,5.2,3.7,8.4c0.6-0.2,1.1-0.4,1.7-0.6c1.1,3.8,2.3,7.6,3.5,11.3c-0.3,0-0.5,0.1-0.8,0.1C627.2,380,626.8,380,626.4,380
		z M632.2,397.1c-1.6-4.4-3.1-8.9-4.6-13.3c0.6-0.1,1.3-0.2,1.9-0.4c1.5,4.4,3,8.8,4.6,13.2C633.4,396.8,632.8,397,632.2,397.1z
		 M633.6,400.9c0.6-0.2,1.3-0.4,1.9-0.5c1.4,4,2.9,7.9,4.4,11.8c-0.6,0.2-1.2,0.4-1.8,0.7C636.5,408.9,635,404.9,633.6,400.9z
		 M641.8,422.3c-0.8-1.9-1.5-3.9-2.3-5.8c0.6-0.2,1.2-0.5,1.9-0.7c1.6,4,3.1,7.9,4.8,11.9c-0.7,0.1-1.4,0.2-2.1,0.4
		C643.3,426.1,642.5,424.2,641.8,422.3z M645.6,431.9c0.7-0.1,1.4-0.2,2.1-0.4c2,4.7,4,9.3,6.1,14c-0.6,0.4-1.3,0.7-1.9,1.1
		C649.7,441.8,647.6,436.9,645.6,431.9z M661.4,460.7c-0.6,0.5-1.2,0.9-1.9,1.3c-2.2-3.9-4.2-7.9-6.1-11.9c0.7-0.3,1.3-0.7,2-1
		C657.3,453,659.2,456.9,661.4,460.7z M608.7,289c0,0.3,0.1,0.7,0.1,1c0.1,1.5,0.3,2.9,0.4,4.4c-0.6,0.2-1.2,0.4-1.7,0.6
		c-0.4-3.6-0.8-7.2-1-10.8c0-0.1,0-0.1,0-0.2c0.6,0.2,1.2,0.3,1.8,0.4C608.4,286,608.5,287.5,608.7,289z M606.4,243.7
		c0.6,0.1,1.2,0.3,1.8,0.4c-0.4,3.5-0.5,7.1-0.7,10.7c0,0.2,0,0.5,0,0.7c-0.6,0-1.2,0-1.8,0C605.8,251.5,606,247.6,606.4,243.7z
		 M605.6,258.8c0.6,0.1,1.2,0.2,1.8,0.3c0,2.6,0,5.3,0,7.9c-0.6-0.2-1.2-0.4-1.8-0.7C605.6,263.8,605.5,261.3,605.6,258.8z"/>
	<path fill="#6241CE" d="M643.5,180.8c1.1-1.1,2.1-2.2,3.2-3.3C645.7,178.5,644.6,179.7,643.5,180.8z"/>
	<path fill="#6241CE" d="M610.1,232.5c-0.4,1.4-0.7,2.9-0.9,4.4C609.4,235.4,609.7,234,610.1,232.5z"/>
	<path fill="#6241CE" d="M623.9,202.1c-0.6,0.6-1.3,1.2-1.8,1.9C622.7,203.3,623.3,202.7,623.9,202.1z"/>
	<path fill="#6241CE" d="M988.5,195.2c0.5-0.1,0.9-0.2,1.3-0.2c0.1,0,0.1,0,0.2,0c0,0,0,0,0,0c0,0,0.1,0,0.1,0
		c-3.3-5.8-6.8-11.4-10.6-16.9c-0.1,0.1-0.2,0.2-0.3,0.3c-1.8,2.1-2.5,4.8-2.3,7.4c0.2,2.7,1.5,5.4,3.7,7.2c2,1.6,4.4,2.4,6.7,2.4
		c0.3,0,0.7,0,1-0.1C988.4,195.2,988.4,195.2,988.5,195.2z"/>
	<path fill="#7A44B3" d="M990,194.9c-0.1,0-0.1,0-0.2,0c-0.4,0.1-0.9,0.2-1.3,0.2c-0.1,0-0.1,0-0.2,0c-0.3,0-0.7,0.1-1,0.1
		c-2.4,0-4.9-0.7-6.8-2.4c-2.3-1.9-3.5-4.5-3.7-7.2c-0.2-2.6,0.6-5.2,2.3-7.4c0.1-0.1,0.2-0.2,0.3-0.3c-1.7-2.4-3.4-4.8-5.2-7.1
		c-1.3-1.7-2.6-3.3-3.9-5c-0.9,0.9-1.8,1.8-2.7,2.9c-1.6,2-2.9,4.1-3.8,6.3c2.5,3.9,5,7.9,7.3,11.9c-0.6,0-1.2,0-1.8,0
		c-2-3.4-4.1-6.8-6.2-10.1c0,0,0,0,0,0c-2.5,7.3-1.4,15.5,2.8,22c0,0,0,0,0,0l-8.1,9.8l-0.1,0.2l11.6,9.5l8.2-10
		c1.3,0.5,2.7,1,4,1.3c0-0.1-0.1-0.2-0.1-0.3c-0.6-1.1-1.1-2.2-1.7-3.4c0.6,0,1.2,0,1.8-0.1c0.7,1.4,1.4,2.7,2.1,4.1
		c0.1,0,0.1,0,0.2,0c1.1,0.2,2.2,0.3,3.3,0.3c3.4,0,6.8-0.7,10-2c0,0,0,0,0,0C994.9,203.8,992.5,199.3,990,194.9
		C990,194.9,990,194.9,990,194.9z M978.3,203.1c-2.3-4.5-4.7-8.9-7.3-13.3c0.6,0,1.2,0.1,1.8,0.1c0.9,1.5,1.7,2.9,2.5,4.4
		c1.6,2.9,3.2,5.8,4.7,8.7C979.4,203,978.8,203.1,978.3,203.1z"/>
	<path fill="#6241CE" d="M1187.9,191.1c0.2,0.1,0.3,0.3,0.5,0.4C1188.2,191.4,1188,191.2,1187.9,191.1z"/>
	<path fill="#6241CE" d="M922.9,112.3c7.5,5.3,14,11.7,20.3,18.4c12.4,13.2,24.6,26.9,35.6,41.4c14.4,19.2,24.1,40.7,33.5,62.5
		c2.2-4.4,5.6-7.9,9.7-10.3c-1.3-2.2-2.5-4.4-3.8-6.6c0.6-0.2,1.3-0.3,1.9-0.5c1.9,3.3,3.9,6.6,5.8,9.9h0c-0.7-1.2-1.4-2.4-2.1-3.6
		c0.9-0.4,1.9-0.9,2.9-1.2c4-1.3,8.2-1.7,12.2-1l5.7-11.6l13.4,6.6l-5.7,11.6c3,2.8,5.3,6.3,6.6,10.3c2.1,6.4,1.7,13.3-1.3,19.4
		c-2.4,4.9-6.2,8.6-10.6,11c1.5,3.3,3,6.7,4.4,10c-0.9,0-1.7,0.1-2.5,0.1c-1.3-3-2.6-6.1-4-9.2c-3.1,1.4-6.6,2.1-10.1,2.1
		c-1.3,0-2.6-0.1-3.9-0.3l-1.3,2.5c0.1-0.3,0.1-0.7-0.1-1.1c0,0,0-0.1,0-0.1c0,0,0,0.1,0,0.1c0.2,0.4,0.2,0.8,0.1,1.1
		c3.6,8.3,6.6,16.8,9.1,25.6c2.9,9.7,5.9,19.6,8.3,29.6c5.5-0.6,11.4-1.1,17.7-1.7c-1-4.2-2-8.4-3.2-12.6c0.8,0,1.7,0,2.5,0
		c1.2,4.1,2.2,8.2,3.2,12.4c45.2-3.9,107.1-6.8,165.7-4.6c-0.6-7.5-2.9-20.8-9.8-40c-11.4-31.7-13.2-36.2-21.5-55.4
		c-2.7-6.1-4.2-11.2-5.2-15.6l-6.5,6.8l-10.9-10.4l9-9.3c-1.6-2.9-2.6-6.1-3-9.4c0.8,0.6,1.6,1.2,2.4,1.8
		c-6.6-5.4-16.9-11.6-32.9-21.8c-17.8-11.3-73.6-36.2-119.5-47.8c-45.9-11.6-79.4-22.1-105.2-24.4c-17.4-1.5-33.6-3.3-42.4-4.4
		c0.2,0.1,0.3,0.2,0.5,0.2c3.4,1.7,6.8,3.5,10.1,5.4C906.5,102.5,915.1,106.8,922.9,112.3z M923.7,110.2c-2.2-1.5-4.4-2.9-6.7-4.3
		c-1.8-1.1-3.6-2.2-5.4-3.3c-1.1-0.6-2.1-1.2-3.2-1.8c0.7,0,1.4-0.1,2.2-0.1c1,0.6,2,1.2,3,1.8c1.8,1.1,3.7,2.2,5.5,3.3
		c2.1,1.3,4.2,2.7,6.2,4.1C924.8,109.9,924.2,110.1,923.7,110.2z M934.2,117.7c-2.4-1.8-4.8-3.6-7.3-5.3c0.6-0.1,1.1-0.2,1.7-0.3
		c2.4,1.6,4.7,3.3,7,5.1C935.1,117.3,934.6,117.5,934.2,117.7z M944.1,125.7c-2.4-2.1-4.9-4.1-7.4-6c0.5-0.1,1.1-0.3,1.6-0.4
		c2.5,2,5,4,7.4,6C945.2,125.4,944.7,125.5,944.1,125.7z M956,136.3c-2.8-2.6-5.6-5.2-8.5-7.8c0.6-0.1,1.2-0.2,1.7-0.3
		c3,2.6,5.9,5.3,8.8,8C957.4,136.3,956.7,136.3,956,136.3z M966.4,146.8c-2.3-2.4-4.7-4.9-7.1-7.2c0.7,0,1.4,0,2.2,0
		c2.4,2.4,4.8,4.8,7.1,7.3C967.9,146.9,967.2,146.8,966.4,146.8z M978,159.8c-2.5-2.9-5-5.8-7.5-8.6c0.8,0.1,1.6,0.2,2.4,0.3
		c2.5,2.7,4.9,5.5,7.3,8.3C979.4,159.8,978.7,159.8,978,159.8z M988.6,173c-2.4-3.2-4.9-6.3-7.4-9.4c0.7,0.1,1.5,0.1,2.2,0.2
		c2.5,3.1,5,6.2,7.4,9.4C990,173.1,989.3,173,988.6,173z M999.2,187.5c-2.5-3.6-5.1-7.2-7.7-10.7c0.8,0.1,1.5,0.2,2.3,0.3
		c2.6,3.5,5.1,7,7.5,10.5C1000.6,187.6,999.9,187.6,999.2,187.5z M1008.9,201.1c-0.2,0-0.5,0-0.7,0c-2.1-3.2-4.2-6.5-6.3-9.7
		c0.7,0,1.4,0.1,2.1,0.1c2.1,3.1,4.2,6.2,6.2,9.4C1009.8,201,1009.3,201,1008.9,201.1z M1016.2,214.2c-1.9-3.1-3.7-6.3-5.7-9.4
		c0.7,0,1.4,0,2-0.1c1.7,2.7,3.4,5.5,5.1,8.3c0.2,0.3,0.3,0.5,0.5,0.8C1017.5,214,1016.9,214.1,1016.2,214.2z M1027.5,140l-12.8-1.6
		c-4.2,6.2-13.8,9.9-24.3,9.2c-0.7-0.1-1.3-0.1-2-0.2c-11.3-1.3-19.9-7.5-21.8-14.8l-12.8-1.6l1.8-10l12.8,1.6
		c4.4-6.5,14.9-10.4,26.2-9c11.3,1.3,19.9,7.5,21.8,14.8l13,1.6L1027.5,140z M1050.5,282.5c0.8-0.1,1.6-0.1,2.5-0.2
		c1.7,4.2,3.3,8.4,4.8,12.6c-0.8,0.1-1.6,0.2-2.4,0.3C1053.8,291,1052.2,286.7,1050.5,282.5z M1060.4,310.5
		c-1.2-3.8-2.4-7.6-3.7-11.5c0.8-0.1,1.6-0.2,2.4-0.3c1.4,3.9,2.6,7.9,3.8,11.8C1062.1,310.5,1061.2,310.5,1060.4,310.5z
		 M1097.2,179.3c-6.4-1.6-11.8-4.7-15-8.7c-2-2.5-3-5.1-3.1-7.7l-12.4-3.1l4.2-8.9l12.4,3.1c6-5.4,17.3-7.5,28.2-4.8
		c10.8,2.8,18,9.5,18.1,16.4l12.4,3.2l-4.2,8.9l-12.4-3.1c-5,4.4-13.7,6.6-22.7,5.7C1100.9,180.1,1099,179.8,1097.2,179.3z
		 M1181.6,279.1l-3.5,14.6l-12.6-3c-4.5,7.6-12.8,12.4-21.8,12.4c-2,0-4-0.2-6-0.7c-11.1-2.7-18.7-12.3-19.4-23.1l-12.6-3l3.5-14.6
		l12.6,3c2.1-3.5,5-6.5,8.6-8.7c5.8-3.5,12.6-4.6,19.2-3c11.1,2.7,18.7,12.3,19.4,23.1l-16.6-4c-1.4-2.2-3.7-3.8-6.3-4.5
		c-0.8-0.2-1.6-0.3-2.4-0.3c-1.8,0-3.6,0.5-5.2,1.4c-2.4,1.4-4.2,3.7-4.9,6.5c-0.7,2.9-0.1,5.8,1.4,8c1.4,2.2,3.6,3.8,6.3,4.5
		c2.6,0.7,5.3,0.3,7.6-1c0.1,0,0.1-0.1,0.2-0.1c2.4-1.4,4-3.7,4.7-6.4c0.6-2.7,0.2-5.5-1.2-7.8c0-0.1-0.1-0.1-0.1-0.2l16.6,4
		L1181.6,279.1z M898.4,95.1c0.5,0,1-0.1,1.5-0.1c2.3,1.1,4.5,2.3,6.8,3.5c-0.6,0.2-1.3,0.2-1.9,0.3c-2.3-1.2-4.7-2.4-7-3.6
		C898,95.2,898.2,95.1,898.4,95.1z"/>
	<path fill="#6241CE" d="M1044.5,268.6c-0.5-1.1-1-2.2-1.5-3.2C1043.5,266.5,1044,267.6,1044.5,268.6z"/>
	<path fill="#6241CE" d="M1190.2,193.2C1190.2,193.2,1190.2,193.2,1190.2,193.2c-0.2-0.2-0.4-0.4-0.6-0.6
		C1189.8,192.8,1190,193,1190.2,193.2z"/>
	<path fill="#6241CE" d="M1114.3,166.7c0.8-1.7,0.4-3.6-1-5.2c-1.3-1.5-3.4-2.7-6-3.4s-5.3-0.6-7.6,0c-2.4,0.7-4.4,2-5.2,3.7
		c-0.8,1.7-0.5,3.5,0.8,5.1l0.1,0.1c1.3,1.5,3.4,2.8,6,3.4c2.7,0.7,5.4,0.6,7.7,0C1111.5,169.7,1113.5,168.4,1114.3,166.7z"/>
	<path fill="#6241CE" d="M999.4,126.2c-1.6-1.4-4-2.5-6.7-2.8c-2.7-0.3-5.3,0.1-7.4,1.1c-2.2,1-3.7,2.6-4.1,4.6
		c-0.3,2,0.6,3.9,2.3,5.4c1.6,1.4,4,2.5,6.7,2.8c2.8,0.3,5.4-0.1,7.4-1.1c2.2-1,3.7-2.6,4.1-4.6
		C1002,129.6,1001.1,127.7,999.4,126.2z"/>
	<path fill="#6241CE" d="M1035.4,244.6c-0.8,0.1-1.6,0.3-2.3,0.4c-2.4-4.7-4.8-9.2-7.3-13.9c0,0,0,0-0.1,0c1.2,2.2,2.4,4.3,3.5,6.5
		c-1.6,1-2.9,2.4-3.7,4.1c-1.2,2.5-1.4,5.3-0.6,7.7c0.8,2.6,2.7,4.9,5.3,6.2c2.7,1.3,5.6,1.3,8.2,0.4c0,0,0,0,0,0c0,0,0,0,0,0
		c0.9,2,1.8,3.9,2.7,5.8c0.8-0.1,1.7-0.2,2.5-0.3c0-0.1-0.1-0.2-0.1-0.3c-0.7,0.1-1.5,0.2-2.3,0.3c-2.1-4.3-4.2-8.7-6.4-13.1
		c0.8-0.1,1.6-0.2,2.4-0.4c1.1,2.3,2.3,4.6,3.4,6.9c1.3-1,2.6-2.3,3.4-3.9c1.2-2.4,1.4-5.2,0.6-7.7c-0.1,0-0.1-0.1-0.1-0.2
		c-0.9-2.7-2.7-4.8-5.2-6s-5.3-1.4-7.9-0.5c0,0-0.1,0.1-0.2,0.1C1032.6,239.3,1034,241.9,1035.4,244.6z"/>
	<path fill="#7A44B3" d="M548.2,362.7c-2,7.9-0.2,16.3,3.9,20.9l-2.3,9l6.9,3.4l2.3-9c2,0.1,4-0.6,5.9-2c3-2.2,5.4-6.1,6.5-10.8
		c1.3-4.7,1.2-9.7-0.2-14.1c-0.8-2.7-2.1-5-3.7-6.8l2.3-9l-6.9-3.4l-2.3,9c-2-0.1-4,0.6-5.9,2C551.7,354.1,549.3,358,548.2,362.7z
		 M555,366.1c0.5-1.9,1.4-3.4,2.6-4.3l0.1-0.1c1.2-0.9,2.6-1.1,3.9-0.4c1.3,0.6,2.3,2,2.8,3.8c0,0.1,0,0.1,0,0.2
		c0.6,1.7,0.7,3.7,0.2,5.5c-0.5,1.9-1.4,3.4-2.6,4.3c-1.2,1-2.6,1.2-4,0.5s-2.4-2.1-2.9-3.9C554.6,370,554.6,368,555,366.1z"/>
	<path fill="#7A44B3" d="M622.2,392.2c-5.9-15.9-10-32.2-13.5-48.7l-0.1,0l-4.2,0.3l0.5,7.7c0.3,1.5,0.7,2.9,1,4.4
		c-0.1,0-0.2,0-0.3,0c-0.2,0-0.4,0-0.5,0c-2,1.2-3.9,3.3-5.3,6.1c-2.4,4.6-3.5,10.6-3.1,16.9c0.6,10.5,5.3,19.2,11.2,21.9l0.7,12
		l8.1-0.7l-0.7-12c0.7-0.4,1.4-0.9,2-1.5c0,0,0,0,0,0c-0.3-1.1-0.6-2.1-0.9-3.2c0,0,0,0,0,0c0.5,0,0.9,0.1,1.4,0.2
		c0.2,0.6,0.4,1.2,0.6,1.9c1.2-1.4,2.2-3.1,3-5.1C622.2,392.4,622.2,392.4,622.2,392.2C622.2,392.3,622.2,392.2,622.2,392.2z
		 M605.1,359.6c0.2,0,0.4,0,0.6,0c0.3,0,0.7,0.1,1,0.1c0.7,2.7,1.4,5.4,2.2,8c-0.2,0-0.5,0-0.8,0.1c-0.2,0-0.5,0.1-0.8,0.1
		C606.6,365.2,605.8,362.4,605.1,359.6L605.1,359.6z M616.8,394.6C616.9,394.8,616.5,394.5,616.8,394.6L616.8,394.6z M616.9,391.3
		c-0.4,0-0.8,0-1.2,0.1c0,0-0.1,0-0.1,0c0,0,0,0,0,0c-0.7-1.7-1.3-3.4-1.9-5.1c0,0-0.1,0.1-0.1,0.1c-0.7,0.7-1.5,1.1-2.4,1.1
		c-1.8,0.1-3.3-1-4.5-2.7c-1.1-1.7-1.8-4-2-6.5c-0.1-2.5,0.3-4.9,1.2-6.7c0-0.1,0.1-0.1,0.1-0.2c1-1.9,2.4-3,3.9-3.1s3,0.8,4.2,2.6
		c0,0.1,0.1,0.1,0.1,0.2c1.1,1.7,1.8,4,2,6.5c0.2,2.6-0.3,4.9-1.2,6.7c-0.1,0.3-0.3,0.5-0.4,0.8c0.7,2,1.5,4,2.3,6
		c0,0.1,0.1,0.2,0.1,0.2C617,391.3,616.9,391.3,616.9,391.3z"/>
	<path fill="#7A44B3" d="M743.5,277.5l-4.9,12l13.9,5.7l4.9-12c0.8,0.1,1.5,0.1,2.3,0.1c3.3,0,6.6-0.7,9.8-2
		c6.2-2.6,11.1-7.5,13.7-13.8c2.6-6.2,2.6-13-0.1-19.3c-1.6-3.9-4.1-7.2-7.3-9.8l4.9-12l-13.9-5.7l-4.9,12
		c-10.8-1-21.4,5.1-25.7,15.6c-2.6,6.3-2.6,13.2,0,19.4C737.8,271.6,740.3,274.9,743.5,277.5z M750.1,254c1.1-2.6,3-4.5,5.4-5.5
		c1.3-0.6,2.8-0.9,4.2-0.9c1.3,0,2.6,0.2,3.9,0.8c2.6,1,4.6,3,5.6,5.6c0,0.1,0,0.2,0.1,0.2c1.1,2.5,1,5.2,0,7.7
		c-1,2.6-3,4.5-5.4,5.5c-2.5,1.1-5.4,1.3-8.2,0.1c-2.6-1.1-4.6-3-5.6-5.6c0-0.1-0.1-0.1-0.1-0.2C749,259.2,749,256.5,750.1,254z"/>
	<path fill="#7A44B3" d="M842.2,180.2c-0.3,10.8,6.4,21.1,17.1,24.8c2.7,0.9,5.5,1.4,8.3,1.4c3.8,0,7.6-0.9,11.1-2.6
		c3.8-1.8,7-4.5,9.3-7.8l12.2,4.2l4.9-14.2l-12.1-4.2c0.1-4.1-0.7-8.2-2.6-11.9c-3-6.1-8.2-10.7-14.6-12.9
		c-10.8-3.7-22.3,0.3-28.7,9l-12.2-4.2L830,176L842.2,180.2z M857.9,177.7c1-2.8,3-4.9,5.5-6c1.3-0.6,2.8-1,4.3-1
		c1.1,0,2.2,0.2,3.4,0.6c2.5,0.9,4.6,2.7,5.8,5c0,0.1,0.1,0.1,0.1,0.2c1.2,2.5,1.4,5.3,0.5,7.9c-0.4,1.3-1.1,2.5-2,3.5
		s-2,1.8-3.2,2.4c-0.1,0-0.1,0.1-0.2,0.1c-2.5,1.1-5.3,1.3-7.8,0.4c-2.6-0.9-4.6-2.8-5.8-5C857.2,183.4,856.9,180.5,857.9,177.7z"/>
	<path fill="#7A44B3" d="M900,241.9l-7.1,10.8c-10.4-3-22,0.9-28.2,10.4c-3.7,5.7-5,12.4-3.6,19.1c0.8,4.1,2.7,7.9,5.2,11l-7.1,10.8
		l12.5,8.2l7.1-10.8c2.3,0.7,4.6,1,7,1c8.3,0,16.4-4,21.2-11.4c6.2-9.5,5.3-21.7-1.6-30.1l7.1-10.8L900,241.9z M894.5,282.8
		c-1.5,2.3-3.8,3.8-6.3,4.4c-2.7,0.6-5.6,0.2-8-1.4c-2.3-1.5-3.9-3.8-4.5-6.6c0-0.1,0-0.2,0-0.2c-0.5-2.6,0-5.3,1.5-7.5
		c1.5-2.3,3.8-3.8,6.3-4.4c0.8-0.2,1.6-0.3,2.4-0.3c2,0,3.9,0.5,5.7,1.7c1.2,0.8,2.2,1.8,3,3s1.3,2.5,1.5,3.8
		C896.5,277.7,896,280.4,894.5,282.8z"/>
	<path fill="#7A44B3" d="M828,341.2c-11.4-0.8-21.5,6.1-25.4,16.2l-12.9-0.9l-1,15l12.9,0.9c0.6,2.6,1.7,5.1,3,7.3
		c4.8-2,9.7-3.9,14.6-5.7c-0.2-0.2-0.3-0.3-0.5-0.5c-1.9-2-2.9-4.8-2.7-7.7c0.2-2.9,1.6-5.5,3.7-7.3c1.8-1.5,4.1-2.4,6.6-2.4
		c0.2,0,0.5,0,0.7,0c2.8,0.2,5.2,1.5,6.9,3.3c1.8,2,2.9,4.8,2.7,7.7c0,0.4-0.1,0.8-0.1,1.1c3.7-1.1,7.5-2.2,11.2-3.1
		c4.7-1.2,9.9-2.5,15.4-3.7l-12.2-0.9C848.5,350.1,839.4,341.9,828,341.2z"/>
	<path fill="#7A44B3" d="M698.6,435.5c5.3-4.3,8.6-10.3,9.3-17.1c1.3-11.2-5.2-21.6-15.2-25.9l1.4-12.9l-14.9-1.6l-1.4,12.9
		c-10.6,2.1-19.1,10.9-20.3,22.2s5.3,21.7,15.2,26l-1.4,12.9l8.3,0.9c2.4-2.1,4.9-4.1,7.3-6.1l0.7-6.1
		C691.6,439.9,695.4,438.2,698.6,435.5z M681.6,426.2c-1.5-0.2-2.8-0.6-4-1.3c-1.2-0.7-2.2-1.6-3.1-2.7c-1.6-2-2.4-4.7-2.1-7.4
		c0.3-2.8,1.7-5.1,3.6-6.8c2.1-1.8,4.9-2.7,7.8-2.4c2.8,0.3,5.2,1.6,7,3.8c0.1,0.1,0.1,0.1,0.2,0.2c1.6,2,2.3,4.7,2,7.4
		s-1.6,5.1-3.6,6.8c-0.1,0-0.1,0.1-0.2,0.2C687.1,425.7,684.3,426.5,681.6,426.2z"/>
	<path fill="#7A44B3" d="M603,315.7c-1.9-9.8-3.6-19.6-4.5-29.5c0-0.1,0-0.3,0-0.4c-0.1-1.2-0.2-2.3-0.3-3.5
		c-0.1-2.1-0.3-4.3-0.3-6.4c-1.1-0.6-2.1-1.1-3.2-1.5c-0.1,0-0.1,0-0.2-0.1c0.1,2.3,0.3,4.5,0.5,6.8c0,0.4,0.1,0.9,0.1,1.3
		c-0.6,0-1.1,0.1-1.7,0.1c0,0-0.1,0-0.1,0c-0.3-3-0.5-5.9-0.7-8.9c-0.3-0.1-0.6-0.2-0.9-0.3c-3.3-0.9-6.5-1.1-9.5-0.6l-3-3.9
		c-0.1,1.6-0.1,3.2-0.2,4.6c-0.1,8.2,0.8,16.9,1.7,24.3c0.3,2.6,0.6,5.1,0.9,7.3c0,0,0,0,0,0.1c0,0,0,0,0,0c4.9,2.7,10.4,3.8,15.3,3
		l6.2,7.9l0,0C603,315.8,603,315.8,603,315.7z M596.8,301.3C596.8,301.3,596.9,301.3,596.8,301.3c0.3,2.1,0.5,4.2,0.8,6.3
		c0,0-0.1,0-0.1,0c-0.6-0.2-1.1-0.2-1.6-0.3c-0.2-1.9-0.4-3.9-0.6-5.8C595.8,301.4,596.2,301.4,596.8,301.3z M581.4,288.2
		c0.2-1.9,1.2-3.5,3-4.5s4.1-1,6.2-0.4c1.7,0.5,3.3,1.4,4.6,2.8c0.1,0,0.1,0,0.2,0c0,0,0,0.1,0,0.1c0,0,0,0.1,0,0.1c0,0,0,0,0,0
		c0.2,0.2,0.3,0.4,0.5,0.6c1.4,1.7,1.9,3.7,1.7,5.4c-0.1,1.2-0.6,2.3-1.4,3.1c0,0,0,0,0,0.1c0.1,0.8,0.1,1.7,0.2,2.5
		c-0.5,0.1-1,0.2-1.5,0.3c0,0-0.1,0-0.1,0c-0.1-0.5-0.1-1.1-0.2-1.6l-0.1,0.1c-1.7,1-3.9,1-6.1,0.4c-2-0.6-3.9-1.8-5.3-3.6
		C581.7,291.9,581.2,289.9,581.4,288.2z"/>
	<path fill="#7A44B3" d="M566.1,422.4l5.1,8.5c-0.6,2.3-0.8,5-0.5,8.1c0.5,5,2.3,10.2,5,14.6c4.4,7.3,10.2,10.8,14.4,9.2
		c0.1,0,0.2-0.1,0.3-0.1l5.1,8.5l4.2-5.7l-5.1-8.5c1.6-5.9-0.1-15.1-4.6-22.6c-2.7-4.5-5.9-7.6-9.2-9c-2-0.8-3.9-0.9-5.4-0.2
		l-5.1-8.5L566.1,422.4z M578.8,437.2c0.3-0.4,0.7-0.7,1.2-0.9c0.6-0.2,1.3-0.2,2.1,0.1c0,0,0.1,0,0.1,0.1c1.3,0.6,2.6,1.8,3.6,3.6
		c1.1,1.8,1.8,3.9,2,5.8c0.2,2.1-0.1,3.9-0.9,5c-0.8,1.1-2.1,1.3-3.4,0.7c-1.2-0.6-2.5-1.8-3.6-3.6s-1.8-3.8-2-5.8
		c0-0.1,0-0.1,0-0.2C577.7,440,578,438.3,578.8,437.2z"/>
	<path fill="#583688" d="M525.5,479.9c-1.5-8.8-5.6-15.8-9.9-17.6l-1.7-10l-5.6,1l1.7,10c-1.3,1.2-2.4,3.1-3.1,5.6
		c-1.2,4-1.3,9.1-0.4,14.4c0.9,5.2,2.7,10,5.2,13.4c1.5,2.1,3.1,3.5,4.8,4.2l1.7,10l5.6-1l-1.7-10
		C525.5,496.6,527,488.7,525.5,479.9z M519.7,486.6c-0.4,1.7-1.3,2.8-2.4,3c-1,0.2-2.2-0.5-3.2-1.9l-0.1-0.1c-1-1.4-1.7-3.3-2-5.3
		c-0.4-2.1-0.3-4.1,0.1-5.7c0-0.1,0-0.1,0-0.2c0.5-1.6,1.3-2.6,2.4-2.8c1.1-0.2,2.3,0.6,3.2,2c0.9,1.3,1.7,3.2,2,5.3
		C520.2,483,520.1,485,519.7,486.6z"/>
	<path fill="#583688" d="M561.8,574.6c-4.7-7.2-13.4-14.6-21.2-18.4l-5.3-8.1l-9.5-2.6l5.3,8.2c-5.2,0.2-6,4.9-1.3,12.1
		c2.5,3.9,6.2,7.8,10.4,11.2c3.5,2.9,7.3,5.4,10.9,7.2l5.3,8.2l9.5,2.6l-5.4-8.3C565.7,586.5,566.5,581.8,561.8,574.6z M553.5,576
		c-0.4,0.9-1.5,1.2-3.4,0.7s-4-1.8-6.1-3.3c-1.8-1.6-3.6-3.4-4.7-5.1c-1.1-1.7-1.5-3.1-1.1-4c0.4-0.9,1.5-1.2,3.4-0.7
		s4.1,1.8,6.1,3.4c0.2,0.1,0.3,0.3,0.5,0.4c1.7,1.4,3.2,3,4.2,4.6C553.5,573.7,553.9,575.1,553.5,576z"/>
	<path fill="#7A44B3" d="M639.5,465.3c-1.2-3.4-2.8-6.3-4.8-8.3l1.2-8.6l0.1-1.1l0.3-1.9l-8-3.9l-1.6,11.5c-2.2,0-4.4,1-6.3,2.9
		c-3.1,3-5.3,8-6.2,14c-0.8,6-0.2,12.4,1.7,17.9c1.2,3.4,2.8,6.3,4.8,8.3l-1.6,11.5l2.4,1.2c2.2-2.5,4.6-5.1,7-7.7l0.1-1.1
		c0.1,0,0.2,0,0.3,0c0.2,0,0.4,0,0.6-0.1c2.7-2.8,5.5-5.7,8.4-8.6c0.5-0.5,1.1-1.1,1.7-1.7c0.7-2,1.3-4.2,1.6-6.5
		C642.1,477.2,641.5,470.8,639.5,465.3z M633.3,479.2c-0.3,2.4-1.2,4.4-2.4,5.6l-0.1,0.1c-1.3,1.2-2.8,1.5-4.3,0.8
		c-0.7-0.4-1.4-1-2-1.7c-0.6-0.8-1.1-1.8-1.5-2.9c0-0.1,0-0.1-0.1-0.2c-0.7-2.2-1-4.7-0.6-7.1c0.3-2.4,1.2-4.4,2.4-5.6l0.1-0.1
		c0.8-0.7,1.6-1.1,2.5-1.2c0.6,0,1.2,0.1,1.8,0.4c1.5,0.7,2.7,2.4,3.5,4.6c0,0.1,0,0.1,0.1,0.2C633.4,474.3,633.6,476.8,633.3,479.2
		z"/>
	<path fill="#7A44B3" d="M1027.1,324.6l-5.5-4.4l-2.7-2.1l-1.8-1.4c0.6-1.5,1-3,1.3-4.5c0.3-1.7,0.5-3.3,0.4-5
		c-0.1-3.9-1-7.8-2.8-11.3c-0.9-1.7-2-3.4-3.3-4.9c-1-1.2-2.2-2.3-3.4-3.3c-5.3-4.2-12-6.1-18.7-5.3c-4.2,0.5-8.1,2-11.4,4.3
		l-10.2-8l-9.3,11.8l10.1,8c-3.9,10.1-1,22,7.9,29c4.5,3.6,10,5.5,15.7,5.5c1,0,2-0.1,3-0.2c4.2-0.5,8.1-2,11.4-4.3l5.9,4.7
		c2.7-0.4,5.2-0.8,7.7-1.1l1.7-2.1L1027.1,324.6z M1001.5,313.9c-0.9,1.1-1.9,2-3.1,2.6c-1.2,0.7-2.5,1.1-3.9,1.2
		c-0.1,0-0.2,0-0.2,0c-2.5,0.4-5.2-0.4-7.3-2c-2.2-1.7-3.5-4.1-3.8-6.7c-0.4-2.7,0.3-5.6,2.1-7.9c1.7-2.2,4.2-3.5,6.9-3.9
		c0.1,0,0.2,0,0.2,0c0.3,0,0.7-0.1,1-0.1c2.3,0,4.6,0.8,6.4,2.2c2.2,1.7,3.5,4.1,3.8,6.7C1004,308.7,1003.3,311.6,1001.5,313.9z"/>
	<path fill="#7A44B3" d="M1141.3,287.7c-2.7-0.7-4.9-2.3-6.3-4.5c-1.5-2.2-2.1-5.1-1.4-8c0.7-2.8,2.5-5.1,4.9-6.5
		c1.6-0.9,3.4-1.4,5.2-1.4c0.8,0,1.6,0.1,2.4,0.3c2.6,0.7,4.9,2.3,6.3,4.5l16.6,4c-0.7-10.8-8.3-20.4-19.4-23.1
		c-6.6-1.6-13.4-0.5-19.2,3c-3.6,2.2-6.5,5.2-8.6,8.7l-12.6-3l-3.5,14.6l12.6,3c0.7,10.8,8.3,20.4,19.4,23.1c2,0.5,4,0.7,6,0.7
		c9,0,17.3-4.8,21.8-12.4l-16.6-4C1146.6,288,1143.9,288.4,1141.3,287.7z"/>
	<path fill="#7A44B3" d="M1152.5,272.2c0,0.1,0.1,0.1,0.1,0.2c1.4,2.3,1.8,5.1,1.2,7.8c-0.7,2.7-2.3,5-4.7,6.4
		c-0.1,0-0.1,0.1-0.2,0.1l16.6,4l12.6,3l3.5-14.6l-12.5-2.9L1152.5,272.2z"/>
	<path fill="#7A44B3" d="M1125.4,174.6l12.4,3.1l4.2-8.9l-12.4-3.2c-0.1-6.9-7.3-13.6-18.1-16.4c-10.9-2.7-22.2-0.6-28.2,4.8
		l-12.4-3.1l-4.2,8.9l12.4,3.1c0.1,2.6,1.1,5.2,3.1,7.7c3.2,4,8.6,7.1,15,8.7c1.8,0.5,3.7,0.8,5.5,1
		C1111.7,181.2,1120.4,179,1125.4,174.6z M1101.4,170.4c-2.6-0.6-4.7-1.9-6-3.4l-0.1-0.1c-1.3-1.6-1.6-3.4-0.8-5.1
		c0.8-1.7,2.8-3,5.2-3.7c2.3-0.6,5-0.7,7.6,0s4.7,1.9,6,3.4c1.4,1.6,1.8,3.5,1,5.2s-2.8,3-5.2,3.7
		C1106.8,171,1104.1,171.1,1101.4,170.4z"/>
	<path fill="#7A44B3" d="M1185.1,189c0.4,3.3,1.4,6.5,3,9.4l-9,9.3l10.9,10.4l6.5-6.8l0,0c-2.2-8.8-2.4-14.2-6.3-18.1
		c-0.2-0.2-0.4-0.4-0.6-0.6c-0.4-0.4-0.8-0.7-1.2-1.1c-0.2-0.1-0.3-0.3-0.5-0.4c-0.1-0.1-0.2-0.2-0.4-0.3
		C1186.7,190.2,1185.9,189.6,1185.1,189z"/>
	<path fill="#7A44B3" d="M994.6,113.6c-11.3-1.4-21.8,2.5-26.2,9l-12.8-1.6l-1.8,10l12.8,1.6c1.9,7.3,10.5,13.5,21.8,14.8
		c0.7,0.1,1.3,0.1,2,0.2c10.5,0.7,20.1-3,24.3-9.2l12.8,1.6l1.9-10l-13-1.6C1014.5,121.1,1005.9,114.9,994.6,113.6z M1001.7,131.6
		c-0.4,2-1.9,3.6-4.1,4.6c-2,1-4.6,1.4-7.4,1.1c-2.7-0.3-5.1-1.4-6.7-2.8c-1.7-1.5-2.6-3.4-2.3-5.4c0.4-2,1.9-3.6,4.1-4.6
		c2.1-1,4.7-1.4,7.4-1.1c2.7,0.3,5.1,1.4,6.7,2.8C1001.1,127.7,1002,129.6,1001.7,131.6z"/>
	<path fill="#7A44B3" d="M612.6,343.1l-1,0.1c0.5,2.1,0.9,4.3,1.4,6.4L612.6,343.1z"/>
	<path fill="#7A44B3" d="M619.4,360.7c-1.5-2.2-3.2-3.9-5-4.9c2.6,10.8,5.5,21.5,9.2,32c0.8-3.3,1.1-6.9,0.9-10.7
		c-0.1-1.9-0.4-3.8-0.8-5.6c-0.2-0.8-0.4-1.7-0.6-2.5C622.3,365.9,621,363.1,619.4,360.7z"/>
	<path fill="#7A44B3" d="M711.1,145.6c-0.5,5.2,1.3,10.6,5.2,14.8l-7.5,8.8l12.2,7.2l7.5-8.8c2.6,0.7,5.2,1,7.8,1
		c8,0,15.8-3.1,20.8-8.9c6.6-7.7,6-17.9-0.6-25.1l7.5-8.8l-0.6-0.3c-3.2,1-6.4,2-9.6,3.1c0,0,0,0,0,0
		C740.9,132.7,722.1,141.1,711.1,145.6z M745,152.5c-1.6,1.9-4,3.1-6.5,3.5c-2.7,0.4-5.6,0-8-1.4c-2.4-1.4-3.9-3.5-4.2-5.8
		c-0.5-2.1,0.1-4.3,1.7-6.2s3.9-3.1,6.5-3.5c0.7-0.1,1.3-0.2,2-0.2c2.1,0,4.2,0.5,6,1.6c2.4,1.4,3.9,3.5,4.3,5.8
		C747.2,148.4,746.6,150.7,745,152.5z"/>
	<path fill="none" stroke="#7A44B3" stroke-width="0" stroke-linecap="round" stroke-linejoin="round" d="M859.5,90
		C859.5,90,859.5,90,859.5,90"/>
	<path fill="#7A44B3" d="M859.4,90C859.4,89.9,859.3,90,859.4,90L859.4,90z"/>
	<path fill="#7A44B3" d="M832.6,105.8l14.9,1.7l1.5-12.9c3.2-0.6,6.3-1.9,9.1-3.7c-0.6-0.2-1.2-0.3-1.8-0.5c0,0,0,0,0,0h0
		c-0.6,0.1-1.3,0.3-2,0.4c-0.3,0.1-0.7,0.1-1,0.2c-0.7,0.2-1.4,0.3-2.1,0.5c-0.1,0-0.2,0-0.2,0.1c-5.3,1.3-11.3,3.3-17.5,6.2
		L832.6,105.8z"/>
	<path fill="#7A44B3" d="M912.6,122.4l5.9,1.2l0.4,0.1l8.4,1.8l1-4.7c-4.3-3.4-8.7-6.6-13.3-9.5l-1.4,6.7l-0.3,1.3L912.6,122.4z"/>
	<path fill="#583688" d="M538.3,446.4c1.6,1.1,3,2.6,4.3,4.2c0.3,0.4,0.5,0.8,0.8,1.1c1.4,2.3,2.3,4.7,2.3,6.8c0,1.9-0.7,3.2-2,3.7
		h-0.1c-0.5,0.2-1.1,0.2-1.7,0c2.3,5.1,4.3,9.4,5.9,12.7c1.2,0.2,2.4,0.1,3.4-0.2c2-0.7,3.5-2.1,4.3-4.3l9,6.1l-0.2-10.5l-9-6.1
		c-2.3-8.7-9.1-18.6-17.1-23.9c-3.6-2.4-6.9-3.6-9.6-3.7c1.8,4.3,3.7,8.6,5.4,12.6C535.2,444.8,536.7,445.3,538.3,446.4z"/>
	<path fill="#7A44B3" d="M618.3,329.6l-4.6,12.1l2.1,0.8l0,0c0,0,0,0,0,0c-0.3-1.1-0.5-2.2-0.8-3.2c0.6,0,1.3-0.1,1.9-0.1
		c0.3,1.3,0.7,2.7,1,4c0,0.1,0,0.1,0,0.2l0,0l9.8,3.7l4.6-12.1c1.3,0.1,2.6,0.1,3.9,0c9.3-0.9,17.9-6.9,21.4-16.2
		c2.4-6.3,2.2-13.2-0.6-19.4c-1.7-3.8-4.3-7.1-7.5-9.6l4.6-12.1l-14-5.3l-4.6,12.1c-4.1-0.3-8.2,0.5-12,2.2
		c-6.2,2.8-10.9,7.8-13.3,14.1c-0.1,0.2-0.2,0.4-0.2,0.6c0,0.1,0,0.1-0.1,0.2c0,0,0,0.1,0,0.1c0.3,2,0.5,3.8,0.8,5.8
		c0,0.1,0,0.2,0,0.3c-0.6,0.1-1.2,0.2-1.8,0.3c-0.1-0.6-0.2-1.1-0.2-1.7c-0.7,5,0.2,10.1,2.3,14.5c-0.4-3.2-1-6.2-1.4-9.2
		c0.6-0.1,1.2-0.2,1.8-0.3c0.5,3.1,1,6.3,1.6,9.4c-0.6,0.1-1.2,0.2-1.7,0.2c0.6,1.3,1.4,2.5,2.2,3.6c0.1,0,0.2,0,0.2,0
		c0,0,0,0.1,0,0.1c0,0.1,0.1,0.2,0.1,0.3c0,0,0,0,0,0.1c0,0,0.1,0.1,0.1,0.1C615.3,326.9,616.7,328.3,618.3,329.6z M624.3,305.9
		c0.1-0.3,0.3-0.6,0.4-0.9c0.3-0.6,0.7-1.2,1.1-1.7c1-1.3,2.3-2.3,3.7-3.1c2.5-1.2,5.4-1.4,8.2-0.3c2.8,1.1,4.8,3.2,5.9,5.7
		c1,2.4,1.1,5.1,0.1,7.7c-0.5,1.3-1.2,2.4-2.1,3.4c-0.2,0.2-0.5,0.5-0.7,0.7c-0.7,0.6-1.5,1.2-2.4,1.6c-0.6,0.3-1.3,0.5-1.9,0.7
		s-1.4,0.3-2,0.3c-0.7,0-1.4,0-2.1-0.1c-0.7-0.1-1.4-0.3-2.1-0.5c-2.7-1.1-4.8-3.2-5.9-5.7C623.4,311.3,623.3,308.5,624.3,305.9z"/>
	<path fill="#7A44B3" d="M618.1,193.8C618.1,193.8,618.1,193.8,618.1,193.8c-1.2,1.7-2.4,3.5-3.6,5.3c-0.6,0.2-1.2,0.4-1.8,0.6
		c0,0-0.1,0-0.1,0.1c0.8-1.3,1.7-2.5,2.6-3.8c-0.4,0.4-0.9,0.9-1.4,1.4s-1.1,1-1.6,1.5c-1,1-2.1,2-3.1,3.1c-0.2,0.2-0.3,0.3-0.5,0.5
		c-0.6,0.6-1.1,1.2-1.7,1.8c-1.2,3.2-1.5,6.4-1.2,9.5c0,0.1,0,0.2,0,0.4c0.2,1.3,0.5,2.6,0.9,3.8c0,0,0,0,0,0.1
		c0.7-1.6,1.4-3.3,2.1-4.9c3.9-8.4,8.8-16.2,14.5-23.4c0.3-0.4,0.6-0.8,0.9-1.2c0.1-0.1,0.2-0.3,0.4-0.4c-0.3,0.2-0.6,0.5-0.9,0.7
		c-1.7,1.4-3.4,2.7-5.1,4.2c-0.5,0.4-0.9,0.8-1.4,1.2C617.5,194.1,617.8,193.9,618.1,193.8z"/>
	<path fill="#7A44B3" d="M646.3,177l-2.7,3.5l-0.4,0.5c0.1,0,0.1,0,0.2-0.1c0.1-0.1,0.1-0.1,0.2-0.2c1-1.1,2.1-2.2,3.2-3.3
		c0,0,0,0,0,0l0,0c0,0,0.1-0.1,0.1-0.1l-0.1-0.1L646.3,177L646.3,177z"/>
	<path fill="#7A44B3" d="M623.9,202.1c-0.6,0.6-1.2,1.2-1.8,1.9c-0.4,0.5-0.7,1.1-1,1.6c-0.3,0.5-0.5,1-0.7,1.5
		C621.5,205.4,622.7,203.7,623.9,202.1z"/>
	<path fill="#7A44B3" d="M646.8,177.4c-1.1,1.1-2.1,2.2-3.2,3.3c-0.1,0.1-0.1,0.1-0.2,0.2c0,0-0.1,0.1-0.1,0.1c-0.1,0-0.1,0-0.2,0.1
		l-4.6,5.9c-0.2,0-0.4-0.1-0.6-0.1c-1.9,2.1-3.7,4.3-5.5,6.5c-0.8,0.2-1.6,0.5-2.4,0.7c0.1-0.1,0.1-0.1,0.2-0.2
		c1.7-2.2,3.6-4.4,5.4-6.6c0.5-0.2,1-0.4,1.5-0.5c-0.1,0-0.3,0-0.4,0c-2.2-0.2-4.5-0.2-6.8,0c-1.4,1.5-2.8,3.1-4.1,4.7
		c-5.7,6.9-10.4,14.5-14.3,22.6c-1.2,2.5-2.2,5-3.2,7.6c0.5,0.7,1,1.5,1.6,2.1l-4.2,5.4c-0.6,1.8-1.1,3.7-1.5,5.6l3,1.7
		c0.4-1.6,0.7-2.9,1.1-4.2c0.6,0.1,1.2,0.1,1.8,0.2c-0.4,1.5-0.7,2.9-0.9,4.4c0,0.1,0,0.2-0.1,0.3l0,0l4.8,2.7l7.6-9.9
		c5.9,1.2,12.4,0.2,18.1-2.7c3.8-1.9,7.2-4.7,9.9-8.1c4-5.1,5.7-11.1,4.9-16.8c-0.5-3.5-2-6.7-4.3-9.2l7.6-9.8L646.8,177.4
		L646.8,177.4C646.8,177.4,646.8,177.4,646.8,177.4z M611.1,228.7c-0.6-0.1-1.2-0.1-1.7-0.1c0.6-1.8,1.2-3.6,2-5.4
		c0.1,0,0.1,0,0.2,0c0.5,0.1,0.9,0.1,1.4,0.1C612.3,225.1,611.6,226.9,611.1,228.7z M616.1,217.2c-0.5,0.8-0.9,1.6-1.3,2.4
		c-0.5,0-0.9,0-1.4-0.1c-0.1,0-0.2,0-0.2,0c1.2-2.5,2.5-5,4.1-7.4c0.6-0.1,1.3-0.1,1.9-0.2C618.1,213.6,617.1,215.4,616.1,217.2z
		 M623.7,216.4c-2.3-1.2-3.6-3.3-3.9-5.6c-0.1-0.9-0.1-1.8,0.1-2.7c-0.1,0-0.3,0-0.4,0c0.2-0.3,0.4-0.6,0.6-0.9
		c0.3-0.5,0.7-1.1,1-1.6c0.3-0.6,0.7-1.1,1-1.6c0.5-0.7,1.2-1.3,1.8-1.9c0.7-1,1.5-2.1,2.2-3.1c0.7-0.2,1.5-0.4,2.2-0.6c0,0,0,0,0,0
		c-0.5,0.6-1,1.3-1.3,1.9c0,0,0,0,0,0c0,0,0,0,0,0c0.5-0.2,1-0.4,1.5-0.5c0.1,0,0.2-0.1,0.2-0.1c2.7-0.7,5.3-0.4,7.4,0.8
		c2.1,1.2,3.5,3.1,3.8,5.4c0,0.1,0,0.1,0,0.2c0.3,2.3-0.4,4.6-2,6.7c-1.6,2.1-4,3.5-6.4,4.2C628.8,217.8,626,217.6,623.7,216.4z"/>
	<path fill="#5AB0A3" d="M1392.8,376.9c-37.4-6.7-111.1-25.2-228.6-23.7c-117.6,1.5-168.5,15.1-261.2,33.5s-143.4,40.4-205.5,85.2
		c-62.1,44.8-96,96.6-96,96.6c-3.6,0.8-6,0.1-7.6-1.6c-2.1-2.3-3-6.4-3.9-11.8c-0.6,1.4-1.3,2.8-1.9,4.1
		c-9.6,22.1-15.7,45.7-15.7,45.7l3.5,3.8l0.6,0.7l0,0c0,0,8.2-3.7,25.9-19.1c17.7-15.4,56.6-31,87-42.9
		c30.4-11.9,65.2-22.8,133.7-40.9c68.5-18.1,125.9-30.2,194.4-34.9c46.2-3.2,60.1-7.2,92.4-6.7c36.4-1.9,68.6-2.2,97.4-0.5l62.2-9.9
		l16.7,22c23,6.4,42.9,15.2,60.6,26.7c2-0.9,4.1-1.9,6.1-2.9c34.4-17,68.4-46.1,85-70.7c1.1-3.7,1.9-7,2.4-10.2
		c0.4-2.6,0.6-5,0.5-7.3C1440.3,390,1420.5,381.9,1392.8,376.9z"/>
	<path fill="#7DF3D9" d="M1423.2,357.1c-23.6-18.2-82-28.6-168.2-33.7c-7.3-0.4-14.6-0.8-22-1.1c0,0,0,0,0,0
		c-58.6-2.1-120.6,0.7-165.7,4.6c-0.8,0.1-1.7,0.1-2.5,0.2c-6.2,0.5-12.2,1.1-17.7,1.7c-1.6,0.2-3.1,0.3-4.6,0.5
		c-6.5,0.7-12.4,1.4-17.6,2.1c-0.5,0.1-1.1,0.1-1.6,0.2c-0.6,0.1-1.3,0.2-1.9,0.3c-2.4,0.3-5,0.7-7.7,1.1
		c-41.7,6.2-107.3,18.3-150.4,28.4c-5.5,1.3-10.7,2.5-15.4,3.7c-3.8,1-7.5,2-11.2,3.1c-5.9,1.8-11.6,3.7-17.3,5.7
		c-5,1.8-9.8,3.7-14.6,5.7c-26.9,11-50.8,24.1-70.8,34.6c-14.3,7.5-30.8,19.3-46.9,32.5c-2.5,2-4.9,4-7.3,6.1
		c-5.1,4.4-10.2,8.8-15.1,13.2c-0.6,0.5-1.2,1.1-1.8,1.6c-1.3,1.2-2.5,2.3-3.8,3.4c-0.8,0.8-1.7,1.5-2.5,2.3c-1.1,1-2.2,2-3.2,3
		c-0.5,0.5-1,1-1.5,1.5c-4.3,4.1-8.3,8-12.1,11.8c-0.6,0.6-1.1,1.1-1.7,1.7c-2.9,3-5.7,5.8-8.4,8.6c-0.4,0.4-0.7,0.7-1.1,1.1
		c-2.5,2.6-4.8,5.2-7,7.7c-9,10.2-16.2,19.6-22,28.9c-3.6,5.8-6.7,11.5-9.5,17.3c0.8,5.3,1.8,9.5,3.9,11.8c1.6,1.8,4,2.4,7.6,1.6
		c0,0,33.9-51.8,96-96.6c62.1-44.8,112.8-66.8,205.5-85.2s143.6-32,261.2-33.5c117.5-1.5,191.2,17,228.6,23.7
		c27.7,5,47.5,13.1,48,35.2c0.1,2.3-0.1,4.7-0.5,7.3c-0.5,3.2-1.2,6.7-2.4,10.4c1.5-2.2,2.9-4.4,4.1-6.6c1.7-3.1,3.1-6.2,4.2-9.2
		C1453.9,392.1,1444,373.1,1423.2,357.1z"/>
	<path fill="none" stroke="#7A44B3" stroke-width="0" stroke-linecap="round" stroke-linejoin="round" d="M1038.4,256
		C1038.4,256,1038.4,256,1038.4,256"/>
	<path fill="#7A44B3" d="M1029.6,273.7l1.3-2.5c1.3,0.2,2.6,0.3,3.9,0.3c3.5,0,7-0.7,10.1-2.1c0,0,0,0,0,0c-0.1-0.3-0.2-0.5-0.4-0.8
		c-0.5-1.1-1-2.1-1.5-3.2c0.2,0,0.5-0.1,0.7-0.1c0.6-0.1,1.2-0.1,1.8-0.2c0.5,1.1,1,2.3,1.5,3.4c0,0,0,0,0,0
		c4.4-2.4,8.2-6.1,10.6-11c3-6.1,3.4-13,1.3-19.4c-1.3-4-3.6-7.5-6.6-10.3l5.7-11.6l-13.4-6.6l-5.7,11.6c-4-0.7-8.2-0.3-12.2,1
		c-1,0.3-2,0.8-2.9,1.2c0.7,1.2,1.4,2.4,2.1,3.6h0c-0.7,0.1-1.4,0.2-2.1,0.3c-0.6-1-1.2-2.1-1.7-3.1c0,0-0.1,0-0.1,0
		c-4.2,2.4-7.5,6-9.7,10.3c0,0,0,0,0,0c5.5,12.8,10.9,25.5,17.2,37.9c0,0,0,0.1,0,0.1C1029.7,273,1029.7,273.4,1029.6,273.7z
		 M1039.3,237.1c2.5,1.2,4.3,3.3,5.2,6c0,0.1,0,0.2,0.1,0.2c0.8,2.5,0.6,5.3-0.6,7.7c-0.8,1.6-2,2.9-3.4,3.9c0,0-0.1,0.1-0.1,0.1
		c1.1,2.1,2,4.1,3,6.2c0,0.1,0.1,0.2,0.1,0.3c-0.8,0.1-1.7,0.2-2.5,0.3c-0.9-1.9-1.8-3.8-2.7-5.8c-2.6,0.9-5.5,0.9-8.2-0.4
		c-2.6-1.3-4.5-3.6-5.3-6.2c-0.8-2.4-0.6-5.2,0.6-7.7c0.8-1.7,2.1-3.1,3.7-4.1c-1.1-2.2-2.3-4.3-3.5-6.5c0,0,0,0,0.1,0
		c0.7-0.1,1.4-0.2,2.1-0.3c1.1,1.9,2.2,3.9,3.2,5.9h0.1c0,0,0,0,0,0c0.1,0,0.2-0.1,0.2-0.1C1034,235.7,1036.8,235.9,1039.3,237.1z"
		/>
	<path fill="#5AB0A3" d="M704.6,134.3c1.8-1.6,3.9-3.1,6.1-4C708.4,131.2,706.3,132.7,704.6,134.3z"/>
	<path fill="#5AB0A3" d="M703.4,148.5c1.5-0.4,4.2-1.4,7.7-2.9c11-4.5,29.8-12.9,42.7-17c0,0,0,0,0,0c0,0,0,0,0-0.1
		c0-0.5-0.4-2.1-7.6-3.4c-1-0.2-2.3-0.3-3.8-0.3c1.4,0,2.7,0.1,3.8,0.3c0.5,0.1,1,0.2,1.4,0.3c-1,2.8-7.6,5.2-16.5,8.4
		c-10.2,3.7-23.9,8.3-27.7,9.2c-2.7,0.6-3-0.4-2.2-5.1c0,0-0.1,0.1-0.1,0.1c-1.9,2.4-5.6,5.7-5.3,7.3c0.2,1.6,0.6,2.7,1.3,3.3
		C698,149.5,699.8,149.4,703.4,148.5z"/>
	<path fill="#7DF3D9" d="M703.4,143c3.8-0.9,17.5-5.5,27.7-9.2c8.9-3.2,15.5-5.6,16.5-8.4c-0.4-0.1-0.9-0.2-1.4-0.3
		c-1-0.2-2.3-0.3-3.8-0.3c-10.1,0-28.1,4.1-31.7,5.5c0,0,0,0,0,0c-2.3,0.9-4.4,2.4-6.1,4c-1.3,1.2-2.5,2.4-3.4,3.5c0,0,0,0.1,0,0.1
		C700.4,142.6,700.7,143.6,703.4,143z"/>
	<path fill="#5AB0A3" d="M1207.3,464.4c29.8,1.8,55.9,5.7,78.9,12.1l-16.7-22L1207.3,464.4z"/>
</g>
</svg>
