
<svg version="1.1" id="Layer_1" xmlns="http://www.w3.org/2000/svg" xmlns:xlink="http://www.w3.org/1999/xlink" x="0px" y="0px"
	 viewBox="0 0 2000 2000" enable-background="new 0 0 2000 2000" xml:space="preserve">
	 <g>
<path fill="#209ABF" d="M1028.6,189.8l-370.1,89.5c-74.6,18.5-122.6,90.2-104.9,159l14.1,57.7c5.5,21.5,17.5,41.6,32.8,57.3
	l-207.4,50.4c-4.5,1.1-7.1,5-6,9.5l11.9,48.6c1.1,4.5,5.2,5.9,9.7,4.8l314.1-74.5c0.7-0.5,0.7-0.5,2.6-0.8c3.3-1.3,5.2-1.6,9.1-2.1
	l370.1-89.5c74.6-18.5,122.6-90.2,104.9-159l-14.1-57.7C1178.4,213.7,1103.3,171.3,1028.6,189.8z"/>
</g>
</svg>
