
<svg version="1.1" id="Layer_1" xmlns="http://www.w3.org/2000/svg" xmlns:xlink="http://www.w3.org/1999/xlink" x="0px" y="0px"
	 viewBox="0 0 2000 2000" enable-background="new 0 0 2000 2000" xml:space="preserve">
	 <g>
<path fill="#3168F4" d="M912.6,1383.5c0,0,114.9,81.4,81.2,146.2c0,0-29.4,94.5-161.3,97.7l-17,46.2c0,0,61.9-1.2,71.2,14.2
	c0,0,95.7-34.8,136.3,19.2c0,0,70.8-70.6,107.4-60.3l12.1,2.3c0,0,26-244.6,14-269.5C1156.5,1379.5,1043.6,1401.9,912.6,1383.5z"/>
<path fill="none" stroke="#050400" stroke-miterlimit="10" d="M886.7,1687.8c0,0,30.7-40,33.9-80.3"/>
<path fill="none" stroke="#050400" stroke-miterlimit="10" d="M1023,1707c0,0,54.8-174.2,46.2-233.3"/>
</g>
</svg>
