<?xml version="1.0" encoding="UTF-8"?>
<svg width="48px" height="48px" viewBox="0 0 48 48" version="1.1" xmlns="http://www.w3.org/2000/svg" xmlns:xlink="http://www.w3.org/1999/xlink">
    <!-- Generator: Sketch 51.3 (57544) - http://www.bohemiancoding.com/sketch -->
    <title>tops-businesssuit</title>
    <desc>Created with Sketch.</desc>
    <defs></defs>
    <g id="SVGs" stroke="none" stroke-width="1" fill="none" fill-rule="evenodd">
        <g id="Slices" transform="translate(-531.000000, -59.000000)"></g>
        <g id="Group-18" transform="translate(9.000000, 9.000000)" fill-rule="nonzero">
            <path d="M15.4247529,25.8239613 C14.992243,26.6986026 14.7054249,27.3346913 14.5642984,27.7322274 C14.4753988,27.9826469 14.4848081,28.1332397 14.2703975,28.2617798 C14.0559869,28.3903198 13.8848148,28.3723063 13.6593821,28.3590973 C12.3453972,28.2821061 10.4001726,27.5318854 7.82370821,26.1084351 L7.82368367,26.1084796 C7.44283912,25.8980698 7.2489259,25.459618 7.34949115,25.0362961 C8.59203385,19.8059048 9.14569887,16.9327221 9.0104862,16.416748 C8.07759337,12.8568115 7.85752342,10.4565601 7.85929853,9.77664185 C7.66016548,10.5760984 6.40724743,15.4552582 4.10054438,24.4141211 L4.10052749,24.4141167 C3.96708958,24.9323681 3.43879107,25.244321 2.92053974,25.1108831 C2.90734263,25.1074851 2.89421868,25.1038091 2.88117663,25.0998576 L1.60284565,24.7125339 C1.15179835,24.5758732 0.864491388,24.1345012 0.922095184,23.6667389 C2.44112371,11.3317129 3.81791023,4.73019411 5.05245476,3.86218262 C5.94849023,3.23217773 9.61000895,1.76438691 10.9550693,1.20869643 C11.1599215,1.12406497 11.2966607,1.20908906 11.4385379,1.2978647 C11.5804151,1.38664033 11.5999124,1.49855745 11.65663,1.6907959 C11.878494,2.44278047 13.7610158,16.741622 14.8983311,17.4088135 C15.5475307,17.7896581 15.0819045,17.8715103 15.4261301,17.8831508 C15.7883488,17.8715103 15.4227786,17.7896581 16.0719781,17.4088135 C17.2092934,16.741622 18.9710117,2.44278047 19.1928757,1.6907959 C19.2495933,1.49855745 19.2690906,1.38664033 19.4109678,1.2978647 C19.552845,1.20908906 19.6895842,1.12406497 19.8944364,1.20869643 C21.2394968,1.76438691 24.9010155,3.23217773 25.797051,3.86218262 C27.0315955,4.73019411 28.408382,11.3317129 29.9274106,23.6667389 C29.9850144,24.1345012 29.6977074,24.5758732 29.2466601,24.7125339 L27.9683291,25.0998576 C27.9552871,25.1038091 27.9421631,25.1074851 27.928966,25.1108831 C27.4107147,25.244321 26.8824162,24.9323681 26.7489783,24.4141167 L26.7489614,24.4141211 C24.4422583,15.4552582 23.1893403,10.5760984 22.9902072,9.77664185 C22.9919823,10.4565601 22.7719124,12.8568115 21.8390195,16.416748 C21.7038069,16.9327221 22.2574719,19.8059048 23.5000146,25.0362961 C23.6005798,25.459618 23.4066666,25.8980698 23.0258221,26.1084796 L23.0257975,26.1084351 C20.4493332,27.5318854 18.5041085,28.2821061 17.1901236,28.3590973 C16.9646909,28.3723063 16.7935188,28.3903198 16.5791082,28.2617798 C16.3646976,28.1332397 16.3741069,27.9826469 16.2852073,27.7322274 C16.1440808,27.3346913 15.8572627,26.6986026 15.4247529,25.8239613 Z" id="Combined-Shape" fill="#939393"></path>
            <path d="M11.7218426,0.509643555 C12.797661,0.798950195 14.0357226,0.943603516 15.4360273,0.943603516 C16.836332,0.943603516 18.0254294,0.807734375 19.0033195,0.535996094 C18.7516282,8.72556641 18.539664,13.0536849 18.3674267,13.5203516 C18.1951894,13.9870182 17.2042492,15.3767187 15.394606,17.6894531 L12.6655224,12.9556348 L11.7218426,0.509643555 Z" id="Path-18" fill="#FFFFFF"></path>
            <path d="M14.9838591,3 L13.8461738,1.22803091 C13.7883467,1.13796401 13.8144823,1.01807226 13.9045492,0.96024518 C13.935165,0.940588409 13.9706958,0.929946826 14.0070765,0.929537964 L16.8536868,0.897546501 C16.9607128,0.896343695 17.0484496,0.982130365 17.0496524,1.08915639 C17.0500509,1.1246181 17.0407113,1.15950932 17.0226507,1.19002993 L15.9516011,3 L16.8888455,16.3918538 L15.4384332,18 L13.9579291,16.5471434 L14.9838591,3 Z" id="Rectangle-21" fill="#000000"></path>
            <path d="M15.4319359,18.6549072 C15.1892129,18.6549072 14.9219183,18.4226074 14.6300521,17.9580078 C11.9707307,12.8279622 10.42788,9.85331644 10.0015003,9.03407041 C9.57512046,8.21482438 9.57512046,7.52276282 10.0015003,6.95788574 C10.4493802,6.41377767 10.7271886,6.08093262 10.8349255,5.95935059 C10.9426624,5.83776855 10.874303,5.64359538 10.6298473,5.37683105 C9.67545439,4.55403646 9.3876244,3.63641357 9.76635739,2.6239624 C10.3344569,1.10528564 10.8268925,0.879699707 11.5529352,0.502685547 C11.8501887,0.34832992 12.0455413,0.417492189 12.1947494,0.524780273 C12.2942214,0.596305663 12.3671879,0.795239582 12.413649,1.12158203 C12.8841316,8.00805664 13.8902273,13.5193278 15.4319359,17.6553955 C15.6419166,17.847229 15.7960205,18.6549072 15.4319359,18.6549072 Z" id="Path-51" fill="#DDDDDD"></path>
            <path d="M21.0290167,18.6549072 C20.7862936,18.6549072 20.518999,18.4226074 20.2271328,17.9580078 C17.5678114,12.8279622 16.0249608,9.85331644 15.598581,9.03407041 C15.1722012,8.21482438 15.1722012,7.52276282 15.598581,6.95788574 C16.0464609,6.41377767 16.3242693,6.08093262 16.4320062,5.95935059 C16.5397431,5.83776855 16.4713837,5.64359538 16.2269281,5.37683105 C15.2725351,4.55403646 14.9847051,3.63641357 15.3634381,2.6239624 C15.9315376,1.10528564 16.4239732,0.879699707 17.1500159,0.502685547 C17.4472694,0.34832992 17.6426221,0.417492189 17.7918301,0.524780273 C17.8913021,0.596305663 17.9642687,0.795239582 18.0107297,1.12158203 C18.4812124,8.00805664 19.487308,13.5193278 21.0290167,17.6553955 C21.2389973,17.847229 21.3931012,18.6549072 21.0290167,18.6549072 Z" id="Path-51" fill="#DDDDDD" transform="translate(18.225042, 9.533826) scale(-1, 1) translate(-18.225042, -9.533826) "></path>
        </g>
    </g>
</svg>