<?xml version="1.0" encoding="utf-8"?>
<!-- Generator: Adobe Illustrator 21.0.2, SVG Export Plug-In . SVG Version: 6.00 Build 0)  -->
<svg version="1.1" id="Layer_1" xmlns="http://www.w3.org/2000/svg" xmlns:xlink="http://www.w3.org/1999/xlink" x="0px" y="0px"
	 viewBox="0 0 2000 2000" enable-background="new 0 0 2000 2000" xml:space="preserve">
<g>
	<g>
		<path fill="#FFE99A" d="M1180.3,1337.1c6.1,23.6,11.4,47.4,16.8,70c2-0.9,2.9-1.4,2.9-1.4s15.1,1.6,44.1-11.7
			c-6.5-17.6-13.1-35.9-19-52.1c-1.9-5.4-3.8-10.6-5.5-15.7C1213.8,1331.4,1197.8,1343.2,1180.3,1337.1L1180.3,1337.1z"/>
		<path fill="#FFE99A" d="M899,1574c3-7.2-0.1-8.5-5-7.5s-25.9,5.3-45.2,5.5c-19.4,0.2-43.4-4.1-56.5,1.5c-2.6,1.1-4.9,2.7-7,4.7
			c10.1,8.2,27.4,16.9,52.8,18.4c14.5,0.8,27.2,0.2,37.9-0.9C890.7,1587.4,896.7,1579.6,899,1574z"/>
		<path fill="#FFE99A" d="M1088.7,1512.4c0,0-17.3,16.4-66.2,16.8c-20.6,0.2-39-2.1-53.4-4.8c-27.5,30.1-46.1,30.3-47,33.9
			c-1,3.9-5.7,24.2-3.2,31c1,2.7,3.1,6.7,8.4,12.3c33.3,21.5,75.7,21.8,115.5,16c46.7-6.9,78.4-33.1,78.4-33.1
			c-3.9-22.9-7.6-46.9-11-70C1096.5,1514,1088.7,1512.4,1088.7,1512.4L1088.7,1512.4z"/>
		<path fill="#FFE99A" d="M1082,1426.8c0,0,6,1,16.4,1.2c-2-15.6-3.4-26.7-3.9-31c-1.8-14.5-0.5-21.1,6,17.2
			c0.7,4.2,1.5,8.9,2.3,13.8c10.8-0.1,25.2-1.2,42.3-4.9c23.1-5,38.4-10.4,46.9-13.8c-6.4-29.6-11.1-52.7-15.2-70.4
			c-0.2,0.2-0.3,0.3-0.5,0.5c-0.1,0.1-0.1,0.1-0.2,0.2c-4.1,3.9-15.7,12.8-39.1,15.9c-19.1,2.5-36.1,2.5-46.1,2.2
			c0.8,5.6,1.4,11.2,1.5,16.7c0,0.7-1.1,0.9-1.3,0.2c-1.2-5.5-1.9-11.2-2.5-17c-4.5-0.2-7.2-0.4-7.2-0.4s-20.1,9.8-45.4,10
			s-59.4-11.6-59.4-11.6l-2.2,0.7v5.4l0.3,0.3c12.4,12,23.4,32.6,28.5,51c2.5,9,3.5,16.7,3.5,23.5
			C1034.1,1441,1067.2,1432.9,1082,1426.8L1082,1426.8z"/>
		<path fill="#FFE99A" d="M1165.4,1508.9c-18,3.8-33.5,5.2-45.8,5.4c4.3,17.4,9.4,33.8,15.3,47.2c6.4,14.6,17.1,23.5,28.1,28.8
			c5.1-0.4,10.7-1.2,16.7-2.5c37.3-8.2,51.7-26.6,51.7-26.6c-7.4-8.4-7.7-12.7-20.8-69.6C1203.5,1497,1190.1,1503.7,1165.4,1508.9
			L1165.4,1508.9z"/>
		<path fill="#FFE99A" d="M1218.5,1483.8c0,0-0.4,1-1.9,2.7c10.4,35.1,26.2,70.9,52.1,78.1c15.4-3.6,27.4-11.3,29.6-13
			c3.8-3,5.9-1.9,0-15.9c-4.6-11-15.7-40.4-25.1-64.7C1263.7,1478.2,1241.9,1491.6,1218.5,1483.8z"/>
	</g>
	<path fill="#FFBC86" d="M976.7,1281.6c-8.5,1.5-16.4,2.3-24,2.4c-3,13.1-5,28.8-6.1,49.6c5.5,5.1,10.3,10,14.7,14.5
		c7.3-22.5,11.1-43.6,14.3-60.7C976,1285.2,976.4,1283.2,976.7,1281.6z"/>
	<path fill="#FFBC86" d="M1159.3,1264.7c0,0-5.7,5.1-38.1,9.5c-21.4,2.9-34.9,1.4-41.5,0.1c0.4,2.5,0.7,5,1.1,7.5
		c1.4,9.9,2.7,19.8,4,29.6c1.4,10.5,2.7,20.9,4.1,31.4c0.6,4.9,1.4,9.8,2.1,14.7c10,0.3,27,0.3,46.1-2.2c23.4-3,35-11.9,39.1-15.9
		l0.2-0.2l0.5-0.5c-1.9-8.2-3.7-15.2-5.5-21.3c-8-27.1-12.2-53,0-12.7c3.2,10.6,6.2,21.4,9,32.2c17.5,6.1,33.4-5.7,39.4-10.9
		c-9-26.5-15.8-49.3-26.7-70.6C1178.5,1268,1159.3,1264.7,1159.3,1264.7L1159.3,1264.7z"/>
	<path fill="#FFBC86" d="M1083.3,1313.4c-1.5-11-3-22.1-4.5-33.1c-0.3-2.1-0.6-4.3-0.9-6.4c-2.2-0.5-3.3-0.9-3.3-0.9
		s-11.7,6.4-40.2,8.3c-28.5,1.8-42.4-3.1-42.4-3.1c-4.5,1.2-8.9,2.2-13.2,3.1c-0.1,2.8-0.3,6.5-0.6,10.8
		c-0.9,16.8-3.8,35.9-3.7,64.1l2.2-0.7c0,0,34.1,11.8,59.4,11.6c25.3-0.2,45.4-10,45.4-10s2.6,0.2,7.2,0.4
		c-0.4-4.2-0.8-8.5-1.4-12.7C1086,1334.4,1084.6,1323.9,1083.3,1313.4L1083.3,1313.4z"/>
	<path fill="#FFBC86" d="M1192,1409.3c-8.5,3.5-23.8,8.9-46.9,13.8c-17,3.7-31.5,4.8-42.3,4.9c4.1,24.8,9.4,56.9,16.8,86.3
		c12.3-0.3,27.8-1.6,45.8-5.4c24.6-5.2,38.1-12,45.3-17.2c-1.5-6.6-3.2-13.9-5.1-22C1200.3,1447.1,1195.8,1427,1192,1409.3
		L1192,1409.3z"/>
	<path fill="#FFBC86" d="M1200.1,1405.6c0,0-1,0.5-2.9,1.4c1.5,6.3,3,12.5,4.5,18.6c3.6,14.2,8.1,37.3,15,60.7
		c1.4-1.7,1.9-2.7,1.9-2.7c23.3,7.8,45.2-5.6,54.8-13c-2.6-6.8-5.1-13.2-7.3-18.8c-5.6-14.2-13.6-35.6-21.8-58.2
		C1215.1,1407.2,1200.1,1405.6,1200.1,1405.6z"/>
	<path fill="#FFBC86" d="M1003.8,1454.7c-0.8,2.4-1.9,5.1-3.3,8c-0.8,11.4-5.6,30.8-24.7,54.1c-2.3,2.7-4.5,5.3-6.6,7.6
		c14.4,2.7,32.8,4.9,53.4,4.8c48.9-0.4,66.2-16.8,66.2-16.8s7.8,1.7,21.6,2c-4.9-33.2-9-64.3-11.9-86.3c-10.5-0.1-16.4-1.2-16.4-1.2
		c-14.8,6.1-47.9,14.2-75.1,9.5C1006.9,1443.4,1005.7,1449.4,1003.8,1454.7z"/>
	<path fill="#BDAF7A" d="M1102.8,1428c-0.8-4.9-1.6-9.5-2.3-13.8c-6.5-38.3-7.9-31.7-6-17.2c0.5,4.3,1.9,15.4,3.9,31
		C1099.8,1428,1101.3,1428.1,1102.8,1428z"/>
	<path fill="#BDAF7A" d="M1134.9,1561.6c-5.9-13.4-11-29.9-15.3-47.2c-3.3,0.1-6.4,0.1-9.3,0c3.4,23,7.1,47.1,11,70
		c0,0,14.9,8.3,41.8,6.1C1152,1585.1,1141.4,1576.2,1134.9,1561.6z"/>
	<path fill="#BD8E6C" d="M1098.4,1428c2.9,22.1,7,53.1,11.9,86.3c2.8,0.1,5.9,0.1,9.3,0c-7.4-29.5-12.7-61.6-16.8-86.3
		C1101.3,1428.1,1099.8,1428,1098.4,1428z"/>
	<path fill="#BDAF7A" d="M1180.3,1337.1c-0.5-0.2-0.9-0.3-1.4-0.5c-0.5,0.6-1.3,1.4-2.1,2.3c4.1,17.8,8.8,40.9,15.2,70.4
		c2.1-0.9,3.9-1.6,5.1-2.2C1191.7,1384.5,1186.4,1360.7,1180.3,1337.1L1180.3,1337.1z"/>
	<path fill="#BDAF7A" d="M1268.8,1564.5c-26-7.2-41.7-42.9-52.1-78.1c-1.2,1.4-3.1,3.2-6,5.3c13.1,56.9,13.4,61.2,20.8,69.6
		C1243.9,1567.6,1257.3,1567.2,1268.8,1564.5L1268.8,1564.5z"/>
	<path fill="#BD8E6C" d="M1178.9,1336.6c0.4,0.2,0.9,0.3,1.4,0.5c-2.8-10.8-5.8-21.6-9-32.2c-12.2-40.3-8-14.5,0,12.7
		c1.8,6.1,3.6,13.1,5.5,21.3C1177.6,1338,1178.4,1337.2,1178.9,1336.6z"/>
	<path fill="#BD8E6C" d="M1197.1,1407.1c-1.3,0.6-3,1.3-5.1,2.2c3.8,17.7,8.3,37.8,13.6,60.5c1.9,8.1,3.6,15.4,5.1,22
		c2.9-2.1,4.8-3.9,6-5.3c-6.9-23.4-11.4-46.5-15-60.7C1200.1,1419.6,1198.6,1413.4,1197.1,1407.1z"/>
	<path fill="#BDAF7A" d="M922.2,1558.2c0.9-3.6,19.4-3.8,47-33.9c-6.4-1.2-12.1-2.5-16.8-3.6c-15.3,11.7-32.9,21.5-51.4,30.1
		c-26,12.2-56.2,15.8-88,4.5s-57.1-35.4-57.1-35.4s-8.5,11.7-11.3,17.9c-2.9,6.2-2.3,11.9,6.7,18.1s23,7.9,23,7.9
		c0,2.4,3.5,8.2,11,14.3c2.1-1.9,4.4-3.5,7-4.7c13.1-5.6,37.1-1.3,56.5-1.5s40.4-4.5,45.2-5.5s8,0.3,5,7.5
		c-2.3,5.6-8.3,13.4-23.1,21.6c21.9-2.4,34.9-7.3,34.9-7.3c5.2,5.1,10.7,9.5,16.6,13.3c-5.3-5.6-7.4-9.6-8.4-12.3
		C916.5,1582.5,921.2,1562.1,922.2,1558.2L922.2,1558.2z"/>
	<path fill="#BD8E6C" d="M1000.5,1462.7c-5.6,11.8-15.7,27.7-30.5,42.7c-5.4,5.5-11.3,10.6-17.6,15.4c4.7,1.2,10.3,2.4,16.8,3.6
		c2.2-2.4,4.4-4.9,6.6-7.6C994.9,1493.5,999.7,1474.1,1000.5,1462.7z"/>
	<path fill="#BDAF7A" d="M976.7,1281.6c0.7-0.1,1.4-0.3,2.1-0.4C979.2,1272.5,978.8,1271.5,976.7,1281.6z"/>
	<path fill="#BDAF7A" d="M970.5,1357.5c1.4,1.4,2.8,2.8,4.1,4.1c0-1.8,0-3.7,0-5.4L970.5,1357.5z"/>
	<path fill="#BD8E6C" d="M978.2,1292c0.2-4.3,0.4-8,0.6-10.8c-0.7,0.1-1.4,0.3-2.1,0.4c-0.3,1.6-0.7,3.6-1.1,5.8
		c-3.2,17.1-7,38.2-14.3,60.7c3.3,3.3,6.3,6.5,9.2,9.4l4-1.4C974.5,1327.9,977.3,1308.8,978.2,1292L978.2,1292z"/>
	<path fill="#BDAF7A" d="M1091.2,1374.4c0.2,0.7,1.3,0.5,1.3-0.2c-0.1-5.5-0.8-11.1-1.5-16.7c-0.8,0-1.5-0.1-2.2-0.1
		C1089.3,1363.2,1089.9,1368.9,1091.2,1374.4L1091.2,1374.4z"/>
	<path fill="#BDAF7A" d="M1078.4,1266.2c-0.8-5.1-1-10.7-2.8-15.5c-0.1-0.2-0.3-0.2-0.4,0c-0.3,5.2,1.1,10.5,1.7,15.7
		c0.3,2.5,0.6,5,1,7.5c0.5,0.1,1.1,0.2,1.8,0.4C1079.3,1271.6,1078.9,1268.9,1078.4,1266.2L1078.4,1266.2z"/>
	<path fill="#BD8E6C" d="M1084.7,1311.5c-1.3-9.9-2.7-19.8-4-29.6c-0.3-2.5-0.7-5-1.1-7.5c-0.7-0.1-1.2-0.3-1.8-0.4
		c0.3,2.1,0.6,4.3,0.9,6.4c1.5,11,3,22.1,4.5,33.1c1.4,10.5,2.7,20.9,4,31.4c0.5,4.2,0.9,8.4,1.4,12.7c0.7,0,1.4,0.1,2.2,0.1
		c-0.7-4.9-1.5-9.9-2.1-14.7C1087.5,1332.4,1086.1,1321.9,1084.7,1311.5z"/>
	<path fill="#BD8E6C" d="M889.9,1268.7c-3.5,7.7-4.5,13.4-4.5,13.4s14.3,13.4,38.6,32.1c8.7,6.7,16.1,13.2,22.6,19.3
		c1.1-20.8,3.1-36.4,6.1-49.6C926.9,1284.4,906.3,1277.5,889.9,1268.7L889.9,1268.7z"/>
	<path fill="#BDAF7A" d="M990.7,1216.5c3.7-1.6,7.7-3,11.9-4.1c-4,0.5-7.9,1.1-11.8,1.7C990.8,1214.8,990.7,1215.7,990.7,1216.5
		L990.7,1216.5z"/>
	<path fill="#BDAF7A" d="M977.2,1225.3c2.2-3.3,4.9-6.2,7.8-8.5c0.3-0.7,0.7-1.3,1.2-2c-18,2.9-35.8,6.5-56.5,11.3
		c0,0-14.3,10.6-27.9,24.9c-5.6,6-9.4,12.3-11.9,17.7c16.4,8.8,37,15.7,62.8,15.3c4.6-20.2,11.4-34.5,20.4-53
		C974.2,1228.9,975.5,1227,977.2,1225.3L977.2,1225.3z"/>
	<path fill="#BDAF7A" d="M977.2,1225.3c-2.7,4.1-4.6,8.7-5,13.4c0,0.3,0.5,0.5,0.6,0.2c2.7-5.4,5.5-10.1,9.4-14
		c-0.7,2.8-1.2,5.6-1.8,8.2c-1.6,6.8-3.9,13.6-3.4,20.6c0,0.6,1,0.8,1.2,0.2c2.9-11.1,5.8-22.4,9.7-33.2c0.3,4.8,1.6,9.6,4.9,12.6
		c0.4,0.4,1.1-0.1,0.8-0.6c-2.8-4.2-3.3-10.7-3.1-16.1C985.2,1218.9,980.6,1221.8,977.2,1225.3L977.2,1225.3z"/>
	<path fill="#BDAF7A" d="M986.2,1214.8c-0.4,0.6-0.8,1.3-1.2,2c-3,2.3-5.7,5.3-7.8,8.5c3.4-3.5,8-6.4,13.5-8.8
		c0-0.8,0.1-1.7,0.1-2.4C989.3,1214.3,987.8,1214.5,986.2,1214.8L986.2,1214.8z"/>
	<path fill="#BDAF7A" d="M1042.7,1210.2c-2.8,2.9-7.5,7.4-6.5,11.8c0.2,0.6,1,0.8,1.4,0.4c1.5-1.5,2.4-3.4,3.7-5.1
		c1.3-1.5,2.7-3,4-4.4c1.1-1.2,2.2-2.4,3.4-3.5c0,0.1-0.1,0.1-0.1,0.2c-1.3,2.4-3.2,6.1-1.3,8.5c0.1,0.1,0.3,0.1,0.4,0
		c1.7-2,2.5-5.1,3.9-7.4c0.4-0.6,0.8-1.2,1.2-1.8c0.2,0.1,0.5,0.2,0.7,0.2c-0.3,3.2-0.7,6.3-0.8,9.5c-0.2,3.9-0.7,9.1,2.6,11.8
		c1,0.8,2.7,1.2,3.7,0c2.9-3.4,1.6-7.7,0.6-11.8c-0.8-3.1-1.7-6.1-2.7-9c1.9,0.1,3.9,0.1,5.6,0.8c4.9,2.1,6.1,6.6,7.3,11.3
		c0.1,0.5,0.9,0.4,0.9-0.1c0.4-5.1-1.4-10.1-5.5-13.3c-0.7-0.5-1.5-1.1-2.5-1.6c-6.3,0.4-12.2,0.8-18,1.3
		C1044.1,1208.8,1043.4,1209.5,1042.7,1210.2L1042.7,1210.2z"/>
	<path fill="#FFBC86" d="M1057.3,1202.5c0.2-0.5-0.2-1.3-0.8-1.1c-0.9,0.3-1.7,0.8-2.4,1.4c1,0,2,0.1,3,0.1
		C1057.1,1202.8,1057.2,1202.7,1057.3,1202.5L1057.3,1202.5z"/>
	<path fill="#BDAF7A" d="M1135.3,1216.6c-0.1,0.4-0.3,0.7-0.5,1v0.9c0,2.2-0.5,4.3-0.5,6.4c0,0.8,1,1,1.4,0.4c1.7-2.4,2-5.5,2.2-8.4
		c1.6,2.1,3.1,4.4,4.4,6.7c1.4,2.7,2.5,5.5,3.6,8.3c1,2.6,1.3,5.2,3.6,7c1.9,1.5,4.3,1,5.1-1.4c2-5.6-3.6-13.1-6.9-17.3
		c-1.5-1.8-3-3.6-4.7-5.2c1.5,0.5,3,1.1,4.4,2c3,1.9,4.8,5.3,7.9,6.9c1,0.5,2.4-0.4,2-1.6c-1-3-3-5.3-5.6-7.2
		c-4.1-1-9.4-2.2-15.6-3.4C1135.9,1213.3,1135.6,1214.9,1135.3,1216.6L1135.3,1216.6z"/>
	<path fill="#FFBC86" d="M1132.1,1207.4c-0.9-0.4-1.8,0.6-1.1,1.4l1.2,1.2c0.2-0.8,0.4-1.6,0.5-2.3
		C1132.5,1207.6,1132.3,1207.5,1132.1,1207.4L1132.1,1207.4z"/>
	<path fill="#FFBC86" d="M1136.9,1207.8C1136.9,1207.7,1136.8,1207.7,1136.9,1207.8c-0.2,1.3-0.4,2.6-0.6,3.9
		c6.2,1.2,11.5,2.4,15.6,3.4c-4.1-3-9.5-4.7-14-5.5C1137.6,1208.9,1137.3,1208.2,1136.9,1207.8z"/>
	<path fill="#FFE99A" d="M1010.6,1211.4c-0.6,0.1-1.2,0.1-1.8,0.2C1009.3,1211.7,1010,1211.7,1010.6,1211.4z"/>
	<path fill="none" d="M1108.2,1167.4c-0.1-0.4-0.6-0.2-0.6,0.2c1.1,6.9,2.1,13.9,1.9,21c-0.1,6.6-2,12.6-3.4,18.9
		c-0.1,0.5-0.2,1.1-0.3,1.6c-0.4,2.2,2.6,3,3.3,0.9c0.2-0.7,0.4-1.4,0.6-2.2c1.6-6.2,1.6-13,1.6-19.3
		C1111.5,1181.3,1110.6,1174.2,1108.2,1167.4z"/>
	<path fill="none" d="M1136.9,1207.8C1136.9,1207.7,1136.8,1207.7,1136.9,1207.8c1.7-12.7,1.4-25.8-1.6-38.1c-0.1-0.5-1-0.4-1,0.1
		c1.3,13,1.2,25.4-1.6,37.9c-0.2-0.1-0.4-0.2-0.6-0.3c-0.9-0.4-1.8,0.6-1.1,1.4l1.2,1.2c-0.1,0.3-0.1,0.6-0.2,0.9
		c-0.2,0.6-0.3,1.3-0.5,1.9c-0.7,0.9-0.8,1.5-0.8,3.1c0,2.2,2.9,3,4.1,1.6v0.9c0,2.2-0.5,4.3-0.5,6.4c0,0.8,1,1,1.4,0.4
		c1.7-2.4,2-5.5,2.2-8.4c1.6,2.1,3.1,4.4,4.4,6.7c1.4,2.7,2.5,5.5,3.6,8.3c1,2.6,1.3,5.2,3.6,7c1.9,1.5,4.3,1,5.1-1.4
		c2-5.6-3.6-13.1-6.9-17.3c-1.5-1.8-3-3.6-4.7-5.2c1.5,0.5,3,1.1,4.4,2c3,1.9,4.8,5.3,7.9,6.9c1,0.5,2.4-0.4,2-1.6
		c-1-3-3-5.3-5.6-7.2c-4.1-3-9.5-4.7-14-5.5C1137.6,1208.9,1137.3,1208.2,1136.9,1207.8L1136.9,1207.8z"/>
	<path fill="none" d="M1086.1,1206.3c0,0-2-0.1-5.5-0.3C1083.8,1206.1,1085.8,1206.3,1086.1,1206.3s-0.1,0-0.3-0.1
		C1086,1206.3,1086.1,1206.3,1086.1,1206.3z"/>
	<path fill="#FFE99A" d="M1193.1,1255.6c-14.5,12.4-33.8,9.1-33.8,9.1s-5.7,5.1-38.1,9.5c-21.4,2.9-34.9,1.4-41.5,0.1
		c-0.4-2.7-0.8-5.4-1.2-8.1c-0.8-5.1-1-10.7-2.8-15.5c-0.1-0.2-0.3-0.2-0.3,0c-0.3,5.2,1.1,10.6,1.7,15.7c0.3,2.5,0.6,5,1,7.5
		c-2.2-0.5-3.3-0.9-3.3-0.9s-11.7,6.4-40.2,8.3c-28.5,1.8-42.4-3.1-42.4-3.1c-4.5,1.2-8.9,2.2-13.2,3.1c0.3-8.7-0.1-9.7-2.1,0.4
		c-8.5,1.5-16.4,2.3-24,2.4c4.6-20.2,11.4-34.6,20.4-53c1-2.1,2.4-3.9,4-5.7c-2.7,4.1-4.6,8.7-5,13.4c0,0.3,0.5,0.5,0.6,0.2
		c2.7-5.4,5.5-10,9.4-14c-0.7,2.8-1.2,5.6-1.8,8.2c-1.6,6.8-3.9,13.6-3.4,20.6c0,0.6,1,0.8,1.1,0.2c2.9-11.1,5.8-22.4,9.7-33.2
		c0.3,4.8,1.6,9.6,4.9,12.6c0.4,0.4,1.1-0.1,0.8-0.6c-2.8-4.2-3.3-10.7-3-16.1c3.7-1.6,7.7-3,11.9-4.1c2-0.3,4.1-0.5,6.1-0.8
		c0.6,0.2,1.2,0.1,1.8-0.2c10.8-1.3,22-2.4,34.3-3.4c-0.8,0.8-1.5,1.5-2.1,2.2c-2.8,2.9-7.5,7.4-6.4,11.9c0.1,0.6,1,0.8,1.4,0.4
		c1.5-1.5,2.4-3.4,3.7-5.1c1.3-1.5,2.7-3,4-4.4c1.1-1.2,2.2-2.4,3.4-3.4c0,0.1-0.1,0.1-0.1,0.2c-1.2,2.4-3.2,6.1-1.3,8.5
		c0.1,0.1,0.3,0.1,0.4,0c1.8-2,2.5-5.1,3.9-7.4c0.4-0.6,0.8-1.2,1.2-1.8c0.2,0.1,0.5,0.2,0.7,0.2c-0.3,3.2-0.7,6.3-0.8,9.6
		c-0.2,3.9-0.7,9.1,2.7,11.8c1,0.8,2.7,1.2,3.7,0c2.9-3.4,1.6-7.7,0.6-11.8c-0.8-3.1-1.7-6.1-2.7-9c1.9,0.1,3.9,0.1,5.6,0.8
		c4.9,2.1,6.1,6.6,7.3,11.3c0.1,0.5,0.9,0.4,0.9-0.1c0.4-5.1-1.4-10.1-5.5-13.3c-0.7-0.5-1.5-1.1-2.5-1.6h0.6
		c4.8-0.3,9.4-0.4,14-0.5h2.9c1.9,0,3.8,0,5.7,0.1c7,0.2,13.7,0.6,20.1,1.1c1.2,0.1,2.4,0.2,3.6,0.4c8.1,0.8,15.6,1.9,22.1,3.1
		c0.2,0,0.5,0.1,0.7,0.1c0.1,0.2,0.2,0.3,0.4,0.5c1.2,1.2,1.6,4,1.7,6v0.9c0,2.2-0.5,4.3-0.5,6.4c0,0.8,1,1,1.4,0.4
		c1.7-2.4,2-5.5,2.2-8.4c1.6,2.1,3.1,4.3,4.4,6.8c1.4,2.7,2.5,5.5,3.6,8.3c1,2.7,1.3,5.2,3.6,7c1.9,1.5,4.3,1,5.2-1.3
		c2-5.6-3.6-13.1-6.9-17.3c-1.5-1.8-3-3.6-4.7-5.2c1.5,0.5,3,1.1,4.4,2c3,1.9,4.8,5.3,7.9,6.9c1,0.5,2.4-0.3,2-1.6
		c-1-3-3-5.3-5.6-7.2c6.1,1.5,9.5,2.6,9.5,2.6s11.5,2.1,27.4,29.7C1190.2,1250.1,1191.7,1252.8,1193.1,1255.6L1193.1,1255.6z"/>
	<path fill="#BD8E6C" d="M1086.1,1206.3c-1.9-0.1-3.8-0.1-5.7-0.1c-1,0-1.9,0-2.9,0c-4.6,0-9.3,0.2-14,0.5c-0.2,0-0.4,0-0.6,0
		c-6.3,0.4-12.2,0.8-18,1.3c-12.3,1-23.5,2.1-34.3,3.4c-0.6,0.1-1.2,0.1-1.8,0.2c-2,0.2-4.1,0.5-6.1,0.8c1.7-0.5,3.4-0.9,5.1-1.3
		c1.4-0.3,2.8-0.6,4.2-0.9c11.4-2.3,23.8-3.5,35.1-4c4.9-0.2,9.7-0.4,14.1-0.4c6.5-0.1,12.1,0,16.4,0.1c1.2,0,2.2,0.1,3.2,0.1
		C1083.8,1206.1,1085.8,1206.3,1086.1,1206.3L1086.1,1206.3z"/>
	<path fill="#FFBC86" d="M1077.3,1204.7c0.1-7.5,2.4-15,2.3-22.6s-1.8-15.8-0.8-23.4c0-0.3,0.4-0.4,0.5-0.1c2.4,7.1,2.2,16,2.5,23.4
		c0.2,7.3,1.6,16.1-0.8,23.2c2.9,0.5,4.4,0.8,5,1c0.2,0.1,0.3,0.1,0.3,0.1c7,0.2,13.7,0.6,20.1,1.1c1.4-6.3,3.3-12.3,3.4-18.9
		c0.1-7-0.9-14-1.9-21c-0.1-0.4,0.4-0.5,0.6-0.2c2.4,6.8,3.3,13.9,3.3,21.1c0,6.2,0,13.1-1.6,19.3c8.1,0.8,15.6,1.9,22.1,3.1
		c0.1-0.3,0.2-0.6,0.2-0.9c-0.4-0.4-0.8-0.8-1.2-1.2c-0.7-0.8,0.2-1.8,1.1-1.4c0.2,0.1,0.4,0.2,0.6,0.3c2.7-12.5,2.9-24.9,1.6-37.9
		c-0.1-0.6,0.8-0.7,1-0.1c3.1,12.2,3.3,25.4,1.6,38c0.5,0.5,0.8,1.1,1,1.8c4.5,0.8,9.9,2.5,14,5.5c6.1,1.5,9.5,2.6,9.5,2.6
		c-2-8.2-8.3-31.4-11-41.3s-2.8-15-4.3-16s-11.6-5-24.5-6.8c-12.9-1.9-35.3-5.2-86.6,1.4c-24.4,3.2-38.8,5.4-48.6,7.3
		c-3.1,20.1-4.8,30.2-5.1,34.7c-0.1,2,0.5,3.7,1.8,5c2.5-8,5.7-16,6.2-24.3c0-0.3,0.5-0.3,0.5,0c0,8.7,0.9,17-0.9,25.4
		c0.3,0.6,0.4,1.4,0.3,2.1c1.6,0.4,3.5,0.6,5.4,0.7c2.5,0.1,7.6-0.3,14.2-0.9c4.9-6.4,3.5-14.8,4.3-22.5c0.8-7.5,3-14.8,4.4-22.2
		c0.1-0.3,0.5-0.2,0.6,0.1c1.2,9.5-2.5,18.8-2.1,28.4c0.2,5.4,0.9,10.9-0.7,15.7c8.3-0.7,17.9-1.4,27-1.6c0.9-8,0.8-15.9,0.9-23.9
		c0.1-7.8,1.9-14.8,3.7-22.3c0.1-0.4,0.6-0.2,0.5,0.1c-2.8,15.1-1.4,30.7-1.7,46c2.9,0,5.8,0,8.6,0.1c0.7-0.5,1.5-1,2.4-1.4
		c0.6-0.3,1,0.6,0.8,1.1c-0.1,0.1-0.1,0.3-0.2,0.4h0.1C1066.3,1203.5,1072.8,1204.1,1077.3,1204.7L1077.3,1204.7z"/>
	<path fill="#FFBC86" d="M1086.2,1206.3C1086.1,1206.3,1086.1,1206.3,1086.2,1206.3C1086.1,1206.3,1086.2,1206.3,1086.2,1206.3z"/>
	<path fill="#BD8E6C" d="M1086.1,1206.3c0,0-2-0.1-5.5-0.3c-1,0-2-0.1-3.2-0.1c-4.3-0.1-10-0.2-16.4-0.1c-4.4,0.1-9.1,0.2-14.1,0.4
		c-11.3,0.6-23.7,1.7-35.1,4c-1.4,0.3-2.8,0.6-4.2,0.9c-1.7,0.4-3.4,0.8-5.1,1.3c-4,0.5-7.9,1.1-11.8,1.7c-1.5,0.2-3.1,0.5-4.6,0.7
		c-18,2.9-35.8,6.5-56.5,11.2c1.7-16.2,12.6-51.7,12.6-51.7s6.8-2.1,20.6-6.1c7.2-2.1,12.6-3.8,23.4-5.8
		c-3.1,20.1-4.8,30.2-5.1,34.7c-0.1,2,0.5,3.7,1.8,5c2.5-8,5.7-16,6.2-24.3c0-0.3,0.5-0.3,0.5,0c0,8.7,0.9,17-0.9,25.5
		c0.3,0.6,0.4,1.4,0.3,2.1c1.7,0.4,3.5,0.6,5.4,0.7c2.5,0.1,7.6-0.3,14.2-0.9c4.9-6.4,3.5-14.8,4.3-22.5c0.8-7.5,3-14.8,4.4-22.2
		c0.1-0.3,0.5-0.2,0.6,0.1c1.2,9.5-2.5,18.8-2.1,28.4c0.2,5.4,0.9,10.9-0.7,15.7c8.3-0.7,17.9-1.4,27-1.6c0.9-8,0.8-15.9,0.9-23.9
		c0.1-7.8,1.9-14.8,3.7-22.3c0.1-0.3,0.6-0.2,0.5,0.2c-2.8,15.1-1.4,30.7-1.7,46c2.9,0,5.8,0,8.6,0.1c1,0,2,0.1,3,0.1h0.1
		c9.1,0.5,15.6,1.2,20.1,1.8c0.1-7.6,2.4-15,2.3-22.6s-1.8-15.8-0.8-23.4c0-0.3,0.4-0.4,0.5-0.1c2.4,7.1,2.2,15.9,2.5,23.4
		c0.2,7.3,1.6,16.1-0.8,23.2c2.8,0.4,4.3,0.8,5,1C1086,1206.3,1086.1,1206.3,1086.1,1206.3L1086.1,1206.3z"/>
	<path fill="#BDAF7A" d="M1080.9,1205.2c2.8,0.4,4.3,0.8,5,1C1085.3,1206.1,1083.8,1205.7,1080.9,1205.2z"/>
	<path fill="#BD8E6C" d="M1108.2,1167.4c-0.1-0.4-0.6-0.2-0.6,0.2c1.1,6.9,2.1,13.9,1.9,21c-0.1,6.6-2,12.6-3.4,18.9
		c1.2,0.1,2.4,0.2,3.6,0.4c1.6-6.2,1.6-13,1.6-19.3C1111.5,1181.3,1110.6,1174.2,1108.2,1167.4z"/>
	<path fill="#BD8E6C" d="M1136.8,1207.7c1.7-12.6,1.5-25.8-1.6-38c-0.1-0.5-1-0.4-1,0.1c1.3,13,1.2,25.4-1.6,37.9
		c0.1,0.1,0.2,0.1,0.4,0.2C1134,1206.9,1135.6,1206.5,1136.8,1207.7L1136.8,1207.7z"/>
	<path fill="#BD8E6C" d="M1132.4,1210.3c-0.1-0.1-0.1-0.2-0.2-0.2c-0.1,0.3-0.1,0.6-0.2,0.9c0.2,0,0.5,0.1,0.7,0.1
		C1132.6,1210.8,1132.5,1210.5,1132.4,1210.3z"/>
	<path fill="#BDAF7A" d="M1136.2,1211.7c-1.1-0.2-2.3-0.4-3.5-0.6c0.1,0.2,0.2,0.3,0.4,0.5c1.2,1.2,1.6,4,1.7,6
		c0.2-0.3,0.4-0.6,0.5-1C1135.6,1214.9,1135.9,1213.3,1136.2,1211.7z"/>
	<path fill="#BD8E6C" d="M1132.7,1211c1.2,0.2,2.4,0.4,3.5,0.6c0.2-1.3,0.4-2.6,0.6-4c-1.2-1.3-2.8-0.9-3.7,0.2
		c-0.1-0.1-0.3-0.1-0.4-0.2c-0.2,0.8-0.3,1.6-0.5,2.3c0.1,0.1,0.1,0.2,0.2,0.2C1132.5,1210.5,1132.6,1210.8,1132.7,1211z"/>
</g>
</svg>
