<?xml version="1.0" encoding="utf-8"?>
<!-- Generator: Adobe Illustrator 21.0.2, SVG Export Plug-In . SVG Version: 6.00 Build 0)  -->
<svg version="1.1" id="_x31_1_x5F_Bottom_x5F_PJs_x5F_Pants"
	 xmlns="http://www.w3.org/2000/svg" xmlns:xlink="http://www.w3.org/1999/xlink" x="0px" y="0px" viewBox="0 0 2000 2000"
	 enable-background="new 0 0 2000 2000" xml:space="preserve">
<g>
	<path fill="#CABEF3" d="M1197.1,1529.4c-0.5-3.9-1.4-4.7-2.8-26.6c-0.3-5.8-0.8-11.9-1.3-18.4c-1.5-17.7-3.6-37.9-6-61
		c-3.3-31.4-14.1-103.9-16.1-123.8s-15.5-101.2-18.7-117.4s-3.9-16.7-14.3-23.3c-1.7-1.1-3.7-2-5.9-2.9c-7.2-2.7-16.5-4-25.8-4.3
		c-5.2-0.2-10.3,0-14.9,0.4c-1.9,0.2-3.7,0.3-5.3,0.4c-2.8,0.1-5.3,0.2-7.7,0.2c-5.1,0-9.9-0.1-16.7,0.1c-3.7,0.1-8,0.3-13.2,0.7
		c-3.8,0.3-7.8,0.6-11.9,1c-8.3,0.8-17.2,1.9-26.5,3.6c-6.8,1.3-13.8,2.9-20.9,4.9c-3.9,1.1-7.7,2.4-11.6,3.8
		c-2.3,0.8-4.6,1.7-6.9,2.7c-0.2,0.1-0.4,0.2-0.6,0.2c-8.2,3.5-14.2,6.4-18.7,8.9c-10.6,5.9-12.3,9.3-12.8,11.1
		c-0.8,2.5-1.5,6.5-6,28.7l-16.2,89.2c5.8,4.8,11.2,9.4,16.2,13.8c6.6,5.8,12.4,11.2,17.6,16.2c7.1,6.9,13.1,13.1,18.1,18.7
		c0.7,0.8,1.3,1.5,2,2.2c5,5.8,9,10.9,12.3,15.5c4,5.6,9.1,13.3,13.7,22.2c2.7,5.3,5.2,11.1,7.1,17.2c3.4,11.1,4.9,23.1,2,35.2
		c-4.4,18.9-11.8,32.3-21.7,44c-7.9,9.5-17.5,17.8-28.3,27.2c-4.1,3.6-9.1,7.4-14.5,11.3c-7.4,5.2-15.9,10.5-24.6,15.1
		c-1.4,0.8-2.9,1.5-4.3,2.2c-9.5,4.7-19.3,8.6-28.4,10.6c-3,0.7-6,1.2-8.9,1.5c-34.1,3.2-41.8-0.8-53.3-2.8
		c-2.1,6.5-6.1,10.9-6.1,10.9s8,6.1,18.1,12.9c6.7,4.5,17.8,7.7,29.1,9.8c5.9,1.1,12,1.9,17.4,2.4c6.5,0.6,11.3,0.3,14.9-0.1
		c5.2-0.7,7.5-1.9,7.5-1.9c0.3,3.9,0.5,9.2,18,19.1c6.5,3.7,14.5,7.9,23.8,11.6c15.8,6.4,35.4,11.4,57.1,10.1
		c34.4-2.1,68.2-31.7,74.4-36.9s7.9-5.8,7.8-10.8s-0.8-9.5-0.8-9.5s20.2,4.6,38.6,2.9c3.7-0.3,7.4-0.9,10.9-1.9
		c20.3-5.7,36.7-14.2,47.2-24.8s12-12.5,15.5-15.1S1197.6,1533.4,1197.1,1529.4z"/>
	<path fill="#142A66" d="M968.3,1357c6,6.7,10.6,12.5,14.2,17.7c4,5.6,9.1,13.3,13.7,22.2c0.6-11.4,1.6-29.5,2.5-48.6
		c1.6-32.9,5.6-107.2,8.7-144c1.8-21.5,2.5-37.2,2.7-46.5c-6.8,1.3-13.8,2.9-20.9,4.9c-3,29.4-12,116.3-15.5,146.2
		C971.3,1329.2,969.4,1346.3,968.3,1357z"/>
	<path fill="#142A66" d="M821.2,1557.2c-2.1,6.5-6.1,12.3-6.1,12.3s8,6.1,18.1,12.9s30.7,10.8,46.5,12.2s22.4-2,22.4-2
		c0.3,3.9,0.5,9.2,18,19.1s46.4,23.8,80.9,21.7c34.5-2.1,68.8-31.7,75-36.9s7.9-5.8,7.8-10.8s-0.8-9.5-0.8-9.5s28.6,6.7,48.9,1
		s36.7-14.2,47.2-24.8s12-12.5,15.5-15.1s3-3.3,2.5-7.2s-1.4-5.4-2.8-27.2c-0.3-5.8-0.8-11.9-1.3-18.4c-3.5,2.5-9.2,7.2-15,14
		c-9.5,11-17.2,16-17.2,16s-0.3-49.3-1.5-77.5s-7.7-105.2-9.3-132.5c-1.7-27.3-8.9-85.8-12.3-116.1c-2-17.6-4.2-27.5-5.7-32.7
		c-7.2-2.7-16.5-4-25.8-4.3c1.7,6.7,4.9,21.2,6.8,43.5c2.7,31.6,7.2,87.3,9.2,125.2c1.9,37.8,4.5,92.2,3.8,133s-0.8,79.3-0.8,79.3
		c-17.1,5.6-28.5,5-28.5,5s0.6-54.1,1.7-87.8c1.1-33.8,0-82.3,0-113.2c0-30.8-2-64.5-2.2-90.9s-3.2-44.5-5.2-61.3
		c-1.5-12.5-3.9-26.1-5.1-32.1c-2.8,0.1-5.3,0.2-7.7,0.2c0.8,5.7,1.7,13.1,2.5,21.3c1.9,18.3,5.3,32.4,6.4,59s0.9,98.2-0.8,157.3
		c-1.8,59.1-4,150.8-4,150.8s-5.8,2.9-11.5,6c-5.8,3.1-13.5,7.7-13.5,7.7s3.9-48.3,5.7-79.1s2.2-67.3,3.3-109.4
		c1.2-42.1,0.9-67.8,1.3-101.3s-1.4-62.7-2.7-85c-0.7-13.1-2.3-22.1-3.4-27.3c-3.7,0.1-8,0.3-13.2,0.7c-3.8,0.3-7.8,0.6-11.9,1
		c2.4,22.4,2.2,57.2,1.2,79.3c-1.2,24.9-4.4,89.2-7.8,139.2s-4.8,70.1-5.5,99.7c-0.7,29.6-5.2,93.3-5.2,93.3
		c-22.7,3.5-41.8,0-41.8,0s2.7-13.5,4.6-40.7c1-13.7,1.4-25.2,1.7-32.7c-7.9,9.5-17.5,17.8-28.3,27.2c-4.1,3.6-9.1,7.4-14.5,11.3
		l-2.1,25.9c0,0-4.3-1.9-11.7-4.8c-4.5-1.8-8.5-4-10.8-5.4c-1.4,0.8-2.9,1.5-4.3,2.2v8.9c-7.2,3.5-13.8,2.7-28.4,1.1
		c-3,0.7-6,1.2-8.9,1.5C840.4,1563.3,832.7,1559.2,821.2,1557.2z"/>
	<path fill="#142A66" d="M961.7,1238.1c3.5-28.4,4.8-41.2,7-55.6c0.7-4.6,1.4-9.1,1.9-13.2c-0.2,0.1-0.4,0.2-0.6,0.2
		c-8.2,3.5-14.2,6.4-18.7,8.9c-3.8,18.9-6.8,50.5-11.4,86.3c-3.4,26.6-5.9,46-7.4,57.3c6.6,5.8,12.4,11.2,17.6,16.2
		C953,1313.3,959,1259.5,961.7,1238.1z"/>
	<path opacity="0.3" fill="#091426" enable-background="new    " d="M970,1169.5c-8.2,3.5-14.2,6.4-18.7,8.9
		c-10.6,5.9-12.3,9.3-12.8,11.1c-0.8,2.5-1.5,7-6,29.2l-16.2,89.2c5.8,4.8,11.2,9.4,16.2,13.8c6.6,5.8,12.4,11.2,17.6,16.2
		c7.1,6.9,13.1,13.1,18.1,18.7c0.7,0.8,1.3,1.5,2,2.2c5.2-44.4,8-132.3,7.3-192.2c-2.3,0.8-4.6,1.7-6.9,2.7
		C970.4,1169.3,970.2,1169.4,970,1169.5z"/>
	<path opacity="0.3" fill="#091426" enable-background="new    " d="M974.9,1524.7c27.7-25.7,36.5-56.3,36.3-83.9
		c-0.1-17.1-4.6-24.2-8-27.2c3.4,11.1,4.9,23.1,2,35.2c-4.4,18.9-11.8,32.3-21.7,44c-7.9,9.5-17.5,17.8-28.3,27.2
		c-4.1,3.6-9.1,7.4-14.5,11.3c-7.4,5.2-15.9,10.5-24.6,15.1c-1.4,0.8-2.9,1.5-4.3,2.2c-9.5,4.7-19.3,8.6-28.4,10.6
		c-3,0.7-6,1.2-8.9,1.5c-34.1,3.2-41.8-0.8-53.3-2.8c-2.1,6.5-6.1,11.6-6.1,11.6s8,6.1,18.1,12.9c6.7,4.5,17.8,7.7,29.1,9.8
		c3.4-9,7-17.1,9.6-18.8c6.3-4.1,27.9-8.3,27.9-8.3s-2.4,11.6-5.1,29.3c5.2-0.7,7.5-1.9,7.5-1.9c0.3,3.9,0.5,9.2,18,19.1
		c6.5,3.7,14.5,7.9,23.8,11.6C932.5,1548.3,948.6,1549.1,974.9,1524.7z"/>
	<path opacity="0.3" fill="#091426" enable-background="new    " d="M1099.6,1280.7c0.6-27.6,1.9-42.6,1.9-42.6
		c18.5-2.2,20.1-11.8,13.1-8.6c-7,3.3-13.6,4-13.6,4c24.5-13.5,9.9-14.6,3-9.6s-13,10-23.7,13.1s-10.4,4-5.3,4.3s11.8-2.2,11.8-2.2
		s0.5,49.3,0,90.2s-3.4,94.8-4.7,150.8s0.1,65.2,0.3,96.2c0,0,20.2,4.6,38.6,2.9c-10.1-35.6-17.1-114.8-19.4-168
		C1099.1,1353.2,1099,1308.2,1099.6,1280.7z"/>
</g>
</svg>
