<?xml version="1.0" encoding="utf-8"?>
<!-- Generator: Adobe Illustrator 22.1.0, SVG Export Plug-In . SVG Version: 6.00 Build 0)  -->
<svg version="1.1" id="_x30_6_x5F_Eyewear_x5F_GlassesTortoiseShell"
	 xmlns="http://www.w3.org/2000/svg" xmlns:xlink="http://www.w3.org/1999/xlink" x="0px" y="0px" viewBox="0 0 2000 2000"
	 enable-background="new 0 0 2000 2000" xml:space="preserve">
<g>
	<path fill="none" d="M1053.7,611.8c1.3,0.2,2.5,0.3,3.6,0.5c0.1,0,0.2,0,0.3,0l0-0.3c-4.5-0.8-11.1-1.7-17-1.5
		c2.2,0.1,4.5,0.3,6.8,0.5C1049.7,611.3,1051.8,611.5,1053.7,611.8z"/>
	<path fill="none" d="M1040.6,610.5c2.4,0.1,4.7,0.3,6.8,0.5C1045.1,610.8,1042.8,610.6,1040.6,610.5z"/>
	<path fill="none" d="M1057.6,612c3.1,0.5,5.1,1,5.1,1s-11.6-3-22.1-2.5C1046.4,610.3,1053.1,611.2,1057.6,612z"/>
	<path fill="none" d="M1053.7,611.8c1.3,0.2,2.5,0.3,3.6,0.5c0,0,0,0,0,0C1056.2,612.1,1055,611.9,1053.7,611.8z"/>
	<path opacity="0.4" fill="#A9DFFF" d="M1105.3,709.2l-0.9-0.9c3,3.6,6.5,7.4,10.3,11.3c1.9,1.9,3.8,3.9,5.9,6
		c-5.1-5.1-9.6-9.9-13.4-14.6C1106.6,710.5,1105.9,709.9,1105.3,709.2z"/>
	<path opacity="0.4" fill="#A9DFFF" d="M1090,681.3c1.7,5.3,4,10.3,6.9,15.3c0-0.1,0.1-0.1,0.1-0.2
		C1094,691.4,1091.6,686.4,1090,681.3z"/>
	<path opacity="0.4" fill="#A9DFFF" d="M1107.2,711.1c3.9,4.7,8.3,9.5,13.4,14.6c-4.4-4.6-8.2-8.9-11.6-13
		C1108.4,712.2,1107.8,711.6,1107.2,711.1z"/>
	<path opacity="0.4" fill="#A9DFFF" d="M1104.5,708.4l-1.3-1.3c3.2,4.1,7,8.3,11.4,12.7c0.1,0,0.1,0,0.2,0
		C1110.9,715.7,1107.5,712,1104.5,708.4z"/>
	<path opacity="0.4" fill="#A9DFFF" d="M1086.2,655.5c0,9.8,1.2,18,3.7,25.8C1087.5,673.4,1086.3,665.1,1086.2,655.5z"/>
	<path opacity="0.4" fill="#A9DFFF" d="M1092.2,624c-4.3,9.3-6,19.7-5.9,31.5c0.2-12.6,2.2-23.6,7.1-33.3
		C1092.9,622.8,1092.5,623.4,1092.2,624z"/>
	<path opacity="0.4" fill="#A9DFFF" d="M1097,696.4c27.9-36.8,77.9-99.6,77.9-99.6s16-6.4,31.6-1.3s24.2,11.5,24.2,11.5l-83.5,128.5
		c0,0-22.1-8.5-38.2-22.8c3.4,4.1,7.3,8.3,11.6,13c21.5,20.4,56.3,23.1,79.9,17.9c0.1,0,0.1,0,0.2,0c0.8-0.2,1.5-0.3,2.2-0.5
		c4.2-1.1,8.3-2.5,12.3-4.2c15.7-8.4,28.9-21.5,32.2-30.3c4.9-12.8,9.5-29.8,12-42.2c1.3-6.4,0.9-14.5-0.7-22.9
		c-1.5-8-4-16.4-7.1-23.9c-3.3-7.8-11.3-15.7-23.5-21.8c-6.3-3.2-13.8-5.9-22.2-8c-7.1-1.7-7.9-2.9-16.4-3.5
		c-10.5-0.7-21.2-0.4-31.7,1c-26.6,3.6-51.3,14.5-64.6,35c-4.9,9.7-6.8,20.8-7.1,33.3c0,9.6,1.2,17.9,3.7,25.8
		C1091.6,686.4,1094,691.4,1097,696.4z M1249,629.8l-59.5,112.5c0,0-7.6-0.5-14.5,0l66.8-123.8
		C1241.8,618.5,1247.4,622.9,1249,629.8z"/>
	<path opacity="0.4" fill="#A9DFFF" d="M1096.9,696.6c-3-5-5.2-10.1-6.9-15.3c-2.5-7.7-3.7-16-3.7-25.8c0.1,16.5,2.4,28.9,10.1,41.8
		C1096.5,697,1096.7,696.8,1096.9,696.6z"/>
	<path fill="#492916" d="M1120.6,595.7c-14.3,7.8-23.3,17.2-28.5,28.3c0.4-0.6,0.8-1.2,1.2-1.9
		C1098.5,611.8,1107.1,603,1120.6,595.7z"/>
	<path opacity="0.4" fill="#A9DFFF" d="M1120.6,595.7c-14.3,7.8-23.3,17.2-28.5,28.3c0.4-0.6,0.8-1.2,1.2-1.9
		C1098.5,611.8,1107.1,603,1120.6,595.7z"/>
	<path fill="#492916" d="M1121.4,595.3c0.7-0.4,1.4-0.8,2.2-1.1C1122.8,594.5,1122.1,594.9,1121.4,595.3z"/>
	<path opacity="0.4" fill="#A9DFFF" d="M1121.4,595.3c0.7-0.4,1.4-0.8,2.2-1.1C1122.8,594.5,1122.1,594.9,1121.4,595.3z"/>
	<path fill="#492916" d="M1093.3,622.2c13.3-20.5,38-31.5,64.6-35c0.5-1.5,1.1-3,2-4c0,0,0,0,0.1-0.1c0,0,0,0,0,0
		c-11.6,1.7-23,4.8-33.3,9.6c-1.1,0.5-2.1,1-3.2,1.5c-0.7,0.4-1.5,0.8-2.2,1.1c-0.3,0.1-0.5,0.3-0.8,0.4
		C1107.1,603,1098.5,611.8,1093.3,622.2z"/>
	<path opacity="0.4" fill="#A9DFFF" d="M1093.3,622.2c13.3-20.5,38-31.5,64.6-35c0.5-1.5,1.1-3,2-4c0,0,0,0,0.1-0.1c0,0,0,0,0,0
		c-11.6,1.7-23,4.8-33.3,9.6c-1.1,0.5-2.1,1-3.2,1.5c-0.7,0.4-1.5,0.8-2.2,1.1c-0.3,0.1-0.5,0.3-0.8,0.4
		C1107.1,603,1098.5,611.8,1093.3,622.2z"/>
	<path fill="#492916" d="M1258.8,643.4c1.5,8.4,1.9,16.5,0.7,22.9c-2.5,12.5-7.1,29.4-12,42.2c-3.3,8.7-16.5,21.9-32.2,30.3
		c3.9-1.7,7.7-3.6,11.2-5.7c13.4-7.9,23.8-18,26.7-24.8c4.5-10.4,14.6-42.9,11.8-64.8c-0.3-2.5-0.8-4.9-1.4-7.3
		C1262.2,640.2,1260.4,642.3,1258.8,643.4z"/>
	<path opacity="0.4" fill="#A9DFFF" d="M1258.8,643.4c1.5,8.4,1.9,16.5,0.7,22.9c-2.5,12.5-7.1,29.4-12,42.2
		c-3.3,8.7-16.5,21.9-32.2,30.3c3.9-1.7,7.7-3.6,11.2-5.7c13.4-7.9,23.8-18,26.7-24.8c4.5-10.4,14.6-42.9,11.8-64.8
		c-0.3-2.5-0.8-4.9-1.4-7.3C1262.2,640.2,1260.4,642.3,1258.8,643.4z"/>
	<path fill="#492916" d="M1224,590.2c-3.9-1.9-8.2-3.5-12.8-4.7l-0.1,0.1c-1.6,1.6-3.3,3-5,4.1c8.5,2,15.9,4.8,22.2,8
		c1.1-0.9,2.5-1.8,4.2-2.7C1229.8,593.3,1227,591.7,1224,590.2z"/>
	<path opacity="0.4" fill="#A9DFFF" d="M1224,590.2c-3.9-1.9-8.2-3.5-12.8-4.7l-0.1,0.1c-1.6,1.6-3.3,3-5,4.1c8.5,2,15.9,4.8,22.2,8
		c1.1-0.9,2.5-1.8,4.2-2.7C1229.8,593.3,1227,591.7,1224,590.2z"/>
	<path fill="#B48140" d="M1211.2,585.5C1211.2,585.5,1211.2,585.5,1211.2,585.5c-10.8-3-23.3-4.3-36.2-3.8c-5,0.2-10,0.6-14.9,1.4
		c0,0,0,0-0.1,0.1c-0.9,1-1.6,2.5-2,4c10.5-1.4,21.2-1.7,31.7-1c8.5,0.6,9.3,1.8,16.4,3.5C1207.8,588.6,1209.5,587.2,1211.2,585.5
		L1211.2,585.5z"/>
	<path opacity="0.4" fill="#A9DFFF" d="M1211.2,585.5C1211.2,585.5,1211.2,585.5,1211.2,585.5c-10.8-3-23.3-4.3-36.2-3.8
		c-5,0.2-10,0.6-14.9,1.4c0,0,0,0-0.1,0.1c-0.9,1-1.6,2.5-2,4c10.5-1.4,21.2-1.7,31.7-1c8.5,0.6,9.3,1.8,16.4,3.5
		C1207.8,588.6,1209.5,587.2,1211.2,585.5L1211.2,585.5z"/>
	<path fill="#B48140" d="M1232.5,594.9C1232.5,594.9,1232.5,594.9,1232.5,594.9c-1.7,0.9-3,1.8-4.2,2.7c12.2,6.2,20.2,14,23.5,21.8
		c3.1,7.5,5.6,15.8,7.1,23.9c1.6-1.1,3.3-3.1,4.8-7.1c0,0,0,0,0,0C1259.6,619.9,1249.1,605.4,1232.5,594.9z"/>
	<path opacity="0.4" fill="#A9DFFF" d="M1232.5,594.9C1232.5,594.9,1232.5,594.9,1232.5,594.9c-1.7,0.9-3,1.8-4.2,2.7
		c12.2,6.2,20.2,14,23.5,21.8c3.1,7.5,5.6,15.8,7.1,23.9c1.6-1.1,3.3-3.1,4.8-7.1c0,0,0,0,0,0
		C1259.6,619.9,1249.1,605.4,1232.5,594.9z"/>
	<path opacity="0.4" fill="#A9DFFF" d="M1097.5,699.1c1.7,2.6,3.5,5.2,5.7,7.9l1.3,1.3C1101.9,705.2,1099.5,702.2,1097.5,699.1z"/>
	<path opacity="0.3" fill="#FFFFFF" d="M1097.5,699.1c1.7,2.6,3.5,5.2,5.7,7.9l1.3,1.3C1101.9,705.2,1099.5,702.2,1097.5,699.1z"/>
	<path opacity="0.4" fill="#A9DFFF" d="M1107.2,711.1c-4.1-4.9-7.5-9.7-10.3-14.5c-0.2,0.2-0.3,0.4-0.5,0.7c0.4,0.6,0.8,1.2,1.1,1.8
		c2,3.1,4.3,6.1,6.9,9.2l0.9,0.9C1105.9,709.9,1106.6,710.5,1107.2,711.1z"/>
	<path opacity="0.3" fill="#FFFFFF" d="M1107.2,711.1c-4.1-4.9-7.5-9.7-10.3-14.5c-0.2,0.2-0.3,0.4-0.5,0.7c0.4,0.6,0.8,1.2,1.1,1.8
		c2,3.1,4.3,6.1,6.9,9.2l0.9,0.9C1105.9,709.9,1106.6,710.5,1107.2,711.1z"/>
	<path opacity="0.4" fill="#A9DFFF" d="M1147.2,735.5l83.5-128.5c0,0-8.6-6.4-24.2-11.5s-31.6,1.3-31.6,1.3s-50,62.9-77.9,99.6
		c3.2,5.2,7.1,10.6,12,16.3C1125.1,727,1147.2,735.5,1147.2,735.5z"/>
	<path opacity="0.3" fill="#FFFFFF" d="M1147.2,735.5l83.5-128.5c0,0-8.6-6.4-24.2-11.5s-31.6,1.3-31.6,1.3s-50,62.9-77.9,99.6
		c3.2,5.2,7.1,10.6,12,16.3C1125.1,727,1147.2,735.5,1147.2,735.5z"/>
	<path opacity="0.4" fill="#A9DFFF" d="M1109,712.7c-4.9-5.8-8.8-11.1-12-16.3c0,0.1-0.1,0.1-0.1,0.2c2.8,4.8,6.2,9.6,10.3,14.5
		C1107.8,711.6,1108.4,712.2,1109,712.7z"/>
	<path opacity="0.3" fill="#FFFFFF" d="M1109,712.7c-4.9-5.8-8.8-11.1-12-16.3c0,0.1-0.1,0.1-0.1,0.2c2.8,4.8,6.2,9.6,10.3,14.5
		C1107.8,711.6,1108.4,712.2,1109,712.7z"/>
	<path opacity="0.4" fill="#A9DFFF" d="M1189.5,742.2l59.5-112.5c-1.6-6.9-7.2-11.2-7.2-11.2L1175,742.2
		C1181.9,741.8,1189.5,742.2,1189.5,742.2z"/>
	<path opacity="0.3" fill="#FFFFFF" d="M1189.5,742.2l59.5-112.5c-1.6-6.9-7.2-11.2-7.2-11.2L1175,742.2
		C1181.9,741.8,1189.5,742.2,1189.5,742.2z"/>
	<path opacity="0.4" fill="#A9DFFF" d="M840,767c1.6,0.5,3.2,0.9,4.8,1.3c4.1,1,8.1,1.8,12.1,2.3c0,0,0,0,0,0
		c5.9,0.8,11.6,1.2,17.3,1.2l86.5-147.7c0,0,6.3,10.1,6.3,15.3c0,0-57.7,99.7-77.1,131.5c3.1-0.4,6.1-0.8,9-1.3
		c7.8-1.4,15.2-3.3,22.4-5.5c13.2-6.4,29-15.5,39.2-26.2c1.2-1.3,2.3-2.5,3.4-3.8c5-5.9,8.9-12.2,11.9-18.8
		c6.8-15,8.6-31.3,6.2-46.5c-0.2-1.4-0.5-2.8-0.8-4.2c-2.8-13.4-5.1-28-13-41c-6.4-10.4-16.5-19.8-33.5-26.7
		c-11.4-4.7-23.9-7.3-37.1-8.4c-9-0.7-18.3-0.7-28,0c-17.3,1.2-35.6,4.3-54.5,8.8c-9.8,4.3-18.5,10-25.4,17.3c0,0-3.9,5.4-8.2,13.2
		c-3.3,5.9-6.7,13.1-8.8,20.3c-0.8,2.6-1.4,5.2-1.7,7.8c-0.8,5.8-0.9,12.5-0.5,19.5c0.3,3.9,0.7,7.8,1.4,11.8
		c1.9,11.9,5.6,24,11.1,33.9c7,12.5,14.6,24.1,28.6,33.4c3.8,2.5,8,4.8,12.8,6.9C829,763.4,834.2,765.3,840,767z M790.7,726.8
		l99-123.8c37.2-5.7,60.3,13.3,60.3,13.3L834.7,763.1C834.7,763.1,799.8,747.2,790.7,726.8z"/>
	<path fill="#492916" d="M930.4,761.1c16.7-5.6,28.8-16.3,37.6-28.2c-1.1,0.3-2.6,0.7-4,1c-1.1,1.3-2.2,2.6-3.4,3.8
		c-10.2,10.7-26,19.8-39.2,26.2c0.2-0.1,0.5-0.1,0.7-0.2C924.8,763,927.6,762.1,930.4,761.1z"/>
	<path opacity="0.4" fill="#A9DFFF" d="M930.4,761.1c16.7-5.6,28.8-16.3,37.6-28.2c-1.1,0.3-2.6,0.7-4,1c-1.1,1.3-2.2,2.6-3.4,3.8
		c-10.2,10.7-26,19.8-39.2,26.2c0.2-0.1,0.5-0.1,0.7-0.2C924.8,763,927.6,762.1,930.4,761.1z"/>
	<path fill="#492916" d="M979.2,713.8c7.3-15.5,8.3-29.8,7.4-45.5c-1.9,0.3-3.4,0.4-4.6,0.5c2.4,15.1,0.6,31.4-6.2,46.5
		c0.3,1.3,0.5,2.8,0.5,4.4C977.4,717.6,978.3,715.7,979.2,713.8z"/>
	<path opacity="0.4" fill="#A9DFFF" d="M979.2,713.8c7.3-15.5,8.3-29.8,7.4-45.5c-1.9,0.3-3.4,0.4-4.6,0.5
		c2.4,15.1,0.6,31.4-6.2,46.5c0.3,1.3,0.5,2.8,0.5,4.4C977.4,717.6,978.3,715.7,979.2,713.8z"/>
	<path fill="#492916" d="M972.6,623.5c-3.1-5-6.4-9.5-9.3-13c-8.1-9.8-36-21-67-24c0.7,0.7,1.1,1.3,1.5,1.9
		c13.2,1,25.6,3.7,37.1,8.4c17,6.9,27.1,16.3,33.5,26.7C969.4,623.5,970.9,623.5,972.6,623.5C972.6,623.5,972.6,623.5,972.6,623.5z"
		/>
	<path opacity="0.4" fill="#A9DFFF" d="M972.6,623.5c-3.1-5-6.4-9.5-9.3-13c-8.1-9.8-36-21-67-24c0.7,0.7,1.1,1.3,1.5,1.9
		c13.2,1,25.6,3.7,37.1,8.4c17,6.9,27.1,16.3,33.5,26.7C969.4,623.5,970.9,623.5,972.6,623.5C972.6,623.5,972.6,623.5,972.6,623.5z"
		/>
	<path fill="#492916" d="M873.2,585.7c-15.9,0.4-32.4,2.6-47.2,7.4c-3.7,1.2-7.3,2.5-10.8,4.1c18.9-4.4,37.2-7.6,54.5-8.8
		C870.7,587.6,871.8,586.7,873.2,585.7z"/>
	<path opacity="0.4" fill="#A9DFFF" d="M873.2,585.7c-15.9,0.4-32.4,2.6-47.2,7.4c-3.7,1.2-7.3,2.5-10.8,4.1
		c18.9-4.4,37.2-7.6,54.5-8.8C870.7,587.6,871.8,586.7,873.2,585.7z"/>
	<path fill="#B48140" d="M986.7,668.2c-0.2-2.9-0.4-5.8-0.7-8.8c-1.2-12.9-7-25.7-13.4-35.9c-1.7,0-3.2,0-4.4,0
		c8,13,10.2,27.6,13,41c0.3,1.4,0.5,2.8,0.8,4.2C983.3,668.7,984.8,668.6,986.7,668.2C986.7,668.3,986.7,668.3,986.7,668.2z"/>
	<path opacity="0.4" fill="#A9DFFF" d="M986.7,668.2c-0.2-2.9-0.4-5.8-0.7-8.8c-1.2-12.9-7-25.7-13.4-35.9c-1.7,0-3.2,0-4.4,0
		c8,13,10.2,27.6,13,41c0.3,1.4,0.5,2.8,0.8,4.2C983.3,668.7,984.8,668.6,986.7,668.2C986.7,668.3,986.7,668.3,986.7,668.2z"/>
	<path fill="#B48140" d="M967.9,733c3.2-4.4,6-8.9,8.4-13.3c0,0,0,0,0,0c0-1.6-0.2-3.1-0.5-4.4c-3,6.6-6.9,12.9-11.9,18.8
		C965.4,733.7,966.9,733.3,967.9,733C967.9,733,967.9,733,967.9,733z"/>
	<path opacity="0.4" fill="#A9DFFF" d="M967.9,733c3.2-4.4,6-8.9,8.4-13.3c0,0,0,0,0,0c0-1.6-0.2-3.1-0.5-4.4
		c-3,6.6-6.9,12.9-11.9,18.8C965.4,733.7,966.9,733.3,967.9,733C967.9,733,967.9,733,967.9,733z"/>
	<path fill="#B48140" d="M896.2,586.5c-3.1-0.3-6.2-0.5-9.3-0.6c-2.6-0.1-5.2-0.2-7.8-0.2l1.6,1.1l-5.8,0.5l-1.6-1.5
		c0,0-0.1,0-0.1,0c0,0,0,0,0,0c-1.4,1-2.6,1.9-3.5,2.7c9.7-0.7,19-0.7,28,0C897.3,587.8,896.9,587.1,896.2,586.5
		C896.2,586.5,896.2,586.5,896.2,586.5z"/>
	<path opacity="0.4" fill="#A9DFFF" d="M896.2,586.5c-3.1-0.3-6.2-0.5-9.3-0.6c-2.6-0.1-5.2-0.2-7.8-0.2l1.6,1.1l-5.8,0.5l-1.6-1.5
		c0,0-0.1,0-0.1,0c0,0,0,0,0,0c-1.4,1-2.6,1.9-3.5,2.7c9.7-0.7,19-0.7,28,0C897.3,587.8,896.9,587.1,896.2,586.5
		C896.2,586.5,896.2,586.5,896.2,586.5z"/>
	<path fill="#B48140" d="M873.4,585.7l1.6,1.5l5.8-0.5l-1.6-1.1c-0.2,0-0.3,0-0.5,0C876.9,585.6,875.1,585.7,873.4,585.7z"/>
	<path opacity="0.4" fill="#A9DFFF" d="M873.4,585.7l1.6,1.5l5.8-0.5l-1.6-1.1c-0.2,0-0.3,0-0.5,0
		C876.9,585.6,875.1,585.7,873.4,585.7z"/>
	<path fill="#64320F" d="M1261.1,726.7c0.1,0,0.2-0.1,0.3-0.1c1.5-2,2.9-4.2,4.2-6.4c1.9-3.3,3.6-6.7,5.1-10
		c-0.7-0.7-1.3-1.5-1.9-2.3C1266.9,715.4,1264.2,721.6,1261.1,726.7z"/>
	<path fill="#64320F" d="M1053.7,611.8c-1.9-0.2-4-0.5-6.3-0.7C1049.6,611.3,1051.7,611.5,1053.7,611.8z"/>
	<path fill="#64320F" d="M1085.3,717.5c-6.4-10-10.6-21.5-13.6-33.6c-0.1,0.7-0.3,1.5-0.5,2.2c-0.7,2.8-1.7,5.4-3.1,7.4
		c2.8,8.3,6.9,17,12.7,25.4c0.7-0.3,1.4-0.6,2.1-0.8C1083.8,717.9,1084.6,717.7,1085.3,717.5z"/>
	<path fill="#64320F" d="M1234.2,750.2c0,0.2,0.1,0.3,0.2,0.5c5.3-3.1,10.5-6.7,15.3-11.1c-5.6,4.4-11.3,7.1-16.3,8.6
		C1233.7,748.8,1234,749.5,1234.2,750.2z"/>
	<path fill="#64320F" d="M932.5,775.1c-20.8,10.9-43,14-64.2,11.6c1.1,0.8,2.2,1.8,3,2.9c0.2,0.2,0.3,0.4,0.5,0.7
		c15.3,0.7,32-1,49.5-6.3c3.5-1.1,6.8-2.2,10-3.4c0,0,0-0.1,0-0.1C931.2,778.4,931.2,776.8,932.5,775.1z"/>
	<path fill="#64320F" d="M1213.1,563.1c16.3,4.1,31.6,10.4,46.9,17.7c0.9,0.4,0.1,1.8-0.8,1.4c-14.5-6.9-30.6-11.8-46.6-15.2
		c0.5,1.8,1.8,3.4,2.6,5.7c0,0.1,0.1,0.2,0.1,0.4c2,0.5,4,1.1,6.2,1.6c16.3,4.5,31.4,11,43.9,18.1c2.3,1.3,4.1,3.9,5.6,7.4l3.1,1.4
		c0.1-2.3,2.6-4.9,6.2-6.1c4.2-1.4,8.4-0.5,9.2,2s-1.8,5.8-6,7.3c-3.5,1.2-7,0.8-8.5-0.9c-0.4,1.1-0.9,2.6-1.6,4.5
		c4.2,20.1,2.4,54.3-1.1,79.5c1-1.2,2-2.5,2.7-3.9c1.9-3.8,1.4-8.4,2.1-12.5c0.8-4.4,2.5-8.6,4.5-12.6c0-0.1,0.1-0.1,0.1-0.2
		c0.4-7.7,1.9-14.9,2.1-21c0.6-20.7-6.3-20-0.1-23.4c2.1-1.1,4.3-1.7,6.5-2c1.6-1.9,0.4-3.4,1.8-5.2c2.4-2.9,3.4-6.4,4.3-10.1
		c0.7-3,3.5-6.5,4.2-9.6c-0.2-1-0.5-2-0.8-3.1c-0.8-0.8-1.6-1.6-2.6-2.1c-6.8-4.1-22,0.5-22,0.5s-27.8-16.9-59.1-23.4
		c-1,1-1.9,2-2.5,3C1213.4,562.6,1213.2,562.9,1213.1,563.1z M1280.2,585.9c2.4-1,7.2-1.7,9.7-2.2c1.6-0.3,3.3-0.3,4.9,0.3
		c4.8,1.9,1.1,6.8,1.8,10.9c0.1,0.3-0.5,0.5-0.6,0.2c-0.8-1.3-0.2-3.3-1.1-4.6c-0.9-1.3-1.7-2.6-3.2-3.3c-3-1.3-8.3,0.2-11.4-0.1
		C1279.5,587.2,1279.6,586.2,1280.2,585.9z"/>
	<path fill="#64320F" d="M856.3,784.7c-17.4-3.8-33.8-11.2-47.6-20.8c-0.9,2.1-1.7,4.2-2.4,6.4c11.5,7.3,26.9,14,45.1,17.6
		c1.2-1.3,2.7-2.4,4.5-3C856.1,784.8,856.2,784.7,856.3,784.7z"/>
	<path fill="#64320F" d="M1185.7,755.6c-17,1.1-35.4-0.7-52.8-5.5c0.8,1.3,1.6,2.6,2.3,4c0.5,1.1,1.1,2.2,1.6,3.5
		c20,6.3,39.3,7.2,52.7,6.4c-0.5-1.5-1.4-2.9-2.1-4.3C1186.8,758.4,1186.2,757,1185.7,755.6z"/>
	<path fill="#64320F" d="M956.8,584.2c8.1,2.9,16.2,6.2,23.7,10.1c1.9,1,3.7,2.1,5.5,3.2c-0.8-1.4-1.5-3-2.2-4.4
		c-4-2.4-8.2-4.9-12.7-7.4c-3.8-2.1-8.4-4.1-13.6-6.1c0,0.7-0.1,1.5-0.2,2.3C957.1,582.7,957,583.4,956.8,584.2z"/>
	<path fill="#64320F" d="M1035.5,610.9c1.8-0.2,3.5-0.3,5.1-0.4C1039.1,610.6,1037.3,610.7,1035.5,610.9
		C1035.5,610.8,1035.5,610.9,1035.5,610.9z"/>
	<path fill="#64320F" d="M1035.1,612.1c-0.1,0.4-0.3,0.8-0.5,1.1c5.5-0.5,14.6-0.5,16.7-0.5c2.1,0,3.7,0.5,5.4,1.1
		c0.2-0.5,0.4-1,0.5-1.6c-1.1-0.2-2.3-0.3-3.6-0.5c-2-0.2-4.1-0.5-6.3-0.7c-2.1-0.2-4.4-0.4-6.8-0.5c-1.5,0.1-3.3,0.2-5.1,0.4
		C1035.4,611.3,1035.3,611.7,1035.1,612.1z"/>
	<path fill="#64320F" d="M856.9,575.3c-0.1,0.1-0.2,0.1-0.3,0.2c24-1.2,51.1,3.7,78.3,9.7c-0.2-0.1-0.4-0.3-0.6-0.4
		c-2.8-1.7-5.9-2.4-8.5-4.4c-1.8-1.3-3.3-2.9-4.8-4.6c-3.4-0.9-6.8-1.7-10.2-2.5c-12.5-2.6-24.6-2.7-37.2-3.4
		c-0.5,0-0.6-0.8-0.1-0.9c11.8-1.8,24.4,0.1,36,2.1c3.1,0.5,6.1,1.1,9.2,1.8c-1.4-1.6-2.8-3.2-4.4-4.6c-17.4-3.2-35.2-5.1-49.6-5.1
		C864.1,568.1,861.1,572.5,856.9,575.3z"/>
	<path fill="#64320F" d="M1009,615.7c0.3,0.3-0.1,1-0.5,0.7c-9.7-6.6-19-14-29.8-18.9c-7.6-3.4-15.2-6.6-23-9.7
		c-0.3,0.7-0.6,1.4-1.1,2.1c25.5,7.5,39.5,31.2,44.7,58.5c1.2,3,2,6.2,1.4,9.3c1.6,13.4,1.2,27.3-0.8,40.3
		c-3.4,22.2-19.2,40.7-34.1,53.6c3.6-0.8,7.4-1.2,10.7-0.7c7.8-8.4,13.4-17.1,17.7-25.2c-0.2-1.2-0.2-2.5,0-3.7
		c0.3-2,1.3-3.5,2.2-5.3c1.6-3.3,2.5-6.5,3.1-10.1c0.9-5.6,2-10.9,4.8-15.9c1.6-2.9,4.2-7.2,7.3-9.3c3.5-12.5,5.1-22,5.1-22
		c-3.7-4.2-6.7-8.1-5.3-14.2c1.4-6.1,5.1-11,11.5-9.5c4.3,1,14.5,1.1,22.9,0.7c1.9-4.3,3.9-8.6,6-12.9c1.5-3.1,3.1-5.8,4.4-8.7
		c-1.9-0.3-3.8-0.4-5.6-0.5c-2.1-0.2-12,0.4-17.1,0.5c-0.1,0.3-0.3,0.6-0.4,0.9c-0.4,1.2-0.3,2.5-0.6,3.7c-0.5,1.9-1.5,3.4-3.2,4.4
		c-8.3,5-12-3.2-14.9-10.5c-0.6,0.1-1,0.1-1,0.1s-3.7-2.9-10-7.4c-1.2,0.7-2.6,1-4.1,1C1002.8,609.9,1005.9,612.8,1009,615.7z
		 M1009.6,651.1c1.1,2.8,3.9,4.1,5.4,6.6c1,1.6,1.5,4-0.5,5c-0.3,0.2-0.7,0.1-0.9-0.2c-0.7-1-1-2.1-1.5-3.1
		c-0.6-1.1-1.5-1.9-2.2-2.8c-1.1-1.5-1.9-3.6-1.4-5.4C1008.7,650.5,1009.5,650.6,1009.6,651.1z"/>
	<path fill="#64320F" d="M549.8,687.4c2.6-1.3,5-4,7.4-7.6c-0.3-2.4-1.5-4.4-4.1-6.4c-4.2-3.3-8.5-7-6.6-13
		c2.2-6.9,10.7-8.5,12.9-15.2c2.1-6.4,4.6-11.3,9.2-16.3c3.8-4.2,8.6-9.9,15-8.9c3,0.5,5.4,2.2,7.5,4.4c10.5-4.7,25.3-5.2,40.6-3.9
		c0.3-4.5,2.4-8.7,7.2-9.6c4.5-0.8,8.8,1.7,13.2,2.1c5.1,0.5,10.3-0.2,15.4-0.7c7.4-0.7,19.9-1.9,24.8,5.3c2.5,3.6,1.6,8.6,2.9,12.7
		c0,0,0,0.1,0,0.1c6.4,1.2,10.4,1.9,10.4,1.9c-1.3-3.5-0.7-13.6,1.2-24.3c-12.9-1.5-37.9-3.7-69.4-3.4c-4.8,0-9.3,0-13.7,0
		c-5.4,4-12.6,6.2-19,7.1c-5.1,0.7-9-1.7-13.4-3.7c-4.3-2-8.6-2.1-13-2.1c-15.4,2-27.8,6.5-38.3,17c1.6,9.5,2.4,18.2-3.7,26.9
		c-4.4,6.2-11,11.6-18,15.4c-0.3,4.1,0.1,7.9,1,11.2C526.8,685.8,540.7,691.8,549.8,687.4z M624.7,607.1c6.9-0.6,14-0.2,20.9-0.3
		c6.3,0,12.7,0.1,18.9,0.5c13.3,1,26.6,1.8,39.8,3.1c0.4,0,0.4,0.7,0,0.7c-13.3-0.7-26.5-1.5-39.8-1.6c-6.6-0.1-13.3-0.4-19.9-0.8
		c-6.6-0.4-13.4-0.2-19.9-1C624.3,607.6,624.3,607.1,624.7,607.1z"/>
	<path fill="#64320F" d="M805.8,574.5c2.4-0.7,4.9-1.3,7.4-1.9c1.3-1.3,2.8-2.5,4.3-3.6c-11,2.3-22.2,5.4-32.4,9.6
		c0.8,1,1.6,2,2.5,2.8C793.4,578.5,799.5,576.3,805.8,574.5z"/>
	<path fill="#64320F" d="M1014.6,613.5c-0.6,0.1-0.9,0.2-0.9,0.2S1014,613.6,1014.6,613.5C1014.6,613.5,1014.6,613.5,1014.6,613.5z"
		/>
	<path fill="#64320F" d="M1014.6,613.5c-0.6,0.1-0.9,0.2-0.9,0.2S1014,613.6,1014.6,613.5C1014.6,613.5,1014.6,613.5,1014.6,613.5z"
		/>
	<path fill="#64320F" d="M805.9,579.6c1.5-1.3,2.9-2.7,4.3-4.2c-7.1,2-14.1,4.4-20.8,7.4C795,586.7,801.1,583.8,805.9,579.6z"/>
	<path fill="#64320F" d="M1117.3,586.1c11.6-5.2,25.7-10,40.8-13.9c5.1-1.3,10.3-2.2,15.4-2.8c4-0.4,7.6-0.7,11.1-0.7
		c0-0.1-0.1-0.2-0.1-0.4c-0.5-1.9,2-3.7,2.7-5.4c-16.4-1.3-29.8,0.7-47.8,1.7c-0.5,0-0.6-0.7-0.1-0.8c17.3-3.9,30.4-6.2,46.2-5.2
		c-0.5-1-0.9-2-1.2-3.1c-15.1-0.7-31.4,0-46.8,2.8c-0.7,0.4-1.4,0.8-2.1,1.2c-2.1,1.3-4.7,2.5-6,4.6c-1.2,1.8-0.5,3.6-1.1,5.6
		c-1.9,5.8-11.5,10.4-17.2,9.6c-2-0.3,1.1-1.2-0.7-2.2c-1-0.5-1.9-1.2-2.9-1.8c-0.8-0.4-1.6-0.8-2.4-1.1c-1.4,0.8-2.8,1.6-4.2,2.4
		c-0.5,0.9,0.2,3.2-0.1,4.4c-0.3,1.1-0.9,2.1-1.8,2.9c-3.7,3.1-7.7,0.1-10.7-3.2c-3,2.5-5.6,4.9-8,7.2c2,4.1,2.9,9,2.8,13.5
		C1091.6,595.5,1102.9,590.5,1117.3,586.1z"/>
	<path fill="#64320F" d="M1035.6,610.5c0,0.1,0,0.2-0.1,0.3c1.8-0.2,3.5-0.3,5.1-0.3C1039.1,610.4,1037.4,610.4,1035.6,610.5z"/>
	<path fill="#64320F" d="M715.6,635c-0.8-4-0.2-7.9,2.9-11.2c1-1.1,3.1-1.2,4.1,0c2,2.4,3.9,5,6.1,7.1c2.2,2.1,4.8,3.2,7.2,5
		c3.5,2.6,4.6,6.5,4.3,10.6c8.9,7.6,9.3,21.4,17.6,43.1c3.2,8.4,6.1,17.7,9.6,27c-0.9-5.1-1.4-11.6-0.7-17.3c-2.1-8-3.6-16.4-4.4-25
		c-2.6,0.8-4.5,2-7.2,0.1c-5.7-4-4.2-13.1-1.1-18.1c0.9-1.5,3.2-2,4.5-0.6c1,1.1,2.1,1.6,3.2,1.6c0.3-15.8,3-31.7,8.6-46.8
		c0,0,1-0.9,2.9-2.3c-0.7-3.2-1.7-6.2-4.1-8.7c-1.6-1.7-3.6-2.9-5.7-3.7c-4.3,3.8-8,6.4-11.8,7.1c0,0-0.4,0-1,0
		c-0.2,0.6-0.4,1.3-0.7,2c0.7,1,0.2,2.7-1.1,2.7c-1.5,3-3.7,5.4-7.5,3.5c-3.2-1.6-6.1-4.6-9.2-6.5c-1-0.6-2-1.1-3.1-1.7
		c-0.1,0-0.3,0-0.4,0c-7.2,0.8-11.5,3.8-12.3,6.3C713.1,625.7,713.8,632,715.6,635z M741.2,617.9c5.5,0,10,2,10,5.3
		c0,3.3-4.5,5.9-10,5.9c-5.5,0-10-2.6-10-5.9C731.1,619.9,735.6,617.9,741.2,617.9z"/>
	<path fill="#64320F" d="M1166.4,576.6c2.2-2.2,4.7-4.7,7.2-7.2c-5.2,0.6-10.3,1.5-15.4,2.8c-15.2,3.9-29.2,8.7-40.8,13.9
		c12.3-3.7,27-6.9,44.3-9.7C1161.6,576.4,1163.3,576.5,1166.4,576.6z"/>
	<path fill="#64320F" d="M1236.9,590.7l4.3-4.2l29.8,13.7c-1.5-3.6-3.3-6.2-5.6-7.4c-12.6-7-27.6-13.6-43.9-18.1l-7.6,7.9
		C1223.4,584.4,1230.4,587.3,1236.9,590.7z"/>
	<path fill="#64320F" d="M1254.4,735.1c0.2-1.1,0.6-2.3,1.2-3.3c1.5-2.6,3.3-4.2,5.5-5c3.2-5.1,5.8-11.3,7.7-18.8
		c-1.7-2.3-2.8-5-2.9-8c-0.2-5.6,3.4-8.5,6.5-12.1c3.5-25.2,5.3-59.4,1.1-79.5c-1.4,4.1-3.4,9.7-5.3,15c6,15.3,3.5,33.5-1.7,51.2
		c-1.8,10.3-4.9,21.8-10,34.1c-2.1,5.2-5,9.6-8.4,13.5c-0.3,0.8-0.6,1.5-0.9,2.2c-3,7.7-9,14.1-17.1,19c1.4,1.6,2.4,3,3.3,4.8
		c4.9-1.5,10.7-4.2,16.3-8.6C1251.3,738.2,1252.9,736.7,1254.4,735.1z"/>
	<path fill="#64320F" d="M1168.4,576.8c2.5-1.1,5.3-1.6,8.2-1.8c2.6-0.6,5.4-0.9,7.9-1.3c3.2-0.5,1.4-0.6,0.2-4.8
		c-3.5,0-7.1,0.3-11.1,0.7c-2.5,2.5-5,5-7.2,7.2C1167,576.7,1167.7,576.7,1168.4,576.8z"/>
	<path fill="#64320F" d="M1215.1,579.7c-0.4,0.9-0.9,1.9-1.5,2.9c0.2,0,0.3,0.1,0.5,0.1l7.6-7.9c-2.1-0.6-4.2-1.1-6.2-1.6
		C1216.1,575.3,1216,577.4,1215.1,579.7z"/>
	<path fill="#64320F" d="M1236.9,590.7c0.7,0.4,1.4,0.7,2.1,1.1c4.3-1.5,8.8-1.7,13-0.1c5.6,2.2,7.8,6.6,9.1,12.2
		c1,4.3,2.6,8.5,3.7,12.8c1.3,2.2,2.4,4.5,3.4,6.8c1.9-5.4,3.9-10.9,5.3-15c-0.7-3.1-1.4-5.9-2.4-8.2l-29.8-13.7L1236.9,590.7z"/>
	<path fill="#64320F" d="M1275.1,603.9c-0.3-0.3-0.6-0.7-0.7-1.2c-0.1-0.4-0.2-0.8-0.2-1.2l-3.1-1.4c1,2.3,1.8,5.1,2.4,8.2
		C1274.1,606.5,1274.7,605,1275.1,603.9z"/>
	<path fill="#64320F" d="M1184.8,750.3c-17.8,1.6-36.9-2.4-53-9.6c-1.8-0.8-3.6-1.7-5.3-2.7c0.2,1.5,0.9,3.1,1.8,4.9
		c1.4,2.5,3.1,4.8,4.6,7.2c17.4,4.8,35.8,6.6,52.8,5.5c-0.4-1.3-0.7-2.6-0.8-4C1184.9,751.2,1184.8,750.7,1184.8,750.3z"/>
	<path fill="#64320F" d="M1127.8,731.8C1127.8,731.8,1127.8,731.8,1127.8,731.8c16.2,11.7,37.8,15.2,56.5,14c0,0,0,0,0,0
		C1165.6,746.9,1144,743.4,1127.8,731.8z"/>
	<path fill="#64320F" d="M1184.3,745.8c5.8-0.3,11.3-1.1,16.3-2.2c-23.6,5.3-58.4,2.5-79.9-17.9c2.2,2.2,4.7,4.3,7.2,6.1
		C1144,743.4,1165.6,746.9,1184.3,745.8z"/>
	<path fill="#64320F" d="M1200.8,743.5c0.8-0.2,1.5-0.3,2.2-0.5C1202.3,743.2,1201.5,743.4,1200.8,743.5z"/>
	<path fill="#64320F" d="M1178.9,746.1c1.8,0,3.7-0.1,5.5-0.2c0,0,0,0,0-0.1c-18.7,1.1-40.3-2.4-56.5-14c0,0.1-0.1,0.1-0.1,0.2
		C1142.2,742.7,1161.4,746.4,1178.9,746.1z"/>
	<path fill="#64320F" d="M1179.4,746.6c-0.2,0-0.3-0.2-0.5-0.5c-17.5,0.3-36.7-3.4-51.1-14.2c-0.5,0.8-0.9,1.6-1.1,2.5
		c2.4,1.7,4.9,3.2,7.4,4.7c6.3,3.8,14,6.6,21.2,7.9c9.6,1.7,19.7,2.6,29.5,2.6c-0.1-1.1-0.2-2.1-0.3-3
		C1181.9,746.6,1180.2,746.6,1179.4,746.6z"/>
	<path fill="#64320F" d="M1086.2,655.5c-0.3,17.9,2.9,30.1,10.1,41.8c0,0,0,0,0,0C1088.7,684.4,1086.3,672,1086.2,655.5z"/>
	<path fill="#64320F" d="M1079.9,619.7c-1.1,6.3,0.8,10.9,2.8,16.7c2.6,7.8,2.1,16.4-1.4,23.9c-2,4.2-6.6,7.8-7.6,12.3
		c-0.9,3.7-1.1,7.6-1.8,11.4c3,12.1,7.1,23.6,13.6,33.6c7.8-1.6,11.9,2.7,20.4,3.3c0.6,0,1.2,0,1.8,0c-2.9-3.8-5.5-7.9-7.8-12.2
		c-0.2-0.4,0.4-0.7,0.6-0.3c2.8,4.4,6.1,8.5,9.8,12.3c1.5-0.2,3-0.5,4.5-0.9c-4.4-4.5-8.2-8.7-11.4-12.7l-7.9-8.3
		c0.4-0.5,0.7-1,1.1-1.5c-7.2-11.7-10.4-23.9-10.1-41.8c-0.1-11.8,1.6-22.2,5.9-31.5c0,0,0,0,0,0c0,0-8.3,1.5-7.4-11.5
		c0.5-8.1,13.3-17.8,32.6-26.4c-14.5,4.3-25.7,9.4-34.1,15.5c0,1-0.1,1.9-0.2,2.8C1082.6,609.6,1080.8,614.5,1079.9,619.7z"/>
	<path fill="#64320F" d="M1084.8,612.5c-0.9,13,7.4,11.5,7.4,11.5c0,0,0,0,0,0c5.2-11.2,14.1-20.5,28.5-28.3
		c0.3-0.1,0.5-0.3,0.8-0.4c0.7-0.4,1.4-0.8,2.2-1.1c1-0.5,2.1-1,3.2-1.5c10.3-4.8,21.7-7.9,33.3-9.6c0,0,0.1-0.1,0.1-0.1
		c0.9-0.9,3.2-3.3,6.2-6.3c-3.1-0.2-4.8-0.2-4.8-0.2c-17.2,2.8-31.9,6-44.3,9.7C1098,594.7,1085.3,604.4,1084.8,612.5z"/>
	<path fill="#64320F" d="M1120.6,595.7c0.3-0.1,0.5-0.3,0.8-0.4C1121.1,595.4,1120.9,595.6,1120.6,595.7z"/>
	<path fill="#64320F" d="M1123.6,594.2c1-0.5,2.1-1,3.2-1.5C1125.7,593.1,1124.6,593.7,1123.6,594.2z"/>
	<path fill="#64320F" d="M1267,630.6c1.6,6.3,3.3,22.5-0.5,44c5.2-17.7,7.6-35.9,1.7-51.2c-0.6,1.7-1.2,3.4-1.8,5
		C1266.6,629.2,1266.8,630,1267,630.6z"/>
	<path fill="#64320F" d="M1227.1,737.2c0.5,2.1,1.4,4.2,3,6.1c0,0,0,0.1,0.1,0.1c8-4.9,14-11.3,17.1-19c0.3-0.7,0.6-1.5,0.9-2.2
		C1242.3,728.8,1234.9,733.7,1227.1,737.2z"/>
	<path fill="#64320F" d="M1168.4,576.8c-0.7,0-1.4-0.1-2-0.1c-3,3-5.4,5.4-6.2,6.3c1.8-1.8,3.8-3.4,5.4-4.5
		C1166.5,577.7,1167.4,577.2,1168.4,576.8z"/>
	<path fill="#64320F" d="M1266.3,624.5c0.1,1,0,2.1-0.1,3.2c0.1,0.3,0.2,0.5,0.2,0.8c0.6-1.6,1.2-3.3,1.8-5c-0.9-2.3-2-4.6-3.4-6.8
		C1265.5,619.2,1266.1,621.8,1266.3,624.5z"/>
	<path fill="#64320F" d="M1096.4,697.3C1096.4,697.3,1096.4,697.3,1096.4,697.3c0.4,0.6,0.7,1.2,1.1,1.8
		C1097.1,698.5,1096.7,697.9,1096.4,697.3z"/>
	<path fill="#64320F" d="M1096.4,697.3c-0.4,0.5-0.7,1-1.1,1.5l7.9,8.3c-2.1-2.7-4-5.3-5.7-7.9
		C1097.1,698.5,1096.7,697.9,1096.4,697.3z"/>
	<path fill="#64320F" d="M913.2,585.9c17.5,2,31.4,6.5,41.5,12.3c16.8,7.1,30.2,16.2,36.4,27.4c2.6,4.7,4.3,10.3,5.3,16.5
		c0.4,0.7,0.8,1.5,1.2,2.2c0.7,1.3,1.3,2.6,1.9,3.9c-5.2-27.3-19.2-51.1-44.7-58.5c-1.2,1.9-3,3.4-5.5,3.8
		c-5.6,0.9-10.1-5.5-14.4-8.5c-27.2-6-54.2-10.9-78.3-9.7c-7.2,4.7-16.8,2.2-23.6,7.1C851.7,578.7,883,579.9,913.2,585.9z"/>
	<path fill="#64320F" d="M996.6,664.6c-1.1,10.9-3.8,22.5-7.7,34c-2.3,17.7-8.4,35.1-25.2,49.3c-0.7,0.6-1.3,1.1-2,1.6
		c-1.2,1.5-2.4,3-3.7,4.4c0.6-0.2,1.1-0.4,1.7-0.6c1.9-0.6,4-1.2,6.2-1.7c15-13,30.8-31.5,34.1-53.6c2-13,2.3-26.9,0.8-40.3
		c-0.2,1.1-0.6,2.2-1.1,3.2C998.9,662.4,997.8,663.6,996.6,664.6z"/>
	<path fill="#64320F" d="M770.5,675.3c-2.8-1-5.8-1.6-8.2-0.9c0,0,0,0-0.1,0c0.8,8.6,2.3,16.9,4.4,25c0.6-5,2.2-9.5,5.2-12.2
		C771.3,683.1,770.8,679.2,770.5,675.3z"/>
	<path fill="#64320F" d="M771.6,649.3c0.4-0.5,0.8-0.9,1.1-1.4c2.1-7.2,5.6-14.4,8.8-20.3c-4.2-4.1-6.6-9.3-7.6-15.4
		c-0.2-1.4-0.4-2.7-0.7-4.1c-1.9,1.4-2.9,2.3-2.9,2.3c-5.6,15.1-8.3,31-8.6,46.8C765.5,657.4,769.5,651.8,771.6,649.3z"/>
	<path fill="#64320F" d="M824.4,761.4c-4.8-2.1-9-4.4-12.8-6.9c-0.1,0.6-0.2,1.2-0.3,1.8c4.3,2.7,8.9,4.9,13.4,7.1
		C824.6,762.7,824.5,762,824.4,761.4z"/>
	<path fill="#64320F" d="M936.7,772l-30.9,1.6c-0.9,0.2-1.8,0.4-2.8,0.6c-5.5,1.1-9.8,0-13.6-2.6c-3.5,5.7-5.6,9-5.8,8.8
		c-1-1.3-13.3-2.1-13.3-2.1l3.8-6.5c-5.6,0-11.4-0.4-17.3-1.2c0,0,0,0,0,0l0,0c-4-0.6-8-1.3-12.1-2.3c-0.5,1.1-1,2.1-1.5,3
		c4.2,1.3,8.5,2.3,13,2.6c0.5,0,0.5,0.8,0,0.8c-4.8-0.1-9.6-0.7-14.2-1.8c-4,4.6-10.4,3.6-13.9-1.1c-1.1-1.4-1.8-2.9-2.4-4.4
		c-5.3-2.2-10.6-4.5-15.5-7.5c-0.3,0.9-0.6,1.8-1,2.7c-0.2,0.5-0.4,0.9-0.6,1.4c13.8,9.7,30.2,17,47.6,20.8c4.1-1.3,8.6-0.4,12,2
		c21.2,2.4,43.4-0.6,64.2-11.6C933.6,773.8,935.2,773,936.7,772z"/>
	<path fill="#64320F" d="M990.1,679.8c-0.1,6.3-0.4,12.6-1.2,18.8c3.9-11.5,6.6-23.1,7.7-34c-2,1.6-4.4,2.7-7,3.2
		C990,671.9,990.1,675.9,990.1,679.8z"/>
	<path fill="#64320F" d="M996.3,642.2c-0.9-6.2-2.6-11.8-5.3-16.5c1.4,2.4,1.5,5.5,2.1,8.2C993.8,636.9,995,639.5,996.3,642.2z"/>
	<path fill="#64320F" d="M970,611.3c2.5,3.4,4.9,7.3,7,11.7c0.9-0.2,1.9-0.4,2.9-0.6c4.2-1.1,8.7-0.9,11.1,3.2
		c-6.2-11.2-19.6-20.3-36.4-27.4C961.4,602.2,966.5,606.6,970,611.3z"/>
	<path fill="#64320F" d="M873.3,585.6C873.3,585.6,873.3,585.6,873.3,585.6c4.2-2.7,9-4.1,14.6-3c2.2,0.4,4.6,1,6.5,2.2
		c6.7,0,13,0.4,18.9,1.1c-30.1-6.1-61.5-7.2-80.3-3.3c-3.8,2.7-5.4,6.5-7,10.5C840.8,588.3,857.3,586.1,873.3,585.6
		C873.2,585.7,873.3,585.7,873.3,585.6z"/>
	<path fill="#64320F" d="M905.8,773.6l30.9-1.6c1-0.6,2-1.2,2.8-2c2-2.1,3.5-4.7,5.3-6.9c3.5-4.3,8.1-7.2,13.2-9.1
		c1.2-1.4,2.5-2.9,3.7-4.4c-10.5,8.1-25.1,13.4-41.5,16.8C916.5,770.4,911.1,772.4,905.8,773.6z"/>
	<path fill="#64320F" d="M873.3,585.6L873.3,585.6C873.3,585.7,873.2,585.7,873.3,585.6C873.2,585.7,873.2,585.7,873.3,585.6
		C873.3,585.7,873.3,585.7,873.3,585.6z"/>
	<path fill="#64320F" d="M873.3,585.6C873.3,585.6,873.3,585.6,873.3,585.6C873.3,585.6,873.3,585.6,873.3,585.6
		C873.3,585.6,873.3,585.6,873.3,585.6z"/>
	<path fill="#64320F" d="M873.3,585.6C873.3,585.6,873.3,585.6,873.3,585.6L873.3,585.6C873.3,585.6,873.3,585.6,873.3,585.6z"/>
	<path fill="#FEB04B" d="M1099.1,584.1c0.9-0.7,1.5-1.8,1.8-2.9c0.3-1.2-0.4-3.5,0.1-4.4c1.4-0.8,2.8-1.6,4.2-2.4
		c0.8,0.4,1.6,0.8,2.4,1.1c1,0.5,1.9,1.2,2.9,1.8c1.8,1-1.4,1.9,0.7,2.2c5.8,0.8,15.3-3.8,17.2-9.6c0.7-2,0-3.8,1.1-5.6
		c1.3-2.1,4-3.3,6-4.6c0.7-0.4,1.4-0.8,2.1-1.2c-16,3-31,8.3-42.3,16.8c-2.5,1.9-4.8,3.7-7,5.5
		C1091.4,584.2,1095.4,587.2,1099.1,584.1z"/>
	<path fill="#FEB04B" d="M1198.3,560.1c5.1,0.8,10,1.8,14.9,3c0.1-0.3,0.3-0.5,0.5-0.8c0.6-1,1.5-2,2.5-3c-2-0.4-4-0.8-6.1-1.1
		c-7.7-1.2-16.4-2.1-25.6-2.5c0.3,1,0.7,2.1,1.2,3.1C1189.6,559,1193.8,559.4,1198.3,560.1z"/>
	<path fill="#FEB04B" d="M1215.3,572.7c-0.8-2.3-2.2-3.9-2.6-5.7c-4.9-1-9.7-1.9-14.6-2.7c-3.8-0.6-7.4-1-10.8-1.3
		c-0.7,1.7-3.2,3.5-2.7,5.4c0,0.1,0.1,0.3,0.1,0.4c10.8-0.1,19.9,1.5,30.7,4.3C1215.4,572.9,1215.4,572.8,1215.3,572.7z"/>
	<path fill="#FEB04B" d="M1184.5,573.6c-2.6,0.4-5.3,0.8-7.9,1.3c-2.9,0.2-5.7,0.7-8.2,1.8c6.9,0.5,18.4,1.6,31.3,4.3
		c5.2,0.3,9.7,0.8,13.8,1.5c0.6-1,1.1-1.9,1.5-2.9c0.9-2.2,1.1-4.4,0.4-6.6c-10.9-2.8-19.9-4.4-30.7-4.3
		C1185.9,573,1187.7,573.1,1184.5,573.6z"/>
	<path fill="#FEB04B" d="M1160.2,582.9c0,0-0.1,0.1-0.1,0.1c0,0,0,0,0,0C1160.1,583,1160.1,583,1160.2,582.9z"/>
	<path fill="#FEB04B" d="M1175,581.7C1175,581.6,1175,581.6,1175,581.7c9.6-0.9,17.7-1,24.7-0.7c-12.9-2.7-24.4-3.8-31.3-4.3
		c-1,0.4-1.9,1-2.8,1.6c-1.6,1.2-3.6,2.7-5.4,4.5c0,0-0.1,0.1-0.1,0.1C1165,582.3,1170,581.9,1175,581.7z"/>
	<path fill="#FEB04B" d="M1292.1,607c-1.5,1.8-0.2,3.3-1.8,5.2c4.4-0.6,4.4-0.4,6.6-2.6c2.5-2.4,6.3-10.6,3.7-22.2
		c-0.7,3-3.5,6.5-4.2,9.6C1295.5,600.6,1294.5,604.1,1292.1,607z"/>
	<path fill="#FEB04B" d="M1255.7,605.9c0.7,0.6,1.4,1.2,2,1.9c2.8,2.8,5.2,5.7,7.1,8.9c-1.2-4.3-2.7-8.5-3.7-12.8
		c-1.3-5.6-3.4-10-9.1-12.2c-4.1-1.6-8.7-1.3-13,0.1c1.2,0.6,2.4,1.3,3.6,2C1247.9,596.7,1252.3,601.1,1255.7,605.9z"/>
	<path fill="#FEB04B" d="M1255.7,605.9c5.3,7.4,8.6,15.8,10.4,21.8c0.1-1.2,0.2-2.2,0.1-3.2c-0.2-2.7-0.8-5.3-1.5-7.8
		c-1.9-3.1-4.2-6.1-7.1-8.9C1257.1,607.1,1256.4,606.5,1255.7,605.9z"/>
	<path fill="#FEB04B" d="M1259.5,729.1c0.6-0.8,1.2-1.6,1.8-2.5c-0.1,0-0.2,0.1-0.3,0.1C1260.6,727.5,1260,728.3,1259.5,729.1z"/>
	<path fill="#FEB04B" d="M1255.6,731.7c-0.6,1.1-1,2.2-1.2,3.3c1.8-1.9,3.5-3.9,5.2-6c0.5-0.8,1-1.5,1.5-2.4
		C1258.9,727.5,1257.1,729.1,1255.6,731.7z"/>
	<path fill="#FEB04B" d="M1277.2,671.4c-0.7,4.1-0.2,8.7-2.1,12.5c-0.7,1.5-1.7,2.7-2.7,3.9c-0.9,6.8-2,12.9-3.1,17.9
		c-0.2,0.7-0.3,1.4-0.5,2.1c0.6,0.8,1.2,1.6,1.9,2.3c8.1-18,10.4-36,11.1-51.5c0,0.1-0.1,0.1-0.1,0.2
		C1279.7,662.8,1277.9,667,1277.2,671.4z"/>
	<path fill="#FEB04B" d="M1268.8,707.9c0.2-0.7,0.3-1.4,0.5-2.1c1.1-5,2.2-11.1,3.1-17.9c-3.1,3.6-6.7,6.5-6.5,12.1
		C1266,702.9,1267.1,705.6,1268.8,707.9z"/>
	<path fill="#FEB04B" d="M1233.4,748.2c-7.3,2.3-12.7,2.2-12.7,2.2l-4.4-0.6c-9.1,3.2-19.5,5.1-30.6,5.8c0.4,1.4,1,2.7,1.7,4.1
		c0.7,1.4,1.6,2.8,2.1,4.3c1.6-0.1,3-0.2,4.4-0.3c11.4-1.1,26.3-4.9,40.4-13c-0.1-0.2-0.1-0.3-0.2-0.5
		C1234,749.5,1233.7,748.8,1233.4,748.2z"/>
	<path fill="#FEB04B" d="M1220.8,750.4c0,0,5.4,0.1,12.7-2.2c-0.8-1.8-1.9-3.2-3.3-4.8c-4.1,2.5-8.8,4.7-13.9,6.4L1220.8,750.4z"/>
	<path fill="#FEB04B" d="M1200,745c-6.3,1-11.8,1.4-15.6,1.5c0.1,0.9,0.2,2,0.3,3c0.5,0,1.1,0,1.6,0c0.4,0,0.4,0.6,0,0.6
		c-0.5,0.1-1,0.1-1.6,0.1c0,0.4,0.1,0.9,0.1,1.4c0.1,1.4,0.4,2.7,0.8,4c11.1-0.7,21.5-2.6,30.6-5.8l-24-3.3
		C1194.9,746.2,1197.4,745.7,1200,745z"/>
	<path fill="#FEB04B" d="M1200.6,743.6c-5,1.1-10.5,1.9-16.3,2.2c0,0,0,0,0,0.1c6.7-0.4,13.1-1.5,18.7-2.9c-0.7,0.2-1.5,0.4-2.2,0.5
		C1200.7,743.5,1200.7,743.6,1200.6,743.6z"/>
	<path fill="#FEB04B" d="M1200.6,743.6c0.1,0,0.1,0,0.2,0C1200.7,743.5,1200.7,743.6,1200.6,743.6z"/>
	<path fill="#FEB04B" d="M1184.3,745.8c5.8-0.3,11.3-1.1,16.3-2.2c0,0,0,0,0,0C1195.6,744.7,1190.1,745.5,1184.3,745.8
		C1184.3,745.8,1184.3,745.8,1184.3,745.8z"/>
	<path fill="#FEB04B" d="M1203,743c-0.7,0.2-1.5,0.4-2.2,0.5c0,0,0,0,0,0C1201.5,743.4,1202.3,743.2,1203,743z"/>
	<path fill="#FEB04B" d="M1200.8,743.5C1200.8,743.5,1200.8,743.5,1200.8,743.5c-0.1,0-0.1,0-0.2,0c0,0,0,0,0,0
		C1200.7,743.6,1200.7,743.5,1200.8,743.5z"/>
	<path fill="#FEB04B" d="M1227.1,737.2c-9.2,4.2-18.9,6.5-27.1,7.8c-2.5,0.7-5.1,1.2-7.6,1.5l24,3.3c5.1-1.8,9.7-3.9,13.9-6.4
		c0,0,0-0.1-0.1-0.1C1228.5,741.4,1227.6,739.3,1227.1,737.2z"/>
	<path fill="#FEB04B" d="M1114.8,719.7c-0.1,0-0.1,0-0.2,0c1.9,1.9,3.9,3.9,6.1,5.9C1118.6,723.6,1116.6,721.6,1114.8,719.7z"/>
	<path fill="#FEB04B" d="M1133,750.1c-2-0.6-4-1.2-6-1.8c-20.1-6.4-32.9-17.3-41.6-30.8c-0.8,0.2-1.5,0.3-2.4,0.6
		c-0.7,0.2-1.4,0.5-2.1,0.8c4.7,6.8,10.6,13.2,17.9,18.9c12.1,9.4,25.2,15.7,38,19.7c-0.5-1.2-1.1-2.4-1.6-3.5
		C1134.6,752.7,1133.8,751.4,1133,750.1z"/>
	<path fill="#FEB04B" d="M1126.5,738c-7.4-4.3-13.7-10.3-19-17.2c-0.6,0-1.2,0-1.8,0c-8.5-0.6-12.6-4.8-20.4-3.3
		c8.6,13.5,21.5,24.3,41.6,30.8c2,0.6,4,1.2,6,1.8c-1.5-2.4-3.2-4.7-4.6-7.2C1127.4,741.1,1126.8,739.5,1126.5,738z"/>
	<path fill="#FEB04B" d="M1120.7,725.7c2.2,2.3,4.6,4.4,7.1,6.3c0-0.1,0.1-0.1,0.1-0.2C1125.3,729.9,1122.9,727.9,1120.7,725.7z"/>
	<path fill="#FEB04B" d="M1126.7,734.4c0.2-0.8,0.6-1.7,1.1-2.5c-2.5-1.9-4.9-3.9-7.1-6.3c-2.2-2-4.2-4-6.1-5.9
		c-1.5,0.4-3,0.7-4.5,0.9C1115.1,725.8,1120.7,730.4,1126.7,734.4z"/>
	<path fill="#FEB04B" d="M1127.8,731.8c-2.5-1.8-4.9-3.8-7.2-6.1C1122.9,727.9,1125.3,729.9,1127.8,731.8
		C1127.8,731.8,1127.8,731.8,1127.8,731.8z"/>
	<path fill="#FEB04B" d="M1057.6,612.3c-0.1,0-0.2,0-0.3,0c0,0,0,0,0,0C1057.4,612.3,1057.5,612.3,1057.6,612.3L1057.6,612.3z"/>
	<path fill="#FEB04B" d="M1057.7,613l-0.1-0.7c-0.1,0-0.2,0-0.3,0c-0.2,0.5-0.3,1.1-0.5,1.6c1,0.4,2,0.9,3.1,1.4
		c0.3,0.1,0.1,0.5-0.2,0.4c-1.1-0.3-2.2-0.5-3.4-0.7c-1.2,2.9-2.9,5.6-4.4,8.7c-2.1,4.3-4.1,8.6-6,12.9c4.1-0.2,7.9-0.4,10.3-0.7
		c4.2-0.5,6.5-0.6,7.9,1.2c0.3-14.7,6.3-26.2,19-35.4c0.1-4.5-0.8-9.4-2.8-13.5c-0.8,0.8-1.6,1.6-2.4,2.4c-1.8,2.1-3.1,4-4,5.7
		C1071.6,600.8,1071.2,626.4,1057.7,613z"/>
	<path fill="#FEB04B" d="M1071.7,683.9c-2.1-8.6-3.7-17.5-5.3-26.5c-0.2,0.2-0.4,0.5-0.5,0.7c-0.5,0.7-1,2.3-2,2
		c-1.3-0.3,0.6-3.5,2.2-5.1c-0.1-0.4-0.1-0.8-0.2-1.2c-1.4,3-3.7,4-3.7,4c-0.3,6.3,0.6,20.2,5.9,35.7c1.4-2.1,2.5-4.6,3.1-7.4
		C1071.5,685.4,1071.6,684.7,1071.7,683.9z"/>
	<path fill="#FEB04B" d="M1067.4,654.1c0.5-0.1,0.8,0.3,0.7,0.7c-0.1,0.6-0.5,1-0.9,1.5c-0.3,0.3-0.5,0.7-0.8,1
		c1.5,9,3.1,17.9,5.3,26.5c0.7-3.8,1-7.6,1.8-11.4c1.1-4.5,5.6-8,7.6-12.3c3.5-7.4,4.1-16.1,1.4-23.9c-2-5.8-3.9-10.5-2.8-16.7
		c0.9-5.1,2.7-10.1,3.2-15.3c0.1-0.9,0.1-1.9,0.2-2.8c-12.7,9.2-18.7,20.7-19,35.4c1.2,1.4,1.8,3.9,2.5,8.3c0.6,3.9,0.1,6.6-0.9,8.6
		c0.1,0.4,0.1,0.8,0.2,1.2C1066.6,654.5,1067.1,654.2,1067.4,654.1z"/>
	<path fill="#FEB04B" d="M1035.6,610.5c-8.1,0.4-18,2.3-21,2.9c0,0,0,0,0,0c3-0.5,12.8-2,20.9-2.7
		C1035.5,610.7,1035.6,610.6,1035.6,610.5z"/>
	<path fill="#FEB04B" d="M1035.5,610.8c-8.1,0.7-17.9,2.2-20.9,2.7c0,0,0,0,0,0C1017.7,613.1,1027.4,611.6,1035.5,610.8
		C1035.5,610.9,1035.5,610.8,1035.5,610.8z"/>
	<path fill="#FEB04B" d="M1031.2,615c-0.5-0.1-0.8-0.8-0.3-1.1c0.6-0.3,2-0.4,3.7-0.6c0.2-0.4,0.4-0.7,0.6-1.1
		c0.2-0.4,0.3-0.8,0.4-1.2c-8.1,0.6-17.9,1.8-20.9,2.2c2.8,7.4,6.3,15.6,14.7,10.8c1.7-1,2.8-2.5,3.3-4.3c0.3-1.2,0.3-2.5,0.7-3.7
		c0.1-0.3,0.2-0.6,0.4-0.9C1032.6,615.1,1031.7,615.1,1031.2,615z M1021.5,613.7c-0.5,0.5-1.4,0.5-2.1,0.7c-0.8,0.3-1.5,0.6-2.4,0.6
		c-0.4,0-0.6-0.6-0.2-0.8c0.7-0.4,1.4-0.5,2.2-0.6c0.8-0.1,1.6-0.6,2.4-0.4C1021.6,613.3,1021.7,613.5,1021.5,613.7z"/>
	<path fill="#FEB04B" d="M999.6,607.3c1.4,0,2.8-0.4,4.1-1c-5.1-3.6-11.9-8.2-19.9-13.1c0.7,1.5,1.5,3,2.2,4.4
		C990.8,600.4,995.3,603.7,999.6,607.3z"/>
	<path fill="#FEB04B" d="M999.3,648.3c0.6,3.1,1.1,6.2,1.4,9.3C1001.3,654.5,1000.6,651.3,999.3,648.3z"/>
	<path fill="#FEB04B" d="M996.3,642.2c1,6.8,1.1,14.4,0.2,22.4c1.2-1,2.3-2.3,3.1-3.8c0.6-1.1,0.9-2.1,1.1-3.2
		c-0.4-3.1-0.8-6.3-1.4-9.3c-0.6-1.4-1.2-2.7-1.9-3.9C997.1,643.7,996.7,642.9,996.3,642.2z"/>
	<path fill="#FEB04B" d="M979.9,622.4c-1,0.3-2,0.5-2.9,0.6c5.5,11.1,9.7,24.7,11.8,38.3l0,0l0,0c0.3,2.2,0.6,4.4,0.8,6.5
		c2.6-0.5,5-1.6,7-3.2c0.8-8,0.8-15.6-0.2-22.4c-1.4-2.7-2.5-5.3-3.2-8.4c-0.6-2.7-0.7-5.8-2.1-8.2
		C988.7,621.5,984.1,621.3,979.9,622.4z"/>
	<polygon fill="#FEB04B" points="988.8,661.3 988.8,661.3 988.8,661.3 	"/>
	<path fill="#FEB04B" d="M1004.3,690.8c-2.8,5-3.8,10.3-4.8,15.9c-0.6,3.6-1.5,6.8-3.1,10.1c-0.9,1.8-1.9,3.3-2.2,5.3
		c-0.2,1.2-0.1,2.4,0,3.7c4.2-7.9,7.1-15.3,9.6-21.2c3.2-7.8,5.8-15.9,7.8-23C1008.5,683.6,1005.9,687.9,1004.3,690.8z"/>
	<path fill="#FEB04B" d="M965.9,751.6c-9,7.8-17.7,13.6-23.2,17c-3.3,2.5-6.7,4.7-10.2,6.5c-1.3,1.7-1.3,3.3-1.3,5.3
		c0,0,0,0.1,0,0.1c20.4-7.8,34.9-18.4,45.3-29.7C973.3,750.4,969.5,750.8,965.9,751.6z"/>
	<path fill="#FEB04B" d="M958,754c-4.8,5.6-9.9,10.5-15.3,14.6c5.5-3.4,14.2-9.2,23.2-17c-2.2,0.5-4.4,1.1-6.2,1.7
		C959.1,753.6,958.5,753.8,958,754z"/>
	<path fill="#FEB04B" d="M936.7,772c-1.5,0.9-3.1,1.7-4.2,3.1c3.5-1.8,6.9-4,10.2-6.5C939,770.9,936.7,772,936.7,772L936.7,772z"/>
	<path fill="#FEB04B" d="M958,754c-5.1,1.9-9.7,4.9-13.2,9.1c-1.8,2.2-3.3,4.8-5.3,6.9c-0.8,0.8-1.8,1.5-2.8,2l0,0
		c0,0,2.3-1.2,5.9-3.4C948,764.5,953.2,759.6,958,754z"/>
	<path fill="#FEB04B" d="M913.9,767.5c-4.9,0.8-9.9,1.5-15,2c-3,0.5-6,1-9,1.3c-0.2,0.3-0.3,0.5-0.5,0.8c3.8,2.6,8.1,3.7,13.6,2.6
		c0.9-0.2,1.8-0.4,2.8-0.6L898,774C898,774,904.6,771.7,913.9,767.5z"/>
	<path fill="#FEB04B" d="M913.9,767.5c-9.3,4.2-15.9,6.5-15.9,6.5l7.8-0.4c5.3-1.2,10.7-3.2,14.4-7.3
		C918.1,766.7,916,767.1,913.9,767.5z"/>
	<path fill="#FEB04B" d="M868.3,786.7c-4.1-0.5-8.1-1.1-12-2c-0.1,0-0.2,0.1-0.3,0.1c-1.8,0.6-3.3,1.7-4.5,3
		c6.5,1.3,13.3,2.1,20.4,2.5c-0.2-0.3-0.3-0.5-0.5-0.7C870.5,788.5,869.5,787.5,868.3,786.7z"/>
	<path fill="#FEB04B" d="M856.3,784.7c4,0.9,8,1.5,12,2C864.9,784.3,860.4,783.4,856.3,784.7z"/>
	<path fill="#FEB04B" d="M824.4,761.4c0.1,0.7,0.2,1.3,0.3,2c1.6,0.8,3.3,1.5,4.9,2.3c4.5,2.1,9,4.1,13.7,5.6c0.5-0.9,1.1-1.9,1.5-3
		c-1.6-0.4-3.2-0.8-4.8-1.3C834.2,765.3,829,763.4,824.4,761.4z"/>
	<path fill="#FEB04B" d="M825.8,767.2c0.6,1.5,1.3,3,2.4,4.4c3.5,4.7,10,5.8,13.9,1.1c-4.1-1-8.2-2.3-12.2-3.9
		C828.6,768.4,827.2,767.8,825.8,767.2z"/>
	<path fill="#FEB04B" d="M801.1,758.2c-15.7-12.8-27.9-34.2-34.4-58.8c-0.7,5.8-0.2,12.2,0.7,17.3c5.9,16,13.3,32.1,26,43.8
		c3.5,3.2,7.8,6.5,12.9,9.8c0.7-2.1,1.5-4.2,2.4-6.4C806.1,762.1,803.5,760.2,801.1,758.2z"/>
	<path fill="#FEB04B" d="M801.1,758.2c2.4,2,5,3.9,7.6,5.7c0.2-0.5,0.4-0.9,0.6-1.4c0.4-0.9,0.7-1.8,1-2.7c-1.5-0.9-3-1.9-4.4-2.9
		c-6.7-4.8-11.8-11.2-16.6-17.8c-4.8-6.6-10.5-13.7-12.2-21.8c-0.1-0.4,0.4-0.6,0.6-0.3c3.8,6.8,8.5,13,13.2,19.3
		c5,6.7,10.6,13.2,17.5,18c1,0.7,2,1.3,3,2c0.1-0.6,0.2-1.2,0.3-1.8c-14.1-9.3-21.7-20.9-28.6-33.4c-5.5-9.9-9.2-21.9-11.1-33.9
		c-3,2.8-4.6,7.2-5.2,12.2C773.2,724,785.4,745.3,801.1,758.2z"/>
	<path fill="#FEB04B" d="M761.7,657.4c-1.1,0-2.2-0.4-3.2-1.6c-1.3-1.4-3.6-0.9-4.5,0.6c-3.1,5-4.6,14.1,1.1,18.1
		c2.7,1.9,4.6,0.7,7.2-0.1C761.8,668.8,761.6,663.1,761.7,657.4z M757.5,662.5c-1-0.6-2-1.4-3-2.6c1.5-0.2,3-0.4,4.5-0.6
		C758.3,660.4,757.8,661.4,757.5,662.5z"/>
	<path fill="#FEB04B" d="M770.5,675.3c-0.5-7-0.3-13.7,0.5-19.5c0.3-2.5,0.9-5.2,1.7-7.8c-0.4,0.4-0.8,0.9-1.1,1.4
		c-2.1,2.5-6.1,8-9.9,8.1c-0.1,5.7,0.1,11.4,0.6,17c0,0,0,0,0.1,0C764.7,673.6,767.7,674.3,770.5,675.3z"/>
	<path fill="#FEB04B" d="M757.5,662.5c0.3-1.1,0.9-2.1,1.5-3.2c-1.5,0.2-3,0.4-4.5,0.6C755.5,661.1,756.5,661.9,757.5,662.5z"/>
	<path fill="#FEB04B" d="M721.3,631.3c0.1-1.3,0.5-2.5,1.3-3.3h-4.1C719.4,629.1,720.4,630.2,721.3,631.3z"/>
	<path fill="#FEB04B" d="M736,635.9c-2.4-1.8-5-2.8-7.2-5c-2.3-2.2-4.2-4.7-6.1-7.1c-1-1.2-3.1-1.1-4.1,0c-3.1,3.3-3.7,7.2-2.9,11.2
		c0.8,1.3,1.8,2,2.8,2.6c3.5,2.1,9.8,0.3,20.2,7.6c0.6,0.4,1.1,0.8,1.6,1.2C740.5,642.4,739.5,638.5,736,635.9z M721.3,631.3
		c-0.9-1.1-1.8-2.2-2.8-3.3h4.1C721.8,628.8,721.4,630,721.3,631.3z"/>
	<path fill="#FEB04B" d="M741.3,611.1c3.8,1.9,6.1-0.4,7.5-3.5c-0.1,0-0.1,0-0.2,0c-2.2-0.2-4.4-0.6-6.6-0.6c-1.5,0-3.3,0.6-4.5-0.7
		c-0.1-0.1-0.1-0.2-0.1-0.3c0.6-1.7,2.6-1.7,4.2-1.9c2.5-0.2,5-0.4,7.4,0.2c0.4,0.1,0.7,0.3,0.9,0.6c0.3-0.7,0.5-1.4,0.7-2
		c-3.5-0.2-15.4-0.6-21.6,0c1,0.5,2.1,1.1,3.1,1.7C735.3,606.5,738.1,609.5,741.3,611.1z"/>
	<path fill="#FEB04B" d="M769.1,599.6c2.4,2.5,3.4,5.5,4.1,8.7c4.9-3.6,15.8-10.9,31.9-17.3c5.3-3.4,13.2-7.3,24.9-11
		c8.3-2.6,17.2-4,26.6-4.5c0.1-0.1,0.2-0.1,0.3-0.2c4.2-2.8,7.2-7.2,7.9-12.1c-3.8,0-7.4,0.1-10.7,0.4c-10.4,0.9-23.3,2.5-36.5,5.3
		c-1.5,1.1-2.9,2.3-4.3,3.6c9.4-2.3,18.9-4,28.6-3.9c0.3,0,0.4,0.5,0.1,0.5c-10.5,1.4-21.2,3.4-31.6,6.3c-1.4,1.4-2.8,2.8-4.3,4.2
		c-4.8,4.2-10.9,7.1-16.5,3.3c-4.5,2-8.8,4.2-13,6.8c-0.8,0.5-1.4-0.7-0.7-1.2c3.8-2.7,7.7-5.1,11.8-7.1c-0.9-0.9-1.7-1.9-2.5-2.8
		c-1.7,0.7-3.3,1.4-5,2.1c-6.9,5.8-12.1,11.2-16.7,15.2C765.5,596.7,767.5,598,769.1,599.6z"/>
	<path fill="#FEB04B" d="M856.6,575.5c-9.4,0.5-18.3,1.9-26.6,4.5c-11.7,3.7-19.6,7.5-24.9,11c8-3.2,17.3-6.1,27.8-8.3
		C839.8,577.7,849.3,580.2,856.6,575.5z"/>
	<path fill="#FEB04B" d="M781.5,627.7c4.3-7.8,8.2-13.2,8.2-13.2c6.9-7.3,15.7-13,25.4-17.3c-6.9,1.6-13.9,3.4-20.9,5.3
		c0,0,0.8-5,10.9-11.5c-16.2,6.4-27,13.7-31.9,17.3c0.3,1.3,0.5,2.7,0.7,4.1C774.9,618.4,777.4,623.6,781.5,627.7z"/>
	<path fill="#FEB04B" d="M794.2,602.5c7.1-1.9,14-3.7,20.9-5.3c3.5-1.5,7.1-2.9,10.8-4.1c1.5-3.9,3.2-7.8,7-10.5
		c-10.5,2.2-19.8,5.2-27.8,8.3C795.1,597.5,794.2,602.5,794.2,602.5z"/>
	<path fill="#FEB04B" d="M692.3,617.7c-5-7.2-17.4-6-24.8-5.3c-5.1,0.5-10.3,1.2-15.4,0.7c-4.4-0.4-8.7-3-13.2-2.1
		c-4.8,0.9-6.9,5.1-7.2,9.6c5.8,0.5,11.7,1.2,17.5,2.1c16.3,2.4,34.8,5.8,46,7.8c0,0,0-0.1,0-0.1
		C693.9,626.3,694.8,621.3,692.3,617.7z"/>
	<path fill="#FEB04B" d="M536.2,650c6.1-8.6,5.2-17.4,3.7-26.9c-0.2,0.2-0.4,0.4-0.6,0.5c-13.8,14.3-20.3,29.5-21.1,41.8
		C525.2,661.6,531.9,656.2,536.2,650z"/>
	<path fill="#FEB04B" d="M591.2,608.1c4.5,2,8.3,4.4,13.4,3.7c6.5-0.9,13.6-3.1,19-7.1c-17.6-0.1-32.5-0.2-45.4,1.4
		C582.5,606,586.8,606.2,591.2,608.1z"/>
	<path fill="#FEB04B" d="M583.5,620.1c-6.4-1-11.1,4.7-15,8.9c-4.6,5-7.1,9.9-9.2,16.3c-2.2,6.7-10.7,8.3-12.9,15.2
		c-1.9,5.9,2.5,9.7,6.6,13c2.6,2,3.8,4.1,4.1,6.4c8.6-13.4,15.6-39.3,25.4-49.6c2.3-2.4,5.2-4.3,8.5-5.8
		C589,622.3,586.6,620.5,583.5,620.1z"/>
	<path fill="#FEB04B" d="M954.6,589.8c0.4-0.6,0.8-1.3,1.1-2.1c-3.4-1.4-6.9-2.7-10.4-4c-8-3-16.1-5.8-24.4-8
		c1.4,1.7,2.9,3.3,4.8,4.6c2.6,1.9,5.7,2.7,8.5,4.4c0.2,0.1,0.4,0.3,0.6,0.4c5.6,1.2,11.2,2.5,16.7,3.8
		C952.6,589.2,953.6,589.5,954.6,589.8z"/>
	<path fill="#FEB04B" d="M918.6,572.9c9.3,2,18.5,4.6,27.6,7.6c3.5,1.2,7,2.4,10.6,3.6c0.2-0.8,0.3-1.6,0.4-2.3
		c0.1-0.8,0.2-1.6,0.2-2.3c-12.1-4.5-27.5-8.4-43.2-11.3C915.9,569.7,917.3,571.3,918.6,572.9z"/>
	<path fill="#FEB04B" d="M949.2,593.7c2.5-0.4,4.2-1.9,5.5-3.8c-1-0.3-2.1-0.6-3.1-0.8c-5.6-1.3-11.1-2.6-16.7-3.8
		C939.1,588.1,943.5,594.6,949.2,593.7z"/>
	<path fill="#FEB04B" d="M892.7,584.9c0.6,0,1.1,0,1.7,0c-1.9-1.2-4.3-1.8-6.5-2.2c-5.6-1.1-10.4,0.3-14.5,3c0.2-0.1,4-1,4.1-1.1
		C877.5,584.5,887,583.6,892.7,584.9z"/>
	<path fill="#FEB04B" d="M878.7,585.3c4.9-0.3,9.5-0.5,14-0.5c-5.7-1.3-15.1-0.3-15.2-0.3c-0.1,0-3.9,1-4.1,1.1c0,0,0,0,0,0
		C877.1,585.1,878.7,585.3,878.7,585.3z"/>
	<path fill="#FEB04B" d="M873.2,585.7c0,0,0.1,0,0.1,0L873.2,585.7C873.3,585.7,873.3,585.7,873.2,585.7z"/>
	<path fill="#FEB04B" d="M878.7,585.3c0,0-1.6-0.3-5.3,0.3c0,0,0,0,0,0l0.1,0.1c1.8,0,3.5-0.1,5.3,0L878.7,585.3z"/>
	<path fill="#492916" d="M1068.1,693.6c-2.1,3.1-5,5.2-8.9,5.8c2.1,5.1,4.9,10.5,8.4,16c1.7,2.7,3.7,5.4,5.8,8.1
		c2.2-1.9,4.8-3.4,7.4-4.5C1075,710.6,1071,701.9,1068.1,693.6z"/>
	<path fill="#492916" d="M768.6,722.2c-0.4-1.5-0.9-3.4-1.2-5.5c-3.4-9.3-6.4-18.6-9.6-27c-8.3-21.7-8.7-35.5-17.6-43.1
		c0,0.6-0.1,1.2-0.2,1.8c-0.3,2-0.9,3.8-1.8,5.2c2.3,4.8,3.9,11.9,5.8,23.2c2.7,16.6,10.7,41.9,22.7,61.1c0.2-0.7,0.3-1.4,0.5-2.1
		C768.7,730.6,770.1,727.5,768.6,722.2z"/>
	<path fill="#492916" d="M921.3,784c-17.5,5.4-34.2,7.1-49.5,6.3c0.7,1.1,1.4,2.5,1.9,4.1c2.3,0.1,4.6,0.2,7,0.2
		c16.3,0.3,34.1-4.1,50.6-10.8c0-1.1,0-2.2,0-3.3C928.1,781.8,924.8,782.9,921.3,784z"/>
	<path fill="#492916" d="M1023,635.8c-6.4-1.5-10.1,3.4-11.5,9.5c-1.4,6.1,1.6,10,5.3,14.2c0,0-1.6,9.6-5.1,22
		c0.8-0.5,1.7-1,2.6-1.1c0.7-0.1,1.3-0.1,1.9-0.1c2.3-7.7,4.1-14.9,5.2-20.8c0,0-4-3.3-7-7.4c-3-4.2,1.5-11.2,4-13
		c0,0,14.5,1.2,26,1.4c0.5-1.3,1.1-2.6,1.6-3.9C1037.5,636.9,1027.4,636.8,1023,635.8z"/>
	<path fill="#492916" d="M806.3,770.2c-0.4,1.2-0.7,2.3-0.9,3.5c14.2,8.9,28.4,14.5,43.6,17.6c0.6-1.3,1.4-2.5,2.3-3.5
		C833.3,784.3,817.8,777.5,806.3,770.2z"/>
	<path fill="#492916" d="M994.3,725.8c-4.3,8.1-9.9,16.8-17.7,25.2c0.5,0.1,1,0.2,1.5,0.3c0.9,0.2,1.8,0.6,2.6,1.1
		c0.6-0.6,1.1-1.2,1.7-1.8c4.4-5.1,8.7-11.7,12.9-19.2c0,0,0-0.1,0-0.1C994.9,729.4,994.5,727.6,994.3,725.8z"/>
	<path fill="#492916" d="M1254.3,735.4c-1.5,1.5-3,2.9-4.6,4.2c-4.8,4.4-10,8-15.3,11.1c0.5,1.6,1.3,3.5,1.5,5.4
		c6.7-4.1,12.4-8.7,17.3-13.4c0.1-0.5,0.1-0.9,0.2-1.4C1253.8,739.4,1253.9,737.4,1254.3,735.4z"/>
	<path fill="#492916" d="M557.2,679.9c-2.3,3.6-4.7,6.3-7.4,7.6c-9.1,4.3-23-1.7-30.6-10.8c0.6,2.1,1.4,4,2.5,5.7
		c0.1,0.1,0.2,0.2,0.2,0.4c5.8,9,11.8,16.4,27.3,10.8c1.3-0.5,3-1.4,4.9-2.8c0.7-1.4,1.4-2.9,1.9-4.4
		C556.9,683.9,557.4,681.8,557.2,679.9z"/>
	<path fill="#492916" d="M1290.3,612.2c-2.2,0.3-4.4,0.8-6.5,2c-6.3,3.4,0.7,2.7,0.1,23.4c-0.2,6.1-1.7,13.3-2.1,21
		c1.6-3.3,3.4-6.8,5.6-9.8c-1.7-15.4-9.4-29.4-0.1-30.9c0.4-2,1.4-3.9,2.8-5.6C1290.2,612.4,1290.2,612.3,1290.3,612.2z"/>
	<path fill="#492916" d="M1111.9,749c-4.8-3.7-9.1-4.8-14.3-2.7c7.3,5.3,15.4,10.1,24.2,14.1c-0.3-0.6-0.7-1.3-1-1.9
		C1118.4,754.9,1115.4,751.6,1111.9,749z"/>
	<path fill="#492916" d="M1301,585.7c-0.4-0.5-0.8-1-1.2-1.4c0.3,1.1,0.5,2.1,0.8,3.1C1300.7,586.9,1300.9,586.3,1301,585.7z"/>
	<path fill="#492916" d="M1189.8,764.6c0-0.2-0.1-0.4-0.2-0.6c-13.4,0.8-32.7-0.1-52.7-6.4c1.2,2.9,2.3,6.2,2.4,9.3
		c13.9,4.1,29,6.2,44.8,5.2c1.2-0.1,2.3-0.2,3.4-0.3c0.1-0.2,0.2-0.4,0.3-0.5C1189.1,769,1190.4,767.4,1189.8,764.6z"/>
	<path fill="#492916" d="M631.6,620.5c-15.3-1.3-30.2-0.8-40.6,3.9c0.9,0.9,1.7,2,2.5,3c6.7-4.7,19.5-6.3,38.2-4.4
		C631.6,622.2,631.6,621.4,631.6,620.5z"/>
	<path fill="#492916" d="M1259.7,735.9c1.3-1.5,2.6-3.1,3.7-4.5c-0.3,0.1-0.6,0.1-0.9,0.3C1261.1,732.2,1260.2,734.2,1259.7,735.9z"
		/>
	<path fill="#492916" d="M716.3,609.3c0,0-3.4-0.5-9.6-1.2c-1.9,10.7-2.4,20.8-1.2,24.3c0,0-4.1-0.8-10.4-1.9c0.5,1.6,1,3,1.5,4.5
		c8,1.7,14.9,3.2,20.5,4.7c-0.7-1.5-1.2-3.1-1.5-4.7C713.8,632,713.1,625.7,716.3,609.3z"/>
	<path fill="#492916" d="M1265.5,720.2c-1.3,2.2-2.7,4.4-4.2,6.4c1.7-0.6,3.7-0.6,5.8-0.3c1.8-2.7,3.3-5.2,4.6-7.4
		c0.9-1.6,1.8-3.5,2.7-5.4c-1.3-1-2.6-2.1-3.7-3.4C1269.1,713.5,1267.4,716.9,1265.5,720.2z"/>
	<path fill="#492916" d="M1249.7,739.6c1.6-1.2,3.1-2.6,4.6-4.2c0-0.1,0.1-0.2,0.1-0.4C1252.9,736.7,1251.3,738.2,1249.7,739.6z"/>
	<path fill="#492916" d="M758.6,594.6c-2.7,2.6-5.1,5.4-6.9,8.4c3.8-0.7,7.5-3.3,11.8-7.1C761.9,595.3,760.3,594.8,758.6,594.6z"/>
	<path fill="#B48140" d="M1301,585.7c-0.1,0.6-0.3,1.1-0.4,1.7c2.6,11.6-1.2,19.8-3.7,22.2c-2.2,2.2-2.2,2-6.6,2.6
		c-0.1,0.1-0.1,0.1-0.2,0.2c-1.4,1.6-2.4,3.6-2.8,5.6c0.3-0.1,0.6-0.1,1-0.1c11.4-0.7,11.8-0.6,13.9-10.4
		C1303.9,599.8,1304.8,591,1301,585.7z"/>
	<path fill="#B48140" d="M1261.3,726.6c-0.6,0.8-1.2,1.7-1.8,2.5c-1.7,2.4-3.4,4.5-5.2,6.4c-0.4,1.9-0.5,3.9-0.9,5.9
		c-0.1,0.5-0.2,0.9-0.2,1.4c2.4-2.3,4.6-4.6,6.6-6.9c0.5-1.7,1.4-3.6,2.9-4.3c0.3-0.1,0.6-0.2,0.9-0.3c1.3-1.7,2.6-3.4,3.7-5
		C1265,726,1263.1,726,1261.3,726.6z"/>
	<path fill="#B48140" d="M1254.3,735.4c1.8-1.9,3.6-4,5.2-6.4c-1.6,2.1-3.4,4.1-5.2,6C1254.3,735.2,1254.3,735.3,1254.3,735.4z"/>
	<path fill="#B48140" d="M1270.6,710.2c1.1,1.2,2.4,2.3,3.7,3.4c8-17.9,14.3-47.9,13.2-62.9c0-0.6-0.1-1.2-0.2-1.8
		c-2.3,3-4,6.4-5.6,9.8C1281,674.1,1278.7,692.2,1270.6,710.2z"/>
	<path fill="#B48140" d="M1194,763.7c-1.4,0.1-2.9,0.2-4.4,0.3c0.1,0.2,0.1,0.4,0.2,0.6c0.7,2.8-0.7,4.4-2,6.6
		c-0.1,0.2-0.2,0.4-0.3,0.5c19.9-1.8,35.9-7.9,48.5-15.7c-0.2-1.9-1-3.8-1.5-5.4C1220.3,758.7,1205.4,762.6,1194,763.7z"/>
	<path fill="#B48140" d="M1098.8,737.8c-7.3-5.7-13.2-12.2-17.9-18.9c-2.6,1.1-5.2,2.6-7.4,4.5c6.4,8.1,14.6,15.9,24.2,22.9
		c5.2-2.2,9.5-1,14.3,2.7c3.4,2.7,6.5,5.9,8.9,9.6c0.4,0.6,0.7,1.2,1,1.9c5.5,2.5,11.4,4.7,17.4,6.5c0-3.1-1.1-6.4-2.4-9.3
		C1124,753.5,1110.9,747.3,1098.8,737.8z"/>
	<path fill="#B48140" d="M1068.1,693.6c-5.3-15.5-6.2-29.4-5.9-35.7c0,0,2.3-1,3.7-4c-0.2-1.3-0.4-2.6-0.6-3.9
		c-0.8-4.6-1.1-8.9-1-13c-1.5-1.8-3.8-1.7-7.9-1.2c-2.5,0.3-6.2,0.6-10.3,0.7c-0.6,1.3-1.1,2.6-1.6,3.9c5,0.1,9.5,0,12-0.4
		c0,0,6,11.9-3.7,19.4c0,0-2.9,17.3,6.6,39.9C1063.2,698.7,1066.1,696.6,1068.1,693.6z"/>
	<path fill="#B48140" d="M1066.7,645.3c-0.7-4.4-1.4-6.9-2.5-8.3c-0.1,4.1,0.3,8.4,1,13c0.2,1.3,0.4,2.6,0.6,3.9
		C1066.8,651.9,1067.4,649.2,1066.7,645.3z"/>
	<path fill="#B48140" d="M1014.3,680.3c-0.9,0.2-1.8,0.6-2.6,1.1c-2,7.1-4.6,15.2-7.8,23c-2.5,5.9-5.4,13.3-9.6,21.2
		c0.2,1.8,0.7,3.6,0.9,5.3c0,0,0,0.1,0,0.1c8.5-15.4,16-34.5,21-50.9C1015.6,680.2,1015,680.2,1014.3,680.3z"/>
	<path fill="#B48140" d="M976.6,750.9c-10.5,11.2-24.9,21.9-45.3,29.7c0,1.1,0,2.2,0,3.3c20.6-8.4,39-20.4,49.4-31.6
		c-0.8-0.5-1.7-0.8-2.6-1.1C977.6,751.1,977.1,751,976.6,750.9z"/>
	<path fill="#B48140" d="M851.4,787.9c-0.9,1-1.7,2.2-2.3,3.5c7.9,1.6,16,2.6,24.6,3.1c-0.5-1.6-1.2-3-1.9-4.1
		C864.7,790,857.9,789.1,851.4,787.9z"/>
	<path fill="#B48140" d="M793.4,760.5c-12.7-11.7-20.1-27.8-26-43.8c0.4,2.1,0.8,4,1.2,5.5c1.5,5.3,0,8.5-1.4,13.5
		c-0.2,0.7-0.4,1.4-0.5,2.1c4.3,6.9,9.1,13,14.3,17.6c8.3,7.3,16.4,13.4,24.5,18.4c0.2-1.2,0.5-2.4,0.9-3.5
		C801.2,767,796.9,763.7,793.4,760.5z"/>
	<path fill="#B48140" d="M740.2,646.5c-0.5-0.4-1-0.8-1.6-1.2c-10.5-7.3-16.7-5.5-20.2-7.6c-1-0.6-2-1.3-2.8-2.6
		c0.3,1.6,0.8,3.1,1.5,4.7c4.9,1.3,8.7,2.6,11.2,3.9c4.6,2.4,7.6,5,9.9,9.8c1-1.4,1.5-3.2,1.8-5.2
		C740.1,647.7,740.2,647.1,740.2,646.5z"/>
	<path fill="#B48140" d="M649.1,622.6c-5.7-0.9-11.6-1.6-17.5-2.1c-0.1,0.9,0,1.7,0,2.6c7.4,0.7,15.8,2,25,3.9c15,3,28.6,5.6,40,8
		c-0.5-1.5-1-3-1.5-4.5C683.9,628.4,665.4,625.1,649.1,622.6z"/>
	<path fill="#B48140" d="M582.6,630.3c-9.7,10.3-16.8,36.2-25.4,49.6c0.2,1.9-0.2,4-1.1,6.5c-0.6,1.5-1.2,2.9-1.9,4.4
		c4.7-3.4,10.5-9.6,14.9-19.1c0.8-1.7,1.5-3.3,2.3-5c-0.1,0.1,0.2-8.3,2.5-13.1c2.4-4.8,6.5-6.7,6.5-6.7s0,0,0,0
		c3.7-7.5,7.3-13.9,11.4-17.9c0.6-0.5,1.2-1,1.8-1.5c-0.8-1-1.6-2.1-2.5-3C587.7,626,584.9,627.9,582.6,630.3z"/>
	<path fill="#B48140" d="M780.1,580.7c-8.4,3.8-15.8,8.4-21.5,13.9c1.7,0.3,3.3,0.7,4.8,1.3C768,591.8,773.3,586.5,780.1,580.7z"/>
	<path fill="#B48140" d="M1057.6,612.3c3,0.4,5.1,0.7,5.1,0.7s-2-0.5-5.1-1L1057.6,612.3z"/>
	<path fill="#B48140" d="M1057.6,612.3c3.6,0.5,5.6,0.9,5.1,0.7C1062.7,613,1060.6,612.7,1057.6,612.3L1057.6,612.3z"/>
	<path fill="#B48140" d="M1057.6,612.3l0.1,0.7c13.5,13.4,13.9-12.2,16.4-16.9c0.9-1.6,2.2-3.6,4-5.7
		c-13.2,13.6-15.4,22.5-15.4,22.5C1063.2,613.2,1061.2,612.8,1057.6,612.3z"/>
	<path fill="#492916" d="M1235,592.5l1.9-1.8c-6.5-3.4-13.5-6.3-22.9-8l-1.5,1.5C1220.1,586.3,1227.8,589,1235,592.5z"/>
	<path fill="#492916" d="M1256.5,708.7c5-12.3,8.1-23.8,10-34.1c-5.2,17.5-13.1,34.4-18.4,47.6
		C1251.5,718.3,1254.4,713.9,1256.5,708.7z"/>
	<path fill="#492916" d="M1212.5,584.1l1.5-1.5c-0.2,0-0.3-0.1-0.5-0.1c-0.3,0.5-0.7,1.1-1.1,1.6
		C1212.4,584.1,1212.5,584.1,1212.5,584.1z"/>
	<path fill="#492916" d="M1236.1,593c1-0.5,2-0.9,3-1.2c-0.7-0.4-1.4-0.7-2.1-1.1l-1.9,1.8C1235.4,592.6,1235.7,592.8,1236.1,593z"
		/>
	<path fill="#492916" d="M1178.9,746.1c0.2,0.3,0.3,0.4,0.5,0.5c0.8,0,2.6,0,5-0.1c0-0.2,0-0.4-0.1-0.6
		C1182.5,746,1180.7,746.1,1178.9,746.1z"/>
	<path fill="#492916" d="M1267,630.6c-0.2-0.7-0.4-1.4-0.6-2.2c-0.2,0.7-0.5,1.4-0.7,2c-0.5,1.9-1.1,3.9-2.1,5.7c0,0,0,0,0,0
		c0.6,2.4,1.1,4.8,1.4,7.3c2.9,21.9-7.2,54.4-11.8,64.8c-2.9,6.7-13.3,16.9-26.7,24.8c0.1,1.4,0.2,2.8,0.5,4.2
		c7.8-3.5,15.2-8.4,21-15c5.3-13.1,13.2-30.1,18.4-47.6C1270.3,653.1,1268.5,636.9,1267,630.6z"/>
	<path fill="#492916" d="M1224,590.2c3,1.5,5.8,3,8.5,4.7c0,0,0,0,0,0l2.6-2.5c-7.3-3.5-15-6.2-22.5-8.3l-1.3,1.4
		C1215.8,586.8,1220.1,588.4,1224,590.2z"/>
	<path fill="#492916" d="M1212.5,584.1c0,0-0.1,0-0.1,0c-0.4,0.5-0.8,0.9-1.2,1.4c0,0,0,0,0,0L1212.5,584.1z"/>
	<path fill="#492916" d="M1232.5,594.9C1232.5,594.9,1232.5,594.9,1232.5,594.9c1.2-0.7,2.4-1.4,3.6-2c-0.3-0.2-0.7-0.3-1-0.5
		L1232.5,594.9C1232.5,594.9,1232.5,594.9,1232.5,594.9z"/>
	<path fill="#492916" d="M1266.4,628.5c-0.1-0.3-0.1-0.5-0.2-0.8c-0.1,0.9-0.3,1.8-0.5,2.8C1265.9,629.8,1266.1,629.2,1266.4,628.5z
		"/>
	<polygon fill="#492916" points="1263.6,636.2 1263.6,636.2 1263.6,636.2 	"/>
	<path fill="#B48140" d="M1213.5,582.5c-4.1-0.7-8.6-1.3-13.8-1.5c4.1,0.9,8.4,1.9,12.7,3.1C1212.8,583.6,1213.2,583.1,1213.5,582.5
		z"/>
	<path fill="#B48140" d="M1175,581.6C1175,581.6,1175,581.6,1175,581.6c12.9-0.4,25.4,0.9,36.2,3.9c0.4-0.5,0.8-0.9,1.2-1.4
		c-4.3-1.2-8.6-2.2-12.7-3.1C1192.7,580.7,1184.6,580.8,1175,581.6z"/>
	<path fill="#B48140" d="M1255.7,605.9c-3.5-4.8-7.8-9.2-13.2-12.2c-1.2-0.7-2.4-1.3-3.6-2c-1,0.3-2,0.7-3,1.2
		C1243.2,596.5,1250,600.7,1255.7,605.9z"/>
	<path fill="#B48140" d="M1265.7,630.5c-0.8,2.2-1.5,4.2-2.1,5.7C1264.5,634.4,1265.2,632.4,1265.7,630.5z"/>
	<path fill="#B48140" d="M1236.1,593c-1.2,0.6-2.4,1.2-3.6,2c16.7,10.5,27.1,25,31.2,41.3c0,0,0,0,0,0c0.6-1.6,1.3-3.6,2.1-5.7
		c0.2-1,0.4-1.9,0.5-2.8c-1.8-6-5.1-14.4-10.4-21.8C1250,600.7,1243.2,596.5,1236.1,593z"/>
	<path fill="#B48140" d="M1203,743c-5.6,1.4-11.9,2.4-18.7,2.9c0,0.2,0,0.4,0.1,0.6c3.8-0.1,9.3-0.5,15.6-1.5
		c5.2-1.4,10.4-3.6,15.3-6.2C1211.3,740.5,1207.2,741.9,1203,743z"/>
	<path fill="#B48140" d="M1200,745c8.3-1.3,18-3.6,27.1-7.8c-0.3-1.4-0.5-2.8-0.5-4.2c-3.6,2.1-7.3,4-11.2,5.7
		C1210.4,741.4,1205.2,743.6,1200,745z"/>
	<path fill="#492916" d="M963.7,747.9c16.7-14.2,22.9-31.6,25.2-49.3c-6.3,18.3-15.7,36.4-27.2,50.9
		C962.3,749,963,748.5,963.7,747.9z"/>
	<path fill="#492916" d="M913.2,585.9c14.6,2.9,29,7.1,41.5,12.3C944.6,592.4,930.7,587.9,913.2,585.9z"/>
	<path fill="#492916" d="M856.9,770.6C856.9,770.6,856.9,770.6,856.9,770.6C856.9,770.6,856.9,770.6,856.9,770.6L856.9,770.6z"/>
	<path fill="#492916" d="M896.2,586.5C896.2,586.5,896.2,586.5,896.2,586.5C896.2,586.5,896.2,586.5,896.2,586.5
		c31,3,59,14.3,67.1,24c2.9,3.5,6.2,8,9.3,13c1.5-0.1,2.9-0.2,4.4-0.5c-2.2-4.3-4.5-8.3-7-11.7c-3.5-4.7-8.6-9.2-15.3-13.1
		c-12.5-5.3-26.8-9.4-41.5-12.3c-5.9-0.7-12.2-1-18.9-1.1C895,585.3,895.7,585.8,896.2,586.5z"/>
	<path fill="#492916" d="M989.6,667.8c-0.7,0.2-1.4,0.3-2.2,0.3c-0.3,0-0.5,0.1-0.7,0.1c0.9,15.7-0.1,29.9-7.4,45.5
		c-0.9,1.9-1.9,3.9-2.9,5.9c0,0,0,0,0,0l0,0c0.1,3-0.8,6.1-2.6,8.7c-1.4,2-3.3,3.9-5.7,4.6c0,0,0,0,0,0c0,0,0,0,0,0
		c-8.8,11.8-20.8,22.5-37.6,28.2c-2.7,0.9-5.5,1.8-8.3,2.7c-0.5,0.9-1.2,1.8-1.9,2.5c16.4-3.3,31-8.7,41.5-16.8
		c11.5-14.6,20.9-32.6,27.2-50.9c0.8-6.3,1.1-12.6,1.2-18.8C990.1,675.9,990,671.9,989.6,667.8z"/>
	<path fill="#492916" d="M986.7,668.3c0.2,0,0.5-0.1,0.7-0.1C987.2,668.2,986.9,668.2,986.7,668.3
		C986.7,668.3,986.7,668.3,986.7,668.3z"/>
	<path fill="#492916" d="M967.9,733C967.9,733,967.9,733,967.9,733C967.9,733,967.9,733,967.9,733C968,733,967.9,733,967.9,733
		C967.9,733,967.9,733,967.9,733z"/>
	<path fill="#492916" d="M976.3,719.7L976.3,719.7C976.3,719.6,976.3,719.6,976.3,719.7C976.3,719.6,976.3,719.6,976.3,719.7
		C976.3,719.6,976.3,719.7,976.3,719.7z"/>
	<polygon fill="#492916" points="896.2,586.5 896.2,586.5 896.2,586.5 896.2,586.5 	"/>
	<path fill="#B48140" d="M972.6,623.5l5,2.6l11.2,35.2c-2-13.6-6.2-27.2-11.8-38.3C975.5,623.3,974.1,623.4,972.6,623.5
		C972.6,623.5,972.6,623.5,972.6,623.5C972.6,623.5,972.6,623.5,972.6,623.5z"/>
	<path fill="#B48140" d="M989.6,667.8c-0.2-2.2-0.5-4.4-0.8-6.5l-1.4,6.9C988.1,668.1,988.9,668,989.6,667.8z"/>
	<path fill="#B48140" d="M972.6,623.5C972.6,623.5,972.6,623.5,972.6,623.5c6.4,10.2,12.2,23,13.4,35.9c0.3,3,0.5,5.9,0.7,8.8
		c0.3,0,0.5,0,0.7-0.1l1.4-6.9c0,0,0,0,0,0l-11.2-35.2L972.6,623.5z"/>
	<path fill="#B48140" d="M968,733c2.4-0.6,4.3-2.6,5.7-4.6c1.8-2.6,2.7-5.7,2.6-8.7l-0.4,3C975.9,722.7,970.5,732.1,968,733z"/>
	<path fill="#B48140" d="M967.9,733C967.9,733,968,733,967.9,733c2.6-0.9,8-10.3,8-10.3l0.4-3c0,0,0,0,0,0
		C973.9,724.1,971.1,728.6,967.9,733z"/>
	<path fill="#B48140" d="M921.3,764c-7.1,2.2-14.6,4.1-22.4,5.5c5.1-0.5,10.1-1.2,15-2C916.3,766.4,918.7,765.3,921.3,764z"/>
	<path fill="#B48140" d="M920.2,766.3c0.7-0.8,1.3-1.6,1.9-2.5c-0.2,0.1-0.5,0.1-0.7,0.2c-2.6,1.3-5.1,2.4-7.4,3.5
		C916,767.1,918.1,766.7,920.2,766.3z"/>
	<path fill="#B48140" d="M896.2,586.5c-0.5-0.6-1.2-1.1-1.9-1.6c-0.5,0-1.1,0-1.7,0C894.2,585.2,895.4,585.7,896.2,586.5z"/>
	<path fill="#B48140" d="M878.7,585.3l0.5,0.3c2.6,0,5.2,0.1,7.8,0.2c3.1,0.1,6.2,0.3,9.3,0.6c0,0,0,0,0,0c-0.7-0.7-2-1.2-3.5-1.6
		C888.2,584.9,883.5,585,878.7,585.3z"/>
	<path fill="#B48140" d="M878.6,585.6c0.2,0,0.3,0,0.5,0l-0.5-0.3L878.6,585.6z"/>
	<path opacity="0.4" fill="#A9DFFF" d="M950,616.3c0,0-23.2-18.9-60.3-13.3l-99,123.8c9.2,20.4,44.1,36.4,44.1,36.4L950,616.3z"/>
	<path opacity="0.3" fill="#FFFFFF" d="M950,616.3c0,0-23.2-18.9-60.3-13.3l-99,123.8c9.2,20.4,44.1,36.4,44.1,36.4L950,616.3z"/>
	<path opacity="0.4" fill="#A9DFFF" d="M889.9,770.8c19.4-31.8,77.1-131.5,77.1-131.5c0-5.2-6.3-15.3-6.3-15.3l-86.5,147.7
		c4.9,0,9.7-0.3,14.4-0.8C889,770.9,889.5,770.9,889.9,770.8z"/>
	<path opacity="0.3" fill="#FFFFFF" d="M889.9,770.8c19.4-31.8,77.1-131.5,77.1-131.5c0-5.2-6.3-15.3-6.3-15.3l-86.5,147.7
		c4.9,0,9.7-0.3,14.4-0.8C889,770.9,889.5,770.9,889.9,770.8z"/>
	<path fill="#64320F" d="M874.2,771.8l-3.8,6.5c0,0,12.3,0.8,13.3,2.1c0.2,0.2,2.3-3.1,5.8-8.8c-0.3-0.2-0.6-0.4-0.9-0.6
		C883.9,771.5,879.1,771.8,874.2,771.8z"/>
	<path fill="#FEB04B" d="M888.6,771c0.3,0.2,0.6,0.4,0.9,0.6c0.2-0.2,0.3-0.5,0.5-0.8C889.5,770.9,889,770.9,888.6,771z"/>
	<path opacity="0.3" fill="#FFFFFF" d="M888.6,771c0.3,0.2,0.6,0.4,0.9,0.6c0.2-0.2,0.3-0.5,0.5-0.8
		C889.5,770.9,889,770.9,888.6,771z"/>
	<path fill="#492916" d="M571.3,666.7c4.8-8.6,8.9-19.5,9-19.8C577.3,652.9,574.4,659.7,571.3,666.7
		C571.3,666.7,571.3,666.7,571.3,666.7z"/>
	<path fill="#492916" d="M573.8,653.6c-2.3,4.8-2.6,13.2-2.5,13.1c3.2-7,6.1-13.8,9-19.8c0,0,0,0,0,0S576.1,648.8,573.8,653.6z"/>
	<path fill="#D8D8D8" d="M741.2,629.1c5.5,0,10-2.6,10-5.9c0-3.3-4.5-5.3-10-5.3c-5.5,0-10,2-10,5.3
		C731.1,626.5,735.6,629.1,741.2,629.1z M744.1,619.2c1.9,0,3.4,1.1,3.4,2.3c0,1.3-1.5,2.3-3.4,2.3s-3.4-1.1-3.4-2.3
		C740.8,620.3,742.3,619.2,744.1,619.2z"/>
	<ellipse fill="#F4F4F4" cx="744.1" cy="621.6" rx="3.4" ry="2.3"/>
	<path fill="#D8D8D8" d="M1275.1,603.9c1.6,1.7,5,2.1,8.5,0.9c4.2-1.4,6.9-4.7,6-7.3s-5-3.5-9.2-2c-3.6,1.2-6.1,3.8-6.2,6.1l1.4,0.7
		C1275.6,602.3,1275.4,602.9,1275.1,603.9z M1281.9,598.1c0.2-1.1,1.8-1.7,3.6-1.4c1.8,0.3,3,1.5,2.8,2.6c-0.2,1.1-1.8,1.7-3.6,1.4
		C1282.9,600.3,1281.7,599.2,1281.9,598.1z"/>
	<path fill="#D8D8D8" d="M1275.1,603.9c0.4-1,0.6-1.6,0.6-1.6l-1.4-0.7c0,0.4,0,0.8,0.2,1.2C1274.5,603.2,1274.7,603.6,1275.1,603.9
		z"/>
	<path fill="#F4F4F4" d="M1284.7,600.7c1.8,0.3,3.4-0.3,3.6-1.4c0.2-1.1-1-2.3-2.8-2.6c-1.8-0.3-3.4,0.3-3.6,1.4
		C1281.7,599.2,1282.9,600.3,1284.7,600.7z"/>
	<path fill="#FEB04B" d="M1063.9,660.2c1,0.2,1.6-1.4,2-2c0.2-0.3,0.4-0.5,0.5-0.7c-0.1-0.8-0.3-1.6-0.4-2.4
		C1064.5,656.7,1062.6,659.9,1063.9,660.2z"/>
	<path opacity="0.35" fill="#D8D8D8" d="M1063.9,660.2c1,0.2,1.6-1.4,2-2c0.2-0.3,0.4-0.5,0.5-0.7c-0.1-0.8-0.3-1.6-0.4-2.4
		C1064.5,656.7,1062.6,659.9,1063.9,660.2z"/>
	<path fill="#FEB04B" d="M1068.1,654.9c0.1-0.5-0.3-0.8-0.7-0.7c-0.3,0-0.8,0.4-1.3,0.9c0.1,0.8,0.3,1.6,0.4,2.4
		c0.3-0.3,0.5-0.7,0.8-1C1067.6,655.9,1068.1,655.5,1068.1,654.9z"/>
	<path opacity="0.35" fill="#D8D8D8" d="M1068.1,654.9c0.1-0.5-0.3-0.8-0.7-0.7c-0.3,0-0.8,0.4-1.3,0.9c0.1,0.8,0.3,1.6,0.4,2.4
		c0.3-0.3,0.5-0.7,0.8-1C1067.6,655.9,1068.1,655.5,1068.1,654.9z"/>
	<path fill="#64320F" d="M624.7,607.7c6.6,0.7,13.3,0.6,19.9,1c6.6,0.4,13.3,0.7,19.9,0.8c13.3,0.2,26.5,0.9,39.8,1.6
		c0.4,0,0.4-0.6,0-0.7c-13.2-1.3-26.5-2.1-39.8-3.1c-6.3-0.5-12.6-0.6-18.9-0.5c-6.9,0-14-0.3-20.9,0.3
		C624.3,607.1,624.3,607.6,624.7,607.7z"/>
	<path opacity="0.75" fill="#FFFFFF" d="M624.7,607.7c6.6,0.7,13.3,0.6,19.9,1c6.6,0.4,13.3,0.7,19.9,0.8
		c13.3,0.2,26.5,0.9,39.8,1.6c0.4,0,0.4-0.6,0-0.7c-13.2-1.3-26.5-2.1-39.8-3.1c-6.3-0.5-12.6-0.6-18.9-0.5c-6.9,0-14-0.3-20.9,0.3
		C624.3,607.1,624.3,607.6,624.7,607.7z"/>
	<path fill="#64320F" d="M750,604.9c-0.3,0.9-0.7,1.8-1.1,2.7C750.2,607.6,750.7,605.9,750,604.9z"/>
	<path opacity="0.75" fill="#FFFFFF" d="M750,604.9c-0.3,0.9-0.7,1.8-1.1,2.7C750.2,607.6,750.7,605.9,750,604.9z"/>
	<path fill="#FEB04B" d="M741.7,604.1c-1.6,0.2-3.5,0.2-4.2,1.9c0,0.1,0,0.2,0.1,0.3c1.1,1.3,3,0.7,4.5,0.7c2.2,0,4.4,0.4,6.6,0.6
		c0.1,0,0.1,0,0.2,0c0.4-0.9,0.8-1.8,1.1-2.7c-0.2-0.3-0.5-0.5-0.9-0.6C746.7,603.7,744.2,603.9,741.7,604.1z"/>
	<path opacity="0.75" fill="#FFFFFF" d="M741.7,604.1c-1.6,0.2-3.5,0.2-4.2,1.9c0,0.1,0,0.2,0.1,0.3c1.1,1.3,3,0.7,4.5,0.7
		c2.2,0,4.4,0.4,6.6,0.6c0.1,0,0.1,0,0.2,0c0.4-0.9,0.8-1.8,1.1-2.7c-0.2-0.3-0.5-0.5-0.9-0.6C746.7,603.7,744.2,603.9,741.7,604.1z
		"/>
	<path fill="#64320F" d="M787.6,581.4c0.3,0.3,0.5,0.5,0.8,0.7c0.3,0.3,0.7,0.5,1,0.8c6.7-3,13.7-5.4,20.8-7.4c1-1,1.9-1.9,2.9-2.9
		c-2.5,0.6-4.9,1.3-7.4,1.9C799.5,576.3,793.4,578.5,787.6,581.4z"/>
	<path opacity="0.75" fill="#FFFFFF" d="M787.6,581.4c0.3,0.3,0.5,0.5,0.8,0.7c0.3,0.3,0.7,0.5,1,0.8c6.7-3,13.7-5.4,20.8-7.4
		c1-1,1.9-1.9,2.9-2.9c-2.5,0.6-4.9,1.3-7.4,1.9C799.5,576.3,793.4,578.5,787.6,581.4z"/>
	<path fill="#FEB04B" d="M841.8,569.2c0.3,0,0.2-0.5-0.1-0.5c-9.7-0.1-19.2,1.6-28.6,3.9c-1,0.9-2,1.9-2.9,2.9
		C820.6,572.6,831.3,570.6,841.8,569.2z"/>
	<path opacity="0.75" fill="#FFFFFF" d="M841.8,569.2c0.3,0,0.2-0.5-0.1-0.5c-9.7-0.1-19.2,1.6-28.6,3.9c-1,0.9-2,1.9-2.9,2.9
		C820.6,572.6,831.3,570.6,841.8,569.2z"/>
	<path fill="#FEB04B" d="M787.6,581.4c-4.1,2-8.1,4.4-11.8,7.1c-0.7,0.5-0.1,1.7,0.7,1.2c4.2-2.6,8.5-4.8,13-6.8
		c-0.3-0.2-0.7-0.5-1-0.8C788.1,581.9,787.9,581.6,787.6,581.4z"/>
	<path opacity="0.75" fill="#FFFFFF" d="M787.6,581.4c-4.1,2-8.1,4.4-11.8,7.1c-0.7,0.5-0.1,1.7,0.7,1.2c4.2-2.6,8.5-4.8,13-6.8
		c-0.3-0.2-0.7-0.5-1-0.8C788.1,581.9,787.9,581.6,787.6,581.4z"/>
	<path fill="#64320F" d="M978.7,597.4c10.8,4.9,20.1,12.3,29.8,18.9c0.4,0.3,0.9-0.3,0.5-0.7c-3-2.9-6.2-5.8-9.4-8.4
		c-3.1,0.1-6.4-1.2-8.7-3.1c-2.1-1.7-3.6-4.1-5-6.6c-1.8-1.1-3.6-2.2-5.5-3.2c-7.5-4-15.6-7.2-23.7-10.1c-0.3,1.2-0.6,2.4-1.1,3.6
		C963.4,590.8,971.1,594,978.7,597.4z"/>
	<path opacity="0.75" fill="#FFFFFF" d="M978.7,597.4c10.8,4.9,20.1,12.3,29.8,18.9c0.4,0.3,0.9-0.3,0.5-0.7c-3-2.9-6.2-5.8-9.4-8.4
		c-3.1,0.1-6.4-1.2-8.7-3.1c-2.1-1.7-3.6-4.1-5-6.6c-1.8-1.1-3.6-2.2-5.5-3.2c-7.5-4-15.6-7.2-23.7-10.1c-0.3,1.2-0.6,2.4-1.1,3.6
		C963.4,590.8,971.1,594,978.7,597.4z"/>
	<path fill="#64320F" d="M918.6,572.9c-3-0.7-6.1-1.3-9.2-1.8c-11.6-2-24.3-3.9-36-2.1c-0.5,0.1-0.3,0.8,0.1,0.9
		c12.6,0.7,24.8,0.8,37.2,3.4c3.4,0.7,6.8,1.6,10.2,2.5c-0.5-0.6-0.9-1.1-1.4-1.7C919.2,573.7,918.9,573.3,918.6,572.9z"/>
	<path opacity="0.75" fill="#FFFFFF" d="M918.6,572.9c-3-0.7-6.1-1.3-9.2-1.8c-11.6-2-24.3-3.9-36-2.1c-0.5,0.1-0.3,0.8,0.1,0.9
		c12.6,0.7,24.8,0.8,37.2,3.4c3.4,0.7,6.8,1.6,10.2,2.5c-0.5-0.6-0.9-1.1-1.4-1.7C919.2,573.7,918.9,573.3,918.6,572.9z"/>
	<path fill="#FEB04B" d="M990.9,604.1c2.3,1.9,5.6,3.2,8.7,3.1c-4.3-3.6-8.8-6.8-13.6-9.8C987.3,600,988.9,602.4,990.9,604.1z"/>
	<path opacity="0.75" fill="#FFFFFF" d="M990.9,604.1c2.3,1.9,5.6,3.2,8.7,3.1c-4.3-3.6-8.8-6.8-13.6-9.8
		C987.3,600,988.9,602.4,990.9,604.1z"/>
	<path fill="#FEB04B" d="M955.7,587.8c0.5-1.1,0.8-2.4,1.1-3.6c-3.5-1.3-7.1-2.5-10.6-3.6c-9.1-3-18.3-5.6-27.6-7.6
		c0.3,0.4,0.6,0.8,0.9,1.1c0.5,0.6,0.9,1.1,1.4,1.7c8.3,2.2,16.4,5,24.4,8C948.8,585.1,952.3,586.4,955.7,587.8z"/>
	<path opacity="0.75" fill="#FFFFFF" d="M955.7,587.8c0.5-1.1,0.8-2.4,1.1-3.6c-3.5-1.3-7.1-2.5-10.6-3.6c-9.1-3-18.3-5.6-27.6-7.6
		c0.3,0.4,0.6,0.8,0.9,1.1c0.5,0.6,0.9,1.1,1.4,1.7c8.3,2.2,16.4,5,24.4,8C948.8,585.1,952.3,586.4,955.7,587.8z"/>
	<path fill="#64320F" d="M1008.5,651.1c-0.5,1.8,0.3,3.9,1.4,5.4c0.7,1,1.7,1.8,2.2,2.8c0.6,1,0.8,2.2,1.5,3.1
		c0.2,0.3,0.5,0.4,0.9,0.2c2-1,1.5-3.5,0.5-5c-1.5-2.5-4.3-3.8-5.4-6.6C1009.5,650.6,1008.7,650.5,1008.5,651.1z"/>
	<path opacity="0.75" fill="#FFFFFF" d="M1008.5,651.1c-0.5,1.8,0.3,3.9,1.4,5.4c0.7,1,1.7,1.8,2.2,2.8c0.6,1,0.8,2.2,1.5,3.1
		c0.2,0.3,0.5,0.4,0.9,0.2c2-1,1.5-3.5,0.5-5c-1.5-2.5-4.3-3.8-5.4-6.6C1009.5,650.6,1008.7,650.5,1008.5,651.1z"/>
	<path fill="#FEB04B" d="M1021.4,613.2c-0.8-0.2-1.6,0.3-2.4,0.4c-0.8,0.1-1.5,0.2-2.2,0.6c-0.4,0.2-0.2,0.8,0.2,0.8
		c0.9,0,1.6-0.3,2.4-0.6c0.7-0.2,1.5-0.2,2.1-0.7C1021.7,613.5,1021.6,613.3,1021.4,613.2z"/>
	<path opacity="0.75" fill="#FFFFFF" d="M1021.4,613.2c-0.8-0.2-1.6,0.3-2.4,0.4c-0.8,0.1-1.5,0.2-2.2,0.6c-0.4,0.2-0.2,0.8,0.2,0.8
		c0.9,0,1.6-0.3,2.4-0.6c0.7-0.2,1.5-0.2,2.1-0.7C1021.7,613.5,1021.6,613.3,1021.4,613.2z"/>
	<path fill="#64320F" d="M1051.4,612.7c-2.1,0-11.3,0-16.7,0.5c-0.3,0.6-0.6,1.1-0.9,1.7c5-0.1,15-0.7,17.1-0.5
		c1.8,0.1,3.7,0.3,5.6,0.5c0.2-0.4,0.3-0.7,0.5-1.1C1055.1,613.2,1053.4,612.7,1051.4,612.7z"/>
	<path opacity="0.75" fill="#FFFFFF" d="M1051.4,612.7c-2.1,0-11.3,0-16.7,0.5c-0.3,0.6-0.6,1.1-0.9,1.7c5-0.1,15-0.7,17.1-0.5
		c1.8,0.1,3.7,0.3,5.6,0.5c0.2-0.4,0.3-0.7,0.5-1.1C1055.1,613.2,1053.4,612.7,1051.4,612.7z"/>
	<path fill="#FEB04B" d="M1059.9,615.2c-1.1-0.5-2.1-1-3.1-1.4c-0.1,0.4-0.3,0.8-0.5,1.1c1.2,0.2,2.3,0.4,3.4,0.7
		C1060,615.7,1060.2,615.3,1059.9,615.2z"/>
	<path opacity="0.75" fill="#FFFFFF" d="M1059.9,615.2c-1.1-0.5-2.1-1-3.1-1.4c-0.1,0.4-0.3,0.8-0.5,1.1c1.2,0.2,2.3,0.4,3.4,0.7
		C1060,615.7,1060.2,615.3,1059.9,615.2z"/>
	<path fill="#FEB04B" d="M1030.9,613.8c-0.6,0.3-0.2,1,0.3,1c0.5,0.1,1.4,0.1,2.6,0c0.3-0.6,0.6-1.2,0.9-1.7
		C1032.9,613.4,1031.5,613.6,1030.9,613.8z"/>
	<path opacity="0.75" fill="#FFFFFF" d="M1030.9,613.8c-0.6,0.3-0.2,1,0.3,1c0.5,0.1,1.4,0.1,2.6,0c0.3-0.6,0.6-1.2,0.9-1.7
		C1032.9,613.4,1031.5,613.6,1030.9,613.8z"/>
	<path fill="#64320F" d="M1187.2,561.5c-0.6-0.9-1.1-1.8-1.6-2.7c-15.8-1-28.9,1.3-46.2,5.2c-0.4,0.1-0.4,0.8,0.1,0.8
		c18-0.9,31.4-3,47.8-1.7C1187.5,562.5,1187.5,562,1187.2,561.5z"/>
	<path opacity="0.75" fill="#FFFFFF" d="M1187.2,561.5c-0.6-0.9-1.1-1.8-1.6-2.7c-15.8-1-28.9,1.3-46.2,5.2
		c-0.4,0.1-0.4,0.8,0.1,0.8c18-0.9,31.4-3,47.8-1.7C1187.5,562.5,1187.5,562,1187.2,561.5z"/>
	<path fill="#64320F" d="M1212.7,567c16,3.4,32.1,8.3,46.6,15.2c0.9,0.4,1.7-0.9,0.8-1.4c-15.3-7.3-30.7-13.6-46.9-17.7
		C1212.4,564.7,1212.4,565.9,1212.7,567z"/>
	<path opacity="0.75" fill="#FFFFFF" d="M1212.7,567c16,3.4,32.1,8.3,46.6,15.2c0.9,0.4,1.7-0.9,0.8-1.4
		c-15.3-7.3-30.7-13.6-46.9-17.7C1212.4,564.7,1212.4,565.9,1212.7,567z"/>
	<path fill="#FEB04B" d="M1212.7,567c-0.3-1.1-0.3-2.4,0.5-3.9c-4.9-1.2-9.8-2.3-14.9-3c-4.5-0.7-8.6-1.1-12.6-1.4
		c0.5,0.9,1,1.8,1.6,2.7c0.3,0.5,0.3,1,0.1,1.6c3.5,0.3,7,0.7,10.8,1.3C1202.9,565.1,1207.8,566,1212.7,567z"/>
	<path opacity="0.75" fill="#FFFFFF" d="M1212.7,567c-0.3-1.1-0.3-2.4,0.5-3.9c-4.9-1.2-9.8-2.3-14.9-3c-4.5-0.7-8.6-1.1-12.6-1.4
		c0.5,0.9,1,1.8,1.6,2.7c0.3,0.5,0.3,1,0.1,1.6c3.5,0.3,7,0.7,10.8,1.3C1202.9,565.1,1207.8,566,1212.7,567z"/>
	<path fill="#64320F" d="M1280.2,587.2c3.1,0.2,8.5-1.2,11.4,0.1c1.5,0.6,2.3,2,3.2,3.3c0.9,1.3,0.3,3.3,1.1,4.6
		c0.2,0.3,0.7,0.1,0.6-0.2c-0.7-4,2.9-8.9-1.8-10.9c-1.6-0.6-3.2-0.6-4.9-0.3c-2.5,0.4-7.4,1.1-9.7,2.2
		C1279.6,586.2,1279.5,587.2,1280.2,587.2z"/>
	<path opacity="0.75" fill="#FFFFFF" d="M1280.2,587.2c3.1,0.2,8.5-1.2,11.4,0.1c1.5,0.6,2.3,2,3.2,3.3c0.9,1.3,0.3,3.3,1.1,4.6
		c0.2,0.3,0.5,0.1,0.6-0.2c1-4.7,2.9-8.9-1.8-10.9c-1.6-0.6-3.2-0.6-4.9-0.3c-2.5,0.4-7.4,1.1-9.7,2.2
		C1279.6,586.2,1279.5,587.2,1280.2,587.2z"/>
	<path fill="#64320F" d="M1100.3,708.3c-0.2-0.4-0.8,0-0.6,0.3c2.3,4.2,4.9,8.3,7.8,12.2c0.9,0,1.7-0.1,2.6-0.2
		C1106.5,716.8,1103.2,712.7,1100.3,708.3z"/>
	<path opacity="0.75" fill="#FFFFFF" d="M1100.3,708.3c-0.2-0.4-0.8,0-0.6,0.3c2.3,4.2,4.9,8.3,7.8,12.2c0.9,0,1.7-0.1,2.6-0.2
		C1106.5,716.8,1103.2,712.7,1100.3,708.3z"/>
	<path fill="#64320F" d="M1134,739.1c-2.5-1.5-5-3-7.4-4.7c-0.3,1.1-0.3,2.3-0.1,3.6c1.7,1,3.4,1.9,5.3,2.7
		c16.2,7.2,35.3,11.2,53,9.6c0-0.3,0-0.5-0.1-0.7c-9.7,0-19.9-0.9-29.5-2.6C1148,745.7,1140.4,742.9,1134,739.1z"/>
	<path opacity="0.75" fill="#FFFFFF" d="M1134,739.1c-2.5-1.5-5-3-7.4-4.7c-0.3,1.1-0.3,2.3-0.1,3.6c1.7,1,3.4,1.9,5.3,2.7
		c16.2,7.2,35.3,11.2,53,9.6c0-0.3,0-0.5-0.1-0.7c-9.7,0-19.9-0.9-29.5-2.6C1148,745.7,1140.4,742.9,1134,739.1z"/>
	<path fill="#FEB04B" d="M1186.4,750.1c0.4,0,0.4-0.6,0-0.6c-0.5,0-1.1,0-1.6,0c0,0.2,0.1,0.5,0.1,0.7
		C1185.3,750.2,1185.8,750.2,1186.4,750.1z"/>
	<path opacity="0.75" fill="#FFFFFF" d="M1186.4,750.1c0.4,0,0.4-0.6,0-0.6c-0.5,0-1.1,0-1.6,0c0,0.2,0.1,0.5,0.1,0.7
		C1185.3,750.2,1185.8,750.2,1186.4,750.1z"/>
	<path fill="#FEB04B" d="M1126.5,738c-0.2-1.2-0.2-2.4,0.1-3.6c-5.9-4.1-11.5-8.6-16.5-13.8c-0.9,0.1-1.7,0.2-2.6,0.2
		C1112.8,727.7,1119.1,733.6,1126.5,738z"/>
	<path opacity="0.75" fill="#FFFFFF" d="M1126.5,738c-0.2-1.2-0.2-2.4,0.1-3.6c-5.9-4.1-11.5-8.6-16.5-13.8
		c-0.9,0.1-1.7,0.2-2.6,0.2C1112.8,727.7,1119.1,733.6,1126.5,738z"/>
	<path fill="#64320F" d="M842.1,772.8c4.6,1.1,9.4,1.7,14.2,1.8c0.5,0,0.5-0.7,0-0.8c-4.5-0.3-8.8-1.3-13-2.6
		c-0.2,0.4-0.5,0.7-0.7,1C842.5,772.5,842.3,772.6,842.1,772.8z"/>
	<path opacity="0.75" fill="#FFFFFF" d="M842.1,772.8c4.6,1.1,9.4,1.7,14.2,1.8c0.5,0,0.5-0.7,0-0.8c-4.5-0.3-8.8-1.3-13-2.6
		c-0.2,0.4-0.5,0.7-0.7,1C842.5,772.5,842.3,772.6,842.1,772.8z"/>
	<path fill="#64320F" d="M824.7,763.4c-4.6-2.2-9.2-4.4-13.4-7.1c-0.3,1.2-0.6,2.3-1,3.5c4.9,2.9,10.2,5.3,15.5,7.5
		C825.3,766,825,764.7,824.7,763.4z"/>
	<path opacity="0.75" fill="#FFFFFF" d="M824.7,763.4c-4.6-2.2-9.2-4.4-13.4-7.1c-0.3,1.2-0.6,2.3-1,3.5c4.9,2.9,10.2,5.3,15.5,7.5
		C825.3,766,825,764.7,824.7,763.4z"/>
	<path fill="#FEB04B" d="M824.7,763.4c0.3,1.3,0.6,2.6,1.1,3.9c1.4,0.6,2.8,1.1,4.2,1.7c4,1.6,8,2.9,12.2,3.9
		c0.2-0.2,0.3-0.4,0.5-0.6c0.2-0.3,0.5-0.7,0.7-1c-4.7-1.5-9.2-3.4-13.7-5.6C828,764.9,826.4,764.2,824.7,763.4z"/>
	<path opacity="0.75" fill="#FFFFFF" d="M824.7,763.4c0.3,1.3,0.6,2.6,1.1,3.9c1.4,0.6,2.8,1.1,4.2,1.7c4,1.6,8,2.9,12.2,3.9
		c0.2-0.2,0.3-0.4,0.5-0.6c0.2-0.3,0.5-0.7,0.7-1c-4.7-1.5-9.2-3.4-13.7-5.6C828,764.9,826.4,764.2,824.7,763.4z"/>
	<path fill="#FEB04B" d="M808.3,754.3c-6.8-4.9-12.5-11.4-17.5-18c-4.7-6.2-9.4-12.4-13.2-19.3c-0.2-0.3-0.7-0.1-0.6,0.3
		c1.7,8.2,7.4,15.2,12.2,21.8c4.8,6.6,10,13,16.6,17.8c1.4,1,2.9,2,4.4,2.9c0.4-1.2,0.7-2.3,1-3.5
		C810.3,755.6,809.3,755,808.3,754.3z M778.1,718.8c0,0-0.1,0-0.1,0c-0.6,0.2-0.5-0.9,0.1-0.6c0,0,0.1,0,0.1,0.1
		C778.4,718.4,778.3,718.7,778.1,718.8z"/>
	<path opacity="0.75" fill="#FFFFFF" d="M808.3,754.3c-6.8-4.9-12.5-11.4-17.5-18c-4.7-6.2-9.4-12.4-13.2-19.3
		c-0.2-0.3-0.7-0.1-0.6,0.3c1.7,8.2,7.4,15.2,12.2,21.8c4.8,6.6,10,13,16.6,17.8c1.4,1,2.9,2,4.4,2.9c0.4-1.2,0.7-2.3,1-3.5
		C810.3,755.6,809.3,755,808.3,754.3z M778.1,718.8c0,0-0.1,0-0.1,0c-0.6,0.2-0.5-0.9,0.1-0.6c0,0,0.1,0,0.1,0.1
		C778.4,718.4,778.3,718.7,778.1,718.8z"/>
	<path fill="#FEB04B" d="M778,718.2c-0.6-0.3-0.7,0.8-0.1,0.6c0,0,0.1,0,0.1,0c0.2-0.1,0.3-0.4,0.1-0.5
		C778.1,718.3,778,718.2,778,718.2z"/>
	<path opacity="0.35" fill="#D8D8D8" d="M778,718.2c-0.6-0.3-0.7,0.8-0.1,0.6c0,0,0.1,0,0.1,0c0.2-0.1,0.3-0.4,0.1-0.5
		C778.1,718.3,778,718.2,778,718.2z"/>
	<path opacity="0.75" fill="#FFFFFF" d="M778,718.2c-0.6-0.3-0.7,0.8-0.1,0.6c0,0,0.1,0,0.1,0c0.2-0.1,0.3-0.4,0.1-0.5
		C778.1,718.3,778,718.2,778,718.2z"/>
</g>
</svg>
