<?xml version="1.0" encoding="utf-8"?>
<!-- Generator: Adobe Illustrator 21.0.2, SVG Export Plug-In . SVG Version: 6.00 Build 0)  -->
<svg version="1.1" id="_x30_6_x5F_Eyewear_x5F_GlassesTortoiseShell"
	 xmlns="http://www.w3.org/2000/svg" xmlns:xlink="http://www.w3.org/1999/xlink" x="0px" y="0px" viewBox="0 0 2000 2000"
	 enable-background="new 0 0 2000 2000" xml:space="preserve">
<g>
	<g id="back">
		<path fill="none" d="M1051.9,608c1.3,0.2,2.5,0.2,3.6,0.4c0.1,0,0.2,0,0.3,0v-0.3c-4.5-0.7-11.1-1.4-17-1c2.2,0,4.5,0.2,6.8,0.3
			C1047.9,607.6,1050,607.7,1051.9,608z"/>
		<path fill="none" d="M1038.8,607c2.4,0,4.7,0.2,6.8,0.3C1043.3,607.2,1041,607.1,1038.8,607z"/>
		<path fill="none" d="M1055.8,608c3.1,0.4,5.1,0.9,5.1,0.9s-11.7-2.7-22.2-1.9C1044.6,606.7,1051.3,607.4,1055.8,608z"/>
		<path fill="none" d="M1051.9,608c1.3,0.2,2.5,0.2,3.6,0.4l0,0C1054.4,608.2,1053.2,608,1051.9,608z"/>
		<path opacity="0.4" fill="#A9DFFF" enable-background="new    " d="M1106.2,703.9l-0.9-0.9c3.1,3.5,6.7,7.2,10.6,11
			c2,1.8,3.9,3.8,6.1,5.8c-5.2-5-9.9-9.6-13.8-14.2C1107.5,705.2,1106.8,704.6,1106.2,703.9z"/>
		<path opacity="0.4" fill="#A9DFFF" enable-background="new    " d="M1090.1,676.4c1.8,5.3,4.3,10.2,7.3,15.1
			c0-0.1,0.1-0.1,0.1-0.2C1094.4,686.4,1091.8,681.5,1090.1,676.4z"/>
		<path opacity="0.4" fill="#A9DFFF" enable-background="new    " d="M1108.1,705.8c4,4.6,8.6,9.3,13.8,14.2
			c-4.5-4.5-8.4-8.7-11.9-12.7C1109.3,706.8,1108.7,706.3,1108.1,705.8z"/>
		<path opacity="0.4" fill="#A9DFFF" enable-background="new    " d="M1105.3,703.1l-1.3-1.3c3.3,4,7.2,8.1,11.7,12.4
			c0.1,0,0.1,0,0.2,0C1111.9,710.3,1108.4,706.7,1105.3,703.1z"/>
		<path opacity="0.4" fill="#A9DFFF" enable-background="new    " d="M1085.6,650.8c0.3,9.8,1.7,18,4.4,25.7
			C1087.4,668.6,1086,660.4,1085.6,650.8z"/>
		<path opacity="0.4" fill="#A9DFFF" enable-background="new    " d="M1090.8,619.1c-4,9.4-5.5,19.9-5,31.6
			c-0.1-12.6,1.6-23.7,6.2-33.5C1091.4,617.9,1091,618.5,1090.8,619.1z"/>
		<path display="none" opacity="0.4" fill="#A9DFFF" enable-background="new    " d="M1097.5,691.3c26.9-37.5,75.2-101.7,75.2-101.7
			s15.8-6.8,31.6-2.2c15.7,4.7,24.5,10.8,24.5,10.8l-80,130.7c0,0-22.3-7.9-38.8-21.8c3.5,4,7.5,8.1,11.9,12.7
			c22,19.8,56.9,21.6,80.4,15.7c0.1,0,0.1,0,0.2,0c0.8-0.2,1.5-0.3,2.2-0.6c4.2-1.2,8.2-2.7,12.2-4.5c15.5-8.8,28.3-22.3,31.4-31.2
			c4.6-12.9,8.7-30,10.9-42.5c1.1-6.4,0.5-14.5-1.3-22.9c-1.7-8-4.4-16.3-7.7-23.7c-3.5-7.7-11.7-15.4-24.1-21.2
			c-6.4-3-14-5.5-22.4-7.4c-7.1-1.5-8-2.7-16.5-3.1c-10.5-0.4-21.2,0.2-31.7,1.9c-26.5,4.3-50.9,15.9-63.6,36.7
			c-4.6,9.8-6.2,21-6.2,33.5c0.3,9.6,1.7,17.9,4.4,25.7C1091.8,681.5,1094.4,686.4,1097.5,691.3z M1247.7,620.7l-56.4,114.1
			c0,0-7.6-0.3-14.5,0.4l63.4-125.6C1240.1,609.6,1245.9,613.8,1247.7,620.7z"/>
		<path opacity="0.4" fill="#A9DFFF" enable-background="new    " d="M1097.4,691.6c-3.1-4.9-5.5-10-7.3-15.1
			c-2.7-7.6-4.1-15.9-4.4-25.7c0.5,16.5,3.2,28.8,11.2,41.5C1097,692,1097.2,691.8,1097.4,691.6z"/>
		<path fill="#492916" d="M1118.4,590c-14.1,8.2-22.8,17.8-27.7,29.1c0.4-0.6,0.8-1.2,1.1-1.9C1096.7,606.7,1105.1,597.7,1118.4,590
			z"/>
		<path opacity="0.4" fill="#A9DFFF" enable-background="new    " d="M1118.4,590c-14.1,8.2-22.8,17.8-27.7,29.1
			c0.4-0.6,0.8-1.2,1.1-1.9C1096.7,606.7,1105.1,597.7,1118.4,590z"/>
		<path fill="#492916" d="M1119.2,589.6c0.7-0.4,1.4-0.8,2.2-1.2C1120.5,588.8,1119.9,589.2,1119.2,589.6z"/>
		<path opacity="0.4" fill="#A9DFFF" enable-background="new    " d="M1119.2,589.6c0.7-0.4,1.4-0.8,2.2-1.2
			C1120.5,588.8,1119.9,589.2,1119.2,589.6z"/>
		<path fill="#492916" d="M1091.8,617.3c12.7-20.9,37.1-32.5,63.6-36.7c0.5-1.5,1-3,1.9-4.1c0,0,0,0,0.1-0.1l0,0
			c-11.5,2-22.9,5.4-33,10.5c-1.1,0.5-2.1,1.1-3.2,1.6c-0.7,0.4-1.5,0.8-2.2,1.2c-0.3,0.1-0.5,0.3-0.8,0.4
			C1105.1,597.7,1096.7,606.7,1091.8,617.3z"/>
		<path opacity="0.4" fill="#A9DFFF" enable-background="new    " d="M1091.8,617.3c12.7-20.9,37.1-32.5,63.6-36.7
			c0.5-1.5,1-3,1.9-4.1c0,0,0,0,0.1-0.1l0,0c-11.5,2-22.9,5.4-33,10.5c-1.1,0.5-2.1,1.1-3.2,1.6c-0.7,0.4-1.5,0.8-2.2,1.2
			c-0.3,0.1-0.5,0.3-0.8,0.4C1105.1,597.7,1096.7,606.7,1091.8,617.3z"/>
		<path fill="#492916" d="M1257.8,634c1.7,8.4,2.3,16.4,1.3,22.9c-2.2,12.6-6.3,29.6-10.9,42.5c-3.1,8.8-15.9,22.3-31.4,31.2
			c3.9-1.8,7.6-3.8,11-6c13.2-8.3,23.3-18.6,26-25.5c4.2-10.5,13.4-43.3,10-65.1c-0.4-2.5-0.9-4.9-1.6-7.3
			C1261.1,630.7,1259.4,632.8,1257.8,634z"/>
		<path opacity="0.4" fill="#A9DFFF" enable-background="new    " d="M1257.8,634c1.7,8.4,2.3,16.4,1.3,22.9
			c-2.2,12.6-6.3,29.6-10.9,42.5c-3.1,8.8-15.9,22.3-31.4,31.2c3.9-1.8,7.6-3.8,11-6c13.2-8.3,23.3-18.6,26-25.5
			c4.2-10.5,13.4-43.3,10-65.1c-0.4-2.5-0.9-4.9-1.6-7.3C1261.1,630.7,1259.4,632.8,1257.8,634z"/>
		<path fill="#492916" d="M1221.6,581.7c-4-1.8-8.3-3.3-12.9-4.4l-0.1,0.1c-1.6,1.6-3.2,3.1-4.9,4.2c8.6,1.8,16,4.4,22.4,7.4
			c1.1-0.9,2.5-1.9,4.1-2.8C1227.5,584.7,1224.6,583.2,1221.6,581.7z"/>
		<path opacity="0.4" fill="#A9DFFF" enable-background="new    " d="M1221.6,581.7c-4-1.8-8.3-3.3-12.9-4.4l-0.1,0.1
			c-1.6,1.6-3.2,3.1-4.9,4.2c8.6,1.8,16,4.4,22.4,7.4c1.1-0.9,2.5-1.9,4.1-2.8C1227.5,584.7,1224.6,583.2,1221.6,581.7z"/>
		<path fill="#B48140" d="M1208.7,577.4L1208.7,577.4c-10.9-2.7-23.4-3.7-36.3-2.8c-5,0.3-10,0.9-14.9,1.8c0,0,0,0-0.1,0.1
			c-0.9,1-1.5,2.5-1.9,4.1c10.5-1.7,21.1-2.3,31.7-1.9c8.5,0.4,9.3,1.5,16.5,3.1C1205.4,580.6,1207,579.1,1208.7,577.4L1208.7,577.4
			z"/>
		<path opacity="0.4" fill="#A9DFFF" enable-background="new    " d="M1208.7,577.4L1208.7,577.4c-10.9-2.7-23.4-3.7-36.3-2.8
			c-5,0.3-10,0.9-14.9,1.8c0,0,0,0-0.1,0.1c-0.9,1-1.5,2.5-1.9,4.1c10.5-1.7,21.1-2.3,31.7-1.9c8.5,0.4,9.3,1.5,16.5,3.1
			C1205.4,580.6,1207,579.1,1208.7,577.4L1208.7,577.4z"/>
		<path fill="#B48140" d="M1230.2,586.2L1230.2,586.2c-1.7,0.9-3,1.9-4.1,2.8c12.4,5.9,20.6,13.4,24.1,21.2c3.3,7.4,6,15.6,7.7,23.7
			c1.6-1.1,3.2-3.2,4.6-7.2l0,0C1258,610.5,1247.1,596.3,1230.2,586.2z"/>
		<path opacity="0.4" fill="#A9DFFF" enable-background="new    " d="M1230.2,586.2L1230.2,586.2c-1.7,0.9-3,1.9-4.1,2.8
			c12.4,5.9,20.6,13.4,24.1,21.2c3.3,7.4,6,15.6,7.7,23.7c1.6-1.1,3.2-3.2,4.6-7.2l0,0C1258,610.5,1247.1,596.3,1230.2,586.2z"/>
		<path opacity="0.4" fill="#A9DFFF" enable-background="new    " d="M1098.1,694c1.8,2.6,3.6,5.1,5.9,7.7l1.3,1.3
			C1102.7,700,1100.2,697.1,1098.1,694z"/>
		<path opacity="0.3" fill="#FFFFFF" enable-background="new    " d="M1098.1,694c1.8,2.6,3.6,5.1,5.9,7.7l1.3,1.3
			C1102.7,700,1100.2,697.1,1098.1,694z"/>
		<path opacity="0.4" fill="#A9DFFF" enable-background="new    " d="M1108.1,705.8c-4.2-4.8-7.8-9.5-10.7-14.2
			c-0.2,0.2-0.3,0.4-0.5,0.7c0.4,0.6,0.8,1.2,1.1,1.8c2.1,3,4.5,6,7.1,9l0.9,0.9C1106.8,704.6,1107.5,705.2,1108.1,705.8z"/>
		<path opacity="0.3" fill="#FFFFFF" enable-background="new    " d="M1108.1,705.8c-4.2-4.8-7.8-9.5-10.7-14.2
			c-0.2,0.2-0.3,0.4-0.5,0.7c0.4,0.6,0.8,1.2,1.1,1.8c2.1,3,4.5,6,7.1,9l0.9,0.9C1106.8,704.6,1107.5,705.2,1108.1,705.8z"/>
		<path display="none" opacity="0.4" fill="#A9DFFF" enable-background="new    " d="M1148.8,729.1l80-130.7c0,0-8.8-6.2-24.5-10.8
			c-15.7-4.7-31.6,2.2-31.6,2.2s-48.3,64.2-75.2,101.7c3.3,5.1,7.4,10.4,12.4,16C1126.4,721.2,1148.8,729.1,1148.8,729.1z"/>
		<path opacity="0.3" fill="#FFFFFF" enable-background="new    " d="M1148.8,729.1l80-130.7c0,0-8.8-6.2-24.5-10.8
			c-15.7-4.7-31.6,2.2-31.6,2.2s-48.3,64.2-75.2,101.7c3.3,5.1,7.4,10.4,12.4,16C1126.4,721.2,1148.8,729.1,1148.8,729.1z"/>
		<path opacity="0.4" fill="#A9DFFF" enable-background="new    " d="M1110,707.3c-5.1-5.7-9.1-10.9-12.4-16c0,0.1-0.1,0.1-0.1,0.2
			c2.9,4.7,6.5,9.4,10.7,14.2C1108.7,706.3,1109.3,706.8,1110,707.3z"/>
		<path opacity="0.3" fill="#FFFFFF" enable-background="new    " d="M1110,707.3c-5.1-5.7-9.1-10.9-12.4-16c0,0.1-0.1,0.1-0.1,0.2
			c2.9,4.7,6.5,9.4,10.7,14.2C1108.7,706.3,1109.3,706.8,1110,707.3z"/>
		<path display="none" opacity="0.4" fill="#A9DFFF" enable-background="new    " d="M1191.2,734.6l56.4-114.1
			c-1.8-6.9-7.5-11-7.5-11L1176.7,735C1183.6,734.4,1191.2,734.6,1191.2,734.6z"/>
		<path opacity="0.3" fill="#FFFFFF" enable-background="new    " d="M1191.2,734.6l56.4-114.1c-1.8-6.9-7.5-11-7.5-11L1176.7,735
			C1183.6,734.4,1191.2,734.6,1191.2,734.6z"/>
		<path display="none" opacity="0.4" fill="#A9DFFF" enable-background="new    " d="M842.5,768.9c1.6,0.5,3.2,0.8,4.8,1.2
			c4.1,0.9,8.1,1.6,12.2,2l0,0c5.9,0.6,11.6,0.9,17.3,0.7l82.5-150c0,0,6.6,9.9,6.7,15.1c0,0-55,101.2-73.5,133.5
			c3.1-0.5,6.1-1,9-1.5c7.8-1.6,15.1-3.7,22.2-6.1c13-6.8,28.6-16.3,38.5-27.3c1.2-1.3,2.2-2.6,3.3-3.9c4.8-6,8.6-12.4,11.4-19.1
			c6.4-15.2,7.7-31.5,4.9-46.7c-0.2-1.4-0.6-2.8-0.9-4.2c-3.2-13.3-5.9-27.9-14.1-40.6c-6.7-10.2-17-19.3-34.2-25.8
			c-11.5-4.4-24.1-6.6-37.3-7.4c-9-0.5-18.3-0.2-28,0.8c-17.3,1.7-35.5,5.3-54.2,10.3c-9.7,4.6-18.2,10.5-24.9,18
			c0,0-3.8,5.5-7.8,13.4c-3.1,6-6.3,13.3-8.2,20.5c-0.7,2.6-1.3,5.2-1.5,7.8c-0.6,5.8-0.6,12.5,0,19.5c0.4,3.9,0.9,7.8,1.7,11.8
			c2.2,11.8,6.2,23.8,12,33.6c7.3,12.3,15.2,23.7,29.5,32.6c3.9,2.4,8.1,4.6,13,6.6C831.4,765.6,836.7,767.3,842.5,768.9z
			 M792.1,730l95.6-126.4c37-6.7,60.6,11.7,60.6,11.7L837.1,765.1C837.1,765.1,801.8,750.2,792.1,730z"/>
		<path fill="#492916" d="M932.7,760.5c16.5-6.1,28.3-17.1,36.8-29.2c-1.1,0.3-2.6,0.8-4,1.1c-1.1,1.3-2.1,2.7-3.3,3.9
			c-9.9,11-25.5,20.5-38.5,27.3c0.2-0.1,0.5-0.1,0.7-0.2C927.2,762.6,930,761.6,932.7,760.5z"/>
		<path opacity="0.4" fill="#A9DFFF" enable-background="new    " d="M932.7,760.5c16.5-6.1,28.3-17.1,36.8-29.2
			c-1.1,0.3-2.6,0.8-4,1.1c-1.1,1.3-2.1,2.7-3.3,3.9c-9.9,11-25.5,20.5-38.5,27.3c0.2-0.1,0.5-0.1,0.7-0.2
			C927.2,762.6,930,761.6,932.7,760.5z"/>
		<path fill="#492916" d="M980.2,711.9c6.9-15.7,7.5-30,6.2-45.7c-1.9,0.4-3.4,0.5-4.6,0.6c2.8,15,1.5,31.4-4.9,46.7
			c0.3,1.3,0.6,2.8,0.6,4.4C978.5,715.8,979.4,713.9,980.2,711.9z"/>
		<path opacity="0.4" fill="#A9DFFF" enable-background="new    " d="M980.2,711.9c6.9-15.7,7.5-30,6.2-45.7
			c-1.9,0.4-3.4,0.5-4.6,0.6c2.8,15,1.5,31.4-4.9,46.7c0.3,1.3,0.6,2.8,0.6,4.4C978.5,715.8,979.4,713.9,980.2,711.9z"/>
		<path fill="#492916" d="M971.2,621.8c-3.2-4.9-6.7-9.3-9.6-12.7c-8.4-9.6-36.6-20-67.6-22.2c0.7,0.7,1.1,1.3,1.6,1.9
			c13.2,0.6,25.7,3,37.3,7.4c17.2,6.4,27.5,15.6,34.2,25.8C968,621.9,969.5,621.9,971.2,621.8L971.2,621.8z"/>
		<path opacity="0.4" fill="#A9DFFF" enable-background="new    " d="M971.2,621.8c-3.2-4.9-6.7-9.3-9.6-12.7
			c-8.4-9.6-36.6-20-67.6-22.2c0.7,0.7,1.1,1.3,1.6,1.9c13.2,0.6,25.7,3,37.3,7.4c17.2,6.4,27.5,15.6,34.2,25.8
			C968,621.9,969.5,621.9,971.2,621.8L971.2,621.8z"/>
		<path fill="#492916" d="M870.8,586.8c-15.9,0.8-32.3,3.5-47,8.7c-3.7,1.3-7.2,2.7-10.7,4.4c18.8-4.9,37-8.6,54.2-10.3
			C868.3,588.7,869.4,587.8,870.8,586.8z"/>
		<path opacity="0.4" fill="#A9DFFF" enable-background="new    " d="M870.8,586.8c-15.9,0.8-32.3,3.5-47,8.7
			c-3.7,1.3-7.2,2.7-10.7,4.4c18.8-4.9,37-8.6,54.2-10.3C868.3,588.7,869.4,587.8,870.8,586.8z"/>
		<path fill="#B48140" d="M986.5,666.1c-0.3-2.9-0.6-5.8-0.9-8.8c-1.5-12.9-7.7-25.5-14.4-35.5c-1.7,0-3.2,0.1-4.4,0.1
			c8.3,12.8,10.9,27.3,14.1,40.6c0.3,1.4,0.6,2.8,0.9,4.2C983.1,666.7,984.6,666.6,986.5,666.1C986.5,666.2,986.5,666.2,986.5,666.1
			z"/>
		<path opacity="0.4" fill="#A9DFFF" enable-background="new    " d="M986.5,666.1c-0.3-2.9-0.6-5.8-0.9-8.8
			c-1.5-12.9-7.7-25.5-14.4-35.5c-1.7,0-3.2,0.1-4.4,0.1c8.3,12.8,10.9,27.3,14.1,40.6c0.3,1.4,0.6,2.8,0.9,4.2
			C983.1,666.7,984.6,666.6,986.5,666.1C986.5,666.2,986.5,666.2,986.5,666.1z"/>
		<path fill="#B48140" d="M969.5,731.4c3.1-4.5,5.8-9.1,8-13.5l0,0c0-1.6-0.3-3.1-0.6-4.4c-2.8,6.7-6.5,13.1-11.4,19.1
			C967,732.2,968.5,731.8,969.5,731.4L969.5,731.4z"/>
		<path opacity="0.4" fill="#A9DFFF" enable-background="new    " d="M969.5,731.4c3.1-4.5,5.8-9.1,8-13.5l0,0
			c0-1.6-0.3-3.1-0.6-4.4c-2.8,6.7-6.5,13.1-11.4,19.1C967,732.2,968.5,731.8,969.5,731.4L969.5,731.4z"/>
		<path fill="#B48140" d="M893.8,586.9c-3.1-0.2-6.2-0.3-9.3-0.3c-2.6,0-5.2-0.1-7.8,0l1.6,1.1l-5.8,0.7l-1.6-1.5h-0.1l0,0
			c-1.4,1-2.5,2-3.4,2.8c9.7-1,19-1.2,28-0.8C894.9,588.2,894.5,587.5,893.8,586.9L893.8,586.9z"/>
		<path opacity="0.4" fill="#A9DFFF" enable-background="new    " d="M893.8,586.9c-3.1-0.2-6.2-0.3-9.3-0.3c-2.6,0-5.2-0.1-7.8,0
			l1.6,1.1l-5.8,0.7l-1.6-1.5h-0.1l0,0c-1.4,1-2.5,2-3.4,2.8c9.7-1,19-1.2,28-0.8C894.9,588.2,894.5,587.5,893.8,586.9L893.8,586.9z
			"/>
		<path fill="#B48140" d="M871,586.7l1.6,1.5l5.8-0.7l-1.6-1.1c-0.2,0-0.3,0-0.5,0C874.5,586.6,872.7,586.7,871,586.7z"/>
		<path opacity="0.4" fill="#A9DFFF" enable-background="new    " d="M871,586.7l1.6,1.5l5.8-0.7l-1.6-1.1c-0.2,0-0.3,0-0.5,0
			C874.5,586.6,872.7,586.7,871,586.7z"/>
		<path fill="#64320F" d="M1262.4,717.2c0.1,0,0.2-0.1,0.3-0.1c1.4-2,2.8-4.3,4-6.5c1.8-3.4,3.4-6.8,4.8-10.1
			c-0.7-0.7-1.3-1.5-2-2.2C1267.9,705.7,1265.3,712,1262.4,717.2z"/>
		<path fill="#64320F" d="M1051.9,608c-1.9-0.1-4-0.4-6.3-0.5C1047.8,607.6,1049.9,607.7,1051.9,608z"/>
		<path fill="#64320F" d="M1086.4,712.8c-6.7-9.8-11.2-21.2-14.5-33.2c-0.1,0.7-0.3,1.5-0.4,2.2c-0.6,2.8-6.3,5-7.6,7.1
			c3,8.2,10.6,19.6,16.7,27.8c0.7-0.3,2.8-3,3.5-3.2C1084.9,713.2,1085.7,713,1086.4,712.8z"/>
		<path fill="#64320F" d="M1236.1,741.4c0,0.2,0.1,0.3,0.2,0.5c5.2-3.2,10.3-7,15-11.5c-5.5,4.6-11.1,7.4-16.1,9
			C1235.6,740,1235.9,740.7,1236.1,741.4z"/>
		<path fill="#64320F" d="M937.4,773.2c-20.5,11.5-44.8,16.4-66,14.6c1.1,0.8,0.2,3.6,1.1,4.7c0.2,0.2,2.4,1.8,2.6,2.1
			c15.3,0.3,31.4-2.7,48.8-8.4c3.5-1.2,10.4-6.2,13.6-7.5l-3.2,3.7C934,780.2,936.1,775,937.4,773.2z"/>
		<path fill="#64320F" d="M1210,555c16.4,3.7,31.9,9.5,47.4,16.4c0.9,0.4,0.1,1.8-0.8,1.4c-14.7-6.5-30.9-11-47-13.9
			c0.5,1.8-2.4,2.8-1.5,5c0,0.1-1.3,5.1-1.3,5.3c2,0.4,8,1.8,10.2,2.3c16.4,4.1,33.4,5,46.1,11.8c2.3,1.2,4.2,3.8,5.8,7.2l3.1,1.3
			c0-2.3,2.5-5,6-6.3c4.2-1.5,8.4-0.7,9.3,1.7c0.9,2.5-1.6,5.8-5.8,7.5c-3.5,1.3-7,1-8.5-0.7c-0.4,1.1-0.8,2.6-1.5,4.5
			c4.7,20,0.9,63-1.9,88.3c1-1.2,8.1-6.4,8.7-7.8c1.8-3.9,3.9-10,4.5-14.1c0.7-4.4-0.3-11,1.6-15c0-0.1,0.7-3,0.7-3.1
			c0.2-7.7-1.8-11-1.8-17.1c-0.4-19.3-6.4-22.6-1.3-25.5c2.1-1.2,4.3-1.8,6.4-2.2c1.5-1.9,2.8-0.9,4.1-2.7c2.3-3,2.6-6.2,3.4-9.9
			c0.6-3,3-8.3,3.6-11.4c-0.2-1-2.1-3.1-2.4-4.2c-0.8-0.8-1.6-1.6-2.7-2c-6.9-3.9-22,1.1-22,1.1s-28.2-16.1-59.7-21.8
			c-1,1-1.8,2.1-2.4,3.1C1210.2,554.4,1210.1,554.8,1210,555z M1277.7,575.9c2.4-1.1,7.2-1.9,9.6-2.5c1.6-0.3,3.3-0.4,4.9,0.2
			c4.8,1.8,1.3,6.8,2.1,10.8c0.1,0.3-0.5,0.5-0.6,0.2c-0.8-1.3-0.3-3.3-1.2-4.6c-0.9-1.3-1.8-2.6-3.3-3.2c-3-1.2-8.3,0.4-11.4,0.2
			C1277,577.2,1277.1,576.2,1277.7,575.9z"/>
		<path fill="#64320F" d="M859.3,786.1c-17.5-3.3-36.2-11.8-50.3-21c-0.8,2.1-1.7,7.2-2.4,9.4c11.7,7,32.6,13.6,50.9,16.7
			c1.2-1.3,2.6-3.4,1.3-4.9C859.1,786.2,859.2,786.1,859.3,786.1z"/>
		<path fill="#64320F" d="M1187.8,748.1c-15.2-3.2-39.2-7.4-55.8-5.4c0.8,1.3,0.9,4.6,1.7,6c0.5,1.1,2.5,2.9,3,4.2
			c20.2,5.8,41.8,4.6,55.1,3.4c-0.5-1.5-1.5-2.9-2.2-4.2C1189,750.9,1188.3,749.5,1187.8,748.1z"/>
		<path fill="#64320F" d="M951.5,582.1c8.2,2.7,19.2,6.7,26.8,10.4c1.9,0.9,3.8,2,5.6,3c-0.8-1.4-1.6-3-2.3-4.3
			c-4.1-2.3-8.3-4.7-12.9-7.1c-3.9-2-8.5-3.9-13.8-5.7c0,0.7-3.3,0.5-3.4,1.4C951.3,580.5,951.7,581.3,951.5,582.1z"/>
		<path fill="#64320F" d="M1033.7,607.5c1.8-0.2,3.5-0.4,5.1-0.5C1037.3,607.2,1035.5,607.3,1033.7,607.5
			C1033.7,607.4,1033.7,607.5,1033.7,607.5z"/>
		<path fill="#64320F" d="M1033.4,608.8c-0.1,0.4-0.3,0.8-0.5,1.1c5.5-0.6,14.6-0.9,16.7-1s3.7,0.4,5.4,1c0.2-0.5,0.4-1,0.5-1.6
			c-1.1-0.2-2.3-0.2-3.6-0.4c-2-0.1-4.1-0.4-6.3-0.5c-2.1-0.1-4.4-0.3-6.8-0.3c-1.5,0.1-3.3,0.3-5.1,0.5
			C1033.6,608,1033.5,608.4,1033.4,608.8z"/>
		<path fill="#64320F" d="M850.8,575.3c-0.1,0.1-0.9,2-1,2.1c24-1.8,55.4,1.9,82.7,7.2c-0.2-0.1-0.4-0.3-0.6-0.4
			c-2.8-1.6-2.3-2.5-4.9-4.5c-1.8-1.3-2.6-1.3-4.1-3c-3.4-0.8-11.4-2.7-14.8-3.4c-12.6-2.3-24.7-2-37.3-2.4c-0.5,0-0.6-0.8-0.1-0.9
			c11.7-2.1,24.4-0.6,36,1.1c3.1,0.4,11.2,2.1,14.3,2.7c-1.4-1.6-7.9-4.2-9.6-5.6c-17.5-2.7-35.3-4.1-49.7-3.8
			C856.2,569,854.9,572.4,850.8,575.3z"/>
		<path fill="#64320F" d="M1007.4,613.1c0.3,0.3-0.1,1-0.5,0.7c-9.9-6.3-19.4-13.5-30.3-18.1c-7.7-3.2-17.2-7.5-25.1-10.4
			c-0.3,0.7-1.3,2.2-1.8,2.9c25.7,6.8,42.9,30.7,48.9,57.8c1.3,3-4.3,9.5-4.8,12.7c2,13.4,5.7,24.2,4,37.3
			c-2.8,22.3-15.4,40.9-29.9,54.2c3.6-0.9,8.1,0.9,11.4,1.3c7.6-8.6,13-16.7,17-24.9c-0.2-1.2,1.7-5.5,1.9-6.7
			c0.2-2,0.6-1.1,1.4-2.9c1.5-3.3,2.5-7.8,3-11.4c0.7-5.6,1.7-9.6,4.3-14.7c1.5-2.9,5-11.9,8-14.1c3.2-12.6,3.4-20.1,3.4-20.1
			c-3.8-4.1-8-8.1-6.8-14.3c1.2-6.1,4.7-9.2,11.1-7.8c4.3,0.9,16.3,0.4,24.7-0.3c1.8-4.3,4.9-8.1,6.8-12.5c1.4-3.1,2.1-9.8,3.3-12.8
			c-1.9-0.2-5.8-0.6-7.6-0.6c-2.1-0.1-13.8,0.2-18.9,0.4c-0.1,0.3-1.9,3.5-2,3.8c-0.4,1.2-0.3,1.1-0.6,2.3c-0.4,1.9,0.3,2.2-1.3,3.2
			c-8.2,5.2-9-0.9-12.1-8.1c-0.6,0.1-3.2,0.5-3.2,0.5s-3.8-2.8-10.2-7.1c-1.2,0.7-2.6,1.1-4.1,1.1
			C1001,607.4,1004.2,610.2,1007.4,613.1z M1008.9,648.4c1.2,2.8,4,4,5.6,6.5c1,1.6,1.6,4-0.4,5c-0.3,0.2-0.7,0.1-0.9-0.2
			c-0.7-1-1.1-2.1-1.6-3.1c-0.6-1.1-1.6-1.9-2.3-2.7c-1.1-1.5-2-3.5-1.5-5.4C1008,647.9,1008.8,647.9,1008.9,648.4z"/>
		<path fill="#64320F" d="M550.8,699.8c2.6-1.4,4.3-6.7,6.6-10.4c-0.4-2.4,2.1-10.3-0.5-12.2c-4.3-3.2-6.2-0.9-4.4-6.9
			c2-7,9.6-5.9,11.6-12.7c1.9-6.5,2.2-8.8,6.7-13.9c3.7-4.3,4.7-10.7,11.1-9.9c3,0.4,5.9-2.8,8-0.7c7-1.2,25.1-3.8,40.5-5
			c3.7-3.2,5.7-2.7,10.5-3.8c4.5-0.9,5.2,0.3,9.6,0.6c5.1,0.4,10.8-0.5,15.9-1.2c7.4-0.9,17.5-4.7,22.6,2.4c2.6,3.5,3.4,7,6.1,13.2
			l-1-3.1c6.4,1,11.8,4.1,11.8,4.1c-1.4-3.5,2.3-17.4-0.8-26.9c-12.9-1.1-38-2.7-69.5-1.5c-4.8,0.1-9.3,0.3-13.7,0.4
			c-7.1,1.8-12.4,3.2-18.8,4.3c-5.1,0.8-7,0.4-11.4-1.5s-10.7-0.4-15.1-0.3c-15.3,2.4-27.6,7.3-37.8,18c-1.6,11.1-4.5,11-6.7,21.6
			c-4.2,6.3-6.9,17.2-13.8,21.2c-0.2,4.1,0.4,8.9,1.4,12.1C526.2,698.6,541.9,704.4,550.8,699.8z M623,614.9
			c6.9-0.8,14-0.6,20.9-0.9c6.3-0.2,12.7-0.2,18.9,0c13.3,0.6,26.6,1.1,39.9,2c0.4,0,0.4,0.7,0,0.7c-13.3-0.3-26.5-0.8-39.8-0.5
			c-6.6,0.1-13.3,0-19.9-0.3c-6.6-0.2-13.4,0.2-19.9-0.5C622.6,615.4,622.6,614.9,623,614.9z"/>
		<path fill="#64320F" d="M803.1,577.4c2.4-0.8,4.9-1.4,7.3-2.1c1.3-1.3,2.7-2.6,4.2-3.7c-10.9,2.6-24.4,7.1-34.5,11.6
			c0.8,1,0,3.1,0.9,3.9C786.7,584,796.9,579.4,803.1,577.4z"/>
		<path fill="#64320F" d="M1012.9,610.7c-0.6,0.1-0.9,0.2-0.9,0.2S1012.3,610.8,1012.9,610.7L1012.9,610.7z"/>
		<path fill="#64320F" d="M1012.9,610.7c-0.6,0.1-0.9,0.2-0.9,0.2S1012.3,610.8,1012.9,610.7L1012.9,610.7z"/>
		<path fill="#64320F" d="M804.3,588.7c1.5-1.3,1.9-9,3.3-10.5c-7,2.2-19,4.9-26.1,11C787.1,592.9,799.6,593,804.3,588.7z"/>
		<path fill="#64320F" d="M1114.8,580.5c11.5-5.5,25.4-10.7,40.4-15c5.1-1.4,10.2-2.5,15.3-3.2c4-0.5,7.6-0.9,11.1-1
			c0-0.1,4.1-0.2,4-0.4c-0.6-1.9-2.3-3.7-1.6-5.4c-16.4-0.9-29.8,1.5-47.7,3c-0.5,0-0.6-0.7-0.1-0.8c17.2-4.4,30.2-7,46-6.5
			c-0.5-1-1-2-1.3-3.1c-15.1-0.3-31.4,0.9-46.7,4.1c-0.7,0.4-1.4,0.8-2.1,1.3c-2.1,1.4-4.6,2.6-5.9,4.8c-1.2,1.8-0.4,3.6-0.9,5.6
			c-1.7,5.8-8.6,9.2-14.3,8.6c-2-0.2,0.1-1.7-1.8-2.6c-1-0.5-2.7-1.4-3.7-2c-0.8-0.4-2.6,1.5-3.4,1.2c-1.4,0.8-2.8,1.7-4.1,2.5
			c-0.5,0.9,0.3,3.2,0,4.4c-0.3,1.1-0.8,2.1-1.7,2.9c-3.6,3.2-7.7,0.3-10.8-2.9c-2.9,2.6-5.5,5-7.8,7.4c2.1,4,3.1,8.9,3.2,13.4
			C1089.4,590.6,1100.5,585.3,1114.8,580.5z"/>
		<path fill="#64320F" d="M1033.8,607.1c0,0.1-0.2,1.4-0.3,1.5c1.8-0.2,3.7-1.6,5.3-1.7C1037.3,607,1035.6,607,1033.8,607.1z"/>
		<path fill="#64320F" d="M714.6,642.8c2-3.2,0.2-6.9,3.2-10.3c1-1.1,1.7,0.8,2.8,2c2.1,2.3,1.8,3.1,4.1,5.1s2.7,0.9,5.2,2.7
			c3.6,2.5,6.7,5.8,9.6,8.9c4.4,12.3,7.1,25,16,46.4c3.4,8.3,12.2,22.5,15.9,31.7c-1-5.1-1.9-22.9-1.4-28.7
			c-2.3-7.9-6.7-16.2-7.7-24.8c-2.6,0.9-2.9,2.5-5.6,0.7c-5.8-3.8-6.2-8-3.2-13.1c0.9-1.5,2.7-2.9,4.1-1.5c1,1.1,2.6,2.2,3.7,2.2
			c-0.1-15.8,5-30.3,10.2-45.6c0,0,1.2-5,3.1-6.4c-0.8-3.2-0.6-8.8-3.1-11.2c-1.6-1.7-7.2-3.4-9.4-4.2c-4.2,3.9-8.6,9.8-12.4,10.6
			c0,0-0.4,0-1,0c-0.2,0.6-0.4,1.3-0.6,2c0.7,1-2.3,1.8-3.6,1.8c-1.4,3,0,4.4-3.8,2.6c-3.2-1.5-5-2.9-8.2-4.7
			c-1-0.6-4.3-0.5-5.4-1.1c-0.1,0-0.3,0-0.4,0c-7.2,1-11.4,4.1-12.1,6.6C708.3,628.1,712.7,639.8,714.6,642.8z M739.7,622.5
			c5.5-0.1,10.1,1.7,10.1,5s-4.3,6-9.8,6.2s-10.1-2.3-10.2-5.6C729.7,624.8,734.1,622.7,739.7,622.5z"/>
		<path fill="#64320F" d="M1164.3,573c2.1-2.3,4-8.1,6.4-10.6c-5.2,0.7-11.1-2.5-16.1-1.1c-15.1,4.3-31.5,13.1-43,18.6
			c5.6,6.1,25.8-2.3,43-5.5C1153.1,578.5,1161.1,573,1164.3,573z"/>
		<path fill="#64320F" d="M1234.5,583.3l4.8-3.5l32.9,22.2c7.5-21.9-6.9-17.6-9.2-18.7c-12.8-6.7-28-12.8-44.4-16.9l-10.8,9.6
			C1217.4,577.5,1227.3,586.9,1234.5,583.3z"/>
		<path fill="#64320F" d="M1257.1,727.7c0.2-1.1,1.5-2.2,2.1-3.2c1.4-2.6,3.2-4.4,3.2-7.1c3.1-5.2,5.5-11.5,7.2-19
			c-1.8-2.3-2.9-4.9-3.1-7.9c-0.4-5.6,3.2-8.6,6.2-12.3c2.8-25.3,3.7-59.5-1.1-79.5c-1.3,4.1-3.1,9.8-4.9,15.1
			c6.4,15.1,0,31.3-1.9,52.3c-1.5,10.3-3.7,19.7-8.4,32.1c-2,5.3-3.8,10.9-7.1,14.9c-0.3,0.8-0.6,1.5-0.8,2.2
			c-2.8,7.8-8.6,14.3-16.6,19.5c1.4,1.6,2.5,2.9,3.4,4.7c7,4.2,11.4-2.4,16.9-6.9C1253.7,731.1,1255.6,729.3,1257.1,727.7z"/>
		<path fill="#64320F" d="M1165.6,572.4c2.5-1.2,5.3-4.3,8.2-4.6c2.6-0.7,5.4-1,7.9-1.5c3.2-0.6,3.9-3.3,2.6-7.5
			c-3.5,0.1-10.2,0.3-14.2,0.8c-2.4,2.6-7,10.2-9.2,12.4C1161.5,572,1164.9,572.3,1165.6,572.4z"/>
		<path fill="#64320F" d="M1209.3,571.4c-0.4,0.9-2,2.8-2.5,3.9c0.2,0,4.5-0.8,4.7-0.8l7.4-8.1c-2.1-0.5-4.2-1-6.2-1.4
			C1213.3,567.1,1210.1,569.1,1209.3,571.4z"/>
		<path fill="#64320F" d="M1234.5,581.9c0.7,0.4,1.4,0.7,2.1,1c4.3-1.6,8.8-1.9,13-0.5c5.7,2,8,6.4,9.4,11.9c1.1,4.3,2.8,8.4,4,12.7
			c1.4,2.2,2.5,4.4,3.6,6.7c1.8-5.4,3.6-11,4.9-15.1c-0.8-3.1-1.6-5.9-2.6-8.1l-30.2-12.9L1234.5,581.9z"/>
		<path fill="#64320F" d="M1273,594.1c-0.3-0.3-0.6-0.7-0.7-1.2c-0.1-0.4-0.2-0.8-0.2-1.2l-3.1-1.3c1.1,2.3,1.9,5,2.6,8.1
			C1272.1,596.7,1272.7,595.2,1273,594.1z"/>
		<path fill="#64320F" d="M1186.7,742.9c-17.8,2.1-37-1.4-53.2-8.2c-1.8-0.8-3.6-1.6-5.4-2.6c0.2,1.5,1,3.1,1.9,4.8
			c1.5,2.5,3.2,4.7,4.8,7.1c17.5,4.3,36,5.6,52.9,4.1c-0.4-1.3-0.8-2.6-0.9-4C1186.9,743.7,1186.8,743.3,1186.7,742.9z"/>
		<path fill="#64320F" d="M1129.3,725.9L1129.3,725.9c16.5,11.3,38.2,14.2,56.9,12.5l0,0C1167.5,740,1145.8,737.1,1129.3,725.9z"/>
		<path fill="#64320F" d="M1186.1,738.4c5.8-0.5,11.3-1.4,16.2-2.6c-23.4,5.9-58.3,4.1-80.4-15.7c2.3,2.1,4.8,4.2,7.4,5.9
			C1145.8,737.1,1167.5,740,1186.1,738.4z"/>
		<path fill="#64320F" d="M1202.6,735.6c0.8-0.2,1.5-0.3,2.2-0.6C1204,735.3,1203.2,735.5,1202.6,735.6z"/>
		<path fill="#64320F" d="M1180.7,738.8c1.8,0,3.7-0.2,5.5-0.3c0,0,0,0,0-0.1c-18.7,1.6-40.4-1.3-56.9-12.5c0,0.1-0.1,0.1-0.1,0.2
			C1144,736.4,1163.2,739.6,1180.7,738.8z"/>
		<path fill="#64320F" d="M1181.2,739.3c-0.2,0-0.3-0.2-0.5-0.5c-17.5,0.8-36.8-2.4-51.5-12.8c-0.5,0.8-0.9,1.6-1,2.5
			c2.4,1.6,5,3.1,7.5,4.5c6.4,3.6,14.2,6.2,21.4,7.3c9.6,1.4,19.8,2.1,29.6,1.8c-0.1-1.1-0.3-2.1-0.4-3
			C1183.7,739.2,1182,739.3,1181.2,739.3z"/>
		<path fill="#64320F" d="M1085.6,650.8c0.2,17.9,3.7,30,11.2,41.5l0,0C1088.9,679.6,1086.2,667.2,1085.6,650.8z"/>
		<path fill="#64320F" d="M1075.2,615c-0.9,6.3,1,13.3,3.2,19c2.8,7.7,3,13.3-0.3,20.9c-1.9,4.3-5.3,5.3-6.2,9.8
			c-0.8,3.7-2,12.2-2.6,16c3.3,12,9.5,24.6,16.3,34.4c7.8-1.8,13,0,21.6,0.4c0.6,0,1.2,0,1.8,0c-3-3.7-5.7-7.7-8.1-12
			c-0.2-0.4,0.4-0.7,0.6-0.3c2.9,4.3,6.3,8.3,10.1,12c1.5-0.2,3-0.6,4.5-1c-4.5-4.4-8.4-8.5-11.7-12.4l-8.1-8.1
			c0.4-0.5,0.7-1,1.1-1.5c-7.5-11.5-11-23.6-11.2-41.5c-0.4-11.8,1-22.2,5-31.6l0,0c0,0-8.3,1.7-7.7-11.3c0.3-8.1,22.6-14.1,37-30.9
			c-14.4,4.7-31.9,10.8-40.1,17.1c0,1-2.2,5.6-2.3,6.5C1077.3,605.7,1075.9,609.8,1075.2,615z"/>
		<path fill="#64320F" d="M1083,607.8c-0.5,13,7.7,11.3,7.7,11.3l0,0c4.9-11.3,13.5-20.9,27.7-29.1c0.3-0.1,0.5-0.3,0.8-0.4
			c0.7-0.4,1.4-0.8,2.2-1.2c1-0.5,2.1-1.1,3.2-1.6c10.2-5.1,21.5-8.5,33-10.5l0.1-0.1c0.9-0.9,3.1-3.4,6-6.5
			c-3.1-0.1-4.1-2.9-4.1-2.9c-17.1,3.3-32.5,9.7-44.7,13.7C1095.8,589.7,1083.3,599.7,1083,607.8z"/>
		<path fill="#64320F" d="M1118.4,590c0.3-0.1,0.5-0.3,0.8-0.4C1118.9,589.7,1118.7,589.9,1118.4,590z"/>
		<path fill="#64320F" d="M1121.3,588.5c1-0.5,2.1-1.1,3.2-1.6C1123.4,587.3,1122.3,587.9,1121.3,588.5z"/>
		<path fill="#64320F" d="M1264.4,626.8c1.8,6.3,5.2,16.6,2,38.2c13.2-6.8,16.5-37.7,1.6-56c-0.6,1.7-2.4,8.2-3,9.8
			C1265.2,619.6,1264.1,626.2,1264.4,626.8z"/>
		<path fill="#64320F" d="M1228.7,728.6c0.6,2.1,1.5,4.2,3.2,6c0,0,0,0.1,0.1,0.1c7.9-5.1,13.7-11.7,16.6-19.5
			c0.3-0.7,0.6-1.5,0.8-2.2C1243.3,716.5,1235.4,722.8,1228.7,728.6z"/>
		<path fill="#64320F" d="M1165.6,569.9c-0.7,0-1.4-0.1-2,0c-2.9,3.1-5.3,5.5-6,6.5c1.8-1.8,3.7-3.5,5.3-4.6
			C1163.8,570.8,1164.7,570.3,1165.6,569.9z"/>
		<path fill="#64320F" d="M1261.4,614.6c0.1,1,1.2,4,1.1,5.1c0.1,0.3,2.5-1.2,2.5-0.9c0.6-1.6,1.1-3.3,1.7-5c-1-2.3-2.1-4.5-3.6-6.7
			C1260.4,608.7,1261.1,611.9,1261.4,614.6z"/>
		<path fill="#64320F" d="M1096.9,692.3L1096.9,692.3c0.4,0.6,0.7,1.2,1.1,1.8C1097.7,693.4,1097.3,692.9,1096.9,692.3z"/>
		<path fill="#64320F" d="M1096.9,692.3c-0.4,0.5-0.7,1-1.1,1.5l8.1,8.1c-2.2-2.6-4.1-5.2-5.9-7.7
			C1097.7,693.4,1097.3,692.9,1096.9,692.3z"/>
		<path fill="#64320F" d="M910.8,585.9c17.5,1.5,32.2,8.4,42.4,13.9c17,6.6,27.6,14.5,34.1,25.5c2.7,4.6,4.8,10.5,6,16.7
			c0.4,0.7,1,2.6,1.4,3.3c0.7,1.3,3.4-0.7,4,0.6c4.8-25.1-22.8-51.8-48.5-58.5c-1.1,1.9-0.7,4.7-3.2,5.1c-5.6,1.1-8.2-6.7-12.6-9.6
			c-27.4-5.3-56.5-7.9-80.6-6.1c-7.1,4.9-16.7,2.7-23.4,7.7C849.1,580.3,880.4,580.7,910.8,585.9z"/>
		<path fill="#64320F" d="M996.3,662.3c-0.8,10.9-5.4,22.1-9,33.7c-1.8,17.8-6.8,33.2-23.3,47.8c-0.7,0.6-2,0.6-2.7,1.2
			c-1.2,1.5,0,6.2-1.3,7.6c0.6-0.2,1.1-0.4,1.7-0.6c1.9-0.7,4-1.3,6.2-1.9c14.6-13.4,29.9-32.3,32.6-54.5c1.6-13,1.6-27-0.3-40.3
			c-0.2,1.1-0.5,2.2-1,3.2C998.5,660,997.5,661.3,996.3,662.3z"/>
		<path fill="#64320F" d="M770.6,679.1c-2.8-0.9-5.8-1.4-8.2-0.7c0,0,0,0-0.1,0c1,8.6,2.8,16.8,5.1,24.9c0.5-5,1.9-9.6,4.9-12.3
			C771.6,686.9,771,683,770.6,679.1z"/>
		<path fill="#64320F" d="M771,653.1c0.4-0.5,0.8-0.9,1.1-1.4c1.9-7.3,5.2-14.5,8.2-20.5c0.5-9-4.1-12.5-5.3-18.6
			c-0.2-1.4-2.2-1.9-2.5-3.3c-1.9,1.5-3.9,4.9-3.9,4.9c-5.2,15.2-11.9,32.5-7.2,51.2C765.2,665.5,768.9,655.6,771,653.1z"/>
		<path fill="#64320F" d="M826.8,763.7c-4.9-2-9.1-4.2-13-6.6c-0.1,0.6-0.2,1.2-0.3,1.8c4.4,2.6,9,4.7,13.6,6.7
			C827,765,826.9,764.3,826.8,763.7z"/>
		<path fill="#64320F" d="M939.3,771.3l-30.8,2.4c-0.9,0.2-1.8,0.4-2.8,0.7c-5.5,1.2-9.8,0.3-13.7-2.2c-3.3,5.8-5.4,9.1-5.6,9
			c-1-1.3-13.4-1.7-13.4-1.7l3.6-6.6c-5.6,0.2-11.4-0.1-17.3-0.7l0,0l0,0c-4-0.5-8-1.1-12.2-2c-0.5,1.1-0.9,2.1-1.4,3
			c4.2,1.2,8.6,2.1,13.1,2.2c0.5,0,0.5,0.8,0,0.8c-4.8,0-9.6-0.4-14.2-1.4c-4.3,0.8-8.5,2.7-12.1-1.9c-1.1-1.4-3.7-1.6-4.3-3.1
			c-5.4-2.1-10.6-6-15.6-8.8c-0.3,0.9-2.8,1.9-3.1,2.9c-0.2,0.5-0.8,1.5-1,2c14.1,9.3,33.2,17.2,50.7,20.5c4.1-1.4,8.6-0.6,12,1.7
			c21.3,1.8,43.4-1.8,63.9-13.3C936.3,773.1,937.8,772.3,939.3,771.3z"/>
		<path fill="#64320F" d="M990.2,677.7c0.1,6.3-0.1,12.6-0.7,18.8c9.8-6.8,13.2-26.1,6.8-34.2c-2,1.7-4.3,2.8-6.9,3.4
			C989.9,669.8,990.1,673.8,990.2,677.7z"/>
		<path fill="#64320F" d="M995.4,639.9c-1.1-6.2-2.9-11.7-5.7-16.4c1.5,2.4,1.6,5.5,2.3,8.1C992.7,634.7,994,637.2,995.4,639.9z"/>
		<path fill="#64320F" d="M966.8,611.2c2.6,3.3,5.2,7.2,7.4,11.5c0.9-0.2,3.3-1.9,4.3-2.1c4.2-1.2,8.7-1.1,11.2,2.9
			c-6.5-11-20.1-19.8-37.1-26.4C959.4,600.9,963.2,606.6,966.8,611.2z"/>
		<path fill="#64320F" d="M870.9,586.7L870.9,586.7c4.2-1.1,8.6-2.8,14.2-1.8c2.2,0.3,5.3,0.4,7.2,1.5c6.7-0.2,20,0.5,25.9,1
			c-25.1-12.2-69.9-10.3-88.5-5.8c-3.7,2.8-4.4,9.9-5.9,13.9C838.5,590.2,854.9,587.6,870.9,586.7
			C870.8,586.8,870.9,586.8,870.9,586.7z"/>
		<path fill="#64320F" d="M903.1,778.4l37.1-4.8c1-0.6,1.1-3.6,1.8-4.4c1.9-2.2,3.4-4.8,5.1-7c3.4-4.4,7.9-7.4,12.9-9.5
			c1.2-1.4,13.1-13.3,14.3-14.9c-10.3,8.4-35.1,22.4-51.7,28.3C904.6,771.7,908.3,777.1,903.1,778.4z"/>
		<path fill="#64320F" d="M870.9,586.7L870.9,586.7C870.9,586.8,870.8,586.8,870.9,586.7C870.8,586.8,870.8,586.8,870.9,586.7
			C870.9,586.8,870.9,586.8,870.9,586.7z"/>
		<path fill="#64320F" d="M870.9,586.7L870.9,586.7L870.9,586.7L870.9,586.7z"/>
		<path fill="#64320F" d="M870.9,586.7L870.9,586.7L870.9,586.7L870.9,586.7z"/>
		<path fill="#FEB04B" d="M1096.6,579c0.9-0.7,1.5-1.8,1.7-2.9c0.3-1.2-0.5-3.5,0-4.4c1.4-0.8,2.8-1.7,4.1-2.5
			c0.8,0.4,1.6,0.8,2.4,1c1,0.5,1.9,1.1,2.9,1.7c1.8,1-1.3,1.9,0.8,2.2c5.8,0.6,15.2-4.2,16.9-10.1c0.6-2-0.1-3.8,0.9-5.6
			c1.2-2.1,3.9-3.4,5.9-4.8c0.7-0.4,1.4-0.8,2.1-1.3c-15.9,3.4-30.8,9.1-41.8,17.9c-2.4,2-4.7,3.8-6.8,5.7
			C1088.9,579.3,1093,582.2,1096.6,579z"/>
		<path fill="#FEB04B" d="M1195.1,552.4c5.1,0.7,10,1.5,15,2.6c0.1-0.3,0.3-0.5,0.5-0.8c0.6-1,1.4-2,2.4-3.1c-2-0.3-4-0.7-6.1-0.9
			c-7.7-1-16.5-1.7-25.7-1.8c0.3,1,0.8,2.1,1.3,3.1C1186.4,551.5,1190.6,551.8,1195.1,552.4z"/>
		<path fill="#FEB04B" d="M1212.4,564.5c-0.9-2.3-2.3-3.8-2.8-5.6c-4.9-0.9-9.7-1.6-14.7-2.3c-3.8-0.5-7.4-0.8-10.8-1
			c-0.7,1.7-3.1,3.6-2.6,5.5c0,0.1,0.1,0.3,0.1,0.4c10.8-0.4,19.9,1,30.8,3.5C1212.5,564.7,1212.5,564.6,1212.4,564.5z"/>
		<path fill="#FEB04B" d="M1181.7,566.2c-2.6,0.5-5.3,0.9-7.9,1.5c-2.9,0.3-5.7,0.9-8.1,2c6.9,0.3,18.4,1.1,31.4,3.5
			c5.2,0.2,9.7,0.5,13.8,1.1c0.6-1,1-1.9,1.4-2.9c0.8-2.2,1-4.4,0.2-6.6c-11-2.5-20-3.9-30.8-3.5
			C1183,565.6,1184.8,565.6,1181.7,566.2z"/>
		<path fill="#FEB04B" d="M1157.6,576.2L1157.6,576.2L1157.6,576.2C1157.5,576.3,1157.5,576.3,1157.6,576.2z"/>
		<path fill="#FEB04B" d="M1172.4,574.6C1172.4,574.5,1172.4,574.5,1172.4,574.6c9.6-1.2,17.7-1.5,24.7-1.4
			c-13-2.3-24.5-3.1-31.4-3.5c-1,0.4-1.9,1.1-2.8,1.7c-1.6,1.2-3.5,2.8-5.3,4.6l-0.1,0.1C1162.4,575.4,1167.4,574.9,1172.4,574.6z"
			/>
		<path fill="#FEB04B" d="M1290.1,596.7c-1.5,1.8-0.1,3.3-1.7,5.2c4.4-0.7,4.4-0.5,6.5-2.8c2.4-2.5,6-10.8,3.1-22.3
			c-0.6,3-3.3,6.6-3.9,9.7C1293.3,590.2,1292.4,593.7,1290.1,596.7z"/>
		<path fill="#FEB04B" d="M1253.7,596.6c0.7,0.6,1.4,1.2,2.1,1.8c2.9,2.7,5.4,5.6,7.3,8.7c-1.3-4.3-2.9-8.4-4-12.7
			c-1.5-5.6-3.7-9.9-9.4-11.9c-4.1-1.5-8.7-1.1-13,0.5c1.2,0.6,2.4,1.2,3.7,1.9C1245.7,587.6,1250.2,591.9,1253.7,596.6z"/>
		<path fill="#FEB04B" d="M1253.7,596.6c5.5,7.3,9,15.6,11,21.5c0.1-1.2,0.1-2.2,0-3.2c-0.3-2.7-0.9-5.3-1.7-7.8c-2-3-3-8.9-6-11.6
			C1256.5,594.8,1254.4,597.2,1253.7,596.6z"/>
		<path fill="#FEB04B" d="M1260.8,719.6c0.6-0.8,1.2-1.6,1.7-2.5c-0.1,0-0.2,0.1-0.3,0.1C1261.9,718,1261.3,718.8,1260.8,719.6z"/>
		<path fill="#FEB04B" d="M1257,722.3c-0.6,1.1-0.9,2.2-1.1,3.3c1.7-1.9,3.4-4,5-6.1c0.5-0.8,1-1.5,1.4-2.4
			C1260.2,718.1,1258.4,719.7,1257,722.3z"/>
		<path fill="#FEB04B" d="M1277,661.5c-0.6,4.1,0,8.7-1.8,12.6c-0.7,1.5-1.6,2.7-2.6,4c-0.7,6.8-1.6,12.9-2.6,18
			c-0.2,0.7-0.3,1.4-0.4,2.1c0.6,0.8,1.2,1.6,2,2.2c7.6-18.2,9.4-36.3,9.7-51.8c0,0.1-0.1,0.1-0.1,0.2
			C1279.2,652.8,1277.6,657.1,1277,661.5z"/>
		<path fill="#FEB04B" d="M1269.6,698.2c0.2-0.7,0.3-1.4,0.4-2.1c1-5,1.9-11.2,2.6-18c-3,3.7-6.5,6.7-6.2,12.3
			C1266.6,693.3,1267.8,695.9,1269.6,698.2z"/>
		<path fill="#FEB04B" d="M1235.3,739.4c-7.2,2.5-12.6,2.5-12.6,2.5l-4.5-4.5c-9,3.4-20,7.4-31.1,8.4c0.4,1.4,1.8,4.9,2.5,6.3
			c0.7,1.4,1.7,2.8,2.2,4.2c1.6-0.1,3-0.3,4.4-0.4c11.4-1.4,26.2-5.6,40-14.1c-0.1-0.2-0.1-0.3-0.2-0.5
			C1235.9,740.7,1235.6,740,1235.3,739.4z"/>
		<path fill="#FEB04B" d="M1222.7,742c0,0,5.4,0,12.6-2.5c-0.8-1.8-2-3.1-3.4-4.7c-4,2.6-8.7,4.9-13.7,6.8L1222.7,742z"/>
		<path fill="#FEB04B" d="M1201.8,737.1c-6.3,1.2-11.8,1.7-15.6,1.9c0.1,0.9,0.3,2,0.4,3c0.5,0,1.1,0,1.6,0c0.4,0,0.4,0.6,0,0.6
			c-0.5,0.1-1,0.1-1.6,0.1c0,0.4,0.1,0.9,0.1,1.4c0.1,1.4,0.5,2.7,0.9,4c11.1-1,21.4-3.2,30.4-6.6l-24.1-2.6
			C1196.7,738.5,1199.2,737.9,1201.8,737.1z"/>
		<path fill="#FEB04B" d="M1202.4,735.7c-5,1.2-10.4,2.2-16.2,2.6c0,0,0,0,0,0.1c6.7-0.6,13.1-1.9,18.6-3.4
			c-0.7,0.2-1.5,0.4-2.2,0.6C1202.5,735.6,1202.5,735.7,1202.4,735.7z"/>
		<path fill="#FEB04B" d="M1202.4,735.7c0.1,0,0.1,0,0.2,0C1202.5,735.6,1202.5,735.7,1202.4,735.7z"/>
		<path fill="#FEB04B" d="M1186.1,738.4c5.8-0.5,11.3-1.4,16.2-2.6l0,0C1197.4,737,1191.9,737.9,1186.1,738.4L1186.1,738.4z"/>
		<path fill="#FEB04B" d="M1204.7,735.1c-0.7,0.2-1.5,0.4-2.2,0.6l0,0C1203.2,735.5,1204,735.3,1204.7,735.1z"/>
		<path fill="#FEB04B" d="M1202.6,735.6L1202.6,735.6c-0.1,0-0.1,0-0.2,0l0,0C1202.5,735.7,1202.5,735.6,1202.6,735.6z"/>
		<path fill="#FEB04B" d="M1228.7,728.6c-9.1,4.4-18.7,7-26.9,8.5c-2.5,0.8-5.1,1.3-7.6,1.7l24.1,2.6c5-1.9,9.6-4.2,13.7-6.8
			c0,0,0-0.1-0.1-0.1C1230.2,732.8,1229.2,730.7,1228.7,728.6z"/>
		<path fill="#FEB04B" d="M1115.9,714.2c-0.1,0-0.1,0-0.2,0c2,1.8,4,3.8,6.3,5.7C1119.8,718,1117.8,716,1115.9,714.2z"/>
		<path fill="#FEB04B" d="M1135,744.1c-2-0.5-4-1.1-6-1.6c-20.3-5.9-33.4-16.4-42.4-29.7c-0.8,0.2-1.5,0.3-2.4,0.7
			c-0.7,0.2-1.4,0.5-2.1,0.9c4.9,6.7,11,12.9,18.4,18.4c12.4,9.1,26.1,18.7,38.5,18.7c-0.5-1.2-1.2-2.4-1.7-3.5
			C1136.6,746.6,1135.8,745.3,1135,744.1z"/>
		<path fill="#FEB04B" d="M1128.1,732.1c-7.5-4.1-14-9.9-19.5-16.7c-0.6,0-1.2,0-1.8,0c-8.5-0.4-12.7-4.5-20.5-2.7
			c9,13.3,22.2,23.7,42.4,29.7c2,0.5,4,1.1,6,1.6c-1.6-2.4-3.3-4.6-4.8-7.1C1129.1,735.2,1128.5,733.6,1128.1,732.1z"/>
		<path fill="#FEB04B" d="M1122,720c2.3,2.2,4.7,4.3,7.3,6.1c0-0.1,0.1-0.1,0.1-0.2C1126.7,724.1,1124.3,722.1,1122,720z"/>
		<path fill="#FEB04B" d="M1128.2,728.5c0.2-0.8,0.6-1.7,1-2.5c-2.6-1.8-5-3.8-7.3-6.1c-2.3-1.9-4.3-3.9-6.3-5.7
			c-1.5,0.4-3,0.8-4.5,1C1116.4,720.2,1122.1,724.7,1128.2,728.5z"/>
		<path fill="#FEB04B" d="M1129.3,725.9c-2.5-1.7-5-3.7-7.4-5.9C1124.3,722.1,1126.7,724.1,1129.3,725.9L1129.3,725.9z"/>
		<path fill="#FEB04B" d="M1055.8,608.3c-0.1,0-0.2,0-0.3,0l0,0C1055.6,608.4,1055.7,608.4,1055.8,608.3L1055.8,608.3z"/>
		<path fill="#FEB04B" d="M1056,609l-0.1-0.7c-0.1,0-0.2,0-0.3,0c-0.2,0.5-0.3,1.1-0.5,1.6c1,0.4,2,0.8,3.1,1.3
			c0.3,0.1,0.1,0.5-0.2,0.4c-1.1-0.3-2.2-0.4-3.4-0.6c-1.1,2.9-2.7,5.7-4.2,8.8c-2,4.4-3.9,8.7-5.6,13.1c4.1-0.3,7.9-0.6,10.3-1
			c4.2-0.6,6.5-0.8,7.9,1c-0.1-14.7,5.6-26.4,18-35.9c0-4.5-1.1-9.4-3.2-13.4c-0.8,0.8-1.6,1.6-2.3,2.5c-1.7,2.1-3,4.1-3.8,5.8
			C1069.5,596.5,1069.8,622.1,1056,609z"/>
		<path fill="#FEB04B" d="M1071.9,679.5c-2.3-8.5-4.2-17.4-6-26.3c-0.2,0.2-0.4,0.5-0.5,0.7c-0.5,0.7-0.9,2.3-1.9,2.1
			c-1.3-0.3,0.5-3.5,2.1-5.2c-0.1-0.4-0.1-0.8-0.2-1.2c-1.3,3-3.6,4.1-3.6,4.1c-0.1,6.3,1.1,20.2,6.9,35.5c1.3-2.1,2.4-4.7,2.9-7.5
			C1071.7,681,1071.8,680.3,1071.9,679.5z"/>
		<path fill="#FEB04B" d="M1066.8,649.9c0.5-0.1,0.8,0.3,0.7,0.7c-0.1,0.6-0.5,1-0.9,1.5c-0.3,0.3-0.5,0.7-0.8,1
			c1.7,9,3.6,17.8,6,26.3c0.6-3.8,0.8-7.6,1.5-11.4c1-4.5,5.4-8.1,7.3-12.5c3.3-7.5,3.7-16.2,0.8-23.9c-2.2-5.7-4.2-10.4-3.3-16.6
			c0.8-5.1,2.4-10.2,2.8-15.4c0.1-0.9,0-1.9,0.1-2.8c-12.4,9.5-18.1,21.2-18,35.9c1.2,1.4,1.9,3.8,2.7,8.2c0.7,3.9,0.3,6.6-0.7,8.6
			c0.1,0.4,0.1,0.8,0.2,1.2C1066,650.3,1066.5,650,1066.8,649.9z"/>
		<path fill="#FEB04B" d="M1033.8,607.1c-8.1,0.6-17.9,2.8-20.9,3.5l0,0c3-0.6,12.7-2.3,20.8-3.3
			C1033.7,607.3,1033.8,607.2,1033.8,607.1z"/>
		<path fill="#FEB04B" d="M1033.7,607.4c-8.1,0.9-17.8,2.7-20.8,3.3l0,0C1016,610.2,1025.6,608.5,1033.7,607.4
			C1033.7,607.5,1033.7,607.4,1033.7,607.4z"/>
		<path fill="#FEB04B" d="M1029.5,611.8c-0.5-0.1-0.8-0.8-0.3-1.1c0.6-0.3,2-0.5,3.7-0.7c0.2-0.4,0.4-0.7,0.6-1.1
			c0.2-0.4,0.3-1.3,0.4-1.7c-8.1,0.8-17.8,2.8-20.8,3.3c3,7.3,6.7,15.4,15,10.4c1.7-1,2.7-2.6,3.2-4.4c0.3-1.2,0.2-2.5,0.6-3.7
			c0.1-0.3,0.2-0.6,0.4-0.9C1030.9,611.8,1030,611.8,1029.5,611.8z M1019.8,610.7c-0.5,0.5-1.4,0.5-2.1,0.8
			c-0.8,0.3-1.5,0.6-2.4,0.7c-0.4,0-0.6-0.6-0.2-0.8c0.7-0.4,1.4-0.5,2.2-0.7c0.8-0.1,1.6-0.6,2.4-0.5
			C1019.9,610.3,1020,610.5,1019.8,610.7z"/>
		<path fill="#FEB04B" d="M997.7,604.9c1.4,0,2.8-0.5,4.1-1.1c-5.2-3.5-12.1-7.9-20.2-12.6c0.7,1.5,1.6,3,2.3,4.3
			C988.8,598.3,993.3,601.4,997.7,604.9z"/>
		<path fill="#FEB04B" d="M998.5,645.9c0.7,3.1,1.3,6.2,1.7,9.3C1000.7,652.1,999.9,648.9,998.5,645.9z"/>
		<path fill="#FEB04B" d="M995.4,639.9c1.2,6.8,1.5,14.4,0.8,22.4c1.2-1,2.2-2.4,3-3.9c0.6-1.1,0.8-2.1,1-3.2
			c-0.5-3.1-1-6.3-1.7-9.3c-0.6-1.4-1.3-2.7-2-3.8C996.2,641.4,995.8,640.6,995.4,639.9z"/>
		<path fill="#FEB04B" d="M978.5,620.6c-1,0.3-2,0.6-2.9,0.7c5.8,10.9,10.4,24.4,12.8,38l0,0l0,0c0.4,2.2,0.7,4.4,1,6.5
			c2.6-0.6,5-1.7,6.9-3.4c0.6-8,0.4-15.6-0.8-22.4c-1.5-2.7-2.6-5.2-3.4-8.3c-0.7-2.7-0.9-5.8-2.3-8.1
			C987.2,619.4,982.6,619.3,978.5,620.6z"/>
		<path fill="#FEB04B" d="M988.4,659.2L988.4,659.2L988.4,659.2z"/>
		<path fill="#FEB04B" d="M1004.7,688.3c-2.7,5.1-3.5,10.4-4.4,16c-0.5,3.6-1.3,6.8-2.8,10.2c-0.9,1.8-1.8,3.4-2.1,5.4
			c-0.2,1.2,0,2.4,0.1,3.7c4-8,6.7-15.5,9-21.5c3-7.9,5.4-16.1,7.2-23.2C1008.7,681,1006.2,685.3,1004.7,688.3z"/>
		<path fill="#FEB04B" d="M968,750.1c-13.4,4.3-15.5,10.6-20.9,14.2c-3.2,2.6-8.4,8.3-11.9,10.2c-1.3,1.7-1.2,3.3-1.2,5.3l0.8,2.5
			c20.2-8.3,35.6-21.2,45.7-32.8C977.5,748.1,971.5,749.2,968,750.1z"/>
		<path fill="#FEB04B" d="M960.1,752.7c-4.6,5.7-9.6,10.8-14.9,15c5.4-3.5,13.9-9.6,22.7-17.6c-2.2,0.6-4.4,1.2-6.2,1.9
			C961.2,752.3,960.6,752.5,960.1,752.7z"/>
		<path fill="#FEB04B" d="M939.3,771.3c-1.5,0.9-3.1,1.8-4.1,3.2c3.4-1.9,6.8-4.2,10-6.8C941.6,770.1,939.3,771.3,939.3,771.3
			L939.3,771.3z"/>
		<path fill="#FEB04B" d="M960.1,752.7c-5,2-9.6,5.2-12.9,9.5c-1.7,2.2-3.2,4.9-5.1,7c-0.8,0.8-1.8,1.5-2.7,2.1l0,0
			c0,0,2.3-1.3,5.8-3.6C950.4,763.5,955.5,758.4,960.1,752.7z"/>
		<path fill="#FEB04B" d="M916.4,767.4c-4.9,0.9-9.9,1.8-14.9,2.4c-3,0.6-6,1.2-9,1.5c-0.2,0.3-0.3,0.5-0.5,0.8
			c3.9,2.5,8.2,3.5,13.7,2.2c0.9-0.2,1.8-0.4,2.8-0.7l-7.8,0.6C900.7,774.3,907.2,771.8,916.4,767.4z"/>
		<path fill="#FEB04B" d="M916.4,767.4c-9.2,4.5-15.7,6.9-15.7,6.9l7.8-0.6c5.3-1.3,10.6-3.5,14.2-7.7
			C920.6,766.5,918.5,766.9,916.4,767.4z"/>
		<path fill="#FEB04B" d="M871.3,787.8c-4.1-0.4-8.1-0.9-12-1.7c-0.1,0-0.2,0.1-0.3,0.1c-1.8,0.6-4.6,3.1-5.7,4.4
			c6.5,1.1,15.5,2.1,22.6,2.3c-0.2-0.3-1.1-2.1-1.3-2.3C873.6,789.6,872.6,788.6,871.3,787.8z"/>
		<path fill="#FEB04B" d="M859.3,786.1c4,0.8,8,1.3,12,1.7C867.9,785.5,863.4,784.7,859.3,786.1z"/>
		<path fill="#FEB04B" d="M826.8,763.7c0.1,0.7,0.2,1.3,0.4,2c1.6,0.8,3.3,1.4,5,2.2c4.6,2,9.1,3.9,13.8,5.2c0.5-0.9,1-1.9,1.4-3
			c-1.6-0.4-3.2-0.7-4.8-1.2C836.7,767.3,831.4,765.6,826.8,763.7z"/>
		<path fill="#FEB04B" d="M828.3,769.5c0.6,1.5,1.4,3,2.5,4.3c3.6,4.6,10.2,5.5,13.9,0.7c-4.1-0.9-8.3-2.1-12.3-3.6
			C831.2,770.6,829.7,770,828.3,769.5z"/>
		<path fill="#FEB04B" d="M803.4,761.1c-16-12.4-28.8-33.4-36-57.8c-0.5,5.8,0.1,12.2,1.2,17.3c6.3,15.8,14.2,31.7,27.2,43.1
			c3.6,3.1,8,6.3,13.2,9.4c0.6-2.1,1.4-4.2,2.2-6.5C808.5,764.9,805.9,763.1,803.4,761.1z"/>
		<path fill="#FEB04B" d="M800,762.5c2.5,1.9,8.5,2.4,11.1,4.1c0.2-0.5,0.4-0.9,0.6-1.4c0.4-0.9,0.7-1.8,0.9-2.7
			c-1.5-0.9-3.1-1.8-4.5-2.8c-6.8-4.6-12.1-10.9-17.1-17.3c-5-6.5-10.9-13.4-12.8-21.5c-0.1-0.4,0.4-0.6,0.6-0.3
			c4,6.7,8.8,12.8,13.7,18.9c5.2,6.6,11,12.9,18,17.5c1,0.7,2,1.2,3.1,1.9c0.1-0.6,0.2-1.2,0.3-1.8c-14.3-8.9-22.3-20.3-29.5-32.6
			c-5.8-9.7-9.8-21.6-12-33.6c-2.9,2.9-5.2,6-4.9,12.3C774.6,727.7,784,750,800,762.5z"/>
		<path fill="#FEB04B" d="M761.3,661.5c-1.1,0-2.2-0.3-3.2-1.5c-1.3-1.4-3.6-0.8-4.5,0.7c-3,5.1-4.2,14.2,1.6,18.1
			c2.8,1.8,4.6,0.6,7.2-0.3C761.7,672.8,761.3,667.2,761.3,661.5z M757.2,666.7c-1-0.6-2-1.3-3.1-2.5c1.5-0.2,3-0.5,4.5-0.7
			C758,664.5,757.5,665.6,757.2,666.7z"/>
		<path fill="#FEB04B" d="M770.6,679.1c-0.7-7-0.7-13.7,0-19.5c0.2-2.5,0.8-5.2,1.5-7.8c-0.4,0.4-0.8,0.9-1.1,1.4
			c-2,2.6-5.9,8.2-9.7,8.4c0.1,5.7,0.4,11.4,1.1,17c0,0,0,0,0.1,0C764.7,677.6,767.7,678.2,770.6,679.1z"/>
		<path fill="#FEB04B" d="M757.2,666.7c0.3-1.1,0.8-2.1,1.4-3.2c-1.5,0.2-3,0.5-4.5,0.7C755.2,665.3,756.2,666.1,757.2,666.7z"/>
		<path fill="#FEB04B" d="M720.2,636.5c0.1-1.3,0.4-2.5,1.2-3.3l-4.1,0.1C718.2,634.3,719.3,635.4,720.2,636.5z"/>
		<path fill="#FEB04B" d="M735,640.7c-2.4-1.7-5.1-2.7-7.3-4.8c-2.4-2.1-4.3-4.6-6.3-6.9c-1-1.2-3.1-1-4.1,0.1
			c-3,3.4-3.5,7.3-2.6,11.3c0.8,1.3,1.2,4.1,2.2,4.7c3.6,2,9.5,0.7,20.1,7.7c0.6,0.4,2.1-2,2.6-1.6C739.7,647,738.6,643.2,735,640.7
			z M720.2,636.5c-0.9-1.1-1.9-2.2-2.9-3.2l4.1-0.1C720.6,633.9,720.3,635.2,720.2,636.5z"/>
		<path fill="#FEB04B" d="M739.6,615.7c3.9,1.8,6.1-0.6,7.4-3.7c-0.1,0-0.1,0-0.2,0c-2.2-0.1-4.4-0.5-6.6-0.4
			c-1.5,0-3.3,0.7-4.5-0.6c-0.1-0.1-0.1-0.2-0.1-0.3c0.6-1.7,2.6-1.8,4.1-2c2.5-0.3,5-0.5,7.4,0c0.4,0.1,0.7,0.3,0.9,0.6
			c0.3-0.7,0.5-1.4,0.6-2c-3.5-0.1-15.4-0.2-21.6,0.6c1,0.5,2.1,1,3.1,1.6C733.5,611.3,736.4,614.2,739.6,615.7z"/>
		<path fill="#FEB04B" d="M767.1,603.5c3,0.7,4.4,9.5,5.1,12.7c4.8-3.7,15.3-9.4,31.2-16.2c5.2-3.5,12.4-13.7,24-17.7
			c8.2-2.8,17.1-4.5,26.5-5.2c0.1-0.1,0.2-0.1,0.3-0.2c4.1-2.9,7-7.4,7.6-12.3c-3.8,0.1-7.4,0.3-10.7,0.7
			c-10.4,1.2-23.2,3.1-36.3,6.3c-1.5,1.1-2.8,2.4-4.2,3.7c9.3-2.6,18.8-4.5,28.5-4.7c0.3,0,0.4,0.5,0.1,0.5
			c-10.5,1.7-21.1,4-31.4,7.2c-1.4,1.4-2.7,2.9-4.2,4.3c-4.7,4.3-10.7,7.4-16.4,3.7c-4.4,2.1-8.7,4.4-12.8,7.1
			c-0.8,0.5-1.4-0.7-0.7-1.2c3.7-2.8,7.6-5.3,11.6-7.4c-0.9-0.9-1.8-1.9-2.6-2.7c-1.7,0.7-3.3,1.5-4.9,2.2
			c-6.7,6-14.4,11.5-18.8,15.6C760.9,600.7,765.5,601.9,767.1,603.5z"/>
		<path fill="#FEB04B" d="M853.9,577c-9.4,0.8-18.2,2.4-26.5,5.2c-11.6,4-19.4,8-24.6,11.7c7.9-3.4,17.1-6.6,27.6-9.1
			C837.2,579.7,846.8,581.9,853.9,577z"/>
		<path fill="#FEB04B" d="M780.3,631.2c4.1-7.9,7.8-13.4,7.8-13.4c6.7-7.5,15.3-13.4,24.9-18c-6.9,1.8-13.8,3.8-20.7,5.9
			c0,0,0.7-5,10.6-11.8c-16,6.8-26.6,14.4-31.4,18.2c0.3,1.3,0.6,2.7,0.8,4.1C773.4,622.1,776.1,627.2,780.3,631.2z"/>
		<path fill="#FEB04B" d="M792.3,605.7c7-2.1,13.9-4.1,20.7-5.9c3.5-1.6,7-3.1,10.7-4.4c1.4-3.9,3-7.9,6.7-10.7
			c-10.4,2.5-19.7,5.7-27.6,9.1C793,600.7,792.3,605.7,792.3,605.7z"/>
		<path fill="#FEB04B" d="M690.8,623.6c-5.2-7.1-17.6-5.5-24.9-4.6c-5.1,0.6-10.3,1.5-15.4,1.1c-4.4-0.3-8.8-2.8-13.3-1.7
			c-4.8,1-6.8,5.3-6.9,9.8c5.8,0.3,11.3,2.4,17.1,3.1c16.4,2,36,5.3,47.3,7l-0.6-2C692.7,632.2,693.4,627.2,690.8,623.6z"/>
		<path fill="#FEB04B" d="M535.7,660.2c5.9-8.8,4.7-17.5,3-27c-0.2,0.2-0.4,0.4-0.6,0.5c-13.4,14.7-19.5,30-20,42.4
			C525,672.1,531.5,666.5,535.7,660.2z"/>
		<path fill="#FEB04B" d="M589.5,616.8c4.6,1.9,8.4,4.2,13.5,3.3c6.5-1.1,13.5-3.5,18.8-7.6c-17.6,0.4-32.5,0.7-45.3,2.6
			C580.8,614.9,585.1,615,589.5,616.8z"/>
		<path fill="#FEB04B" d="M582.1,629c-6.4-0.8-11,5-14.8,9.3c-4.5,5.1-6.8,10.1-8.8,16.5c-2,6.8-10.5,8.6-12.5,15.5
			c-1.7,5.9,2.8,9.6,6.9,12.8c2.7,1.9,3.9,4,4.3,6.3c10.4-9.8,17.5-36.8,24.4-48.1c2.2-2.5,4.7-6.6,8-8.2
			C587.7,631,585.2,629.3,582.1,629z"/>
		<path fill="#FEB04B" d="M952.3,588.6c0.4-0.6,0.8-1.3,1-2.1c-3.4-1.3-7-2.5-10.5-3.7c-8.1-2.8-16.3-5.4-24.6-7.3
			c1.4,1.7,3,3.2,4.9,4.5c2.7,1.8,5.8,2.5,8.6,4.2c0.2,0.1,0.4,0.3,0.6,0.4c5.6,1,11.3,2.2,16.8,3.3
			C950.3,588.1,951.3,588.4,952.3,588.6z"/>
		<path fill="#FEB04B" d="M915.8,572.7c9.4,1.7,18.6,4.1,27.8,6.8c3.5,1.1,7.1,2.2,10.7,3.3c0.2-0.8,0.3-1.6,0.3-2.3
			c0.1-0.8,0.2-1.6,0.1-2.3c-12.2-4.2-27.7-7.7-43.5-10.1C913,569.6,914.5,571.2,915.8,572.7z"/>
		<path fill="#FEB04B" d="M947,592.7c2.5-0.5,4.1-2,5.4-3.9c-1-0.3-0.4-2.8-1.4-3c-4-4.1-12.5-3.7-18.5-1.1
			C936.7,587.4,941.3,593.7,947,592.7z"/>
		<path fill="#FEB04B" d="M890.3,585.4c0.6,0,1.1,0,1.7,0c-1.9-1.1-4.3-1.7-6.6-2c-5.6-0.9-10.4,0.6-14.4,3.4c0.2-0.1,4-1.1,4.1-1.2
			C875.1,585.4,884.5,584.3,890.3,585.4z"/>
		<path fill="#FEB04B" d="M876.3,586.2c4.9-0.4,9.5-0.8,14-0.9c-5.7-1.1-15.1,0.1-15.2,0.1c-0.1,0-3.9,1.1-4.1,1.2l0,0
			C874.7,586,876.3,586.2,876.3,586.2z"/>
		<path fill="#FEB04B" d="M870.8,586.8L870.8,586.8L870.8,586.8C870.9,586.8,870.9,586.8,870.8,586.8z"/>
		<path fill="#FEB04B" d="M876.3,586.2c0,0-1.6-0.3-5.3,0.4l0,0l0.1,0.1c1.8,0,3.5-0.2,5.3-0.1L876.3,586.2z"/>
		<path fill="#492916" d="M1068.5,689.3c-2,3.2-4.9,5.3-8.7,6c2.2,5,5.2,10.4,8.8,15.8c1.8,2.7,3.8,5.3,6,7.9c2.1-2,4.7-3.5,7.3-4.7
			C1075.9,706.1,1071.7,697.6,1068.5,689.3z"/>
		<path fill="#492916" d="M769.9,726c-0.4-1.5-1-3.4-1.3-5.5c-3.7-9.2-6.9-18.4-10.3-26.7c-8.9-21.5-9.7-35.3-18.8-42.6
			c0,0.6-0.1,1.2-0.2,1.8c-0.2,2-0.8,3.8-1.7,5.2c2.4,4.7,4.2,11.8,6.4,23c3.1,16.5,11.8,41.6,24.3,60.5c0.2-0.7,0.3-1.4,0.4-2.1
			C770.3,734.4,771.6,731.3,769.9,726z"/>
		<path fill="#492916" d="M924.3,783.7c-17.3,5.9-34,8-49.3,7.6c0.7,1.1,1.5,2.5,2,4c2.3,0,4.6,0.1,7,0c16.3-0.1,34-5,50.3-12.2
			c0-1.1-0.1-2.2-0.1-3.3C931,781.3,927.7,782.5,924.3,783.7z"/>
		<path fill="#492916" d="M1021.9,632.8c-6.4-1.3-10,3.7-11.2,9.8s1.9,10,5.7,14.1c0,0-1.3,9.6-4.5,22.1c0.8-0.5,1.7-1,2.6-1.2
			c0.7-0.1,1.3-0.1,1.9-0.2c2.1-7.8,3.7-15,4.6-20.9c0,0-4.1-3.2-7.2-7.2c-3.1-4.1,1.2-11.2,3.6-13.1c0,0,14.5,0.8,26,0.7
			c0.5-1.3,1-2.6,1.5-3.9C1036.4,633.5,1026.3,633.7,1021.9,632.8z"/>
		<path fill="#492916" d="M808.9,773c-0.4,1.2-0.6,2.3-0.8,3.5c14.4,8.5,31,14.2,46.3,16.9c0.6-1.3,1.8-2.6,0-4
			C836.3,786.4,820.6,780,808.9,773z"/>
		<path fill="#492916" d="M995.6,723.5c-4.1,8.2-9.4,17.1-17,25.7c0.5,0.1,1,0.2,1.5,0.3c0.9,0.2,1.8,0.6,2.6,1
			c0.6-0.6,1.1-1.2,1.7-1.8c4.3-5.2,8.4-11.9,12.4-19.5v-0.1C996.3,727.1,995.9,725.3,995.6,723.5z"/>
		<path fill="#492916" d="M1255.8,726.1c-1.5,1.5-2.9,3-4.5,4.3c-4.7,4.5-9.8,8.3-15,11.5c0.5,1.6,1.4,3.5,1.6,5.4
			c6.6-4.3,12.2-9,16.9-13.9c0.1-0.5,0.1-0.9,0.2-1.4C1255.4,730.1,1255.5,728.1,1255.8,726.1z"/>
		<path fill="#492916" d="M557.5,689.5c-2.2,3.7-4.5,6.4-7.2,7.8c-9,4.5-23-1.1-30.9-10c0.7,2.1,1.5,4,2.7,5.6
			c0.1,0.1,0.2,0.2,0.2,0.4c6,8.8,12.2,16.1,27.6,10.1c1.3-0.5,3-1.5,4.8-2.9c0.7-1.4,3.5-3.8,4-5.3
			C559.5,692.6,557.7,691.4,557.5,689.5z"/>
		<path fill="#492916" d="M1288.5,601.9c-2.2,0.4-4.4,0.9-6.4,2.2c-6.2,3.6,0.8,2.7,0.7,23.4c0,6.1-1.3,13.3-1.5,21
			c1.5-3.3,3.2-6.9,5.3-9.9c-2.1-15.3-10.2-29.1-0.9-30.9c0.3-2,1.3-3.9,2.6-5.7C1288.4,602.1,1288.4,602,1288.5,601.9z"/>
		<path fill="#492916" d="M1115,742.7c-4.9-3.6-10.4-3.7-15.5-1.5c7.4,5.1,15.7,9.7,24.6,13.4c-0.3-0.6-0.7-1.3-1.1-1.9
			C1120.5,749.2,1118.6,745.2,1115,742.7z"/>
		<path fill="#492916" d="M1298.4,575.2c-0.4-0.5-0.8-1-1.2-1.4c0.3,1.1,0.6,2.1,0.9,3.1C1298.2,576.4,1298.4,575.8,1298.4,575.2z"
			/>
		<path fill="#492916" d="M1192.1,757c0-0.2-0.1-0.4-0.2-0.6c-13.4,1.2-32.7,0.8-52.9-5c1.3,2.9,2.5,6.1,2.7,9.2
			c14,3.7,29.2,5.4,44.9,4c1.2-0.1,2.3-0.3,3.4-0.4c0.1-0.2,0.2-0.4,0.3-0.5C1191.5,761.4,1192.8,759.8,1192.1,757z"/>
		<path fill="#492916" d="M630.2,628.1c-15.3-0.9-30.2,0-40.5,5c0.9,0.9,1.8,2,2.6,2.9c6.6-4.9,19.3-6.8,38.1-5.4
			C630.3,629.8,630.3,629,630.2,628.1z"/>
		<path fill="#492916" d="M1261.2,726.4c1.3-1.5,2.5-3.2,3.6-4.6c-0.3,0.1-0.6,0.1-0.9,0.3C1262.5,722.7,1261.7,724.7,1261.2,726.4z
			"/>
		<path fill="#492916" d="M714.6,614.6c0,0-3.4-0.4-9.6-0.9c-1.6,10.7-1.8,20.9-0.5,24.3c0,0-4.1-0.7-10.4-1.6
			c0.5,1.6,1.1,3,1.6,4.5c8,1.5,15,2.8,20.6,4.1c-0.7-1.5-1.3-3.1-1.6-4.7C712.7,637.4,711.8,631.1,714.6,614.6z"/>
		<path fill="#492916" d="M1266.6,710.6c-1.2,2.2-2.6,4.5-4,6.5c1.7-0.6,3.7-0.7,5.8-0.5c1.7-2.7,3.2-5.3,4.4-7.5
			c0.9-1.6,1.7-3.5,2.6-5.5c-1.3-1-2.7-2-3.8-3.3C1270,703.8,1268.4,707.2,1266.6,710.6z"/>
		<path fill="#492916" d="M1251.3,730.4c1.6-1.2,3-2.7,4.5-4.3c0-0.1,0.1-0.2,0.1-0.4C1254.4,727.4,1252.9,729,1251.3,730.4z"/>
		<path fill="#492916" d="M756.5,598.8c-2.6,2.7-5,5.5-6.7,8.6c3.8-0.8,7.4-3.5,11.6-7.4C759.8,599.4,758.2,598.9,756.5,598.8z"/>
		<path fill="#B48140" d="M1298.4,575.2c-0.1,0.6-0.3,1.1-0.4,1.7c2.9,11.5-0.7,19.8-3.1,22.3c-2.1,2.3-2.1,2.1-6.5,2.8
			c-0.1,0.1-0.1,0.1-0.2,0.2c-1.4,1.6-2.3,3.7-2.6,5.7c0.3-0.1,0.6-0.1,1-0.1c11.4-1,11.8-0.9,13.6-10.8
			C1301.7,589.2,1302.4,580.4,1298.4,575.2z"/>
		<path fill="#B48140" d="M1262.6,717.1c-0.6,0.8-1.2,1.7-1.7,2.5c-1.6,2.4-3.3,4.6-5,6.5c-0.3,1.9-0.4,3.9-0.7,5.9
			c-0.1,0.5-0.2,0.9-0.2,1.4c2.3-2.4,4.5-4.7,6.4-7.1c0.5-1.7,1.3-3.6,2.8-4.4c0.3-0.1,0.6-0.2,0.9-0.3c1.3-1.7,2.5-3.5,3.6-5.1
			C1266.3,716.4,1264.4,716.4,1262.6,717.1z"/>
		<path fill="#B48140" d="M1255.8,726.1c1.7-1.9,3.5-4.1,5-6.5c-1.5,2.1-3.3,4.2-5,6.1C1255.8,725.9,1255.8,726,1255.8,726.1z"/>
		<path fill="#B48140" d="M1271.4,700.4c1.1,1.2,2.5,2.2,3.8,3.3c7.5-18.1,13-48.3,11.5-63.2c0-0.6-0.1-1.2-0.2-1.8
			c-2.2,3.1-3.8,6.5-5.3,9.9C1280.8,664.1,1279,682.2,1271.4,700.4z"/>
		<path fill="#B48140" d="M1196.3,756c-1.4,0.1-2.9,0.3-4.4,0.4c0.1,0.2,0.1,0.4,0.2,0.6c0.8,2.8-0.6,4.4-1.8,6.7
			c-0.1,0.2-0.2,0.4-0.3,0.5c19.8-2.3,35.7-8.9,48.1-17c-0.3-1.9-1.1-3.8-1.6-5.4C1222.5,750.3,1207.7,754.6,1196.3,756z"/>
		<path fill="#B48140" d="M1100.4,732.7c-7.5-5.5-13.5-11.8-18.4-18.4c-2.6,1.2-5.1,2.7-7.3,4.7c6.6,7.9,15,15.5,24.8,22.2
			c5.1-2.3,9.5-1.3,14.4,2.3c3.5,2.6,6.7,5.7,9.2,9.4c0.4,0.6,0.7,1.2,1.1,1.9c5.6,2.4,11.5,4.4,17.6,6c-0.1-3.1-1.3-6.4-2.7-9.2
			C1126.1,747.7,1112.8,741.9,1100.4,732.7z"/>
		<path fill="#B48140" d="M1068.5,689.3c-5.7-15.4-7-29.2-6.9-35.5c0,0,2.3-1.1,3.6-4.1c-0.2-1.3-0.5-2.6-0.7-3.9
			c-0.9-4.6-1.3-8.9-1.4-13c-1.5-1.8-3.8-1.6-7.9-1c-2.5,0.4-6.2,0.8-10.3,1c-0.6,1.3-1,2.6-1.5,3.9c5,0,9.5-0.3,12-0.7
			c0,0,6.3,11.7-3.2,19.5c0,0-2.4,17.4,7.7,39.7C1063.8,694.6,1066.6,692.4,1068.5,689.3z"/>
		<path fill="#B48140" d="M1065.8,641.1c-0.8-4.4-1.6-6.9-2.7-8.2c0,4.1,0.5,8.4,1.4,13c0.2,1.3,0.5,2.6,0.7,3.9
			C1066.1,647.7,1066.6,645,1065.8,641.1z"/>
		<path fill="#B48140" d="M1014.4,677.5c-0.9,0.2-1.8,0.6-2.6,1.2c-1.8,7.2-4.2,15.3-7.2,23.2c-2.3,6-5,13.4-9,21.5
			c0.2,1.8,0.8,3.6,1,5.3v0.1c8.1-15.6,15.1-34.9,19.6-51.5C1015.7,677.4,1015.1,677.4,1014.4,677.5z"/>
		<path fill="#B48140" d="M978.6,749.1c-10.2,11.5-24.3,22.6-44.5,30.9c0,1.1,0.1,2.2,0.1,3.3c20.4-9,38.4-21.4,48.5-32.9
			c-0.8-0.5-1.7-0.8-2.6-1C979.6,749.3,979.1,749.2,978.6,749.1z"/>
		<path fill="#B48140" d="M854.5,789.5c-0.9,1-1.6,2.2-2.2,3.6c7.9,1.4,16.1,2.2,24.7,2.4c-0.5-1.6-1.3-3-2-4
			C867.8,791.2,861,790.5,854.5,789.5z"/>
		<path fill="#B48140" d="M795.8,763.7c-13-11.4-20.8-27.2-27.2-43.1c0.5,2.1,0.9,4,1.3,5.5c1.6,5.3,0.2,8.5-1,13.5
			c-0.2,0.7-0.4,1.4-0.4,2.1c4.5,6.8,9.4,12.7,14.8,17.2c8.5,7.1,16.8,13,25,17.7c0.2-1.2,0.4-2.4,0.8-3.5
			C803.7,769.9,799.3,766.8,795.8,763.7z"/>
		<path fill="#B48140" d="M739.5,651.1c-0.5-0.4-1-0.8-1.6-1.2c-10.7-7-16.8-5-20.4-7c-1-0.6-2-1.2-2.9-2.5c0.3,1.6,0.9,3.1,1.6,4.7
			c4.9,1.2,8.8,2.4,11.3,3.6c4.7,2.3,7.7,4.8,10.2,9.5c1-1.4,1.4-3.2,1.7-5.2C739.4,652.3,739.5,651.7,739.5,651.1z"/>
		<path fill="#B48140" d="M647.8,629.7c-5.7-0.7-11.6-1.3-17.6-1.6c-0.1,0.9,0,1.7,0.1,2.6c7.4,0.5,15.8,1.6,25.1,3.2
			c15.1,2.6,28.7,4.8,40.2,6.9c-0.5-1.5-1.1-3-1.6-4.5C682.7,634.6,664.1,631.8,647.8,629.7z"/>
		<path fill="#B48140" d="M581.5,639.2c-9.4,10.6-15.8,36.6-24,50.3c0.3,1.9-0.1,4-0.9,6.5c-0.6,1.5-1.1,2.9-1.8,4.4
			c4.6-3.5,10.2-9.9,14.4-19.5c0.8-1.7,1.4-3.3,2.2-5.1c-0.1,0.1,0-8.3,2.1-13.2c2.3-4.9,6.3-6.9,6.3-6.9l0,0
			c3.5-7.6,6.9-14.1,10.9-18.2c0.6-0.5,1.2-1,1.8-1.5c-0.8-1-1.7-2.1-2.6-2.9C586.5,634.8,583.7,636.8,581.5,639.2z"/>
		<path fill="#B48140" d="M777.6,584.3c-8.3,4-15.6,8.8-21.1,14.5c1.7,0.3,3.3,0.6,4.8,1.2C765.8,595.7,771,590.3,777.6,584.3z"/>
		<path fill="#B48140" d="M1055.8,608.3c3,0.3,5.1,0.6,5.1,0.6s-2-0.4-5.1-0.9V608.3z"/>
		<path fill="#B48140" d="M1055.8,608.3c3.6,0.4,5.6,0.7,5.1,0.6C1061,608.9,1058.9,608.7,1055.8,608.3L1055.8,608.3z"/>
		<path fill="#B48140" d="M1055.8,608.3l0.1,0.7c13.9,13,13.6-12.6,15.9-17.3c0.9-1.6,2.1-3.7,3.8-5.8c-12.8,14-14.8,22.9-14.8,22.9
			C1061.5,609.1,1059.5,608.8,1055.8,608.3z"/>
		<path fill="#492916" d="M1232.6,583.7l1.9-1.9c-6.6-3.2-13.7-5.9-23.1-7.4l-1.5,1.5C1217.6,578,1225.4,580.4,1232.6,583.7z"/>
		<path fill="#492916" d="M1257.3,699.3c4.7-12.4,7.5-24,9.1-34.4c-4.9,14.9-13.6,37.5-19.3,50.4
			C1254.3,715.4,1255.3,704.6,1257.3,699.3z"/>
		<path fill="#492916" d="M1209.9,576l1.5-1.5c-0.2,0-0.3-0.1-0.5-0.1C1210.6,574.8,1210.2,575.5,1209.9,576L1209.9,576z"/>
		<path fill="#492916" d="M1233.8,584.2c1-0.5,2-1,3-1.3c-0.7-0.4-1.4-0.7-2.1-1l-1.9,1.9C1233,583.8,1233.4,584,1233.8,584.2z"/>
		<path fill="#492916" d="M1180.7,738.8c0.2,0.3,0.3,0.4,0.5,0.5c0.8,0,2.6-0.1,5-0.2c0-0.2,0-0.4-0.1-0.6
			C1184.3,738.6,1182.5,738.8,1180.7,738.8z"/>
		<path fill="#492916" d="M1265.7,621c-0.2-0.7-0.4-1.4-0.7-2.2c-0.2,0.7-0.5,1.4-0.6,2c-0.4,1.9-1,3.9-1.9,5.8l0,0
			c0.7,2.4,1.2,4.8,1.6,7.3c3.5,21.8-5.7,54.6-10,65.1c-2.7,6.8-12.8,17.3-26,25.5c0.1,1.4,0.3,2.8,0.6,4.2
			c7.7-3.7,15-8.8,20.6-15.6c4.9-13.2,12.4-30.4,17.1-48.1C1269.6,643.4,1267.3,627.2,1265.7,621z"/>
		<path fill="#492916" d="M1221.6,581.7c3,1.4,5.9,2.8,8.6,4.5l0,0l2.5-2.6c-7.4-3.3-15.2-5.8-22.7-7.7l-1.3,1.4
			C1213.3,578.6,1217.6,580.1,1221.6,581.7z"/>
		<path fill="#492916" d="M1209.9,576L1209.9,576c-0.5,0.5-0.9,0.9-1.3,1.4l0,0L1209.9,576z"/>
		<path fill="#492916" d="M1230.2,586.2L1230.2,586.2c1.2-0.7,2.4-1.5,3.5-2.1c-0.3-0.2-0.7-0.3-1-0.5L1230.2,586.2L1230.2,586.2z"
			/>
		<path fill="#492916" d="M1265,618.9c-0.1-0.3-0.1-0.5-0.2-0.8c-0.1,0.9-0.3,1.8-0.4,2.8C1264.5,620.2,1264.7,619.6,1265,618.9z"/>
		<path fill="#492916" d="M1262.4,626.7L1262.4,626.7L1262.4,626.7z"/>
		<path fill="#B48140" d="M1210.9,574.3c-4.1-0.6-8.6-1.1-13.8-1.1c4.1,0.8,8.4,1.7,12.8,2.8
			C1210.2,575.5,1210.6,574.9,1210.9,574.3z"/>
		<path fill="#B48140" d="M1172.4,574.5L1172.4,574.5c12.9-0.7,25.4,0.2,36.3,2.9c0.4-0.5,0.8-0.9,1.2-1.4c-4.3-1.1-8.7-2-12.8-2.8
			C1190,573.1,1181.9,573.4,1172.4,574.5z"/>
		<path fill="#B48140" d="M1253.7,596.6c-3.6-4.7-8-9-13.5-11.8c-1.2-0.7-2.4-1.2-3.7-1.9c-1,0.3-2,0.8-3,1.3
			C1241,587.5,1247.9,591.5,1253.7,596.6z"/>
		<path fill="#B48140" d="M1264.4,620.9c-0.7,2.2-1.4,4.2-1.9,5.8C1263.3,624.8,1263.9,622.8,1264.4,620.9z"/>
		<path fill="#B48140" d="M1233.8,584.2c-1.2,0.6-2.4,1.3-3.5,2.1c17,10,27.8,24.3,32.3,40.4l0,0c0.6-1.6,1.2-3.6,1.9-5.8
			c0.2-1,0.3-1.9,0.4-2.8c-2-5.9-5.5-14.3-11-21.5C1247.9,591.5,1241,587.5,1233.8,584.2z"/>
		<path fill="#B48140" d="M1204.7,735.1c-5.6,1.6-11.8,2.7-18.6,3.4c0,0.2,0,0.4,0.1,0.6c3.8-0.2,9.3-0.8,15.6-1.9
			c5.2-1.5,10.3-3.9,15.1-6.6C1213,732.3,1208.9,733.8,1204.7,735.1z"/>
		<path fill="#B48140" d="M1201.8,737.1c8.3-1.5,17.9-4.1,26.9-8.5c-0.3-1.4-0.6-2.8-0.6-4.2c-3.5,2.2-7.2,4.2-11,6
			C1212.1,733.3,1207,735.6,1201.8,737.1z"/>
		<path fill="#492916" d="M965.7,746.4c16.3-14.6,22-32.2,23.9-50c-5.8,18.5-14.7,36.8-25.8,51.6C964.3,747.6,965,747.1,965.7,746.4
			z"/>
		<path fill="#492916" d="M910.8,585.9c14.7,2.5,29.2,6.3,41.8,11.2C942.4,591.5,928.3,587.4,910.8,585.9z"/>
		<path fill="#492916" d="M859.5,772L859.5,772L859.5,772L859.5,772z"/>
		<path fill="#492916" d="M893.8,586.9L893.8,586.9L893.8,586.9c31.1,2.2,59.4,12.7,67.7,22.2c3,3.4,6.4,7.8,9.6,12.7
			c1.5-0.1,2.9-0.3,4.4-0.6c-2.3-4.2-4.7-8.2-7.3-11.5c-3.6-4.6-8.8-9-15.6-12.7c-12.6-5-27-8.7-41.8-11.2
			c-5.9-0.5-12.2-0.7-18.9-0.6C892.6,585.8,893.3,586.2,893.8,586.9z"/>
		<path fill="#492916" d="M989.4,665.7c-0.7,0.2-1.4,0.3-2.2,0.4c-0.3,0-0.5,0.1-0.7,0.1c1.3,15.7,0.7,29.9-6.2,45.7
			c-0.8,1.9-1.8,4-2.7,6l0,0l0,0c0.2,3-0.6,6.1-2.4,8.8c-1.3,2-3.2,4-5.6,4.8l0,0l0,0c-8.5,12-20.2,23.1-36.8,29.2
			c-2.7,1-5.4,1.9-8.2,2.9c-0.5,0.9-1.2,1.8-1.8,2.6c16.3-3.7,30.8-9.5,41-17.9c11.1-14.9,20-33.2,25.8-51.6
			c0.6-6.3,0.8-12.6,0.7-18.8C990.1,673.8,989.9,669.8,989.4,665.7z"/>
		<path fill="#492916" d="M986.5,666.2c0.2,0,0.5-0.1,0.7-0.1C987,666.1,986.7,666.1,986.5,666.2L986.5,666.2z"/>
		<path fill="#492916" d="M969.5,731.4L969.5,731.4L969.5,731.4C969.6,731.4,969.5,731.4,969.5,731.4L969.5,731.4z"/>
		<path fill="#492916" d="M977.5,717.9L977.5,717.9C977.5,717.8,977.5,717.8,977.5,717.9C977.5,717.8,977.5,717.8,977.5,717.9
			C977.5,717.8,977.5,717.9,977.5,717.9z"/>
		<path fill="#492916" d="M893.8,586.9L893.8,586.9L893.8,586.9z"/>
		<path fill="#B48140" d="M971.2,621.8l5.1,2.5l12.1,34.9c-2.4-13.5-6.9-27-12.8-38C974.1,621.6,972.7,621.7,971.2,621.8
			L971.2,621.8L971.2,621.8z"/>
		<path fill="#B48140" d="M989.4,665.7c-0.3-2.2-0.6-4.4-1-6.5l-1.2,6.9C987.9,666,988.7,665.9,989.4,665.7z"/>
		<path fill="#B48140" d="M971.2,621.8L971.2,621.8c6.7,10,12.8,22.7,14.4,35.5c0.4,3,0.7,5.9,0.9,8.8c0.3,0,0.5,0,0.7-0.1l1.2-6.9
			l0,0l-12.1-34.9L971.2,621.8z"/>
		<path fill="#B48140" d="M969.6,731.4c2.4-0.7,4.2-2.7,5.6-4.8c1.7-2.6,2.5-5.8,2.4-8.8l-0.3,3C977.2,720.9,972,730.5,969.6,731.4z
			"/>
		<path fill="#B48140" d="M969.5,731.4C969.5,731.4,969.6,731.4,969.5,731.4c2.6-1,7.7-10.5,7.7-10.5l0.3-3l0,0
			C975.2,722.4,972.5,726.9,969.5,731.4z"/>
		<path fill="#B48140" d="M923.7,763.7c-7,2.4-14.5,4.5-22.2,6.1c5.1-0.6,10.1-1.5,14.9-2.4C918.8,766.2,921.1,765.1,923.7,763.7z"
			/>
		<path fill="#B48140" d="M922.7,766c0.7-0.8,1.3-1.6,1.8-2.6c-0.2,0.1-0.5,0.1-0.7,0.2c-2.6,1.4-5,2.5-7.3,3.7
			C918.5,766.9,920.6,766.5,922.7,766z"/>
		<path fill="#B48140" d="M893.8,586.9c-0.5-0.6-1.2-1.1-1.9-1.5c-0.5,0-1.1,0-1.7,0C891.8,585.7,893,586.2,893.8,586.9z"/>
		<path fill="#B48140" d="M876.3,586.2l0.5,0.3c2.6-0.1,5.2,0,7.8,0c3.1,0,6.2,0.1,9.3,0.3l0,0c-0.7-0.7-2-1.1-3.5-1.5
			C885.8,585.5,881.1,585.8,876.3,586.2z"/>
		<path fill="#B48140" d="M876.2,586.5c0.2,0,0.3,0,0.5,0l-0.5-0.3V586.5z"/>
		<path display="none" opacity="0.4" fill="#A9DFFF" enable-background="new    " d="M948.4,615.3c0,0-23.7-18.3-60.6-11.7
			L792.1,730c9.7,20.1,45.1,35.2,45.1,35.2L948.4,615.3z"/>
		<path display="none" opacity="0.3" fill="#FFFFFF" enable-background="new    " d="M948.4,615.3c0,0-23.7-18.3-60.6-11.7
			L792.1,730c9.7,20.1,45.1,35.2,45.1,35.2L948.4,615.3z"/>
		<path display="none" opacity="0.4" fill="#A9DFFF" enable-background="new    " d="M892.5,771.3C911,739,966,637.8,966,637.8
			c-0.1-5.2-6.7-15.1-6.7-15.1l-82.5,150c4.9-0.1,9.7-0.6,14.4-1.2C891.6,771.5,892.1,771.4,892.5,771.3z"/>
		<path opacity="0.3" fill="#FFFFFF" enable-background="new    " d="M892.5,771.3C911,739,966,637.8,966,637.8
			c-0.1-5.2-6.7-15.1-6.7-15.1l-82.5,150c4.9-0.1,9.7-0.6,14.4-1.2C891.6,771.5,892.1,771.4,892.5,771.3z"/>
		<path fill="#64320F" d="M876.8,772.8l-7.2,8.3c0,0,17.6,3.8,18.7,5c0.2,0.2,0.4-8.2,3.8-14c-0.3-0.2-0.6-0.4-0.9-0.6
			C886.5,772.2,881.7,772.6,876.8,772.8z"/>
		<path fill="#FEB04B" d="M891.2,771.6c0.3,0.2,0.6,0.4,0.9,0.6c0.2-0.2,0.3-0.5,0.5-0.8C892.1,771.4,891.6,771.5,891.2,771.6z"/>
		<path opacity="0.3" fill="#FFFFFF" enable-background="new    " d="M891.2,771.6c0.3,0.2,0.6,0.4,0.9,0.6c0.2-0.2,0.3-0.5,0.5-0.8
			C892.1,771.4,891.6,771.5,891.2,771.6z"/>
		<path fill="#492916" d="M571.2,675.9c4.6-8.7,8.4-19.7,8.5-20C576.8,661.9,574.1,668.8,571.2,675.9L571.2,675.9z"/>
		<path fill="#492916" d="M573.3,662.7c-2.2,4.9-2.2,13.3-2.1,13.2c3-7.1,5.7-14,8.5-20l0,0C579.7,655.9,575.5,657.9,573.3,662.7z"
			/>
		<path fill="#D8D8D8" d="M740,633.7c5.5-0.1,9.9-2.9,9.8-6.2c-0.1-3.3-4.6-5.2-10.1-5s-9.9,2.3-9.9,5.6
			C729.9,631.4,734.4,633.9,740,633.7z M742.7,623.7c1.9-0.1,3.4,1,3.5,2.2c0,1.3-1.4,2.3-3.3,2.4c-1.9,0.1-3.4-1-3.5-2.2
			C739.4,624.9,740.9,623.8,742.7,623.7z"/>

			<ellipse transform="matrix(0.9996 -2.710087e-02 2.710087e-02 0.9996 -16.6945 20.3571)" fill="#F4F4F4" cx="742.7" cy="626.1" rx="3.4" ry="2.3"/>
		<path fill="#D8D8D8" d="M1273,594.1c1.6,1.7,5.1,2,8.5,0.7c4.2-1.5,6.8-4.9,5.8-7.5s-5.1-3.4-9.3-1.8c-3.6,1.3-6,4-6,6.3l1.4,0.7
			C1273.5,592.4,1273.3,593,1273,594.1z M1279.7,588.1c0.2-1.1,1.8-1.7,3.6-1.5c1.8,0.3,3,1.4,2.9,2.5s-1.8,1.7-3.6,1.5
			C1280.7,590.2,1279.5,589.2,1279.7,588.1z"/>
		<path fill="#D8D8D8" d="M1273,594.1c0.4-1,0.6-1.6,0.6-1.6l-1.4-0.7c0,0.4,0,0.8,0.2,1.2C1272.4,593.4,1272.6,593.8,1273,594.1z"
			/>
		<path fill="#F4F4F4" d="M1282.6,590.6c1.8,0.3,3.4-0.4,3.6-1.5s-1.1-2.3-2.9-2.5s-3.4,0.4-3.6,1.5
			C1279.5,589.2,1280.7,590.2,1282.6,590.6z"/>
		<path fill="#FEB04B" d="M1063.4,656.1c1,0.2,1.6-1.4,1.9-2.1c0.2-0.3,0.4-0.5,0.5-0.7c-0.1-0.8-0.3-1.6-0.5-2.4
			C1063.9,652.5,1062.1,655.8,1063.4,656.1z"/>
		<path opacity="0.35" fill="#D8D8D8" enable-background="new    " d="M1063.4,656.1c1,0.2,1.6-1.4,1.9-2.1c0.2-0.3,0.4-0.5,0.5-0.7
			c-0.1-0.8-0.3-1.6-0.5-2.4C1063.9,652.5,1062.1,655.8,1063.4,656.1z"/>
		<path fill="#FEB04B" d="M1067.5,650.6c0.1-0.5-0.3-0.8-0.7-0.7c-0.3,0-0.8,0.4-1.3,0.9c0.1,0.8,0.3,1.6,0.5,2.4
			c0.3-0.3,0.5-0.7,0.8-1C1067,651.7,1067.5,651.2,1067.5,650.6z"/>
		<path opacity="0.35" fill="#D8D8D8" enable-background="new    " d="M1067.5,650.6c0.1-0.5-0.3-0.8-0.7-0.7
			c-0.3,0-0.8,0.4-1.3,0.9c0.1,0.8,0.3,1.6,0.5,2.4c0.3-0.3,0.5-0.7,0.8-1C1067,651.7,1067.5,651.2,1067.5,650.6z"/>
		<path fill="#64320F" d="M623,615.5c6.6,0.5,13.3,0.2,19.9,0.5c6.6,0.2,13.3,0.3,19.9,0.3c13.3-0.2,26.5,0.2,39.8,0.5
			c0.4,0,0.4-0.6,0-0.7c-13.2-0.9-26.5-1.4-39.9-2c-6.3-0.3-12.6-0.3-18.9,0c-6.9,0.2-14,0.1-20.9,0.9
			C622.6,614.9,622.6,615.4,623,615.5z"/>
		<path opacity="0.75" fill="#FFFFFF" enable-background="new    " d="M623,615.5c6.6,0.5,13.3,0.2,19.9,0.5
			c6.6,0.2,13.3,0.3,19.9,0.3c13.3-0.2,26.5,0.2,39.8,0.5c0.4,0,0.4-0.6,0-0.7c-13.2-0.9-26.5-1.4-39.9-2c-6.3-0.3-12.6-0.3-18.9,0
			c-6.9,0.2-14,0.1-20.9,0.9C622.6,614.9,622.6,615.4,623,615.5z"/>
		<path fill="#64320F" d="M748.2,609.3c-0.3,0.9-0.7,1.8-1,2.7C748.4,612,748.9,610.3,748.2,609.3z"/>
		<path opacity="0.75" fill="#FFFFFF" enable-background="new    " d="M748.2,609.3c-0.3,0.9-0.7,1.8-1,2.7
			C748.4,612,748.9,610.3,748.2,609.3z"/>
		<path fill="#FEB04B" d="M739.8,608.7c-1.6,0.2-3.5,0.3-4.1,2c0,0.1,0,0.2,0.1,0.3c1.1,1.3,3,0.6,4.5,0.6c2.2-0.1,4.4,0.3,6.6,0.4
			c0.1,0,0.1,0,0.2,0c0.4-0.9,0.8-1.8,1-2.7c-0.2-0.3-0.5-0.5-0.9-0.6C744.8,608.2,742.3,608.4,739.8,608.7z"/>
		<path opacity="0.75" fill="#FFFFFF" enable-background="new    " d="M739.8,608.7c-1.6,0.2-3.5,0.3-4.1,2c0,0.1,0,0.2,0.1,0.3
			c1.1,1.3,3,0.6,4.5,0.6c2.2-0.1,4.4,0.3,6.6,0.4c0.1,0,0.1,0,0.2,0c0.4-0.9,0.8-1.8,1-2.7c-0.2-0.3-0.5-0.5-0.9-0.6
			C744.8,608.2,742.3,608.4,739.8,608.7z"/>
		<path fill="#64320F" d="M785.1,584.8c0.3,0.3,0.5,0.5,0.8,0.7c0.3,0.3,0.7,0.5,1,0.8c6.6-3.2,13.5-5.8,20.6-8c1-1,1.8-2,2.8-3
			c-2.5,0.7-4.9,1.4-7.3,2.1C796.9,579.4,790.8,581.7,785.1,584.8z"/>
		<path opacity="0.75" fill="#FFFFFF" enable-background="new    " d="M785.1,584.8c0.3,0.3,0.5,0.5,0.8,0.7c0.3,0.3,0.7,0.5,1,0.8
			c6.6-3.2,13.5-5.8,20.6-8c1-1,1.8-2,2.8-3c-2.5,0.7-4.9,1.4-7.3,2.1C796.9,579.4,790.8,581.7,785.1,584.8z"/>
		<path fill="#FEB04B" d="M839,571.1c0.3,0,0.2-0.5-0.1-0.5c-9.7,0.2-19.1,2.1-28.5,4.7c-1,0.9-1.9,2-2.8,3
			C817.9,575.1,828.5,572.8,839,571.1z"/>
		<path opacity="0.75" fill="#FFFFFF" enable-background="new    " d="M839,571.1c0.3,0,0.2-0.5-0.1-0.5c-9.7,0.2-19.1,2.1-28.5,4.7
			c-1,0.9-1.9,2-2.8,3C817.9,575.1,828.5,572.8,839,571.1z"/>
		<path fill="#FEB04B" d="M785.1,584.8c-4,2.1-8,4.6-11.6,7.4c-0.7,0.5-0.1,1.7,0.7,1.2c4.1-2.7,8.4-5,12.8-7.1
			c-0.3-0.2-0.7-0.5-1-0.8C785.6,585.3,785.4,585,785.1,584.8z"/>
		<path opacity="0.75" fill="#FFFFFF" enable-background="new    " d="M785.1,584.8c-4,2.1-8,4.6-11.6,7.4c-0.7,0.5-0.1,1.7,0.7,1.2
			c4.1-2.7,8.4-5,12.8-7.1c-0.3-0.2-0.7-0.5-1-0.8C785.6,585.3,785.4,585,785.1,584.8z"/>
		<path fill="#64320F" d="M976.6,595.6c10.9,4.6,20.4,11.8,30.3,18.1c0.4,0.3,0.9-0.3,0.5-0.7c-3.1-2.8-6.4-5.6-9.6-8.1
			c-3.1,0.2-6.4-1-8.8-2.9c-2.1-1.6-3.7-4-5.2-6.5c-1.8-1.1-3.7-2.1-5.6-3c-7.6-3.8-15.8-6.8-24-9.5c-0.3,1.2-0.5,2.4-1,3.6
			C961.1,589.4,968.9,592.4,976.6,595.6z"/>
		<path opacity="0.75" fill="#FFFFFF" enable-background="new    " d="M976.6,595.6c10.9,4.6,20.4,11.8,30.3,18.1
			c0.4,0.3,0.9-0.3,0.5-0.7c-3.1-2.8-6.4-5.6-9.6-8.1c-3.1,0.2-6.4-1-8.8-2.9c-2.1-1.6-3.7-4-5.2-6.5c-1.8-1.1-3.7-2.1-5.6-3
			c-7.6-3.8-15.8-6.8-24-9.5c-0.3,1.2-0.5,2.4-1,3.6C961.1,589.4,968.9,592.4,976.6,595.6z"/>
		<path fill="#64320F" d="M915.8,572.7c-3-0.6-6.1-1.1-9.2-1.5c-11.6-1.7-24.4-3.2-36-1.1c-0.5,0.1-0.3,0.8,0.1,0.9
			c12.6,0.4,24.8,0.1,37.3,2.4c3.4,0.6,6.8,1.4,10.3,2.2c-0.5-0.6-0.9-1.1-1.4-1.7C916.5,573.5,916.1,573.1,915.8,572.7z"/>
		<path opacity="0.75" fill="#FFFFFF" enable-background="new    " d="M915.8,572.7c-3-0.6-6.1-1.1-9.2-1.5
			c-11.6-1.7-24.4-3.2-36-1.1c-0.5,0.1-0.3,0.8,0.1,0.9c12.6,0.4,24.8,0.1,37.3,2.4c3.4,0.6,6.8,1.4,10.3,2.2
			c-0.5-0.6-0.9-1.1-1.4-1.7C916.5,573.5,916.1,573.1,915.8,572.7z"/>
		<path fill="#FEB04B" d="M989,602c2.4,1.8,5.7,3,8.8,2.9c-4.4-3.5-9-6.6-13.9-9.4C985.2,598,986.9,600.3,989,602z"/>
		<path opacity="0.75" fill="#FFFFFF" enable-background="new    " d="M989,602c2.4,1.8,5.7,3,8.8,2.9c-4.4-3.5-9-6.6-13.9-9.4
			C985.2,598,986.9,600.3,989,602z"/>
		<path fill="#FEB04B" d="M953.3,586.6c0.5-1.1,0.7-2.4,1-3.6c-3.5-1.2-7.2-2.3-10.7-3.3c-9.2-2.8-18.4-5.1-27.8-6.8
			c0.3,0.4,0.6,0.8,0.9,1.1c0.5,0.6,0.9,1.1,1.4,1.7c8.4,2,16.5,4.6,24.6,7.3C946.4,584.1,949.9,585.3,953.3,586.6z"/>
		<path opacity="0.75" fill="#FFFFFF" enable-background="new    " d="M953.3,586.6c0.5-1.1,0.7-2.4,1-3.6
			c-3.5-1.2-7.2-2.3-10.7-3.3c-9.2-2.8-18.4-5.1-27.8-6.8c0.3,0.4,0.6,0.8,0.9,1.1c0.5,0.6,0.9,1.1,1.4,1.7c8.4,2,16.5,4.6,24.6,7.3
			C946.4,584.1,949.9,585.3,953.3,586.6z"/>
		<path fill="#64320F" d="M1007.8,648.5c-0.5,1.8,0.4,3.9,1.5,5.4c0.7,1,1.7,1.8,2.3,2.7c0.6,1,0.9,2.2,1.6,3.1
			c0.2,0.3,0.5,0.4,0.9,0.2c2-1.1,1.4-3.5,0.4-5c-1.6-2.5-4.4-3.7-5.6-6.5C1008.8,647.9,1008,647.9,1007.8,648.5z"/>
		<path opacity="0.75" fill="#FFFFFF" enable-background="new    " d="M1007.8,648.5c-0.5,1.8,0.4,3.9,1.5,5.4
			c0.7,1,1.7,1.8,2.3,2.7c0.6,1,0.9,2.2,1.6,3.1c0.2,0.3,0.5,0.4,0.9,0.2c2-1.1,1.4-3.5,0.4-5c-1.6-2.5-4.4-3.7-5.6-6.5
			C1008.8,647.9,1008,647.9,1007.8,648.5z"/>
		<path fill="#FEB04B" d="M1019.7,610.2c-0.8-0.2-1.6,0.3-2.4,0.5c-0.8,0.1-1.5,0.2-2.2,0.7c-0.4,0.2-0.2,0.8,0.2,0.8
			c0.9,0,1.6-0.3,2.4-0.7c0.7-0.2,1.5-0.2,2.1-0.8C1020,610.5,1019.9,610.3,1019.7,610.2z"/>
		<path opacity="0.75" fill="#FFFFFF" enable-background="new    " d="M1019.7,610.2c-0.8-0.2-1.6,0.3-2.4,0.5
			c-0.8,0.1-1.5,0.2-2.2,0.7c-0.4,0.2-0.2,0.8,0.2,0.8c0.9,0,1.6-0.3,2.4-0.7c0.7-0.2,1.5-0.2,2.1-0.8
			C1020,610.5,1019.9,610.3,1019.7,610.2z"/>
		<path fill="#64320F" d="M1049.7,608.9c-2.1,0.1-11.3,0.3-16.7,1c-0.3,0.6-0.6,1.1-0.9,1.7c5-0.2,15-1.1,17.1-1
			c1.8,0.1,3.7,0.2,5.6,0.3c0.2-0.4,0.3-0.7,0.5-1.1C1053.4,609.3,1051.7,608.9,1049.7,608.9z"/>
		<path opacity="0.75" fill="#FFFFFF" enable-background="new    " d="M1049.7,608.9c-2.1,0.1-11.3,0.3-16.7,1
			c-0.3,0.6-0.6,1.1-0.9,1.7c5-0.2,15-1.1,17.1-1c1.8,0.1,3.7,0.2,5.6,0.3c0.2-0.4,0.3-0.7,0.5-1.1
			C1053.4,609.3,1051.7,608.9,1049.7,608.9z"/>
		<path fill="#FEB04B" d="M1058.2,611.2c-1.1-0.5-2.1-0.9-3.1-1.3c-0.1,0.4-0.3,0.8-0.5,1.1c1.2,0.2,2.3,0.3,3.4,0.6
			C1058.3,611.7,1058.5,611.3,1058.2,611.2z"/>
		<path opacity="0.75" fill="#FFFFFF" enable-background="new    " d="M1058.2,611.2c-1.1-0.5-2.1-0.9-3.1-1.3
			c-0.1,0.4-0.3,0.8-0.5,1.1c1.2,0.2,2.3,0.3,3.4,0.6C1058.3,611.7,1058.5,611.3,1058.2,611.2z"/>
		<path fill="#FEB04B" d="M1029.2,610.6c-0.6,0.3-0.2,1,0.3,1c0.5,0.1,1.4,0.1,2.6-0.1c0.3-0.6,0.6-1.2,0.9-1.7
			C1031.2,610.1,1029.8,610.4,1029.2,610.6z"/>
		<path opacity="0.75" fill="#FFFFFF" enable-background="new    " d="M1029.2,610.6c-0.6,0.3-0.2,1,0.3,1c0.5,0.1,1.4,0.1,2.6-0.1
			c0.3-0.6,0.6-1.2,0.9-1.7C1031.2,610.1,1029.8,610.4,1029.2,610.6z"/>
		<path fill="#64320F" d="M1184,554.1c-0.6-0.9-1.1-1.8-1.7-2.7c-15.8-0.6-28.9,2.1-46,6.5c-0.4,0.1-0.4,0.8,0.1,0.8
			c18-1.4,31.3-3.8,47.7-3C1184.4,555,1184.3,554.5,1184,554.1z"/>
		<path opacity="0.75" fill="#FFFFFF" enable-background="new    " d="M1184,554.1c-0.6-0.9-1.1-1.8-1.7-2.7
			c-15.8-0.6-28.9,2.1-46,6.5c-0.4,0.1-0.4,0.8,0.1,0.8c18-1.4,31.3-3.8,47.7-3C1184.4,555,1184.3,554.5,1184,554.1z"/>
		<path fill="#64320F" d="M1209.7,558.9c16.1,3,32.3,7.4,47,13.9c0.9,0.4,1.7-0.9,0.8-1.4c-15.5-6.9-31.1-12.8-47.4-16.4
			C1209.3,556.6,1209.3,557.8,1209.7,558.9z"/>
		<path opacity="0.75" fill="#FFFFFF" enable-background="new    " d="M1209.7,558.9c16.1,3,32.3,7.4,47,13.9
			c0.9,0.4,1.7-0.9,0.8-1.4c-15.5-6.9-31.1-12.8-47.4-16.4C1209.3,556.6,1209.3,557.8,1209.7,558.9z"/>
		<path fill="#FEB04B" d="M1209.7,558.9c-0.3-1.1-0.4-2.4,0.4-3.9c-4.9-1.1-9.9-2-15-2.6c-4.5-0.6-8.6-0.9-12.6-1.1
			c0.5,0.9,1,1.8,1.7,2.7c0.3,0.5,0.3,1,0.1,1.6c3.5,0.2,7,0.5,10.8,1C1199.8,557.2,1204.7,558,1209.7,558.9z"/>
		<path opacity="0.75" fill="#FFFFFF" enable-background="new    " d="M1209.7,558.9c-0.3-1.1-0.4-2.4,0.4-3.9
			c-4.9-1.1-9.9-2-15-2.6c-4.5-0.6-8.6-0.9-12.6-1.1c0.5,0.9,1,1.8,1.7,2.7c0.3,0.5,0.3,1,0.1,1.6c3.5,0.2,7,0.5,10.8,1
			C1199.8,557.2,1204.7,558,1209.7,558.9z"/>
		<path fill="#64320F" d="M1277.7,577.2c3.1,0.1,8.5-1.4,11.4-0.2c1.5,0.6,2.4,1.9,3.3,3.2s0.4,3.3,1.2,4.6c0.2,0.3,0.7,0.1,0.6-0.2
			c-0.8-4,2.7-9-2.1-10.8c-1.6-0.6-3.2-0.5-4.9-0.2c-2.5,0.5-7.4,1.3-9.6,2.5C1277.1,576.2,1277,577.2,1277.7,577.2z"/>
		<path opacity="0.75" fill="#FFFFFF" enable-background="new    " d="M1277.7,577.2c3.1,0.1,8.5-1.4,11.4-0.2
			c1.5,0.6,2.4,1.9,3.3,3.2s0.4,3.3,1.2,4.6c0.2,0.3,0.5,0.1,0.6-0.2c0.9-4.7,2.7-9-2.1-10.8c-1.6-0.6-3.2-0.5-4.9-0.2
			c-2.5,0.5-7.4,1.3-9.6,2.5C1277.1,576.2,1277,577.2,1277.7,577.2z"/>
		<path fill="#64320F" d="M1101.1,703.2c-0.2-0.4-0.8,0-0.6,0.3c2.4,4.1,5.1,8.2,8.1,12c0.9,0,1.7-0.1,2.6-0.3
			C1107.6,711.5,1104.2,707.5,1101.1,703.2z"/>
		<path opacity="0.75" fill="#FFFFFF" enable-background="new    " d="M1101.1,703.2c-0.2-0.4-0.8,0-0.6,0.3c2.4,4.1,5.1,8.2,8.1,12
			c0.9,0,1.7-0.1,2.6-0.3C1107.6,711.5,1104.2,707.5,1101.1,703.2z"/>
		<path fill="#64320F" d="M1135.7,733c-2.5-1.4-5.1-2.9-7.5-4.5c-0.3,1.1-0.2,2.3,0,3.6c1.7,1,3.5,1.8,5.4,2.6
			c16.4,6.8,35.6,10.2,53.2,8.2c0-0.3,0-0.5-0.1-0.7c-9.7,0.3-19.9-0.4-29.6-1.8C1149.8,739.2,1142.2,736.7,1135.7,733z"/>
		<path opacity="0.75" fill="#FFFFFF" enable-background="new    " d="M1135.7,733c-2.5-1.4-5.1-2.9-7.5-4.5c-0.3,1.1-0.2,2.3,0,3.6
			c1.7,1,3.5,1.8,5.4,2.6c16.4,6.8,35.6,10.2,53.2,8.2c0-0.3,0-0.5-0.1-0.7c-9.7,0.3-19.9-0.4-29.6-1.8
			C1149.8,739.2,1142.2,736.7,1135.7,733z"/>
		<path fill="#FEB04B" d="M1188.3,742.6c0.4,0,0.4-0.6,0-0.6c-0.5,0-1.1,0-1.6,0c0,0.2,0.1,0.5,0.1,0.7
			C1187.2,742.7,1187.7,742.7,1188.3,742.6z"/>
		<path opacity="0.75" fill="#FFFFFF" enable-background="new    " d="M1188.3,742.6c0.4,0,0.4-0.6,0-0.6c-0.5,0-1.1,0-1.6,0
			c0,0.2,0.1,0.5,0.1,0.7C1187.2,742.7,1187.7,742.7,1188.3,742.6z"/>
		<path fill="#FEB04B" d="M1128.1,732.1c-0.2-1.2-0.3-2.4,0-3.6c-6-3.9-11.7-8.3-16.9-13.3c-0.9,0.1-1.7,0.2-2.6,0.3
			C1114.2,722.2,1120.6,727.9,1128.1,732.1z"/>
		<path opacity="0.75" fill="#FFFFFF" enable-background="new    " d="M1128.1,732.1c-0.2-1.2-0.3-2.4,0-3.6
			c-6-3.9-11.7-8.3-16.9-13.3c-0.9,0.1-1.7,0.2-2.6,0.3C1114.2,722.2,1120.6,727.9,1128.1,732.1z"/>
		<path fill="#64320F" d="M844.8,774.6c4.6,1,9.4,1.4,14.2,1.4c0.5,0,0.5-0.7,0-0.8c-4.5-0.2-8.8-1.1-13.1-2.2
			c-0.2,0.4-0.5,0.7-0.7,1C845.2,774.3,845,774.4,844.8,774.6z"/>
		<path opacity="0.75" fill="#FFFFFF" enable-background="new    " d="M844.8,774.6c4.6,1,9.4,1.4,14.2,1.4c0.5,0,0.5-0.7,0-0.8
			c-4.5-0.2-8.8-1.1-13.1-2.2c-0.2,0.4-0.5,0.7-0.7,1C845.2,774.3,845,774.4,844.8,774.6z"/>
		<path fill="#64320F" d="M827.1,765.7c-4.7-2.1-9.3-4.1-13.6-6.7c-0.3,1.2-0.5,2.3-0.9,3.5c5,2.8,10.3,5,15.7,7.1
			C827.8,768.3,827.5,767,827.1,765.7z"/>
		<path opacity="0.75" fill="#FFFFFF" enable-background="new    " d="M827.1,765.7c-4.7-2.1-9.3-4.1-13.6-6.7
			c-0.3,1.2-0.5,2.3-0.9,3.5c5,2.8,10.3,5,15.7,7.1C827.8,768.3,827.5,767,827.1,765.7z"/>
		<path fill="#FEB04B" d="M827.1,765.7c0.3,1.3,0.7,2.6,1.2,3.9c1.4,0.6,2.8,1,4.2,1.6c4,1.5,8.1,2.7,12.3,3.6
			c0.2-0.2,0.3-0.4,0.5-0.6c0.2-0.3,0.5-0.7,0.7-1c-4.7-1.4-9.3-3.1-13.8-5.2C830.5,767.1,828.9,766.5,827.1,765.7z"/>
		<path opacity="0.75" fill="#FFFFFF" enable-background="new    " d="M827.1,765.7c0.3,1.3,0.7,2.6,1.2,3.9c1.4,0.6,2.8,1,4.2,1.6
			c4,1.5,8.1,2.7,12.3,3.6c0.2-0.2,0.3-0.4,0.5-0.6c0.2-0.3,0.5-0.7,0.7-1c-4.7-1.4-9.3-3.1-13.8-5.2
			C830.5,767.1,828.9,766.5,827.1,765.7z"/>
		<path fill="#FEB04B" d="M810.5,757.1c-6.9-4.7-12.8-11.1-18-17.5c-4.9-6.1-9.7-12.1-13.7-18.9c-0.2-0.3-0.7-0.1-0.6,0.3
			c1.9,8.2,7.8,15,12.8,21.5s10.3,12.7,17.1,17.3c1.4,1,3,1.9,4.5,2.8c0.4-1.2,0.6-2.3,0.9-3.5C812.5,758.3,811.5,757.7,810.5,757.1
			z M779.3,722.4L779.3,722.4c-0.7,0.2-0.6-0.9,0-0.6c0,0,0.1,0,0.1,0.1C779.6,722,779.5,722.3,779.3,722.4z"/>
		<path opacity="0.75" fill="#FFFFFF" enable-background="new    " d="M810.5,757.1c-6.9-4.7-12.8-11.1-18-17.5
			c-4.9-6.1-9.7-12.1-13.7-18.9c-0.2-0.3-0.7-0.1-0.6,0.3c1.9,8.2,7.8,15,12.8,21.5s10.3,12.7,17.1,17.3c1.4,1,3,1.9,4.5,2.8
			c0.4-1.2,0.6-2.3,0.9-3.5C812.5,758.3,811.5,757.7,810.5,757.1z M779.3,722.4L779.3,722.4c-0.7,0.2-0.6-0.9,0-0.6
			c0,0,0.1,0,0.1,0.1C779.6,722,779.5,722.3,779.3,722.4z"/>
		<path fill="#FEB04B" d="M779.2,721.8c-0.6-0.3-0.7,0.8-0.1,0.6h0.1C779.4,722.3,779.5,722,779.2,721.8L779.2,721.8z"/>
		<path opacity="0.35" fill="#D8D8D8" enable-background="new    " d="M779.2,721.8c-0.6-0.3-0.7,0.8-0.1,0.6h0.1
			C779.4,722.3,779.5,722,779.2,721.8L779.2,721.8z"/>
		<path opacity="0.75" fill="#FFFFFF" enable-background="new    " d="M779.2,721.8c-0.6-0.3-0.7,0.8-0.1,0.6h0.1
			C779.4,722.3,779.5,722,779.2,721.8L779.2,721.8z"/>
	</g>
</g>
</svg>
