<?xml version="1.0" encoding="utf-8"?>
<!-- Generator: Adobe Illustrator 21.0.2, SVG Export Plug-In . SVG Version: 6.00 Build 0)  -->
<svg version="1.1" id="_x31_1_x5F_Eyewear_x5F_SunglassesHeartShaped"
	 xmlns="http://www.w3.org/2000/svg" xmlns:xlink="http://www.w3.org/1999/xlink" x="0px" y="0px" viewBox="0 0 2000 2000"
	 enable-background="new 0 0 2000 2000" xml:space="preserve">

<g>
	<g>
		<g>
			<path fill="#932227" d="M1087.5,712.1c-29.8-22.5-71-6.7-109.4,16.9l21.9-45.4c0,0,6.7-6.7,17.5-12c9.1-4.5,21.1-7.9,34.3-5.3
				c2,0.4,4.1,1,6.2,1.7C1089.4,678.9,1117.3,734.6,1087.5,712.1z"/>
			<path fill="#CE2828" d="M1011.9,697c1.1,3.3,10.6-1.2,21.9-2.6c11.3-1.4,23.6-1.4,29.1-1.2c5.5,0.3,5.8-1.8,1.5-9.5
				c-2.5-4.4-8.3-11.9-12.7-17.3c-13.2-2.6-25.2,0.8-34.3,5.3C1011.3,688.6,1011,694.2,1011.9,697z"/>
		</g>
		<path fill="#EC5858" d="M1022,678c3.4,1.6,6.4,0.3,10-0.2c5-0.6,9.4,1,14.3,2c4.7,0.9,6.5-5.6,2-7.1c-7.2-2.5-21.6-2.9-26.7,3.8
			C1021.2,676.9,1021.4,677.8,1022,678L1022,678z"/>
	</g>
	<path fill="#932227" d="M797.5,543.4c-29.7,2.6-47.6,13.9-59,42.6c-11.5,28.7-9.9,65.1,10.5,100.4s45.1,68.9,76.3,91.8
		s43.5,32.9,57.9,36.1s34.7,0.7,34.7,0.7L797.5,543.4z"/>
	<path fill="#932227" d="M881.3,585.3c14.7-22.7,46.3-56.7,91.3-40.9s-74.7,63.4-74.7,63.4L881.3,585.3z"/>
	<path fill="#CE2828" d="M766.6,690.2c-26-44.9-35-96.4,0.6-131.7C802,524,857.4,552,895.9,588c0,0,11.1-23,47.1-38.5
		s63.3,6.4,72.2,20.8s19.8,45.1,1.6,91.5S982.3,745,958.4,779c-24.4,34.7-36.2,41.5-58.4,32.2c-25.1-10.5-59.8-31.7-94.4-70.1
		C789.1,722.8,774.7,704.1,766.6,690.2z"/>
	<path fill="#932227" d="M778.6,597.4c9.6-17,25-27.3,56.2-14.2c31.2,13,38.1,31.1,63.3,36.2s41-45.5,67.1-44.1s38.2,10.6,37.7,37.6
		s-11,57.3-23.6,80.3c-12.7,23.1-37.7,68.8-46.7,81.1s-9.6,16.7-13.1,17.8c-3.4,1.1-11.4-3.7-16.8-6.7
		C897.3,782.3,778.6,597.4,778.6,597.4z"/>
	<path fill="#8B1717" d="M792.4,601.9c-3.3,1-6.7,2.8-10,5.7c19,24,62.7,79.1,77.3,96.9c15.4,18.8,47.4,54.5,58.5,66.9
		c1.3-1.8,2.6-3.7,4.1-5.9c-14.3-16-58.9-66.4-77.2-90.7C827.9,652,808.8,626.6,792.4,601.9z"/>
	<path fill="#8B1717" d="M846.8,620.9c-10.5-4.5-20.5-9.5-28.2-13.3c19.7,24.7,45.8,57.2,59.1,72.9c18.2,21.5,45.9,53.5,56.8,65.9
		c2.1-3.3,4.1-6.8,6.2-10.2c-8.4-9.1-22.8-25.1-31.2-35.9C900.4,688.5,873.4,655.6,846.8,620.9z"/>
	<path fill="#8B1717" d="M779.7,610.4c-2.3,2.6-4.5,5.8-6.6,9.7c0,1.9,0.2,3.8,0.4,5.9c3.3,28.7,13.4,44.2,13.2,43.8
		c27.2,47.4,58.3,71.8,82,90.6c23.7,18.9,33.2,25.4,34,24.9c0.6-0.4,2,3.9,12.6-9.8c-12.2-14.1-47.3-54.6-57.4-65
		C846.4,698.9,805.5,644.5,779.7,610.4z"/>
	<path fill="#8B1717" d="M977.8,584.2c-12.4-8-28.8,0.8-38.7,12s-30.3,37.6-54.7,36c-7.4-0.5-16.6-3.1-26-6.7
		c15,18.7,32.8,41.1,43.1,53.9c14.3,17.9,33,40.1,42.4,51.2c16.7-28.4,32.6-58.7,38.1-75.4c5.3-16.1,10.4-34.4,9-49.7
		C989.2,598.1,985.7,589.4,977.8,584.2z"/>
	<path fill="#CB8282" d="M782.5,607.6c-0.9,0.8-1.9,1.8-2.8,2.8c25.9,34.2,66.8,88.6,78.1,100.2c10.1,10.4,45.2,50.9,57.4,65
		c0.9-1.2,2-2.6,3.1-4.1c-11.2-12.4-43.1-48.1-58.5-66.9C845.1,686.7,801.4,631.5,782.5,607.6z"/>
	<path fill="#CB8282" d="M818.6,607.6c-5.2-2.5-9.3-4.5-11.6-5.3c-4.1-1.5-9.2-2-14.6-0.4c16.4,24.7,35.5,50.1,52.8,72.9
		c18.3,24.2,62.9,74.6,77.2,90.7c1.5-2.2,3.1-4.6,4.8-7.3c2.4-3.8,4.9-7.7,7.3-11.8c-10.8-12.4-38.6-44.4-56.8-65.9
		C864.5,664.8,838.3,632.2,818.6,607.6z"/>
	<path fill="#CB8282" d="M858.4,625.6c-3.8-1.4-7.7-3-11.6-4.7c26.6,34.7,53.6,67.7,62.7,79.4c8.4,10.9,22.8,26.8,31.2,35.9
		c1.1-1.8,2.2-3.6,3.2-5.5c-9.5-11.2-28.1-33.3-42.4-51.2C891.2,666.6,873.3,644.3,858.4,625.6z"/>
	<path fill="#64161C" d="M792.4,601.9c-2.5-3.8-5-7.6-7.4-11.4c-3.2,2.4-6.1,5.7-8.2,10c1.5,1.9,3.4,4.3,5.6,7.1
		C785.7,604.7,789.1,602.9,792.4,601.9z"/>
	<path fill="#64161C" d="M846.8,620.9c-6.9-9.1-13.9-18.2-20.4-27.2c-6.2-3.4-12.3-6.3-17.4-7.7c-2.6-0.7-5.5-1-8.3-0.9
		c4.5,5.7,10.8,13.6,18,22.5C826.3,611.3,836.3,616.3,846.8,620.9z"/>
	<path fill="#64161C" d="M775.2,604.5c-1.5,4.4-2.3,9.6-2.1,15.6c2-3.9,4.3-7.1,6.6-9.7C778.1,608.3,776.6,606.3,775.2,604.5z"/>
	<path fill="#64161C" d="M884.4,632.2c24.4,1.6,44.8-24.8,54.7-36s26.3-20,38.7-12c7.9,5.1,11.5,13.9,13.2,21.4
		c-0.6-5.9-2.1-11.3-5-16c-10.3-16.7-30-19.3-46.9-7.6s-29.1,26.6-36.4,32.2s-28.7,4.7-40.4,0c-5.6-2.2-14.3-7.8-23.6-13.5
		c4.7,5.9,11.8,14.8,19.7,24.7C867.8,629.1,876.9,631.8,884.4,632.2z"/>
	<path fill="#906166" d="M782.5,607.6c-2.3-2.9-4.2-5.3-5.6-7.1c-0.6,1.3-1.2,2.6-1.6,4c1.4,1.9,2.9,3.9,4.5,5.9
		C780.6,609.3,781.5,608.4,782.5,607.6z"/>
	<path fill="#906166" d="M807,602.2c2.4,0.8,6.5,2.8,11.6,5.3c-7.1-8.9-13.4-16.8-18-22.5c-5.4,0.2-11,1.9-15.7,5.4
		c2.4,3.8,4.9,7.6,7.4,11.4C797.8,600.3,802.9,600.8,807,602.2z"/>
	<path fill="#906166" d="M858.4,625.6c-7.9-9.9-15-18.8-19.7-24.7c-4-2.5-8.2-4.9-12.2-7.2c6.6,9,13.5,18.1,20.4,27.2
		C850.7,622.5,854.5,624.1,858.4,625.6z"/>
	<path fill="#EC5858" d="M782.1,558.7c7-3.3,14.3-4.3,22-3.2c8.1,1.2,14.8,4.8,22.2,8c5.6,2.4,10.4-5.1,4.9-8.4
		c-14.8-9-39-14.6-50.3,2.5C780.4,558.3,781.4,559,782.1,558.7L782.1,558.7z"/>
	<path fill="#EC5858" d="M919.9,585.1c3.6-3.3,7.5-6.2,11.2-9.5c4.1-3.7,8.4-6.9,13.3-9.6c10-5.5,20.6-6.7,31.9-6.7
		c7.5,0,6.3-12-1.4-10.4c-6.2,1.3-12.5,1.8-18.5,4c-5.4,2-10.1,5-14.8,8.2c-4.4,3-8.7,6.4-12.7,9.9c-4.5,4-7.1,8.1-9.9,13.3
		C918.4,585,919.3,585.6,919.9,585.1L919.9,585.1z"/>
	<g>
		<path fill="#932227" d="M1175.4,565.5c16.2-25.5,40.1-48.2,83.4-40.5l-32.8,71L1175.4,565.5z"/>
		<path fill="#932227" d="M1209,784.5c-12,2.8-30.2,0.1-38.5-2.5s-49.1-30.8-70.3-52.9s-34.2-45.2-45.4-71s-22.2-78.3,19.8-109.3
			L1209,784.5z"/>
		<path fill="#CE2828" d="M1089.1,698.1c-25.7-43.5-32.1-71.4-30.8-106.5c1.3-35,15.6-46,35-53.2c19.2-7.2,35.1-12.5,94.9,24.2
			c1.2,0.8,2.8,0.5,3.7-0.7c4.8-6.4,20.8-25.9,42.7-33.5c26.4-9.1,45.9-0.3,62.7,28.5c16.8,28.8-5.3,95.1-19.9,124.8
			s-22.4,58.7-46.9,85.6c-24.5,26.9-28.5,19-54.5,2.6S1106.3,727.1,1089.1,698.1z"/>
		<g>
			<g>
				<path fill="#932227" d="M1200.6,757.2c10.2,4.2,14.1,4.9,21.3-10.7s32.1-64.2,44.5-99.9c12.5-35.7,16-68.7,1.7-82.3
					s-30.4-6.4-35.3-2.2s-23.5,45.8-23.5,45.8s-21.7-13.4-39.8-24c-18.1-10.6-37.9-24.6-57.1-22.1s-30.7,17.9-29.6,34.7
					C1083.9,613.2,1200.6,757.2,1200.6,757.2z"/>
				<g>
					<path fill="#8B1717" d="M1096.4,586.2c-4.6,1.6-8.9,4.2-13,7.9c7.6,10.2,21.6,29.2,34.3,46.6c18.6,25.5,42,55.2,62.8,79.8
						c11.8,14,19.8,23.3,24.5,28.7c1.5-2.7,3.3-6.1,5.4-9.9c-11.2-13.8-35.8-44.5-48.1-62.1C1148.1,656.8,1124.9,628.9,1096.4,586.2
						z"/>
					<path fill="#8B1717" d="M1259.6,567.6c-13-9.5-21.4-3.5-27.1,5.2c-6,9.1-11.1,22.6-38.5,29.8c-16.7,4.3-26.8,2.5-36.5-1.8
						c4.9,6,9.2,11.4,11.7,14.5c8.2,10.5,30.5,39.1,42.5,54c6.9,8.6,15.1,18.9,20.9,26.2c3.8-7.9,7.5-16.2,11.1-24.5
						c18.8-43.6,24.2-80.9,19.9-95.8C1262.7,572.3,1261.3,569.7,1259.6,567.6z"/>
					<path fill="#8B1717" d="M1175.8,635.2c-7.3-9.2-20.2-25.2-33.4-42.3c-1.4-0.7-2.8-1.5-4.3-2.2c-3.7-1.8-7.8-3.4-12-4.6
						c8,10.8,17.2,23.2,23.5,30.2c12.8,14,43,53.6,54.5,69.7c6.9,9.7,14.5,20.9,19.4,28.3c1.9-3.7,3.8-7.6,5.7-11.6
						c-5-5.4-11.4-12.5-16.4-19C1203.1,671.4,1187.3,649.8,1175.8,635.2z"/>
					<path fill="#8B1717" d="M1136.8,673c-11.7-15-34.4-45.7-54.2-74.6c-1,8.4-0.1,18.5,2.2,30.2c5.7,30,25.3,61.5,45.6,81.2
						c20.3,19.7,52.6,40.6,70.3,47.3c0,0,0.8-1.3,2.1-3.7c-3.1-3.5-7.3-8-11.3-12.4C1183.3,732.1,1150,690.1,1136.8,673z"/>
					<path fill="#CB8282" d="M1117.8,640.8c-12.7-17.4-26.7-36.4-34.3-46.6c-0.1,0.1-0.2,0.1-0.2,0.2c-0.3,1.3-0.5,2.7-0.6,4.1
						c19.8,28.9,42.5,59.5,54.2,74.6c13.3,17.1,46.5,59.1,54.6,68c4.1,4.4,8.2,9,11.3,12.4c0.6-1.2,1.4-2.6,2.3-4.2
						c-4.7-5.4-12.7-14.8-24.5-28.7C1159.8,696,1136.4,666.2,1117.8,640.8z"/>
					<path fill="#CB8282" d="M1149.5,616.3c-6.3-6.9-15.6-19.3-23.5-30.2c-9.5-2.7-19.9-3.4-29.6,0.1c28.5,42.7,51.7,70.6,65.9,91.1
						c12.2,17.6,36.8,48.2,48.1,62.1c3.7-6.9,8.2-15.5,13-25.1c-4.9-7.3-12.5-18.5-19.4-28.3
						C1192.5,669.9,1162.2,630.3,1149.5,616.3z"/>
					<path fill="#CB8282" d="M1169.2,615.2c-2.5-3.2-6.9-8.6-11.7-14.5c-4.9-2.2-9.7-4.9-15.2-7.8c13.2,17.1,26.1,33.1,33.4,42.3
						c11.5,14.6,27.4,36.2,37,48.5c5,6.4,11.4,13.6,16.4,19c1.2-2.4,2.3-4.8,3.5-7.2c-5.7-7.3-14-17.7-20.9-26.2
						C1199.8,654.4,1177.5,625.8,1169.2,615.2z"/>
					<path fill="#64161C" d="M1096.4,586.2c-1.7-2.6-3.5-5.2-5.2-7.9c-4,4.1-6.6,9.3-7.9,15.6c0,0.1,0.1,0.1,0.2,0.2
						C1087.4,590.4,1091.8,587.8,1096.4,586.2z"/>
					<path fill="#64161C" d="M1138,590.8c1.5,0.7,2.9,1.5,4.3,2.2c-5-6.5-10.1-13.2-14.9-19.7c-4.6-1.7-9.3-3-13.6-3.4
						c3,3.8,7.3,9.8,12.2,16.3C1130.2,587.3,1134.3,588.9,1138,590.8z"/>
					<path fill="#64161C" d="M1194,602.5c27.4-7.1,32.5-20.6,38.5-29.8c5.7-8.6,14.1-14.7,27.1-5.2c-7.1-8.7-20-10.6-26.8-5.6
						c-8.4,6.3-11.6,12.4-25.2,23.3c-13.6,10.9-31.8,10.3-47,3.6c-5.9-2.6-13.5-6.8-21.5-10.7c5.1,6.2,12.2,14.8,18.5,22.5
						C1167.2,605,1177.3,606.8,1194,602.5z"/>
					<path fill="#906166" d="M1083.3,593.9c0,0.1-0.1,0.3-0.1,0.4c0.1-0.1,0.2-0.1,0.2-0.2C1083.4,594.1,1083.3,594,1083.3,593.9z"
						/>
					<path fill="#906166" d="M1126,586.1c-4.8-6.6-9.2-12.5-12.2-16.3c-4.4-0.5-8.5-0.1-12.1,1.5c-4.3,1.9-7.8,4.2-10.6,7.1
						c1.8,2.7,3.5,5.3,5.2,7.9C1106,582.7,1116.5,583.4,1126,586.1z"/>
					<path fill="#906166" d="M1157.5,600.7c-6.3-7.7-13.4-16.4-18.5-22.5c-3.8-1.8-7.7-3.6-11.6-5c4.8,6.5,9.9,13.2,14.9,19.7
						C1147.8,595.8,1152.6,598.6,1157.5,600.7z"/>
				</g>
			</g>
			<path fill="#EC5858" d="M1083.7,559.1c5.1-8.8,18.8-12.7,28.4-11.9c11,1,20.6,6.2,29.7,12c6.5,4.1,12.8-6.5,6-10.3
				c-11.5-6.5-25.3-12.6-38.8-9.6c-11.5,2.6-22.9,7-28.9,17.8C1078.9,559.3,1082.4,561.4,1083.7,559.1L1083.7,559.1z"/>
			<path fill="#EC5858" d="M1203.9,564.9c14.3-14.6,36.6-27.7,57.8-24.3c8.4,1.3,10.1-10.5,1.6-11.6c-6.2-0.8-12.7-0.5-18.6,1.6
				c-6.4,2.2-11.5,5.8-17.1,9.4c-5.1,3.3-9.9,7-14.7,10.7c-4.4,3.4-9.7,6.7-12.4,11.7C1199.3,564.3,1202.1,566.7,1203.9,564.9
				L1203.9,564.9z"/>
		</g>
	</g>
</g>
</svg>
