<?xml version="1.0" encoding="utf-8"?>
<!-- Generator: Adobe Illustrator 21.0.2, SVG Export Plug-In . SVG Version: 6.00 Build 0)  -->
<svg version="1.1" id="_x31_1_x5F_Eyewear_x5F_SunglassesHeartShaped"
	 xmlns="http://www.w3.org/2000/svg" xmlns:xlink="http://www.w3.org/1999/xlink" x="0px" y="0px" viewBox="0 0 2000 2000"
	 enable-background="new 0 0 2000 2000" xml:space="preserve">
<g>
	<path fill="#932227" d="M749,675.5c0,0-43.5,4.5-73.8,6.8c-30.3,2.2-91.8,9.9-100.7,10.9s-13-1.8-17,11.1s-8.2,37.1-16.5,46.8
		c-4.8,5.6-8.7,9.6-11.7,10.5c-2.2,0.7-4-0.2-5.5-3c-3.8-6.9,0.5-27.6,5.8-48.5s11.4-44.5,26.2-47.2s54-6.2,54-6.2
		c62.4-5.5,135.5-12.2,135.5-12.2l2.7,22.2L749,675.5z"/>
	<path fill="#CE2828" d="M583.5,684.5c26.4-2.5,144.6-10.6,164.4-18.1l-2.7-22.2c0,0-73.1,6.8-135.5,12.2c0,0-39.1,3.5-54,6.2
		s-21,26.4-26.2,47.2s-9.5,41.6-5.8,48.5c1.5,2.8,3.4,3.7,5.5,3c11.8-39.5,16.7-56,19.5-63.5C551.9,689.4,554.8,687.2,583.5,684.5z"
		/>
</g>

</svg>
