<?xml version="1.0" encoding="utf-8"?>
<!-- Generator: Adobe Illustrator 21.0.2, SVG Export Plug-In . SVG Version: 6.00 Build 0)  -->
<svg version="1.1" id="_x31_2_x5F_Eyewear_x5F_SunglassesRayBans_1_"
	 xmlns="http://www.w3.org/2000/svg" xmlns:xlink="http://www.w3.org/1999/xlink" x="0px" y="0px" viewBox="0 0 2000 2000"
	 enable-background="new 0 0 2000 2000" xml:space="preserve">

<g id="front">
	<g>
		<path fill="none" d="M903.4,549.4L903.4,549.4c4.5,0.4,9,0.9,13.3,1.4C912.3,550.2,907.8,549.7,903.4,549.4z"/>
		<path fill="none" d="M856,548.1c0.2,0,0.3,0,0.5,0C856.3,548.1,856.2,548.1,856,548.1z"/>
		<path fill="none" d="M778.4,554.7c-0.3,0-0.5,0.1-0.8,0.1c0.6-0.1,1.2-0.2,1.7-0.3C779.1,554.6,778.7,554.6,778.4,554.7z"/>
		<path fill="none" d="M784.1,553.8c21.3-3.2,44.4-5.1,70.4-5.7C831,548.5,807.5,550.3,784.1,553.8z"/>
		<path fill="none" d="M923.7,551.7c-0.4,0-0.8-0.1-1.2-0.2c5.6,0.8,11.1,1.6,16.2,2.6C933.7,553.1,928.7,552.3,923.7,551.7z"/>
		<path fill="none" d="M772.9,555.6c0.1,0,0.2,0,0.3,0C773.1,555.6,773,555.6,772.9,555.6z"/>
		<path fill="none" d="M1044.4,579c0.8,0,1.5,0,2.3-0.1C1045.9,578.9,1045.1,579,1044.4,579z"/>
		<path fill="none" d="M1055.2,577.5c3.1-0.9,7-2.5,11.2-4.4C1062.7,574.7,1059.1,576.2,1055.2,577.5z"/>
		<path fill="none" d="M1026.1,577.4c1.5,0.3,3,0.5,4.5,0.7C1029,577.9,1027.6,577.7,1026.1,577.4z"/>
		<path fill="none" d="M860.2,788.3c-3.9-0.1-8-0.5-12.2-1C852,787.9,856.1,788.3,860.2,788.3z"/>
		<path fill="none" d="M1098,556.8c-4.2,2.1-9.1,4.7-13.2,6.9c4.8-2.6,9.5-5,13.4-7C1098.1,556.7,1098,556.8,1098,556.8z"/>
		<path fill="none" d="M905.2,785.5c12.2-1.5,23.2-4.3,33.6-8.6C927.4,781.4,915.7,784,905.2,785.5
			C905.1,785.5,905.2,785.5,905.2,785.5z"/>
		<path fill="none" d="M951.4,771c4-2.2,7.6-4.5,10.8-7.1c-3.6,2.7-7.3,5.1-11.1,7.3C951.2,771.1,951.3,771.1,951.4,771z"/>
		<path fill="none" d="M761.9,729.2c0,0.1,0.1,0.1,0.1,0.2c-0.1-0.1-0.1-0.3-0.2-0.4C761.8,729,761.9,729.1,761.9,729.2z"/>
		<path fill="none" d="M732.4,639.9C732.4,639.9,732.4,640,732.4,639.9c-0.1-0.4-0.2-0.9-0.3-1.4
			C732.2,639.1,732.3,639.6,732.4,639.9z"/>
		<path fill="none" d="M724.8,607.6L724.8,607.6L724.8,607.6L724.8,607.6z"/>
		<path fill="none" d="M728.7,618.2c-1-6.5-1.4-10.6-1.4-10.6C727.4,609.4,728,613.5,728.7,618.2z"/>
		<path fill="none" d="M720.8,605.3L720.8,605.3L720.8,605.3z"/>
		<path fill="none" d="M1227.2,531.3L1227.2,531.3c0,0,0.1,0,0.3,0C1227.4,531.3,1227.3,531.3,1227.2,531.3z"/>
		<path fill="none" d="M831,780c-10-3-18.9-7.6-29.4-18.1c10.5,10.5,19.5,15.1,29.5,18.2c10.1,3.1,22.1,6.1,30.6,8.2
			c0.9,0,1.8,0,2.7,0c-0.9,0-1.7,0-2.6,0C853.3,786.2,841.2,783.1,831,780z"/>
		<path fill="none" d="M762.1,729.5c15.3,28.9,38.2,47.8,70.4,54.9l0,0c-10.7-2.8-22.2-7.4-34.4-14.7
			C782.1,760.2,770.7,745.5,762.1,729.5z"/>
		<path fill="none" d="M1296.7,570L1296.7,570L1296.7,570z"/>
		<path fill="none" d="M739.6,670.6c4.5,16.6,10.1,33,17.3,48.5c-6.9-15.1-11.7-30.6-15.8-43.6C740.6,673.8,740.1,672.2,739.6,670.6
			z"/>
		<path fill="none" d="M1156.2,748.3c0.1,0,0.1,0,0.2,0c8-0.2,16-0.9,23.9-2.2c-0.9,0.1-1.8,0.3-2.7,0.4
			C1169.9,747.4,1162.8,748.1,1156.2,748.3z"/>
		<path fill="none" d="M1050.1,627c2.4,2.4,3.1,4,4,8.7C1053.4,631.4,1052.7,629.5,1050.1,627z"/>
		<path fill="none" d="M1120.6,745c8.6,2.1,18,3.1,27,3.4c-4.6-0.2-9.1-0.6-13.4-1.5C1129.3,746.6,1124.8,745.9,1120.6,745z"/>
		<path fill="none" d="M1311.1,565.2L1311.1,565.2c0.1-0.2,0.2-0.4,0.3-0.7C1311.3,564.8,1311.2,565,1311.1,565.2z"/>
		<path fill="none" d="M1293.6,629.6c1.6-12.6,2.2-25.3,2.6-38.1c-0.4,8.5-1,19.3-2.1,32.5C1294,625.4,1293.9,627.2,1293.6,629.6z"
			/>
		<path fill="none" d="M1285,531.7c4.9,0.4,9,0.9,12.1,1.4C1293.2,532.3,1289,531.9,1285,531.7z"/>
		<path fill="none" d="M1107.6,552.6L1107.6,552.6c8.1-2.8,24.1-6.8,45.3-10.9C1137.5,544.5,1122.8,547.2,1107.6,552.6z"/>
		<path fill="none" d="M1311.6,562.7c0.5-5.1,0.2-16.1-1.8-20.9c0-0.1,0-0.1-0.1-0.2c1.5,3.8,1.6,8.5,1.8,13.2
			C1311.6,558.4,1311.7,560.8,1311.6,562.7z"/>
		<path fill="none" d="M1308.3,538.8c-1.1-1.7-2.6-3.2-4.6-3.9c-0.1,0-0.1,0-0.2-0.1C1305.6,535.8,1307.2,537.1,1308.3,538.8z"/>
		<path fill="none" d="M976.1,750.4c5.2-6,10-12.3,14.3-18.9C986.5,737.3,981.8,743.6,976.1,750.4L976.1,750.4z"/>
		<path fill="none" d="M1255.3,530.6c-7.9,0-15.8,0.1-23.7,0.5C1239.8,530.7,1247.8,530.5,1255.3,530.6z"/>
		<path fill="none" d="M1006.8,572.5c-6.3-2.3-12.7-4.5-19.1-6.5c7.8,2.5,13.8,4.6,17.6,6C1005.7,572.2,1006.2,572.4,1006.8,572.5z"
			/>
		<path fill="none" d="M1043.1,579c-0.1,0-0.1,0-0.2,0C1043,579,1043.1,579,1043.1,579z"/>
		<path fill="none" d="M1197.3,534.2c-11.3,1.5-22.7,3.3-33.6,5.4h-0.1c10-1.8,20.9-3.6,32.6-5.3
			C1196.5,534.3,1196.9,534.3,1197.3,534.2z"/>
		<path fill="none" d="M731.9,602.5c3.4,4,5,9.4,8.8,28.5c3.7,19.1,6.5,53.6,32.3,93.5c2,3.1,4,6.1,5.9,8.9
			c-1.9-2.8-3.8-5.7-5.9-8.9c-25.8-39.9-28.5-74.4-32.3-93.5C737,611.9,735.3,606.5,731.9,602.5c-3.4-4-12.3-6.3-12.3-6.3l0,0l0,0
			C719.6,596.2,728.5,598.5,731.9,602.5z"/>
		<path fill="none" d="M1016.8,672c0,0,0.1-0.5,0.4-1.3c-0.1,0.5-0.3,1.1-0.5,1.7L1016.8,672z"/>
		<path fill="none" d="M1025,630.1c-0.3,0.8-0.5,1.7-0.7,2.5C1024.5,631.8,1024.8,631,1025,630.1z"/>
		<path fill="none" d="M1102.6,737.9L1102.6,737.9c-0.1,0-0.3-0.1-0.5-0.3C1102.3,737.7,1102.5,737.8,1102.6,737.9z"/>
		<path fill="none" d="M1107,740.2c-1.1-0.5-2.2-1.1-3.3-1.7C1104.8,739.1,1105.9,739.7,1107,740.2z"/>
		<path fill="none" d="M1108.6,741c-0.1-0.1-0.3-0.1-0.4-0.2C1108.3,740.8,1108.5,740.9,1108.6,741z"/>
		<path fill="none" d="M1027.4,624.7c-0.7,1.2-1.4,2.6-1.9,4C1026.1,627.3,1026.7,626,1027.4,624.7z"/>
		<path fill="none" d="M1246.9,719.3c-11.5,8.4-24.8,15.1-38.3,19.8C1222.4,734.4,1235.4,727.8,1246.9,719.3z"/>
		<path fill="none" d="M1021.5,648.2c-0.3,1.8-0.5,3.8-0.8,5.7C1021,652,1021.2,650.1,1021.5,648.2z"/>
		<path fill="none" d="M1077.9,712.5c1.8,3,3.8,5.9,6,8.7C1081.5,718.1,1079.5,715.2,1077.9,712.5L1077.9,712.5z"/>
		<path fill="none" d="M1044.1,622.8c-0.8-0.4-1.8-0.7-2.7-1C1042.2,622,1043,622.3,1044.1,622.8z"/>
		<path fill="none" d="M1032.8,620.7C1032.7,620.7,1032.7,620.7,1032.8,620.7C1032.7,620.7,1032.7,620.7,1032.8,620.7z"/>
		<path fill="none" d="M1056.2,649c0,0.1,0,0.1,0,0.2C1056.2,649.1,1056.2,649,1056.2,649C1056.2,648.9,1056.2,649,1056.2,649z"/>
		<path fill="none" d="M1031.7,620.8c-0.1,0-0.2,0-0.2,0S1031.6,620.8,1031.7,620.8z"/>
		<path fill="none" d="M1068.8,693c0,0.1,0,0.1,0.1,0.2c-5.2-14-9.8-31-12.2-41.8C1059.6,665.5,1063.5,679.3,1068.8,693z"/>
		<path fill="none" d="M1255.4,712.5c-0.2,0.1-0.3,0.3-0.5,0.4C1255,712.8,1255.2,712.7,1255.4,712.5z"/>
		<path fill="none" d="M1269.4,697c8.3-11.5,13.8-24.4,18.2-38.5c0-0.1,0-0.1,0.1-0.2c-3,9.7-7.6,20.9-14.4,32.8
			C1272,693,1270.8,695,1269.4,697z"/>
		<path fill="none" d="M1018.7,664.7c0-0.1,0-0.2,0.1-0.3c-0.4,2-0.9,4-1.5,6.1C1017.6,669.1,1018.2,667,1018.7,664.7z"/>
		<path fill="none" d="M1258.7,709.4c-0.1,0.1-0.1,0.1-0.2,0.2C1258.6,709.5,1258.6,709.5,1258.7,709.4z"/>
		<path fill="none" d="M1014.6,679.1l0.1-0.4c-0.1,0.3-0.2,0.6-0.3,0.9L1014.6,679.1z"/>
		<path fill="none" d="M1011.2,688.3L1011.2,688.3c-3.1,8.1-6,16.2-10.3,24.9C1004.9,705.1,1008.4,696.7,1011.2,688.3z"/>
		<path fill="none" d="M1296.7,578.6L1296.7,578.6L1296.7,578.6L1296.7,578.6z"/>
		<path fill="none" d="M1307.4,568.2c0,0,0.1,0,0.2-0.1c-1.1,0.4-2.4,0.7-3.8,1C1305.2,568.9,1306.5,568.6,1307.4,568.2z"/>
		<path fill="none" d="M1020.3,655.9L1020.3,655.9c-0.1,0.3-0.1,0.6-0.2,1C1020.3,656.3,1020.3,655.9,1020.3,655.9z"/>
		<path fill="none" d="M1249.5,717.3c-0.8,0.6-1.6,1.2-2.4,1.8C1248,718.6,1248.8,718,1249.5,717.3z"/>
		<path fill="none" d="M1251.8,715.5c0.1-0.1,0.2-0.2,0.4-0.3c-0.5,0.4-1,0.8-1.5,1.2C1251,716.2,1251.4,715.9,1251.8,715.5z"/>
		<path fill="none" d="M1019.1,662.6c-0.1,0.5-0.2,0.9-0.3,1.4C1018.9,663.5,1019,663,1019.1,662.6z"/>
		<path fill="#2A2D33" d="M1100.2,730.6c-24.7-19.3-34.3-75.6-36.2-86.3c-1.9-10.7-5.1-29.1-20.8-28c-5.8,0.4-9.8,2.1-12.6,4.6
			c0,0,0.4,0,0.9-0.1c0.1,0,0.2,0,0.2,0c0.3,0,0.6,0,0.9-0.1l0,0h0.1c1.6-0.1,4.4-0.1,5.1,0.1c1.7,0.4,2.7,0.6,3.6,0.9
			c1,0.3,1.9,0.7,2.7,1l0,0c2.7,1.1,4.2,2.5,5.9,4.2l0,0c2.6,2.5,3.3,4.4,4,8.7l0,0c0.8,4.2,1.2,8.9,2.1,13.2c0,0.1,0,0.2,0.1,0.3
			c0.1,0.7,0.3,1.4,0.4,2.2c2.3,10.9,7,27.9,12.2,41.8c2.5,6.6,5.3,13.1,9,19.3c1.7,2.6,3.7,5.6,6.1,8.7
			c5.1,6.5,11.3,12.1,18.3,16.4c0.2,0.1,0.4,0.2,0.6,0.4c0.3,0.2,0.6,0.4,1,0.5c1.1,0.6,2.1,1.2,3.3,1.7c0.4,0.2,0.8,0.4,1.2,0.6
			c0.1,0.1,0.3,0.1,0.4,0.2c3.7,1.6,7.8,3,12,4s8.7,1.6,13.6,1.9C1122.7,744.6,1111.9,739.7,1100.2,730.6z"/>
		<path fill="#383838" d="M1210,571.7c1.5-0.1,3-0.3,4.5-0.4C1213,571.4,1211.5,571.6,1210,571.7z"/>
		<path fill="#383838" d="M1137.5,599.2c-5.2-4.2-10.2-8.3-14.4-11.7h-0.1C1127.2,590.9,1132.2,595.1,1137.5,599.2
			c14,11.5,48.9,40.5,65.5,52.8c4.7,3.5,10.5,7.9,16.5,12.4l0,0c-6-4.6-11.9-9-16.5-12.5C1186.4,639.5,1151.5,610.6,1137.5,599.2z"
			/>
		<path fill="#383838" d="M1079.4,602.2c-0.3,0.1-0.6,0.3-0.9,0.4l0,0c0.4-0.2,0.8-0.4,1.1-0.6L1079.4,602.2z"/>
		<path fill="#383838" d="M1214.6,674.2c-1.3-1.1-2.6-2.1-3.9-3.2C1212,672.1,1213.3,673.2,1214.6,674.2L1214.6,674.2z"/>
		<path fill="#383838" d="M798.3,601.4c1.3-0.3,2.6-0.7,3.9-1l0,0C800.9,600.7,799.6,601.1,798.3,601.4z"/>
		<path fill="#383838" d="M1133,608.3c15,11.7,60.6,48.4,77.7,62.7C1193.6,656.6,1148,620,1133,608.3z"/>
		<path fill="#383838" d="M1311.6,562.7c0.1-1.8,0-4.3-0.1-7.9c-0.2-4.7-0.3-9.4-1.8-13.2c-0.4-1-0.9-1.9-1.5-2.8
			c-1.1-1.6-2.6-3-4.7-4c-1.9-0.7-4.1-1.3-6.4-1.7c-3.1-0.5-7.2-1-12.1-1.4c-2.3-0.1-4.4-0.3-6.3-0.4c-7.8-0.5-15.6-0.7-23.4-0.7
			c-7.5,0-15.5,0.1-23.7,0.5c-1.4,0.1-2.7,0.1-4.1,0.2c-0.1,0-0.2,0-0.3,0c-9.8,0.6-19.8,1.6-29.9,2.9c-0.4,0.1-0.8,0.1-1.2,0.2
			c-11.6,1.7-22.6,3.5-32.6,5.3c-3.6,0.7-7.1,1.3-10.7,2c-21.2,4.1-37.2,8.1-45.3,10.9c-3.5,1.2-6.1,2.5-9.4,4.1
			c-3.9,2-8.5,4.4-13.4,7l0,0c-6.6,3.6-12.5,6.7-18.4,9.4c-4.2,2-8.1,3.6-11.2,4.4l0,0c-2.6,0.9-5.6,1.2-8.5,1.3
			c-0.7,0-1.5,0.1-2.3,0.1c-0.3,0-0.6,0-0.9,0c-0.1,0-0.2,0-0.4,0c-0.1,0-0.1,0-0.2,0c-4,0.1-8.4-0.3-12.4-0.9l0,0
			c-1.5-0.2-3-0.4-4.5-0.7c-6.3-1-12.6-2.4-18.8-4.7c-0.2-0.1-0.3-0.1-0.5-0.2c-0.5-0.2-1-0.4-1.6-0.5c-3.8-1.4-9.7-3.5-17.6-6
			c-5.9-1.8-11.7-3.5-17.3-4.9c-10.5-2.6-21-5.1-31.6-7.1c-5.2-0.9-10.6-1.8-16.2-2.6c-1.9-0.2-3.8-0.5-5.7-0.7
			c-4.3-0.5-8.8-1-13.4-1.4c-15.7-1-31.3-1.5-46.9-1.3c-0.2,0-0.3,0-0.5,0c-0.5,0-1,0-1.5,0c-26,0.5-49,2.5-70.4,5.7
			c-1.6,0.2-3.2,0.5-4.8,0.7c-0.6,0.1-1.2,0.2-1.7,0.3c-1.5,0.2-3,0.5-4.4,0.7c-0.1,0-0.2,0-0.3,0c-12.6,2.2-24.8,4.7-37.9,8.1
			c-8.2,2.1-16.3,4.3-24.4,6.6c5.1,13.3,8.9,25.7,9,25.9l0,0c0,0,8.9,2.3,12.3,6.3c3.4,4,5.1,9.4,8.8,28.5
			c3.8,19.1,6.5,53.6,32.3,93.5c2,3.1,4,6.1,5.9,8.9c8.6,12.7,16,21.8,22.7,28.5C812.1,772.4,821,777,831,780
			c10.2,3.1,22.3,6.2,30.8,8.3c0.9,0,1.7,0,2.6,0c13.3-0.2,26.5-1.1,40.7-2.8c10.6-1.5,22.3-4.1,33.7-8.6c4.2-1.7,8.3-3.6,12.3-5.8
			c3.8-2.1,7.6-4.5,11.1-7.3c5.1-4,9.5-8.5,13.8-13.5c5.8-6.8,10.5-13.1,14.4-19s7.3-12,10.5-18.3c4.2-8.7,7.2-16.8,10.3-24.9
			l3.3-8.7c0.1-0.3,0.2-0.6,0.3-0.9l2-6.3c0.2-0.6,0.3-1.1,0.5-1.7v-0.1c0.6-2.1,1.1-4.2,1.5-6.1c0-0.1,0.1-0.3,0.1-0.4
			c0.1-0.5,0.2-0.9,0.3-1.4c0.5-2.3,0.9-4.5,1.1-5.7c0.1-0.4,0.1-0.7,0.2-1.1c0.1-0.6,0.2-1.2,0.3-1.8c0.3-2,0.6-3.9,0.8-5.7
			c0.7-5.4,1.4-10.4,2.8-15.5c0.2-0.9,0.5-1.7,0.7-2.5c0,0,0,0,0-0.1c0.1-0.4,0.3-0.9,0.5-1.3c0.5-1.4,1.1-2.8,1.9-4
			c1-1.7,2.1-3.1,3.2-3.9l0,0c2.8-2.5,6.8-4.2,12.6-4.6c15.7-1.1,18.9,17.3,20.8,28s11.5,67,36.2,86.3c11.7,9.1,22.5,14,34,16.2
			c4.3,0.9,8.8,1.3,13.4,1.5c2.9,0.1,5.7,0.1,8.5,0c6.7-0.2,13.7-0.9,21.4-1.8c0.9-0.1,1.8-0.2,2.7-0.4c9.7-1.5,19.2-3.9,28.4-7
			c13.4-4.7,26.7-11.3,38.3-19.8c0.1-0.1,0.2-0.1,0.2-0.2c0.8-0.6,1.6-1.2,2.4-1.8c0.4-0.3,0.7-0.6,1.1-0.9c0.5-0.4,1-0.8,1.5-1.2
			c0.9-0.8,1.8-1.5,2.7-2.3c0.2-0.1,0.3-0.3,0.5-0.4c1.1-1,2.1-1.9,3.2-2.9c0.1-0.1,0.1-0.1,0.2-0.2c4-3.9,7.6-8.1,10.7-12.5
			c1.4-1.9,2.6-3.9,3.8-6c6.8-11.9,11.4-23.1,14.4-32.8c2.9-9.4,4.7-18.9,6-28.6c0.2-2.4,0.4-4.3,0.5-5.5
			c1.1-13.2,1.8-24.1,2.1-32.5c0.1-4.3,0.3-8.7,0.4-13l0,0c0-0.1,0-8.4,0-8.6l0,0l0,0l0,0c0.1-0.1,3.8-0.3,7-0.9
			c1.4-0.3,2.7-0.6,3.8-1c1-0.4,2.4-0.9,3.5-2.9c0.1-0.2,0.2-0.5,0.3-0.7C1311.4,564,1311.5,563.4,1311.6,562.7z M744.9,591.1
			c-10.1,1.3-14.7-1.9-15-5.2c-0.3-2.6,1.2-4.7,3.8-6.3l0,0c2.4-1.8,6.4-2.9,10.8-2.9c10.9,0,13.7,3.1,13.7,6.1c0,0.2,0,0.3,0,0.4
			c0,0,0,0-0.1,0v0.1c0,0,0,0,0.1,0c0,0.1,0,0.1,0,0.2c0,0.1,0,0.3,0,0.4C758.6,590,752.9,590.1,744.9,591.1z M989.2,676.2
			c-8.6,17.5-17.2,37.9-36.2,56.2s-50.2,32.3-80.2,24.9h-0.1c-21.5-2-38.9-9.7-44-11.9c-10.1-4.2-33.9-15.6-43.7-64.1
			c-7.5-36.9-5-60.9-2.8-72.8l-0.1-0.1c0.1-0.5,0.2-1,0.3-1.5c0.6-0.3,1.3-0.5,1.9-0.8c20.9,15.7,82.8,62.4,115.6,86.8
			c0,0,0-0.1,0.1-0.1c-32.8-24.3-94.7-71-115.6-86.8c2.5-1.1,5.2-2,8-2.9c-2.8,0.9-5.6,1.8-8.1,2.8c-0.5-0.4-1-0.7-1.5-1.1
			c0.4-1.9,0.8-3.3,1-4.2c0.5-2,3.3-4.6,10-7.1c0.1,0.1,0.1,0.1,0.2,0.2l0,0c-0.1-0.1-0.1-0.1-0.2-0.2c6-2.3,15-4.5,28.1-6.5
			c3.6-0.7,7.2-1.2,10.7-1.4c0.4,0,0.8-0.1,1.2-0.1c1.5-0.2,2.9-0.3,4.4-0.5l0,0c11.8-1.2,25.8-2.2,42.6-2.9
			c45.9-1.8,115.4,16.7,115.4,16.7c4.5,1.4,6.1,2.4,6.1,9.4C1002.3,629.4,997.8,658.7,989.2,676.2z M782.5,606.8
			c0.1-0.7,0.3-1.3,0.4-1.9c0.4,0.4,0.9,0.8,1.5,1.1C783.7,606.2,783.1,606.5,782.5,606.8z M1272.7,643.8
			c-8,23.7-16.3,45.2-33.1,56.7c-16.8,11.5-47.3,18.4-47.3,18.4l0,0c-41.4,12.2-75,5.2-84.1-6.7c-9.9-12.9-21.8-31.4-29.4-61.3
			c-5.9-23.2-7.1-37.5-7.6-44.6c2.3-1.2,4.7-2.5,7.2-3.7l0,0c-2.6,1.2-5,2.4-7.3,3.7c-0.1-2-0.2-3.5-0.3-4.4
			c-0.1-0.8,0.8-1.9,2.3-3.2l0,0c0.1-0.1,0.2-0.1,0.2-0.1s0,0,0.1-0.1l0,0c0.2-0.1,0.4-0.3,0.6-0.4c0.5-0.4,1.2-0.9,1.9-1.3l0.1,0.1
			l0,0c-0.1-0.1-0.2-0.1-0.2-0.2c2.6-1.7,6.2-3.7,10.5-5.8c4.6-2.3,10.1-4.6,16.2-7c2.5-0.9,5.2-1.9,8-2.9l0,0l0,0
			c0.3-0.1,0.6-0.2,0.9-0.3c2.1-1,4.6-2.1,6.1-2.1l0.1,0.1c2-0.7,4.1-1.3,6.2-1.9c30.9-9.2,56.7-14,77.5-15.4
			c32-2.3,64.8,4,67.5,4.3c0.2,0,0.4,0.1,0.6,0.1c5.7,1.1,9,3.1,9.4,15.2C1279.2,593.5,1280.7,620.1,1272.7,643.8z M1297.2,556.3
			c0,3.6-5.5,6.5-12.2,6.5s-12.2-2.9-12.2-6.5c0-2.9,3.6-5.4,8.6-6.2c1.2-0.3,2.6-0.5,4.1-0.6c0.5-0.1,1-0.1,1.5-0.1
			c3.5,0.1,6.6,1,8.5,2.3c0.5,0.6,0.8,1.1,0.8,1.7c0,0.1,0,0.2,0,0.3l0.1,0.1c0-0.1,0-0.3,0-0.4c0-0.6-0.3-1.2-0.8-1.7
			c1.2,0.9,1.9,1.9,1.9,3.1c0,0.4-0.1,0.7-0.2,1.1C1297.2,556,1297.2,556.2,1297.2,556.3z"/>
		<path fill="#383838" d="M1093.4,596.5L1093.4,596.5c30.6,24.6,50.1,42.4,68.6,58.1c11.1,9.3,29.3,24.8,43.8,37.2v-0.1
			c-14.5-12.4-32.7-27.8-43.8-37.2C1143.5,638.9,1124.1,621.1,1093.4,596.5z"/>
		<path fill="#383838" d="M1133.9,600.2c1.4,1.1,2.8,2.3,4.2,3.4C1136.7,602.5,1135.3,601.3,1133.9,600.2z"/>
		<path fill="#383838" d="M1178.7,637.2L1178.7,637.2c-4.9-4.1-11.4-9.5-18.8-15.6C1167.4,627.7,1173.9,633.1,1178.7,637.2
			L1178.7,637.2z"/>
		<path fill="#383838" d="M1253.7,569.6c2,0,3.9,0,5.8,0C1257.6,569.6,1255.7,569.6,1253.7,569.6z"/>
		<path fill="#383838" d="M1216.8,571.1c2.3-0.2,4.5-0.3,6.8-0.5C1221.3,570.8,1219,570.9,1216.8,571.1z"/>
		<path fill="#383838" d="M1110.9,590.7c6.6,5.4,14.9,12,22.1,17.6C1125.8,602.7,1117.6,596.1,1110.9,590.7z"/>
		<path fill="#383838" d="M1225.8,570.5c1.5-0.1,3-0.2,4.5-0.2C1228.8,570.3,1227.3,570.4,1225.8,570.5z"/>
		<path fill="#383838" d="M1239.1,569.9c5.1-0.2,10-0.3,14.6-0.3C1249.1,569.6,1244.2,569.7,1239.1,569.9z"/>
		<path fill="#383838" d="M1232.5,570.1c1.5-0.1,3-0.1,4.4-0.2C1235.5,570,1234,570.1,1232.5,570.1z"/>
		<path fill="#383838" d="M1150.3,613.7c3.3,2.7,6.6,5.4,9.6,7.9C1156.9,619.1,1153.7,616.4,1150.3,613.7z"/>
		<path fill="#383838" d="M796.6,601.8c-0.9,0.3-1.8,0.5-2.7,0.8C794.8,602.4,795.7,602.1,796.6,601.8z"/>
		<path fill="#383838" d="M802.5,600.6c24.1,19.7,51,42.3,69.7,56.9C853.5,642.8,826.6,620.2,802.5,600.6L802.5,600.6z"/>
		<path fill="#383838" d="M846.9,595.4c22.8,17.2,53.7,40.6,80.8,61l0,0C900.7,635.9,869.8,612.6,846.9,595.4L846.9,595.4z"/>
		<path fill="#383838" d="M910.3,652.5c1.2,0.9,2.3,1.7,3.5,2.6C912.7,654.2,911.5,653.4,910.3,652.5z"/>
		<path fill="#2A2D33" d="M801.6,761.9c-6.7-6.7-14-15.9-22.7-28.5c-1.9-2.8-3.8-5.7-5.9-8.9c-25.8-39.9-28.6-74.4-32.3-93.5
			c-3.8-19.1-5.4-24.5-8.8-28.5c-3.4-4-12.3-6.3-12.3-6.3l0,0c0-0.2-3.9-12.6-9-25.9c-1.7,0.5-3.4,1-5.1,1.5l6.3,26.8l7.9,4.7l1.1,2
			l0,0c1,1.2,2.4,2,3.9,2.3c0.1,0,0.1,0,0.2,0h2.4c0,0,0.5,4.1,1.4,10.6c1.2,7.5,2.7,16.6,3.4,20.3c0.1,0.5,0.2,1,0.3,1.5
			c2.1,10.1,4.4,20.4,7.2,30.5c0.5,1.6,1,3.3,1.5,4.8c4.1,13,8.9,28.5,15.8,43.6c1.6,3.4,3.2,6.7,4.9,9.9c0.1,0.1,0.1,0.3,0.2,0.4
			c0,0,0,0.1,0.1,0.1c8.6,16,20,30.7,36,40.2c12.2,7.3,23.7,11.9,34.4,14.7c5.2,1.1,10.4,2.2,15.5,3c4.2,0.5,8.3,0.8,12.2,1
			c0.1,0,0.2,0,0.4,0c0.4,0,0.7,0,1.1,0c-8.5-2.1-20.5-5.2-30.6-8.2C821,777,812.1,772.4,801.6,761.9z"/>
		<path fill="#2A2D33" d="M996.2,598.8c0,0,0.8,2.6,1.1,9.2c0.3,5.4,0.1,13.5-1.1,24.9c-1.5,14.5-5.7,34.5-17,55.9l0,0
			c-0.8,1.6-1.7,3.1-2.6,4.6c-10.9-8.2-28.8-21.8-48.9-37l0,0c20.1,15.2,38,28.8,48.9,37.1c-0.8,1.5-1.7,2.9-2.6,4.4l0,0
			c-4.8,7.6-10.4,15.3-17.3,22.9c0,0,0,0-0.1,0c-2.3,2.6-4.7,5.2-7.2,7.6c-7.8-5.5-19.6-13.9-33.6-24c-3.7-2.6-9.2-6.7-15.8-11.6
			c0,0,0,0.1-0.1,0.1c6.7,5,12.1,9,15.8,11.6c13.9,10.1,25.7,18.5,33.6,24c-1.1,1.1-2.2,2.1-3.3,3.2c0,0,0,0,0.1,0
			c-2.2,2.1-4.5,4.2-6.9,6.2c-21.4,18.1-45.9,21.3-66.5,19.4h0.1c30,7.4,61.2-6.6,80.2-24.9s27.6-38.7,36.2-56.2s13.1-46.8,13.1-68
			C1002.3,601.2,1000.7,600.2,996.2,598.8z"/>
		<path fill="#292929" d="M835.2,596.3c13.9,10.4,32.4,24.2,49.9,37.3c9,6.7,17.6,13.2,25.3,18.9c1.2,0.9,2.3,1.7,3.5,2.6
			c7.9,5.9,14.5,10.8,18.7,13.9c15.4,11.4,32,22.6,41.5,28.9l0,0l0,0c0.9-1.5,1.8-2.9,2.6-4.4c-10.9-8.2-28.8-21.8-48.9-37.1
			c-27.1-20.5-58-43.9-80.8-61C843,595.6,839.1,596,835.2,596.3z"/>
		<path fill="#292929" d="M908.5,596.2c-11.5-0.7-31.1-1.7-52.4-1.4l0.2,0.2c-1.3,0-2.7,0.1-4,0.1l126.9,93.6c0,0,0,0,0,0.1l0,0
			c11.3-21.4,15.5-41.4,17-55.9c1.2-11.4,1.4-19.5,1.1-24.9C977.4,604.8,930.3,597.5,908.5,596.2z"/>
		<path fill="#292929" d="M949.4,728.4c2.6-2.5,5-5.1,7.2-7.6c-17.5-13.4-54.8-42-69.7-52.3c-3.9-2.7-8.9-6.5-14.7-11
			c-18.7-14.6-45.6-37.2-69.7-56.9c-0.1,0-0.2,0-0.2-0.1l-0.1-0.1c-1.3,0.3-2.6,0.6-3.9,1c-0.6,0.1-1.1,0.3-1.7,0.4
			c-0.9,0.2-1.8,0.5-2.7,0.8c-0.5,0.1-1,0.3-1.5,0.5c-2.8,0.9-5.5,1.8-8,2.9c20.8,15.8,82.8,62.5,115.6,86.8c6.7,5,12.2,9,15.8,11.6
			C929.8,714.5,941.6,722.9,949.4,728.4z"/>
		<path fill="#292929" d="M939.2,737.9c2.4-2,4.7-4.1,6.9-6.2c0,0,0,0-0.1,0l0,0c-24.4-18.5-129.2-90.9-163.8-123.2
			c-2.2,11.9-4.7,35.9,2.8,72.8c9.8,48.5,33.6,59.9,43.7,64.1c5.2,2.1,22.5,9.8,44,11.9C893.3,759.2,917.8,756,939.2,737.9z"/>
		<path fill="#1F2328" d="M796.6,601.8c0.5-0.2,1.1-0.3,1.7-0.4c1.3-0.3,2.6-0.7,3.9-1l-9.4-6.4c0.4-0.1,0.8-0.2,1.2-0.3
			c-0.1-0.1-0.1-0.1-0.2-0.2c-6.7,2.5-9.5,5.1-10,7.1c-0.2,0.9-0.6,2.3-1,4.2c0.5,0.4,1,0.7,1.5,1.1c2.6-1,5.3-1.9,8.1-2.8
			c0.5-0.2,1-0.3,1.5-0.5C794.8,602.4,795.7,602.1,796.6,601.8z"/>
		<path fill="#1F2328" d="M833.8,585.5c-0.4,0.1-0.8,0.1-1.2,0.1c0.5,0,0.9,0,1.4,0C833.9,585.6,833.8,585.5,833.8,585.5z"/>
		<path fill="#1F2328" d="M838.6,585.2c3.9-0.3,8.7-0.7,8.7-0.7l8.8,10.3c21.3-0.4,40.9,0.7,52.4,1.4c21.8,1.3,68.9,8.6,88.8,11.8
			c-0.3-6.6-1.1-9.2-1.1-9.2s-69.5-18.5-115.4-16.7c-16.8,0.7-30.8,1.7-42.6,2.9l0,0h0.1L838.6,585.2z"/>
		<path fill="#8E9A98" d="M946,731.7L946,731.7c1.1-1.1,2.2-2.1,3.3-3.2c-7.9-5.5-19.7-13.9-33.6-24c-3.7-2.7-9.1-6.7-15.8-11.6
			c-32.8-24.4-94.7-71.1-115.6-86.8c-0.6,0.3-1.3,0.5-1.9,0.8c-0.1,0.5-0.2,1-0.3,1.5l0.1,0.1C816.8,640.8,921.6,713.2,946,731.7z"
			/>
		<path fill="#8E9A98" d="M932.5,669c-4.2-3.1-10.8-8-18.7-13.9c-1.1-0.8-2.3-1.7-3.5-2.6c-7.6-5.7-16.3-12.2-25.3-18.9
			c-17.5-13-36-26.9-49.9-37.3c-1.2,0.1-2.5,0.2-3.7,0.4c-5.1,0.5-10.1,1.2-15.2,1.9c-2.6,0.4-5.3,0.7-7.9,1.1
			c-1,0.1-4.8,1.1-5.9,0.9c24.1,19.6,51,42.2,69.7,56.9c5.8,4.5,10.8,8.3,14.7,11c15,10.3,52.2,38.8,69.7,52.3c0,0,0,0,0.1,0
			c6.9-7.6,12.5-15.3,17.3-22.9l0,0C964.5,691.6,947.9,680.4,932.5,669z"/>
		<path fill="#8E9A98" d="M852.3,595.1c-1.8,0.1-3.5,0.2-5.3,0.3c22.8,17.2,53.7,40.6,80.7,61c20.1,15.2,38,28.8,48.9,37
			c0.9-1.6,1.8-3.1,2.6-4.6c0,0,0,0,0-0.1L852.3,595.1z"/>
		<path fill="#667276" d="M782.9,604.9c-0.1,0.6-0.3,1.2-0.4,1.9c0.6-0.3,1.2-0.6,1.9-0.8C783.8,605.7,783.3,605.3,782.9,604.9z"/>
		<path fill="#1F2328" d="M821.9,587c-13.1,2-22.1,4.2-28.1,6.5c0.1,0.1,0.1,0.1,0.2,0.2c6.6-1.7,13.2-3.6,19.9-5
			C816.4,588.1,819.2,587.5,821.9,587z"/>
		<path fill="#1F2328" d="M834.2,585.6c0.6-0.1,2.4-0.2,4.4-0.4l-0.3-0.2h-0.1c-1.5,0.2-2.9,0.3-4.4,0.5l0.1,0.1
			C834,585.6,834.1,585.6,834.2,585.6z"/>
		<path fill="#2A2D33" d="M758.2,583.5c-0.6,2.9-5.4,5.3-12.7,6.2c-9.7,1.2-14.1-1.8-14.4-4.9c-0.2-2,0.8-3.7,2.6-5.1v-0.1
			c-2.6,1.5-4,3.7-3.8,6.3c0.3,3.3,4.9,6.5,15,5.2c8-1,13.7-1.1,13.3-7.2C758.2,583.8,758.2,583.6,758.2,583.5z"/>
		<path fill="#2A2D33" d="M733.5,581.5c0-0.1,0-0.3,0-0.4C733.5,581.2,733.5,581.4,733.5,581.5c0.3,3.2,4.6,6.2,14.4,5
			c4.5-0.6,8-1.7,10.2-3.2v-0.1c-2.2,1.5-5.8,2.6-10.2,3.2C738.2,587.6,733.8,584.6,733.5,581.5z"/>
		<path fill="#697DB0" d="M733.5,581.6c0-0.2,0-0.4,0-0.5c0-0.4,0.1-0.9,0.2-1.3c-1.8,1.4-2.8,3.1-2.6,5.1c0.3,3.1,4.7,6.1,14.4,4.9
			c7.2-0.9,12.1-3.3,12.7-6.2c0-0.1,0-0.1,0-0.2c0,0,0,0-0.1,0c-2.2,1.5-5.8,2.6-10.2,3.2C738.1,587.7,733.8,584.7,733.5,581.6z"/>
		<path fill="#93ABEC" d="M733.5,581.1c0,0.2,0,0.3,0,0.4c0.3,3.1,4.7,6.1,14.4,4.9c4.5-0.6,8-1.7,10.2-3.2h0.1c0-0.1,0-0.2,0-0.4
			c0-3-2.8-6.1-13.7-6.1c-4.4,0-8.4,1.1-10.8,2.9l0,0v0.1C733.5,580.2,733.5,580.6,733.5,581.1z"/>
		<path fill="#2A2D33" d="M1287.6,557.4L1287.6,557.4c4.6,0,8.3-1.6,8.7-3.6l-0.1-0.1C1295.8,555.7,1292.1,557.4,1287.6,557.4z"/>
		<path fill="#2A2D33" d="M1286.4,560.1c-6.1,0-11-2.4-11-5.3c0-2,2.4-3.8,6-4.7c-5,0.8-8.6,3.3-8.6,6.2c0,3.6,5.5,6.5,12.2,6.5
			s12.2-2.9,12.2-6.5c0-0.1,0-0.3,0-0.4C1296.1,558.3,1291.7,560.1,1286.4,560.1z"/>
		<path fill="#667AAB" d="M1295.5,551.7c0.5,0.5,0.8,1.1,0.8,1.7c0,0.1,0,0.3,0,0.4c-0.4,2-4.1,3.6-8.7,3.6c0,0,0,0-0.1,0s0,0-0.1,0
			c-4.8,0-8.7-1.8-8.7-4c0-1.9,2.8-3.4,6.6-3.9c-1.5,0.1-2.8,0.3-4.1,0.6c-3.6,0.9-6,2.7-6,4.7c0,2.9,4.9,5.3,11,5.3
			c5.3,0,9.7-1.8,10.8-4.2c0.2-0.4,0.2-0.7,0.2-1.1C1297.4,553.6,1296.7,552.6,1295.5,551.7z"/>
		<path fill="#93ABEC" d="M1278.8,553.4c0,2.2,3.9,4,8.7,4c0,0,0,0,0.1,0c4.6,0,8.3-1.7,8.6-3.7c0-0.1,0-0.2,0-0.3
			c0-0.6-0.3-1.1-0.8-1.7c-1.9-1.3-5-2.2-8.5-2.3c-0.5,0-1,0.1-1.5,0.1C1281.6,550,1278.8,551.5,1278.8,553.4z"/>
		<path fill="#2A2D33" d="M1214.6,674.2c9.7,7.9,18.8,14.7,24.5,18.8C1233.5,688.9,1224.2,682.1,1214.6,674.2L1214.6,674.2z"/>
		<path fill="#2A2D33" d="M1269.4,565.8c1,0.3,1.6,1.3,2,3.9c0.5,3.1,0.8,8.5,1.4,17.7c1.2,18.8,0.9,41.8-5.1,57.1
			c-3.5,8.8-8.8,24.9-21.4,40.4c-5.9-4.5-16.6-12.7-26.8-20.5l0,0c10.2,7.8,20.9,16,26.8,20.6c-0.9,1.1-1.8,2.2-2.8,3.3l0,0l0,0
			c-1.4,1.6-2.8,3.2-4.4,4.7c-4.7,4.5-10.1,8.9-16.5,12.9c-4.1-3.5-10.1-8.5-16.7-14.2v0.1c6.6,5.7,12.5,10.7,16.7,14.2
			c-1.4,0.8-2.9,1.7-4.3,2.5l0,0c-1.3,0.7-2.6,1.3-3.9,2l0,0l0,0l0,0l0,0c-3.4,1.7-6.9,3.3-10.8,4.7c-3.8,1.4-7.5,2.6-11.2,3.7l0,0
			c0,0,30.5-6.9,47.3-18.4s25.1-33,33.1-56.7s6.5-50.3,6.1-62.8C1278.4,568.9,1275.1,566.9,1269.4,565.8z"/>
		<path fill="#292929" d="M1214.3,710.5c-12.8-10-52.1-40.8-66.1-51.3c-14.6-10.9-43.8-35.3-69.7-56.5h0.1l0,0h-0.1
			c0,0-0.1,0-0.1-0.1c-2.6,1.2-4.9,2.5-7.2,3.7c0.5,7.1,1.7,21.4,7.6,44.6c7.6,29.9,19.5,48.4,29.4,61.3
			c9.1,11.8,42.7,18.9,84.1,6.7c3.7-1.1,7.4-2.3,11.2-3.7C1207.4,713.8,1210.9,712.2,1214.3,710.5z"/>
		<path fill="#292929" d="M1214.3,710.5L1214.3,710.5L1214.3,710.5z"/>
		<path fill="#292929" d="M1093.3,596.5l-11.8,4.8c15.1,12.3,45.5,36.9,63.2,50.9c20,15.7,59.7,45.9,73.4,56.3
			c1.5-0.8,3-1.7,4.3-2.5c-4.1-3.5-10-8.6-16.7-14.2c-14.6-12.4-32.7-27.8-43.8-37.2C1143.5,638.9,1124,621.1,1093.3,596.5z"/>
		<path fill="#292929" d="M1178.7,637.2L1178.7,637.2c-4.9-4.1-11.4-9.5-18.8-15.6c-3.1-2.5-6.3-5.2-9.6-7.9
			c-4-3.3-8.1-6.7-12.3-10.1c-1.4-1.1-2.8-2.3-4.2-3.4c-4.8-4-9.7-8-14.4-11.8l-8.6,2.3c6.7,5.4,14.9,12,22.1,17.6
			c15,11.7,60.6,48.3,77.7,62.7c1.3,1.1,2.6,2.2,3.9,3.2c9.6,7.9,18.9,14.7,24.5,18.8c1.6-1.5,3-3.1,4.4-4.7l0,0
			C1230.4,678.2,1191.2,647.9,1178.7,637.2z"/>
		<path fill="#292929" d="M1266.6,569.6c-0.6,0-1.1,0-1.7,0c-1.7,0-3.5,0-5.4,0s-3.8,0-5.8,0c-4.6,0-9.5,0.1-14.6,0.3
			c-0.7,0-1.5,0-2.2,0.1c-1.5,0.1-2.9,0.1-4.4,0.2c-0.7,0-1.5,0.1-2.2,0.1c-1.5,0.1-3,0.2-4.5,0.2c-0.8,0-1.5,0.1-2.3,0.1
			c-2.3,0.1-4.5,0.3-6.8,0.5c-0.8,0.1-1.5,0.1-2.3,0.2c-1.5,0.1-3,0.3-4.5,0.4c-1.5,0.1-3,0.3-4.5,0.5c-21.2,2.5-53,7.5-82.4,15.3
			c4.3,3.5,9.2,7.5,14.4,11.7c14,11.4,48.9,40.3,65.5,52.7c4.7,3.5,10.5,7.9,16.5,12.5c10.2,7.8,20.9,16,26.8,20.5
			c12.6-15.5,17.9-31.6,21.4-40.4c6-15.3,6.3-38.3,5.1-57.1c-0.6-9.2-0.9-14.6-1.4-17.7c-0.5,0-1,0-1.5,0
			C1268.8,569.7,1267.7,569.6,1266.6,569.6z"/>
		<path fill="#1F2328" d="M1086.3,590.9c-4.3,2.1-7.9,4.1-10.5,5.8c0.1,0.1,0.2,0.1,0.2,0.2c3.4-2.1,7-4,10.6-5.7
			C1086.5,591.1,1086.4,591,1086.3,590.9z"/>
		<path fill="#1F2328" d="M1073.4,598.5L1073.4,598.5L1073.4,598.5L1073.4,598.5z"/>
		<path fill="#1F2328" d="M1073.1,598.7c-1.5,1.3-2.4,2.4-2.3,3.2c0.1,0.9,0.2,2.4,0.3,4.4c2.3-1.3,4.7-2.5,7.3-3.7
			c-0.3-0.3-0.6-0.5-0.9-0.7L1073.1,598.7z"/>
		<path fill="#1F2328" d="M1108.9,581.8c0.5-0.2,1.1-0.4,1.7-0.7c0,0-0.1,0-0.1-0.1l0,0c-2.8,1-5.5,2-8,2.9c0.1,0.1,0.2,0.2,0.3,0.3
			C1104.9,583.4,1106.9,582.6,1108.9,581.8z"/>
		<path fill="#1F2328" d="M1126.3,586.5l-3.4,0.9c0,0,0,0,0.1,0.1h0.1c29.4-7.8,61.3-12.8,82.4-15.3c1.5-0.2,3-0.3,4.5-0.5
			c1.5-0.1,3-0.3,4.5-0.4c0.8-0.1,1.5-0.1,2.3-0.2c2.3-0.2,4.5-0.3,6.8-0.5c0.8,0,1.5-0.1,2.3-0.1c1.5-0.1,3-0.2,4.5-0.2
			c0.7,0,1.5-0.1,2.2-0.1c1.5-0.1,3-0.1,4.4-0.2c0.7,0,1.5-0.1,2.2-0.1c5.1-0.2,10-0.3,14.6-0.3c2,0,3.9,0,5.8,0s3.7,0,5.4,0
			c0.6,0,1.1,0,1.7,0c1.1,0,2.2,0,3.3,0c0.5,0,1,0,1.5,0c-0.4-2.6-1-3.6-2-3.9c-0.2-0.1-0.4-0.1-0.6-0.1c-2.7-0.3-35.5-6.6-67.5-4.3
			c-20.8,1.4-46.6,6.2-77.5,15.4c-2.1,0.6-4.2,1.2-6.2,1.9L1126.3,586.5z"/>
		<path fill="#8E9A98" d="M1144.8,652.2c-17.8-14-48.1-38.5-63.2-50.9l-1.8,0.8c-0.4,0.2-0.8,0.4-1.1,0.6h-0.1
			c25.9,21.2,55.1,45.6,69.7,56.5c14,10.5,53.3,41.3,66.1,51.3l0,0l0,0l0,0c1.3-0.7,2.6-1.3,3.9-2l0,0
			C1204.5,698.1,1164.8,667.9,1144.8,652.2z"/>
		<path fill="#8E9A98" d="M1210.7,671c-17.1-14.3-62.7-51-77.7-62.7c-7.2-5.6-15.5-12.2-22.1-17.6l-17.5,5.8
			c30.7,24.6,50.1,42.4,68.7,58c11.1,9.4,29.2,24.8,43.8,37.2c6.7,5.7,12.6,10.7,16.7,14.2c6.4-4,11.8-8.4,16.5-12.9
			c-5.6-4.1-14.8-10.8-24.5-18.8C1213.3,673.2,1212,672.1,1210.7,671z"/>
		<path fill="#8E9A98" d="M1137.5,599.3c-5.3-4.3-10.3-8.4-14.5-11.8c0,0,0,0-0.1-0.1l-3.5,0.9c4.7,3.9,9.6,7.9,14.4,11.8
			c1.4,1.1,2.8,2.3,4.2,3.4c4.2,3.4,8.3,6.8,12.3,10.1c3.3,2.7,6.6,5.4,9.6,7.9c7.4,6.1,13.9,11.5,18.7,15.6l0,0
			c12.5,10.7,51.7,41,64.8,51.1l0,0c1-1.1,1.9-2.2,2.8-3.3c-5.9-4.6-16.6-12.8-26.8-20.6c-6-4.5-11.8-9-16.5-12.4
			C1186.4,639.7,1151.5,610.7,1137.5,599.3z"/>
		<path fill="#1F2328" d="M1075.9,596.8c-0.7,0.4-1.3,0.9-1.9,1.3C1074.7,597.7,1075.3,597.3,1075.9,596.8
			C1076,596.9,1075.9,596.8,1075.9,596.8z"/>
		<path fill="#1F2328" d="M1078.6,602.7c0.3-0.1,0.6-0.3,0.9-0.4L1078.6,602.7l-1.1-0.8c0.3,0.2,0.6,0.5,0.9,0.7l0,0
			C1078.4,602.7,1078.5,602.7,1078.6,602.7C1078.5,602.7,1078.6,602.7,1078.6,602.7z"/>
		<path fill="#1F2328" d="M1102.8,584.2c-0.1-0.1-0.2-0.2-0.3-0.3c-6.1,2.4-11.6,4.7-16.2,7c0.1,0.1,0.2,0.2,0.3,0.3
			C1091.9,588.6,1097.4,586.4,1102.8,584.2z"/>
		<path fill="#1F2328" d="M1111.4,580.7c-0.3,0.1-0.6,0.2-0.9,0.3l0,0c0,0,0.1,0,0.1,0.1C1110.9,580.9,1111.1,580.8,1111.4,580.7z"
			/>
		<path fill="#1F2328" d="M1078.5,602.6l0.9-0.4l0.3-0.1l1.8-0.8l11.8-4.8h0.1l17.5-5.8l8.6-2.3l3.5-0.9l3.4-0.9l-8.7-7.8l-0.1-0.1
			c-1.5-0.1-4,1.1-6.1,2.1c-0.3,0.1-0.6,0.3-0.8,0.4c-0.6,0.3-1.2,0.6-1.7,0.7c-2,0.8-4,1.6-6.1,2.4c-5.5,2.2-10.9,4.4-16.2,7
			c-3.6,1.7-7.2,3.6-10.6,5.7l0,0c-0.7,0.4-1.3,0.8-2,1.2c-0.2,0.1-0.4,0.3-0.6,0.4h-0.1c-0.1,0-0.2,0.1-0.2,0.1l0,0l4.3,3.1
			L1078.5,602.6z"/>
		<path fill="#1F2328" d="M802.2,600.4L802.2,600.4L802.2,600.4c0.2,0.1,0.2,0.2,0.3,0.2l0,0c1.1,0.2,4.9-0.8,5.9-0.9
			c2.6-0.4,5.3-0.7,7.9-1.1c5.1-0.7,10.1-1.4,15.2-1.9c1.2-0.1,2.5-0.2,3.7-0.4c3.9-0.4,7.8-0.7,11.7-0.9h0.1
			c1.8-0.1,3.5-0.2,5.3-0.3c1.3-0.1,2.7-0.1,4-0.1l-0.2-0.2l-8.8-10.3c0,0-4.9,0.4-8.7,0.7c-2,0.2-3.7,0.3-4.4,0.4
			c-0.1,0-0.2,0-0.3,0c-0.4,0-0.9,0-1.4,0c-3.4,0.1-7.1,0.7-10.7,1.4c-2.8,0.5-5.5,1.1-8,1.7c-6.7,1.4-13.3,3.3-19.9,5l0,0
			c-0.4,0.1-0.8,0.2-1.2,0.3L802.2,600.4z"/>
	</g>
</g>
</svg>
