<?xml version="1.0" encoding="utf-8"?>
<!-- Generator: Adobe Illustrator 21.0.2, SVG Export Plug-In . SVG Version: 6.00 Build 0)  -->
<svg version="1.1" id="_x31_2_x5F_Eyewear_x5F_SunglassesRayBans"
	 xmlns="http://www.w3.org/2000/svg" xmlns:xlink="http://www.w3.org/1999/xlink" x="0px" y="0px" viewBox="0 0 2000 2000"
	 enable-background="new 0 0 2000 2000" xml:space="preserve">
	 <g id="back">
	 	<g>
	 		<path fill="#2A2D33" d="M1015.3,625.6c16.5-8,27.5-4.9,33.2,0s4.9,6.3,7,19.6s12.4,50.9,21.3,65.6c8.9,14.6,28.4,42.6,78.2,34.8
	 			c49.8-7.8-69.9-135.9-69.9-135.9l-70.8,2.8L1015.3,625.6z"/>
	 		<g>
	 			<path fill="#383838" d="M1311.5,554.8c-0.3-8.6-0.5-17-8.7-20.4s-61.1-6.6-106.7,0c-45.5,6.6-80.1,14.8-91,19.1
	 				s-38.8,21.5-51.3,24.4c-12.6,3-33.4-0.4-48.6-5.9c-15.3-5.5-65.5-23.6-131.8-24s-113.7,8.1-159.6,21.3c-1.1,0.3-2.1,0.6-3.2,0.9
	 				c5.1,13.5,9,26,9,26s8.9,2.3,12.3,6.3c3.4,4,5.1,9.4,8.8,28.5c3.8,19.1,6.5,53.6,32.3,93.5s40.2,50.1,58,55.5
	 				c10.2,3.1,22.3,6.2,30.8,8.3c7.4,0.2,14.3-0.2,20.8-0.6c22.4-1.4,65.3-5.1,90.9-34.3c25.5-29.2,31.1-48.3,39-68.6
	 				c8-20.4,8.3-34.8,10.5-46.3c2.3-11.5,4.9-21.1,20.2-22.2c15.7-1.1,18.9,17.3,20.8,28s11.5,67,36.2,86.3
	 				c24.7,19.2,45.7,19.8,77.4,15.9c34.2-4.2,77.4-23.7,95.6-55.5c18.8-32.7,20.3-59.7,20.9-66.9c3-35.4,2.6-54.1,2.6-54.1
	 				s8.5-0.5,12-2.4S1311.7,563.4,1311.5,554.8z"/>
	 			<path fill="#383838" d="M650.2,630.5c27-19.2,61.5-32,61.5-32l-6.3-26.8c-42.7,13.9-81.5,38.4-97.6,48.5
	 				C590.7,631,557.3,661,550.3,684s-5.5,41.7,0,46.2c1.9,1.5,4.4,2.2,7.2,1.7c4.9-10.9,11.1-21.8,19-31.3
	 				C606.5,664.4,623.2,649.8,650.2,630.5z"/>
	 			<path fill="#2A2D33" d="M773,724.5c-25.8-39.9-28.6-74.4-32.3-93.5c-3.8-19.1-5.4-24.5-8.8-28.5c-3.4-4-12.3-6.3-12.3-6.3
	 				s-3.9-12.6-9-26c-1.7,0.5-3.4,1.1-5.1,1.6l6.3,26.8c0,0-34.5,12.8-61.5,32s-43.8,33.9-73.8,70c-7.9,9.6-14.2,20.4-19,31.3
	 				c5.3-0.9,11.9-5.8,17.9-15.9c9.2-15.4,50.8-62.9,72.4-78.3s71.9-34.4,71.9-34.4s1.5,5.1,7.6,4.3c0,0,4.3,37.7,13.8,67.8
	 				s22.8,73.9,57,94.3c24.3,14.5,45.5,18.2,63.8,18.7c-8.5-2.1-20.6-5.2-30.8-8.3C813.2,774.6,798.8,764.4,773,724.5z"/>
	 		</g>
	 		<g>
	 			<g>
	 				<path fill="#2A2D33" d="M996.2,598.8c4.5,1.4,6.1,2.4,6.1,9.4c0,21.2-4.5,50.5-13.1,68S972,714.1,953,732.4
	 					s-50.2,32.3-80.2,24.9c-30-7.4,101.4-156.6,101.4-156.6L996.2,598.8z"/>
	 				<g>
	 					<path fill="#292929" d="M834.5,595.8c29.8,22.3,81.8,61.2,98,73.2c15.3,11.4,32,22.6,41.5,28.9c0.9-1.5,1.8-2.9,2.6-4.4
	 						c-25.6-19.4-90.3-68.4-130-98.3C842.6,595.3,838.5,595.5,834.5,595.8z"/>
	 					<path fill="#292929" d="M908.5,596.2c-12.3-0.7-33.8-2-56.7-1.3l127.4,93.9c11.3-21.4,15.5-41.4,17-55.9
	 						c1.2-11.4,1.4-19.5,1.1-24.9C977.4,604.8,930.3,597.5,908.5,596.2z"/>
	 					<path fill="#292929" d="M802.3,600.4c-6.5,1.5-12.5,3.3-17.9,5.6c25.1,19,109.7,82.8,131.4,98.4c14,10.1,25.8,18.5,33.6,24
	 						c2.6-2.5,5-5.1,7.3-7.7c-17.5-13.5-54.8-42.1-69.8-52.3C870.2,657,833.9,626.2,802.3,600.4z"/>
	 					<path fill="#292929" d="M785,681.3c9.8,48.5,33.6,59.9,43.7,64.1c10.1,4.2,66.7,29.6,110.5-7.5c2.4-2,4.7-4.1,6.9-6.2
	 						c-24.4-18.5-129.3-91-163.9-123.3C780,620.3,777.5,644.3,785,681.3z"/>
	 					<path fill="#1F2328" d="M802.3,600.4c-2.9-2.3-5.7-4.6-8.5-6.9c-6.7,2.5-9.5,5.1-10,7.1c-0.2,0.9-0.6,2.3-1,4.2
	 						c0.5,0.4,1,0.7,1.5,1.1C789.7,603.8,795.8,601.9,802.3,600.4z"/>
	 					<path fill="#1F2328" d="M846.6,595.1c-4.6-3.5-8.9-6.7-12.8-9.6c-4,0.5-7.7,0.9-11.2,1.5c3.3,2.5,7.3,5.5,11.9,8.9
	 						C838.5,595.5,842.6,595.3,846.6,595.1z"/>
	 					<path fill="#1F2328" d="M908.5,596.2c21.8,1.3,68.9,8.6,88.8,11.8c-0.3-6.6-1.1-9.2-1.1-9.2s-69.5-18.5-115.4-16.7
	 						c-16.8,0.7-30.8,1.7-42.6,2.9l13.5,9.9C874.7,594.3,896.2,595.5,908.5,596.2z"/>
	 					<path fill="#8E9A98" d="M784.3,606.1c-0.6,0.3-1.3,0.5-1.9,0.8c-0.1,0.5-0.2,1-0.3,1.5c34.5,32.3,139.5,104.8,163.9,123.3
	 						c1.1-1.1,2.2-2.1,3.3-3.2c-7.9-5.5-19.7-13.9-33.6-24C894,688.8,809.5,625,784.3,606.1z"/>
	 					<path fill="#8E9A98" d="M834.5,595.8c-11.2,0.9-22.2,2.3-32.2,4.6c31.6,25.7,68,56.6,84.6,68.1c15,10.3,52.3,38.9,69.8,52.3
	 						c6.9-7.6,12.5-15.3,17.3-22.9c-9.5-6.3-26.1-17.5-41.5-28.9C916.3,657,864.3,618.1,834.5,595.8z"/>
	 					<path fill="#8E9A98" d="M846.6,595.1c39.7,29.9,104.4,79,130,98.3c0.9-1.6,1.8-3.1,2.6-4.7l-127.4-93.9
	 						C850.1,595,848.3,595.1,846.6,595.1z"/>
	 					<path fill="#667276" d="M782.9,604.9c-0.1,0.6-0.3,1.2-0.4,1.9c0.6-0.3,1.2-0.6,1.9-0.8C783.8,605.7,783.3,605.3,782.9,604.9z"
	 						/>
	 					<path fill="#1F2328" d="M834.5,595.8c-4.5-3.4-8.6-6.4-11.9-8.9c-13.5,2-22.7,4.3-28.8,6.6c2.8,2.2,5.6,4.5,8.5,6.9
	 						C812.3,598.1,823.3,596.7,834.5,595.8z"/>
	 					<path fill="#1F2328" d="M851.8,594.9l-13.5-9.9c-1.5,0.2-3,0.3-4.5,0.5c3.9,2.9,8.1,6.1,12.8,9.6
	 						C848.3,595.1,850.1,595,851.8,594.9z"/>
	 				</g>
	 			</g>
	 			<g>
	 				<path fill="#2A2D33" d="M758.2,583.9c0.4,6.1-5.3,6.2-13.3,7.2c-10.1,1.3-14.7-1.9-15-5.2c-0.5-5.1,5.9-8.7,14-8.7
	 					C755.3,577.2,758,580.5,758.2,583.9z"/>
	 				<g>
	 					<path fill="#697DB0" d="M733.5,581.6c-0.1-0.7,0-1.3,0.2-1.9c-1.8,1.4-2.8,3.1-2.6,5.1c0.3,3.1,4.7,6.1,14.4,4.9
	 						c7.4-0.9,12.3-3.4,12.7-6.4c-2.2,1.5-5.8,2.6-10.3,3.2C738.1,587.7,733.8,584.7,733.5,581.6z"/>
	 					<path fill="#93ABEC" d="M744.5,576.7c-4.4,0-8.4,1.1-10.8,2.9c-0.2,0.6-0.3,1.3-0.2,1.9c0.3,3.1,4.7,6.1,14.4,4.9
	 						c4.5-0.6,8.1-1.7,10.3-3.2c0-0.1,0-0.2,0-0.4C758.2,579.8,755.4,576.7,744.5,576.7z"/>
	 				</g>
	 			</g>
	 			<g>
	 				<ellipse fill="#2A2D33" cx="1285" cy="556.3" rx="12.2" ry="6.5"/>
	 				<g>
	 					<path fill="#667AAB" d="M1295.5,551.7c0.5,0.5,0.8,1.1,0.8,1.7c0,2.2-3.9,4-8.7,4s-8.7-1.8-8.7-4c0-2.1,3.6-3.8,8.1-3.9
	 						c-0.2,0-0.4,0-0.6,0c-6.1,0-11,2.4-11,5.3s4.9,5.3,11,5.3s11-2.4,11-5.3C1297.4,553.6,1296.7,552.6,1295.5,551.7z"/>
	 					<path fill="#93ABEC" d="M1278.8,553.4c0,2.2,3.9,4,8.7,4s8.7-1.8,8.7-4c0-0.6-0.3-1.1-0.8-1.7c-1.9-1.3-5-2.2-8.5-2.3
	 						C1282.4,549.6,1278.8,551.3,1278.8,553.4z"/>
	 				</g>
	 			</g>
	 			<path fill="#2A2D33" d="M1268.8,565.7c6.1,1.1,9.6,2.8,10,15.3s1.9,39.1-6.1,62.8s-16.3,45.2-33.1,56.7
	 				c-16.8,11.5-47.3,18.4-47.3,18.4L1268.8,565.7z"/>
	 			<g>
	 				<path fill="#292929" d="M1078.5,602.6c-2.6,1.2-5,2.5-7.3,3.7c0.5,7.1,1.7,21.4,7.6,44.6c7.6,29.9,19.5,48.4,29.4,61.3
	 					c9.9,12.9,48.9,20.1,95.3,3c3.9-1.4,7.4-3,10.8-4.7c-12.8-10-52.1-40.8-66.1-51.3C1133.6,648.2,1104.3,623.8,1078.5,602.6z"/>
	 				<path fill="#292929" d="M1093.3,596.5c-4.2,1.5-8.2,3.1-11.9,4.8c15.1,12.3,45.5,37,63.3,50.9c20,15.7,59.8,46,73.4,56.3
	 					c1.5-0.8,3-1.7,4.4-2.5c-13.2-11.3-44.3-37.8-60.5-51.4C1143.5,638.9,1124,621.1,1093.3,596.5z"/>
	 				<path fill="#292929" d="M1119.4,588.3c-2.9,0.8-5.7,1.6-8.5,2.4c6.7,5.4,14.9,12,22.1,17.6c15,11.7,60.6,48.3,77.7,62.7
	 					c11,9.2,22,17.4,28.4,22c1.6-1.5,3-3.1,4.4-4.7c-13.1-10.2-52.3-40.5-64.8-51.1C1165.8,626.2,1141,606.1,1119.4,588.3z"/>
	 				<path fill="#292929" d="M1271.4,569.7c-16.2-0.3-42.1-0.2-65.9,2.5c-21.2,2.4-53.1,7.4-82.6,15.1c4.3,3.5,9.3,7.6,14.6,11.9
	 					c14,11.4,48.9,40.3,65.5,52.7c12.6,9.4,33.9,25.8,43.3,33c12.6-15.5,17.9-31.6,21.4-40.4c6-15.3,6.3-38.3,5.1-57.1
	 					C1272.2,578.2,1271.9,572.8,1271.4,569.7z"/>
	 				<path fill="#1F2328" d="M1093.3,596.5c-2.3-1.8-4.6-3.7-7-5.6c-4.3,2.1-7.9,4.1-10.5,5.8c1.5,1.2,3.4,2.7,5.6,4.5
	 					C1085.2,599.6,1089.2,598,1093.3,596.5z"/>
	 				<path fill="#1F2328" d="M1073.4,598.5c-1.7,1.4-2.7,2.6-2.6,3.4c0.1,0.9,0.2,2.4,0.3,4.4c2.3-1.3,4.7-2.5,7.3-3.7
	 					C1076.8,601.2,1075.1,599.9,1073.4,598.5z"/>
	 				<path fill="#1F2328" d="M1119.4,588.3c-3-2.5-6-5-8.9-7.3c-2.8,1-5.5,2-8,2.9c2.2,1.8,5.1,4.1,8.4,6.8
	 					C1113.7,589.9,1116.5,589.1,1119.4,588.3z"/>
	 				<path fill="#1F2328" d="M1205.5,572.2c23.8-2.7,49.7-2.8,65.9-2.5c-0.5-3.1-1.2-3.9-2.6-4c-2.7-0.3-35.5-6.6-67.5-4.3
	 					c-20.8,1.4-46.6,6.2-77.5,15.4c-3.5,1-6.9,2.1-10.1,3.2c2.1,1.7,5.3,4.3,9.2,7.5C1152.4,579.7,1184.3,574.7,1205.5,572.2z"/>
	 				<path fill="#8E9A98" d="M1081.5,601.3c-1,0.4-2,0.9-3,1.4c25.9,21.2,55.1,45.6,69.7,56.5c14,10.5,53.3,41.3,66.1,51.3
	 					c1.3-0.7,2.6-1.3,3.9-2c-13.6-10.3-53.4-40.6-73.4-56.3C1127,638.2,1096.6,613.6,1081.5,601.3z"/>
	 				<path fill="#8E9A98" d="M1133,608.3c-7.2-5.6-15.5-12.2-22.1-17.6c-6.1,1.8-12,3.7-17.5,5.8c30.7,24.6,50.1,42.4,68.7,58
	 					c16.2,13.7,47.3,40.2,60.5,51.4c6.4-4,11.8-8.4,16.5-12.9c-6.4-4.6-17.3-12.7-28.4-22C1193.6,656.7,1148,620,1133,608.3z"/>
	 				<path fill="#8E9A98" d="M1137.5,599.3c-5.3-4.3-10.4-8.5-14.6-11.9c-1.2,0.3-2.3,0.6-3.5,0.9c21.6,17.8,46.4,37.9,59.3,48.9
	 					c12.5,10.7,51.7,41,64.8,51.1c1-1.1,1.9-2.2,2.8-3.3c-9.4-7.3-30.6-23.6-43.3-33C1186.4,639.7,1151.5,610.7,1137.5,599.3z"/>
	 				<path fill="#1F2328" d="M1081.5,601.3c-2.2-1.8-4.1-3.3-5.6-4.5c-0.9,0.6-1.8,1.2-2.4,1.8c1.7,1.4,3.3,2.7,5,4.1
	 					C1079.4,602.2,1080.4,601.7,1081.5,601.3z"/>
	 				<path fill="#1F2328" d="M1110.9,590.7c-3.3-2.7-6.2-5-8.4-6.8c-6.1,2.4-11.6,4.7-16.2,7c2.4,1.9,4.7,3.8,7,5.6
	 					C1098.9,594.4,1104.8,592.5,1110.9,590.7z"/>
	 				<path fill="#1F2328" d="M1122.9,587.4c-3.9-3.2-7.1-5.8-9.2-7.5c-1.1,0.4-2.1,0.7-3.2,1.1c2.9,2.4,5.8,4.8,8.9,7.3
	 					C1120.6,588,1121.7,587.7,1122.9,587.4z"/>
	 			</g>
	 		</g>
	 	</g>
	 	<path fill="#1F2328" d="M1078.5,602.6l14.9-6.1l17.5-5.8l15.4-4.2l-8.8-7.9c-2.2-0.1-6.4,2.4-8.6,3.2c-12.3,4.8-24.7,9.7-35.8,16.9
	 		L1078.5,602.6z"/>
	 	<path fill="#1F2328" d="M792.8,594l9.5,6.5c0.7,0.5,5-0.7,6.1-0.8c2.6-0.4,5.3-0.7,7.9-1.1c5.1-0.7,10.1-1.4,15.2-1.9
	 		c8.3-0.9,16.5-1.5,24.8-1.7l-9-10.5c0,0-11.2,0.9-13.1,1.1c-6.5,0-14,1.7-20.3,3.1C806.8,590.2,799.8,592.2,792.8,594z"/>
	 </g>

</svg>
