<?xml version="1.0" encoding="utf-8"?>
<!-- Generator: Adobe Illustrator 21.0.2, SVG Export Plug-In . SVG Version: 6.00 Build 0)  -->
<svg version="1.1" id="_x31_3_x5F_Eyewear_x5F_SunglassesAlienEyes"
	 xmlns="http://www.w3.org/2000/svg" xmlns:xlink="http://www.w3.org/1999/xlink" x="0px" y="0px" viewBox="0 0 2000 2000"
	 enable-background="new 0 0 2000 2000" xml:space="preserve">

<g>
	<path fill="#75D53C" d="M1270.8,547.4c2.1-57.5-17.3-101.8-30.5-111.4c-11.3-8.2-47,14.9-81,59.7c-36,47.3-77.6,124.2-77.6,124.2
		l-75,0.6c-12-16.7-63.1-72.2-100.8-97.9C868.1,496.9,800,454.4,773.3,462c-26.6,7.6-31.8,32-31.6,72.3s13.9,66.5,13.6,66.7
		c6.3,17.4,24.9,66.2,44.7,97.4c24.9,35.8,58.9,54,65.7,57.6c8.4,4.5,65.8,37.2,107.7,8c42-29.2,42.4-84.2,42.4-84.2
		c26.4-2.1,49.8,2.2,49.8,2.2c-2.3,30.5,17.8,97.6,85.6,63.3c67.8-34.3,88.3-96.3,94.8-114.8s7.6-15.5,17-20.2
		c10.3-5.2,33.8-22.8,33.8-22.8v-28C1289.9,551.5,1270.8,547.4,1270.8,547.4z"/>
	<path fill="#549B35" d="M783.9,669.6c22.8,55.2,73.2,82.1,81.7,86.7s65.8,37.2,107.7,8s42.4-84.2,42.4-84.2
		c26.4-2.1,49.8,2.2,49.8,2.2c-2.3,30.5,17.8,97.7,85.6,63.3c53.3-27,77.3-71,88.4-97.6c-17,23.5-27.5,37.9-44.6,57.2
		c-20.2,22.9-52.3,36.8-64.9,37.7c-12.7,0.9-31.3,4.4-45.6-13.7c-14.3-18-13.6-41.2-13.1-53.9c0.5-12.8,4.1-26.7,4.7-29.9
		s-1.1-1-4.9,8.3c-3.7,9.2-7.1,16.2-7.1,16.2c-18.8-1-44.2-0.3-44.2-0.3s-3.2-14.4-6.2-20.4c-2.9-6-2.5-2.3-1.8,7.6
		c0.7,9.9,2,25.6,0,36.5s-8.1,27.3-17.8,44.7s-21.4,23-40.8,28.2c-19.3,5.2-36,4.9-59.4-3.8s-38.4-20-64.3-43.8
		c-26-23.8-40-53-47.4-67.6s-22.5-53.5-30.3-92.5s1.4-68.3,4.4-78.8c2.9-10.1,11.1-15.3,11.6-15.6c-22,9.2-26.4,32.9-26.2,70.4
		c0.2,40.4,13.7,66.5,13.7,66.5s5.3,16.5,11.8,32.8s9.8,25.9,9.8,25.9"/>
	<path fill="#549B35" d="M1267.2,577.7c0.8,4.1,3.3-1.8,4.2-12.8c0.9-11,1.7-17,1.7-17l-2.2-0.5
		C1269.9,556.7,1266.4,573.7,1267.2,577.7z"/>
	<path fill="#549B35" d="M1262.1,595.8c-1.2,1.5-2.9,6.9-8.5,19c1.1-0.7,2.5-1.2,4.6-2.2c0-0.1,0.1-0.2,0.1-0.3
		C1262.6,600.4,1263.3,594.3,1262.1,595.8z"/>
	<path fill="#549B35" d="M1081.7,619.9h-2.9c-2.4,7.3-3.4,13.3-2.5,15.6C1077.5,638.3,1079.2,627.8,1081.7,619.9z"/>
	<path fill="#549B35" d="M1011.8,633.1c0.1-2-1-6.2-3-12.7h-2.1c0,0,0.2,0.8,1.4,6.8S1011.6,635.9,1011.8,633.1z"/>
	<path fill="#549B35" d="M969.8,735.5c21.7-19.4,26.1-32,18.6-62.8s-35.2-71.2-61.2-94.7s-59.7-61.3-95.2-78.7s-58-13.5-58.6,17.3
		C772.7,547.5,969.8,735.5,969.8,735.5z"/>
	<g>
		<path fill="#24184E" d="M804.3,642.7c26.3,59.5,51.3,75.1,72.7,87.9s55.3,26.1,80.7,13.1c25.3-13,39-40.6,25.3-71
			s-41.5-70-73.3-101S841.2,510.5,817,500s-43.2-0.5-43.7,16.7C772.8,533.8,776.3,579.3,804.3,642.7z"/>
		<path fill="#7F6DBF" d="M864.1,563c3.6,4.1,8.2,7.4,12.2,11.1c4.3,3.9,8.5,7.9,12.6,12c8.2,8.3,16.1,16.9,23.8,25.7
			c7.7,8.9,15.3,17.9,23,26.7c4.1,4.6,8.3,9.2,12.3,13.9c3.4,3.9,6.7,10.2,11.4,12.4c0.9,0.4,1.8-0.3,1.6-1.2
			c-1-4.8-5.8-8.9-8.7-12.7c-4-5.3-8-10.6-12-15.9c-7.4-9.5-15.1-18.7-22.9-27.9c-7.5-8.9-15.1-17.9-23.3-26.2
			c-7.9-7.9-16.4-17.4-26-23.1C864.8,555.9,861.7,560.2,864.1,563L864.1,563z"/>
		<path fill="#7F6DBF" d="M850,548.9c-6.8,5.2-17.6,0.7-22.8-4.7c-3.1-3.2-5.3-7.2-7.6-11c-1.5-2.4-3.2-5-3.7-7.7
			c-3.2-2.3-1.5-8.5,2.8-8.2c8.8,0.8,17.8,5.7,24.6,11.1C849,532.9,858.7,542.2,850,548.9z"/>
		<path fill="#7F6DBF" d="M840,560.8c-0.2-1.5-1.2-3-2.9-3c-0.2,0-0.4,0-0.5,0.1c-0.2-0.1-0.4-0.2-0.6-0.3c-0.2-0.1-0.5-0.1-0.8-0.1
			c-0.1,0-0.2,0-0.2,0c-0.3,0-0.7-0.2-1-0.3c-1.7-0.4-2.6,1.9-1.2,2.8c0.1,0.1,0.2,0.2,0.4,0.3c-0.1-0.2-0.1-0.3-0.2-0.5
			c0.2,0.3,0.3,0.5,0.5,0.8c-0.1-0.1-0.2-0.2-0.3-0.3c0,0.1,0.1,0.2,0.2,0.4c0,0.1,0.2,0.4,0.3,0.5c0,0,0,0,0,0.1l0,0
			c0.1,0.2,0.3,0.4,0.5,0.6c-0.1-0.4-0.2-0.8-0.2-1.2c0.2,0.6,0.5,1.2,0.8,1.9c-0.2-0.2-0.4-0.5-0.6-0.7c0.1,0.4,0.3,0.7,0.5,1
			c0.8,1,2,1.8,3.3,1.4c1.2-0.4,2.2-1.5,2.2-2.8C840,561.3,840,561,840,560.8z M838.3,559c-0.6-0.2-1.2-0.5-1.9-0.8
			c0.4,0,0.9,0.1,1.2,0.3C837.9,558.7,838.1,558.9,838.3,559z"/>
	</g>
	<path fill="#7F6DBF" d="M832.9,560c0.2,0.3,0.3,0.5,0.5,0.8c-0.1-0.1-0.2-0.2-0.3-0.3C833,560.3,832.9,560.1,832.9,560z"/>
	<path fill="#7F6DBF" d="M833.6,561.4L833.6,561.4L833.6,561.4L833.6,561.4L833.6,561.4z"/>
	<path fill="#7F6DBF" d="M833.9,560.9c0.2,0.6,0.5,1.2,0.8,1.9c-0.2-0.2-0.4-0.5-0.6-0.7C833.9,561.7,833.9,561.3,833.9,560.9z"/>
	<path fill="#549B35" d="M1298.6,587.7c-2.7,3.9-6,7-9.4,10c-3.4,2.9-7,5.5-10.7,7.8c-3.8,2.3-7.7,4.3-11.8,6.1
		c-4.1,1.7-8.4,3.2-13.2,3.7c2.9-3.8,6.1-6.9,9.5-9.7s7-5.4,10.7-7.7s7.6-4.3,11.7-6.1C1289.6,589.9,1293.9,588.4,1298.6,587.7z"/>
	<path fill="#7F6DBF" d="M838.3,559c-0.6-0.2-1.2-0.5-1.9-0.8c0.4,0,0.9,0.1,1.2,0.3C837.9,558.7,838.1,558.9,838.3,559z"/>
	<path fill="#B4F38E" d="M859.3,503.5c-3.4-0.7-6.7-2.6-9.8-4.2c-1.4-0.7-2.7-1.6-4-2.5l-0.1-0.1c-3-1.5-5.8-2.9-8.7-4.6h-0.1
		c-3.3-1.1-6.4-3-9.7-4.2c-3.6-1.3-7.4-2.4-11-3.7c-8-2.7-15.9-4.8-24.4-4.8c-4.1,0-8.1,0.4-12.2,0.7c-3.6,0.2-7.2,1.4-10.7,0.7
		c-2-0.4-2.7-2.9-1.8-4.5c3.5-6.6,14.4-8.5,21.2-8.2c9,0.3,18.3,3.7,26.6,7c3.7,1.5,7.3,3,10.7,4.9c0.4,0.2,0.8,0.4,1.2,0.7
		c3.6,1.5,7,3.5,10.2,5.3s6.3,3.8,9.4,5.9c2.4,1.7,6.5,5,6.5,5c0.2,0.1,0.4,0.3,0.6,0.4c2.3,1.5,4.8,2.3,7,3.9
		C861.4,502,860.7,503.8,859.3,503.5z"/>
	<path fill="#B4F38E" d="M1020.2,629.8c5.5,2.4,12.4,1.9,18.4,2.4c7.4,0.7,14.6,2.3,21.8,3.9c4.4,1,6.3-5.5,1.9-6.8
		c-7.1-2.1-14.5-3.2-21.8-3.9c-6.2-0.6-14.6-1.8-20.2,1.4C1019.2,627.5,1019,629.3,1020.2,629.8L1020.2,629.8z"/>
	<path fill="#B4F38E" d="M1215,454.9c5.2-3.1,10.2-6.5,16.2-7.7c3.6-0.7,6.7-0.6,9.4,2.2c2.1,2.3,3.8,5.1,5.4,7.8
		c3.6,5.7,6.7,11.3,8.8,17.8c2,6.1,2.3,13,4.6,19c0.4,1,1.7,0.8,1.8-0.2c0.9-8-2.8-17-5-24.6c-2.2-7.7-4.1-16.4-8.7-23.1
		c-8.7-12.5-29.3-5.4-35.8,5.8C1210.6,453.7,1213,456.1,1215,454.9L1215,454.9z"/>
	<path fill="#549B35" d="M1186.7,499.3c27.4-38.2,36.7-44.2,53.8-31.5c17.1,12.7,10.4,83.1,4,104.3s-36.8,140.9-110.9,154.6
		S1186.7,499.3,1186.7,499.3z"/>
	<path fill="#24184E" d="M1130,584.8c37.5-59.7,69.7-108.5,84.7-114.1s28.5-8.1,29.7,45.1c1.3,53.2-22.1,109.8-33,132.4
		s-36.7,66.7-77.9,78.6c-41.2,11.9-53.1-21.4-40.3-61.9C1106.1,624.4,1130,584.8,1130,584.8z"/>
	<path fill="#7F6DBF" d="M1220.1,482.2c0.1-0.8,0.3-0.6-0.4,0.2c-1,1.1-1.5,2.7-1.5,4.2c0,2.3,1,4.2,1.8,6.2
		c1.4,3.8,2.2,8.5,4.4,11.9c2.8,4.4,9.8,5,12.5,0c2.4-4.4,0.6-10.2-1.3-14.5c-1.8-4.1-4.5-9.1-9-10.4c0.9,0.5,1.8,1,2.7,1.6
		c-0.3-0.4-0.5-0.9-0.7-1.4C1226.4,475.6,1220.5,478.3,1220.1,482.2L1220.1,482.2z"/>
	<path fill="#7F6DBF" d="M1222.8,516.7c-1.1,1.1-1.4,2.8-0.8,4.3c0.3,0.9,0.8,1.6,1.7,2.2c1,0.6,2.2,0.6,3.3,0.2
		c1.9-0.8,3-3.3,1.7-5.2c-0.5-0.8-0.8-1.6-1.8-2c-0.7-0.3-1.4-0.5-2.2-0.4C1224,515.9,1223.3,516.2,1222.8,516.7L1222.8,516.7z"/>
	<path fill="#7F6DBF" d="M1230.4,536c-5.8,5.2-5.8,14.6-7.8,21.6c-2.5,9.1-6.1,17.9-9,26.8c-3.1,9.3-5.9,18.5-9.4,27.7
		c-1.7,4.4-2.3,8.7-3.6,13.1c-1.5,5-3.8,9.7-5.5,14.6c-0.4,1.2,1.4,1.6,1.8,0.5c1.9-4.5,3.3-9.2,5.3-13.7c2-4.6,4.7-8.6,6.4-13.3
		c3.3-8.9,7.4-17.5,11.1-26.3c3.3-7.8,6.9-15.6,9.3-23.8c1.1-3.7,1.8-7.6,2.3-11.4c0.7-4.8,1.8-8.8,3.2-13.4
		C1235.2,535.9,1232.1,534.4,1230.4,536L1230.4,536z"/>
</g>
</svg>
