<?xml version="1.0" encoding="utf-8"?>
<!-- Generator: Adobe Illustrator 21.0.2, SVG Export Plug-In . SVG Version: 6.00 Build 0)  -->
<svg version="1.1" id="_x31_3_x5F_Eyewear_x5F_SunglassesAlienEyes"
	 xmlns="http://www.w3.org/2000/svg" xmlns:xlink="http://www.w3.org/1999/xlink" x="0px" y="0px" viewBox="0 0 2000 2000"
	 enable-background="new 0 0 2000 2000" xml:space="preserve">
	 <g>
	 	<path fill="#75D53C" d="M755.3,601c-2.3,1.5-12.6,8-20.5,11.3c-3.5,1.4-15.9,6.3-33.9,14c-28.4,12-70.7,30.7-114.4,53.2
	 		c0,0-12.5,6.3-23.1,11.9c-10.6,5.6-11.6,3.5-18,17.2s-16.3,51.2-16.5,61.2s0.3,13,9.2,13s14.5-12.3,20.8-28.8s13.7-38,13.7-38
	 		l141.7-63.2l22-9.8c9.3,6,47.5,26.2,47.5,26.2l0.1,0.1l-0.1-0.2C783.8,669.1,760.6,615.5,755.3,601z"/>
	 	<path fill="#549B35" d="M772.5,661.8c-3.8-2.5-7.6-4.9-11.5-7.3c-3.9-2.4-7.7-4.9-11.6-7.2l-11.6-7.1c-0.7-0.4-1.6-0.5-2.5-0.2
	 		l-0.2,0.1c-28.4,11.5-56.6,23.5-84.5,36c-13.9,6.2-27.8,12.6-41.7,19.1s-27.7,13.2-41.4,20l-0.2,0.1c-0.5,0.2-0.9,0.7-1.1,1.3
	 		c-0.5,1.5-0.9,3-1.4,4.6l-1.6,1c-0.1,0-10.4,22-16.6,39.6c-4.1,11.8-7.8,14.4-17.3,15.5c0.7,4.1,2.9,5.5,8.9,5.5
	 		c8.9,0,14.5-12.2,20.8-28.8c5-13.1,10.6-29.1,12.8-35.3c13.5-5.3,26.9-10.8,40.2-16.4c14.1-5.9,28.2-11.9,42.2-18.1
	 		c27.6-12.1,54.9-24.7,82-37.9l10.8,5.4c4,2,8.1,4,12.2,6s8.2,4,12.3,5.9c4.1,1.9,8.2,3.8,12.4,5.7
	 		C780.1,666.7,776.3,664.2,772.5,661.8z"/>
	 </g>
</svg>
