<?xml version="1.0" encoding="utf-8"?>
<!-- Generator: Adobe Illustrator 21.0.2, SVG Export Plug-In . SVG Version: 6.00 Build 0)  -->
<svg version="1.1" id="_x31_4_x5F_Eyewear_x5F_SunglassesAviators"
	 xmlns="http://www.w3.org/2000/svg" xmlns:xlink="http://www.w3.org/1999/xlink" x="0px" y="0px" viewBox="0 0 2000 2000"
	 enable-background="new 0 0 2000 2000" xml:space="preserve">
<g>
	<path fill="#A45D2C" d="M713.4,588.8l-1.8,3.7l-3.2,6.5l-8.1-3c0,0,1.1-3.3,2.3-7.5c0.3-1.1,0.6-2.2,0.9-3.4
		c-0.2,0-0.4-0.1-0.5-0.1c-4.1-0.7-5.6,2.4-5.6,2.4l-2.1,3.9c0,0-12.3,4-25.1,10.6c-11.6,6-44.3,21.3-68.1,32.7l1.6,1.7
		c0,0,39.9-18.8,50.4-23.5s40.9-17.9,40.9-17.9s-0.6,1.9,1.9,3.5s12.9,5.6,12.9,5.6l7.6-13.4C717.1,590.5,715.5,589.7,713.4,588.8z"
		/>
	<path fill="#E57C2E" d="M695.1,591.1l2.1-3.9c0,0-33.1,12.9-51.1,21.5s-47.5,22.4-47.5,22.4l3.2,3.3c23.8-11.4,56.6-26.7,68.1-32.7
		C682.8,595.1,695.1,591.1,695.1,591.1z"/>
	<path fill="#E57C2E" d="M700.2,595.9l8.1,3l3.2-6.5c-1.5-0.7-4.4-2-9.1-4.1C701.4,592.5,700.2,595.9,700.2,595.9z"/>
	<path fill="#F1B27A" d="M711.6,592.4l1.8-3.7c-3.1-1.4-7.4-3.2-10-3.8c-0.3,1.2-0.6,2.3-0.9,3.4
		C707.1,590.4,710.1,591.7,711.6,592.4z"/>
	<path fill="#5E2316" d="M602,639.1c-5,4.2-20.6,12.9-28.6,19s-14.9,17-20.7,36.2c-5.9,19.2-12.1,27.3-18.8,22.2
		c-0.2-0.1-0.3-0.2-0.4-0.4c-6.3-5.5-1.2-19,3-29c4.2-10.2,10.8-24.5,17-32.2s25.3-16.8,33.7-21.3c8.3-4.5,13.2-7.4,14.3-6.4
		c1,1,2.3,3.5,3.5,5.7c0.1,0.2,0.3,0.5,0.4,0.7C606.7,636,607,634.9,602,639.1z"/>
	<path fill="#832A0F" d="M547.4,692.7c4.8-15.7,9.2-28.8,19.1-35.8c8.8-6.3,25-21.3,38.5-23.9c-1.2-2.2-2.4-4.8-3.5-5.7
		c-1.1-1.1-6,1.9-14.3,6.4s-27.5,13.7-33.7,21.3c-6.2,7.7-12.7,22-17,32.2c-4.1,10-9.3,23.6-3,29
		C541.2,709.2,543.7,704.8,547.4,692.7z"/>
	<path opacity="0.55" fill="#C8FFFA" enable-background="new    " d="M721.1,589.2c-0.4,0.7-0.8,1.5-1.2,2.2c1,0.7,2,1.5,3,2.2
		c0.7-0.8,1.3-1.7,2-2.5c-2-1.6-3.2-2.4-3.2-2.4L721.1,589.2z"/>
</g>

</svg>
