<?xml version="1.0" encoding="utf-8"?>
<!-- Generator: Adobe Illustrator 21.0.2, SVG Export Plug-In . SVG Version: 6.00 Build 0)  -->
<svg version="1.1" id="_x31_6_x5F_Eyewear_x5F_SunglassesSporty"
	 xmlns="http://www.w3.org/2000/svg" xmlns:xlink="http://www.w3.org/1999/xlink" x="0px" y="0px" viewBox="0 0 2000 2000"
	 enable-background="new 0 0 2000 2000" xml:space="preserve">
<g>
	<path fill="#203B81" d="M587.6,703.9c-16.6,10-16,10.2-20.4,19c-3.8,7.6-11.7,28.1-24.9,65.2c0.7,0.1,1.4,0.2,2.2,0.3
		c9.5,0.5,16.7-13.5,20.8-32.9s11.6-34.6,11.6-34.6s37.7-25.6,63.3-40.4c25.6-14.7,45.2-28,45.2-28l-4-6.5
		C681.3,645.9,604.2,693.8,587.6,703.9z"/>
	<path fill="#2A4CA9" d="M705,593.7c0.1,0,0.1,0,0.1-0.1c0-0.1-0.1-0.1-0.1-0.2c-4.5,2.6-10.1,6-18.7,10.8
		c-37.5,20.8-111.7,74-119.4,79.1s-7.3,9.7-12,22.8c-4.7,13.1-15.4,49.9-17.9,62.4c-2.2,11.4-2.1,17.9,5.2,19.3
		c9.2-7.3,25.4-53,29.2-60.6c4.4-8.7,4.6-10.6,21.3-20.7c16.6-10,81.8-50.5,81.8-50.5l10.8-3.9c0,0,10.3,15.2,28,20.3
		c4.8,1.4,9,2,12.4,2.2C708.4,654.8,703.5,623.4,705,593.7z"/>
</g>

</svg>
