<?xml version="1.0" encoding="utf-8"?>
<!-- Generator: Adobe Illustrator 21.0.2, SVG Export Plug-In . SVG Version: 6.00 Build 0)  -->
<svg version="1.1" id="_x31_4_x5F_Footwear_x5F_BunnySuit"
	 xmlns="http://www.w3.org/2000/svg" xmlns:xlink="http://www.w3.org/1999/xlink" x="0px" y="0px" viewBox="0 0 2000 2000"
	 enable-background="new 0 0 2000 2000" xml:space="preserve">
<g>
	<g id="Layer_23" opacity="0.3">
		<path fill="#091426" d="M708.2,1716.8c-2.1-0.1-6.3,2.7-8.3,3.4c-3,1.2-6,2.4-9,3.5c-6.2,2.4-12.7,4.1-19,6.3
			c-18.8,6.6-41,14.6-54.3,30.2c-6.3,7.4-10,17.7-7,27c4.7,14.5,21.7,19.9,34.8,23.8c19,5.8,38.1,7.5,57.9,7c20-0.5,40-2.5,59.3-7.6
			c-7.5,2-30.8,4.4-24.1,17.6c1.1,2.2,2.9,3.9,4.8,5.5c14,11.8,34.4,14.8,52.1,15.8c39,2.2,78-1,115.6-11.8
			c22.5-6.5,44.2-15.5,65.6-24.9l14-76.8C990.5,1735.9,708.2,1716.8,708.2,1716.8z"/>
		<path fill="#091426" d="M1036,1753.1c2.2-1.6,16.7,3.7,19.2,4.3c37.1,8.3,74.7,15.6,112.8,18.1c39.5,2.6,79.2,1.3,118.7-1.6
			c19.2-1.4,38.2-2.9,57.1-6.6c5.2-1,9.4-2.3,14.1-4.6c2.7-1.3,10.4-6.9,13.2-6.6l-284.8-40.2
			C1086.3,1715.9,1036.5,1752.8,1036,1753.1z"/>
	</g>
	<g>
		<path fill="none" d="M611.1,1576.1c-1.6,2-3.3,4-4.8,6.1C607.8,1580.2,609.4,1578.1,611.1,1576.1c4.5-5.4,7.6-10.3,10.5-13.7
			C618.6,1565.8,615.5,1570.7,611.1,1576.1z"/>
		<path fill="none" d="M648.4,1574.1c-8.8-11.7-12.5-15.2-16.7-15.9C635.9,1558.8,639.7,1562.4,648.4,1574.1
			c7.1,9.5,14.7,24.4,23.4,39.7C663.2,1598.5,655.6,1583.6,648.4,1574.1z"/>
		<path fill="none" d="M606.3,1582.3c1.5-2.1,3.2-4.1,4.8-6.1c4.5-5.4,7.6-10.3,10.5-13.7c-3,3.3-6.1,8.3-10.5,13.7
			C609.4,1578.1,607.8,1580.2,606.3,1582.3z"/>
		<path fill="none" d="M631.7,1558.2c4.3,0.7,8,4.2,16.7,15.9c7.1,9.5,14.7,24.4,23.4,39.7c-8.6-15.3-16.2-30.2-23.4-39.7
			C639.7,1562.4,635.9,1558.8,631.7,1558.2z"/>
		<path fill="#EFA6EF" d="M1426.5,1600.9c-3-5.6-6.1-10-7.1-20.6s-2.6-30.2-2.9-37.8s1.1-13.4-2-17.5s-5.1-7.1-10.5-12.8
			s-18.1-15.6-26-17.4s-18.6,5.6-28,22s-26,49.4-33.5,67.2s-17.8,43-17.8,43s-12.6-11.1-38.8-20.4c-8.8-3.1-15.8-5-21.2-6
			c-10.5-2.1-14.9-1.2-14.9-1.2c-2.9-4-6.8-6.9-6.8-6.9c6.2-7.2,5.6-19.3,0.9-26.6s-17.1-19.4-29.5-27.1c-4.7-2.9-9.4-5.2-13.5-7
			c-6.7-2.9-11.6-4.3-11.6-4.3s-1.4,12.1-5.1,16.1s-6.1,7.7-42.1,3.5c-4.6-0.5-8.7-1.1-12.5-1.8c-25.9-4.5-33.3-11.1-33.6-11.3
			c0,0-12.2,12.4-43.4,22.2c-0.2,0.1-0.5,0.1-0.7,0.2c-30.8,9.6-53.3,8.8-72.2,8.8c-4.2,0-8.4-0.6-12.5-1.4
			c-14.4-3-26.5-9.8-26.5-9.8l-0.4-6.5c-8.5,4.5-17.5,8-17.5,8c-4.8,7.4-5.2,17.3-5.2,17.3c-5.1,4.8-28.6,9.8-47.1,8.3
			c-18.6-1.5-14-12-14-12s-21-2.7-29.1-0.6s-7.8,8.4-7.8,8.4s-14.9-17.4-29.1-28.7s-41.2-20.4-65-13.2s-40,19.4-41.8,23.2
			c-0.8,1.8-1.1,3.1-0.3,3.9s2.9,1,6.8,0.5c7.4-0.9,25.8-0.8,32.9,1s22.8,13.1,34.9,27.5s19.6,24.1,19.6,24.1l-0.1,12.5v1.3
			c0,0-9.6,2.2-26.5,12.6c-1.9,1.2-3.6,2.2-5.2,3.2c-13,8.2-18.1,12-18.1,12s-1.1-2.1-2.9-5.5l0,0c-3.3-6.2-8.9-16.6-14.9-27.1
			c-9.2-16.3-19.3-33.8-25.8-43.6c-6.4-9.9-19.2-25.4-21-26.2c-1.8-0.8-4.2-1.5-16.8,0.2c-12.5,1.8-28.2,9.9-35.5,13.3
			c-7.2,3.3-9.5,5.5-12.8,10.9s-7,23-8.5,38.2s0.9,21,6.5,28.9s26.8,26.6,31.6,29c0.3,0.2,0.6,0.3,0.9,0.4c4,1.8,4.2,0.5,1.2-5.2
			c-0.6-1.1-1.2-2.6-1.9-4.3c-9-21.1-15.4-46.3-5.1-62.2c0-4.4,1.7-8.8,4.1-13.2c-2.4,4.4-4,8.9-4.1,13.2c1.4-2.7,2.4-4.8,2.4-4.8
			s40.7,45.1,53.4,54.9s36.4,16.4,36.4,16.4c-16.9,17.1-26,33.6-29.2,55.7s6.9,28.2,6.9,28.2c-6.3,0.5-21.9,7.9-28.4,20.1
			s-15.2,20.9,9.6,32.8c2.7,1.3,5.6,2.4,8.6,3.4c1,0.3,2,0.7,3.1,1c23.6,7,53,5.5,73.4,3.7c23.9-2.1,42.5-8.6,42.5-8.6
			c-1.7,13.4,8.8,27.7,32.1,34.3c1.1,0.3,2.3,0.6,3.5,0.9c0.9,0.2,1.8,0.4,2.7,0.6c22.4,4.8,49.9,3.8,70,0.9
			c22.1-3.2,56.8-11.4,92.6-30.4s57.6-38.5,70.8-50.2s21.8-26.6,21.8-26.6c31.1,10.9,106,26.5,151.1,28.9s62.7,3.1,95.6,2.5
			c19.2-0.3,29.8-2.7,38.3-5.4c1.3-0.4,2.5-0.8,3.7-1.2c4.5-1.6,8.5-3.1,13.3-4.4c3.9-1,6.6-2.3,8.3-3.9c4.8-4.2,1.8-9.9-6.5-15.2
			c-5.7-3.6-12.1-6.5-17.1-8.5c-4.9-1.9-8.4-2.9-8.4-2.9s0.8-12.3-1.9-25.5s-4.3-26.7-12.5-40.1c-3.8-6.3-7.3-10.3-9.8-12.8
			c-2.9-2.9-4.8-3.8-4.8-3.8s0.1,0,0.2-0.1c1.6-1,11.8-7.2,24.5-17.9c13.9-11.6,21.2-24.9,31.8-40c10.4-15,15.8-34.3,15.9-34.5l0,0
			c0,0,8.4,20.5,14.8,30.9s14.1,18.2,17,20.9S1429.5,1606.5,1426.5,1600.9z M611.1,1576.1c-1.6,2-3.3,4-4.8,6.1
			C607.8,1580.2,609.4,1578.1,611.1,1576.1c4.5-5.4,7.6-10.3,10.5-13.7C618.6,1565.8,615.5,1570.7,611.1,1576.1z M648.4,1574.1
			c-8.8-11.7-12.5-15.2-16.7-15.9C635.9,1558.8,639.7,1562.4,648.4,1574.1c7.1,9.5,14.8,24.4,23.4,39.7
			C663.2,1598.5,655.5,1583.6,648.4,1574.1z"/>
	</g>
	<path fill="#D969D9" d="M1355.6,1748.9c-4.2-7-9.2-8-9.2-8s1.3-6.4-0.5-7.1s-17.5-2.9-24.1-1.5s-6.9,4.1-6,4.8s3.4,0.5,9.4,1.1
		c6.1,0.6,15.9,3.2,23.3,8.2c6.7,4.5,6.8,7.7,5.7,15.4c1.3-0.4,2.5-0.8,3.7-1.2C1358.2,1757.8,1358.2,1753.2,1355.6,1748.9z"/>
	<path fill="#D969D9" d="M813.2,1824.9c1.9-5.8,3.4-10.9,14.7-14.9s26-11.4,29.2-12.6s1.7-3.5-7.6-4.7s-26.8,0-27.7,0.6
		s-3,15.5-3.8,17.2s-3.2,3.1-6.5,11.1c-2.5,6.3-1.1,15.9-0.4,19.9c0.9,0.2,1.8,0.4,2.7,0.6C812.3,1836,811.8,1829.4,813.2,1824.9z"
		/>
	<path fill="#D969D9" d="M689.7,1778c3.9-0.3,2.1-2.4,0-4.4s-18.4-9.4-20.5-10.2s-2.1,0.6-3.4,4.7s-0.7,17.8-0.7,19.5
		s-1.9,1.8-4.9,7.5c-2.6,4.9-3.8,11.5-3.6,15.3c1,0.3,2,0.7,3.1,1c0.1-8.7,1.5-15.7,8.3-22.1C675.6,1781.7,685.8,1778.3,689.7,1778z
		"/>
	<path opacity="0.3" fill="#091426" enable-background="new    " d="M1386.8,1540.4l-80.3,91.4c5.3,5.7,9.8,9.6,12.2,11.6
		c1.6-1,11.8-7.2,24.5-17.9c13.9-11.6,21.2-24.9,31.8-40c10.4-15,15.8-34.3,15.9-34.5l0,0L1386.8,1540.4z"/>
	<path opacity="0.3" fill="#091426" enable-background="new    " d="M1339.1,1726.3c0,0-4.8-0.1,16.8,2.4c-4.9-1.9-8.4-2.9-8.4-2.9
		s0.8-12.3-1.9-25.5s-4.3-26.7-12.5-40.1c-3.8-6.3-7.3-10.3-9.8-12.8c9.8,12.8,14.9,32,18.1,45.6
		C1344.5,1706.5,1342.4,1719.3,1339.1,1726.3z"/>
	<path opacity="0.3" fill="#091426" enable-background="new    " d="M1238.1,1761.9c-14-2.9-30-6.7-48.4-9.2s-31-14.6-33.9-22.4
		c-3-7.7-3.4-6.9,0.7-13.1s15.9-24.2,26.3-28.3s24.1-11.9,39.7-25.2s15.9-16.7,14.6-18.8c-1.4-2.1-20.2-14.3-39.2-27
		s-38.6-31.2-47.1-38.7c-8.6-7.5-8.6-7.8-11.1-7.6c-2.5,0.2,1,32.1,3.2,52.7s4.6,25.9,7.8,29.4c2.8,3,18,10.9,21.5,12.7
		c0.6,0.2,0.7,0.4,0.7,0.4s-0.3-0.1-0.7-0.4c-1.5-0.6-6.1-1.8-19-2.7c-17.8-1.2-19.5-2.3-26.1-7.6c-6.7-5.3-17.8-20.2-20.7-37.9
		s2-19.2,7.8-26.3c5.8-7.1,5.9-12.5,11.7-18.3c5.8-5.9,9.5-6.1,12.6-8.7c3.1-2.5-6-1.1-13.1,4.1c-7,5.2-4.4,7.8-15.1,17.6
		c-10.7,9.8-10,13.1-10,13.1s-7.7,1.5-17.2-6.8c-9.5-8.2-10.9-22.9-7.8-30.7c3.1-7.8,7.7-11.3,15.8-13.6c4-1.1,8.7-2.3,12.5-3.3
		c-25.9-4.5-33.3-11.1-33.6-11.3c0,0-12.2,12.4-43.4,22.2c-0.2,0.1-0.5,0.1-0.7,0.2c2.6,0.7,4.9,1.6,6.5,2.8
		c5.5,4.3,8.4,8.5,8.4,8.5s-10.4,6.6-18.8,12.1c-8.4,5.4-14.7,10.1-11.4,9.7s9.4-5.6,18.5-11c9.1-5.4,13.7-10.1,22-5.6
		s15.1,19.6,21,27.6s7.2,8.5,7.6,13.9s5.7,51.2,12.2,76c0,0-7-13.2-19.4-39s-16.5-48-17.7-56.8c-1.2-8.9-0.8-18-9.3-19.6
		c-8.5-1.5-18.2,10.6-26.1,16.6c-8,6-12.1,13.8-30.8,33.5s-21.8,26.5-32.9,37.8c-11,11.3-15.6,18.5-15.6,18.5s10.7,1.9,24.8,9
		s26,11.1,50.2,11.9c24.3,0.8,45.9,1.7,45.9,1.7s7.8,19.4,8.6,25.8s-6.8,15.8-21.9,28.2s-55.2,47-95.8,61.6
		c-40.7,14.6-77.4,17.9-107.3,13.9c-29.9-4-53.4-14.6-57.5-19.7c-4.2-5.1-3.4-10.1-2-11.5c1.4-1.5,8.2-4.6,14.4-8.2s1.1-2,12.1-3.7
		c10.9-1.7,39.4-9.5,39.4-9.5s-10.8,1.9-17.7-2.4c-6.9-4.4-3.4-10,4.1-9.1s21.1-4,13.7-18.5c0,0-5.8,5-11.4,2.2
		c-5.6-2.8-1.5-13.6,0-20s-1.4-22.1,12.1-50s24.5-45,46.6-53.7c22.2-8.7,31.2-7.6,54.7-6.6c23.4,1,29.7,1.6,11.4-3.2
		c-18.3-4.8-35.6-0.4-57.2-7.2s-8.8-14.3-3.7-16.5s15-10.9,33.4-13c18.4-2,23.2-5,12.9-4.6s-17.2,4.6-27.7,6s-12.3-6.8-9.3-12.9
		s7.3-10,16.8-7.8c7.4,1.7,10.1,1.4,11.6,0.2c-14.4-3-26.5-9.8-26.5-9.8l-0.4-6.5c-8.5,4.5-17.5,8-17.5,8
		c-4.8,7.4-5.2,17.3-5.2,17.3c-5.1,4.8-28.6,9.8-47.1,8.3c-18.6-1.5-14-12-14-12s-21-2.7-29.1-0.6s-7.8,8.4-7.8,8.4
		s11.7,10.7,23.4,28.4s25.6,37.7,30.5,48.4c4.9,10.7,8.7,13.4,5.3,14.5c-3.5,1-9.8-14.3-28.9-38.2c-19-23.9-36-48.8-61.6-69.2
		s-30-21.8-44.3-22s-34.6,3.5-49.7,12.9c-7.1,4.4-9.9,8-10.8,10.5c0.8,0.8,2.9,1,6.8,0.5c7.4-0.9,25.8-0.8,32.9,1
		s22.8,13.1,34.9,27.5s19.6,24.1,19.6,24.1l-0.1,12.5c2,1.1,3.5,1.8,4.4,2c9.8,2.9,14.1,4.1,19.4,8.8c5.3,4.8,22.6,17.7,22.6,17.7
		s-20.9,12.6-24.3,15.2c-3.4,2.6-4.8,4.4,3.7-0.8c8.6-5.2,14.7-9.5,21.9-9c0,0-9.3,4.9-17.1,10.6c-7.9,5.7-9.2,9.2-9.2,9.2
		s9.1,1.4,17,4.6s13.7,5.4,20.3,20.6s7.3,47.8,4.4,56.3c-3,8.5-27.5,29.4-44.5,37.4s-39.2,12.2-77.1,10s-40.1-6.2-44.1-13.1
		s0.8-18.9,2-22.9c1.2-4.1,8.4-10.5,12.9-12.3s5.8-2.8,13.4,0c7.6,2.8,9.3,5,9.2,3.5c0-1.5-10.3-5.5-14-16.1
		c-3.6-10.6-7-27.1,4.7-51.2c8.8-18,27.6-39.3,42.7-53.5c-13,8.2-18.1,12-18.1,12s-1.1-2.1-2.9-5.5c-2.7-0.9-6.5-4.9-13-14.5
		c-14.8-21.7-26.7-48.5-37.4-62.8c-10.8-14.3-13.9-16.5-19.9-16c-5.9,0.5-9.7,8.6-17.5,18c-7,8.5-14,18.2-14.1,27.4
		c1.4-2.7,2.4-4.8,2.4-4.8s40.7,45.1,53.4,54.9s36.4,16.4,36.4,16.4c-16.9,17.1-26,33.6-29.2,55.7s6.9,28.2,6.9,28.2
		c-6.3,0.5-21.9,7.9-28.4,20.1s-15.2,20.9,9.6,32.8c2.7,1.3,5.6,2.4,8.6,3.4c1,0.3,2,0.7,3.1,1c23.6,7,53,5.5,73.4,3.7
		c23.9-2.1,42.5-8.6,42.5-8.6c-1.7,13.4,8.8,27.7,32.1,34.3c1.1,0.3,2.3,0.6,3.5,0.9c0.9,0.2,1.8,0.4,2.7,0.6
		c22.4,4.8,49.9,3.8,70,0.9c22.1-3.2,56.8-11.4,92.6-30.4s57.6-38.5,70.8-50.2c13.2-11.7,21.8-26.6,21.8-26.6
		c31.1,10.9,106,26.5,151.1,28.9s62.7,3.1,95.6,2.5c19.2-0.3,29.8-2.7,38.3-5.4c1.3-0.4,2.5-0.8,3.7-1.2c4.5-1.6,8.5-3.1,13.3-4.4
		c3.9-1,6.6-2.3,8.3-3.9c-23.7,7.2-34.1,9.4-57,12C1295.3,1767.4,1252.1,1764.8,1238.1,1761.9z M1053.1,1636.4
		c-3.1,6-8.2,14.4-30.1,30.2c-21.9,15.7-38.1,16.6-38.1,16.6c20-7.4,30.7-14.5,47.7-28.3c0,0,10.7-10.1,18.3-19.6
		S1056.2,1630.4,1053.1,1636.4z M815.1,1677.1c-0.8-9.8-0.5-10.8,1.8-9.6c11.9,5.8,16.6,13.9,17.4,22s-3,45-5.5,52.8
		s-6.2,18.7-10.1,20.7c-3.9,2,0.3-7.1,0-20.7C818.4,1728.8,815.9,1686.9,815.1,1677.1z"/>
	<path opacity="0.3" fill="#091426" enable-background="new    " d="M1167.4,1534.1c5.5,3.8,17.1,5.5,28.8,17.9
		c11.7,12.4,17.9,28,6.2,34.8s-22.7,4.8-25.9,2.3s-6.1-1.9-1.3,2.3c4.8,4.3,25.5,6.6,25.5,6.6s-3.8-0.4-6.2,2.2
		c-2.4,2.6-1.8,0.7,10.6,0c6.7-0.4,21.5,0,33.7,0.5c-10.5-2.1-14.9-1.2-14.9-1.2c-2.9-4-6.8-6.9-6.8-6.9c6.2-7.2,5.6-19.3,0.9-26.6
		s-17.1-19.4-29.5-27.1c-4.7-2.9-9.4-5.2-13.5-7C1166,1530,1163.4,1531.3,1167.4,1534.1z"/>
	<path fill="#08FF17" d="M849.9,1748.5c0-0.1-0.1-0.1-0.1-0.2C849.8,1748.4,849.8,1748.4,849.9,1748.5z"/>
	<path fill="#08FF17" d="M849.8,1748.3c-0.1-0.2-0.2-0.4-0.3-0.5C849.6,1747.9,849.7,1748.1,849.8,1748.3z"/>
	<path fill="#08FF17" d="M849.5,1747.8c-0.2-0.3-0.3-0.6-0.4-0.9C849.2,1747.2,849.3,1747.5,849.5,1747.8z"/>
	<path fill="#08FF17" d="M851.1,1750.9c0,0-0.2-0.5-0.6-1.2C850.7,1750.1,850.9,1750.5,851.1,1750.9z"/>
	<path fill="#08FF17" d="M850.5,1749.8c0-0.1-0.1-0.1-0.1-0.2C850.5,1749.7,850.5,1749.7,850.5,1749.8z"/>
	<path fill="#08FF17" d="M850.4,1749.6c-0.2-0.3-0.4-0.7-0.6-1.1C850,1748.8,850.2,1749.2,850.4,1749.6z"/>
	<path fill="#08FF17" d="M849.1,1746.9c-0.3-0.6-0.6-1.1-0.8-1.5C848.5,1745.8,848.7,1746.3,849.1,1746.9z"/>
	<path fill="#08FF17" d="M1172.2,1666.4c0.5,0.2,0.7,0.4,0.7,0.4S1172.8,1666.6,1172.2,1666.4z"/>
	<path fill="#08FF17" d="M848.3,1745.4C847.6,1744,847.8,1744.4,848.3,1745.4L848.3,1745.4z"/>
	<path opacity="0.3" fill="#091426" enable-background="new    " d="M714.6,1743.8c-6.2,0.2-8.8,5.8-9.2,10.3s1.8,8.2,7.6,8
		s10-2.4,9.4-10.3S714.6,1743.8,714.6,1743.8z"/>
	<path opacity="0.3" fill="#091426" enable-background="new    " d="M876.8,1753.1c-4.8,3.2-5.8,5.3-5.4,11.6
		c0.4,6.3,4.4,8.7,8.5,8.5s7.7-2.8,9.9-6.4s1-9.9,1-9.9L876.8,1753.1z"/>
	<g>
		<path opacity="0.3" fill="#091426" enable-background="new    " d="M1295.4,1708.2c-2.3,4.4-3.2,9.5-1,12.8s5.6,6,10.3,2.6
			s6-5.3,4.4-12.1C1307.5,1704.7,1295.4,1708.2,1295.4,1708.2z"/>
		<circle fill="#24184E" cx="1302.1" cy="1710.3" r="7.8"/>
		<ellipse fill="#A28BC4" cx="1302.8" cy="1706.4" rx="2.6" ry="1.7"/>
		<circle fill="#A28BC4" cx="1303.2" cy="1711" r="0.9"/>
	</g>
	<g>
		<path opacity="0.3" fill="#091426" enable-background="new    " d="M1325.4,1706.1c-2.3,3.2-4.3,7.1-1.8,11.9s6.7,5.2,10.4,3.3
			s5-6.6,3.3-11.2C1335.5,1705.6,1325.4,1706.1,1325.4,1706.1z"/>
		<ellipse fill="#24184E" cx="1331.2" cy="1710.3" rx="6.9" ry="7.8"/>
		<ellipse fill="#A28BC4" cx="1332.7" cy="1706.4" rx="1.9" ry="1.7"/>
		<circle fill="#A28BC4" cx="1333.1" cy="1710.6" r="0.9"/>
	</g>
	<g>
		<path fill="#24184E" d="M891.5,1758.8c0,5.5-4,9.7-9,9.9c-7.8,0.4-9-4.4-9-9.9s4.3-10.5,9.3-10.5S891.5,1753.3,891.5,1758.8z"/>
		<ellipse fill="#AB94CD" cx="884.8" cy="1755.6" rx="2.2" ry="2.5"/>
		<circle fill="#AB94CD" cx="883.5" cy="1760.8" r="1"/>
	</g>
	<g>
		<path fill="#24184E" d="M851.6,1754.8c0.9-4.6-0.7-12-3.7-13.4c-3-1.3-5.5-0.6-9.4,4.7c-3.9,5.3-1.6,10.7,0.8,14.4
			c2.4,3.7,6.6,2.9,9.3,0.2S851.6,1754.8,851.6,1754.8z"/>
		<ellipse fill="#AB94CD" cx="846.8" cy="1748.2" rx="1.6" ry="2.7"/>
		<circle fill="#AB94CD" cx="845.6" cy="1754.9" r="1"/>
	</g>
	<path fill="#24184E" d="M717.5,1757.8c3.9-3,5.6-5.6,4.9-10.2c-0.7-4.7-4.1-6-7.9-4.6s-5.4,3.2-6.1,8.7c-0.7,5.5,1.1,7.1,2.9,7.9
		C713.1,1760.2,717.5,1757.8,717.5,1757.8z"/>
	<circle fill="#A58EC7" cx="719" cy="1747.7" r="1.8"/>
	<circle fill="#A58EC7" cx="717.7" cy="1753.2" r="0.8"/>
	<g>
		<path opacity="0.3" fill="#091426" enable-background="new    " d="M682.2,1737.6c-6.1,2.2-6.2,5.5-6.6,10.9s4.8,8,8.3,7.1
			s8.1-5.5,6.2-12.3S682.2,1737.6,682.2,1737.6z"/>
		<g>
			<path fill="#24184E" d="M687.3,1750.5c1.5-1.4,2.6-3.1,3.2-5c2.4-6.9,1.3-11.3-4.3-11c-6.2,0.3-8.2,4.7-9,8.8
				c-0.8,4.1,0.9,7.2,4.8,8.8C684,1752.8,685.9,1751.8,687.3,1750.5z"/>
			<circle fill="#A58EC7" cx="687.3" cy="1739.1" r="1.5"/>
			<ellipse fill="#A58EC7" cx="688" cy="1744.7" rx="0.7" ry="0.9"/>
		</g>
	</g>
	<path fill="#5B3889" d="M774.4,1681.1c9.2,3.4,16.2,1.5,22.6,1.1s12.9-5.4,12.9-5.4s0.7-10.5,0-12.5s-2.2-1.7-4.9-2.7
		s-4.2,3.4-10.1,6.7S774.4,1681.1,774.4,1681.1z"/>
	<path fill="#583687" d="M837.9,1672.3c-7.7-3.8-22.2-8.5-33.8-16s-24.3-17.2-32.4-25.3c-8.1-8.1-19.9-23.3-33.6-39.7
		s-15.9-20.2-28.9-27.3s-23.1-9.2-38.6-5.6s18.9-11.6,27.4-14s35.8-5.3,54.3,11.2c18.4,16.6,27.6,33.3,46,51.8s27.5,32.4,34.1,41.8
		s10.2,12.5,10.2,12.5L837.9,1672.3z"/>
	<path fill="#583687" d="M691.9,1666.1c2.2-3.1,6.9-6.3,6.9-6.3s-9.4-11.3-21.5-28.4s-23.2-32.7-31.1-43.9s-24.5-23.1-24.5-23.1
		l-15.8,21.6c0,0,8.3,10.8,19.8,23.2s19.4,22.1,31.2,32.4s17.9,14.7,23.9,18.1S691.9,1666.1,691.9,1666.1z"/>
	<path fill="#583687" d="M947.5,1680.6c17.9,3.4,45.5-3.5,64.1-15.9s29-24.2,33.9-32.2s11.2-15.2,11.2-15.2s-2.4-14.7-4.8-24.2
		s-1.9-12.7-1.9-12.7s-0.1-3.2-12.1,6.8s-24.3,27.4-47.8,50.5S947.5,1680.6,947.5,1680.6z"/>
	<path fill="#583687" d="M1235.3,1646.8c-6.3,1.7-22.4,3-45.2-4s-47-21.8-47-21.8s-1.7-23.8-2.7-35.2s-0.7-14.2-0.7-14.2
		s22.6,20.1,39.2,33.5c18.5,15,31.3,25.3,40.6,31.6C1228.8,1643.1,1235.3,1646.8,1235.3,1646.8z"/>
	<path fill="#583687" d="M1306.5,1631.8l9.7,8.3c0,0,17.2-12.3,32.6-31.1s23.8-35.1,31.5-52.4s6.5-16.2,6.5-16.2s-2.5-7.1-5.5-18.1
		s-1.9-15.9-2.7-18.1s-1.1-5.5-5.8,0.8c-4.7,6.3-11.2,18.3-26.1,44.7c-14.8,26.4-20.5,41.7-27.1,55.4
		C1313.1,1618.9,1306.5,1631.8,1306.5,1631.8z"/>
</g>
</svg>
