
<svg version="1.1" id="Layer_1" xmlns="http://www.w3.org/2000/svg" xmlns:xlink="http://www.w3.org/1999/xlink" x="0px" y="0px"
	 viewBox="0 0 2000 2000" enable-background="new 0 0 2000 2000" xml:space="preserve">
	 <g>
	 	<path fill="#EED897" d="M1396.5,693.3c-20.6-39.2-29.9-74.3-34.8-116.9c-7.8-67.2-40.2-130.3-100.4-175.8
	 		c-62.2-46.8-139.1-65.1-220.9-65.1c-78.4,0-172.9-7.5-210.2,64.7c-1,1.7-1,3.3-1,5c-0.5,5.4,2.9,10.4,10.8,10.4
	 		c2,0.4,3.9,0.4,5.9-0.4c152.4-7.5,210.2,147,258.7,242.2c50,98.5,189.6,174.9,316.5,140.3c4.9-1.3,9.3-5.4,8.8-10
	 		C1427.9,754.3,1412.7,723.8,1396.5,693.3z"/>
	 </g>
</svg>
