
<svg version="1.1" id="Layer_1" xmlns="http://www.w3.org/2000/svg" xmlns:xlink="http://www.w3.org/1999/xlink" x="0px" y="0px"
	 viewBox="0 0 2000 2000" enable-background="new 0 0 2000 2000" xml:space="preserve">

	 <g>
	 	<path fill="#EED897" d="M889.4,1011.7c-0.9-44.8-12.7-88.7-32.9-128.2c-22-42.6-55.8-74.6-88.3-108.9
	 		c-19.8-20.6-41.3-43.5-49.6-71.6c-9.2-31.2,0.9-64.5,8.8-95.3c13.2-52.2,29.9-105.4,71.6-141.8c3.5-3.1,4.4-9.2,1.8-13.2
	 		c-0.4-0.4-0.9-1.3-1.3-1.8c-3.5-5.3-11-7-15.8-3.5c-76.4-31.6-163.3-7.5-221.3,50.1c-65.9,65.4-90,158.9-94.8,248.5
	 		c-2.6,50.5-2.2,103.6,6.6,153.7c8.8,50.1,33.8,90.9,61,132.6c28.1,43,51.8,87.8,67.6,137c16.2,51.8,22,105.4,24.1,159.8
	 		c5.3,113.3,6.6,241.9-102.7,309.1c-9.2,5.7-5.3,20.2,5.7,20.6c79.9,3.1,169.5-13.2,226.1-74.6c66.3-71.6,61.9-174.3,70.3-265.2
	 		C836.7,1214.5,891.6,1117.5,889.4,1011.7z"/>
	 </g>
</svg>
