<?xml version="1.0" encoding="utf-8"?>
<!-- Generator: Adobe Illustrator 21.0.2, SVG Export Plug-In . SVG Version: 6.00 Build 0)  -->
<svg version="1.1" id="Layer_1" xmlns="http://www.w3.org/2000/svg" xmlns:xlink="http://www.w3.org/1999/xlink" x="0px" y="0px"
	 viewBox="0 0 2000 2000" enable-background="new 0 0 2000 2000" xml:space="preserve">
<g>
	<path fill="#9F592A" d="M590.9,758.6c-10.7,86.2-7.5,178,8.8,225.1c26.5,76.5,111.7,108.5,127.7,116s49.7,20.7,49.7,20.7
		s89.7-53.4,104-65s92-63.3,103-76.3s9.2-20.7,9.2-20.7s-66.3,3.4-107.2,1c-41-2.4-110.2-23.5-158.3-49.7
		c-48.2-26.2-96.8-86.3-110.3-103.3S590.9,758.6,590.9,758.6z"/>
	<path fill="#9F592A" d="M1174.2,1077.8c-14.6-10.5-46.5-43.7-46.5-43.7s-1.9-32.1-1.2-47.3c0,0-8,25.2-9.9,35.7
		c0,0-16.8-16.1-34.8-32.5s-26.1-27-30-31.8s3.4-12.7,6.5-16.4s61.8-11.1,115.8-44.3s71.4-44.9,93.5-73.8s25.1-36.2,25.1-36.2
		s4.4,20.6-5,71.2s-34.4,85.2-38.8,95.8s-34.8,56.9-45.2,76S1174.2,1077.8,1174.2,1077.8z"/>
	<path fill="#9F592A" d="M937.2,1079c-16.2,18.4-64.7,69.4-87.9,106.5c0,0,9.8,22.9,10,35.8s-2.4,16.8,1.8,15.1s24.9-39.3,43-66.6
		s22.8-49.4,22.8-49.4s-2.4,15.5-6,29.7s-8.2,20.6-1.5,16s15.1-33.9,20.6-53.2s6.9-23.3,6.9-23.3s2.2,11.2,1.3,22.2
		s-2.6,46.2-2.6,46.2s11-45.4,14-67.3s5.7-43.2,5.7-43.2S953.4,1060.6,937.2,1079z"/>
	<g>
		<g>
			<defs>
				<path id="SVGID_1_" d="M937.2,1079c-16.2,18.4-64.7,69.4-87.9,106.5c0,0,9.8,22.9,10,35.8s-2.4,16.8,1.8,15.1s24.9-39.3,43-66.6
					s22.8-49.4,22.8-49.4s-2.4,15.5-6,29.7s-8.2,20.6-1.5,16s15.1-33.9,20.6-53.2s6.9-23.3,6.9-23.3s2.2,11.2,1.3,22.2
					s-2.6,46.2-2.6,46.2s11-45.4,14-67.3s5.7-43.2,5.7-43.2S953.4,1060.6,937.2,1079z"/>
			</defs>
			<clipPath id="SVGID_2_">
				<use xlink:href="#SVGID_1_"  overflow="visible"/>
			</clipPath>
			<path opacity="0.3" clip-path="url(#SVGID_2_)" fill="#091426" enable-background="new    " d="M856.1,1160.9
				c11.7,17.3,19.3,31.1,19.3,31.1s2.3-17-0.8-29.2s-3.1-12.2-3.1-12.2l-2.7-5.8l5.3-6c0,0,4.3,11.2,5.9,18.2s2.2,15.4,2.2,15.4
				s1.9-20.1,0.7-29s-1.3-12.7-1.3-12.7l5.4-6.3c0,0,0.9,12.1,1.6,26.7c0.7,14.6-2.3,31.5-2.3,31.5s6.6-23.3,9.2-41.5
				c2.5-18.2,4.8-36.8,4.8-36.8l6.1-3.7c0,0-0.7,16.7-2,30.2s-3.3,23.4-3.3,23.4s8.9-25.4,14.6-42.4s8.2-29.6,8.2-29.6l15.3-16.1
				c0,0,1.4,17.6,1.4,21.2s5.2-14.2,4.3-24.9c-0.8-10.7,8.7-12,8.7-12l2,31.1l12.1-19v-36.4l-119.1,121.4L856.1,1160.9z"/>
			<path opacity="0.3" clip-path="url(#SVGID_2_)" fill="#091426" enable-background="new    " d="M926.8,1120.3
				c0.6-11.1,0.3-20.7,0.3-20.7s-9.7,46.3-21.8,68.1c-12.1,21.8,0,16.5,0,16.5s5-11.6,11.5-32
				C923.3,1131.9,926.8,1120.3,926.8,1120.3z"/>
		</g>
		<g>
			<defs>
				<path id="SVGID_3_" d="M590.9,758.6c-10.7,86.2-7.5,178,8.8,225.1c26.5,76.5,111.7,108.5,127.7,116s49.7,20.7,49.7,20.7
					s89.7-53.4,104-65s92-63.3,103-76.3s9.2-20.7,9.2-20.7s-66.3,3.4-107.2,1c-41-2.4-110.2-23.5-158.3-49.7
					c-48.2-26.2-96.8-86.3-110.3-103.3S590.9,758.6,590.9,758.6z"/>
			</defs>
			<clipPath id="SVGID_4_">
				<use xlink:href="#SVGID_3_"  overflow="visible"/>
			</clipPath>
			<path opacity="0.3" clip-path="url(#SVGID_4_)" fill="#091426" enable-background="new    " d="M1000,947.3l-3.4,35.7l-58.6,35.6
				c0,0-0.5-9.7-1.7-20.8s-1.5-16.3-2.8-16c-1.2,0.3-1.5,4.6-0.2,18.2s1.4,20.2,1.4,20.2l-3.4,2.9c0,0-1.7-34.1,0-44.5
				s1.5-14.7-0.2-12.6c-1.6,2.1-1.9,14.6-2.8,36.2c-0.8,21.6-0.2,22.2-0.2,22.2l-27.2,20.7c0,0,0.5-5.8-1.4-16.4s-6.8-22.6-8.6-23.3
				s0.2,4.9,3.8,19.2c3.7,14.3,2.6,21.3,2.6,21.3l-4,3.8c0,0-4.4-46.9-6.4-57.7s-4.2-17.1-6.1-18.6s-0.8,2,1.4,9.4
				s5.2,26.3,6.1,49.3c0.9,22.9-0.9,22.2-0.9,22.2l-14.1,12.1c0,0-7.1-25.9-10.9-42c-3.8-16.1-2.5-24.4-3.2-36.4s-1.8-5.5-2.1,9.7
				s2.2,24.9,5.7,44.9c3.5,20,6.4,23.7,6.4,23.7s-20.6,27-25.6,15.1s-22.6-34.1-31.1-48.9c-8.6-14.8-15.4-27.7-19.3-37.3
				c-3.9-9.6-6.2-7.4-0.5,4.9c5.8,12.3,11.6,27.1,21.5,40.6s22.1,35.6,22.1,35.6s-31.5-40.1-40.4-55.1s-25.9-35.6-29.5-46.5
				s-5.8-14-4.6-9.1c1.3,4.9,1.2,15,20.2,40.8s22.3,32.8,36.4,51.2c14,18.4,18.7,28.8,18.7,28.8l-29.5,20.7c0,0-51-43.7-79.6-66.6
				s-55.5-49.7-73-77.2s-29.2-49.4-37-74.3c-7.7-24.9-7.6-50-6.8-59.4s1.7-14,0.5-11.7c-1.2,2.4-3.1,5.9-3.4,22.7
				c-0.3,16.8,1.5,33.7,12.5,65.4s18.1,44.9,34.6,68.4s38.3,46.9,47.3,53.2c9,6.4,33.4,29.4,50.5,41.6s40.2,33.1,47.4,40.8
				c7.2,7.7,7.6,12.4,0,2.9s-29-26.4-41.1-36.1s-25.5-19.3-25.5-19.3s23.9,22.6,41.6,35.6c17.6,13,25,24.5,25,24.5l-2.1,1.1
				c0,0-15.6-14.5-29.2-25.5s-52.3-35-71.5-49.3s-39.5-31.7-52.6-49.4s-28.8-46.1-35.4-73.5s-7.2-40.4-6-56.5s-0.7-16.8-1.2-12.5
				s-2.2,17.8-1.9,31.5c0.4,13.7,6.6,43.4,15.3,67.4s18.1,38.9,31.6,54.5s47,45.2,70.3,60.9s44.1,28.4,44.1,28.4s-37.2-18.9-51-25.5
				s-33.2-17.9-48-30.7s-32.7-36.2-43.7-58.9s-18.5-53-20.3-73.2s-2.3-47.2-2.3-47.2s-2,16.5-1.8,38s6.7,42.7,15.2,68.4
				c8.4,25.7,24.2,47.6,24.2,47.6s-4.6-1.8-16.4-21.2s-21-54.1-25.5-82.4c-4.4-28.3,0.1-52.5,0.5-56.5c0.4-3.9-1.5-4.1-4.6,7.4
				c-3.1,11.4-5.4,25-5.4,25l-3.1-48.2c0,0,8.1-40.1,23.8-70.3L1000,947.3z"/>
		</g>
		<g>
			<defs>
				<path id="SVGID_5_" d="M1174.2,1077.8c-14.6-10.5-46.5-43.7-46.5-43.7s-1.9-32.1-1.2-47.3c0,0-8,25.2-9.9,35.7
					c0,0-16.8-16.1-34.8-32.5s-26.1-27-30-31.8s3.4-12.7,6.5-16.4s61.8-11.1,115.8-44.3s71.4-44.9,93.5-73.8s25.1-36.2,25.1-36.2
					s4.4,20.6-5,71.2s-34.4,85.2-38.8,95.8s-34.8,56.9-45.2,76S1174.2,1077.8,1174.2,1077.8z"/>
			</defs>
			<clipPath id="SVGID_6_">
				<use xlink:href="#SVGID_5_"  overflow="visible"/>
			</clipPath>
			<path opacity="0.3" clip-path="url(#SVGID_6_)" fill="#091426" enable-background="new    " d="M1074.3,992.3
				c3.5-26.1,5.2-33.9,10.7-44.8s9.6-17.7,6.5-9.8s-14,39.2-12.2,55.4s9.5,11.2,9.5,11.2s-1.2-0.6,0.5-25.5
				c1.8-24.9,3.6-38.4,5.2-40.5s0.7,9.4-1,22.2s0.5,47.2,0.5,47.2l16.5,18.5c0,0,0.6-20.4,9.5-42.8c8.9-22.4,13.7-32.2,18.2-33.7
				c4.5-1.4,6,1.2,2.3,7s-8.3,24.9-10.7,33.2c-2.3,8.2-6.3,32-6.3,32l-0.2,22.5l9,3.2c0,0-2-10.2,0.8-39.8
				c2.8-29.7,11.2-49.2,16.3-63.5s6-20.6,7.7-20.7c1.7-0.1,1.8,0.1-3.2,14.2c-4.9,14.1-12.7,43.6-15.3,63.5
				c-2.7,19.9-2.5,49.8-2.5,49.8l22,22.3c0,0-0.6-10.8,7.8-35.2c8.4-24.3,22.6-52.6,33.3-77.7s13.9-44.4,14.8-49.7s2.9,1.9,0.7,13.3
				c-2.2,11.4-4.2,26.3-15,49s-20,47.8-20,47.8s9.4-19.7,19.3-41.3c9.9-21.7,13.6-34,16.7-47s5.1-36.8,4.6-47s2-4.7,2.2,7.2
				c0.2,11.8,1.2,32.2-7.2,53.6s-10.2,31.4-24,59.5s-22.8,49.9-23.8,59.9c0,0,10.7-27.3,32-58.3c21.3-30.9,39.8-50.9,46.7-64.2
				c6.8-13.2,9.1-15.2,8-10.8c-1.1,4.3-3.8,10.7-3.8,10.7s14.2-14.7,21-28.5s21.2-41.9,1.8-26.5c0,0,8.2-21.3,11.2-37.8
				s9.6-20.2,10.5-25.5s-4.8-6.7-4.8-6.7l5.6-24.5l-4.1-14.7l-246.9,151.2l-5.3,30.8L1074.3,992.3z"/>
		</g>
	</g>
	<path fill="#9F592A" d="M488.2,989.3c7.3,16.3,15.5,22.3,47.6,35c32.1,12.7,67.5,17.4,82.5,28.6s18.7,11.2,19.5,23.7
		s1.2,13.9-3,22.5s2.6,2.7,6.1-4.2c3.5-6.9,8.8-17.9,2.1-31c-6.7-13.2-29.1-28.1-41.3-45.9c-12.2-17.8-19.9-51.4-21.6-76.2
		c-1.7-24.8,6.6-63.8,11.9-88.5c5.2-24.8,17.7-54.5,27.6-78.8c9.9-24.3,17.5-58.8,17.3-85.8c-0.3-26.9-6.5-54.7-11.7-70.6
		c-5.2-16-13.4-34.2-13.4-34.2s22.1-3.5,47.8-24.8s34.7-28.1,47.3-50.6c12.6-22.5,18.3-43.1,36.6-65.7
		c18.3-22.7,18.6-25.2,46.9-49.3s57.2-39.8,78.5-42.4c0,0-17.1,4.3-35.6,22.1c-18.5,17.9-28.4,31.6-31.9,52.5s1,49.5,8.9,65.7
		s21.7,30.2,41.2,34.2c19.4,4,49.1-4.7,69.2-4.4c20.1,0.3,30.9,2.3,42.5,6.5c11.7,4.2,13.7,5.2,16.7,9.4c3.1,4.2,3.7,6.8,4.9,5.6
		s1.7-10.6-10.1-16.9c-11.9-6.3-29.8-5.3-48.5-15.7C907.5,499.7,904,477.4,906,462s6.8-39.3,26.2-65.9s39.4-40.5,39.4-40.5
		s15.9,6.5,24.4,22.1s4.4,37.7,0.5,47.3c-3.8,9.6-6.4,33.1-2.8,40.8c3.6,7.7,12.5,14.5,17.6,15.7s11.9-1,12.9-1.7
		c1-0.8-5.8-2-13.8-6.3c-7.9-4.3-9.3-14-9.2-17.8c0.1-3.7,1.6-10.8,12.6-26.9c11-16,15.2-24.2,17.4-36.6
		c2.3-12.4-3.1-30.6-13.3-38.2c0,0,9.6,5.2,34.7,11s33.2,5.7,42.2,7.5s51.4,11.1,81.3,24.9c29.8,13.9,75.7,38.1,94.9,59.8
		c0,0,8.5,19.1,10.8,52.1c2.4,33,0.3,53.6-1.7,79.7s-9.5,65.4-11.3,81.4s-2,21.9-1,25.6c1,3.7,5.9,4.7,15.2,23.6
		c9.2,18.9,13.8,30.9,11.1,50.7c-2.8,19.8-5.6,27.6-5.6,27.6s1.7,9.7-0.4,26s-5.7,34.6-20.1,69.9s-18.2,45.9-31.5,82.7
		s-10.7,64.2-4.6,83.2s14.3,29.4,24.6,34.2c10.3,4.8,23.2,7.6,30,4.9s-3-2.3-14.6-5.4c-11.7-3.1-23.5-18.2-26.2-35.7
		s3-32.6,15.3-48.5c12.4-15.9,18.5-26.2,45.3-43.7s56.4-41.8,67.1-56.2s27.6-32.1,32.1-62.1s-8.5-65-15.9-82.7s-22.7-50.6-38.4-72.3
		c-15.7-21.7-30.4-49.5-40.1-70.3c0,0,6,5.1,16.6,3.8c10.5-1.3,9.5-6.8,5.8-6.6s-6.2,3.1-16.2-3.1s-11.9-13.4-12-27
		c-0.2-13.6,6.7-36.1,15.2-59.3s8.3-44.5,6.8-64.2s-9.3-57-16.4-72.7s-22.7-27.9-22.7-27.9s0.2-17.2-16.2-43.9s-40.8-37-68.2-38.9
		c-27.4-1.9-39.2-0.7-69.2,13.4s-78.8,33.3-78.8,33.3s36.2-17.1,49.3-33c13.2-15.9,26.8-38.1,25.6-65.9
		c-1.1-27.8-17.8-54.9-37.3-67.1c-19.5-12.2-36.4-24.1-65.1-27c-28.7-2.9-47.8,5.2-47.8,5.2s-12.6-17.5-46.2-18.3
		s-58.6,5-102.9,25.5c-44.3,20.5-76.9,58.9-76.9,58.9s14.8,10.3,25.3,19.9c10.5,9.6,17.4,17.4,17.4,17.4s-19.1,14.8-46.6,40.1
		s-62.6,63.3-83.5,95.9s-32.2,63.1-41.5,76.4s-18.5,21.1-18.5,21.1s-15.9,5.4-29.3-0.5c-13.4-5.9-22.6-16.5-23.2-32.1
		s3.7-22.8,9.8-30.3c6-7.5,8.1-6.1,10.6-4.9s4.3,3.6,4.7,0.9s-4.3-10.8-16.2-2.6c-11.9,8.2-22.1,24.8-25.3,35.6
		c-3.2,10.8-2.4,30.3,5.1,48c7.4,17.6,23,25.8,23,25.8s-13.2,2.8-26,20.8s-15.9,38.7-14.6,51c1.2,12.3,4.4,26.1,9.1,33.3
		s7.1,3.8,5.2-2.4c-1.9-6.3-3.7-20.7,3-28.2c0,0,3.1,19.2,6.5,39.4s6.1,45.2,8.2,68.2c2.1,23,3.7,35.6,3.7,35.6l-15.7,55.1
		c0,0-13.5,24.1-32.3,48.7c-18.7,24.7-24.5,45.1-32.3,70.5S488.2,989.3,488.2,989.3z"/>
	<g>
		<path fill="#9F592A" d="M1457.6,379.2c0.1,0,0.1-0.1,0-0.1S1457.5,379.2,1457.6,379.2L1457.6,379.2z"/>
		<g>
			<defs>
				<path id="SVGID_7_" d="M488.2,989.3c7.3,16.3,15.5,22.3,47.6,35c32.1,12.7,67.5,17.4,82.5,28.6s18.7,11.2,19.5,23.7
					s1.2,13.9-3,22.5s2.6,2.7,6.1-4.2c3.5-6.9,8.8-17.9,2.1-31c-6.7-13.2-29.1-28.1-41.3-45.9c-12.2-17.8-19.9-51.4-21.6-76.2
					c-1.7-24.8,6.6-63.8,11.9-88.5c5.2-24.8,17.7-54.5,27.6-78.8c9.9-24.3,17.5-58.8,17.3-85.8c-0.3-26.9-6.5-54.7-11.7-70.6
					c-5.2-16-13.4-34.2-13.4-34.2s22.1-3.5,47.8-24.8s34.7-28.1,47.3-50.6c12.6-22.5,18.3-43.1,36.6-65.7
					c18.3-22.7,18.6-25.2,46.9-49.3s57.2-39.8,78.5-42.4c0,0-17.1,4.3-35.6,22.1c-18.5,17.9-28.4,31.6-31.9,52.5s1,49.5,8.9,65.7
					s21.7,30.2,41.2,34.2c19.4,4,49.1-4.7,69.2-4.4c20.1,0.3,30.9,2.3,42.5,6.5c11.7,4.2,13.7,5.2,16.7,9.4c3.1,4.2,3.7,6.8,4.9,5.6
					s1.7-10.6-10.1-16.9c-11.9-6.3-29.8-5.3-48.5-15.7C907.5,499.7,904,477.4,906,462s6.8-39.3,26.2-65.9s39.4-40.5,39.4-40.5
					s15.9,6.5,24.4,22.1s4.4,37.7,0.5,47.3c-3.8,9.6-6.4,33.1-2.8,40.8c3.6,7.7,12.5,14.5,17.6,15.7s11.9-1,12.9-1.7
					c1-0.8-5.8-2-13.8-6.3c-7.9-4.3-9.3-14-9.2-17.8c0.1-3.7,1.6-10.8,12.6-26.9c11-16,15.2-24.2,17.4-36.6
					c2.3-12.4-3.1-30.6-13.3-38.2c0,0,9.6,5.2,34.7,11s33.2,5.7,42.2,7.5s51.4,11.1,81.3,24.9c29.8,13.9,75.7,38.1,94.9,59.8
					c0,0,8.5,19.1,10.8,52.1c2.4,33,0.3,53.6-1.7,79.7s-9.5,65.4-11.3,81.4s-2,21.9-1,25.6c1,3.7,5.9,4.7,15.2,23.6
					c9.2,18.9,13.8,30.9,11.1,50.7c-2.8,19.8-5.6,27.6-5.6,27.6s1.7,9.7-0.4,26s-5.7,34.6-20.1,69.9s-18.2,45.9-31.5,82.7
					s-10.7,64.2-4.6,83.2s14.3,29.4,24.6,34.2c10.3,4.8,23.2,7.6,30,4.9s-3-2.3-14.6-5.4c-11.7-3.1-23.5-18.2-26.2-35.7
					s3-32.6,15.3-48.5c12.4-15.9,18.5-26.2,45.3-43.7s56.4-41.8,67.1-56.2s27.6-32.1,32.1-62.1s-8.5-65-15.9-82.7
					s-22.7-50.6-38.4-72.3c-15.7-21.7-30.4-49.5-40.1-70.3c0,0,6,5.1,16.6,3.8c10.5-1.3,9.5-6.8,5.8-6.6s-6.2,3.1-16.2-3.1
					s-11.9-13.4-12-27c-0.2-13.6,6.7-36.1,15.2-59.3s8.3-44.5,6.8-64.2s-9.3-57-16.4-72.7s-22.7-27.9-22.7-27.9s0.2-17.2-16.2-43.9
					s-40.8-37-68.2-38.9c-27.4-1.9-39.2-0.7-69.2,13.4s-78.8,33.3-78.8,33.3s36.2-17.1,49.3-33c13.2-15.9,26.8-38.1,25.6-65.9
					c-1.1-27.8-17.8-54.9-37.3-67.1c-19.5-12.2-36.4-24.1-65.1-27c-28.7-2.9-47.8,5.2-47.8,5.2s-12.6-17.5-46.2-18.3
					s-58.6,5-102.9,25.5c-44.3,20.5-76.9,58.9-76.9,58.9s14.8,10.3,25.3,19.9c10.5,9.6,17.4,17.4,17.4,17.4s-19.1,14.8-46.6,40.1
					s-62.6,63.3-83.5,95.9s-32.2,63.1-41.5,76.4s-18.5,21.1-18.5,21.1s-15.9,5.4-29.3-0.5c-13.4-5.9-22.6-16.5-23.2-32.1
					s3.7-22.8,9.8-30.3c6-7.5,8.1-6.1,10.6-4.9s4.3,3.6,4.7,0.9s-4.3-10.8-16.2-2.6c-11.9,8.2-22.1,24.8-25.3,35.6
					c-3.2,10.8-2.4,30.3,5.1,48c7.4,17.6,23,25.8,23,25.8s-13.2,2.8-26,20.8s-15.9,38.7-14.6,51c1.2,12.3,4.4,26.1,9.1,33.3
					s7.1,3.8,5.2-2.4c-1.9-6.3-3.7-20.7,3-28.2c0,0,3.1,19.2,6.5,39.4s6.1,45.2,8.2,68.2c2.1,23,3.7,35.6,3.7,35.6l-15.7,55.1
					c0,0-13.5,24.1-32.3,48.7c-18.7,24.7-24.5,45.1-32.3,70.5S488.2,989.3,488.2,989.3z"/>
			</defs>
			<clipPath id="SVGID_8_">
				<use xlink:href="#SVGID_7_"  overflow="visible"/>
			</clipPath>
			<path opacity="0.35" clip-path="url(#SVGID_8_)" fill="#E8FFFA" enable-background="new    " d="M967.8,143.1
				c5.7,2.3,15.3,8.6,22.5,18.4c7.2,9.8,13.5,19,17.2,30.3s7.1,21.2,7.2,35.1c0,6.5-0.3,12-0.8,17.2c-0.6,5.9-1.3,11.5-2.1,17.5
				c0,0.1,0,0.2,0,0.2c0,0.2,0,0.4-0.1,0.5c0,0.2-0.1,0.5-0.1,0.7s-0.1,0.4-0.1,0.6c-1.4,8.7-3.3,16.4-5.2,22.9
				c-3,11.4-6.2,22.6-7.2,25.5v0.1c0,0.1-0.1,0.1-0.1,0.2v0.1v0.1c-1.6,4.1-3.6,8-5.6,11.5l0,0c1.4-1.1,6.2-7.7,10.7-15.5
				c3.4-7.4,6.4-16.3,10-28.2c8.3-28.3,7.9-55.2,3.6-75.3c-2.6-7.4-6-16.2-9-22.3c-1.8-3.7-4.7-9.3-7.8-14.8
				c-4.9-6.7-10.9-13.7-17.9-20.4c-5.9-4-12.6-7.6-16.4-8.7C963,137.8,962.1,140.8,967.8,143.1z"/>
			<path opacity="0.35" clip-path="url(#SVGID_8_)" fill="#E8FFFA" enable-background="new    " d="M844.4,354
				c0.7,0.1,1.3,0.3,2.1,0.3c8.7-3.8,16.9-6.6,23.7-8c-5.5,0.6-11,1.6-16.3,2.8C847.5,351.7,843.3,353.8,844.4,354z"/>
			<path opacity="0.35" clip-path="url(#SVGID_8_)" fill="#E8FFFA" enable-background="new    " d="M940.3,376.8
				c-6,6.6-13.6,15.2-17.1,21.3c-4.9,8.5-10.2,17.6-13.7,28.5s-0.8,22.6-0.8,22.6s7.9-15.6,18.2-41.2c10.3-25.7,13.8-27.5,24.2-36.9
				c2.8-2.6,5.1-4.5,6.9-6.1c-2.8,1.3-5.5,2.8-8.1,4.5C946.5,371.7,943.3,374.2,940.3,376.8z"/>
			<path opacity="0.35" clip-path="url(#SVGID_8_)" fill="#E8FFFA" enable-background="new    " d="M947.7,363.4
				c-3.6,2.4-7.1,5.1-10.4,8c-3.3,2.9-6.3,6-9.4,9.2c-3,3.2-6,6.4-8.9,9.7c-2.9,3.3-5.8,6.6-8.6,9.9c-2.3,2.7-4.4,5.5-6.6,8.3
				c-3.3,5.7-4.8,10.3-8,17.2c-5,10.8-3.9,18.1-4.5,32.9s0.6,19.8,6.3,32.1c5.8,12.3,14.3,17.6,22.7,22.2c3.6,1.9,7.4,3.4,10.6,4.5
				c6.4-0.2,12.5,0,18.2,0.4l-9-8.7c0,0-24.3-8.8-30.6-23.9s-7.9-13.7-7.8-28v-0.1c-0.5-3.1-0.5-6.2-0.3-9.3
				c0.4-6.5,1.7-12.7,3.1-18.9c1.5-6.3,3.9-12.3,6.8-18c5.9-11.4,13.6-21.7,22.8-30.6c1.5-1.4,3-2.8,4.6-4.1
				c3.6-3.9,6.6-6.9,8.5-8.4c6.1-4.9,4.2-3.3-1,2.6l0,0c1-0.7,2-1.3,3-1.9c3.8-2.4,7.8-4.4,12-5.9c0.4-0.3,0.8-0.6,1.1-0.9
				c-2.1-1-4.6-1.8-7.3-2.5C952.5,360.4,950,361.8,947.7,363.4z"/>
			<path opacity="0.35" clip-path="url(#SVGID_8_)" fill="#E8FFFA" enable-background="new    " d="M629,647.5
				c0.5,6.4,5.3,14.6,5.1,38.3s-2.7,37.9-10.3,59.2c-7.6,21.2-13.1,43.3-25.3,72.8s-13.8,42.5-19.7,77.5c-5.8,35-4.5,56.9-2.2,71.5
				s7.5,27.8,7.5,27.8s-8.3-10-10.8-38.5s-2.5-36.3,1.2-63.3s8.1-46.4,8.1-46.4l0,0c-0.4,1.4-0.8,2.8-1.2,4.1
				c-2.1,7.6-4.5,15.1-6.3,22.7c-1.8,7.6-3.2,15.4-4.2,23.1c-0.8,6-1.3,11.9-1.6,17.9c-0.5,15.6,0.3,29.8,0.5,40.8
				c0.1,1.5,0.2,2.9,0.3,4.4c1.8,17.1,11.4,43,20,53.6c0.5,0.6,1,1.2,1.5,1.8c9.1,10,32.6,30.2,44,40.1c2,0.8,3.8,1.6,5.4,2.3
				c-0.7-8.7-20.7-52.1-20.7-52.1L642,728.3l4.2-74.5l-12.1,3.6C630.2,642.3,628.5,641.1,629,647.5z"/>
			<path opacity="0.35" clip-path="url(#SVGID_8_)" fill="#E8FFFA" enable-background="new    " d="M1112.8,277.7
				c10.5-13.4,10.4-18.1,20.8-35.5s3.7-8.2,3-39.5s-25.7-37.5-42.5-48.5s-26.2-6.3-26.4-2.6l0,0c1.3,1.4,2.5,2.8,3.8,4.3
				c4.3,2.9,11,6.1,13.8,8.8c4.3,4.2,2.2,3.5,7.6,14.1s6.7,18.4,8.7,42.1c2.1,23.8-6.2,37.2-15.2,54.3
				c-6.4,12.3-13.9,17.7-17.6,19.9c-0.2,0.2-0.4,0.5-0.6,0.7c-4.3,4.6-8.7,9-13.4,13.2c-4.7,4.1-9.6,8.1-14.6,11.7
				c-5.1,3.6-10.4,7-15.8,10c-5.5,3-11.1,5.7-16.9,8.2c-5.7,2.5-11.6,4.7-17.5,6.8c-4.7,1.6-9.4,3.1-14.1,4.4
				c-0.8,0.8-1.6,1.6-2.3,2.3c4.6-1,9.3-1.7,13.9-2.3c5.7-0.8,11.4-1.8,17.1-3c5.6-1.2,11.2-2.8,16.7-4.6c5.5-1.8,10.9-3.9,16.3-6.1
				c4-1.6,7.9-3.3,11.8-5c10.1-6.4,27.3-17.2,37.4-24C1098.8,299.2,1102.3,291.1,1112.8,277.7z"/>
			<path opacity="0.35" clip-path="url(#SVGID_8_)" fill="#E8FFFA" enable-background="new    " d="M992.9,340.4
				c2.7-1.1,5.2-2.5,7.8-3.7c2.5-1.4,5.1-2.7,7.6-4.2c5-2.8,9.9-6,14.6-9.4c4.4-3.1,8.5-6.6,12.4-10.2c0-3.2-5.5,0.6-13.8,7.5
				c-9.2,7.6-13,7.9-15.3,5.8s6-10.2,10.3-15.8s15.5-18,19.6-29.8s7.3-17,6.6-18.2c-0.4-0.7-1,0.2-4.8,6.5c-2.1,6.5-4.7,12.8-8,18.6
				c-7.7,13.9-33.3,41.3-49.3,57.8C984.8,343.8,988.9,342.2,992.9,340.4z"/>
			<path opacity="0.35" clip-path="url(#SVGID_8_)" fill="#E8FFFA" enable-background="new    " d="M1037.8,313.7
				c-4.3,4-8.7,7.9-13.5,11.3c-4.7,3.5-9.6,6.7-14.7,9.6c-5.1,2.9-10.3,5.6-15.7,7.9c-3.1,1.3-6.2,2.6-9.3,3.7
				c7.7-2.5,15.2-5.4,22.6-8.6c5.7-2.5,11.3-5.2,16.7-8.2s10.6-6.4,15.6-10.1s9.8-7.6,14.4-11.8c4.6-4.2,8.9-8.6,13.1-13.1
				c0.4-0.5,0.8-1,1.2-1.4c2.5-5.3,8-16.3,14.3-24.3c8.5-10.8,11.7-25.8,11.9-41.3c0-1.2,0-2.4,0-3.5c-0.6-12.8-5.7-11.4-7.8-7
				c-2.3,4.8-0.8,8.2-6,17.7s-2.8,17.8-15.3,43.2c-5.9,11.8-12.7,20.5-18.4,26.4l-1.3,1.6c-0.5,0.6-1,1.1-1.5,1.7
				c-1,1.1-1.9,2.2-3,3.3L1037.8,313.7z"/>
			<path opacity="0.35" clip-path="url(#SVGID_8_)" fill="#E8FFFA" enable-background="new    " d="M1282.4,413.3
				c6.5,5.3,12.6,11.1,17.9,17.7s9.6,13.8,13.6,21.1c1,1.8,1.9,3.7,2.9,5.5l1.3,2.9c0.2,0.5,0.5,0.9,0.7,1.4l0.6,1.5
				c1.6,3.9,2.8,8,3.6,12.1c0.8,4.1,1.3,8.3,1.4,12.5s-0.2,8.4-1,12.5l-1-0.2c1-6.8,0.7-13.7-0.5-20.4c0.8,10.2-0.2,21.7-4.3,31.8
				c-0.3,1.3-0.5,2.5-0.8,3.7c-0.3,1.5-0.7,3-1.1,4.5c-0.1,1.7-0.4,2.7-0.9,3.2c-3.5,12.2-8.2,23.9-11,36.1c-0.9,3.7-1.6,7.3-2.1,11
				c-0.1,0.9-0.2,1.9-0.3,2.8c-0.1,0.9-0.2,1.9-0.2,2.8l-0.1,2.8c0,0.5,0,0.9,0,1.4v1.4l0.1,2.8c0.1,0.9,0.2,1.9,0.3,2.8
				c0.1,1.9,0.5,3.7,0.9,5.5c0.1,0.5,0.2,0.9,0.3,1.4l0.4,1.3l0.7,2.7c0.5,1.8,1,3.6,1,5.7c-1-1.7-1.8-3.4-2.4-5.2l-0.8-2.8
				l-0.4-1.4c-0.1-0.5-0.2-0.9-0.3-1.4c0-0.1,0-0.2-0.1-0.3c1,5.8,2.8,11.2,5.4,15.7c1.4,2.1,3,4.1,4.7,5.9c1.1,1.2,2.4,2.4,3.6,3.5
				c14.9,10.9,27.1,11.1,27.1,11.1l-4.2-259.8c0,0-26.8-17.2-50.7-26.8l-8.3-58.7c0,0-39.4-7.1-67.8-4.8c-1.1,0.1-2.2,0.2-3.3,0.3
				v0.3c-3.6,0.3-7.2,0.8-10.8,1.3c-24.3,4.6-48.6,15.1-60.7,20c-6.4,2.6-18.3,8.2-29.6,13.6c-6,3-12.1,6.1-18.2,9
				c-3,1.5-6.1,2.9-9.2,4.3c-0.2,0.1-0.4,0.2-0.4,0.2c13,0.9,23.4-8.1,47-13.7s49.2-13.6,77.3-9.2c28.1,4.4,38,9.8,40.2,13.5
				c2.2,3.8,1.2,0.6-24.3,3.2c-25.6,2.6-39,6.3-62.2,13.7c-21.3,6.7-18.5,9.7-8.9,7.8c1-0.2,2.1-0.5,3.1-0.7c9-2.5,24-9.4,48.6-12.5
				c2-0.4,4.1-0.8,6.1-1.1c6-1,12.1-1.6,18.3-1.7c1.5-0.1,3.1,0,4.6,0.1s3.1,0.2,4.6,0.3c3.1,0.4,6.1,0.9,9.1,1.5
				c6,1.1,11.9,2.7,17.7,4.7c1.9,0.7,3.8,1.4,5.6,2.2c3.8,1.6,7.4,3.5,10.9,5.6c4,2.4,7.9,5.1,11.6,8c1.1,0.9,2.2,1.7,3.3,2.6
				l-0.6,0.8c-4.9-3.6-9.9-6.9-15.2-9.8c-5.3-2.9-10.7-5.4-16.4-7.2c-3.2-1-6.5-1.9-9.8-2.7c-14.1-1.8-28.6-2.3-40.3-1.8
				c-6.9,1-13.8,2.4-20.6,3.9c-5.9,1.4-11.7,2.9-17.6,4.5c-1.1,0.3-2.1,0.6-3.2,0.9c-5.9,2.2-9.6,4-9.6,4c16.4-1.2,34.3-5.5,51.7-4
				c17.3,1.5,18.3,4.1,11,5.7c-6.8,1.5-38.4,7.7-48.5,11.4c9.6-1.5,19.1-3.1,28.7-4.7c10.5-1.8,21.2-3.6,32-4.7l4.1-0.4l4.1-0.2
				c1.4-0.1,2.8-0.1,4.2-0.1c1.4,0,2.8-0.1,4.2,0c5.6,0.1,11.3,0.7,16.8,2c1.4,0.3,2.7,0.6,4.1,1c1.4,0.3,2.7,0.7,4,1.1
				c2.7,0.8,5.2,1.7,7.8,2.6c5.1,1.9,10,3.9,14.9,6.1l-3.4,9.2c-10.3-3-20.2-6.9-29.9-9.4c-9.7-2.6-19.9-3.2-30.4-3.1
				c-2.8,0-5.6,0.1-8.5,0.2c6.9,0.6,13.7,1.7,20,3.6c32.7,9.8,39.9,19.6,47.3,29s10.8,20.4,8.3,23.3s-10.2-3.3-29.2-15.7
				c-19-12.3-49.4-20.8-55.7-21.8c-2.8-0.5-3.6,0.4-2.3,1.9c1.1,0.4,2.2,0.8,3.4,1.2c2,0.7,3.9,1.3,5.9,1.9s4,1.3,6,2
				c4,1.4,7.8,2.9,11.7,4.6c3.8,1.7,7.6,3.5,11.3,5.4c3.7,1.9,7.3,4.1,10.9,6.3c3.6,2.2,7,4.6,10.4,7
				C1275.9,408.1,1279.2,410.6,1282.4,413.3z"/>
			<path opacity="0.35" clip-path="url(#SVGID_8_)" fill="#E8FFFA" enable-background="new    " d="M1411.2,751.8L1310.6,622
				c-5.7-10.6-9.5-13.4-11.2-11.2c-1.6,2.3,11.2,20.2,22.2,43.5c11.1,23.3,17.1,27.6,34.4,61.2c17.3,33.6,27,51.6,30.2,70.1
				s0,29,0,29s-1.2-7.1-3-15.8c-0.3-1.4-0.7-2.9-1.1-4.3c-1.3-5.1-2.8-10.1-4.4-15.2c-1-3.5-2.2-6.9-3.5-10.2
				c-5.1-9.4-8.5-7.6-4.5-0.6c4.2,7.3,12.8,34,11.9,48.8s-10.8,49.2-10.8,49.2s6.8-25.6,3.2-54.5s-9.2-40.6-11.8-41.8
				s2.7,4.1,5.2,19.2s7.3,47.5-4.7,78.8s-31.3,51.5-41.9,62.6c-0.1,0.1-0.2,0.2-0.2,0.2c-3.4,3.7-6.8,7.3-10.3,10.8
				c-2.6,2.6-5.3,5.2-8,7.8c-2.7,2.5-5.5,5-8.2,7.5c-5.4,5-10.8,10-15.8,15.4c-2.5,2.7-4.9,5.4-7.3,8.2c-1.5,1.9-3,3.9-4.5,5.9
				c-2.3,5-2.3,9,2.8,8.7c0.5-0.9,1-1.8,1.5-2.6c1.1-1.6,2.3-3.3,3.5-4.8c1.2-1.6,2.5-3.1,3.7-4.6c5.1-6,10.5-11.7,16-17.2
				c5.6-5.5,11.2-10.8,16.9-16.1c2.9-2.7,6.1-5.2,9.2-7.5s6.1-4.6,9-7.2c2.8-2.5,5.5-5.3,8.2-8.1c2.6-2.9,5.1-5.7,7.6-8.7
				c4.9-6,9.7-12.1,14.2-18.4c4.5-6.3,8.9-12.7,12.9-19.3s7.9-13.4,10.9-20.6c-1.2,3.7-2.7,7.3-4.3,10.9c-1.6,3.5-3.3,7.1-5.2,10.5
				c-3.7,6.9-7.7,13.6-12,20.1s-8.9,12.9-13.7,19c-2.4,3.1-4.9,6.1-7.5,9.1c-2.6,2.9-5.4,5.8-8.3,8.5s-6,5.2-9.1,7.6
				c-3.1,2.4-6,4.7-8.8,7.3c-5.6,5.4-11.3,10.7-16.9,16.1c-5.5,5.4-11,10.9-16.1,16.7c-2.1,2.4-4.1,4.8-6,7.3
				c24-11.4,104-65.7,104-65.7l42.2-81L1411.2,751.8z"/>
			<path opacity="0.35" clip-path="url(#SVGID_8_)" fill="#E8FFFA" enable-background="new    " d="M1023.4,377.3
				c-2.7-8.4-9.2-16.1-15.8-20.5c-2.2-1-4.4-1.8-6.7-2.6c-2.4-0.8-4.9-1.4-7.4-2c-0.7,0.1-1.4,0.2-2.1,0.3h-0.1l-6.5,1.1
				c2.3,0.4,4.5,1,6.7,1.7c11.5,0.9,17.2,7.8,21.5,13.5c4.4,5.9,6.9,13.8,8.6,15.9c1.4,1.7,3.8,2.6,3-2.5
				C1024.3,380.6,1023.8,379,1023.4,377.3z"/>
			<path opacity="0.35" clip-path="url(#SVGID_8_)" fill="#E8FFFA" enable-background="new    " d="M1011.5,356.2
				c3.2,1.7,6.1,4.2,8.2,7.2c0.4,0.6,0.9,1.3,1.3,1.9l0,0c0.8-3.6,0.6-4.4-6.2-9.4c-4.5-3.3-8.6-5-10.9-5.8c-1.3,0.3-2.6,0.6-4,0.8
				c5.5,0.5,7.3,1.4,10.9,4.8C1011,356,1011.2,356.1,1011.5,356.2z"/>
			<path opacity="0.35" clip-path="url(#SVGID_8_)" fill="#E8FFFA" enable-background="new    " d="M921.2,135c0,0-5.8,0.1-4.4,2.5
				c1.4,2.4,13.7,1.1,28.7,8.6s20.6,12.8,32.7,26.4c12,13.6,17.8,23.8,21.9,42.2c4.4,19.5,4.5,31,4.5,40.6c0,9.6-2.2,22.2-4.5,34.7
				c-2.2,12.5-5.6,15.3-7.6,21c-2,5.6-5.4,14.6-9.7,22.9s-2.8,9,1.2,1.5s14.9-25,17.5-33c0.1-0.2,0.1-0.5,0.2-0.7
				c0.2-0.6,0.4-1.3,0.6-1.9c4.2-13.3,8.9-29.8,10.3-48.6c0.4-16.6-2.1-36.5-4.2-43.3c-2.8-8.7-8.4-25.3-20-37
				c-11.5-11.8-17.3-17.5-33.4-25.1s-24.4-12.2-32.7-12.8s-9.3,0-9.3,0C909.6,134,921.2,135,921.2,135z"/>
			<path opacity="0.35" clip-path="url(#SVGID_8_)" fill="#E8FFFA" enable-background="new    " d="M985.2,315.8
				c-1.9,7.9-4.7,16.4-7.5,24.3c1.3-1.1,5.9-8.3,8.9-19.2c3.5-12.9,8.4-13.4,11.9-34.3c3.2-20.8,4-52.5-7.1-70
				c-6.4-10.2-15-22.9-28.5-34.3c-4.6-2.5-8.1-3.9-9.8-3.5c-1.9,0.5,0.8,2.9,3.1,4.7c2.4,1.8,9,8,12.1,14.2s8.4,11.9,11,17.9
				s6.6,14.8,9,26.6c2.1,10.5,2.8,26.8,1.4,39.5C989.3,295.6,987.2,307.8,985.2,315.8z"/>
			<path opacity="0.35" clip-path="url(#SVGID_8_)" fill="#E8FFFA" enable-background="new    " d="M1000.8,361.9
				c-2.7-1.9-5.7-3.3-8.8-4.5s-6.3-2-9.6-2.6c-1-0.2-2-0.3-3-0.4c-0.4,0.1-0.7,0.1-1.1,0.2c9.6,5.1,9.4,4.7,10.6,6.6
				c0.8,1.3,5.6,5,9.6,10.3c6.1,6.2,9.4,13.9,10.2,22.5c0.1,0.9,0.1,1.7,0.2,2.6c0.6,2.6,0.8,5.7,0.4,10.2
				c-1.3,13.1-4.8,18.6,0.9,14.4c0.5-0.4,1-0.8,1.4-1.3c1.8-4.9,3.4-9.9,4.8-14.9c0.6-2,1-4,1.3-6c0.1-1.4,0.2-2.9,0.3-4.3
				c0.2-9.7-3.2-19.3-9.7-26.4C1006.1,365.8,1003.5,363.7,1000.8,361.9z"/>
			<path opacity="0.35" clip-path="url(#SVGID_8_)" fill="#E8FFFA" enable-background="new    " d="M974.2,339.3
				c-0.9,1.5-2.2,4.1-3.1,5.2c-1.6,1.9,1.7-4.3,6.3-13.4c2.3-6.3,4.5-12.9,6.2-19.4c3.3-12.6,4.5-25.3,4.3-37.2
				c-0.7,0.4-1.6,2.2-1.9,4.6c0,0-1.4-0.2-1.7,5.7c-0.3,5.9-1.2,10.6-4,19.9c-2.9,9.3-7.7,22.3-7.7,22.3s-0.2-14.1-1.6-17.1
				c-1.4-2.9-2.1-0.3-2.2,4.3c-0.1,2-0.4,5.2-0.7,8.8c1,12.3,1,22.8,0.6,29.6C970.3,348.7,972.2,344.2,974.2,339.3z"/>
			<path opacity="0.35" clip-path="url(#SVGID_8_)" fill="#E8FFFA" enable-background="new    " d="M960.9,338.3c0,0,1.2,1,2-2.4
				s-4.9-14.6-9.5-22.1c-0.8-1.1-1.6-2.3-2.4-3.3c-5.9-7.3-17.6-16.9-30.1-22.9c-14.4-6.9-18.1-4.5-14.9-2.5c3.2,2,8.5,2.5,17.3,9.9
				c8.7,7.5,15.3,15,18,22.2s-1.9,3-9.4,0s-18.7-7.1-27.3-9.6c-6.7-1.9-10.2-1.1-10.2,0.2c4,1.2,8,2.5,12,3.8
				c1.1,0.4,2.3,0.7,3.4,1.2c1.1,0.4,2.3,0.8,3.4,1.3l3.4,1.4l3.3,1.6c4.3,2.2,8.6,4.5,12.7,7c4.1,2.5,8.2,5.1,12.1,7.9
				c4,2.8,7.8,5.6,11.6,8.6c2.7,2.2,5.4,4.5,7.9,7c-0.1-0.9-0.3-1.9-0.7-3C962.3,340.8,960.9,338.3,960.9,338.3z"/>
			<path opacity="0.35" clip-path="url(#SVGID_8_)" fill="#E8FFFA" enable-background="new    " d="M943.8,333.6
				c-4-2.6-8.1-5.1-12.2-7.5c-4.1-2.4-8.4-4.6-12.7-6.7l-3.2-1.5l-3.3-1.3c-1.1-0.5-2.2-0.8-3.3-1.2c-1.1-0.4-2.3-0.7-3.4-1.1
				c-4.6-1.4-9.2-2.8-13.8-4.1c-9.2-2.5-18.6-4.1-28.1-4.3c-9.5-0.4-19,0.4-28.4,1.8c-4.7,0.7-9.3,1.6-13.9,2.8l-3.1,0.9
				c-5.2,3.3-5.9,6.2-3.3,5.9c3.4-0.4,8-4.4,23.1-7.1s22.3-3.4,46.5,3.7s36.8,14.9,42.5,19.3c5.8,4.4-1.4,4.4-12.1,4.7
				s-17.3-0.6-31.8,1.9c-4.6,0.8-10.6,2.5-16.4,4.5c5.7-0.7,11.4-1.1,17.1-1.2c11-0.3,21.9,0.2,32.8,1.3c5.4,0.7,10.9,1.4,16.3,2.5
				c5.4,1.1,10.8,2.3,15.9,4.5l0,0c2.3,0.6,4.5,1.2,6.8,1.9c1.8,0.6,3.5,1.2,5.1,1.8c1-0.6,1.6-1.6,2.1-2.3c0.6-0.9,1.2-2.1,1.4-3.6
				c-2.7-2.6-5.8-5-8.8-7.3C951.7,338.9,947.8,336.2,943.8,333.6z"/>
			<path opacity="0.35" clip-path="url(#SVGID_8_)" fill="#E8FFFA" enable-background="new    " d="M893.9,408.8
				c-0.6,3.8,3.6-4.9,16.9-19c10.2-10.8,21.6-17.5,26.3-20c3.2-2.7,6.5-5.1,9.9-7.4c2.1-1.3,4.2-2.6,6.4-3.7
				c-3.1-0.7-6.5-1.3-10-1.8c-7.5,1.6-14.7,4.2-21.6,7.4c-4.7,2.1-9.2,4.7-13.5,7.6l-3.2,2.2c-1,0.8-2,1.6-3,2.4l-1.5,1.2l-1.4,1.3
				c-0.9,0.9-1.9,1.7-2.8,2.6c-1.7,1.9-3.6,3.7-5.1,5.7l-1.2,1.5c-0.4,0.5-0.8,1-1.1,1.5l-2.2,3.1c-0.2,0.2-0.3,0.5-0.4,0.7
				c0.2,0.4,0.7,0.3,1.5-0.3c2.2-1.9,8.7-10.9,20.6-18.4s29.5-10.3,29.5-10.3s-11.6,6-22.3,15.6S894.5,405,893.9,408.8z"/>
			<path opacity="0.35" clip-path="url(#SVGID_8_)" fill="#E8FFFA" enable-background="new    " d="M883.7,432.8
				c-2.4,9.6-2,11.2-0.9,10.4c1.1-0.7,0.7-1.2,1.8-7.1c1.1-6,4.1-15.8,4.1-15.8C888.4,420.1,886.1,423.3,883.7,432.8z"/>
		</g>
		<g>
			<defs>
				<path id="SVGID_9_" d="M488.2,989.3c7.3,16.3,15.5,22.3,47.6,35c32.1,12.7,67.5,17.4,82.5,28.6s18.7,11.2,19.5,23.7
					s1.2,13.9-3,22.5s2.6,2.7,6.1-4.2c3.5-6.9,8.8-17.9,2.1-31c-6.7-13.2-29.1-28.1-41.3-45.9c-12.2-17.8-19.9-51.4-21.6-76.2
					c-1.7-24.8,6.6-63.8,11.9-88.5c5.2-24.8,17.7-54.5,27.6-78.8c9.9-24.3,17.5-58.8,17.3-85.8c-0.3-26.9-6.5-54.7-11.7-70.6
					c-5.2-16-13.4-34.2-13.4-34.2s22.1-3.5,47.8-24.8s34.7-28.1,47.3-50.6c12.6-22.5,18.3-43.1,36.6-65.7
					c18.3-22.7,18.6-25.2,46.9-49.3s57.2-39.8,78.5-42.4c0,0-17.1,4.3-35.6,22.1c-18.5,17.9-28.4,31.6-31.9,52.5s1,49.5,8.9,65.7
					s21.7,30.2,41.2,34.2c19.4,4,49.1-4.7,69.2-4.4c20.1,0.3,30.9,2.3,42.5,6.5c11.7,4.2,13.7,5.2,16.7,9.4c3.1,4.2,3.7,6.8,4.9,5.6
					s1.7-10.6-10.1-16.9c-11.9-6.3-29.8-5.3-48.5-15.7C907.5,499.7,904,477.4,906,462s6.8-39.3,26.2-65.9s39.4-40.5,39.4-40.5
					s15.9,6.5,24.4,22.1s4.4,37.7,0.5,47.3c-3.8,9.6-6.4,33.1-2.8,40.8c3.6,7.7,12.5,14.5,17.6,15.7s11.9-1,12.9-1.7
					c1-0.8-5.8-2-13.8-6.3c-7.9-4.3-9.3-14-9.2-17.8c0.1-3.7,1.6-10.8,12.6-26.9c11-16,15.2-24.2,17.4-36.6
					c2.3-12.4-3.1-30.6-13.3-38.2c0,0,9.6,5.2,34.7,11s33.2,5.7,42.2,7.5s51.4,11.1,81.3,24.9c29.8,13.9,75.7,38.1,94.9,59.8
					c0,0,8.5,19.1,10.8,52.1c2.4,33,0.3,53.6-1.7,79.7s-9.5,65.4-11.3,81.4s-2,21.9-1,25.6c1,3.7,5.9,4.7,15.2,23.6
					c9.2,18.9,13.8,30.9,11.1,50.7c-2.8,19.8-5.6,27.6-5.6,27.6s1.7,9.7-0.4,26s-5.7,34.6-20.1,69.9s-18.2,45.9-31.5,82.7
					s-10.7,64.2-4.6,83.2s14.3,29.4,24.6,34.2c10.3,4.8,23.2,7.6,30,4.9s-3-2.3-14.6-5.4c-11.7-3.1-23.5-18.2-26.2-35.7
					s3-32.6,15.3-48.5c12.4-15.9,18.5-26.2,45.3-43.7s56.4-41.8,67.1-56.2s27.6-32.1,32.1-62.1s-8.5-65-15.9-82.7
					s-22.7-50.6-38.4-72.3c-15.7-21.7-30.4-49.5-40.1-70.3c0,0,6,5.1,16.6,3.8c10.5-1.3,9.5-6.8,5.8-6.6s-6.2,3.1-16.2-3.1
					s-11.9-13.4-12-27c-0.2-13.6,6.7-36.1,15.2-59.3s8.3-44.5,6.8-64.2s-9.3-57-16.4-72.7s-22.7-27.9-22.7-27.9s0.2-17.2-16.2-43.9
					s-40.8-37-68.2-38.9c-27.4-1.9-39.2-0.7-69.2,13.4s-78.8,33.3-78.8,33.3s36.2-17.1,49.3-33c13.2-15.9,26.8-38.1,25.6-65.9
					c-1.1-27.8-17.8-54.9-37.3-67.1c-19.5-12.2-36.4-24.1-65.1-27c-28.7-2.9-47.8,5.2-47.8,5.2s-12.6-17.5-46.2-18.3
					s-58.6,5-102.9,25.5c-44.3,20.5-76.9,58.9-76.9,58.9s14.8,10.3,25.3,19.9c10.5,9.6,17.4,17.4,17.4,17.4s-19.1,14.8-46.6,40.1
					s-62.6,63.3-83.5,95.9s-32.2,63.1-41.5,76.4s-18.5,21.1-18.5,21.1s-15.9,5.4-29.3-0.5c-13.4-5.9-22.6-16.5-23.2-32.1
					s3.7-22.8,9.8-30.3c6-7.5,8.1-6.1,10.6-4.9s4.3,3.6,4.7,0.9s-4.3-10.8-16.2-2.6c-11.9,8.2-22.1,24.8-25.3,35.6
					c-3.2,10.8-2.4,30.3,5.1,48c7.4,17.6,23,25.8,23,25.8s-13.2,2.8-26,20.8s-15.9,38.7-14.6,51c1.2,12.3,4.4,26.1,9.1,33.3
					s7.1,3.8,5.2-2.4c-1.9-6.3-3.7-20.7,3-28.2c0,0,3.1,19.2,6.5,39.4s6.1,45.2,8.2,68.2c2.1,23,3.7,35.6,3.7,35.6l-15.7,55.1
					c0,0-13.5,24.1-32.3,48.7c-18.7,24.7-24.5,45.1-32.3,70.5S488.2,989.3,488.2,989.3z"/>
			</defs>
			<clipPath id="SVGID_10_">
				<use xlink:href="#SVGID_9_"  overflow="visible"/>
			</clipPath>
			<path opacity="0.3" clip-path="url(#SVGID_10_)" fill="#091426" enable-background="new    " d="M570.9,967
				c0.4,3.9,1.3,7.7,2.1,11.5c1,3.8,2.1,7.5,3.4,11.2c2.3,6,5,11.8,8.4,17.2c1.2,1.4,2.3,2.8,3.5,4.2c0.6,0.7,1.2,1.4,1.9,2.1
				c-8.5-10.6-18.2-36.5-20-53.6C570.3,962.1,570.5,964.5,570.9,967z"/>
			<path opacity="0.3" clip-path="url(#SVGID_10_)" fill="#091426" enable-background="new    " d="M569.4,914.4
				c-0.5,9.7-0.5,19.4-0.1,29.1c0.1,3.9,0.4,7.8,0.6,11.8C569.7,944.2,568.9,930,569.4,914.4z"/>
			<path opacity="0.3" clip-path="url(#SVGID_10_)" fill="#091426" enable-background="new    " d="M1017.5,205.2
				c-1.7-8-4-14.8-6.5-20.3c-2.3-4.9-5.8-10.7-10.3-16.8c3.2,5.5,6,11.1,7.8,14.8C1011.5,188.9,1015,197.8,1017.5,205.2z"/>
			<path opacity="0.3" clip-path="url(#SVGID_10_)" fill="#091426" enable-background="new    " d="M993.3,324.1L993.3,324.1
				c-2.5,4.4-5,8.2-7,10.9c7.9-9,13.1-16.4,17.6-26.4C999.5,316.4,994.7,323.1,993.3,324.1z"/>
			<path opacity="0.3" clip-path="url(#SVGID_10_)" fill="#091426" enable-background="new    " d="M962.8,361.8
				c-0.2-0.1-0.4-0.2-0.5-0.2c-0.3,0.2-0.7,0.5-1.1,0.9C961.7,362.2,962.2,362,962.8,361.8z"/>
			<path opacity="0.3" clip-path="url(#SVGID_10_)" fill="#091426" enable-background="new    " d="M999,312.4
				c0,0.1-0.1,0.1-0.1,0.2v-0.1C998.9,312.5,999,312.5,999,312.4z"/>
			<path opacity="0.3" clip-path="url(#SVGID_10_)" fill="#091426" enable-background="new    " d="M991.4,352.5
				c-1.1,0.2-2.2,0.4-3.3,0.5c-1.2,0.2-2.3,0.3-3.5,0.5c0.1,0,0.2,0,0.3,0.1L991.4,352.5C991.3,352.6,991.3,352.6,991.4,352.5z"/>
			<path opacity="0.3" clip-path="url(#SVGID_10_)" fill="#091426" enable-background="new    " d="M997.2,351.6
				c4.7,0.9,9.3,2.2,13.5,4.3c-3.6-3.4-5.4-4.3-10.9-4.8C998.9,351.2,998.1,351.4,997.2,351.6z"/>
			<path opacity="0.3" clip-path="url(#SVGID_10_)" fill="#091426" enable-background="new    " d="M947.2,367.7
				c-1.9,1.5-4.9,4.5-8.5,8.4c2.4-2,4.9-4,7.5-5.7l0,0C951.4,364.4,953.3,362.7,947.2,367.7z"/>
			<path opacity="0.3" clip-path="url(#SVGID_10_)" fill="#091426" enable-background="new    " d="M897.7,490.6
				c-5.8-12.3-6.9-17.3-6.3-32.1c0.6-14.8-0.6-22.1,4.5-32.9c3.2-6.9,4.7-11.5,8-17.2c-0.5,0.7-1,1.3-1.5,2c-2.6,3.5-5,7.2-7.1,10.9
				c-2.1,3.8-4.1,7.7-5.3,11.7c-2.5,8.2-3.1,17-2.8,25.7c0.4,8.7,1.8,17.3,4.7,25.5c3.1,8,7.2,16,13.9,21.4
				c5.6,4.8,12.1,8.4,18.7,11.8c2.3-0.1,4.5-0.2,6.7-0.3c-3.2-1.1-7-2.6-10.6-4.5C912,508.2,903.4,503,897.7,490.6z"/>
			<path opacity="0.3" clip-path="url(#SVGID_10_)" fill="#091426" enable-background="new    " d="M1023.4,377.3
				c-0.3-1.1-0.7-2.2-1.1-3.3c-0.6-1.6-1.3-3.2-2-4.8c-0.8-1.6-1.6-3.1-2.6-4.4c-1-1.4-2-2.6-3.3-3.7c-0.6-0.6-1.3-1-1.9-1.6
				c-0.7-0.5-1.4-1-2.1-1.4c-0.9-0.5-1.9-1-2.8-1.4C1014.2,361.2,1020.6,368.9,1023.4,377.3z"/>
			<path opacity="0.3" clip-path="url(#SVGID_10_)" fill="#091426" enable-background="new    " d="M1152.1,341.6
				c5.9-1.5,11.6-3.1,17.4-4.8c5.8-1.7,11.7-3.3,17.6-4.7c3.9-0.9,7.9-1.8,11.8-2.6c-24.6,3.1-39.7,10.1-48.6,12.5
				C1150.9,341.9,1151.5,341.8,1152.1,341.6z"/>
			<path opacity="0.3" clip-path="url(#SVGID_10_)" fill="#091426" enable-background="new    " d="M1236.7,330.6
				c-1.5-0.2-2.9-0.4-4.4-0.5s-3-0.2-4.4-0.2c-1.5,0-3-0.1-4.5,0c-5,0.1-10,0.6-14.9,1.3c11.7-0.6,26.2,0,40.3,1.8
				c-2.5-0.6-5-1.1-7.6-1.5C1239.7,331,1238.2,330.8,1236.7,330.6z"/>
			<path opacity="0.3" clip-path="url(#SVGID_10_)" fill="#091426" enable-background="new    " d="M1321.9,479.9
				c-0.2-1.3-0.5-2.7-0.8-4c-0.9-4-2.2-7.9-3.9-11.6l-0.6-1.4c-0.2-0.5-0.5-0.9-0.7-1.4l-1.4-2.7l-3-5.4c-1.8-3.2-3.7-6.4-5.7-9.5
				c0.9,1.5,1.7,2.9,2.5,4.5c3.5,6.8,6.6,13.8,8.4,21.3c0.9,3.7,1.6,7.5,2.1,11.3l0.3,2.9l0.2,2.9c0.1,1,0.1,1.9,0.2,2.9
				c0,1,0.1,1.9,0.1,2.9c0,3.9-0.3,7.7-0.7,11.5c-0.3,2.6-0.7,5.1-1.2,7.6C1321.7,501.5,1322.6,490.1,1321.9,479.9z"/>
			<path opacity="0.3" clip-path="url(#SVGID_10_)" fill="#091426" enable-background="new    " d="M1087.3,263.9l0.9-2.1
				c0.3-0.7,0.6-1.4,0.8-2.1c0.5-1.4,1-2.9,1.5-4.3l1.2-4.4c0.3-1.5,0.6-3,0.9-4.5c1.1-6,1.6-12.2,1.6-18.3c0-0.3,0-0.5,0-0.8
				c-0.2,15.5-3.4,30.5-11.9,41.3c-6.3,8-11.8,19-14.3,24.3c3.6-4.2,7.1-8.6,10.2-13.1C1081.8,274.8,1084.8,269.5,1087.3,263.9z"/>
			<path opacity="0.3" clip-path="url(#SVGID_10_)" fill="#091426" enable-background="new    " d="M999.1,312.2L999.1,312.2
				L999.1,312.2z"/>
			<path opacity="0.3" clip-path="url(#SVGID_10_)" fill="#091426" enable-background="new    " d="M1196.2,280.5
				c-4.9,0.7-9.7,1.5-14.5,2.4c-8.4,1.7-16.7,3.8-24.7,6.6c-2,0.6-4,1.5-6,2.3s-3.9,1.7-5.8,2.6l-11.5,5.7l-22.9,11.6
				c-1.6,0.8-3.2,1.6-4.8,2.4c11.3-5.4,23.2-10.9,29.6-13.6C1147.6,295.5,1171.9,285.1,1196.2,280.5z"/>
			<path opacity="0.3" clip-path="url(#SVGID_10_)" fill="#091426" enable-background="new    " d="M591.7,1015
				c3.2,3.7,6.4,7.3,9.7,10.9c0.6,0.6,1.2,1.2,1.8,1.7c5.7,5.4,11.5,10.7,17.2,16.2c2.9,2.8,5.8,5.6,8.6,8.5
				c2.4,0.9,4.6,1.8,6.7,2.7C624.3,1045.2,600.8,1024.9,591.7,1015z"/>
			<path opacity="0.3" clip-path="url(#SVGID_10_)" fill="#091426" enable-background="new    " d="M1002.3,299.6
				c-0.2,0.7-0.4,1.3-0.6,1.9C1001.9,300.9,1002.1,300.2,1002.3,299.6z"/>
			<path opacity="0.3" clip-path="url(#SVGID_10_)" fill="#091426" enable-background="new    " d="M626.5,1051.4
				c-2.3-2.3-4.6-4.5-6.9-6.7c-3.1-3-6.3-5.9-9.5-8.8c4.1,4.7,8.2,9.3,12.3,14C623.7,1050.3,625.1,1050.8,626.5,1051.4z"/>
			<path opacity="0.3" clip-path="url(#SVGID_10_)" fill="#091426" enable-background="new    " d="M821.3,492.5
				c-5.4-8.6-9.3-18.1-12-27.8c-0.1-0.3-0.2-0.6-0.2-0.9c-0.4,20.4,6.6,36,27.9,49.4c6.4,4,11.5,6.5,16.4,8c-4-1.8-7.9-3.9-11.5-6.5
				C833.6,508.9,826.7,501.1,821.3,492.5z"/>
			<path opacity="0.3" clip-path="url(#SVGID_10_)" fill="#091426" enable-background="new    " d="M1287.1,593.1
				c0,0.3,0.1,0.5,0.2,0.8c0-0.4-0.1-0.7-0.1-1.1C1287.1,592.9,1287.1,593,1287.1,593.1z"/>
			<path opacity="0.3" clip-path="url(#SVGID_10_)" fill="#091426" enable-background="new    " d="M988.9,361.2
				c-1.2-1.9-1-1.5-10.6-6.6c-2.3,0.4-4.6,0.9-6.8,1.5c-0.5,1.3-1,2.5-1.5,3.6c0.9,0.6,1.7,1.2,2.3,1.8l1.1-2.8
				c11.1,2.5,19.4,7,25.1,12.7C994.5,366.2,989.6,362.5,988.9,361.2z"/>
			<path opacity="0.3" clip-path="url(#SVGID_10_)" fill="#091426" enable-background="new    " d="M1018,394.7
				c-0.1,1.4-0.2,2.9-0.3,4.3C1017.8,397.6,1018,396.1,1018,394.7z"/>
			<path opacity="0.3" clip-path="url(#SVGID_10_)" fill="#091426" enable-background="new    " d="M971,344.6
				c0.9-1.1,2.2-3.7,3.1-5.2c1.1-2.6,2.1-5.4,3.1-8.2C972.7,340.3,969.5,346.5,971,344.6z"/>
			<path opacity="0.3" clip-path="url(#SVGID_10_)" fill="#091426" enable-background="new    " d="M962.9,335.9
				c-0.8,3.4-2,2.4-2,2.4s1.3,2.4,2.8,6.2c0.4,1.1,0.6,2.1,0.7,3c0.4,0.4,0.7,0.7,1.1,1.1c0-1.9,0-4.1,0-6.5
				c-1.5-8-4.4-15.6-8.5-22.6c-1.1-2-2.4-3.9-3.6-5.7C958,321.3,963.6,332.6,962.9,335.9z"/>
			<path opacity="0.3" clip-path="url(#SVGID_10_)" fill="#091426" enable-background="new    " d="M960.8,355
				c1.8,0.7,3.5,1.4,4.9,2.2c0.1-0.1,0.1-0.1,0.2-0.2c-0.2-1.7-0.3-3.9-0.3-6.7c-0.4-0.4-0.8-0.8-1.2-1.1c-0.2,1.5-0.8,2.7-1.4,3.6
				C962.4,353.4,961.8,354.4,960.8,355z"/>
			<path opacity="0.3" clip-path="url(#SVGID_10_)" fill="#091426" enable-background="new    " d="M1169.7,358.2
				c0.5-0.3,1.2-0.5,2-0.8c-1,0.2-2,0.3-3,0.5l-7.9,1.2l-7.9,1.1l-15.9,2.2c-10.6,1.4-21.2,2.8-31.8,3.9c-5.3,0.5-10.6,0.8-15.9,0.8
				s-10.7-0.1-16-0.3c-5.3-0.3-10.6-0.7-16-1.3c-5.3-0.5-10.6-1.2-15.9-2.1l-0.2,1c10.6,1.5,21.2,2.7,31.9,3.3
				c5.3,0.3,10.7,0.5,16,0.5c5.4,0,10.7-0.2,16.1-0.6c10.7-0.9,21.3-1.9,31.9-3.1c10.6-1.1,21.2-2.4,31.9-3.5
				c10.6-1.1,21.3-2,31.9-2.8c7.8-0.6,15.6-1.2,23.3-1.5C1195,354.4,1164.1,361.1,1169.7,358.2z"/>
			<path opacity="0.3" clip-path="url(#SVGID_10_)" fill="#091426" enable-background="new    " d="M1263.2,359.9
				c9.7,2.5,19.6,6.4,29.9,9.4l3.4-9.2c-4.9-2.2-9.8-4.2-14.9-6.1c-2.6-0.9-5.1-1.8-7.8-2.6c-1.3-0.4-2.6-0.8-4-1.1
				c-1.4-0.3-2.7-0.7-4.1-1c-5.5-1.2-11.2-1.8-16.8-2c-1.4-0.1-2.8,0-4.2,0c-1.4,0-2.8,0-4.2,0.1l-4.1,0.2l-4.1,0.4
				c-10.9,1.1-21.5,2.9-32,4.7c-9.6,1.6-19.1,3.3-28.7,4.7c-0.8,0.3-1.5,0.6-2,0.8c-5.6,2.9,25.4-3.9,54.7-1.3
				c2.8-0.1,5.7-0.2,8.5-0.2C1243.3,356.7,1253.5,357.3,1263.2,359.9z"/>
			<path opacity="0.3" clip-path="url(#SVGID_10_)" fill="#091426" enable-background="new    " d="M1208.5,331.1
				c5-0.7,10-1.2,14.9-1.3c1.5-0.1,3,0,4.5,0s3,0.2,4.4,0.2c1.5,0.2,2.9,0.3,4.4,0.5s3,0.5,4.4,0.7c2.6,0.4,5.1,1,7.6,1.5
				c4.1,0.5,8.2,1.2,12.2,1.9c-9.8-3.8-22.1-6.7-36.8-6.7c-9.4,0-17.7,0.6-25.2,1.5c-4,0.8-7.9,1.6-11.8,2.6
				c-5.9,1.4-11.8,3-17.6,4.7c-5.8,1.7-11.6,3.3-17.4,4.8c-0.6,0.1-1.2,0.3-1.7,0.4c-0.2,0-0.3,0.1-0.5,0.1
				c-0.9,0.2-1.8,0.4-2.7,0.6c-10.1,2.4-20.3,4.4-30.5,6c-11.9,1.8-23.9,3-35.9,3.5c-6,0.2-12,0.4-18.1,0.4c-6,0-12.1,0-18.1-0.1
				c-6-0.2-12-0.4-17.9-1.4c-2.9-0.5-5.7-1.2-8.5-2.2c-1.4-0.5-2.7-1-4.1-1.6c1.4-0.4,2.8-0.8,4.1-1.2c3.1-0.1,6.1-0.6,9.1-1.2
				c4.2-0.9,8.4-2,12.5-3.3c8.2-2.5,16.2-5.5,24.3-8.5c4-1.5,8-3.1,11.9-4.8c0.8-0.4,1.7-0.8,2.5-1.1c2.2-1.1,14.4-7.1,27.3-13.2
				c1.6-0.8,3.2-1.6,4.8-2.4l22.9-11.6l11.5-5.7c1.9-0.9,3.9-1.8,5.8-2.6c2-0.8,3.9-1.6,6-2.3c8.1-2.8,16.4-4.9,24.7-6.6
				c4.8-0.9,9.6-1.8,14.5-2.4c3.6-0.7,7.2-1.2,10.8-1.6l-0.1-0.7c-8.6,0.7-17.1,1.9-25.5,3.5s-16.8,3.6-25,6.4
				c-2.1,0.6-4,1.5-6.1,2.3c-2,0.8-4,1.7-5.9,2.6l-11.5,5.7l-22.9,11.5c-7.6,3.8-15.3,7.7-23,11.3c-3.9,1.8-7.7,3.6-11.6,5.3
				c-3.9,1.7-7.8,3.3-11.9,4.7c-8,3-16,5.9-24.2,8.4c-3.8,1.2-7.7,2.2-11.6,3.1c3.7-1.4,7.3-2.8,10.9-4.3
				c10.8-4.5,21.3-9.6,31.7-14.9c5.2-2.7,10.3-5.4,15.4-8.3c5-2.9,10-6,14.8-9.3l-0.6-0.8c-4.8,3.2-9.9,6-15,8.8s-10.3,5.4-15.5,7.9
				c-6.6,3.2-13.2,6.3-20,9.2c-1.9,1.2-3.5,2.2-4.8,3c-8.2,5.2-34,11.9-50.7,16.2s-21.2,2.2-21.2,2.2s-2.2,0,2.8-4.8
				s13.1-12.1,27-30.1c13.9-17.9,24.8-31.8,24.8-31.8c4.9-8.1,8.2-13.5,10.3-17.2c5.4-16.6,7.6-34.6,7.9-50
				c0.5-21.3-12.9-49.7-38-63.5c-9.2-5.1-15.4-8.3-19.5-10.5c0.7,0.1,1.5,0.1,2.2,0.2c2.3,0.2,4.5,0.5,6.7,1
				c4.4,0.8,8.7,2.3,12.7,4.4c8.1,4.4,16.1,9.2,23.2,14.9c1.8,1.4,3.5,3,5.2,4.5c1.6,1.6,3.2,3.2,4.7,4.9c3,3.4,5.5,7.2,7.6,11.3
				c2.1,4,4,8.3,5.6,12.6c0.8,2.2,1.6,4.4,2.3,6.6c0.4,1.1,0.8,2.2,1.3,3.2c0.5,1.1,1.1,2.1,1.9,3.1c0.3-1.3,0.3-2.5,0.1-3.7
				c-0.1-1.2-0.4-2.4-0.7-3.5c-0.7-2.3-1.4-4.5-2.2-6.7c-1.6-4.4-3.4-8.8-5.6-13.1c-2.1-4.2-4.8-8.3-7.9-11.9
				c-3.1-3.6-6.6-6.9-10.3-9.8c-7.5-5.9-15.6-10.5-24-14.9c-4.3-2.1-8.8-3.7-13.5-4.4c-2.3-0.4-4.7-0.6-7.1-0.6
				c-1.2,0-2.4,0.1-3.6,0.2c-0.6,0.1-1.1,0.1-1.7,0.2c-4.5-2.2-5.2-2.4-5.2-2.4l1.7-27.8c0,0-76.2-3.6-41.9,7.4
				c16.2,5.2,31,15.6,43,27.1c2.4,1.6,4.6,3.3,6.5,4.9c3.6,3,7.7,9.2,11.4,15.5c4.5,6.1,8,12,10.3,16.8c2.6,5.5,4.9,12.3,6.5,20.3
				c0.8,2.3,1.5,4.5,2.1,6.4c2.4,7.9,3.2,28,2.1,47.2c-1,19.2-6.9,26-11.6,37.6c-1.6,4-3.8,8.3-6.2,12.3
				c-4.6,9.9-9.7,17.4-17.6,26.4c2-2.7,4.5-6.5,6.9-10.9c-2.1,1.6,4-7.9,5.6-11.5c0-0.1,0.1-0.1,0.1-0.2s0.1-0.1,0.1-0.2v-0.1
				c1-2.9,4.3-14,7.2-25.5c-1.5,5.1-2.9,9.4-4,12.9c-0.2,0.7-0.4,1.3-0.6,1.9c-0.1,0.2-0.1,0.4-0.2,0.5v0.1
				c-0.5,1.4-0.9,2.8-1.3,4.1l-0.6,1.7c-5.4,16.5-17.5,31.1-17.6,31.2l0.4,0.3c-2.3,2.5-4.7,5.1-7.4,7.9c0.9-2.4,1.9-4.9,2.8-7.4
				c-0.2,0.2-0.4,0.2-0.3,0c0.2-1.4,7.2-23.2,1.7-12.3c-0.6,1.2-1.2,2.3-1.7,3.4c-1,2.8-2.1,5.5-3.1,8.2c0.9-1.4,1.4-1.9,1,0.5
				c-0.8,5.1-3.6,8.3-6.8,13.9c-3.1,5.7-0.9-6.8-1.2-15.7c-0.2-5,0.2-10.5,0.7-15.1c-0.2-2.3-0.4-4.6-0.7-7
				c-4.4-40-14.1-58.2-34.2-74.2s-53.5-37.1-88.5-32.2s-40.5,18.8-51,16s9.2-18,28.2-30s65.5-30.2,103.8-12.2s48.8,34,55.6,53.1
				c3.8,10.5,6.3,23.8,6.6,38.3c0.4-0.3,0.8,0,0.9,0.8c0.3,2.2-1.9,24.2,0.4,11.1c0.3-1.5,0.5-3.1,0.7-4.8
				c1.1-28.6-4.4-64.1-31.3-84.1c-39.9-29.7-90.5-36.3-150.8,0c0,0-13.4,9.8-17,11.6s-9.2-4.9,19-26.5s67.9-34.5,109.7-23
				c18.7,5.1,32.7,13.3,43.6,22.5c2.2,1.2,4.6,2.6,7.3,4.2c8.3,5,13.8,17.1,21.5,28.2c7.7,11,9.1,32.1,9.1,32.1s1.2,18.5-2.3,39.6
				v0.1c-0.2,1-0.3,2-0.5,3c-3.6,20.6,6.8-14.2,3.7-46.5s-28.6-68.1-77.8-85.8s-95,7.8-115.2,20.2s-22.9,17.8-28.8,17.2
				s-0.8-12.1,21.5-26c13.5-8.4,44.7-23.6,67.1-34.3c31.6-8.3,50.5-6.6,74.8,3.8c30.3,13,47.4,26.6,57.4,45.6
				c9,17.1,12.2,28.2,12.1,56.4c0,3.6-0.2,7.2-0.4,10.6c-0.1,3.9-0.3,7.6-0.8,10.9c0-0.1,0-0.2,0-0.2c0.7-6.1,1.5-11.6,2.1-17.5
				c0-1.2,0.1-2.5,0.1-3.8c0.1-28.8-3.5-40.4-12.2-56.9c-10.1-19.2-27.4-33-57.9-46.1c-23.2-10-41.7-12-70.6-5.1
				c12.1-5.7,20.7-9.7,20.7-9.7L792.9,150l-55.8,56.8l30,56c20.9-11.8,37.7-20.9,52-27.6c-6.9,4.4-13.6,9-20.1,14
				c-5.8,4.4-11.3,9.4-16.8,14.1c-5.5,4.8-11.1,9.5-16.5,14.5s-10.6,10.1-15.6,15.6c-4.9,5.4-9.6,11.1-14.1,16.9l-3.3,4.4l-1.6,2.2
				l-1.6,2.3l-3.1,4.5l-3,4.6c-2,3-3.9,6.2-5.9,9.3c-1,1.6-1.9,3.2-2.8,4.7c-0.9,1.6-1.9,3.2-2.7,4.8c-7.2,12.8-13.4,26.2-18.5,39.9
				c-5.2,13.7-9.2,27.8-13.5,41.7c-4.3,14-8.4,28-14.8,41.1c-3.2,6.5-7,12.7-11.3,18.6c-1,1.4-2,2.7-3.1,4
				c-23,18.6-33.6,23.3-53.5,17.4c-12-3.5-23.9-11-33.3-19.5c2.6,1.5,5.4,2.9,8.3,3.8c3.3,1.1,6.8,1.9,10.3,2s7-0.2,10.3-0.8
				c3.4-0.6,6.6-1.4,9.9-2.2c6.5-1.7,12.9-4,18.9-6.9c1.5-0.7,3-1.5,4.5-2.3c1.5-0.9,2.9-1.7,4.4-2.5c1.4-0.9,2.8-1.8,4.2-2.8
				c1.3-1,2.7-1.9,4-3c5.2-4.2,10-9,14.2-14.1l1.6-1.9l1.5-2c0.5-0.7,1-1.3,1.5-2l1.4-2.1c1.8-2.8,3.4-5.8,4.9-8.7
				c3.1-5.9,5.9-11.9,8.7-17.9c1.4-3,2.7-6.1,4.1-9.1c1.3-3.1,2.7-6.1,3.9-9.2l7.4-18.5l7.2-18.5l3.6-9.2c0.6-1.5,1.3-3,1.9-4.6
				l1-2.3l1-2.2c5.5-12,11.8-23.6,18.5-35.1c6.7-11.4,13.6-22.7,20.9-33.8l-0.8-0.6c-7.6,10.9-14.8,22-21.7,33.4
				s-13.5,22.9-19.3,34.9l-1.1,2.3l-1,2.3c-0.7,1.5-1.4,3.1-2,4.6c-1.3,3.1-2.5,6.1-3.8,9.2L685,389l-7.3,18.5
				c-2.5,6.2-5,12.3-7.6,18.3c-2.6,6.1-5.3,12.1-8.2,18c-0.7,1.5-1.4,3-2.2,4.4s-1.5,2.8-2.4,4.2l-1.3,2c-0.4,0.7-1,1.3-1.4,2
				l-1.4,2l-1.5,1.9c-8.3,10-19.1,17.8-30.8,23.6c-5.9,2.9-12,5.1-18.4,6.7c-6.4,1.7-12.8,3.1-19.3,2.9s-12.7-2.6-18.3-6
				c-3.8-2.3-7.3-4.9-10.7-7.7c-3.1-4.1-5.6-8.1-7-11.8c-2.6-6.9-2.5-16.9,0-26.2c0,0.2,0,0.4,0,0.6c-0.3,4.4,0.5,9,2.4,13.1
				s4.5,7.6,7.3,10.8c2.8,3.2,5.9,6.3,9.3,9c1.7,1.3,3.6,2.5,5.5,3.6c1.9,1,4,1.9,6.1,2.6c4.3,1.3,9,1.5,13.3,0.4s8.2-3.3,11.4-6.1
				l-0.6-0.8c-1.7,1.2-3.5,2.2-5.3,3.1c-1.9,0.9-3.8,1.5-5.8,1.9c-4,0.8-8.2,0.4-12.1-0.9c-3.9-1.3-7.5-3.4-10.8-5.9s-6.3-5.4-9-8.6
				c-2.7-3.1-5.3-6.4-7.1-10.1c-1.7-3.7-2.6-7.8-2.4-11.9c0.1-3.5,0.7-6.9,1.5-10.3c3.5-7,8.7-12.6,15.3-14.4
				c17.2-4.6,6.3-5.9,8.1-8c1.9-2,4.9-6,4.9-6s6-25.5-21.5-2.2s-31.2,74.8-31.2,74.8l-2,89.8c13.9-24.9,28.3-30.6,42-30.6
				c-2.9,1.2-5.8,2.4-8.6,3.8c-7,3.4-13.8,7.7-19.1,13.6c-2.7,2.9-4.9,6.2-6.7,9.7s-3.1,7.2-4.1,11c-0.8,2.9-1.4,5.9-1.9,8.8l-2.1,3
				c-0.8,1.1-1.5,2.3-2.2,3.5l-2.2,3.5l0.8,0.5l2.3-3.4c0.8-1.1,1.5-2.3,2.3-3.4l0.6-0.8c0,0.3-0.1,0.5-0.1,0.8
				c-2.9,4.1-5.6,9.5-8.2,16.5c0,0,1.9,4.9,13.2,45.8s2,128,2,128s-68.1,134.2-70,163.2s9.1,55.5,42.8,87.2
				c33.7,31.7,126.5,45.2,126.5,45.2l21,5l-4.8-16.8c0,0-2.8-1.3-7.2-3.2c0.1,1.6-0.4,2.1-1.8,0.8c-1-0.8-2.2-1.9-3.5-3.1
				c-2.1-0.9-4.3-1.8-6.7-2.7c-2.8-2.9-5.7-5.7-8.6-8.5c-5.7-5.5-11.5-10.8-17.2-16.2c-0.6-0.6-1.2-1.2-1.8-1.7
				c-3.2-3.6-6.5-7.3-9.7-10.9c-0.3-0.3-0.5-0.6-0.7-0.8c-0.3-0.3-0.5-0.6-0.8-1c-0.6-0.7-1.2-1.4-1.9-2.1c-1.2-1.4-2.3-2.8-3.5-4.2
				c-3.4-5.4-6.1-11.2-8.4-17.2c-1.3-3.7-2.5-7.4-3.4-11.2s-1.7-7.6-2.1-11.5c-0.3-2.4-0.5-4.9-0.7-7.4c-0.2-1.5-0.3-3-0.3-4.4
				c-0.2-3.9-0.5-7.8-0.6-11.8c-0.4-9.7-0.4-19.4,0.1-29.1c0.3-8.5,0.9-17.4,2.2-26.4c3.7-24.7,10.6-40.6,11-41.5
				c3.9-13.7,7.7-27.5,11.4-41.3c4-15.2,7.9-30.4,11.5-45.8c3.5-15.3,7-30.7,9.1-46.3l0,0c0.2-1.1,0.4-2.2,0.6-3.2
				c1.8-10.4,2.9-20.9,3.6-31.5c0.7-10.5,0.7-21.1,0.3-31.7c-0.5-10.5-1.5-21.1-3.8-31.4c-2-8.8-4.8-17.5-8.3-25.8
				c20.5,7.8,34.5,16,34.5,16l93.5-96c0,0-5.2-46.6-4.6-47.5c0.5-0.9-8.6,10.6-18.9,29.5s-23.9,43.4-53,61.2
				c-29.1,17.9-49.4,14.5-82.2,17.2c-24.6,2.1-38.2,1-48.7,14.1c0.1-0.3,0.1-0.6,0.2-0.9l0.2-0.3l2.6-3.1c3.6-4,7.8-7.7,12.6-10.1
				c4.9-2.4,10.2-3.6,15.6-4.5c5.4-0.9,10.8-1.6,16.2-2.5c10.8-1.7,21.6-4.1,32.1-7.4c10.5-3.3,20.7-7.6,30.6-12.6
				c4.9-2.6,9.7-5.3,14.3-8.5c4.6-3.1,9-6.5,13.2-10.3c4.1-3.9,7.7-8,11.4-12.2c3.6-4.2,7-8.4,10.4-12.7
				c13.7-17.2,26.4-35,39.1-52.8l9.5-13.4l4.7-6.7c1.6-2.1,3.2-4.3,4.8-6.4c6.7-8.4,14.4-16.1,22.6-23.1c16.5-14,35-25.6,54.5-35.2
				c2.4-1.2,4.9-2.4,7.4-3.5l3.7-1.7l3.8-1.6c2.5-1.1,5-2,7.5-2.9l1.9-0.7l1.9-0.5l3.9-1.1c0.6-0.2,1.3-0.3,1.9-0.4
				c3.8-1.6,8.4-3.3,13.1-4.8c-5.2,0.6-10.4,1.5-15.6,2.7c-5.3,1.3-10.6,3-15.7,5.1l-3.8,1.6l-3.8,1.7c-2.5,1.1-5,2.3-7.5,3.4
				c-19.8,9.5-38.6,21-55.5,35.2c-8.4,7.1-16.2,14.9-23.2,23.5c-1.7,2.2-3.3,4.4-5,6.6l-4.8,6.7l-9.5,13.4
				c-12.7,17.8-25.6,35.5-39.1,52.6c-3.4,4.3-6.8,8.5-10.3,12.7c-3.5,4.1-7.1,8.2-11,11.9c-4,3.6-8.2,6.9-12.7,10
				c-4.5,3-9.2,5.7-13.9,8.3c-9.6,5-19.6,9.2-30,12.5c-10.3,3.4-20.8,6.1-31.5,8.2c-5.3,1.1-10.7,1.9-16.1,2.9l-4.1,0.9
				c-1.4,0.3-2.7,0.7-4.1,1.1c-1.3,0.5-2.7,0.9-4,1.4l-2,0.9c-0.7,0.3-1.3,0.6-1.9,0.9c-5.1,2.6-9.3,6.6-12.9,10.8l-1.1,1.4
				c0.5-2.1,1-4.1,1.5-6.1c2-7.3,5.5-14.3,10.8-19.7c5.3-5.5,11.9-9.5,18.8-12.7c4.6-2.1,9.3-3.9,14.1-5.6c4.7,0.5,9.3,1.5,13.7,2.4
				c19.4,3.8,61.9-12.2,83.5-39.2s63.5-85.4,83.2-114.8c19.8-29.3,63-54.7,63-54.7s-41.8,14-62,38.7c-16.7,20.3-49.2,69.3-76.9,100
				c1.1-2.2,2.2-4.4,3.3-6.6l2.1-4.6c0.6-1.5,1.3-3.1,1.9-4.6c1.2-3.1,2.4-6.2,3.6-9.3l6.7-18.8l1.7-4.7l1.8-4.7l3.5-9.3
				c2.4-6.2,4.9-12.3,7.5-18.4c2.7-6,5.4-12,8.5-17.9c3-5.9,6.1-11.7,9.5-17.4c6.7-11.4,13.9-22.5,21.5-33.3
				c3.9-5.4,7.8-10.7,12-15.8c4.1-5.2,8.4-10.3,12.7-15.2c8.8-9.8,19-18.3,30-25.7c5.5-3.7,11.1-7.1,17-10.3l4.4-2.3
				c1.5-0.7,2.9-1.5,4.4-2.2s3-1.4,4.5-2.1c1.5-0.7,3-1.3,4.4-2.4c-2.1-0.7-3.6,0-5.1,0.7s-3.1,1.3-4.6,2s-3,1.4-4.5,2.1l-4.5,2.3
				c-5.9,3.1-11.7,6.5-17.3,10.1s-11,7.6-16.2,11.8l-3.8,3.3c-1.3,1.1-2.5,2.3-3.7,3.4c-2.5,2.3-4.7,4.8-7.1,7.2
				c-4.5,5-8.8,10.1-12.9,15.3c-4.2,5.2-8.2,10.5-12.2,15.9c-7.8,10.8-15.2,21.9-21.9,33.5c-3.4,5.7-6.5,11.6-9.6,17.6
				c-3,5.9-5.9,12-8.5,18.2c-5.1,12.3-9.6,24.8-14.5,37.1c-4.9,12.3-10,24.5-15.6,36.4c-1.4,3-2.9,5.9-4.4,8.8s-3.1,5.8-4.7,8.6
				c-0.9,1.5-1.8,3-2.7,4.5c-1.4,1.3-2.7,2.5-4.1,3.6c-2.1,1.8-4.1,3.4-6,5c0.1-0.2,0.3-0.4,0.5-0.6c4.3-5.9,8.2-12.2,11.4-18.7
				c6.6-13.1,10.8-27.2,15.2-41.1c4.5-13.9,8.6-27.9,13.8-41.6c5.2-13.6,11.3-26.9,18.6-39.5c0.9-1.6,1.8-3.1,2.8-4.7
				c0.9-1.6,1.9-3.1,2.8-4.7c2-3.1,3.9-6.2,6-9.1l3.1-4.5l3.2-4.4l1.6-2.2l1.7-2.2l3.3-4.3c9-11.4,18.8-22.1,29.4-32
				c5.3-4.9,10.7-9.8,16.2-14.7l8.1-7.4c2.7-2.4,5.4-4.8,8.3-7.1c8.8-7.1,18-13.5,27.7-19.5c23.2-9.9,39.7-12.5,57.7-8.8
				c30.6,6.1,57.4,31.7,63.8,42.6c6.1,10.4,15.1,32.7,15.5,70.2c-1.5-6-3.8-11.9-6.8-17.3c-4.8-8.8-11.2-16.8-18.7-23.5
				c-1.9-1.7-3.9-3.3-6-4.7c-2.1-1.4-4.3-2.7-6.6-3.9c-4.5-2.3-9.2-4.1-14-5.7c-9.6-3-19.5-4.9-29.5-5.9l-3.7-0.3
				c-1.2-0.1-2.5-0.2-3.7-0.3c-2.5-0.1-5-0.3-7.5-0.2c-5-0.1-10,0.1-15,0.4l-3.7,0.3c-1.2,0.1-2.5,0.2-3.7,0.4
				c-2.5,0.4-5,0.7-7.4,1.1l-7.3,1.6l-7.2,2l-7.1,2.5c-2.3,1-4.6,1.9-6.9,2.9c-4.5,2.1-9,4.3-13.3,6.7l-3.2,1.8l-3.2,2
				c-1.1,0.6-2.1,1.3-3.1,2s-2.1,1.4-3.1,2.1c-4,2.9-8,5.8-11.7,9.2c4.5-2.4,8.4-5.2,12.5-8c1-0.7,2.1-1.3,3.1-2s2.1-1.3,3.1-1.9
				l3.2-1.9l3.2-1.8c8.7-4.6,17.7-8.5,27.1-11.2l7.1-1.8l7.2-1.4c2.4-0.4,4.9-0.6,7.3-0.9c1.2-0.2,2.4-0.2,3.7-0.3l3.7-0.2
				c9.8-0.5,19.7-0.4,29.5,0.5s19.5,2.7,28.9,5.6c9.3,3,18.5,6.9,25.8,13.4c4.7,4,8.9,8.6,12.6,13.5c0.9,1.1,1.7,2.2,2.3,3.2
				l0.1,0.1c1.3,1.9,2.5,3.8,3.6,5.7c4,7,7,14.7,8.5,22.6c0,2.4,0,4.5,0,6.5c-0.4-0.4-0.7-0.7-1.1-1.1c0,0.5,0,1.1-0.1,1.5
				c0.4,0.4,0.8,0.8,1.2,1.1c0.1,2.8,0.2,5,0.3,6.7c-0.1,0.1-0.1,0.1-0.2,0.2c-1.4-0.7-3.1-1.4-4.9-2.2c-1.1,0.6-2.6,0.7-4.9-0.6
				c-4.6-2.5-68.3-9.2-88.6-4.4c-14.6,3.5-18.7,4.3-20.8,4.2c-33.1,14.5-73.1,43.1-69.5,56c4.9,17.2,33.5,116.2,33.5,116.2l179,25.2
				l4.5-7.5c-4.7-17.3-21.6-24.7-44.8-26.6l0.7,0.7l-11.2,1.1c0,0-3.3-0.7-7.6-2.2c-2.2,0.1-4.4,0.1-6.7,0.3
				c-6.6-3.4-13.1-7.1-18.7-11.8c-6.7-5.5-10.8-13.4-13.9-21.4c-2.9-8.1-4.3-16.8-4.7-25.5c-0.3-8.7,0.3-17.4,2.8-25.7
				c1.3-4.1,3.2-8,5.3-11.7c2.2-3.8,4.6-7.4,7.1-10.9c0.5-0.7,1-1.3,1.5-2c1.9-3.2,4.3-6.8,8-11.3c10.2-12.5,27.5-28.6,27.5-28.6
				s-0.8,0.4-2.3,1.1c-0.2,0.2-0.5,0.4-0.7,0.6c-3.4,2.9-6.5,6-9.6,9.2s-6.1,6.4-9.1,9.6s-5.9,6.5-8.8,9.9
				c-2.8,3.4-5.6,6.8-8.3,10.3s-5.2,7.2-7.4,11c-2.3,3.8-4.3,7.8-5.7,12.1c-2.8,8.6-3.5,17.6-3.3,26.5c0.1,4.5,0.6,8.9,1.3,13.3
				s1.8,8.8,3.2,13.1l0.6,1.6l0.7,1.6c0.4,1.1,0.9,2.1,1.4,3.1s1,2,1.5,3s1.1,2,1.7,3c1.1,2,2.5,3.9,4,5.7c1.5,1.8,3.1,3.5,4.9,5
				c2.8,2.5,5.9,4.7,9,6.7c-0.4-0.2-0.9-0.4-1.3-0.6c-4.8-2.1-9.5-4.3-14.2-6.7c-4.6-2.4-9.1-5-13.4-8c-4.3-2.9-8.4-6.1-11.8-9.9
				l-0.6-0.7l-0.6-0.7c-0.4-0.5-0.8-1-1.2-1.5c-0.7-1.1-1.5-2.1-2.1-3.2c-1.4-2.2-2.6-4.4-3.8-6.7c-4.7-9.2-8-19.2-9.4-29.3
				c-0.7-5.1-0.9-10.2-0.5-15.3l0.4-3.8c0.2-1.3,0.5-2.5,0.7-3.8c0.4-2.5,1.2-5,1.9-7.4c1.6-4.9,3.7-9.6,6.2-14.1s5.3-8.9,8.4-13
				c6.2-8.3,13.5-15.8,21.7-22.1c4.1-3.1,8.4-6,13-8.4c2.2-1.1,4.5-2.2,6.8-3.1c7.7-1,16.6-1.1,25-0.5c-0.5,0.1-1.1,0.2-1.6,0.4
				c-1.3,0.3-2.5,0.7-3.8,1.1s-2.5,0.8-3.8,1.3l-1.9,0.7l-1.8,0.7c-1.2,0.5-2.5,1-3.6,1.6c-4.8,2.2-9.4,4.8-13.8,7.7l-3.3,2.3
				c-1.1,0.8-2.1,1.6-3.1,2.5l-1.5,1.2l-1.5,1.3c-1,0.9-2,1.8-2.9,2.7c-1.8,1.9-3.7,3.8-5.2,5.9c-1.7,2-3.1,4.2-4.6,6.4
				c-2.8,4.5-5.2,9.2-7,14.1c-3.8,9.8-5.7,20.3-5.1,30.7c0.6-1.4,0.9-2.6,1.2-3.9s0.5-2.5,0.6-3.8s0.3-2.5,0.4-3.8
				c0.2-1.3,0.4-2.5,0.6-3.8c1-5,2.4-9.9,4.3-14.6c1.8-4.5,4-8.7,6.6-12.8c-0.4-0.9,0.6-3.8,4.1-8.6c0,0,16.3-15.8,29-21.8
				s24.6-8.5,24.6-8.5l20.4,4.9c0,0-0.6,0.3-2.2,1.5c0.2,0.1,0.4,0.2,0.5,0.2c-0.6,0.2-1.1,0.4-1.7,0.6c-0.9,0.7-1.9,1.5-3.2,2.6
				c1.9-0.9,3.8-1.7,5.8-2.4c-1.7,3.4-2.8,5.4-2.8,5.4l4.2,2.7c0,0,1-2.2,2.6-5.8c1,0.6,1.9,1.1,2.7,1.4l-1.7,4.5l15.2,7.8
				l-4.8,73.5l14.8,36.5c0,0,34.5,2.6,20.5-5.2c-4.7-2.6-8.3-6-11-10.1c-1.3-3-2.1-6.2-2.3-9.4c-0.6-6.7,0.5-13.5,2.7-19.9
				c5.2-12.5,10.6-25.2,14.3-38.3c0.5-1.7,0.9-3.3,1.2-5s0.5-3.4,0.6-5.1c0.1-3.4-0.1-6.9-0.8-10.3c-1.4-6.8-4.7-13.1-9.4-18.2
				s-10.7-8.9-17.2-11.2c-0.4-0.1-0.7-0.2-1.1-0.3c-0.4,0-0.8-0.1-1.2-0.1l-6.5-1.4l1-0.2c-0.1,0-0.2,0-0.3-0.1
				c1.1-0.2,2.3-0.3,3.5-0.5c1.1-0.2,2.2-0.4,3.3-0.5c0.5-0.2,4.5-1.5,12,1.9c1.4,0.6,2.8,1.4,4.2,2.4c1,0.4,1.9,0.9,2.8,1.4
				c0.7,0.4,1.4,0.9,2.1,1.4c0.6,0.5,1.3,1,1.9,1.6c1.3,1.1,2.3,2.3,3.3,3.7c1,1.4,1.8,2.9,2.6,4.4c0.8,1.6,1.4,3.1,2,4.8
				c0.4,1.1,0.7,2.2,1.1,3.3c0,0.1,0,0.1,0.1,0.2c0.6,2,1,3.6,1.2,4.8c0.9,4,1.4,8.1,1.6,12.3c0.1,3.5,0,7-0.3,10.5
				s-1.1,6.9-1.9,10.3l2.2,0.6c1-3.5,1.8-7,2.2-10.7c0.4-3.6,0.6-7.2,0.5-10.9c-0.3-7.2-1.6-14.5-4.1-21.3c-0.6-1.7-1.4-3.4-2.2-5
				c-0.5-0.9-1-1.9-1.5-2.8c-0.8,3.5-2.7-2-8.3-7.6c-0.7-0.7-1.3-1.3-1.9-1.9c-4.3-2.1-8.9-3.4-13.5-4.3c0.9-0.2,1.8-0.3,2.7-0.5
				c-0.9-0.1-1.8-0.2-2.8-0.2l4.9-1.2c0,0,0.7,0.2,1.9,0.6c0.5-0.1,1-0.2,1.5-0.3c1.9-0.4,3.8-0.9,5.6-1.4c2.2,0.9,4.3,1.9,6.6,2.7
				c2.9,1,5.8,1.8,8.9,2.3c6,1,12.1,1.3,18.2,1.5s12.1,0.2,18.2,0.2s12.1-0.1,18.2-0.3c12.1-0.5,24.2-1.8,36.2-3.5
				c12-1.8,23.9-4.3,35.7-7.1c4.8-1.2,9.6-2.5,14.4-3.8c7.2-2.7,17.7-6.2,28.6-8C1199.3,331.7,1203.7,331.3,1208.5,331.1z
				 M517.4,953.8c-0.8-6.2-0.9-12.5-0.1-18.7c0.8-6.2,2.5-12.3,4.6-18.3c2.1-5.9,4.8-11.7,7.4-17.5l7.8-17.4
				c5.2-11.6,10.6-23.1,16-34.5l4.2-8.6c1.4-2.8,2.9-5.7,4.2-8.6c2.7-5.8,5-11.7,7-17.7c0.3-0.9,0.6-1.8,0.9-2.6
				c-0.4,1.6-0.8,3.3-1.3,4.9c-1.1,4.3-2.3,8.6-3.5,12.8c-0.6,1.8-1.3,3.6-1.9,5.4c-0.9,2.4-1.8,4.7-2.7,7.1l-2.9,7
				c-0.4,1.2-1,2.3-1.5,3.5s-1,2.3-1.5,3.5c-1,2.3-2.1,4.7-3.2,7.1c-4.3,9.5-9,18.8-11.6,29c-1.3,5.1-2.2,10.2-2.9,15.4
				s-1.2,10.3-1.5,15.5c-0.6,10.4-0.2,20.9,1.1,31.3c1.5,10.4,4.1,20.6,7.9,30.3c1.9,4.9,3.9,9.7,6.2,14.4c0.5,1.2,1.1,2.3,1.7,3.5
				c0.4,0.7,0.7,1.4,1.1,2c-1.4-1.3-2.7-2.5-4.1-3.8c-4.7-4.3-9.6-8.3-14-12.8s-8.5-9.2-11.6-14.6c-1.6-2.7-2.9-5.5-3.9-8.4
				C518.5,959.9,517.8,956.9,517.4,953.8z M542.4,932.2c0.3,10.1,1.2,20.2,2.8,30.2s4,20,7.4,29.6c1.1,3.2,2.4,6.4,3.7,9.5
				c-3.2-6.6-6.1-13.4-8.4-20.4c-3.4-9.7-5.9-19.6-7.5-29.7c-1.5-10.1-1.9-20.3-1.5-30.5c0.2-5.1,0.7-10.2,1.3-15.2
				c0.6-5.1,1.4-10.1,2.7-15c1.8-7.7,5.1-14.7,8.7-21.7c-0.3,1-0.6,2-0.9,3c-2.9,9.7-5.3,19.5-6.8,29.6c-0.7,5-1.3,10.1-1.4,15.2
				c-0.2,2.5-0.1,5.1-0.1,7.6C542.3,927.2,542.3,929.7,542.4,932.2z M535.2,997.8c-6.6-8.9-11.3-17.2-14.7-25l0,0
				c1.6,2.8,3.5,5.6,5.6,8.1s4.2,5,6.4,7.3s4.5,4.6,6.8,6.8s4.6,4.4,6.9,6.5l7,6.4c2.3,2.1,4.6,4.2,6.8,6.4c2.8,4.5,5.8,8.9,9,13.2
				C556.8,1020.2,544.6,1010.4,535.2,997.8z M619.6,1044.6c2.3,2.2,4.6,4.5,6.9,6.7c-1.4-0.5-2.7-1-4.1-1.6
				c-4.1-4.7-8.1-9.4-12.3-14C613.3,1038.7,616.4,1041.6,619.6,1044.6z M604,759.1c-3.6,15.3-7.6,30.5-11.6,45.7
				c-4.1,15.2-8.3,30.3-12.7,45.4l-3.3,11.3c-1,3.8-2.1,7.6-3,11.5c-1.8,7.7-3.2,15.5-4.2,23.3c-1.9,15.7-2.3,31.5-1.6,47.3
				c0.2,3.9,0.4,7.9,0.6,11.8l0.4,5.9c0.2,2,0.3,4,0.6,5.9c0.5,3.9,1.3,7.8,2.2,11.7c1,3.8,2.1,7.6,3.5,11.4
				c1.3,3.3,2.7,6.6,4.3,9.8c-0.3-0.4-0.6-0.8-0.9-1.2l-2.3-3.2c-0.7-1.1-1.5-2.1-2.2-3.2c-0.6-1.1-1.3-2.2-2-3.3
				c-0.6-1.2-1.2-2.3-1.7-3.5c-2.2-4.7-3.8-9.6-5.1-14.7c-1.3-5-2.3-10.2-3-15.4c-1.3-10.4-1.7-20.9-0.4-31.3
				c1.2-10.4,3.1-20.8,5.2-31.1c2.1-10.3,4.5-20.6,7.2-30.7c1.3-5.1,2.7-10.2,4.1-15.2c1.5-5.1,3-10.1,4.5-15.1
				c6.2-20.1,12.3-40.3,17.8-60.7c1.2-4.3,2.3-8.5,3.4-12.8C604.1,758.8,604.1,758.9,604,759.1z M604.2,588.5
				c0.4,0.1,0.8,0.3,1.1,0.4c1.5,3.8,2.8,7.7,4.1,11.5c1.6,5,3,10,4.1,15.2c1.1,5.1,1.8,10.3,2.4,15.5c0.6,5.2,1,10.4,1.2,15.7
				c0.4,10.5,0.3,21-0.4,31.5c-0.6,10.5-1.8,20.9-3.6,31.3c-3.6,20.7-8.8,41.1-14.4,61.4c-5.6,20.3-11.7,40.5-17.9,60.6
				c-1.5,5-3.1,10.1-4.5,15.2c-1.4,5.1-2.8,10.2-4.2,15.3c-2.7,10.2-5.1,20.5-7.3,30.8c-2.1,10.3-4,20.8-5.3,31.3
				c-1.4,10.6-0.9,21.3,0.3,31.8c0.7,5.3,1.6,10.5,2.9,15.7c1.3,5.2,2.9,10.3,5.1,15.1c0.6,1.2,1.2,2.4,1.7,3.6
				c0.6,1.2,1.4,2.3,2,3.5c0.7,1.2,1.4,2.2,2.1,3.4l2.2,3.3c3,4.4,6.2,8.7,9.5,12.8c6.5,8.4,13.7,16.1,20.9,23.8
				c3.5,3.7,7.1,7.3,10.7,10.9c-2.9-1-5.7-1.9-8.6-2.8c-7-2.1-16.4-5.5-26.4-10.3c-0.3-0.4-0.6-0.8-0.8-1.2
				c-0.9-1.3-1.9-2.6-2.9-3.8c-1-1.3-1.9-2.5-3-3.8c-1.8-2.2-3.7-4.5-5.6-6.6c-0.4-0.6-0.7-1.3-1.1-1.9l-3.5-6.6l-1.7-3.3
				c-0.5-1.1-1-2.2-1.6-3.4c-2-4.5-3.7-9.2-5.3-13.9c-3.2-9.4-5.6-19-7.1-28.8c-1.6-9.8-2.4-19.7-2.7-29.7c-0.2-5-0.3-9.9,0-14.9
				c0.2-4.9,0.7-9.9,1.4-14.7c1.4-9.8,3.8-19.4,6.6-29c2.8-9.5,6-19,9.2-28.6c3.1-9.6,5.8-19.3,8.3-29c5-19.5,9.3-39.1,13.3-58.8
				c2-9.8,3.8-19.7,5.7-29.5s3.7-19.7,5.4-29.6c1.7-9.9,3.1-19.9,4-29.9c0.5-5,0.7-10.1,0.9-15.1s0.3-10.1,0.3-15.1
				c0-17.6-2.5-34.9-5.7-52.1C598.7,586.6,601.4,587.4,604.2,588.5z M568,596.8c0.2-1.1,0.4-2.1,0.6-3.1l0.7,6.9
				c0.6,5.8,1.1,11.5,1.7,17.3c0,0.3,0.1,0.6,0.1,0.9C568.9,609.9,567.2,602.4,568,596.8z M573.2,750.5c4.2-23.6,2-44,2-44
				s2.7-11.8,3.8-40c0.2-5.4-0.1-10.7-0.8-16c-0.1-5.2-0.5-10.4-0.9-15.6c-0.5-5.8-1.2-11.6-1.9-17.4c-0.7-5.8-1.6-11.6-2.5-17.4
				c-0.6-3.7-1.3-7.4-2-11c4.1-5.7,12.2-6.7,24.2-3.6c1.2,7.5,2.3,15,3.1,22.5c1,9.9,1.6,19.9,1.5,29.9c0,5-0.2,10-0.5,15
				s-0.6,10-1.1,14.9c-1,9.9-2.6,19.8-4.4,29.6c-1.8,9.8-3.8,19.6-5.8,29.5l-6,29.4c-2.3,11.1-4.7,22.2-7.2,33.3
				c-0.5,1.5-0.9,2.9-1.4,4.4c-1,3-1.9,6-2.9,9s-2,6-3.1,9c-2.1,5.9-4.5,11.8-7.2,17.5c-0.7,1.4-1.4,2.8-2.1,4.2l-2.2,4.2l-4.3,8.5
				c-2.8,5.7-5.6,11.4-8.3,17.2c-2.7,5.7-5.5,11.5-8.1,17.2l-7.9,17.3c-2.6,5.7-5.4,11.6-7.6,17.6c-2.2,6.1-4,12.3-4.9,18.8
				c-0.5,3.7-0.7,7.4-0.6,11.1c-0.6-6.6-0.5-13.2-0.1-19.8c1.5-22.6,10-52.1,30.8-86.9C565.4,804.3,569,774.1,573.2,750.5z
				 M837,513.2c-21.3-13.4-28.3-28.9-27.9-49.4c0.1,0.3,0.1,0.6,0.2,0.9c2.7,9.7,6.6,19.1,12,27.8c5.4,8.6,12.3,16.4,20.6,22.2
				c3.6,2.5,7.4,4.7,11.5,6.5C848.5,519.8,843.4,517.3,837,513.2z M863.5,522.9c-7.1-2.6-13.8-6.2-19.7-10.7
				c-7.8-5.9-14.4-13.2-19.7-21.5c-5.3-8.2-9.3-17.3-12.3-26.7c-0.9-2.7-1.6-5.5-2.3-8.3c1.2-13.1,4.5-23.9,11.6-35.4l-0.2,1.5
				c-0.6,3.4-0.8,7-0.9,10.5c0,7.1,1.3,14.1,3.3,20.7c1,3.3,2,6.6,3.1,9.9c0.6,1.6,1.1,3.3,1.8,4.9s1.3,3.3,2,4.8
				c2.8,6.4,6.3,12.5,10.4,18.2c4.2,5.6,8.8,10.9,14.2,15.5c2.7,2.3,5.4,4.5,8.3,6.4l2.2,1.5c0.7,0.5,1.5,0.9,2.2,1.4
				c1.5,0.9,3,1.8,4.5,2.6s3.1,1.6,4.6,2.4c1.1,0.6,2.3,1,3.5,1.5C873.4,522.7,868.2,523.1,863.5,522.9z M890.5,365.6
				c-8.5,6.5-16,14.2-22.4,22.7c-3.2,4.3-6.1,8.7-8.7,13.4c-2.6,4.7-4.8,9.6-6.5,14.7c-0.8,2.6-1.6,5.2-2.1,7.8
				c-0.2,1.3-0.5,2.7-0.7,4l-0.4,4c-0.4,5.4-0.2,10.8,0.5,16.1c1.5,10.6,4.9,21,9.8,30.5c1.2,2.4,2.5,4.7,4,7
				c0.7,1.2,1.5,2.3,2.2,3.4c0.4,0.6,0.9,1.1,1.3,1.7l0.7,0.8l0.7,0.8c3.7,4.1,8,7.5,12.4,10.5s9.1,5.7,13.8,8.2
				c4.7,2.4,9.5,4.7,14.4,6.8c0.4,0.2,0.9,0.4,1.3,0.5c-0.8,0.1-1.5,0.1-2.3,0.2c-9.1,0.9-16.5,1.8-22.8,2.6
				c-1.1-0.4-2.2-0.8-3.2-1.3c-1.6-0.7-3.2-1.2-4.7-2c-1.5-0.7-3-1.5-4.5-2.3s-2.9-1.7-4.4-2.5c-0.7-0.4-1.5-0.9-2.2-1.3l-2.1-1.5
				c-2.8-1.9-5.5-4-8-6.3c-5.2-4.4-9.6-9.6-13.6-15.1c-3.9-5.5-7.2-11.5-9.9-17.7c-0.4-0.8-0.7-1.6-1-2.3l-0.9-2.4
				c-0.6-1.6-1.1-3.2-1.6-4.8c-1-3.3-2-6.5-2.9-9.8c-1.8-6.5-2.9-13.2-2.8-19.8c0.1-3.3,0.4-6.6,1-9.9l0.4-2.4l0.6-2.4
				c0.2-0.8,0.4-1.6,0.6-2.4l0.8-2.4c0.2-0.7,0.5-1.5,0.8-2.2c2.6-3.4,5.6-6.9,8.9-10.7c17.6-19.6,43.5-34.4,62.5-40.2
				C896.4,361.4,893.4,363.4,890.5,365.6z M986.5,354.8c9.5,2.8,20.6,9.7,25.5,16.1c5.7,7.5,6.8,12.5,6,23.6c0,0.1,0,0.1,0,0.2
				c0,1.4-0.1,2.9-0.3,4.3c-0.8,8.6-2.2,16.7-6.1,20.9c-0.5,1.5-1.1,2.9-1.6,4.4c-1.2,3.2-2.4,6.3-3.7,9.5s-2.6,6.2-3.9,9.5
				c-2.3,6.6-3.4,13.6-2.6,20.6c0.1,0.9,0.2,1.8,0.4,2.6c-2.5-7-2.6-15.4-0.2-24.5c4.6-17.3,9.8-29.9,8.9-45.4
				c-1.1-4.8-3.6-7.8-5.3-14.8c-0.9-3.9-2.9-7.3-5.2-10.3c-5.7-5.8-14-10.2-25.1-12.7l-1.1,2.8c-0.6-0.6-1.4-1.2-2.3-1.8
				c0.5-1.1,1-2.4,1.5-3.6c2.2-0.6,4.5-1.1,6.8-1.5c-0.5-0.3-1-0.5-1.5-0.8h5.1C983.4,354,984.9,354.4,986.5,354.8z"/>
			<path opacity="0.3" clip-path="url(#SVGID_10_)" fill="#091426" enable-background="new    " d="M1046.6,304.1l0.1-0.1l1.4-1.7
				c0.5-0.6,0.9-1.2,1.3-1.8l2.5-3.7c0.8-1.2,1.5-2.5,2.3-3.8s1.4-2.6,2.1-3.9l1-2l0.9-2c2.4-5.4,4.1-11.1,5.1-16.9
				c0.5-2.9,0.8-5.9,0.8-8.8s-0.4-5.9-1.4-8.7c0,1.5,0,2.9-0.1,4.4c0,0.7,0,1.4-0.1,2.2c0,0.7-0.1,1.4-0.1,2.1
				c0,1.4-0.2,2.9-0.3,4.3c-0.2,1.4-0.3,2.8-0.6,4.3c-1,5.6-2.8,11.2-5.2,16.4l-0.9,2l-1,1.9c-0.7,1.3-1.3,2.6-2.1,3.8
				c-0.8,1.2-1.5,2.5-2.2,3.7l-2.5,3.5c-3.4,4.6-7.3,8.9-11.5,12.9c-0.3,0.3-0.6,0.5-0.9,0.8c0,0.3,0,0.7-0.2,1.2
				C1035.1,314,1040.1,310.9,1046.6,304.1z"/>
			<path opacity="0.3" clip-path="url(#SVGID_10_)" fill="#091426" enable-background="new    " d="M1011.8,262.4
				c0,0.3-0.1,0.5-0.1,0.7C1011.7,262.9,1011.7,262.6,1011.8,262.4z"/>
			<path opacity="0.3" clip-path="url(#SVGID_10_)" fill="#091426" enable-background="new    " d="M1094.2,227.4c0,0.3,0,0.5,0,0.8
				c0,6.1-0.5,12.3-1.6,18.3c-0.3,1.5-0.6,3-0.9,4.5l-1.2,4.4c-0.5,1.4-1,2.9-1.5,4.3c-0.2,0.7-0.5,1.4-0.8,2.1l-0.9,2.1
				c-2.5,5.6-5.6,10.9-9,16c-3.2,4.5-6.6,8.9-10.2,13.1c-0.9,2-1.4,3.2-1.4,3.2s0.9-0.3,2.3-1.1c4-4.4,7.7-9.1,11.1-13.9
				c3.6-5.1,6.8-10.6,9.4-16.3l0.9-2.2c0.3-0.7,0.7-1.4,0.9-2.2c0.5-1.5,1.1-3,1.6-4.5l1.2-4.5c0.4-1.5,0.7-3.1,1-4.6
				c1.2-6.2,1.7-12.5,1.8-18.7c0.1-6.3-0.4-12.6-1.2-18.8c-0.2-1.6-0.4-3.1-0.7-4.7c-0.3-1.5-0.5-3.1-0.9-4.6l-1.1-4.6l-1.3-4.6
				c-1.9-6-4.2-11.9-7.4-17.5c-3.1-5.5-6.9-10.6-10.9-15.5c-0.6-0.7-1.2-1.4-1.8-2.1c-2.3-1.5-3.8-3-3.8-4.3c-2.3-2.6-4.7-5-7.2-7.5
				c-2.3-2.2-4.6-4.4-6.9-6.5c-2.4-2.1-4.7-4.1-7.3-6.2l-2.5,3.4c4.8,3.8,9.5,7.9,14,12.1c4.5,4.3,8.8,8.7,12.7,13.4
				c4,4.7,7.7,9.6,10.8,14.8c3.1,5.2,5.5,10.9,7.3,16.7c1.9,5.8,3.2,11.8,4.1,17.9c0.7,4.6,1.1,9.3,1.3,14c0,0.9,0.1,1.8,0.1,2.8
				C1094.2,226.9,1094.2,227.1,1094.2,227.4z"/>
			<path opacity="0.3" clip-path="url(#SVGID_10_)" fill="#091426" enable-background="new    " d="M870.8,304.2
				c12.5,1.6,24.5,4.6,24.5,4.6c-0.6-0.4-0.9-0.8-0.9-1.1c-0.6-0.2-1.2-0.4-1.8-0.5c-9.3-2.7-19-4.4-28.7-4.8
				c-2.4-0.2-4.9-0.1-7.3-0.2c-2.4,0-4.9,0.1-7.3,0.2c-4.8,0.4-9.7,0.8-14.4,1.7c-4.8,0.7-9.5,1.8-14.2,3.2l-3.5,1.1
				c-1.2,0.4-2.3,0.7-3.4,1.2l-3.4,1.3c-1.1,0.4-2.3,0.9-3.3,1.4c-4.4,2-8.7,4.2-12.9,6.6c-2.1,1.2-4.2,2.3-6.2,3.7l-3.1,1.9l-3,2
				c-4,2.7-7.8,5.6-11.6,8.6c-3.7,3-7.3,6.2-10.7,9.6c3.7-3,7.6-5.9,11.4-8.7c1-0.7,2-1.4,2.9-2c1-0.7,1.9-1.4,2.9-2
				c2-1.3,3.9-2.7,6-3.9l3-1.9l3.1-1.8c2-1.3,4.1-2.3,6.2-3.5c4.2-2.2,8.5-4.2,12.8-6c1.1-0.5,2.2-0.9,3.3-1.3l3.3-1.2
				c1.1-0.4,2.2-0.7,3.4-1.1l0.3-0.1c1.6-1,3.6-2,6-3C834.9,304.2,858.3,302.7,870.8,304.2z"/>
			<path opacity="0.3" clip-path="url(#SVGID_10_)" fill="#091426" enable-background="new    " d="M938.6,376.1
				c-8.1,8.8-19,22.4-25.5,34.2c-9.3,17-11.3,32.4-11.5,46.8c0,0.1,0,0.3,0.1,0.4c0.5,3.2,1.4,6.4,2.6,9.4c1.3,3,2.7,5.9,4.4,8.6
				c1.6,2.8,3.4,5.4,5.2,8l0.9-0.5c-3-5.6-6-11.1-8.3-16.9c-1.1-2.9-2-5.9-2.5-8.9s-0.6-6.1-0.4-9.2c0.4-6.2,1.6-12.4,3-18.6
				c1.4-6.1,3.8-11.9,6.5-17.5c5.7-11.2,13.2-21.5,22.1-30.3c1.6-1.6,3.3-3.2,5.1-4.7c2.3-2.5,4.4-4.8,5.8-6.4
				C943.5,372.1,941,374,938.6,376.1z"/>
			<path opacity="0.3" clip-path="url(#SVGID_10_)" fill="#091426" enable-background="new    " d="M1011.8,262.4
				c0-0.2,0.1-0.4,0.1-0.5c0.4-3.3,0.7-7,0.8-10.9c-1.4,18.8-6.1,35.3-10.3,48.6c1.1-3.5,2.6-7.9,4-12.9c2.3-9,4.5-18.1,5.3-23.5
				C1011.7,262.9,1011.7,262.6,1011.8,262.4z"/>
			<path opacity="0.3" clip-path="url(#SVGID_10_)" fill="#091426" enable-background="new    " d="M1001.5,302
				c0.1-0.2,0.1-0.4,0.2-0.5c-0.1,0.2-0.1,0.5-0.2,0.7C1001.4,302.1,1001.5,302.1,1001.5,302z"/>
			<path opacity="0.3" clip-path="url(#SVGID_10_)" fill="#091426" enable-background="new    " d="M1000.7,168.1
				c-3.7-6.3-7.8-12.5-11.4-15.5c-1.9-1.6-4.1-3.3-6.5-4.9C989.8,154.3,995.9,161.4,1000.7,168.1z"/>
			<path opacity="0.3" clip-path="url(#SVGID_10_)" fill="#091426" enable-background="new    " d="M993.3,324.1
				c2-3.5,3.9-7.4,5.6-11.5C997.4,316.2,991.2,325.7,993.3,324.1z"/>
			<path opacity="0.3" clip-path="url(#SVGID_10_)" fill="#091426" enable-background="new    " d="M999,312.4
				c0-0.1,0.1-0.1,0.1-0.2C999,312.3,999,312.4,999,312.4z"/>
			<path opacity="0.3" clip-path="url(#SVGID_10_)" fill="#091426" enable-background="new    " d="M1014,280.5
				c-3.5,11.9-6.6,20.8-10,28.2c2.3-4,4.5-8.4,6.2-12.3c4.7-11.6,10.6-18.4,11.6-37.6s0.3-39.3-2.1-47.2c-0.6-1.9-1.3-4.1-2.1-6.4
				C1021.8,225.2,1022.3,252.2,1014,280.5z"/>
			<path opacity="0.3" clip-path="url(#SVGID_10_)" fill="#091426" enable-background="new    " d="M1011.8,261.8
				c0,0.2,0,0.3-0.1,0.5C1011.8,262.2,1011.8,262,1011.8,261.8z"/>
			<path opacity="0.3" clip-path="url(#SVGID_10_)" fill="#091426" enable-background="new    " d="M1011.6,263.1
				c-0.8,5.4-3,14.6-5.3,23.5c1.9-6.5,3.8-14.2,5.2-22.9C1011.6,263.5,1011.6,263.3,1011.6,263.1z"/>
			<path opacity="0.3" clip-path="url(#SVGID_10_)" fill="#091426" enable-background="new    " d="M967.9,323
				c-0.4,4.7-0.8,10.1-0.7,15.1c0.3,8.9-2,21.3,1.2,15.7c3.1-5.7,6-8.8,6.8-13.9c0.4-2.5-0.1-2-1-0.5c-2,4.9-3.9,9.4-5.7,13.3
				C968.9,345.8,968.9,335.4,967.9,323z"/>
			<path opacity="0.3" clip-path="url(#SVGID_10_)" fill="#091426" enable-background="new    " d="M989.8,281.7
				c-0.2,1.7-0.4,3.3-0.7,4.8c-2.4,13.1-0.1-8.9-0.4-11.1c-0.1-0.8-0.5-1.1-0.9-0.8c0.3,11.9-1,24.6-4.3,37.2
				c-1.7,6.6-3.9,13.2-6.2,19.4c0.6-1.1,1.1-2.2,1.7-3.4c5.5-10.9-1.5,10.8-1.7,12.3c0,0.2,0.1,0.2,0.3,0c2.9-7.9,5.6-16.4,7.5-24.3
				C987.2,307.8,989.3,295.6,989.8,281.7z"/>
			<path opacity="0.3" clip-path="url(#SVGID_10_)" fill="#091426" enable-background="new    " d="M991.5,216.5
				c11.1,17.5,10.2,49.2,7.1,70v-0.1c3.5-21.1,2.3-39.6,2.3-39.6s-1.4-21.1-9.1-32.1c-7.7-11-13.3-23.1-21.5-28.2
				c-2.6-1.6-5.1-3-7.3-4.2C976.5,193.6,985.1,206.3,991.5,216.5z"/>
			<path opacity="0.3" clip-path="url(#SVGID_10_)" fill="#091426" enable-background="new    " d="M953.3,313.7
				c-0.6-1-1.4-2.1-2.3-3.2c0.8,1.1,1.6,2.2,2.4,3.3C953.3,313.8,953.3,313.7,953.3,313.7z"/>
			<path opacity="0.3" clip-path="url(#SVGID_10_)" fill="#091426" enable-background="new    " d="M955.9,354.4
				c2.3,1.3,3.8,1.2,4.9,0.6c-1.5-0.6-3.2-1.2-5.1-1.8c-2.3-0.7-4.5-1.3-6.8-1.9l0,0c-5.1-2.2-10.5-3.4-15.9-4.5s-10.8-1.8-16.3-2.5
				c-10.9-1.2-21.9-1.7-32.8-1.3c-5.7,0.2-11.4,0.6-17.1,1.2c-4.7,1.6-9.3,3.3-13.1,4.8c5.4-1.3,10.8-2.2,16.3-2.8
				c-6.8,1.3-15,4.2-23.7,8c2.1,0,6.2-0.8,20.8-4.2C887.6,345.2,951.3,352,955.9,354.4z"/>
			<path opacity="0.3" clip-path="url(#SVGID_10_)" fill="#091426" enable-background="new    " d="M956.5,340.6
				c-3.8-3-7.6-5.9-11.6-8.6c-3.9-2.8-8-5.4-12.1-7.9s-8.4-4.8-12.7-7l-3.3-1.6l-3.4-1.4c-1.1-0.5-2.3-0.9-3.4-1.3
				c-1.2-0.4-2.3-0.8-3.4-1.2c-4-1.3-8-2.6-12-3.8c0,0.4,0.3,0.8,0.9,1.1c0,0-12-3.1-24.5-4.6c-12.5-1.6-35.9-0.1-46.4,4.1
				c-2.5,1-4.4,2-6,3l3.1-0.9c4.5-1.2,9.2-2.1,13.9-2.8c9.4-1.4,18.9-2.1,28.4-1.8c9.5,0.3,18.9,1.8,28.1,4.3
				c4.6,1.2,9.2,2.7,13.8,4.1c1.1,0.4,2.3,0.7,3.4,1.1c1.1,0.4,2.2,0.7,3.3,1.2l3.3,1.3l3.2,1.5c4.3,2,8.5,4.2,12.7,6.7
				c4.1,2.4,8.2,4.9,12.2,7.5s7.9,5.3,11.8,8.2c3,2.3,6.1,4.7,8.8,7.3c0.1-0.5,0.1-1,0.1-1.5C961.9,345,959.2,342.8,956.5,340.6z"/>
			<path opacity="0.3" clip-path="url(#SVGID_10_)" fill="#091426" enable-background="new    " d="M931,517.3
				c4.4,1.5,7.6,2.2,7.6,2.2l11.2-1.1l-0.7-0.7C943.5,517.2,937.4,517.1,931,517.3z"/>
			<path opacity="0.3" clip-path="url(#SVGID_10_)" fill="#091426" enable-background="new    " d="M949.1,368.4c-1,0.6-2,1.3-3,1.9
				c-1.5,1.7-3.5,3.9-5.8,6.4c3-2.6,6.2-5.1,9.5-7.2c2.6-1.7,5.3-3.2,8.1-4.5c1.3-1.1,2.3-1.9,3.2-2.6
				C956.9,364,952.9,366,949.1,368.4z"/>
			<path opacity="0.3" clip-path="url(#SVGID_10_)" fill="#091426" enable-background="new    " d="M938.6,376.1
				c-1.6,1.3-3.1,2.7-4.6,4.1c-9.2,8.9-16.9,19.2-22.8,30.6c-2.9,5.7-5.3,11.7-6.8,18c-1.4,6.2-2.7,12.5-3.1,18.9
				c-0.2,3.1-0.1,6.2,0.3,9.3c0.2-14.3,2.2-29.7,11.5-46.8C919.6,398.4,930.5,384.9,938.6,376.1z"/>
			<path opacity="0.3" clip-path="url(#SVGID_10_)" fill="#091426" enable-background="new    " d="M919,390.2
				c2.9-3.3,5.9-6.5,8.9-9.7s6.1-6.3,9.4-9.2c3.3-2.9,6.7-5.6,10.4-8c2.4-1.5,4.8-3,7.3-4.3c2.7,0.7,5.2,1.6,7.3,2.5
				c1.6-1.1,2.2-1.5,2.2-1.5l-20.4-4.9c0,0-11.8,2.5-24.6,8.5s-29,21.8-29,21.8c-3.4,4.8-4.4,7.7-4.1,8.6c0.2-0.2,0.3-0.5,0.4-0.7
				l2.2-3.1c0.4-0.5,0.7-1,1.1-1.5l1.2-1.5c1.5-2,3.3-3.8,5.1-5.7c0.9-0.9,1.9-1.7,2.8-2.6l1.4-1.3l1.5-1.2c1-0.8,2-1.6,3-2.4
				l3.2-2.2c4.3-2.8,8.8-5.4,13.5-7.6c6.9-3.2,14.2-5.8,21.6-7.4c3.5,0.4,6.9,1,10,1.8c-2.2,1.1-4.3,2.4-6.4,3.7
				c-3.5,2.2-6.8,4.7-9.9,7.4c1.4-0.8,2.3-1.1,2.3-1.1s-17.3,16.1-27.5,28.6c-3.7,4.5-6.1,8.1-8,11.3c2.1-2.8,4.3-5.6,6.6-8.3
				C913.2,396.7,916.1,393.4,919,390.2z"/>
			<path opacity="0.3" clip-path="url(#SVGID_10_)" fill="#091426" enable-background="new    " d="M590.9,1014.1
				c0.2,0.3,0.5,0.5,0.7,0.8c-0.5-0.6-1-1.2-1.5-1.8C590.4,1013.5,590.7,1013.8,590.9,1014.1z"/>
			<path opacity="0.3" clip-path="url(#SVGID_10_)" fill="#091426" enable-background="new    " d="M570.2,959.6
				c-0.1-1.5-0.2-2.9-0.3-4.4C569.9,956.6,570,958.1,570.2,959.6z"/>
			<path opacity="0.3" clip-path="url(#SVGID_10_)" fill="#091426" enable-background="new    " d="M639.2,1058.1
				c1.4,1.3,2,0.8,1.8-0.8c-1.6-0.7-3.4-1.4-5.4-2.3C637,1056.2,638.2,1057.2,639.2,1058.1z"/>
			<path opacity="0.3" clip-path="url(#SVGID_10_)" fill="#091426" enable-background="new    " d="M569.4,914.4
				c0.3-6,0.8-12,1.6-17.9c0.9-7.8,2.4-15.5,4.2-23.1s4.1-15.1,6.3-22.7c0.4-1.4,0.8-2.8,1.2-4.1c-0.4,0.9-7.3,16.8-11,41.5
				C570.2,897,569.6,905.9,569.4,914.4z"/>
			<path opacity="0.3" clip-path="url(#SVGID_10_)" fill="#091426" enable-background="new    " d="M1094.2,226.7c0-1,0-2-0.1-2.8
				c0,1.2,0,2.4,0,3.5C1094.2,227.1,1094.2,226.9,1094.2,226.7z"/>
			<path opacity="0.3" clip-path="url(#SVGID_10_)" fill="#091426" enable-background="new    " d="M1071.6,155.9
				c-1.2-1.5-2.5-2.9-3.8-4.3C1067.7,152.8,1069.3,154.3,1071.6,155.9z"/>
			<path opacity="0.3" clip-path="url(#SVGID_10_)" fill="#091426" enable-background="new    " d="M1002.7,317.8
				c-13.9,17.9-22,25.2-27,30.1s-2.8,4.8-2.8,4.8s4.5,2.1,21.2-2.2s42.5-10.9,50.7-16.2c1.3-0.8,2.9-1.8,4.8-3
				c-3.9,1.7-7.9,3.4-11.8,5c-5.4,2.1-10.8,4.2-16.3,6.1c-5.5,1.8-11.1,3.3-16.7,4.6c-5.6,1.3-11.3,2.2-17.1,3
				c-4.6,0.7-9.3,1.3-13.9,2.3c0.7-0.7,1.5-1.5,2.3-2.3c4.8-1.3,9.5-2.8,14.1-4.4c5.9-2,11.8-4.3,17.5-6.8s11.4-5.1,16.9-8.2
				c5.5-3,10.7-6.4,15.8-10c5.1-3.7,9.9-7.6,14.6-11.7c4.7-4.2,9.1-8.6,13.4-13.2c0.2-0.2,0.4-0.5,0.6-0.7c-1.4,0.8-2.3,1.1-2.3,1.1
				s0.5-1.2,1.4-3.2c-0.4,0.5-0.8,1-1.2,1.4c-4.2,4.6-8.5,9-13.1,13.1s-9.4,8.1-14.4,11.8c-5,3.6-10.2,7-15.6,10.1s-11,5.7-16.7,8.2
				c-7.4,3.2-14.9,6.1-22.6,8.6c3.1-1.1,6.3-2.3,9.3-3.7c5.4-2.3,10.7-5,15.7-7.9c5.1-2.9,10-6.2,14.7-9.6
				c4.8-3.4,9.2-7.3,13.5-11.3l3.1-3.1c1-1.1,2-2.2,3-3.3c0.5-0.6,1-1.1,1.5-1.7l1.3-1.6c-6.5,6.8-11.5,9.9-11.5,9.9
				c0.1-0.5,0.2-0.8,0.2-1.2c-3.9,3.6-8,7.1-12.4,10.2c-4.7,3.4-9.5,6.6-14.6,9.4c-2.5,1.5-5.1,2.8-7.6,4.2
				c-2.6,1.3-5.2,2.6-7.8,3.7c-4,1.8-8.1,3.4-12.3,4.8c16-16.5,41.6-43.9,49.3-57.8c3.2-5.8,5.8-12.1,8-18.6
				c-2.2,3.7-5.4,9.1-10.3,17.2C1027.5,286,1016.6,299.9,1002.7,317.8z"/>
			<path opacity="0.3" clip-path="url(#SVGID_10_)" fill="#091426" enable-background="new    " d="M1259.4,333.3
				c-5.8-2.1-11.7-3.6-17.7-4.7c-3-0.6-6-1.1-9.1-1.5c-1.5-0.1-3.1-0.3-4.6-0.3s-3.1-0.1-4.6-0.1c-6.2,0.1-12.3,0.8-18.3,1.7
				c-2,0.3-4.1,0.7-6.1,1.1c7.5-0.9,15.8-1.5,25.2-1.5c14.7,0,27,3,36.8,6.7c1.4,0.3,2.7,0.5,4.1,0.8
				C1263.2,334.7,1261.3,334,1259.4,333.3z"/>
			<path opacity="0.3" clip-path="url(#SVGID_10_)" fill="#091426" enable-background="new    " d="M1105.9,314.1
				c-13,6.2-25.1,12.2-27.3,13.2c3.1-1.4,6.1-2.8,9.2-4.3C1093.8,320.1,1099.9,317.1,1105.9,314.1z"/>
			<path opacity="0.3" clip-path="url(#SVGID_10_)" fill="#091426" enable-background="new    " d="M1149.9,342.2
				c0.1,0,0.3-0.1,0.5-0.1c-1,0.3-2.1,0.5-3.1,0.7C1148,342.6,1148.9,342.4,1149.9,342.2z"/>
			<path opacity="0.3" clip-path="url(#SVGID_10_)" fill="#091426" enable-background="new    " d="M1207,279.2v-0.3
				c-3.6,0.4-7.2,1-10.8,1.6C1199.8,280,1203.4,279.5,1207,279.2z"/>
			<path opacity="0.3" clip-path="url(#SVGID_10_)" fill="#091426" enable-background="new    " d="M1261,334.7
				c-4-0.7-8-1.4-12.2-1.9c3.3,0.8,6.6,1.7,9.8,2.7c5.7,1.8,11.1,4.3,16.4,7.2c5.3,2.9,10.3,6.2,15.2,9.8l0.6-0.8
				c-1.1-0.9-2.2-1.7-3.3-2.6l0.2,1.6C1287.7,350.8,1278.4,341.5,1261,334.7z"/>
			<path opacity="0.3" clip-path="url(#SVGID_10_)" fill="#091426" enable-background="new    " d="M1187.9,335
				c6.8-1.5,13.7-2.9,20.6-3.9c-4.8,0.2-9.2,0.7-12.8,1.2c-10.9,1.8-21.4,5.2-28.6,8c1.1-0.3,2.1-0.6,3.2-0.9
				C1176.1,337.8,1182,336.3,1187.9,335z"/>
			<path opacity="0.3" clip-path="url(#SVGID_10_)" fill="#091426" enable-background="new    " d="M1265,335.6
				c-1.3-0.3-2.7-0.6-4.1-0.8c17.4,6.7,26.8,16,26.8,16l-0.2-1.6c-3.7-2.9-7.6-5.5-11.6-8C1272.4,339.1,1268.8,337.2,1265,335.6z"/>
			<path opacity="0.3" clip-path="url(#SVGID_10_)" fill="#091426" enable-background="new    " d="M1011.6,419.9
				c3.8-4.2,5.3-12.4,6.1-20.9c-0.3,2-0.7,4-1.3,6C1015,410,1013.4,415,1011.6,419.9z"/>
			<path opacity="0.3" clip-path="url(#SVGID_10_)" fill="#091426" enable-background="new    " d="M976.8,353.8
				c0.5,0.3,1,0.5,1.5,0.8c0.4-0.1,0.7-0.1,1.1-0.2c1,0.1,2,0.3,3,0.4c3.3,0.5,6.5,1.4,9.6,2.6s6.1,2.6,8.8,4.5
				c2.7,1.8,5.3,3.9,7.5,6.4c6.5,7.1,9.9,16.8,9.7,26.4c0-0.1,0-0.1,0-0.2c0.7-11.1-0.3-16.1-6-23.6c-4.9-6.4-16-13.3-25.5-16.1
				c-1.6-0.5-3.1-0.8-4.5-1L976.8,353.8L976.8,353.8z"/>
			<path opacity="0.3" clip-path="url(#SVGID_10_)" fill="#091426" enable-background="new    " d="M998.5,371.5
				c2.3,3,4.3,6.4,5.2,10.3c1.7,7.1,4.1,10,5.3,14.8c0-0.9-0.1-1.7-0.2-2.6C1007.9,385.4,1004.6,377.6,998.5,371.5z"/>
			<path opacity="0.3" clip-path="url(#SVGID_10_)" fill="#091426" enable-background="new    " d="M983.9,353.8l6.5,1.4
				c0.4,0,0.8,0.1,1.2,0.1c-2.2-0.7-4.4-1.3-6.7-1.7L983.9,353.8z"/>
			<path opacity="0.3" clip-path="url(#SVGID_10_)" fill="#091426" enable-background="new    " d="M1023.4,377.3
				c0.5,1.6,0.9,3.3,1.3,5c-0.2-1.2-0.6-2.8-1.2-4.8C1023.4,377.4,1023.4,377.4,1023.4,377.3z"/>
			<path opacity="0.3" clip-path="url(#SVGID_10_)" fill="#091426" enable-background="new    " d="M1000.8,354.2
				c2.3,0.8,4.6,1.6,6.7,2.6c-1.4-0.9-2.8-1.7-4.2-2.4c-7.5-3.4-11.5-2.1-12-1.9c0.7-0.1,1.4-0.2,2.1-0.3
				C995.9,352.8,998.4,353.5,1000.8,354.2z"/>
			<path opacity="0.3" clip-path="url(#SVGID_10_)" fill="#091426" enable-background="new    " d="M1011.5,356.2
				c-0.3-0.1-0.5-0.3-0.8-0.4c0.6,0.6,1.2,1.2,1.9,1.9c5.6,5.7,7.5,11.2,8.3,7.6c-0.4-0.7-0.8-1.3-1.3-1.9
				C1017.6,360.4,1014.7,358,1011.5,356.2z"/>
			<path opacity="0.3" clip-path="url(#SVGID_10_)" fill="#091426" enable-background="new    " d="M997,350.8c1,0.1,2,0.2,2.8,0.2
				c1.3-0.3,2.7-0.5,4-0.8c-1.2-0.4-1.9-0.6-1.9-0.6L997,350.8z"/>
			<path opacity="0.3" clip-path="url(#SVGID_10_)" fill="#091426" enable-background="new    " d="M982.3,339.6l-0.4-0.3
				c-2.3,2.5-4.3,5.4-7,8.2C977.6,344.6,980.1,342,982.3,339.6z"/>
			<path opacity="0.3" clip-path="url(#SVGID_10_)" fill="#091426" enable-background="new    " d="M1320.9,931.1
				c1.6-1.8,3.2-3.6,4.8-5.4c4.9-5.6,9.5-11.3,13.9-17.3c-10.1,10.8-20.3,21.5-30.8,31.7c-2.7,2.5-5.3,5.1-8.1,7.5
				c-2.7,2.4-5.5,4.9-8.3,7.3c-5.6,4.9-11,9.9-16.2,15.3c-1.3,1.3-2.6,2.7-3.8,4.1c-1.3,1.4-2.5,2.8-3.7,4.2
				c-2.4,2.9-4.8,5.8-6.9,8.9c-0.6,0.8-1,1.6-1.6,2.4c-0.5,0.8-1,1.6-1.5,2.4c-0.5,0.8-1,1.6-1.6,2.4c2-3.5,4.2-6.9,6.4-10.2
				l2.3-3.3l2.4-3.3c1.6-2.2,3.2-4.4,4.8-6.6c6.5-8.8,13.1-17.4,20-26c6.8-8.6,13.7-17,20.6-25.6l10.3-12.8l5.1-6.4
				c1.7-2.2,3.4-4.4,5-6.6c6.5-8.9,12.4-18.3,17-28.3c4.7-10,8.2-20.6,9.6-31.6c0.4-2.7,0.5-5.5,0.6-8.3s0-5.5-0.2-8.3
				c-0.4-5.5-1.2-11-2.3-16.4c-2.2-10.8-5.4-21.4-9.4-31.7l-1.5-3.8l-1.6-3.8c-1-2.6-2.2-5-3.4-7.5l-7.1-14.8l-7.1-14.8
				c-2.4-4.9-4.7-9.9-7-14.8c-4.5-9.9-8.9-20-12.7-30.2c-3.9-10.2-7.2-20.6-10.1-31.1c-2.5-9.3-4.7-18.6-6.5-28.1
				c2.6,7.3,5.7,14.5,9,21.4c4.5,9.6,9.3,19,14.3,28.4c5.1,9.3,10.5,18.5,16.2,27.4c2.9,4.5,5.8,8.9,8.9,13.2c3,4.3,6.1,8.6,9,13
				c5.9,8.7,11.5,17.7,16.3,26.9c2.4,4.6,4.7,9.3,6.8,14.2c0.6,1.5,1.2,3,1.8,4.6c0.3,0.5,0.6,1.1,0.9,1.7c3,6,6,18.1,8.1,28
				c0.3,1.1,0.5,2.2,0.8,3.4c0.6,2.6,0.9,5.2,2.2,7.6c0.2-2.7-0.3-5.3-0.8-7.9c-0.5-2.6-1-5.2-1.6-7.8c-1.2-5.2-2.5-10.3-3.9-15.4
				c-2.8-10.2-6.8-20.2-11.7-29.6c-4.9-9.5-10.4-18.5-16.2-27.4c-2.9-4.4-5.9-8.8-8.9-13.2c-3-4.3-5.9-8.7-8.7-13.1
				c-5.7-8.8-11.1-17.9-16.1-27.2c-5.1-9.2-9.8-18.7-14.5-28.1c-6.1-11.9-11.1-24.3-14.5-37.1c-0.1-1-0.3-2-0.4-3.1
				c-0.4-3.4-0.7-6.7-0.9-10.1c0.4-1.5,0.9-2.9,1.3-4.4c0.7,4,1.5,8.1,2.3,12.1c1.2,5.1,2.5,10.2,4.3,15.1c1.8,5,3.8,9.8,6,14.5
				c4.4,9.5,9.4,18.7,14.8,27.6c2.7,4.5,5.6,8.9,8.6,13.1c1.5,2.1,3,4.3,4.6,6.4c1.6,2.1,3.3,4.1,5.4,5.7
				c-6.5-8.2-12.3-16.8-17.7-25.8c-5.3-9-10.2-18.2-14.5-27.7c-2.1-4.7-4.1-9.6-5.8-14.4c-1.7-4.9-2.9-9.9-4-15
				c-1.1-5.2-2.1-10.5-2.9-15.7c0.5-1.5,0.9-3.1,1.4-4.6c0.2,1.6,0.3,3.1,0.6,4.6c0.6,4.2,1.5,8.5,2.9,12.6c1.3,4.1,3.2,8,5.5,11.7
				s5,7.1,8,10.1c3.1,3,6.6,5.6,10.3,7.7c3.8,2.1,7.8,3.7,12,4.5l0.3-1c-4-1.2-7.8-2.8-11.3-5c-2.1-1.3-4.1-2.8-5.9-4.4
				c-0.1,0-0.1-0.1-0.2-0.1c-3.3-2.4-6-5.6-8.1-9.3c-0.9-1.3-1.8-2.7-2.6-4.1c-2-3.6-3.7-7.4-4.8-11.3c-1.2-3.9-1.8-8-2.3-12
				c-0.4-4.1-0.6-8.2-0.6-12.4c0-1.4,0-2.9,0.1-4.3c7.6-25.1,15.1-49.1,15.1-49.1s0.9,2.8,1.8,5.3c-0.5,1.8-1,3.5-1.5,5.2
				c-1.1,3.6-2.2,7.3-3.4,10.9c-2.3,7.2-4.7,14.5-6.3,22c-1.7,7.5-2.7,15.2-2.3,22.8l0.2,2.9c0.1,1,0.2,1.9,0.4,2.9
				c0.2,1.8,0.6,3.6,1,5.4c-1.9-11.2-0.9-24.1,2.7-36.7c7-24.5,10.8-37,10.8-37c1.4-2.3,2.6-4.7,3.6-7.2c0.5-2.5,0.9-5.1,1.2-7.6
				c0.5-3.8,0.8-7.7,0.7-11.5c0-1,0-1.9-0.1-2.9c0-1-0.1-1.9-0.2-2.9l-0.2-2.9l-0.3-2.9c-0.5-3.8-1.2-7.6-2.1-11.3
				c-1.8-7.5-4.9-14.5-8.4-21.3c-0.8-1.5-1.6-3-2.5-4.5c2,3.1,3.9,6.3,5.7,9.5l3,5.4l1.4,2.7c0.2,0.5,0.5,0.9,0.7,1.4l0.6,1.4
				c1.7,3.7,2.9,7.6,3.9,11.6c0.3,1.3,0.6,2.6,0.8,4c-0.2-3.3-0.6-6.4-1.2-9.4c-2.7-14.3-16.6-36.3-35.5-53.3s-44.4-29.9-58.4-33.6
				c-7.6-2-12.2-4.6-13.8-6.3c-2.8-1-5.5-2.1-8.2-3.2c-1.9-0.8-3.8-1.6-5.7-2.5l-2.8-1.3c-0.9-0.4-1.9-0.9-2.7-1.4l-0.6,0.8
				c1,0.6,1.9,1.1,2.8,1.6l2.8,1.4c1.9,0.9,3.7,1.8,5.6,2.7c3.8,1.7,7.6,3.4,11.6,4.8c2,0.7,4,1.4,5.9,2.1c2,0.7,3.9,1.3,5.8,2.1
				c3.9,1.5,7.7,3.1,11.4,4.8c15,7,28.8,16.2,41.4,26.8c3.1,2.7,6.3,5.3,9.2,8.1c2.3,2.2,4.5,4.5,6.7,6.9c1.9,2.6,3.7,5.3,5.3,8.1
				c2,3.2,3.9,6.5,5.6,9.9c3.4,6.7,6.3,13.8,7.9,21.1c1.7,7.3,2.5,14.8,2.3,22.3c-0.2,6.7-1.1,13.3-2.6,19.9
				c-2.3-9.6-8-27.6-37.6-58.8c-30.6-32.2-76-56.3-153.8-71.6l84.1,45.6l51.3,212.6c0,0,13.9,179.8,22.5,208.5
				c8.6,28.8-11.9,64.6-25.3,91.9c-13.4,27.4-11.3,39.1-11.3,39.1c3-24.9,25.5-44.6,45.5-99.4c20-54.9,8.9-103.9,13-90.7
				s4.7,49.6-6.1,88.4c-10.8,38.8-35.8,77.6-35.8,77.6s36.1-45.3,50.7-68.8s12.7-52.2,9.7-77.5s-7.8-36.5-7.8-36.5
				s2.3,1.8,10.6,26.4c8.3,24.7,5.3,45.3,5.3,45.3c10.5-24.1,5.8-53.9-4.1-92.6c-9.8-38.7-12.8-38.5-25.6-62.3
				c-12.7-23.6-22.5-61.6-13.8-92.7c0.8,4.6,1.9,9.1,3.1,13.6c0.3,1.9,0.6,3.9,0.9,5.8c1.8,10.8,4.2,21.5,7,32.2
				c2.8,10.6,6,21.1,9.8,31.4c3.8,10.3,8,20.4,12.5,30.4s9.2,19.9,13.9,29.8l7.1,14.8c2.3,4.9,4.6,9.9,6.6,15
				c4.1,10.1,7.4,20.5,9.6,31.2c1.1,5.3,1.9,10.7,2.3,16.1c0.4,5.4,0.4,10.8-0.4,16.2c-1.5,10.7-5,21.1-9.6,30.9
				c-4.7,9.8-10.5,19-17,27.8c-1.6,2.2-3.3,4.3-5,6.5l-5.2,6.4l-10.4,12.7c-6.9,8.5-13.9,16.9-20.8,25.4s-13.6,17.2-20,26.1
				c-1.6,2.2-3.2,4.5-4.7,6.7l-2.4,3.4l-2.3,3.4c-3,4.6-5.9,9.3-8.5,14.1c-5.2,9.7-8.8,20.3-11.3,31c-1.3,5.4-2.3,10.8-3.3,16.2
				l-0.7,4c-1.7-0.1-3-0.6-3.4-2.1c-1.2-4.5-7.5-18.6,0-70.9l-13.3,41.3l8.7,67l29.9,19.4c0,0-8.1-15.3-13.5-32.6s0.2-23.8,0.2-23.8
				s-0.5,0.2-1.2,0.4c1.2-5.6,2.6-11.2,4-16.7c1.9-7.1,3.9-14.1,6.4-21c0.6-1.7,1.3-3.4,2-5.1c0.7-1.7,1.5-3.3,2.3-4.9
				c0.8-1.6,1.7-3.2,2.7-4.7c0.4-0.8,0.9-1.6,1.4-2.3c0.5-0.8,0.9-1.5,1.5-2.3c0.6-1,1.3-1.9,2-2.9c2.5-5.6,7.9-12.6,11.8-16.6
				C1286.2,962.6,1310.2,942.2,1320.9,931.1z M1287.1,593.1c0-0.1,0.1-0.2,0.1-0.3c0,0.4,0.1,0.7,0.1,1.1
				C1287.2,593.6,1287.1,593.3,1287.1,593.1z"/>
			<path opacity="0.3" clip-path="url(#SVGID_10_)" fill="#091426" enable-background="new    " d="M1300.9,594.2l0.4,1.4l0.8,2.8
				c0.7,1.8,1.5,3.5,2.4,5.2c0-2.1-0.5-3.9-1-5.7l-0.7-2.7l-0.4-1.3c-0.1-0.5-0.2-0.9-0.3-1.4c-0.3-1.8-0.7-3.7-0.9-5.5
				c-0.1-0.9-0.2-1.9-0.3-2.8l-0.1-2.8V580c0-0.5,0-0.9,0-1.4l0.1-2.8c0-0.9,0.2-1.9,0.2-2.8c0.1-0.9,0.2-1.9,0.3-2.8
				c0.5-3.7,1.2-7.4,2.1-11c2.8-12.1,7.5-23.9,11-36.1c0.4-0.4,0.8-1.5,0.9-3.2c0.4-1.5,0.8-3,1.1-4.5c0.3-1.2,0.6-2.5,0.8-3.7
				c-1,2.5-2.2,4.9-3.6,7.2c0,0-3.9,12.5-10.8,37c-3.6,12.5-4.6,25.5-2.7,36.7c0,0.1,0,0.2,0.1,0.3
				C1300.7,593.2,1300.8,593.7,1300.9,594.2z"/>
			<path opacity="0.3" clip-path="url(#SVGID_10_)" fill="#091426" enable-background="new    " d="M1226.8,383.6
				c14,3.7,39.5,16.6,58.4,33.6s32.8,39,35.5,53.3c0.5,2.9,1,6.1,1.2,9.4c1.2,6.7,1.5,13.7,0.5,20.4l1,0.2c0.8-4.2,1-8.3,1-12.5
				c-0.1-4.2-0.6-8.4-1.4-12.5s-2-8.2-3.6-12.1l-0.6-1.5c-0.2-0.5-0.4-1-0.7-1.4l-1.3-2.9c-1-1.8-1.9-3.7-2.9-5.5
				c-3.9-7.3-8.3-14.6-13.6-21.1c-5.3-6.6-11.4-12.4-17.9-17.7c-3.2-2.7-6.5-5.2-9.9-7.7c-3.4-2.4-6.9-4.8-10.4-7
				c-3.6-2.2-7.2-4.4-10.9-6.3c-3.7-1.9-7.5-3.8-11.3-5.4c-3.8-1.7-7.7-3.2-11.7-4.6c-2-0.7-4-1.3-6-2c-2-0.6-3.9-1.2-5.9-1.9
				c-1.1-0.4-2.3-0.8-3.4-1.2C1214.5,379,1219.1,381.5,1226.8,383.6z"/>
			<path opacity="0.3" clip-path="url(#SVGID_10_)" fill="#091426" enable-background="new    " d="M1305.9,608.2
				c2.1,3.7,4.8,6.8,8.1,9.3c0.1,0,0.1,0.1,0.2,0.1c-1.3-1.1-2.5-2.2-3.6-3.5C1308.8,612.2,1307.3,610.2,1305.9,608.2z"/>
			<path opacity="0.3" clip-path="url(#SVGID_10_)" fill="#091426" enable-background="new    " d="M1278.7,972.5
				c5-5.3,10.4-10.4,15.8-15.4c2.7-2.5,5.5-5,8.2-7.5s5.3-5.1,8-7.8c3.5-3.5,7-7.1,10.3-10.8c-10.7,11.1-34.7,31.5-42.1,38.9
				c-4,4-9.3,10.9-11.8,16.6c1.4-2,2.9-3.9,4.5-5.9C1273.7,977.9,1276.1,975.2,1278.7,972.5z"/>
			<path opacity="0.3" clip-path="url(#SVGID_10_)" fill="#091426" enable-background="new    " d="M1374.4,769.1
				c1.3,3.4,2.4,6.8,3.5,10.2c1.6,5,3.1,10.1,4.4,15.2c0.4,1.4,0.7,2.9,1.1,4.3c-2.1-9.9-5.1-22-8.1-28
				C1374.9,770.1,1374.7,769.6,1374.4,769.1z"/>
			<path opacity="0.3" clip-path="url(#SVGID_10_)" fill="#091426" enable-background="new    " d="M1269,996.6
				c-0.2,0.4-0.4,0.9-0.6,1.4s-0.4,0.9-0.6,1.4s-0.4,0.9-0.5,1.4c-0.3,1-0.5,2-0.7,3l0.9,0.3c2.3-3.2,4.5-6.2,6.7-9.3
				c0.4-0.5,0.8-1.1,1.2-1.6c-2.7,1.3-4.7,2-5.8,2.1L1269,996.6z"/>
			<path opacity="0.3" clip-path="url(#SVGID_10_)" fill="#091426" enable-background="new    " d="M1297.5,969.2
				c5.5-5.4,11.3-10.7,16.9-16.1c2.7-2.6,5.7-5,8.8-7.3c3.1-2.4,6.2-4.9,9.1-7.6c2.9-2.7,5.6-5.6,8.3-8.5c2.6-3,5.1-6,7.5-9.1
				c4.8-6.2,9.4-12.5,13.7-19c4.3-6.5,8.3-13.2,12-20.1c1.9-3.4,3.6-7,5.2-10.5c1.6-3.6,3.1-7.2,4.3-10.9
				c-3.1,7.2-6.9,13.9-10.9,20.6c-4,6.6-8.4,13.1-12.9,19.3c-4.5,6.3-9.3,12.4-14.2,18.4c-2.5,3-5,5.9-7.6,8.7s-5.3,5.5-8.2,8.1
				c-2.8,2.5-5.9,4.8-9,7.2c-3.1,2.3-6.3,4.8-9.2,7.5c-5.7,5.3-11.4,10.6-16.9,16.1c-5.6,5.5-11,11.2-16,17.2
				c-1.3,1.5-2.5,3-3.7,4.6c-1.2,1.5-2.4,3.2-3.5,4.8c-0.6,0.8-1.1,1.7-1.5,2.6c1.1-0.1,3.1-0.8,5.8-2.1c1.9-2.5,3.9-5,6-7.3
				C1286.5,980.1,1292,974.6,1297.5,969.2z"/>
		</g>
	</g>
</g>
</svg>
