<?xml version="1.0" encoding="utf-8"?>
<!-- Generator: Adobe Illustrator 21.0.2, SVG Export Plug-In . SVG Version: 6.00 Build 0)  -->
<svg version="1.1" id="Layer_1" xmlns="http://www.w3.org/2000/svg" xmlns:xlink="http://www.w3.org/1999/xlink" x="0px" y="0px"
	 viewBox="0 0 2000 2000" enable-background="new 0 0 2000 2000" xml:space="preserve">
<g>
	<path fill="#9F592A" d="M645.7,989.1c0,0,25.1,31.4,49.4,51.7c24.3,20.4,61.9,38.8,83.2,51.3s41,19,45.1,18.9
		c4.1-0.2,4-1.6-7.9-19.1c-11.9-17.4-39.3-71.7-58.1-140.9c-18.9-69.2-21.3-90.2-23.8-142.6s-5.2-99.1-1.6-135.3
		c3.6-36.2,6.4-41.6,6.4-41.6s0.7,23.1,20.3,46.4c19.7,23.3,28.1,28.9,40,30.8c11.9,1.9,8.8-2.6,18.1-12.1
		c9.3-9.5,39.3-17.9,60-20.3c20.8-2.4,54.6,0.8,71.1-0.7c16.6-1.4,12.3-2.7,5.1-8.3s-24.3-15.2-27.6-56.5s11.4-63.8,11.4-63.8
		s-2.7,35.1,4.8,62.6c7.4,27.4,25.3,56.4,42.6,62c17.3,5.6,55.5,7.5,81.3,6.9c25.9-0.7,51.7-11.7,51.7-11.7s31,10,58.4,2.9
		c0,0,23,7.7,51.6,5.1c28.6-2.7,36.3-8.8,36.3-8.8s-0.6,28.2-5.8,66.1c-5.2,37.4-11.1,70.4-11.1,70.4c-0.3,0.5,11,13.3,18.6,29.5
		c8.2,17.3,9.2,43.9,0.1,64.1s-43.3,59.1-70.1,79.2c0,0,15.6,11.3,22.6,35.6c7,24.4,3,43.6-0.4,54.4c-3.3,10.8,2.4,13.3,8.6,4.5
		s34.8-44.8,47.2-107.7c12.4-62.9,18.5-125.7,17.6-175.5c-0.8-49.8-5.4-102.5-12.1-150.4s-21.4-79.6-44.5-132.2
		c-23.1-52.6-54.3-79.5-54.3-79.5s1.7,26.2-8.9,29.5c-10.6,3.3-18.4-17.1-57.5-34.9c-39.1-17.8-78.3-34.6-109-41.3l6.3-5.6
		c0,0-20.8-5.5-66.3-9.3c-45.6-3.8-106.1,9-124.8,30.2l21,28c0,0-22.4,3.2-80.3,34.2c-57.9,31-125.5,80-152.8,127.4
		c0,0-7.7-14.9-8.9-44.8c0,0-24.7,38.4-33.6,77.2c-9,38.8-18,91.8-11.5,140.8c6.5,49,12.2,74.9,23.4,107.5
		c11.1,32.6,23,51.2,23,51.2s15.2-4,26.2-6.1c11-2.1,19.6-4.4,22-1.1c2.4,3.2,3.3,8.8,1.7,10.9c-1.7,2.1-11.7,3.3-20.3,5.1
		c-8.7,1.8-22,9-22,9s6.9,14.1,12.5,22.8c5.6,8.8,14.1,18.4,14.3,18.3s11.5-5.7,19.3-8.2s10.3-3.6,12.6-1c2.2,2.6,3,6,1.9,7.7
		C666.9,973.6,645.7,989.1,645.7,989.1z"/>
	<g>
		<path fill="none" d="M976.6,512.8c-2,8-3.6,16.1-5.1,24.3c1.3-3.5,2.9-7,4.3-10.4c5.4-12.8,10.9-25.3,14.8-38.7
			c2.1-7.2,4-14.6,3.7-22.2c-0.3-7.1-2.2-14.3-4.2-21.2c0-0.1-0.1-0.2-0.1-0.4c0.4,5.3,0,10.9-1,16.5
			C986,478.3,980.8,495.6,976.6,512.8z"/>
		<path fill="none" d="M986.7,444.5c-0.5-8.5-3.4-16.1-7.2-23.6c-1.3-2.6-2.8-5.1-4.4-7.5c-1.1-1.6-2.4-3.1-3.7-4.7
			c-0.2-0.2-0.2-0.5-0.1-0.7c-0.3-0.4-0.6-0.8-0.9-1.1h-0.1c-0.2-0.1-0.3-0.1-0.5-0.2c-0.3-0.1-0.2-0.5,0-0.6
			c-3.1-3.8-6.6-7.3-10.2-10.6c2.4,2.9,4.4,6,6.3,9.2c4.4,7.4,9.6,16.9,11.1,25.4c0.2,1.4-1.6,2.4-2.4,1c-2.2-3.9-3.3-8.5-5.1-12.7
			c-1.7-4-3.6-7.8-5.7-11.6c-2.3-4-5.1-7.7-7.9-11.4c3.3,4.7,5.7,10.2,7.4,15.3c2.2,6.4,3.4,13.1,3.8,19.7
			c1.6,11.1,1.1,22.1-3.2,33.3c-3,7.8-5.2,15.5-7.2,23.7c-0.4,1.5-0.8,3-1.1,4.7c1.4-4,2.9-8,4.3-12.1c6.4-18.3,13.4-39.1,7.2-58.3
			c-0.1-0.4,0.3-0.5,0.5-0.4c-0.8-2.4-1.6-4.7-2.5-7.1c-0.2-0.5,0.5-0.7,0.8-0.3c10.8,16.9,9.1,39.5,5.3,58.2
			c-3.9,19.4-10.2,38.4-13.8,57.9c-0.3,1.6-0.6,3.1-0.9,4.8c6.6-18.4,16.6-35.4,22.7-53.9c6.3-19.3,9-41.7-1.2-60.2
			c-0.2-0.3,0.3-0.6,0.5-0.3c6,10.4,8.4,21.9,8.2,33.6C986.8,451.1,986.9,447.8,986.7,444.5z M973.9,416.2c-1.1-2.3-2.8-4.3-4.8-5.9
			c-0.3-0.2,0.1-0.8,0.4-0.5c2.2,1.6,3.8,3.7,4.8,6.2C974.4,416.2,974,416.4,973.9,416.2z"/>
		<path fill="none" d="M985.2,425c10,16.8,15.4,36.9,11.1,55.7c-3.3,14.1-8.7,27.6-13.9,41.2c-2.9,7.4-5.3,14.9-7.1,22.5
			c-1,9.3-2.9,18.7-3.6,28c-0.5,5.9-0.6,11.9-0.3,17.8c0.2,3.9,1,7.8,1.4,11.8c1,5.1,2.1,10,3.9,14.9c1.4,3.8,3.2,7.5,5.2,11.1
			c1,1.8,2.3,3.6,3.3,5.4c3.1,4.1,6.6,8.1,10.2,11.9c3.1,3.2,6.4,6.4,9.8,9.4c-2.2-2.6-4.2-5.1-6.1-7.8c-12-16.8-19.1-36.9-23.2-57
			c-4.3-21,7.1-42.5,16.5-60.6c5.3-10.4,10.6-20.8,15.7-31.3c5.1-10.6,11-20.9,6.5-32.9c-3.7-10.2-10.9-19.6-17.2-28.3
			c-3.9-5.3-7.8-10.9-12.3-15.7c-3.5-3.8-7.1-7.7-10.3-11.8c2.1,2.7,4,5.3,5.9,8.1C982.5,419.9,983.9,422.5,985.2,425z"/>
		<path fill="none" d="M1183.4,509.2c-1.1-2-2.4-4.1-3.6-6.1c3,6.1,5.6,12.4,8.1,18.8c3.7,9.6,7.1,19.4,9.5,29.4
			c1.4,5.9,3.3,12,4.8,18c3,11,5.7,22.1,9.4,32.8c3.6,10.3,8.9,19.9,15,29c3,4.3,6.1,8.7,9.6,12.7c-15.5-25.4-23.2-55-31.9-83.3
			C1198.8,542.9,1192.5,525.4,1183.4,509.2z"/>
		<path fill="none" d="M1156.1,467c1.2,1.4,2.5,2.9,3.6,4.3c1.7,2,3.2,4.1,4.8,6.2c7,6,12.8,13.8,17.5,20.9
			c23.8,35.1,29.8,78.4,46.3,116.8c-0.3-1.9-0.5-3.8-0.2-5.7c-1.5-7-1.5-14.7-2.4-21.7c-1-8.4-2.4-16.7-4.4-24.8
			c-7-27.8-23.7-51.4-42.7-72.4C1171.5,482.5,1164,474.5,1156.1,467z"/>
		<path fill="none" d="M1100.1,440.7c14.3,8.9,28.1,18.5,39.8,30.7c7.1,7.3,13.4,15.5,17.7,24.7c0.9,1.9,1.8,4,2.6,6.1
			c1.6,3.3,2.8,7.1,3.5,10c2.2,7.9,2.6,16.2,2.7,24.3c0.1,17.8,0.6,34.7,5.6,51.9c2.5,8.5,5.6,16.8,9.3,24.8
			c-6.6-19.1-8.8-39.6-10.2-59.7c-1.1-15.3-2.1-30.8-6.9-45.6c-3.9-12-10-23.2-17.4-33.3c-16-21.7-38.1-38.2-61.9-50.5
			c-20.6-10.7-42.4-18.2-64.3-25.7c8.6,3.6,17,7.5,25.3,11.6C1064.4,419.3,1083,428.9,1100.1,440.7z"/>
		<path fill="none" d="M1131.2,452.6c12.8,14.1,25.7,28.2,33.6,45.8c13.5,30.1,13,64.3,25.4,94.8c5.9,14.5,14.2,27.8,24.9,39.3
			c5.2,5.6,11,10.7,17.4,15c0.4,0.3,0.8,0.5,1.1,0.8c-3.1-3.6-6.1-7.4-9-11.2c-6.6-8.9-12.1-18.5-16.3-28.8
			c-4.9-12-7.5-24.9-10.9-37.4c-1.6-6-3.2-12-4.7-18c-0.1-0.3-0.1-0.6-0.2-0.9c-0.2-0.6-0.4-1.1-0.5-1.8
			c-3.2-10.7-6.6-21.3-10.8-31.6c-14.7-35.6-41.8-63.8-74.2-84c-1.2-0.8-2.6-1.5-3.8-2.3c9.7,6.1,18.9,13.1,27.3,20.9
			C1130.3,452.8,1131,452.1,1131.2,452.6z"/>
		<path opacity="0.35" fill="#E8FFFA" enable-background="new    " d="M738.8,628.1c-0.1-0.1-0.1-0.1-0.2-0.2
			c0.1-0.3,0.2-0.6,0.2-0.8c0-1.1,0.1-2.2,0.2-3.2c-0.8-0.9-2.3-1-3,0.2c-0.2,0.3-0.4,0.7-0.6,1c-0.2,0.3-0.2,0.5-0.2,0.8
			c-4.4,9.1-7.1,19.7-9.4,29.4c-2.5,10.3-5.3,21.6-5.1,32.2c0,0.7,1,0.8,1.1,0.2c3.1-10.2,4.5-21.1,7.3-31.4c0.4-1.4,0.9-3,1.3-4.4
			c-1,7-1.5,14-2.3,20.8c-1.5,14.7-2.7,29.4-3.3,44.2c-0.5,10.1-0.7,20.2-0.7,30.3c-0.5,0.2-0.8,0.6-0.8,1.2
			c1.1,17,1.2,33.7,0.6,50.7c-0.6,17-1.2,33.8,0.2,50.8c2.9,33.1,10.9,65.8,17.2,98.3c1.5,7.9,3.1,15.9,4.9,23.7
			c3.3,10.6,7.1,21,11.1,31.3c0.4-0.4,0.6-1,0.4-1.6c-10.5-31.3-15.3-64.5-21.6-96.8c-3.3-17-6.7-34-8.4-51.3
			c-1.3-13.9-1.3-27.9-0.9-41.8c0.5,5.4,1,10.8,1.5,16.1c0.7,8.9,1.7,17.7,2.7,26.4c2,17.4,4.7,34.8,8.1,52
			c5.8,18,8.9,37.1,13.5,55.5c0.3,1.1,0.6,2.3,0.9,3.3c7.5,25.5,16.9,50.6,27.9,74.8c10.2,22.3,21.9,43.8,35.2,64.4
			c1.6,2.5,5.7,0.2,4-2.4c-8.7-13.4-16.7-27.3-23.9-41.5c1.3,1.8,2.8,3.5,4.3,5.2c-13.2-26.3-30.3-66.9-43.4-114.7
			c-17.2-62.8-20.7-86.1-23.2-128.9c-2.7-26.9-3.9-53.8-3.6-80.8c-0.8-25.3-0.7-48.3,1.3-68.1c3.6-36.2,6.4-41.6,6.4-41.6
			s0,0.5,0.1,1.3C738.8,631.3,738.8,629.6,738.8,628.1z"/>
		<path opacity="0.35" fill="#E8FFFA" enable-background="new    " d="M819.1,673.2c-5.1-6.1-9.5-13.5-13.3-20.6
			c-8.1-15.1-7.5-32.5-4.9-48.9c2.5-15.4,9.1-29.4,19.3-41.3c4.9-5.7,10.3-11,15.9-15.9c6.1-5.3,13.1-9.4,19.7-14
			c0.4-0.2,0.1-0.7-0.3-0.6c-11.7,5.3-23.1,13.4-32.5,22.2c-9,8.5-16.2,19-20.9,30.4c-2.9,7-4.8,14.5-6,22.1c-0.2-0.9-1.6-1-1.8,0
			c-3.8,16.1-3.5,36.5,3,51.9c5.4,12.8,17.3,23.7,30.2,28.7c0.6,0.2,1.1,0.2,1.6-0.1c0.6,0.3,1.2,0.7,1.9,1c2.1-0.9,4.3-1.8,6.6-2.6
			C830.5,683,824.1,679.2,819.1,673.2z M799.5,655.1c-2.6-7.1-3.7-14.5-4-22.1c1.3,10.6,5.2,20.2,10.9,29.6c2.2,3.6,4.5,7.1,7,10.4
			C807.3,668.4,802.4,662.8,799.5,655.1z"/>
		<path opacity="0.35" fill="#E8FFFA" enable-background="new    " d="M867,667.7c-2.5-5.1-4.1-10.3-5.4-15.9
			c-2.2-9.1-3.8-18.5-3.6-27.9c0.2-9.3,2.3-18.5,4.7-27.4c2.4-9.1,6.4-17.8,8.5-26.9c0.2-0.7-0.7-1-1-0.5c-5.1,8-7.9,18.4-10.4,27.4
			c-2.7,9.5-4.4,19.3-5.1,29.1c0,0.5-0.1,1-0.1,1.4c-0.3-2.4-0.6-4.9-0.9-7.2c-0.3-3.2-0.6-6.6-0.5-9.8c0.1-3.7,1.4-7.3,1.3-11.1
			c0-0.5-0.7-0.8-1-0.4c-4.3,4.6-3.5,13.8-3,19.6c0.6,8.1,1.5,16.3,3,24.3c1.4,7.6,3.2,15.2,6.5,22.2c1.9,4.2,4.5,9.2,7.9,13.1
			c1.5-0.3,3-0.5,4.6-0.8c-1-1.8-1.8-3.6-2.7-5.4C868.8,670.2,867.8,669,867,667.7z"/>
		<path opacity="0.35" fill="#E8FFFA" enable-background="new    " d="M921.9,444.1c4.1-5.6,7.7-11.5,10.7-17.7
			c4.9-13.6,7.6-29.1,7.6-29.1s0.1,0.9,0.2,2.4c0.2-3.6,0-7.6-1.8-10.4c-0.4-0.6-1.4-0.6-1.6,0.2c-0.4,2.1,0,3.9,0,6.1
			c0.1,3-0.4,5.9-1,8.8c-1,5.1-3,10.1-5.2,14.9c-4.5,9.1-10.1,17.6-16.5,25.4c-6.1,7.4-13.2,13.8-20.4,20.1
			c-7,6.1-15.2,12.1-20,20.1c-0.2,0.4-0.3,0.8-0.3,1c14.2-10.6,29-21.5,39.8-31.5C916.4,451,919.3,447.6,921.9,444.1z"/>
		<path opacity="0.35" fill="#E8FFFA" enable-background="new    " d="M928.3,465.8c-0.5,0.9,0.8,1.9,1.4,1
			c9.5-11.4,16.7-26.4,19.1-41.2c1-6.5,1-13,0.1-19.4c-1-6.7-2.3-14.3-7-19.4c-0.8-0.9-2.5,0-2.1,1.2c0.4,1.2,1,2.4,1.4,3.5
			c0.6,4.3,0.4,8.7,0.2,13c-0.3,5.3-1.5,11-1,16.2c0.1,1,1.5,1.2,1.9,0.3c2-5.5,1.7-12.5,1.7-18.3c0-1.5,0-3.1,0-4.8
			c1,2.4,1.8,4.8,2.2,7.4c1.1,7.1,0.7,14.8-0.9,21.8C942.3,441.4,934.8,453.3,928.3,465.8z"/>
		<path opacity="0.35" fill="#E8FFFA" enable-background="new    " d="M928.1,644.5c-1.3-3.4-2.5-7.1-3.4-10.6
			c-0.5-0.9-1-1.7-1.5-2.6c-3.8-13.4-6.5-27.9-4.6-41.6c1-7.7,3.3-15.2,6.1-22.5c0.5-2,1-4,1.7-6c2.9-8.8,7.1-17.1,11.1-25.3
			c6.8-14.2,12.5-28.8,17.8-43.6c0.4-1.5,0.8-3.1,1.1-4.7c1.9-8.2,4.1-15.9,7.2-23.7c4.4-11.2,4.9-22.2,3.2-33.3
			c-0.3-6.7-1.6-13.3-3.8-19.7c-1.7-5.1-4.1-10.6-7.4-15.3c2.9,3.7,5.6,7.3,7.9,11.4c2.1,3.7,4,7.6,5.7,11.6c1.8,4.2,3,8.8,5.1,12.7
			c0.8,1.3,2.6,0.4,2.4-1c-1.3-8.6-6.7-18-11.1-25.4c-1.9-3.2-3.9-6.4-6.3-9.2c3.6,3.2,7.1,6.8,10.2,10.6c-0.2,0.1-0.3,0.5,0,0.6
			c0.2,0.1,0.3,0.1,0.5,0.2h0.1c0.3,0.4,0.6,0.8,0.9,1.1c-0.1,0.2-0.1,0.5,0.1,0.7c1.3,1.4,2.6,3,3.7,4.7c1.6,2.5,3,5,4.4,7.5
			c3.8,7.5,6.7,15.2,7.2,23.6c0.2,3.3,0.1,6.6-0.3,9.8c-0.1,7.9-1.4,15.8-3.7,23.5c-1.5,5.3-3.4,10.5-5.5,15.6
			c-2.2,7.8-4.5,15.5-6.3,23.4c-1.8,7.6-3.7,15.2-5.1,23c-1.4,7.7-3.3,16.1-2.7,24c0,0.5,0.3,1,0.5,1.2c0,2.1,0.1,4.2,0.2,6.3
			c0.4,8.6,1.5,17.1,3,25.5c0.4,2.2,0.8,4.4,1.1,6.6c-2.2-5.4-4-11-5.2-16.7c-1.3-6-2.1-11.9-2.2-18.1c-0.1-6,1-12.3-0.3-18.2
			c-0.2-0.7-1-0.6-1.2,0c-2.2,5.8-1.9,13-2,19.2c-0.1,5.8,0.4,11.8,1.3,17.5c0.4,2.7,1,5.2,1.6,7.9c7,18.8,18.7,37.3,31.7,52.4
			c8,9.2,17.7,15.8,28.3,21.3c-5.3-4.2-10.2-9-14.6-14.1c-3.3-3-6.7-6.2-9.8-9.4c-3.6-3.8-7.1-7.8-10.2-11.9c-1-1.8-2.3-3.6-3.3-5.4
			c-2-3.5-3.8-7.2-5.2-11.1c-1.8-4.8-3-9.8-3.9-14.9c-0.5-3.9-1.2-7.9-1.4-11.8c-0.3-5.9-0.2-11.9,0.3-17.8c0.7-9.3,2.6-18.7,3.6-28
			c1.8-7.6,4.3-15.1,7.1-22.5c5.2-13.5,10.6-27,13.9-41.2c4.4-18.7-1-38.9-11.1-55.7c-1.2-2.7-2.7-5.2-4.4-7.7
			c-1.9-2.8-3.8-5.4-5.9-8.1c-0.2-0.3-0.4-0.5-0.6-0.8v-0.1c-2.2-2.8-4.6-5.4-7.1-7.9c-4.5-4.6-9.1-8.3-14.3-11.9
			c-1.4-1.2-3-2.3-4.5-2.9c-0.5-0.2-1.1,0.3-0.8,0.8c0.8,1,1.5,2,2.4,2.9c-0.9-0.7-1.7-1.3-2.6-1.9c-0.6-0.4-1.3,0.4-1,1
			c5.2,8.5,11.4,15.6,14.5,25.3c3.1,10,3.1,20.2,0.8,30.4c-2.5,10.9-6.3,21.5-10.2,31.9c-2.5,6.5-5.4,12.8-8.2,19.2
			c-10,13.3-18.1,28.4-26.5,42.7c-9.3,16.1-17.3,33-21,51.4c-5.7,29.2-1.2,63.7,19.3,86.4c2.4,0.1,4.7,0.1,7.1,0.2
			c-9.6-11.4-16.7-24-20.3-38.8c-4.1-16.6-3.3-34,0.8-50.5c4.2-17.2,11.9-32.8,20.9-47.9c1.1-1.9,2.4-3.9,3.5-5.8
			c-1,2.5-2.2,5-3.2,7.4c-6.9,16.2-13.2,33-15.3,50.5c-3.5,28.9,0.9,63,21,85.2c1.4,0,2.9,0,4.3,0.1c-2.4-2.4-4.5-4.8-6-7.9
			c-1.3-2.9-2.8-5.7-4.1-8.6c-3.2-7.2-5.9-14.7-7.1-22.5c-0.7-4-1.2-8-1.6-12c1.8,8.1,3.8,16.2,6.9,23.8c4.3,11,11.1,20.9,20.8,27.2
			c2.1-0.1,4.1-0.2,5.8-0.3c1.3-0.1,2.6-0.2,3.6-0.4C941,668,932.9,657,928.1,644.5z M966.8,407.7c0.3,0.1,0.5,0.3,0.8,0.4
			c0.1,0.1,0,0.2-0.1,0.2c-0.3-0.1-0.5-0.3-0.8-0.4C966.6,407.8,966.7,407.6,966.8,407.7z M989.9,444.3c0,0.1,0.1,0.2,0.1,0.4
			c2,6.9,3.9,14,4.2,21.2c0.4,7.6-1.6,15-3.7,22.2c-3.8,13.3-9.3,25.9-14.8,38.7c-1.4,3.4-3,6.9-4.3,10.4c1.4-8.2,3.1-16.3,5.1-24.3
			c4.2-17.2,9.4-34.4,12.4-51.9C989.8,455.3,990.2,449.7,989.9,444.3z"/>
		<path opacity="0.35" fill="#E8FFFA" enable-background="new    " d="M998,613.4c-3.1-14.3-1.7-29.2,2.9-43.1
			c2.2-6.9,5.1-13.4,8.5-19.8c3.5-6.6,6.8-13.4,10.7-19.8c0.5-0.7-0.8-1.3-1-0.7c-3.3,7.2-9.1,13.5-13.2,20.3
			c-4,6.4-7.2,13.2-9.5,20.4c-4.6,14.4-5.5,29.8-2.3,44.5c3.1,14.4,10.5,26.7,20.2,37.6c9.1,10.1,20.3,21.1,33.5,25.3
			c1.6,0.5,3-1,3-2.4c-2.4-1.5-4.7-3.2-6.9-5C1022.2,658.4,1003.4,637.8,998,613.4z"/>
		<path opacity="0.35" fill="#E8FFFA" enable-background="new    " d="M1036.6,629.6c2.1,4.2,4.5,8.2,7.2,11.9
			c13,17.8,32.5,30.3,55.1,29.3c1.1-0.1,2.6-0.4,2.6-1.5c0.1-0.9-0.7-1.3-1.5-1.6c-0.3-0.1-0.7-0.2-1-0.2
			c-14.8-2.4-30.4-3.8-41.7-14.7c-7.1-6.8-12.2-15.2-17.3-23.4c-2.4-3.9-4.8-7.8-7.2-11.6c0.9,1.3,0.7,4.8,1.3,6.5
			C1034.8,625.8,1035.8,627.7,1036.6,629.6z"/>
		<path opacity="0.35" fill="#E8FFFA" enable-background="new    " d="M1114.1,667.8c-2.2-1-7.1-3.1-7.6-3.3
			c-3.6-1.3-7.3-2.8-11-4.1c-10.3-3.9-21.3-7.1-30.7-12.8c-12.9-7.8-18.5-21-22.5-34.9c-1.6-5.5-2.8-11.3-3.4-17.1
			c-0.7-5.6,0.2-11.2-0.4-16.8c-0.1-1-1.4-1.2-1.7-0.2c-3.8,9.7-0.3,23.3,2.2,33.1c2.7,10.5,5.6,20.4,12.6,28.9
			c5.7,7,12.9,12.2,21.1,15.7c11.4,4.9,23.5,8.1,35.4,11.7c1.3,0.4,2.8,0.8,4.1,0.9c1-0.4,1.7-0.7,2.5-1
			C1114.5,668,1114.3,667.9,1114.1,667.8z"/>
		<path opacity="0.35" fill="#E8FFFA" enable-background="new    " d="M1129.2,635.4c-23.3-40.1-27.3-88-41.5-131.4
			c-2.7-8.1-5.6-16.5-9.2-24.8c-10.6-20.6-24.9-38.6-42.1-53.7c-6.2-5.2-12.7-10.1-19.3-14.8c-12.6-8.5-26.6-15.6-41-20.1
			c-1.6-0.5-2.1,1.8-0.7,2.5c27.2,11.1,53,27.2,72.1,49.8c9.3,11.1,18.2,23,25.1,35.6c8.2,15.2,13.5,31.6,17.7,48.3
			c2.5,9.7,4.5,19.5,6.9,29.2c1.1,4.7,2.3,9.3,3.4,14c0.2,0.9,0.4,1.7,0.6,2.6c0.4,1.9,0.9,3.8,1.4,5.6c0.6,2.5,1.2,4.9,1.8,7.3
			c3,13.1,7.1,25.9,12.6,38.1c8,18,21,38.9,39.3,48.4c1.3,0,2.7-0.1,4-0.2C1147.8,662.1,1137.3,649.4,1129.2,635.4z"/>
		<path opacity="0.35" fill="#E8FFFA" enable-background="new    " d="M1210.4,659.8c-1-0.9-2-1.7-3-2.8c-3-3-5.5-6.5-7.9-10
			c-3.6-4.5-7-9.3-9.8-14.4c-3.5-6.2-6.3-12.6-8.6-19.3c-3.6-8-6.9-16.3-9.3-24.8c-5.1-17.2-5.5-34.1-5.6-51.9
			c0-8.2-0.5-16.4-2.7-24.3c-0.9-3-1.9-6.8-3.5-10c-0.9-2.2-1.7-4.2-2.6-6.1c-4.3-9.2-10.7-17.4-17.7-24.7
			c-11.6-12.1-25.5-21.7-39.8-30.7c-17.1-11.7-35.5-21.3-54.2-30.4c-8.4-4.1-16.8-8-25.3-11.6c-5.9-2-11.7-4-17.6-6.1
			c-0.4-0.1-0.2-0.7,0.2-0.6c0.2,0,0.3,0.1,0.5,0.1c-3.6-1.2-7.2-2.5-11-3.5c-0.6-0.2-1,0.8-0.5,1c14.5,7.5,29.6,13.4,44.4,20.4
			c14.6,6.8,28.4,14.7,42,23.2c13.9,8.8,27.1,18.9,39,30.2c12.2,11.5,23.1,23.8,28.8,39.8c3.1,8.9,5,18.1,5.9,27.4
			c0,0.5,0.1,1,0.1,1.4c0.1,3.4,0.2,6.9,0.2,10.3c0.1,14.3,0.8,28.3,3.9,42.3c2.9,12.9,7.2,25.6,13.2,37.5c-3-4.8-5.9-9.5-8.4-14.5
			c-2.4-4.7-4.4-9.4-6.1-14.4c-1.3-3.7-2-8.1-4.5-11.3c-0.2-0.3-0.8-0.1-0.8,0.2c-1,4.2,0.9,8.9,2.2,12.9c1.6,4.7,3.6,9.2,5.8,13.7
			c4.8,9.7,10.2,19.1,16,28.2c5.2,8.2,10.7,15.8,18.5,21.7c4.7,3.5,9.9,6.6,15.3,9.2c-10.2-2.9-18.8-9.1-27.3-16
			c-4.6-3.7-9.1-7.5-13-12c-2.3-2.8-4.8-5.5-6.4-8.8c-1.5-2.9-2.2-6-3.7-8.8c-0.3-0.5-1-0.3-1,0.3c-0.4,5.9,3.9,13.6,7.1,18.3
			c4.2,6.1,9.7,11.3,15.4,16c10.9,9,24.2,17.9,39.1,15.7c0.3,0,0.5-0.1,0.6-0.2c0.1,0,0.1,0.1,0.2,0.1h0.1c2.2,0.8,4.5,1.3,6.9,1.5
			c1.3,0.1,2.3-1,2.6-2.1c-4.3-2.6-8.4-5.5-12.3-8.7C1214.1,662.2,1212.3,661,1210.4,659.8z M1150.6,494.8c-1.5-3.4-3.3-6.7-5.2-9.9
			c2.1,3,4,6.3,5.6,9.6C1150.8,494.6,1150.7,494.7,1150.6,494.8z"/>
		<path opacity="0.35" fill="#E8FFFA" enable-background="new    " d="M1155.9,460.7c-10-9.1-21-17.6-33.3-23.3
			c-17.7-12.5-37.5-22.3-57.5-30c-23.3-9-47.3-16.9-71.4-23.3c-1.3-0.4-1.9,1.6-0.6,2.1c20,7.2,40.3,13.2,59.9,21.3
			c5.4,2.2,10.8,4.6,16.1,7c8.3,3.6,16.3,7.5,24.2,11.9c3.3,1.9,6.7,3.8,9.9,5.9c1.3,0.8,2.6,1.5,3.8,2.3
			c32.4,20.2,59.6,48.3,74.2,84c4.3,10.4,7.5,21,10.8,31.6c0.2,0.6,0.4,1.1,0.5,1.8c0.1,0.3,0.1,0.6,0.2,0.9c1.5,6,3.1,12,4.7,18
			c3.3,12.5,6,25.3,10.9,37.4c4.2,10.3,9.7,19.8,16.3,28.8c2.9,3.8,5.7,7.7,9,11.2c5.8,3.6,12,6.5,17.9,9.9c1.5,0.9,0.5,3.2-1.1,2.8
			c-10-2.8-19.5-9.4-27.6-17c-9.3-7.9-17.2-17.7-23.3-28c-4.3-6.8-7.9-13.8-11.1-21.2c-6.3-15-9.7-30.6-12.9-46.4
			c-0.8-3.7-1.4-7.4-2.2-11.1c-0.5-1.7-1-3.3-1.6-4.9c0.6,5.1,1,10.1,1.4,15.2c0.2,3,0.5,6,0.7,9.1c1.3,5.6,2.8,11.1,4.3,16.7
			c4.2,15.2,9.5,30.4,17.2,44.2c12.9,23.4,32.7,41.6,58.7,48.7c1.6,0.5,2.9-0.6,3.3-1.8c1.4-1,2.3-2.8,1-4.6
			c-9.8-14.8-16.9-30.8-21.3-47.9c-2-7.8-3.2-15.7-4.6-23.7c-0.9-7-1.8-14-3.3-20.9c-2.2-10.3-5.4-20.2-9.9-29.6
			c-6.5-12.6-15.1-25.1-24.3-37.1C1183.3,486.1,1169.6,473,1155.9,460.7z M1236.3,643.9c-3.5-4.1-6.7-8.4-9.6-12.7
			c-6.2-9-11.3-18.7-15-29c-3.8-10.7-6.5-21.8-9.4-32.8c-1.4-6.1-3.3-12.1-4.8-18c-2.4-10-5.8-19.9-9.5-29.4
			c-2.5-6.4-5.1-12.7-8.1-18.8c1.2,2,2.5,4,3.6,6.1c9.1,16.2,15.4,33.7,21,51.4C1213.1,589,1220.7,618.5,1236.3,643.9z M1221.5,563
			c2,8.2,3.4,16.5,4.4,24.8c0.9,7,0.8,14.7,2.4,21.7c-0.2,1.9-0.1,3.8,0.2,5.7c-16.5-38.4-22.5-81.8-46.3-116.8
			c-4.8-7.1-10.7-14.9-17.5-20.9c-1.5-2.1-3.1-4.2-4.8-6.2c-1.1-1.4-2.4-2.9-3.6-4.3c7.9,7.5,15.4,15.5,22.8,23.6
			C1197.8,511.7,1214.5,535.2,1221.5,563z"/>
		<path opacity="0.35" fill="#E8FFFA" enable-background="new    " d="M1277.9,663.8c0.2,0.7,0.6,1.1,1,1.4c1,4.9,1.8,9.8,2.7,14.8
			c1.3,7.8,2.4,15.6,3.3,23.5c1,7.4,1,15.1,3,22.3c0.1,0.4,0.3,0.6,0.4,0.9c-2.1-30.8-5.4-61.4-9.4-90.2c-4.1-29.5-11.3-53-21.7-79
			c-5.9-12.5-12.6-24.5-19.6-36.4c-8.6-14.4-17.5-28.8-26.9-42.7c-4.9-7.2-10-14.2-15.3-21.1c-4.8-6-9.8-13.1-15.8-18.2
			c-0.2,1.3-0.4,2.6-0.7,3.9c3.4,4.4,7.4,8.5,10.9,12.8c5.1,6.6,9.9,13.4,14.6,20.4c9.1,13.5,17.2,27.4,24.6,42
			c0.3,0.6,0.6,1.2,1,1.8c-6.5-10.8-13.3-21.3-20.5-31.7c-5.1-7.3-10.1-14.6-15.2-21.8c-5.1-7.1-9.8-14.7-15.9-21
			c-0.4,1.2-0.9,2.4-1.3,3.4c13.5,17.2,25.8,35.4,37.3,53.8c22.9,36.8,41.8,76.4,53.1,118.4c0.9,3.2,1.7,6.5,2.5,9.8
			c0.6,2.2,1.1,4.4,1.7,6.6C1273.7,646.1,1275.2,655.1,1277.9,663.8z"/>
		<path opacity="0.35" fill="#E8FFFA" enable-background="new    " d="M1267.2,635.4c-4.8-14.3-9.7-28.5-14.7-42.8
			c-4.8-13.7-9-27.1-17.8-38.6c-0.3-0.4-1-0.1-0.8,0.5c7.7,12.2,11.1,27.4,15.4,41c4.8,14.9,9.4,29.7,14.1,44.6
			c3,9.3,5.1,18.7,6.7,28.2c2.4,9,3.4,18.5,4.7,27.6c1.3,10.3,2.2,20.7,2.9,31.1c0.2,3,0.4,6,0.6,9.1c0.3,3,0.6,6,0.9,9
			c1.5,16.8,2.9,33.5,3.4,50.4c0.8,23.9,0.3,47.9-1.5,71.9c-1,9.1-1.7,18.2-3,27.3c-2.5,16.7-5.5,33.4-9.1,49.8
			c-2,9.1-4.2,18.1-6.6,27.1c-2.9,13.2-6.9,26.1-11.1,39c-3.2,9.8-6.7,19.6-10.4,29.4c-0.3,1-0.6,1.8-0.9,2.8c-0.5,1.7,0.7,3,2,3.6
			c4.5-7.7,9.4-17.2,14.2-28.2c2.3-6.9,4.3-13.8,6.4-20.8c4.4-14.7,8.1-29.4,11.4-44.3c0.8-1.5,1.4-3,2-4.7
			c4.8-26.4,8.5-52.6,11-77.6c0.4-5.1,0.8-10.2,1-15.3c2-34.2,2-68.5-1.1-102.7c-0.1-1.1-0.2-2.4-0.4-3.5
			c-6.2-21.1-8.9-42.8-11.6-64.7C1273.1,667.7,1270.8,651.5,1267.2,635.4z"/>
		<path opacity="0.3" fill="#091426" enable-background="new    " d="M1281.2,867.2c1.8-23.9,2.3-47.8,1.5-71.9
			c-0.6-16.8-1.9-33.6-3.4-50.4c-0.3-3-0.6-6-0.9-9c1.8,34.6,1.3,69.4,0.8,104.1c-0.4,17.9-1.8,35.6-4.6,53.5
			c-1.2,7.7-2.5,15.4-3.7,23.2c-0.2,1.2-0.4,2.5-0.5,3.6c-2,15.2-3.8,30.6-6.8,45.7c-0.4,1.7-0.7,3.5-1,5.2c2.4-9,4.6-18,6.6-27.1
			c3.6-16.5,6.7-33.2,9.1-49.8C1279.5,885.4,1280.2,876.3,1281.2,867.2z"/>
		<path opacity="0.3" fill="#091426" enable-background="new    " d="M1171.9,532.2c0.6,1.6,1.1,3.2,1.6,4.9
			c-0.8-3.9-1.6-7.7-2.6-11.6C1171.4,527.7,1171.8,530,1171.9,532.2z"/>
		<path opacity="0.3" fill="#091426" enable-background="new    " d="M738.6,627.9c0.1,0.1,0.1,0.1,0.2,0.2c0-0.3,0-0.7,0-1
			C738.8,627.4,738.7,627.6,738.6,627.9z"/>
		<path opacity="0.3" fill="#091426" enable-background="new    " d="M927.4,438.1c1.9-3.4,3.6-7.5,5.2-11.7
			c-3,6.2-6.6,12.2-10.7,17.7c-2.6,3.5-5.4,7-8.4,10.1C919.7,448.5,924.6,443.1,927.4,438.1z"/>
		<path opacity="0.3" fill="#091426" enable-background="new    " d="M1199.7,647c2.4,3.5,5,7,7.9,10c1,1,1.9,1.9,3,2.8
			c1.8,1.2,3.6,2.5,5.5,3.6C1210,658.5,1204.4,653,1199.7,647z"/>
		<path opacity="0.3" fill="#091426" enable-background="new    " d="M770.7,1032.3c1.1,2.3,2.4,4.5,3.6,6.7
			c-0.1-0.2-0.1-0.4-0.2-0.5c-5.3-14.5-11-28.8-15.5-43.6c-4.7-15.1-8.6-30.3-12.1-45.6c-3.3-14.4-7-29.3-8.3-43.9
			c0-0.4,0.6-0.5,0.7-0.1c0.1,0.4,0.2,0.7,0.3,1c-3.3-17.2-6.1-34.6-8.1-52c-1-8.7-2-17.5-2.7-26.4c-0.6-5.3-1-10.8-1.5-16.1
			c-0.4,13.9-0.5,27.9,0.9,41.8c1.7,17.2,5.1,34.3,8.4,51.3c6.4,32.3,11.2,65.5,21.6,96.8c0.2,0.7,0,1.2-0.4,1.6
			c0.3,0.6,0.5,1.2,0.8,1.8C762.1,1014.3,766.3,1023.3,770.7,1032.3z"/>
		<path opacity="0.3" fill="#091426" enable-background="new    " d="M1211.7,632.1c-4.4-5.1-8.3-10.6-11.9-16.2
			c6,10.3,13.9,20.1,23.3,28C1218.8,640,1215,636,1211.7,632.1z"/>
		<path opacity="0.3" fill="#091426" enable-background="new    " d="M1036.4,425.5c17.2,15.1,31.5,33.1,42.1,53.7
			c-5.8-13.3-13.2-26.1-23.2-36.2C1049.4,437,1043,431,1036.4,425.5z"/>
		<path opacity="0.3" fill="#091426" enable-background="new    " d="M921.4,589.1c0.5-7.3,1.4-14.7,3.2-21.8
			c-2.8,7.2-5.1,14.8-6.1,22.5c-1.9,13.7,0.8,28.1,4.6,41.6c0.5,0.9,1,1.7,1.5,2.6C920.9,619.4,920.5,603.9,921.4,589.1z"/>
		<path opacity="0.3" fill="#091426" enable-background="new    " d="M959.7,594.8c0,0.1,0.1,0.2,0.1,0.4c-0.7-2.6-1.2-5.2-1.6-7.9
			c-1-5.7-1.3-11.7-1.3-17.5c0.1-6.2-0.2-13.2,2-19.2c0.2-0.6,1-0.7,1.2,0c1.3,5.8,0.1,12.2,0.3,18.2c0.1,6.2,0.9,12.1,2.2,18.1
			c1.3,5.7,3,11.2,5.2,16.7c-0.5-2.2-0.9-4.4-1.1-6.6c-1.4-8.4-2.5-17-3-25.5c-0.1-2.1-0.2-4.2-0.2-6.3c-0.3-0.4-0.5-0.8-0.5-1.2
			c-0.7-7.9,1.2-16.3,2.7-24c1.4-7.7,3.2-15.3,5.1-23c1.9-7.8,4.1-15.6,6.3-23.4c-5.5,13.4-12.3,26.4-17.5,39.9
			C951.7,553.7,952.2,574.4,959.7,594.8z"/>
		<path opacity="0.3" fill="#091426" enable-background="new    " d="M1150.6,494.8c0.1-0.1,0.3-0.2,0.4-0.3
			c-1.7-3.3-3.6-6.6-5.6-9.6C1147.3,488.1,1149,491.4,1150.6,494.8z"/>
		<path opacity="0.3" fill="#091426" enable-background="new    " d="M799.5,655.1c2.9,7.7,7.8,13.3,13.8,17.9
			c-2.5-3.2-4.8-6.8-7-10.4c-5.6-9.4-9.5-19.1-10.9-29.6C795.8,640.6,796.9,648,799.5,655.1z"/>
		<path opacity="0.3" fill="#091426" enable-background="new    " d="M948.8,601.3c0.1,0.3,0.2,0.6,0.3,0.9
			C949,601.9,949,601.5,948.8,601.3C948.8,601.2,948.8,601.2,948.8,601.3z"/>
		<path opacity="0.3" fill="#091426" enable-background="new    " d="M1255.9,922.7c-0.1,0.2-0.3,0.5-0.4,0.7c0.1,0,0.1,0.1,0.2,0.1
			C1255.8,923.3,1255.8,923,1255.9,922.7z"/>
		<path opacity="0.3" fill="#091426" enable-background="new    " d="M952.4,529.1c0.2,0.1,0.3,0.2,0.4,0.3c0.1-0.3,0.1-0.6,0.2-0.9
			c-0.1,0-0.3,0-0.4,0C952.6,528.7,952.5,528.9,952.4,529.1z"/>
		<path opacity="0.3" fill="#091426" enable-background="new    " d="M1265.4,731.3L1265.4,731.3c0.1-0.1,0.1-0.2,0.1-0.4
			C1265.4,731,1265.4,731.1,1265.4,731.3z"/>
		<path opacity="0.3" fill="#091426" enable-background="new    " d="M763.4,634.7c-0.2-11.4,1.8-22.1,5.9-32.3c0.2-1,0.5-1.9,0.8-3
			c-1.3,1.8-2.5,3.6-3.7,5.4c-0.4,0.8-0.8,1.5-1.1,2.3c-7.9,16.9-9.8,59.8,9.4,87.8c1.1,1.1,2.3,2.1,3.3,3
			c-3.6-6.7-6.2-14.1-8.2-20.8C765.9,663.7,763.6,649,763.4,634.7z"/>
		<path opacity="0.3" fill="#091426" enable-background="new    " d="M881.9,422l-19.4,12.9l-19.3,13c-12.9,8.8-25.7,17.5-37.9,27.3
			c-12.2,9.7-23.7,20.4-34.4,31.6c-10.7,11.3-20.7,23.3-30.2,35.7c-9.4,12.4-18.4,25.2-26.5,38.6c-8.1,13.3-15.3,27.2-21.8,41.4
			c-3.2,7.1-6.3,14.3-8.9,21.6c-0.7,1.8-1.2,3.7-1.9,5.5c-0.6,1.9-1.1,3.7-1.6,5.6c-1.1,3.7-1.9,7.5-2.7,11.3
			c3.3-7.1,6.3-14.3,9.2-21.3c3-7.1,5.8-14.3,9.1-21.3c6.5-14,13.7-27.7,21.8-40.9c8-13.2,17-25.8,26.4-38.1
			c9.4-12.3,19.2-24.3,29.7-35.5c10.6-11.2,21.8-21.8,33.9-31.5c6-4.9,12.2-9.4,18.5-14c6.3-4.6,12.7-9,19.1-13.3l19.3-13.2
			l19.2-13.2c12.8-8.9,25.5-17.6,38.1-26.8c-7.1,3.3-13.6,7.5-20.1,11.9L881.9,422z"/>
		<path opacity="0.3" fill="#091426" enable-background="new    " d="M893.5,445.7l-13.7,15.1c5.4-4.1,10.5-8.7,15.2-13.6
			s9.2-10.1,13.5-15.3c4.3-5.3,8.4-10.8,12.2-16.4c3.7-5.7,7.5-11.4,9.7-18c-3.8,5.6-7.7,11.2-11.5,16.8c-3.9,5.5-8,11-12.2,16.3
			C902.4,435.6,898,440.7,893.5,445.7z"/>
		<path opacity="0.3" fill="#091426" enable-background="new    " d="M603.1,731.5l-0.7,6.1c-0.2,2-0.3,4.1-0.4,6.1
			c-0.2,4.1-0.4,8.2-0.4,12.2c-0.1,8.2,0,16.3,0.2,24.4c0.1,4.1,0.3,8.1,0.5,12.2c0.2,4.1,0.4,8.1,0.7,12.2l0.4-24.4
			c0.1-8.1,0.3-16.3,0.5-24.4c0.2-4.1,0.3-8.1,0.5-12.1c0.2-4,0.6-8,1-12.1c0.7-8.1,1.3-16.2,1.9-24.3
			C605.3,715.4,604.1,723.4,603.1,731.5z"/>
		<path opacity="0.3" fill="#091426" enable-background="new    " d="M649.1,964c-0.6-1.1-1.3-2.2-1.9-3.3l-3.5-6.8
			c-4.6-9.1-8.8-18.7-12.4-28.5c-0.3-0.7-0.5-1.4-0.8-2.1c-0.3,0.1-0.5,0.1-0.8,0.2c-3.2,0.7-7.1,2.1-10.8,3.6
			c0.1,0.7,0.2,1.3,0.3,2.1c0.4,2.7,1,5.3,1.8,8c0.8,2.6,1.7,5.1,2.5,7.6l0,0c-2.5-5.4-4.9-11-7.1-16.5c-1,0.5-2.1,1-3,1.4
			c2.3,5.5,4.7,11.1,7.1,16.5c3,6.4,6,12.7,9.2,19c1.2,2.5,2.6,5,3.9,7.4c0.6,0.7,1,1,1,1c0.2-0.1,8.6-4.3,15.8-7L649.1,964z"/>
		<path opacity="0.3" fill="#091426" enable-background="new    " d="M650,609.6c1.4-2.3,2.8-4.5,4.2-6.8c1.4-2.2,3-4.5,4.5-6.6
			c1.5-2.2,3.1-4.3,4.8-6.4c-1.2,0.7-2.4,1.5-3.3,2.5c-0.5,0.5-1,1-1.5,1.4s-1,1-1.3,1.5c-1.8,2-3.2,4.3-4.8,6.5
			c-1.4,2.2-3,4.5-4.4,6.8c-1.3,2.3-2.8,4.6-4,7c-5.2,9.3-9.7,19.1-13.6,29l-1.5,3.7c-0.5,1.2-0.9,2.5-1.3,3.8l-2.7,7.5
			c-1.5,5.1-3.3,10.1-4.6,15.3l-1.1,3.8l-0.6,1.9l-0.5,1.9l-1.7,7.8c-0.1,0.7-0.3,1.3-0.4,2l-0.3,2l-0.7,3.9c-0.5,2.7-1,5.2-1.3,7.9
			c-1.5,10.6-3,21.1-4.2,31.6l-0.9,7.9c-0.3,2.7-0.5,5.3-0.7,8c-0.2,2.7-0.4,5.3-0.7,8c-0.2,2.7-0.4,5.3-0.6,8
			c-0.6,10.7-1,21.3-1,32c-0.1,10.7,0.2,21.3,0.7,32l0.5,8l0.6,8l0.7,8c0.3,2.7,0.6,5.3,0.9,8c0.3,2.7,0.7,5.3,1,8
			c0.3,2.7,0.8,5.3,1.1,7.9c0.7,5.3,1.7,10.6,2.6,15.8c0.6,2.7,1,5.2,1.4,7.9c0.2,1.3,0.5,2.7,0.8,3.9l0.3,1.7
			c3.1-0.8,6.4-1.4,9.4-2c-1.3-4.4-2.7-8.8-3.8-13.2c-2.7-10.1-5-20.4-6.8-30.8c-0.4-2.6-0.9-5.1-1.2-7.8l-1-7.8l-0.9-8.2
			c-0.3-2.7-0.5-5.2-0.7-7.9c-3.1-42.2-0.5-84.9,5.9-126.9c0.3-2.7,0.9-5.2,1.2-7.8l0.7-3.9l0.3-1.9c0.1-0.7,0.3-1.2,0.4-1.9
			c0.6-2.6,1.1-5.1,1.7-7.7l0.4-1.9l0.5-1.9l1-3.8c1.1-5.1,3-10.1,4.3-15.2c0.9-2.5,1.7-5,2.6-7.4c0.4-1.2,0.8-2.5,1.2-3.7l1.4-3.7
			c3.7-9.9,8-19.6,13.1-29C647.3,614.2,648.7,611.9,650,609.6z"/>
		<path opacity="0.3" fill="#091426" enable-background="new    " d="M695.5,1040.9c15.7,13.2,37.2,25.6,56,36.1
			c-2.8-4.5-5.5-8.9-8.5-13.2c-3.4-5.1-7.3-9.9-11.5-14.5c-2.3-3-4.5-5.9-6.6-9c-3.4-5.3-7-10.6-10.5-15.8c-0.7-1-1.3-2-2-3
			c-0.3-0.5-0.6-0.9-0.9-1.3c-3.3-6-6.6-11.9-10.1-17.8c-28.1-53.7-41.7-114.3-47.2-174.8c-1-11.6-2-23.3-2.7-35
			c-0.4-6.1-0.7-12.3-0.9-18.4c-0.3-6.1-1.1-12.3-1.1-18.4c0-0.8-1.1-0.8-1.1,0c0,5.5-0.8,11.1-0.9,16.6c-0.1,5.5-0.1,11.1,0,16.6
			c0.1,11.1,0.4,22.1,1,33.2c1.4,21.3,3.8,42.7,7.6,63.8c7,39.1,18.1,77.5,35.7,113.2c7.1,14.4,15.2,28.3,24.2,41.5
			c0,0.5,0.2,1,0.7,1.2c0.2,0.2,0.4,0.3,0.5,0.5c2.9,6,5.6,12,8.6,17.9c-13.4-18.1-25.8-37-37.1-56.4c-6.4-11.1-12.3-22.5-18-34
			c-2.8-5.6-5.4-11.2-8-17.1c-0.3-0.6-0.5-1.1-0.8-1.7c-9.8-28.3-15.6-57.8-18.9-87.6c-2.4-21.8-2.9-43.6-2.9-65.5
			c0-2.6-3.8-2.5-3.9,0c-2.2,35.7,0.4,72.6,6.8,107.9c2.6-0.1,4.4,0.4,5.2,1.6c2.4,3.2,3.3,8.8,1.7,10.9c-0.6,0.7-2.1,1.3-4.1,1.9
			c3.2,14.9,7.6,29.4,12.8,43.5c4.2-1.2,6-1.4,7.7,0.5c2.2,2.6,3,6,1.9,7.7c-0.3,0.5-2.3,2.1-4.9,4.1c3.3,8.2,7,16.3,10.7,24.4
			c-0.5-0.7-1-1.4-1.5-2.1c-0.8-1.1-1.6-2.2-2.4-3.2l-2.3-3c-0.8-1-1.4-2-2.3-3c-0.8-1-1.5-1.9-2.4-2.9l-4.4-6l-0.3-0.5
			c-6,4.6-12.6,9.4-12.6,9.4S671.2,1020.5,695.5,1040.9z"/>
		<path opacity="0.3" fill="#091426" enable-background="new    " d="M596.6,865.6c-6.1-27.3-10-55.1-10.2-83
			c-0.2-14,0.8-27.9,1.5-41.9c0.4-6.8,0.8-13.5,1.2-20.2c0.3,2.7,0.8,5.2,2.3,7.8c1-5.7,0.6-11.2,0.8-17c0.1-5.6,0.4-11.2,0.9-16.9
			c0.9-11.2,2.3-22.4,4.8-33.4c5-21.8,13-43,22.8-63.3c2.5-5.1,5.1-10,7.7-15c0.7-1.2,1.3-2.5,2.1-3.6l2.2-3.5
			c0.8-1.1,1.6-2.3,2.4-3.4s1.5-2.3,2.4-3.4c6.7-9.1,13.7-17.8,21-26.5c9.3-11.1,19.1-21.9,29.4-32.1c12.5-11,26.9-23.3,43.1-37.8
			c-49.7,30.3-100.3,70.8-122.9,110.4c0,0-7.7-14.9-8.9-44.8c0,0-24.7,38.4-33.6,77.2s-18,91.8-11.5,140.8
			c6.5,48.9,12.2,74.9,23.4,107.5c6,17.4,12.1,30.8,16.5,39.5c-3.4-13-10.2-40.9-15-70.5c-6.4-40.8-5.1-90.1-5.1-90.1
			c-3.6,25.9-1,67.6-1,67.6s-4.6-23.1-2.8-62.1c1.8-39.1,9.2-71.7,20.9-104.4c7.6-21.7,23.2-49,38.8-71.3c-0.3,0.5-0.5,0.9-0.8,1.3
			l-1,1.9l-1.1,1.9c-0.8,1.2-1.4,2.5-2.1,3.7c-2.8,5-5.3,10.1-7.7,15.2c-9.6,20.6-18,41.8-23,64.1c-1.2,5.6-2.2,11.2-3,16.9
			s-1.2,11.3-1.5,17c-0.2,3.8-0.4,7.6-0.5,11.4c-1,11.6-2,23.3-3,34.9c-0.5,7-1,13.9-1.5,21c-0.4,7.1-0.7,14-0.7,21.1
			c-0.1,28.1,3.5,56.2,9.5,83.7c1.4,6.9,3,13.7,5,20.5c0.4,1.7,1,3.4,1.4,5.1l1.5,5.1c1,3.3,2.2,6.7,3.3,10c0.7,2,1.4,4.1,2.2,6.1
			c1-0.3,2-0.5,3.1-0.8C604.5,897.1,599.9,881.5,596.6,865.6z"/>
		<path opacity="0.3" fill="#091426" enable-background="new    " d="M787.5,1096.9c-47.6-55.6-62.1-128.5-72.1-198.9
			c-0.3-2.3-0.7-4.6-1-7c-0.1-0.8-0.1-1.6-0.2-2.4c-0.6-6.8-1.3-13.5-1.8-20.4c-1-13.9-2.4-27.9-3.2-41.8
			c-0.9-13.6-1.6-27.4-1.9-41.1c-0.1-6.9-0.6-13.7-0.6-20.5c0-3.4,0-6.9,0.1-10.3c0-2.9,0.4-5.2-1-7.8c-0.3-0.4-0.8-0.4-1,0
			c-3,4.5-1.9,12.8-2.1,18c-0.3,6.9-0.8,13.7-0.8,20.5c0,14,0.2,28,1,41.9c0.8,13,1.7,25.8,3.7,38.7c0.9,8.4,1.8,16.8,2.7,25.2
			c2.1,19.3,4.6,38.7,8,57.8c5.6,30.9,13.5,61.8,26,90.7c-2.8-5.1-5.5-10.2-8.1-15.4c-4.3-8.7-8.5-17.4-12.3-26.4
			c-1.3-8.5-6.4-16.7-9.3-24.5c-3.4-9.1-6.5-18.3-9.3-27.5c-5.9-19.2-10-39.2-11.6-59.2c-3.3-41.7-10.2-83.6-6.3-125.5
			c1.1-11.9,3-23.7,5.1-35.5c1-5.4,2.1-10.8,3.2-16.1c1.1-6,1.5-12.1,2.8-18.2c0.1-0.6-0.7-0.8-0.9-0.2c-3,10.3-6.4,20.2-8.6,30.8
			c-1.9,9.7-3.6,19.5-4.9,29.4c-2.7,21.3-3.1,43-2.7,64.5c1,42,5,83.5,14.7,124.4c2.6,10.9,5.8,21.5,9.6,32
			c1.9,5.2,3.9,10.6,6.1,15.7c1.2,2.9,2.4,5.7,3.8,8.4c3.9,11,8.1,21.7,13.2,32.2c9.1,18.7,19.9,36.6,32.5,53.1
			c6.9,3.7,13.1,7.2,18.4,10.3C781.7,1093.8,784.7,1095.5,787.5,1096.9z"/>
		<path opacity="0.3" fill="#091426" enable-background="new    " d="M791.3,1068.9c-8.6-16.9-15.3-34.6-21.8-52.3
			c-6.2-16.9-11.3-34.1-15.9-51.6c-4.6-15.5-8.6-31.4-12-47.2c-0.9-3.9-1.6-7.7-2.4-11.6c-0.1-0.4-0.2-0.7-0.3-1s-0.8-0.3-0.7,0.1
			c1.4,14.8,5,29.5,8.3,43.9c3.5,15.3,7.4,30.6,12.1,45.6c4.6,14.8,10.2,29.1,15.5,43.6c0.1,0.2,0.1,0.4,0.2,0.5
			c-1.2-2.2-2.5-4.5-3.6-6.7c-4.6-8.9-8.8-18-12.5-27.3c-0.3-0.6-0.5-1.2-0.8-1.8c-0.9,0.8-2.5,0.7-2.9-0.7c-3.3-10-6-20.3-8.3-30.6
			c-2.3-7.2-4.4-14.5-6.3-21.8c-10-37.9-16.1-77-21-115.9c-1.5-12.2-2.8-24.4-3.6-36.6c-0.9-12.6-0.1-25.2-1-37.6
			c0-0.4-0.7-0.6-0.8-0.1c-2.1,10.4-1.3,21.5-1,32.1c0.3,11.3,1.4,22.6,2.7,33.8c2.2,20,4.9,40,7.9,59.9c6,39.3,15,78.6,29.5,115.7
			c3.9,9.9,8.2,19.5,12.9,29.1c4.7,9.3,9.4,19.5,16.3,27.5c2.9,6.8,5.9,13.4,9.4,19.9c5.6,10.3,12.3,20.2,19.7,29.4
			c3.2,1.2,6.1,2.1,8.3,2.7C808.7,1097.2,799,1083.8,791.3,1068.9z"/>
		<path opacity="0.3" fill="#091426" enable-background="new    " d="M753.7,965c-0.3-1.1-0.6-2.3-0.9-3.3
			c-4.7-18.4-7.7-37.5-13.5-55.5c0.8,3.9,1.5,7.7,2.4,11.6C745,933.7,749,949.5,753.7,965z"/>
		<path opacity="0.3" fill="#091426" enable-background="new    " d="M757.5,1003.2c-4.1-10.3-7.8-20.7-11.1-31.3
			c2.3,10.3,5,20.6,8.3,30.6C755.1,1003.9,756.7,1003.9,757.5,1003.2z"/>
		<path opacity="0.3" fill="#091426" enable-background="new    " d="M788.4,666.4c-4.2-6.8-7.2-14.2-9.2-21.9
			c-1-3.9-1.8-7.8-2.3-11.8c-0.3-1.8-0.4-3.7-0.6-5.6c0.2-3.8,0.5-7.6,1-11.4c0.8-6.8,1.9-13.5,3.2-20.3c0.3-1.2,0.6-2.6,0.9-3.8
			l0,0c4.9-11.2,11-21.7,18.3-31.4c0.8-0.9,1.4-1.7,2.2-2.7c2.5-2.3,5-4.5,7.4-6.8c10.6-7.2,26.4-18.4,48.1-31.8
			c25.3-15.6,30.6-21.4,47.6-39.6c17-18.2,26.1-39.3,26.1-39.3s-28,38.7-50,57c-22,18.3-60,41-60,41s28.2-23.8,41.7-35.5
			c13.5-11.6,45.6-36.9,63.4-59.3c14.5-18.2,14.8-37.2,14.4-43.6c-0.1,1.2-0.2,2.4-0.3,3.4c-0.6,5.1-2,9.9-3.8,14.6
			c-1.1,3-2.4,5.8-3.8,8.7c-1.5,4.3-3.2,8.4-5.2,11.7c-2.8,5-7.7,10.4-13.9,16.1c-4,4.4-8.3,8.5-12.9,12.3
			c-7.9,6.8-15.4,14-23.4,20.6c-1.3,1.1-3.4,0.2-3.4-1.3c-1.2,1-2.6,1.9-3.8,2.9c-23.3,17.3-44.3,29.3-72.4,45.3
			s-40.8,35.4-47.8,49.1c-5.1,10-9.5,23.9-10.6,40.9c0.4,0.4,0.5,1,0.4,1.6c-0.2,0.6-0.3,1.1-0.5,1.6c0,0.3,0,0.7,0,1
			c0.4,0.3,0.6,0.8,0.6,1.4c0,2.2-0.1,4.4-0.3,6.6c1.2,7.8,5.4,24.8,19.8,41.8c6.2,7.3,11.2,12.9,15.6,17.2
			c-19.3-27.9-17.3-71-9.4-87.8c0.4-0.8,0.8-1.5,1.1-2.3c1.1-1.9,2.4-3.7,3.7-5.4c-0.3,1-0.6,1.9-0.8,3c-4.1,10.3-6.1,21-5.9,32.3
			c0.3,14.3,2.5,29,6.5,42.6c2,6.7,4.6,14.1,8.2,20.8c3,2.7,5.8,4.8,8.5,6.3c-2.5-3.3-4.8-6.6-6.8-10.4c-3.1-6.1-5.5-12.5-7.4-19.1
			c-3.7-13.2-5.9-27.4-6.1-41.2c-0.2-14.4,3.5-27.3,10.2-39.7c0.1,0,0.2,0,0.2,0c-0.1,0.7-0.3,1.3-0.4,2c-1.2,6.5-2.3,13-3,19.5
			c-1.5,13.4-1.8,27,0.3,40.3c2,12.8,6.4,23.2,14.5,33.3c5.6,7,11.1,14,18,19.7c1.9-0.5,3-1.5,4.2-3.2c-7.1-5.3-12.9-12.2-18.5-19
			c-3.8-4.6-7.4-9.4-9.7-15c-2.4-5.9-3.7-12.3-4.6-18.6c-0.5-3.4-0.9-6.8-1-10.2c0.1,0.5,0.2,1,0.4,1.5c1.8,8,4.8,15.7,9.1,22.7
			c4.3,7.1,9.8,13.2,15.9,18.7c4.5,4.1,9.3,8.5,14.5,12.2c0.4-0.4,0.8-0.9,1.1-1.2c0.6-0.6,1.1-1.1,1.8-1.6
			c-4.7-3.4-9.7-6.6-14.2-10.3C798.5,679.4,792.8,673.4,788.4,666.4z"/>
		<path opacity="0.3" fill="#091426" enable-background="new    " d="M738.8,628.1c0,1.6-0.1,3.1,0,4.9c0.1,0.8,0.2,1.8,0.4,3.2
			c0.2-2.2,0.3-4.4,0.3-6.6C739.5,628.9,739.2,628.4,738.8,628.1z"/>
		<path opacity="0.3" fill="#091426" enable-background="new    " d="M739,623.8c-0.1,1-0.1,2.2-0.2,3.2c0.2-0.6,0.4-1.1,0.5-1.6
			C739.6,624.8,739.4,624.2,739,623.8z"/>
		<path opacity="0.3" fill="#091426" enable-background="new    " d="M877.2,487.2c8-6.6,15.5-13.9,23.4-20.6
			c4.6-3.9,8.9-7.9,12.9-12.3c-10.9,10.1-25.6,21-39.8,31.5C873.8,487.3,875.8,488.2,877.2,487.2z"/>
		<path opacity="0.3" fill="#091426" enable-background="new    " d="M940.2,403.1c0.1-1,0.3-2.2,0.3-3.4c-0.1-1.5-0.2-2.4-0.2-2.4
			s-2.8,15.4-7.6,29.1c1.3-2.9,2.7-5.7,3.8-8.7C938.2,412.9,939.6,408.1,940.2,403.1z"/>
		<path opacity="0.3" fill="#091426" enable-background="new    " d="M818,640c-2.8-10-2.9-20.3-1.3-30.5c0.8-5.1,1.7-10.3,3.1-15.2
			c1.4-5,4.7-9.5,5.4-14.6c0.1-0.3-0.4-0.7-0.6-0.4c-3,3.5-4.1,8.7-5.7,12.9c-2.1,5.7-4.2,11.3-5.2,17.3c-1.9,10.3-2,21.3,0.4,31.5
			c4.1,17.7,16.2,31.4,30.1,42.3c2-0.6,4-1.2,6-1.7C835.6,671.1,822.9,657.9,818,640z"/>
		<path opacity="0.3" fill="#091426" enable-background="new    " d="M859.8,566.1c10.5-19,26-34.2,40.9-49.7
			c14.8-15.4,28.6-31.4,38.4-50.7c5.1-10.2,9.2-20.9,12.1-31.9c2.9-10.9,5.4-22.8,2-33.7c-0.1-0.4-0.8-0.3-0.7,0.2
			c3.5,11.1-1,24.6-4.2,35.4c-3.2,11-7.6,21.7-13.1,31.7c-10.5,19.5-25.3,35.4-40.9,50.9c-15,15-29.9,30.4-39.4,49.6
			c-8.5,17.3-13.2,36.5-13.3,55.8c-0.2,19.7,4.2,39.3,12.6,57c1.2-0.3,2.4-0.6,3.6-0.9C840.1,644.9,840.9,600.3,859.8,566.1z"/>
		<path opacity="0.3" fill="#091426" enable-background="new    " d="M885.1,650.3c-4.4-14.5-4.6-30.4-3-45.4
			c1.5-15.2,5.2-30,10.4-44.3c2.7-7.4,5.7-14.8,9.1-21.9c2.9-6.3,6.4-12.4,8.9-18.8c0-0.1,0-0.1,0-0.2
			c10.1-13.3,20.7-26.4,30.6-39.9c11.9-16.2,20.9-34.4,17.2-55c-0.1-0.5-0.8-0.3-0.7,0.2c3.2,20.9-8.9,40.2-21,56.1
			c-11.9,15.6-24.6,30.7-35.9,46.7c-21.3,29.9-40,64.5-39.7,102.4c0.1,14.2,3,28.5,8.8,41.5c1.2,1.7,2.6,3.4,3.7,5.2
			c1.2-0.2,2.5-0.3,3.6-0.5c-17.5-30.7-13.9-68.5-0.7-100.4c6.5-15.6,15.2-29.9,24.8-43.6c-5.1,9.9-9,20.7-12.4,30.8
			c-4.9,14.6-8.4,29.8-9.5,45.2c-1.7,23.3,1.8,48.8,16.7,67.1c1.1,0,2.2,0,3.3,0C892.9,668.2,888,660,885.1,650.3z"/>
		<path opacity="0.3" fill="#091426" enable-background="new    " d="M872.4,677c0.4-0.1,0.8-0.1,1-0.2c-1.1-1.8-2.5-3.5-3.7-5.2
			C870.5,673.4,871.5,675.2,872.4,677z"/>
		<path opacity="0.3" fill="#091426" enable-background="new    " d="M1023.5,667.2c-8.5-5.9-16.1-13.2-22.2-21.6
			c-6.3-8.7-11.2-18.3-15-28.3c-3.8-10.2-7.2-21.3-7.8-32.3c-0.6-11.7,3.6-23,7.9-33.6c4.3-10.7,9-21.2,14.1-31.4
			c4.9-9.8,10.1-19.5,14.5-29.6c3.7-8.5,5.5-16.9,2.2-25.7c-3.9-10.4-12-19.5-18.5-28.4c-7.2-9.7-14.8-20-23.5-28.4
			c-0.5-0.5-1.1,0.2-0.9,0.7c0.2,0.3,0.4,0.6,0.7,0.8c3.2,4.1,6.8,8,10.3,11.8c4.5,4.9,8.3,10.4,12.3,15.7
			c6.4,8.7,13.5,18.1,17.2,28.3c4.4,11.9-1.3,22.3-6.5,32.9c-5.1,10.5-10.5,20.9-15.7,31.3c-9.2,18.2-20.7,39.7-16.5,60.6
			c4.1,20.1,11.1,40.1,23.2,57c1.9,2.7,3.9,5.2,6.1,7.8c0.7,0.6,1.3,1.2,2,1.8c4,3.6,8.8,6.6,12.5,10.5c2,2.1-0.6,5.1-3,3.9
			c-5.1-2.7-9.6-7.2-14-11c-4.4-3.7-8.5-7.7-12.3-11.8c-7.9-8.5-15.2-17.8-20.7-28c-4.2-7.8-7.6-16.3-9.8-25c0-0.1-0.1-0.2-0.1-0.4
			c-7.5-20.4-8-41.1-0.2-61.4c5.2-13.5,12-26.5,17.5-39.9c2.3-7.9,4.6-15.8,6.5-23.8c1.2-5.1,2.3-10.1,2.8-15.2
			c0.2-11.6-2.2-23.2-8.2-33.6c-0.2-0.3-0.7,0-0.5,0.3c10.2,18.4,7.5,40.9,1.2,60.2c-6.1,18.6-16.1,35.5-22.7,53.9
			c0.3-1.6,0.6-3.1,0.9-4.8c3.6-19.5,9.9-38.4,13.8-57.9c3.7-18.7,5.4-41.4-5.3-58.2c-0.3-0.4-1-0.1-0.8,0.3
			c0.9,2.4,1.7,4.7,2.5,7.1c-0.3-0.1-0.7,0-0.5,0.4c6.2,19.3-0.9,40-7.2,58.3c-1.4,4-2.9,8-4.3,12.1c-1.6,6.9-3.5,13.8-6.3,20.2
			c-0.2,0.5-0.5,0.9-0.9,1c-3.2,10.2-8.3,20-12.6,29.1c-3.8,8-7.8,16.2-11,24.6c-1.8,7.1-2.8,14.5-3.2,21.8
			c-1,14.8-0.6,30.3,3.1,44.8c3,5.2,6,10.5,9.2,15.6c2.6,4.2,5.3,8.3,8.7,11.9c3,3.2,7,5.3,9.8,8.5c1,1,1,2.4,0.3,3.4
			c0.3,0.1,0.7,0.2,1,0.4c0.8,0.3,1.3,0.7,1.7,1.2c7.8-1.2,3.9-3-2-7.4c-7.1-5.5-24.3-15.2-27.6-56.5c-3.3-41.3,11.4-63.8,11.4-63.8
			s-2.7,35.1,4.8,62.6c7.1,26.4,23.9,54.2,40.6,61.3c-0.8-0.9-1.4-1.7-2.2-2.7c0.7-0.8,0.9-1.8,0.1-3c-5.5-8.1-10.5-16.5-15.1-25.1
			c0.9,1.2,1.6,2.4,2.5,3.6c8.3,11.4,18.1,21.4,28.8,30.7c3.1,0.6,6.5,1,10,1.4c-26.7-21.5-50.6-48.8-54.5-84.1
			c-0.8-6.6-0.9-13.2-0.6-19.9c2.9,27.5,18.3,54.3,35.5,75.4c6.7,8.3,14.5,15.9,23.6,21.5c5.5,3.4,11.4,6.3,17.4,9.1
			c6.6,0.4,13.2,0.7,19.7,0.8C1039.1,675.8,1031.1,672.5,1023.5,667.2z M948.8,601.3C948.8,601.3,948.9,601.3,948.8,601.3
			c0.2,0.2,0.2,0.6,0.3,0.9C949,601.9,948.9,601.6,948.8,601.3z M952.8,529.4c-0.1-0.1-0.3-0.2-0.4-0.3c0.1-0.2,0.2-0.4,0.2-0.6
			c0.1,0,0.3,0,0.4,0C952.9,528.8,952.9,529.1,952.8,529.4z"/>
		<path opacity="0.3" fill="#091426" enable-background="new    " d="M953.7,673.7c-0.3-0.1-0.7-0.2-1-0.4c0.6-1,0.6-2.4-0.3-3.4
			c-2.9-3.2-6.9-5.3-9.8-8.5c-3.3-3.6-6.1-7.7-8.7-11.9c-3.1-5.1-6.1-10.4-9.2-15.6c1,3.6,2,7.1,3.4,10.6c5,12.5,13.1,23.4,24,30.9
			c1.3-0.2,2.5-0.3,3.4-0.5C955,674.3,954.5,674,953.7,673.7z"/>
		<path opacity="0.3" fill="#091426" enable-background="new    " d="M974.3,408.5c0.2,0.3,0.4,0.5,0.6,0.8
			C974.7,408.9,974.4,408.7,974.3,408.5C974.2,408.5,974.2,408.5,974.3,408.5z"/>
		<path opacity="0.3" fill="#091426" enable-background="new    " d="M948.3,513.6c0.3-0.2,0.7-0.5,0.9-1c2.8-6.4,4.6-13.3,6.3-20.2
			c-5.3,14.8-11.1,29.4-17.8,43.6c-4,8.3-8.2,16.6-11.1,25.3c-0.7,2-1.2,3.9-1.7,6c3.2-8.4,7.1-16.5,11-24.6
			C940,533.6,944.9,523.8,948.3,513.6z"/>
		<path opacity="0.3" fill="#091426" enable-background="new    " d="M990.3,648c3.9,4.2,8,8.2,12.3,11.8c4.4,3.7,9,8.3,14,11
			c2.5,1.3,5-1.8,3-3.9c-3.7-3.9-8.5-6.9-12.5-10.5c-0.7-0.6-1.3-1.2-2-1.8c4.4,5.1,9.2,9.9,14.6,14.1c-10.6-5.3-20.3-12-28.3-21.3
			c-13.1-15.2-24.7-33.6-31.7-52.4c2.2,8.7,5.6,17.2,9.8,25C975.1,630.2,982.4,639.7,990.3,648z"/>
		<path opacity="0.3" fill="#091426" enable-background="new    " d="M977.2,493.5c2.1-5.1,4-10.3,5.5-15.6
			c2.3-7.6,3.6-15.6,3.7-23.5c-0.5,5.1-1.6,10.2-2.8,15.2C981.7,477.6,979.4,485.6,977.2,493.5z"/>
		<path opacity="0.3" fill="#091426" enable-background="new    " d="M1036.1,654.5c-6.1-5.8-11.4-12.7-15.2-20.3
			c-3.9-7.7-5.6-15.9-7-24.4c0.1-8,2-16.1,4.8-23.5c3.9-10.5,9.7-20,15.4-29.5c5.4-9.1,10.5-18.4,14.8-28.1
			c3.8-8.6,6.8-19.1,4.8-28.4c-2-9.5-9.3-18.3-14.9-26c-6.7-9.2-13.8-18.1-21.3-26.8c-7.8-9.1-15.9-18.6-25.2-26.4
			c-0.4-0.3-0.9,0.2-0.6,0.6c7.4,8.2,15.2,15.8,22.5,24.3c7.3,8.6,14,17.5,20.3,26.9c6.4,9.4,14.9,19.7,15.3,31.5
			c0.4,11.1-4.2,23.3-9.1,33.2c-9.1,18.8-21.6,35.9-27.7,56c-3,9.6-4.6,19.6-2.9,29.6c1.6,9.8,7,18.9,12.8,26.8
			c5.9,7.9,12.9,14.9,20.6,20.9c1.9,1,3.8,2.1,5.8,3c0.8,0.4,1.1,1.1,1.1,1.8c1.5,1,3.1,2,4.7,3c3.6,0,7.1,0,10.5-0.1
			c3.8-0.1,7.7-0.4,11.4-1C1062.3,672.2,1048.1,665.9,1036.1,654.5z"/>
		<path opacity="0.3" fill="#091426" enable-background="new    " d="M1049.6,674c-1.9-1-3.9-2-5.8-3c2.2,1.7,4.6,3.3,6.9,5
			C1050.7,675,1050.3,674.3,1049.6,674z"/>
		<path opacity="0.3" fill="#091426" enable-background="new    " d="M967.5,408.1c-0.3-0.1-0.5-0.3-0.8-0.4
			c-0.1-0.1-0.2,0.1-0.1,0.2c0.3,0.1,0.5,0.3,0.8,0.4C967.5,408.3,967.6,408.2,967.5,408.1z"/>
		<path opacity="0.3" fill="#091426" enable-background="new    " d="M973.9,416.2c0.1,0.2,0.5,0.1,0.4-0.2c-1-2.6-2.6-4.6-4.8-6.2
			c-0.3-0.2-0.7,0.3-0.4,0.5C971.1,411.8,972.7,413.9,973.9,416.2z"/>
		<path opacity="0.3" fill="#091426" enable-background="new    " d="M1025.3,434.7c6.9,5.7,13.7,11.4,20,17.8
			c6.7,6.6,13.7,13.2,19.7,20.4c0.2,0.3,0.6-0.1,0.4-0.4c-6-7.5-11.6-14.9-18.4-21.7c-6.7-6.7-13.4-13.4-20.8-19.3
			c-14.4-11.8-30.2-21.4-46.6-30.1c-0.5-0.2-0.8,0.4-0.4,0.7C995.6,411.3,1010.8,422.7,1025.3,434.7z"/>
		<path opacity="0.3" fill="#091426" enable-background="new    " d="M1178.3,665c-9.8-6-19.1-12.9-27.6-20.6
			c-8.7-7.8-16.2-16.5-22.3-26.5c-6-9.8-10.7-20.4-15.3-30.9c-0.1-0.2-0.3-0.2-0.4-0.2c-1.7-5.4-3.2-11-4.7-16.3
			c-11.3-43.2-19.3-89.4-48-125.1c-15.9-19.7-36.2-32.4-57.8-45.4c-0.3-0.2-0.6,0.3-0.3,0.5c5.2,3.2,10.3,6.6,15.3,10.1
			c1.3,0.9,2.6,1.7,3.8,2.7c5.3,3.8,10.5,7.9,15.4,12.1c6.6,5.5,13,11.3,19,17.5c9.9,10.1,17.2,22.9,23.2,36.2
			c0.1,0.2,0.3,0.5,0.4,0.7c7.9,15.6,13.2,32.2,17.8,49c2.7,9.3,5.1,18.7,7.3,28.1c1.1,4.8,2.3,9.4,3.5,14.2
			c0.8,3.1,1.8,6.3,1.7,9.5c0.2,0.6,0.3,1.1,0.5,1.6c3.6,12.2,7.1,24.4,12.1,36.1c4.5,10.5,10.1,20.7,17.2,29.5
			c7,8.7,15.4,15.2,24,22c0.6,0.5,0.8,1,0.7,1.6c1-0.1,1.9-0.2,2.9-0.3c-26.9-19-42.5-49.5-52.7-80.6c8.8,20.6,18.4,39.7,35,55.4
			c8.4,7.9,17.4,15.1,27,21.3c1.8,1.2,3.7,2.5,5.6,3.6c3.3,0.9,8.2,1.9,14.1,2.7C1189.8,671.1,1183.9,668.3,1178.3,665z"/>
		<path opacity="0.3" fill="#091426" enable-background="new    " d="M1017.2,410.7c6.7,4.7,13.1,9.6,19.3,14.8
			c-5-4.3-10-8.4-15.4-12.1C1019.8,412.6,1018.4,411.6,1017.2,410.7z"/>
		<path opacity="0.3" fill="#091426" enable-background="new    " d="M1163.1,670.1c-8.6-7-17.1-13.3-24-22
			c-7.1-9-12.8-19.1-17.2-29.5c-5-11.7-8.6-23.9-12.1-36.1c-0.2-0.6-0.3-1-0.5-1.6c0.1-3.2-1-6.4-1.7-9.5c-1.1-4.8-2.3-9.4-3.5-14.2
			c-2.3-9.4-4.8-18.8-7.3-28.1c-4.8-16.8-9.9-33.4-17.8-49c-0.1-0.2-0.3-0.5-0.4-0.7c3.6,8.2,6.6,16.6,9.2,24.8
			c14.1,43.4,18.2,91.3,41.5,131.4c8.1,14,18.6,26.8,31.4,36.7c1-0.1,2.2-0.2,3.2-0.3C1163.8,671.2,1163.7,670.6,1163.1,670.1z"/>
		<path opacity="0.3" fill="#091426" enable-background="new    " d="M1147.8,672.1c-1.8-0.8-3.6-1.4-5.4-2.2
			c-6.8-2.7-13.6-5.3-20.4-8c-13.2-5.2-27.3-9.6-39.9-16.3c-21.9-11.6-37.1-35.4-35.8-60.5c0-0.5-0.7-0.5-0.8,0
			c-1.6,24.2,8.9,47.7,29.5,60.9c12.1,7.7,26.2,12.6,39.5,17.8c5,2,10,4,15,6C1134.6,670.7,1140.9,671.7,1147.8,672.1z"/>
		<path opacity="0.3" fill="#091426" enable-background="new    " d="M1069.3,414.5c-21.3-9.2-43.6-16.3-65.8-22.4
			c5.7,2,11.3,4.2,17,6.6c21.8,7.5,43.6,15.1,64.3,25.7c23.8,12.3,45.8,28.8,61.9,50.5c7.4,10.1,13.6,21.3,17.4,33.3
			c4.8,14.8,5.8,30.2,6.9,45.6c1.4,20,3.6,40.6,10.2,59.7c3.3,7.4,7.1,14.7,11.2,21.8c2.3,4,4.6,8,7.1,11.8
			c4.9,6,10.3,11.4,16.3,16.3c1.9,1.1,3.9,2.3,5.9,3.3c1.7,0.8,3.4,1.5,5.1,2.3c1.2,0.6,1.5,1.8,1.2,3c1.2,0.8,2.6,1.5,3.9,2.3
			c2.2-0.3,4.3-0.6,6.3-0.9c-18.9-8.8-34.9-22.8-45.6-41c-13.5-23.2-16.9-49.8-18.9-76c-0.6-2.2-1-4.5-1.5-6.8
			c-0.9-4-1.7-7.9-2.6-11.9c-0.8-3.6-0.8-7.1-1.1-10.9c-0.1-0.7,0.9-0.7,1-0.1c0.7,1.9,1.4,3.6,2.1,5.4c-0.3-2.3-0.6-4.5-1-6.7
			c1,3.8,1.7,7.7,2.6,11.6c0.1,0.5,0.3,1,0.4,1.4c0.9,3.3,1.6,6.8,2.5,10.1c1.8,7.2,3.4,14.6,5.3,21.7c4,14.7,9,29.3,16.3,42.6
			c0.6,1,1,1.9,1.6,2.9c3.6,5.7,7.5,11.1,11.9,16.2c3.3,3.9,7.1,7.9,11.3,11.8c5.7,4.9,12,9,18.7,12c-2.9-2.3-5.4-5-7.8-7.7
			c-0.4-0.3-0.8-0.5-1.1-0.8c-6.5-4.2-12.1-9.3-17.4-15c-10.7-11.4-19-24.9-24.9-39.3c-12.5-30.5-12-64.7-25.4-94.8
			c-7.9-17.5-20.9-31.7-33.6-45.8c-0.4-0.4-1,0.2-0.7,0.6c-8.4-7.8-17.5-14.8-27.3-20.9C1092.5,425.7,1081,419.8,1069.3,414.5z"/>
		<path opacity="0.3" fill="#091426" enable-background="new    " d="M1003.1,392c-0.4-0.1-0.5,0.5-0.2,0.6
			c5.8,2.1,11.7,4.1,17.6,6.1c-5.6-2.4-11.2-4.6-17-6.6C1003.4,392.1,1003.2,392,1003.1,392z"/>
		<path opacity="0.3" fill="#091426" enable-background="new    " d="M1227,669c-1.8-0.8-3.5-1.5-5.1-2.3c-2-1-4-2.2-5.9-3.3
			c3.9,3.1,8,6.1,12.3,8.7C1228.5,670.9,1228.3,669.6,1227,669z"/>
		<path opacity="0.3" fill="#091426" enable-background="new    " d="M1181.3,613.4c2.3,6.7,5.1,13.1,8.6,19.3
			c2.9,5.1,6.1,9.9,9.8,14.4c-2.6-3.8-4.9-7.8-7.1-11.8C1188.4,628.1,1184.6,620.9,1181.3,613.4z"/>
		<path opacity="0.3" fill="#091426" enable-background="new    " d="M1241.7,655.9c-6.8-3-13-7.1-18.7-12
			c8.2,7.5,17.7,14.2,27.6,17c1.6,0.5,2.7-1.9,1.1-2.8c-5.9-3.4-12.1-6.3-17.9-9.9C1236.3,651,1238.8,653.6,1241.7,655.9z"/>
		<path opacity="0.3" fill="#091426" enable-background="new    " d="M1168.9,526.9c0.3,3.7,0.4,7.1,1.1,10.9
			c0.9,4,1.7,7.9,2.6,11.9c0.5,2.3,1,4.5,1.5,6.8c-0.2-3-0.5-6.1-0.7-9.1c-0.4-5.1-0.8-10.1-1.4-15.2c-0.7-1.8-1.3-3.5-2.1-5.4
			C1169.7,526.2,1168.8,526.3,1168.9,526.9z"/>
		<path opacity="0.3" fill="#091426" enable-background="new    " d="M1093.5,426.4c-7.8-4.4-15.9-8.3-24.2-11.9
			c11.7,5.3,23.2,11.2,34.1,17.8C1100.2,430.2,1096.8,428.3,1093.5,426.4z"/>
		<path opacity="0.3" fill="#091426" enable-background="new    " d="M1181.8,570.4c-1.9-7.2-3.6-14.5-5.3-21.7
			c-0.9-3.3-1.6-6.8-2.5-10.1c-0.1-0.5-0.3-1-0.4-1.4c0.8,3.7,1.5,7.4,2.2,11.1c3.1,15.8,6.6,31.5,12.9,46.4
			c3.1,7.3,6.8,14.4,11.1,21.2c-0.6-1-1.1-1.9-1.6-2.9C1190.7,599.6,1185.8,585,1181.8,570.4z"/>
		<path opacity="0.3" fill="#091426" enable-background="new    " d="M1186.4,442.6c4.5,3.8,8.2,8.2,11.5,13.1
			c6.9,9.9,13.2,20.1,19.7,30.2c6.5,9.9,12.9,19.9,19.3,29.8c2.8,4.2,5.4,8.5,8.2,12.8c-2.5-5.7-5.1-11.6-7.8-17.8
			c-6.7-10-13.5-20-20.1-30c-6.8-10.2-13.2-20.7-20.6-30.3c-4.2-5.5-10.2-11.6-16.6-15.5c-0.1,1-0.2,2-0.3,3
			C1182,439.2,1184.3,440.8,1186.4,442.6z"/>
		<path opacity="0.3" fill="#091426" enable-background="new    " d="M1262.4,615.5c1.8,6.6,3.4,13.2,4.9,19.8
			c0.3,0.9,0.6,1.7,0.9,2.5c4.8,14.5,7.9,29.3,10,44.4c1,7.6,2.1,15.2,3,22.8c0.8,5.8,2.6,12.5,2.3,18.7c0,0.1,0,0.3,0.1,0.4
			c1.2,8.2,2.4,16.4,3.1,24.7c1,3.7,2.3,7.4,3.6,11.1c-0.1-1.4-0.1-2.9-0.2-4.3c-8.2-41.4-10.7-83.8-20.4-124.7
			c-1.7-6.3-3.5-12.5-5.4-18.7c-9.2-30-21.2-59.1-36.9-86.3c-8-13.8-16.6-27.3-25.5-40.4c-4.4-6.3-8.8-12.6-13.2-18.9
			c-4-5.6-8.5-11.2-11.9-17.2c-0.3,0.6-0.6,1-1,1.5c24.3,32.8,47.3,66.2,64,103.6C1248.8,574.3,1256.6,594.6,1262.4,615.5z"/>
		<path opacity="0.3" fill="#091426" enable-background="new    " d="M1201.9,485.4c9,13.2,17.6,26.6,25.5,40.4
			c15.7,27.2,27.6,56.3,36.9,86.3c1.9,6.2,3.7,12.5,5.4,18.7c-0.8-3.2-1.6-6.6-2.5-9.8c-11.2-41.9-30.2-81.6-53.1-118.4
			c-11.5-18.5-23.7-36.8-37.3-53.8c-0.1,0.2-0.2,0.3-0.2,0.5c3.4,6,7.9,11.6,11.9,17.2C1193.1,472.8,1197.6,479.1,1201.9,485.4z"/>
		<path opacity="0.3" fill="#091426" enable-background="new    " d="M1283.5,723.7c0.3-6.1-1.5-12.8-2.3-18.7c-1-7.6-2-15.2-3-22.8
			c-2.2-15.2-5.2-29.9-10-44.4c-0.3-0.9-0.6-1.7-0.9-2.5c3.4,16.1,5.9,32.3,7.9,48.7c2.8,21.9,5.4,43.6,11.6,64.7
			c-0.9-8.3-1.9-16.5-3.1-24.7C1283.5,724,1283.5,723.8,1283.5,723.7z"/>
		<path opacity="0.3" fill="#091426" enable-background="new    " d="M1270.3,920.3c0.2-1.2,0.4-2.5,0.5-3.6
			c1.2-7.7,2.6-15.4,3.7-23.2c2.8-17.7,4.3-35.5,4.6-53.5c0.7-34.7,1.1-69.5-0.8-104.1c-0.6-5.5-1.1-11.1-1.7-16.5
			c-0.5-4.4-1-8.8-1.3-13.1c-0.2-1.8-0.3-3.5-0.2-5.1c-0.8-5.8-1.6-11.6-2.4-17.4c-0.7-5.2-1.5-10.4-2.4-15.5
			c-0.3-1.1-0.6-2.3-1-3.3c-0.1-0.4-0.8-0.4-0.9,0c-0.1-0.4-0.2-0.8-0.3-1.1c-0.3-0.9-1.5-1.1-2.1-0.5c-0.5-1.1-1.1-2.5-2.3-4
			c-5.7-8-17.2-30.9-20.6-50.5c-3.3-19.6-8.6-60.5-22.9-80.8s-32.8-51.9-64.3-75.8c0,0,4.3,3.1,8,1c-8.6-4.8-20.1-20-50.2-33.7
			c-39.1-17.8-78.3-34.6-109-41.3l6.3-5.6c0,0-20.8-5.5-66.3-9.3c-45.6-3.8-106.1,9-124.8,30.2l21,28c0,0,7.4,1.4-14.1,10.3
			c-21.5,8.9-61.2,34.3-78.6,44.3s-36.1,32.8-52.9,56.4c-16.8,23.6-16.4,35.5-13.6,30.7c2.8-4.8,10.5-21.2,28.9-44.3
			c18.4-23.2,44.3-42.4,44.3-42.4S730,503.4,718.4,518c-11.6,14.6-27.2,34.3-38.9,55.7c-11.7,21.4-22.4,56.7-22.4,56.7
			c5-11,17.7-47.6,39.8-77.2c22.1-29.5,34.8-53.7,69.6-81.8c34.8-28.1,81.6-45.6,97.4-54.1c15.8-8.6,57.1-22.7,64.3-27.8
			s-5.1,1-17.3,5.5c-12.2,4.5-40.7,17.2-54,19.3c-13.3,2-15.4,3,2.5-4.3c18-7.3,46.6-13.6,56.6-20.2s15.1-9.4,3-5.2
			c-12,4.2-11.5,5.9-43.7,14.9c-32.2,8.9-25.5,9.7-22.5,1.8s14.1-9.4,29.7-12.9c15.6-3.4,36.1-3.3,38.8-7.1
			c2.7-3.8-41.9,1.4-41.9,1.4s2.7-4.8,16-8.3c13.3-3.5,19.7-2,25.9,1c6.2,3,13.6,8.3,17.2,7.3c3.6-1,1.7-4.9,0-8.3
			c-1.7-3.4-2.7-5,5.2-4s13.5,5.7,13.5,5.7s-9.1,1.4-11.4,3.6c-2.4,2.2,3,2.3,10.5,0c7.4-2.3,19.1-2.8,20.8-2.7
			c1.7,0.1-0.5,1.9-6.9,3c-6.4,1.1-6.3,4.6,1.9,2.7c8.2-1.9,30.9-1.3,66.6,10.8c35.7,12.1,72.1,31.6,87.1,42.6
			c14.9,11,44.4,33,63.1,56.4c2.1,2.7,4.2,5.3,6.3,8c6.8,8.1,13,16.6,18.3,25.6c2.2,3.7,4.2,7.6,6,11.5c4.9,9.5,8.6,19.2,10.4,28.8
			c4.8,25.2,5.7,40.1,12.9,59.6c7.1,19.2,18.7,36.2,20.6,40.2c-0.3,0.2-0.5,0.4-0.7,0.7c0.5-0.3,0.7-0.5,0.7-0.5s-0.6,28.2-5.9,65.9
			c-5.2,37.3-11.1,70.3-11.1,70.3c-0.3,0.5,10.5,14.2,18.7,29.8c2.1,4.1,3.8,8.8,5,13.7c4-29,3.7-58.5,3-87.6
			c-0.4-15.7-0.9-31.4-1.6-47.3c-0.4-8.2-0.8-16.4-1.2-24.6c-0.2-2.9-0.2-5.8-0.3-8.8c0.7,4.8,1.4,9.5,2,14.3
			c1.1,9.4,2.1,18.9,2.8,28.3c1.4,18.7,1.9,37.4,2.1,56.1c0.2,29.7,0.9,60-1.7,89.8c-4.5,21.9-6.9,44.3-10,66.5
			c-0.8,4.2-1.4,8.4-1.8,12.5c-2,12.8-4.4,25.4-7.6,38c-4.8,18.1-10.6,36.1-17,53.7c-3.2,8.8-6.7,17.3-10.9,25.6
			c-2.1,4.2-4.8,8.2-7.3,12.2c1.6-0.6,3.6-2.2,5.7-5.1c1-1.3,2.4-3.3,4.3-6c2.1-4.2,4-8.5,5.8-12.8c1.6-3.8,3.1-7.6,4.6-11.5
			c4.6-15.5,10.6-30.7,15.2-46.2c2.2-7.3,4.3-14.7,6.2-22c0.4-1.7,0.8-3.5,1-5.2C1266.5,950.9,1268.3,935.6,1270.3,920.3z
			 M1265.4,731.3c0-0.1,0-0.2,0.1-0.4C1265.5,731,1265.5,731.2,1265.4,731.3L1265.4,731.3z"/>
		<path opacity="0.3" fill="#091426" enable-background="new    " d="M1195.3,500.4c9.2,12,17.8,24.5,24.3,37.1
			c-1.8-3.9-3.8-7.7-6-11.5C1208.3,517.1,1202.1,508.5,1195.3,500.4z"/>
		<path opacity="0.3" fill="#091426" enable-background="new    " d="M1275.1,701.2c-0.1,1.6,0.1,3.3,0.2,5.1
			c0.4,4.4,0.9,8.8,1.3,13.1c0.6,5.5,1.1,11.1,1.7,16.5c-0.2-3-0.3-6-0.6-9.1c-0.7-10.4-1.5-20.8-2.9-31.1
			c-1.1-9.1-2.3-18.7-4.7-27.6c1,5.1,1.7,10.3,2.4,15.5C1273.5,689.6,1274.3,695.4,1275.1,701.2z"/>
		<path opacity="0.3" fill="#091426" enable-background="new    " d="M1241,1039.6c3.7-9.7,7.1-19.5,10.4-29.4
			c4.3-12.9,8.3-25.7,11.1-39c-1.9,7.4-4,14.8-6.2,22C1251.6,1008.9,1245.6,1024.1,1241,1039.6z"/>
		<path opacity="0.3" fill="#091426" enable-background="new    " d="M1221.6,1029.8c5.1-7.8,8.7-16.7,12.3-25.3
			c5.3-12.6,10.1-25.3,14.3-38.4c5.8-17.8,11-36.3,14.3-54.9c0.6-1,1.1-1.9,1.7-3c1.3-2.2,1-4.4-0.2-5.9c0.2-1.3,0.4-2.8,0.6-4.1
			c-10.4,20.7-43.2,57.8-69.1,77.2c0,0,15.6,11.3,22.6,35.6C1220,1017.7,1221,1024,1221.6,1029.8z M1255.9,922.7
			c-0.1,0.3-0.1,0.6-0.2,0.9c-0.1,0-0.1-0.1-0.2-0.1C1255.6,923.2,1255.8,922.9,1255.9,922.7z"/>
	</g>
</g>
</svg>
