
<svg version="1.1" id="Layer_1" xmlns="http://www.w3.org/2000/svg" xmlns:xlink="http://www.w3.org/1999/xlink" x="0px" y="0px"
	 viewBox="0 0 2000 2000" enable-background="new 0 0 2000 2000" xml:space="preserve">
<g>
	<path fill="#EED897" d="M1368.5,779c-22.6-43.3-32.7-82.2-38.1-129.3c-8.5-74.3-44-144.1-109.9-194.4c-68.1-51.8-152.3-72-241.9-72
		c-85.9,0-189.3-8.3-230.2,71.5c-1.1,1.9-1.1,3.6-1.1,5.5c-0.5,6,3.2,11.5,11.8,11.5c2.2,0.4,4.3,0.4,6.5-0.4
		c166.9-8.3,230.2,162.6,283.3,267.8c54.8,108.9,207.6,193.4,346.6,155.1c5.4-1.4,10.2-6,9.6-11.1
		C1402.9,846.5,1386.2,812.7,1368.5,779z"/>
</g>
</svg>
