
<svg version="1.1" id="Layer_1" xmlns="http://www.w3.org/2000/svg" xmlns:xlink="http://www.w3.org/1999/xlink" x="0px" y="0px"
	 viewBox="0 0 2000 2000" enable-background="new 0 0 2000 2000" xml:space="preserve">
<g>
	<path fill="#9F592A" d="M602.5,860.5c-10.2,82.2-7.2,169.8,8.4,214.8c25.3,73,106.6,103.5,121.8,110.7
		c15.3,7.2,47.4,19.7,47.4,19.7s85.6-50.9,99.2-62s87.8-60.4,98.3-72.8s8.8-19.7,8.8-19.7s-63.3,3.2-102.3,1
		c-39.1-2.3-105.1-22.4-151-47.4c-46-25-92.4-82.3-105.2-98.6S602.5,860.5,602.5,860.5z"/>
	<path fill="#9F592A" d="M1158.9,1165c-13.9-10-44.4-41.7-44.4-41.7s-1.8-30.6-1.1-45.1c0,0-7.6,24-9.4,34.1c0,0-16-15.4-33.2-31
		s-24.9-25.8-28.6-30.3s3.2-12.1,6.2-15.6c3-3.5,59-10.6,110.5-42.3s68.1-42.8,89.2-70.4c21.1-27.6,23.9-34.5,23.9-34.5
		s4.2,19.7-4.8,67.9s-32.8,81.3-37,91.4s-33.2,54.3-43.1,72.5C1177.2,1138.1,1158.9,1165,1158.9,1165z"/>
	<path fill="#9F592A" d="M932.8,1166.2c-15.5,17.6-61.7,66.2-83.9,101.6c0,0,9.3,21.8,9.5,34.2c0.2,12.3-2.3,16,1.7,14.4
		c4-1.6,23.8-37.5,41-63.5c17.3-26,21.8-47.1,21.8-47.1s-2.3,14.8-5.7,28.3s-7.8,19.7-1.4,15.3c6.4-4.4,14.4-32.3,19.7-50.8
		c5.2-18.4,6.6-22.2,6.6-22.2s2.1,10.7,1.2,21.2c-0.9,10.5-2.5,44.1-2.5,44.1s10.5-43.3,13.4-64.2s5.4-41.2,5.4-41.2
		S948.3,1148.6,932.8,1166.2z"/>
	<g>
		<defs>
			<path id="SVGID_1_" d="M932.8,1166.2c-15.5,17.6-61.7,66.2-83.9,101.6c0,0,9.3,21.8,9.5,34.2c0.2,12.3-2.3,16,1.7,14.4
				c4-1.6,23.8-37.5,41-63.5c17.3-26,21.8-47.1,21.8-47.1s-2.3,14.8-5.7,28.3s-7.8,19.7-1.4,15.3c6.4-4.4,14.4-32.3,19.7-50.8
				c5.2-18.4,6.6-22.2,6.6-22.2s2.1,10.7,1.2,21.2c-0.9,10.5-2.5,44.1-2.5,44.1s10.5-43.3,13.4-64.2s5.4-41.2,5.4-41.2
				S948.3,1148.6,932.8,1166.2z"/>
		</defs>
		<clipPath id="SVGID_2_">
			<use xlink:href="#SVGID_1_"  overflow="visible"/>
		</clipPath>
		<path opacity="0.3" clip-path="url(#SVGID_2_)" fill="#091426" enable-background="new    " d="M855.5,1244.3
			c11.2,16.5,18.4,29.7,18.4,29.7s2.2-16.2-0.8-27.9c-3-11.6-3-11.6-3-11.6l-2.6-5.5l5.1-5.7c0,0,4.1,10.7,5.6,17.4
			c1.5,6.7,2.1,14.7,2.1,14.7s1.8-19.2,0.7-27.7c-1.1-8.5-1.2-12.1-1.2-12.1l5.2-6c0,0,0.9,11.5,1.5,25.5
			c0.7,13.9-2.2,30.1-2.2,30.1s6.3-22.2,8.8-39.6c2.4-17.4,4.6-35.1,4.6-35.1l5.8-3.5c0,0-0.7,15.9-1.9,28.8
			c-1.2,12.9-3.1,22.3-3.1,22.3s8.5-24.2,13.9-40.5s7.8-28.2,7.8-28.2l14.6-15.4c0,0,1.3,16.8,1.3,20.2s5-13.5,4.1-23.8
			c-0.8-10.2,8.3-11.4,8.3-11.4l1.9,29.7l11.5-18.1v-34.7l-113.6,115.8L855.5,1244.3z"/>
		<path opacity="0.3" clip-path="url(#SVGID_2_)" fill="#091426" enable-background="new    " d="M922.9,1205.6
			c0.6-10.6,0.3-19.7,0.3-19.7s-9.3,44.2-20.8,65c-11.5,20.8,0,15.7,0,15.7s4.8-11.1,11-30.5
			C919.6,1216.6,922.9,1205.6,922.9,1205.6z"/>
	</g>
	<g>
		<defs>
			<path id="SVGID_3_" d="M602.5,860.5c-10.2,82.2-7.2,169.8,8.4,214.8c25.3,73,106.6,103.5,121.8,110.7
				c15.3,7.2,47.4,19.7,47.4,19.7s85.6-50.9,99.2-62s87.8-60.4,98.3-72.8s8.8-19.7,8.8-19.7s-63.3,3.2-102.3,1
				c-39.1-2.3-105.1-22.4-151-47.4c-46-25-92.4-82.3-105.2-98.6S602.5,860.5,602.5,860.5z"/>
		</defs>
		<clipPath id="SVGID_4_">
			<use xlink:href="#SVGID_3_"  overflow="visible"/>
		</clipPath>
		<path opacity="0.3" clip-path="url(#SVGID_4_)" fill="#091426" enable-background="new    " d="M992.8,1040.5l-3.2,34.1l-55.9,34
			c0,0-0.5-9.3-1.6-19.8c-1.1-10.6-1.4-15.6-2.7-15.3c-1.1,0.3-1.4,4.4-0.2,17.4c1.2,13,1.3,19.3,1.3,19.3l-3.2,2.8
			c0,0-1.6-32.5,0-42.5c1.6-9.9,1.4-14-0.2-12c-1.5,2-1.8,13.9-2.7,34.5c-0.8,20.6-0.2,21.2-0.2,21.2l-26,19.7c0,0,0.5-5.5-1.3-15.6
			c-1.8-10.1-6.5-21.6-8.2-22.2s0.2,4.7,3.6,18.3c3.5,13.6,2.5,20.3,2.5,20.3l-3.8,3.6c0,0-4.2-44.7-6.1-55
			c-1.9-10.3-4-16.3-5.8-17.7c-1.8-1.4-0.8,1.9,1.3,9c2.1,7.1,5,25.1,5.8,47c0.9,21.8-0.9,21.2-0.9,21.2l-13.5,11.5
			c0,0-6.8-24.7-10.4-40.1s-2.4-23.3-3.1-34.7s-1.7-5.2-2,9.3s2.1,23.8,5.4,42.8c3.3,19.1,6.1,22.6,6.1,22.6s-19.7,25.8-24.4,14.4
			c-4.8-11.4-21.6-32.5-29.7-46.7c-8.2-14.1-14.7-26.4-18.4-35.6c-3.7-9.2-5.9-7.1-0.5,4.7c5.5,11.7,11.1,25.9,20.5,38.7
			c9.4,12.9,21.1,34,21.1,34s-30.1-38.3-38.5-52.6s-24.7-34-28.1-44.4s-5.5-13.4-4.4-8.7c1.2,4.7,1.1,14.3,19.3,38.9
			c18.1,24.6,21.3,31.3,34.7,48.8c13.4,17.6,17.8,27.5,17.8,27.5l-28.1,19.7c0,0-48.7-41.7-75.9-63.5
			c-27.3-21.8-52.9-47.4-69.6-73.7c-16.7-26.2-27.9-47.1-35.3-70.9c-7.3-23.8-7.3-47.7-6.5-56.7c0.8-9,1.6-13.4,0.5-11.2
			c-1.1,2.3-3,5.6-3.2,21.7s1.4,32.2,11.9,62.4c10.5,30.2,17.3,42.8,33,65.3c15.7,22.4,36.5,44.7,45.1,50.8
			c8.6,6.1,31.9,28,48.2,39.7s38.4,31.6,45.2,38.9c6.9,7.3,7.3,11.8,0,2.8s-27.7-25.2-39.2-34.4s-24.3-18.4-24.3-18.4
			s22.8,21.6,39.7,34c16.8,12.4,23.9,23.4,23.9,23.4l-2,1c0,0-14.9-13.8-27.9-24.3c-13-10.5-49.9-33.4-68.2-47
			c-18.3-13.6-37.7-30.2-50.2-47.1s-27.5-44-33.8-70.1c-6.3-26.1-6.9-38.5-5.7-53.9c1.1-15.4-0.7-16-1.1-11.9
			c-0.5,4.1-2.1,17-1.8,30.1c0.4,13.1,6.3,41.4,14.6,64.3c8.3,22.9,17.3,37.1,30.1,52c12.9,14.9,44.8,43.1,67.1,58.1
			c22.2,15,42.1,27.1,42.1,27.1s-35.5-18-48.7-24.3c-13.2-6.3-31.7-17.1-45.8-29.3c-14.1-12.2-31.2-34.5-41.7-56.2
			c-10.5-21.7-17.6-50.6-19.4-69.8c-1.7-19.3-2.2-45-2.2-45s-1.9,15.7-1.7,36.3c0.2,20.5,6.4,40.7,14.5,65.3
			c8,24.5,23.1,45.4,23.1,45.4s-4.4-1.7-15.6-20.2c-11.3-18.5-20-51.6-24.3-78.6c-4.2-27,0.1-50.1,0.5-53.9c0.4-3.7-1.4-3.9-4.4,7.1
			c-3,10.9-5.2,23.9-5.2,23.9l-3-46c0,0,7.7-38.3,22.7-67.1L992.8,1040.5z"/>
	</g>
	<g>
		<defs>
			<path id="SVGID_5_" d="M1158.9,1165c-13.9-10-44.4-41.7-44.4-41.7s-1.8-30.6-1.1-45.1c0,0-7.6,24-9.4,34.1c0,0-16-15.4-33.2-31
				s-24.9-25.8-28.6-30.3s3.2-12.1,6.2-15.6c3-3.5,59-10.6,110.5-42.3s68.1-42.8,89.2-70.4c21.1-27.6,23.9-34.5,23.9-34.5
				s4.2,19.7-4.8,67.9s-32.8,81.3-37,91.4s-33.2,54.3-43.1,72.5C1177.2,1138.1,1158.9,1165,1158.9,1165z"/>
		</defs>
		<clipPath id="SVGID_6_">
			<use xlink:href="#SVGID_5_"  overflow="visible"/>
		</clipPath>
		<path opacity="0.3" clip-path="url(#SVGID_6_)" fill="#091426" enable-background="new    " d="M1063.6,1083.4
			c3.3-24.9,5-32.3,10.2-42.7c5.2-10.4,9.2-16.9,6.2-9.3c-3,7.5-13.4,37.4-11.6,52.9c1.7,15.5,9.1,10.7,9.1,10.7s-1.1-0.6,0.5-24.3
			c1.7-23.8,3.4-36.6,5-38.6c1.5-2,0.7,9-1,21.2c-1.6,12.2,0.5,45,0.5,45l15.7,17.6c0,0,0.6-19.5,9.1-40.8
			c8.5-21.4,13.1-30.7,17.4-32.2c4.3-1.3,5.7,1.1,2.2,6.7c-3.5,5.5-7.9,23.8-10.2,31.7c-2.2,7.8-6,30.5-6,30.5l-0.2,21.5l8.6,3.1
			c0,0-1.9-9.7,0.8-38c2.7-28.3,10.7-46.9,15.6-60.6c4.9-13.6,5.7-19.7,7.3-19.7c1.6-0.1,1.7,0.1-3.1,13.5
			c-4.7,13.5-12.1,41.6-14.6,60.6c-2.6,19-2.4,47.5-2.4,47.5l21,21.3c0,0-0.6-10.3,7.4-33.6c8-23.2,21.6-50.2,31.8-74.1
			c10.2-23.9,13.3-42.4,14.1-47.4c0.9-5.1,2.8,1.8,0.7,12.7c-2.1,10.9-4,25.1-14.3,46.7c-10.3,21.7-19.1,45.6-19.1,45.6
			s9-18.8,18.4-39.4c9.4-20.7,13-32.4,15.9-44.8s4.9-35.1,4.4-44.8c-0.5-9.7,1.9-4.5,2.1,6.9c0.2,11.3,1.1,30.7-6.9,51.1
			c-8,20.4-9.7,30-22.9,56.8s-21.8,47.6-22.7,57.1c0,0,10.2-26,30.5-55.6c20.3-29.5,38-48.6,44.6-61.3c6.5-12.6,8.7-14.5,7.6-10.3
			c-1,4.1-3.6,10.2-3.6,10.2s13.5-14,20-27.2c6.5-13.2,20.2-40,1.7-25.3c0,0,7.8-20.3,10.7-36.1c2.9-15.7,9.2-19.3,10-24.3
			c0.9-5.1-4.6-6.4-4.6-6.4l5.3-23.4l-3.9-14l-235.6,144.3l-5.1,29.4L1063.6,1083.4z"/>
	</g>
	<path fill="#9F592A" d="M504.5,1080.6c7,15.6,14.8,21.3,45.4,33.4s64.4,16.6,78.7,27.3c14.3,10.7,17.8,10.7,18.6,22.6
		s1.1,13.3-2.9,21.5s2.5,2.6,5.8-4c3.3-6.6,8.4-17.1,2-29.6c-6.4-12.6-27.8-26.8-39.4-43.8s-19-49-20.6-72.7
		c-1.6-23.7,6.3-60.9,11.4-84.4c5-23.7,16.9-52,26.3-75.2c9.4-23.2,16.7-56.1,16.5-81.9c-0.3-25.7-6.2-52.2-11.2-67.4
		c-5-15.3-12.8-32.6-12.8-32.6s21.1-3.3,45.6-23.7c24.5-20.3,33.1-26.8,45.1-48.3c12-21.5,17.5-41.1,34.9-62.7
		c17.5-21.7,17.7-24,44.7-47c27-23,54.6-38,74.9-40.5c0,0-16.3,4.1-34,21.1c-17.6,17.1-27.1,30.1-30.4,50.1s1,47.2,8.5,62.7
		c7.5,15.5,20.7,28.8,39.3,32.6c18.5,3.8,46.8-4.5,66-4.2s29.5,2.2,40.5,6.2c11.2,4,13.1,5,15.9,9c3,4,3.5,6.5,4.7,5.3
		c1.1-1.1,1.6-10.1-9.6-16.1c-11.4-6-28.4-5.1-46.3-15c-17.8-9.9-21.2-31.2-19.3-45.9c1.9-14.7,6.5-37.5,25-62.9
		c18.5-25.4,37.6-38.6,37.6-38.6s15.2,6.2,23.3,21.1c8.1,14.9,4.2,36,0.5,45.1c-3.6,9.2-6.1,31.6-2.7,38.9
		c3.4,7.3,11.9,13.8,16.8,15s11.4-1,12.3-1.6c1-0.8-5.5-1.9-13.2-6c-7.5-4.1-8.9-13.4-8.8-17c0.1-3.5,1.5-10.3,12-25.7
		c10.5-15.3,14.5-23.1,16.6-34.9c2.2-11.8-3-29.2-12.7-36.4c0,0,9.2,5,33.1,10.5c23.9,5.5,31.7,5.4,40.3,7.2
		c8.6,1.7,49,10.6,77.6,23.8c28.4,13.3,72.2,36.3,90.5,57.1c0,0,8.1,18.2,10.3,49.7c2.3,31.5,0.3,51.1-1.6,76
		c-1.9,24.9-9.1,62.4-10.8,77.7c-1.7,15.3-1.9,20.9-1,24.4c1,3.5,5.6,4.5,14.5,22.5c8.8,18,13.2,29.5,10.6,48.4
		c-2.7,18.9-5.3,26.3-5.3,26.3s1.6,9.3-0.4,24.8c-2,15.6-5.4,33-19.2,66.7s-17.4,43.8-30.1,78.9c-12.7,35.1-10.2,61.3-4.4,79.4
		c5.8,18.1,13.6,28,23.5,32.6s22.1,7.3,28.6,4.7c6.5-2.6-2.9-2.2-13.9-5.2c-11.2-3-22.4-17.4-25-34.1c-2.6-16.7,2.9-31.1,14.6-46.3
		c11.8-15.2,17.6-25,43.2-41.7c25.6-16.7,53.8-39.9,64-53.6c10.2-13.7,26.3-30.6,30.6-59.2c4.3-28.6-8.1-62-15.2-78.9
		c-7.1-16.9-21.7-48.3-36.6-69c-15-20.7-29-47.2-38.3-67.1c0,0,5.7,4.9,15.8,3.6c10-1.2,9.1-6.5,5.5-6.3c-3.5,0.2-5.9,3-15.5-3
		s-11.4-12.8-11.4-25.8c-0.2-13,6.4-34.4,14.5-56.6c8.1-22.1,7.9-42.5,6.5-61.3c-1.4-18.8-8.9-54.4-15.6-69.4
		c-6.8-15-21.7-26.6-21.7-26.6s0.2-16.4-15.5-41.9c-15.6-25.5-38.9-35.3-65.1-37.1c-26.1-1.8-37.4-0.7-66,12.8
		c-28.6,13.5-75.2,31.8-75.2,31.8s34.5-16.3,47-31.5c12.6-15.2,25.6-36.3,24.4-62.9c-1-26.5-17-52.4-35.6-64
		c-18.6-11.6-34.7-23-62.1-25.8c-27.4-2.8-45.6,5-45.6,5s-12-16.7-44.1-17.5c-32.1-0.8-55.9,4.8-98.2,24.3
		c-42.3,19.6-73.4,56.2-73.4,56.2s14.1,9.8,24.1,19c10,9.2,16.6,16.6,16.6,16.6s-18.2,14.1-44.5,38.3s-59.7,60.4-79.7,91.5
		c-19.9,31.1-30.7,60.2-39.6,72.9c-8.9,12.7-17.6,20.1-17.6,20.1s-15.2,5.2-28-0.5c-12.8-5.6-21.6-15.7-22.1-30.6
		c-0.6-14.9,3.5-21.8,9.3-28.9c5.7-7.2,7.7-5.8,10.1-4.7c2.4,1.1,4.1,3.4,4.5,0.9c0.4-2.6-4.1-10.3-15.5-2.5s-21.1,23.7-24.1,34
		s-2.3,28.9,4.9,45.8c7.1,16.8,21.9,24.6,21.9,24.6s-12.6,2.7-24.8,19.8c-12.2,17.2-15.2,36.9-13.9,48.7c1.1,11.7,4.2,24.9,8.7,31.8
		c4.5,6.9,6.8,3.6,5-2.3c-1.8-6-3.5-19.7,2.9-26.9c0,0,3,18.3,6.2,37.6c3.2,19.3,5.8,43.1,7.8,65.1c2,21.9,3.5,34,3.5,34l-15,52.6
		c0,0-12.9,23-30.8,46.5c-17.8,23.6-23.4,43-30.8,67.3C490.3,1029,504.5,1080.6,504.5,1080.6z"/>
	<g>
		<defs>
			<path id="SVGID_7_" d="M504.5,1080.6c7,15.6,14.8,21.3,45.4,33.4s64.4,16.6,78.7,27.3c14.3,10.7,17.8,10.7,18.6,22.6
				s1.1,13.3-2.9,21.5s2.5,2.6,5.8-4c3.3-6.6,8.4-17.1,2-29.6c-6.4-12.6-27.8-26.8-39.4-43.8s-19-49-20.6-72.7
				c-1.6-23.7,6.3-60.9,11.4-84.4c5-23.7,16.9-52,26.3-75.2c9.4-23.2,16.7-56.1,16.5-81.9c-0.3-25.7-6.2-52.2-11.2-67.4
				c-5-15.3-12.8-32.6-12.8-32.6s21.1-3.3,45.6-23.7c24.5-20.3,33.1-26.8,45.1-48.3c12-21.5,17.5-41.1,34.9-62.7
				c17.5-21.7,17.7-24,44.7-47c27-23,54.6-38,74.9-40.5c0,0-16.3,4.1-34,21.1c-17.6,17.1-27.1,30.1-30.4,50.1s1,47.2,8.5,62.7
				c7.5,15.5,20.7,28.8,39.3,32.6c18.5,3.8,46.8-4.5,66-4.2s29.5,2.2,40.5,6.2c11.2,4,13.1,5,15.9,9c3,4,3.5,6.5,4.7,5.3
				c1.1-1.1,1.6-10.1-9.6-16.1c-11.4-6-28.4-5.1-46.3-15c-17.8-9.9-21.2-31.2-19.3-45.9c1.9-14.7,6.5-37.5,25-62.9
				c18.5-25.4,37.6-38.6,37.6-38.6s15.2,6.2,23.3,21.1c8.1,14.9,4.2,36,0.5,45.1c-3.6,9.2-6.1,31.6-2.7,38.9
				c3.4,7.3,11.9,13.8,16.8,15s11.4-1,12.3-1.6c1-0.8-5.5-1.9-13.2-6c-7.5-4.1-8.9-13.4-8.8-17c0.1-3.5,1.5-10.3,12-25.7
				c10.5-15.3,14.5-23.1,16.6-34.9c2.2-11.8-3-29.2-12.7-36.4c0,0,9.2,5,33.1,10.5c23.9,5.5,31.7,5.4,40.3,7.2
				c8.6,1.7,49,10.6,77.6,23.8c28.4,13.3,72.2,36.3,90.5,57.1c0,0,8.1,18.2,10.3,49.7c2.3,31.5,0.3,51.1-1.6,76
				c-1.9,24.9-9.1,62.4-10.8,77.7c-1.7,15.3-1.9,20.9-1,24.4c1,3.5,5.6,4.5,14.5,22.5c8.8,18,13.2,29.5,10.6,48.4
				c-2.7,18.9-5.3,26.3-5.3,26.3s1.6,9.3-0.4,24.8c-2,15.6-5.4,33-19.2,66.7s-17.4,43.8-30.1,78.9c-12.7,35.1-10.2,61.3-4.4,79.4
				c5.8,18.1,13.6,28,23.5,32.6s22.1,7.3,28.6,4.7c6.5-2.6-2.9-2.2-13.9-5.2c-11.2-3-22.4-17.4-25-34.1
				c-2.6-16.7,2.9-31.1,14.6-46.3c11.8-15.2,17.6-25,43.2-41.7c25.6-16.7,53.8-39.9,64-53.6c10.2-13.7,26.3-30.6,30.6-59.2
				c4.3-28.6-8.1-62-15.2-78.9c-7.1-16.9-21.7-48.3-36.6-69c-15-20.7-29-47.2-38.3-67.1c0,0,5.7,4.9,15.8,3.6
				c10-1.2,9.1-6.5,5.5-6.3c-3.5,0.2-5.9,3-15.5-3s-11.4-12.8-11.4-25.8c-0.2-13,6.4-34.4,14.5-56.6c8.1-22.1,7.9-42.5,6.5-61.3
				c-1.4-18.8-8.9-54.4-15.6-69.4c-6.8-15-21.7-26.6-21.7-26.6s0.2-16.4-15.5-41.9c-15.6-25.5-38.9-35.3-65.1-37.1
				c-26.1-1.8-37.4-0.7-66,12.8c-28.6,13.5-75.2,31.8-75.2,31.8s34.5-16.3,47-31.5c12.6-15.2,25.6-36.3,24.4-62.9
				c-1-26.5-17-52.4-35.6-64c-18.6-11.6-34.7-23-62.1-25.8c-27.4-2.8-45.6,5-45.6,5s-12-16.7-44.1-17.5
				c-32.1-0.8-55.9,4.8-98.2,24.3c-42.3,19.6-73.4,56.2-73.4,56.2s14.1,9.8,24.1,19c10,9.2,16.6,16.6,16.6,16.6
				s-18.2,14.1-44.5,38.3s-59.7,60.4-79.7,91.5c-19.9,31.1-30.7,60.2-39.6,72.9c-8.9,12.7-17.6,20.1-17.6,20.1s-15.2,5.2-28-0.5
				c-12.8-5.6-21.6-15.7-22.1-30.6c-0.6-14.9,3.5-21.8,9.3-28.9c5.7-7.2,7.7-5.8,10.1-4.7c2.4,1.1,4.1,3.4,4.5,0.9
				c0.4-2.6-4.1-10.3-15.5-2.5s-21.1,23.7-24.1,34s-2.3,28.9,4.9,45.8c7.1,16.8,21.9,24.6,21.9,24.6s-12.6,2.7-24.8,19.8
				c-12.2,17.2-15.2,36.9-13.9,48.7c1.1,11.7,4.2,24.9,8.7,31.8c4.5,6.9,6.8,3.6,5-2.3c-1.8-6-3.5-19.7,2.9-26.9
				c0,0,3,18.3,6.2,37.6c3.2,19.3,5.8,43.1,7.8,65.1c2,21.9,3.5,34,3.5,34l-15,52.6c0,0-12.9,23-30.8,46.5
				c-17.8,23.6-23.4,43-30.8,67.3C490.3,1029,504.5,1080.6,504.5,1080.6z"/>
		</defs>
		<clipPath id="SVGID_8_">
			<use xlink:href="#SVGID_7_"  overflow="visible"/>
		</clipPath>
		<path opacity="0.35" clip-path="url(#SVGID_8_)" fill="#E8FFFA" enable-background="new    " d="M962,273.3
			c5.4,2.2,14.6,8.2,21.5,17.6c6.9,9.3,12.9,18.1,16.4,28.9c3.5,10.8,6.8,20.2,6.9,33.5c0,6.2-0.3,11.4-0.8,16.4
			c-0.6,5.6-1.2,11-2,16.7c0,0.1,0,0.2,0,0.2c0,0.2,0,0.4-0.1,0.5c0,0.2-0.1,0.5-0.1,0.7s-0.1,0.4-0.1,0.6c-1.3,8.3-3.1,15.6-5,21.8
			c-2.9,10.9-5.9,21.6-6.9,24.3v0.1c0,0.1-0.1,0.1-0.1,0.2v0.1v0.1c-1.5,3.9-3.4,7.6-5.3,11l0,0c1.3-1,5.9-7.3,10.2-14.8
			c3.2-7.1,6.1-15.6,9.5-26.9c7.9-27,7.5-52.7,3.4-71.8c-2.5-7.1-5.7-15.5-8.6-21.3c-1.7-3.5-4.5-8.9-7.4-14.1
			c-4.7-6.4-10.4-13.1-17.1-19.5c-5.6-3.8-12-7.3-15.6-8.3C957.5,268.2,956.6,271.1,962,273.3z"/>
		<path opacity="0.35" clip-path="url(#SVGID_8_)" fill="#E8FFFA" enable-background="new    " d="M844.3,474.5
			c0.7,0.1,1.2,0.3,2,0.3c8.3-3.6,16.1-6.3,22.6-7.6c-5.2,0.6-10.5,1.5-15.6,2.7C847.3,472.3,843.3,474.3,844.3,474.5z"/>
		<path opacity="0.35" clip-path="url(#SVGID_8_)" fill="#E8FFFA" enable-background="new    " d="M935.8,496.2
			c-5.7,6.3-13,14.5-16.3,20.3c-4.7,8.1-9.7,16.8-13.1,27.2c-3.3,10.4-0.8,21.6-0.8,21.6s7.5-14.9,17.4-39.3
			c9.8-24.5,13.2-26.2,23.1-35.2c2.7-2.5,4.9-4.3,6.6-5.8c-2.7,1.2-5.2,2.7-7.7,4.3C941.7,491.4,938.7,493.7,935.8,496.2z"/>
		<path opacity="0.35" clip-path="url(#SVGID_8_)" fill="#E8FFFA" enable-background="new    " d="M942.9,483.4
			c-3.4,2.3-6.8,4.9-9.9,7.6c-3.1,2.8-6,5.7-9,8.8c-2.9,3.1-5.7,6.1-8.5,9.3c-2.8,3.1-5.5,6.3-8.2,9.4c-2.2,2.6-4.2,5.2-6.3,7.9
			c-3.1,5.4-4.6,9.8-7.6,16.4c-4.8,10.3-3.7,17.3-4.3,31.4c-0.6,14.1,0.6,18.9,6,30.6c5.5,11.7,13.6,16.8,21.7,21.2
			c3.4,1.8,7.1,3.2,10.1,4.3c6.1-0.2,11.9,0,17.4,0.4l-8.6-8.3c0,0-23.2-8.4-29.2-22.8c-6-14.4-7.5-13.1-7.4-26.7v-0.1
			c-0.5-3-0.5-5.9-0.3-8.9c0.4-6.2,1.6-12.1,3-18c1.4-6,3.7-11.7,6.5-17.2c5.6-10.9,13-20.7,21.8-29.2c1.4-1.3,2.9-2.7,4.4-3.9
			c3.4-3.7,6.3-6.6,8.1-8c5.8-4.7,4-3.1-1,2.5l0,0c1-0.7,1.9-1.2,2.9-1.8c3.6-2.3,7.4-4.2,11.4-5.6c0.4-0.3,0.8-0.6,1-0.9
			c-2-1-4.4-1.7-7-2.4C947.4,480.6,945.1,481.9,942.9,483.4z"/>
		<path opacity="0.35" clip-path="url(#SVGID_8_)" fill="#E8FFFA" enable-background="new    " d="M638.8,754.5
			c0.5,6.1,5.1,13.9,4.9,36.5c-0.2,22.6-2.6,36.2-9.8,56.5c-7.3,20.2-12.5,41.3-24.1,69.5s-13.2,40.5-18.8,73.9
			c-5.5,33.4-4.3,54.3-2.1,68.2c2.2,13.9,7.2,26.5,7.2,26.5s-7.9-9.5-10.3-36.7c-2.4-27.2-2.4-34.6,1.1-60.4
			c3.5-25.8,7.7-44.3,7.7-44.3l0,0c-0.4,1.3-0.8,2.7-1.1,3.9c-2,7.3-4.3,14.4-6,21.7c-1.7,7.3-3.1,14.7-4,22
			c-0.8,5.7-1.2,11.4-1.5,17.1c-0.5,14.9,0.3,28.4,0.5,38.9c0.1,1.4,0.2,2.8,0.3,4.2c1.7,16.3,10.9,41,19.1,51.1
			c0.5,0.6,1,1.1,1.4,1.7c8.7,9.5,31.1,28.8,42,38.3c1.9,0.8,3.6,1.5,5.2,2.2c-0.7-8.3-19.7-49.7-19.7-49.7l20.7-264.1l4-71.1
			l-11.5,3.4C639.9,749.5,638.3,748.4,638.8,754.5z"/>
		<path opacity="0.35" clip-path="url(#SVGID_8_)" fill="#E8FFFA" enable-background="new    " d="M1100.4,401.7
			c10-12.8,9.9-17.3,19.8-33.9c9.9-16.6,3.5-7.8,2.9-37.7c-0.7-29.9-24.5-35.8-40.5-46.3c-16-10.5-25-6-25.2-2.5l0,0
			c1.2,1.3,2.4,2.7,3.6,4.1c4.1,2.8,10.5,5.8,13.2,8.4c4.1,4,2.1,3.3,7.3,13.5c5.2,10.1,6.4,17.6,8.3,40.2
			c2,22.7-5.9,35.5-14.5,51.8c-6.1,11.7-13.3,16.9-16.8,19c-0.2,0.2-0.4,0.5-0.6,0.7c-4.1,4.4-8.3,8.6-12.8,12.6
			c-4.5,3.9-9.2,7.7-13.9,11.2c-4.9,3.4-9.9,6.7-15.1,9.5c-5.2,2.9-10.6,5.4-16.1,7.8c-5.4,2.4-11.1,4.5-16.7,6.5
			c-4.5,1.5-9,3-13.5,4.2c-0.8,0.8-1.5,1.5-2.2,2.2c4.4-1,8.9-1.6,13.3-2.2c5.4-0.8,10.9-1.7,16.3-2.9c5.3-1.1,10.7-2.7,15.9-4.4
			c5.2-1.7,10.4-3.7,15.6-5.8c3.8-1.5,7.5-3.1,11.3-4.8c9.6-6.1,26-16.4,35.7-22.9C1087,422.2,1090.4,414.5,1100.4,401.7z"/>
		<path opacity="0.35" clip-path="url(#SVGID_8_)" fill="#E8FFFA" enable-background="new    " d="M986,461.5c2.6-1,5-2.4,7.4-3.5
			c2.4-1.3,4.9-2.6,7.3-4c4.8-2.7,9.4-5.7,13.9-9c4.2-3,8.1-6.3,11.8-9.7c0-3.1-5.2,0.6-13.2,7.2c-8.8,7.3-12.4,7.5-14.6,5.5
			c-2.2-2,5.7-9.7,9.8-15.1c4.1-5.3,14.8-17.2,18.7-28.4c3.9-11.3,7-16.2,6.3-17.4c-0.4-0.7-1,0.2-4.6,6.2c-2,6.2-4.5,12.2-7.6,17.7
			c-7.3,13.3-31.8,39.4-47,55.1C978.3,464.7,982.2,463.2,986,461.5z"/>
		<path opacity="0.35" clip-path="url(#SVGID_8_)" fill="#E8FFFA" enable-background="new    " d="M1028.8,436
			c-4.1,3.8-8.3,7.5-12.9,10.8c-4.5,3.3-9.2,6.4-14,9.2s-9.8,5.3-15,7.5c-3,1.2-5.9,2.5-8.9,3.5c7.3-2.4,14.5-5.2,21.6-8.2
			c5.4-2.4,10.8-5,15.9-7.8c5.2-2.9,10.1-6.1,14.9-9.6s9.3-7.3,13.7-11.3c4.4-4,8.5-8.2,12.5-12.5c0.4-0.5,0.8-1,1.1-1.3
			c2.4-5.1,7.6-15.6,13.6-23.2c8.1-10.3,11.2-24.6,11.4-39.4c0-1.1,0-2.3,0-3.3c-0.6-12.2-5.4-10.9-7.4-6.7
			c-2.2,4.6-0.8,7.8-5.7,16.9s-2.7,17-14.6,41.2c-5.6,11.3-12.1,19.6-17.6,25.2l-1.2,1.5c-0.5,0.6-1,1-1.4,1.6c-1,1-1.8,2.1-2.9,3.1
			L1028.8,436z"/>
		<path opacity="0.35" clip-path="url(#SVGID_8_)" fill="#E8FFFA" enable-background="new    " d="M1262.2,531
			c6.2,5.1,12,10.6,17.1,16.9s9.2,13.2,13,20.1c1,1.7,1.8,3.5,2.8,5.2l1.2,2.8c0.2,0.5,0.5,0.9,0.7,1.3l0.6,1.4
			c1.5,3.7,2.7,7.6,3.4,11.5c0.8,3.9,1.2,7.9,1.3,11.9c0.1,4-0.2,8-1,11.9l-1-0.2c1-6.5,0.7-13.1-0.5-19.5
			c0.8,9.7-0.2,20.7-4.1,30.3c-0.3,1.2-0.5,2.4-0.8,3.5c-0.3,1.4-0.7,2.9-1,4.3c-0.1,1.6-0.4,2.6-0.9,3.1
			c-3.3,11.6-7.8,22.8-10.5,34.4c-0.9,3.5-1.5,7-2,10.5c-0.1,0.9-0.2,1.8-0.3,2.7c-0.1,0.9-0.2,1.8-0.2,2.7l-0.1,2.7
			c0,0.5,0,0.9,0,1.3v1.3l0.1,2.7c0.1,0.9,0.2,1.8,0.3,2.7c0.1,1.8,0.5,3.5,0.9,5.2c0.1,0.5,0.2,0.9,0.3,1.3l0.4,1.2l0.7,2.6
			c0.5,1.7,1,3.4,1,5.4c-1-1.6-1.7-3.2-2.3-5l-0.8-2.7l-0.4-1.3c-0.1-0.5-0.2-0.9-0.3-1.3c0-0.1,0-0.2-0.1-0.3
			c1,5.5,2.7,10.7,5.2,15c1.3,2,2.9,3.9,4.5,5.6c1,1.1,2.3,2.3,3.4,3.3c14.2,10.4,25.9,10.6,25.9,10.6l-4-247.9
			c0,0-25.6-16.4-48.4-25.6l-7.9-56c0,0-37.6-6.8-64.7-4.6c-1,0.1-2.1,0.2-3.1,0.3v0.3c-3.4,0.3-6.9,0.8-10.3,1.2
			c-23.2,4.4-46.4,14.4-57.9,19.1c-6.1,2.5-17.5,7.8-28.2,13c-5.7,2.9-11.5,5.8-17.4,8.6c-2.9,1.4-5.8,2.8-8.8,4.1
			c-0.2,0.1-0.4,0.2-0.4,0.2c12.4,0.9,22.3-7.7,44.8-13.1c22.5-5.3,46.9-13,73.7-8.8c26.8,4.2,36.3,9.3,38.4,12.9
			c2.1,3.6,1.1,0.6-23.2,3.1c-24.4,2.5-37.2,6-59.3,13.1c-20.3,6.4-17.7,9.3-8.5,7.4c1-0.2,2-0.5,3-0.7c8.6-2.4,22.9-9,46.4-11.9
			c1.9-0.4,3.9-0.8,5.8-1c5.7-1,11.5-1.5,17.5-1.6c1.4-0.1,3,0,4.4,0.1c1.4,0.1,3,0.2,4.4,0.3c3,0.4,5.8,0.9,8.7,1.4
			c5.7,1,11.4,2.6,16.9,4.5c1.8,0.7,3.6,1.3,5.3,2.1c3.6,1.5,7.1,3.3,10.4,5.3c3.8,2.3,7.5,4.9,11.1,7.6c1,0.9,2.1,1.6,3.1,2.5
			l-0.6,0.8c-4.7-3.4-9.4-6.6-14.5-9.3c-5.1-2.8-10.2-5.2-15.6-6.9c-3.1-1-6.2-1.8-9.3-2.6c-13.5-1.7-27.3-2.2-38.4-1.7
			c-6.6,1-13.2,2.3-19.7,3.7c-5.6,1.3-11.2,2.8-16.8,4.3c-1,0.3-2,0.6-3.1,0.9c-5.6,2.1-9.2,3.8-9.2,3.8c15.6-1.1,32.7-5.2,49.3-3.8
			c16.5,1.4,17.5,3.9,10.5,5.4c-6.5,1.4-36.6,7.3-46.3,10.9c9.2-1.4,18.2-3,27.4-4.5c10-1.7,20.2-3.4,30.5-4.5l3.9-0.4l3.9-0.2
			c1.3-0.1,2.7-0.1,4-0.1c1.3,0,2.7-0.1,4,0c5.3,0.1,10.8,0.7,16,1.9c1.3,0.3,2.6,0.6,3.9,1c1.3,0.3,2.6,0.7,3.8,1
			c2.6,0.8,5,1.6,7.4,2.5c4.9,1.8,9.5,3.7,14.2,5.8l-3.2,8.8c-9.8-2.9-19.3-6.6-28.5-9c-9.3-2.5-19-3.1-29-3c-2.7,0-5.3,0.1-8.1,0.2
			c6.6,0.6,13.1,1.6,19.1,3.4c31.2,9.3,38.1,18.7,45.1,27.7c7.1,9,10.3,19.5,7.9,22.2c-2.4,2.8-9.7-3.1-27.9-15
			c-18.1-11.7-47.1-19.8-53.1-20.8c-2.7-0.5-3.4,0.4-2.2,1.8c1,0.4,2.1,0.8,3.2,1.1c1.9,0.7,3.7,1.2,5.6,1.8
			c1.9,0.6,3.8,1.2,5.7,1.9c3.8,1.3,7.4,2.8,11.2,4.4c3.6,1.6,7.3,3.3,10.8,5.2c3.5,1.8,7,3.9,10.4,6c3.4,2.1,6.7,4.4,9.9,6.7
			C1256,526.1,1259.1,528.5,1262.2,531z"/>
		<path opacity="0.35" clip-path="url(#SVGID_8_)" fill="#E8FFFA" enable-background="new    " d="M1385.1,854l-96-123.8
			c-5.4-10.1-9.1-12.8-10.7-10.7c-1.5,2.2,10.7,19.3,21.2,41.5c10.6,22.2,16.3,26.3,32.8,58.4c16.5,32.1,25.8,49.2,28.8,66.9
			c3.1,17.6,0,27.7,0,27.7s-1.1-6.8-2.9-15.1c-0.3-1.3-0.7-2.8-1-4.1c-1.2-4.9-2.7-9.6-4.2-14.5c-1-3.3-2.1-6.6-3.3-9.7
			c-4.9-9-8.1-7.3-4.3-0.6c4,7,12.2,32.4,11.4,46.6c-0.9,14.1-10.3,46.9-10.3,46.9s6.5-24.4,3.1-52s-8.8-38.7-11.3-39.9
			c-2.5-1.1,2.6,3.9,5,18.3c2.4,14.4,7,45.3-4.5,75.2c-11.4,29.9-29.9,49.1-40,59.7c-0.1,0.1-0.2,0.2-0.2,0.2
			c-3.2,3.5-6.5,7-9.8,10.3c-2.5,2.5-5.1,5-7.6,7.4c-2.6,2.4-5.2,4.8-7.8,7.2c-5.2,4.8-10.3,9.5-15.1,14.7c-2.4,2.6-4.7,5.2-7,7.8
			c-1.4,1.8-2.9,3.7-4.3,5.6c-2.2,4.8-2.2,8.6,2.7,8.3c0.5-0.9,1-1.7,1.4-2.5c1-1.5,2.2-3.1,3.3-4.6c1.1-1.5,2.4-3,3.5-4.4
			c4.9-5.7,10-11.2,15.3-16.4c5.3-5.2,10.7-10.3,16.1-15.4c2.8-2.6,5.8-5,8.8-7.2c3-2.2,5.8-4.4,8.6-6.9c2.7-2.4,5.2-5.1,7.8-7.7
			c2.5-2.8,4.9-5.4,7.3-8.3c4.7-5.7,9.3-11.5,13.5-17.6c4.3-6,8.5-12.1,12.3-18.4c3.8-6.3,7.5-12.8,10.4-19.7
			c-1.1,3.5-2.6,7-4.1,10.4c-1.5,3.3-3.1,6.8-5,10c-3.5,6.6-7.3,13-11.4,19.2c-4.1,6.2-8.5,12.3-13.1,18.1c-2.3,3-4.7,5.8-7.2,8.7
			c-2.5,2.8-5.2,5.5-7.9,8.1c-2.8,2.6-5.7,5-8.7,7.3s-5.7,4.5-8.4,7c-5.3,5.2-10.8,10.2-16.1,15.4c-5.2,5.2-10.5,10.4-15.4,15.9
			c-2,2.3-3.9,4.6-5.7,7c22.9-10.9,99.2-62.7,99.2-62.7l40.3-77.3L1385.1,854z"/>
		<path opacity="0.35" clip-path="url(#SVGID_8_)" fill="#E8FFFA" enable-background="new    " d="M1015.1,496.7
			c-2.6-8-8.8-15.4-15.1-19.6c-2.1-1-4.2-1.7-6.4-2.5c-2.3-0.8-4.7-1.3-7.1-1.9c-0.7,0.1-1.3,0.2-2,0.3h-0.1l-6.2,1
			c2.2,0.4,4.3,1,6.4,1.6c11,0.9,16.4,7.4,20.5,12.9c4.2,5.6,6.6,13.2,8.2,15.2c1.3,1.6,3.6,2.5,2.9-2.4
			C1015.9,499.8,1015.5,498.3,1015.1,496.7z"/>
		<path opacity="0.35" clip-path="url(#SVGID_8_)" fill="#E8FFFA" enable-background="new    " d="M1003.7,476.6
			c3.1,1.6,5.8,4,7.8,6.9c0.4,0.6,0.9,1.2,1.2,1.8l0,0c0.8-3.4,0.6-4.2-5.9-9c-4.3-3.1-8.2-4.8-10.4-5.5c-1.2,0.3-2.5,0.6-3.8,0.8
			c5.2,0.5,7,1.3,10.4,4.6C1003.2,476.4,1003.4,476.5,1003.7,476.6z"/>
		<path opacity="0.35" clip-path="url(#SVGID_8_)" fill="#E8FFFA" enable-background="new    " d="M917.6,265.5c0,0-5.5,0.1-4.2,2.4
			c1.3,2.3,13.1,1,27.4,8.2s19.7,12.2,31.2,25.2c11.4,13,17,22.7,20.9,40.3c4.2,18.6,4.3,29.6,4.3,38.7s-2.1,21.2-4.3,33.1
			c-2.1,11.9-5.3,14.6-7.3,20c-1.9,5.3-5.2,13.9-9.3,21.8s-2.7,8.6,1.1,1.4c3.8-7.2,14.2-23.9,16.7-31.5c0.1-0.2,0.1-0.5,0.2-0.7
			c0.2-0.6,0.4-1.2,0.6-1.8c4-12.7,8.5-28.4,9.8-46.4c0.4-15.8-2-34.8-4-41.3c-2.7-8.3-8-24.1-19.1-35.3
			c-11-11.3-16.5-16.7-31.9-23.9s-23.3-11.6-31.2-12.2c-7.9-0.6-8.9,0-8.9,0C906.5,264.6,917.6,265.5,917.6,265.5z"/>
		<path opacity="0.35" clip-path="url(#SVGID_8_)" fill="#E8FFFA" enable-background="new    " d="M978.6,438
			c-1.8,7.5-4.5,15.6-7.2,23.2c1.2-1,5.6-7.9,8.5-18.3c3.3-12.3,8-12.8,11.4-32.7c3.1-19.8,3.8-50.1-6.8-66.8
			c-6.1-9.7-14.3-21.8-27.2-32.7c-4.4-2.4-7.7-3.7-9.3-3.3c-1.8,0.5,0.8,2.8,3,4.5c2.3,1.7,8.6,7.6,11.5,13.5
			c3,5.9,8,11.4,10.5,17.1c2.5,5.7,6.3,14.1,8.6,25.4c2,10,2.7,25.6,1.3,37.7C982.5,418.8,980.5,430.4,978.6,438z"/>
		<path opacity="0.35" clip-path="url(#SVGID_8_)" fill="#E8FFFA" enable-background="new    " d="M993.5,482
			c-2.6-1.8-5.4-3.1-8.4-4.3s-6-1.9-9.2-2.5c-1-0.2-1.9-0.3-2.9-0.4c-0.4,0.1-0.7,0.1-1,0.2c9.2,4.9,9,4.5,10.1,6.3
			c0.8,1.2,5.3,4.8,9.2,9.8c5.8,5.9,9,13.3,9.7,21.5c0.1,0.9,0.1,1.6,0.2,2.5c0.6,2.5,0.8,5.4,0.4,9.7c-1.2,12.5-4.6,17.7,0.9,13.7
			c0.5-0.4,1-0.8,1.3-1.2c1.7-4.7,3.2-9.4,4.6-14.2c0.6-1.9,1-3.8,1.2-5.7c0.1-1.3,0.2-2.8,0.3-4.1c0.2-9.3-3.1-18.4-9.3-25.2
			C998.6,485.7,996.1,483.7,993.5,482z"/>
		<path opacity="0.35" clip-path="url(#SVGID_8_)" fill="#E8FFFA" enable-background="new    " d="M968.1,460.4
			c-0.9,1.4-2.1,3.9-3,5c-1.5,1.8,1.6-4.1,6-12.8c2.2-6,4.3-12.3,5.9-18.5c3.1-12,4.3-24.1,4.1-35.5c-0.7,0.4-1.5,2.1-1.8,4.4
			c0,0-1.3-0.2-1.6,5.4s-1.1,10.1-3.8,19c-2.8,8.9-7.3,21.3-7.3,21.3s-0.2-13.5-1.5-16.3c-1.3-2.8-2-0.3-2.1,4.1
			c-0.1,1.9-0.4,5-0.7,8.4c1,11.7,1,21.8,0.6,28.2C964.4,469.4,966.2,465.1,968.1,460.4z"/>
		<path opacity="0.35" clip-path="url(#SVGID_8_)" fill="#E8FFFA" enable-background="new    " d="M955.5,459.5c0,0,1.1,1,1.9-2.3
			s-4.7-13.9-9.1-21.1c-0.8-1-1.5-2.2-2.3-3.1c-5.6-7-16.8-16.1-28.7-21.8c-13.7-6.6-17.3-4.3-14.2-2.4c3.1,1.9,8.1,2.4,16.5,9.4
			c8.3,7.2,14.6,14.3,17.2,21.2c2.6,6.9-1.8,2.9-9,0s-17.8-6.8-26-9.2c-6.4-1.8-9.7-1-9.7,0.2c3.8,1.1,7.6,2.4,11.4,3.6
			c1,0.4,2.2,0.7,3.2,1.1c1,0.4,2.2,0.8,3.2,1.2l3.2,1.3l3.1,1.5c4.1,2.1,8.2,4.3,12.1,6.7c3.9,2.4,7.8,4.9,11.5,7.5
			c3.8,2.7,7.4,5.3,11.1,8.2c2.6,2.1,5.2,4.3,7.5,6.7c-0.1-0.9-0.3-1.8-0.7-2.9C956.8,461.9,955.5,459.5,955.5,459.5z"/>
		<path opacity="0.35" clip-path="url(#SVGID_8_)" fill="#E8FFFA" enable-background="new    " d="M939.1,455
			c-3.8-2.5-7.7-4.9-11.6-7.2c-3.9-2.3-8-4.4-12.1-6.4l-3.1-1.4l-3.1-1.2c-1-0.5-2.1-0.8-3.1-1.1c-1-0.4-2.2-0.7-3.2-1
			c-4.4-1.3-8.8-2.7-13.2-3.9c-8.8-2.4-17.7-3.9-26.8-4.1c-9.1-0.4-18.1,0.4-27.1,1.7c-4.5,0.7-8.9,1.5-13.3,2.7l-3,0.9
			c-5,3.1-5.6,5.9-3.1,5.6c3.2-0.4,7.6-4.2,22-6.8c14.4-2.6,21.3-3.2,44.4,3.5s35.1,14.2,40.5,18.4c5.5,4.2-1.3,4.2-11.5,4.5
			c-10.2,0.3-16.5-0.6-30.3,1.8c-4.4,0.8-10.1,2.4-15.6,4.3c5.4-0.7,10.9-1,16.3-1.1c10.5-0.3,20.9,0.2,31.3,1.2
			c5.2,0.7,10.4,1.3,15.6,2.4c5.2,1,10.3,2.2,15.2,4.3l0,0c2.2,0.6,4.3,1.1,6.5,1.8c1.7,0.6,3.3,1.1,4.9,1.7c1-0.6,1.5-1.5,2-2.2
			c0.6-0.9,1.1-2,1.3-3.4c-2.6-2.5-5.5-4.8-8.4-7C946.7,460.1,943,457.5,939.1,455z"/>
		<path opacity="0.35" clip-path="url(#SVGID_8_)" fill="#E8FFFA" enable-background="new    " d="M891.5,526.8
			c-0.6,3.6,3.4-4.7,16.1-18.1c9.7-10.3,20.6-16.7,25.1-19.1c3.1-2.6,6.2-4.9,9.4-7.1c2-1.2,4-2.5,6.1-3.5c-3-0.7-6.2-1.2-9.5-1.7
			c-7.2,1.5-14,4-20.6,7.1c-4.5,2-8.8,4.5-12.9,7.3l-3.1,2.1c-1,0.8-1.9,1.5-2.9,2.3l-1.4,1.1l-1.3,1.2c-0.9,0.9-1.8,1.6-2.7,2.5
			c-1.6,1.8-3.4,3.5-4.9,5.4l-1.1,1.4c-0.4,0.5-0.8,1-1,1.4l-2.1,3c-0.2,0.2-0.3,0.5-0.4,0.7c0.2,0.4,0.7,0.3,1.4-0.3
			c2.1-1.8,8.3-10.4,19.7-17.6c11.4-7.2,28.1-9.8,28.1-9.8s-11.1,5.7-21.3,14.9S892.1,523.1,891.5,526.8z"/>
		<path opacity="0.35" clip-path="url(#SVGID_8_)" fill="#E8FFFA" enable-background="new    " d="M881.8,549.6
			c-2.3,9.2-1.9,10.7-0.9,9.9c1-0.7,0.7-1.1,1.7-6.8c1-5.7,3.9-15.1,3.9-15.1C886.3,537.5,884.1,540.6,881.8,549.6z"/>
	</g>
	<g>
		<defs>
			<path id="SVGID_9_" d="M504.5,1080.6c7,15.6,14.8,21.3,45.4,33.4s64.4,16.6,78.7,27.3c14.3,10.7,17.8,10.7,18.6,22.6
				s1.1,13.3-2.9,21.5s2.5,2.6,5.8-4c3.3-6.6,8.4-17.1,2-29.6c-6.4-12.6-27.8-26.8-39.4-43.8s-19-49-20.6-72.7
				c-1.6-23.7,6.3-60.9,11.4-84.4c5-23.7,16.9-52,26.3-75.2c9.4-23.2,16.7-56.1,16.5-81.9c-0.3-25.7-6.2-52.2-11.2-67.4
				c-5-15.3-12.8-32.6-12.8-32.6s21.1-3.3,45.6-23.7c24.5-20.3,33.1-26.8,45.1-48.3c12-21.5,17.5-41.1,34.9-62.7
				c17.5-21.7,17.7-24,44.7-47c27-23,54.6-38,74.9-40.5c0,0-16.3,4.1-34,21.1c-17.6,17.1-27.1,30.1-30.4,50.1s1,47.2,8.5,62.7
				c7.5,15.5,20.7,28.8,39.3,32.6c18.5,3.8,46.8-4.5,66-4.2s29.5,2.2,40.5,6.2c11.2,4,13.1,5,15.9,9c3,4,3.5,6.5,4.7,5.3
				c1.1-1.1,1.6-10.1-9.6-16.1c-11.4-6-28.4-5.1-46.3-15c-17.8-9.9-21.2-31.2-19.3-45.9c1.9-14.7,6.5-37.5,25-62.9
				c18.5-25.4,37.6-38.6,37.6-38.6s15.2,6.2,23.3,21.1c8.1,14.9,4.2,36,0.5,45.1c-3.6,9.2-6.1,31.6-2.7,38.9
				c3.4,7.3,11.9,13.8,16.8,15s11.4-1,12.3-1.6c1-0.8-5.5-1.9-13.2-6c-7.5-4.1-8.9-13.4-8.8-17c0.1-3.5,1.5-10.3,12-25.7
				c10.5-15.3,14.5-23.1,16.6-34.9c2.2-11.8-3-29.2-12.7-36.4c0,0,9.2,5,33.1,10.5c23.9,5.5,31.7,5.4,40.3,7.2
				c8.6,1.7,49,10.6,77.6,23.8c28.4,13.3,72.2,36.3,90.5,57.1c0,0,8.1,18.2,10.3,49.7c2.3,31.5,0.3,51.1-1.6,76
				c-1.9,24.9-9.1,62.4-10.8,77.7c-1.7,15.3-1.9,20.9-1,24.4c1,3.5,5.6,4.5,14.5,22.5c8.8,18,13.2,29.5,10.6,48.4
				c-2.7,18.9-5.3,26.3-5.3,26.3s1.6,9.3-0.4,24.8c-2,15.6-5.4,33-19.2,66.7s-17.4,43.8-30.1,78.9c-12.7,35.1-10.2,61.3-4.4,79.4
				c5.8,18.1,13.6,28,23.5,32.6s22.1,7.3,28.6,4.7c6.5-2.6-2.9-2.2-13.9-5.2c-11.2-3-22.4-17.4-25-34.1
				c-2.6-16.7,2.9-31.1,14.6-46.3c11.8-15.2,17.6-25,43.2-41.7c25.6-16.7,53.8-39.9,64-53.6c10.2-13.7,26.3-30.6,30.6-59.2
				c4.3-28.6-8.1-62-15.2-78.9c-7.1-16.9-21.7-48.3-36.6-69c-15-20.7-29-47.2-38.3-67.1c0,0,5.7,4.9,15.8,3.6
				c10-1.2,9.1-6.5,5.5-6.3c-3.5,0.2-5.9,3-15.5-3s-11.4-12.8-11.4-25.8c-0.2-13,6.4-34.4,14.5-56.6c8.1-22.1,7.9-42.5,6.5-61.3
				c-1.4-18.8-8.9-54.4-15.6-69.4c-6.8-15-21.7-26.6-21.7-26.6s0.2-16.4-15.5-41.9c-15.6-25.5-38.9-35.3-65.1-37.1
				c-26.1-1.8-37.4-0.7-66,12.8c-28.6,13.5-75.2,31.8-75.2,31.8s34.5-16.3,47-31.5c12.6-15.2,25.6-36.3,24.4-62.9
				c-1-26.5-17-52.4-35.6-64c-18.6-11.6-34.7-23-62.1-25.8c-27.4-2.8-45.6,5-45.6,5s-12-16.7-44.1-17.5
				c-32.1-0.8-55.9,4.8-98.2,24.3c-42.3,19.6-73.4,56.2-73.4,56.2s14.1,9.8,24.1,19c10,9.2,16.6,16.6,16.6,16.6
				s-18.2,14.1-44.5,38.3s-59.7,60.4-79.7,91.5c-19.9,31.1-30.7,60.2-39.6,72.9c-8.9,12.7-17.6,20.1-17.6,20.1s-15.2,5.2-28-0.5
				c-12.8-5.6-21.6-15.7-22.1-30.6c-0.6-14.9,3.5-21.8,9.3-28.9c5.7-7.2,7.7-5.8,10.1-4.7c2.4,1.1,4.1,3.4,4.5,0.9
				c0.4-2.6-4.1-10.3-15.5-2.5s-21.1,23.7-24.1,34s-2.3,28.9,4.9,45.8c7.1,16.8,21.9,24.6,21.9,24.6s-12.6,2.7-24.8,19.8
				c-12.2,17.2-15.2,36.9-13.9,48.7c1.1,11.7,4.2,24.9,8.7,31.8c4.5,6.9,6.8,3.6,5-2.3c-1.8-6-3.5-19.7,2.9-26.9
				c0,0,3,18.3,6.2,37.6c3.2,19.3,5.8,43.1,7.8,65.1c2,21.9,3.5,34,3.5,34l-15,52.6c0,0-12.9,23-30.8,46.5
				c-17.8,23.6-23.4,43-30.8,67.3C490.3,1029,504.5,1080.6,504.5,1080.6z"/>
		</defs>
		<clipPath id="SVGID_10_">
			<use xlink:href="#SVGID_9_"  overflow="visible"/>
		</clipPath>
		<path opacity="0.3" clip-path="url(#SVGID_10_)" fill="#091426" enable-background="new    " d="M583.4,1059.3
			c0.4,3.7,1.2,7.3,2,11c1,3.6,2,7.2,3.2,10.7c2.2,5.7,4.8,11.3,8,16.4c1.1,1.3,2.2,2.7,3.3,4c0.6,0.7,1.1,1.3,1.8,2
			c-8.1-10.1-17.4-34.8-19.1-51.1C582.8,1054.6,583,1056.9,583.4,1059.3z"/>
		<path opacity="0.3" clip-path="url(#SVGID_10_)" fill="#091426" enable-background="new    " d="M581.9,1009.1
			c-0.5,9.3-0.5,18.5-0.1,27.8c0.1,3.7,0.4,7.4,0.6,11.3C582.2,1037.6,581.5,1024,581.9,1009.1z"/>
		<path opacity="0.3" clip-path="url(#SVGID_10_)" fill="#091426" enable-background="new    " d="M1009.4,332.5
			c-1.6-7.6-3.8-14.1-6.2-19.4c-2.2-4.7-5.5-10.2-9.8-16c3.1,5.2,5.7,10.6,7.4,14.1C1003.7,317,1007.1,325.4,1009.4,332.5z"/>
		<path opacity="0.3" clip-path="url(#SVGID_10_)" fill="#091426" enable-background="new    " d="M986.4,445.9L986.4,445.9
			c-2.4,4.2-4.8,7.8-6.7,10.4c7.5-8.6,12.5-15.6,16.8-25.2C992.3,438.6,987.7,445,986.4,445.9z"/>
		<path opacity="0.3" clip-path="url(#SVGID_10_)" fill="#091426" enable-background="new    " d="M957.3,481.9
			c-0.2-0.1-0.4-0.2-0.5-0.2c-0.3,0.2-0.7,0.5-1,0.9C956.2,482.3,956.7,482.1,957.3,481.9z"/>
		<path opacity="0.3" clip-path="url(#SVGID_10_)" fill="#091426" enable-background="new    " d="M991.8,434.8
			c0,0.1-0.1,0.1-0.1,0.2L991.8,434.8C991.7,434.9,991.8,434.9,991.8,434.8z"/>
		<path opacity="0.3" clip-path="url(#SVGID_10_)" fill="#091426" enable-background="new    " d="M984.5,473
			c-1,0.2-2.1,0.4-3.1,0.5c-1.1,0.2-2.2,0.3-3.3,0.5c0.1,0,0.2,0,0.3,0.1L984.5,473C984.5,473.1,984.5,473.1,984.5,473z"/>
		<path opacity="0.3" clip-path="url(#SVGID_10_)" fill="#091426" enable-background="new    " d="M990.1,472.2
			c4.5,0.9,8.9,2.1,12.9,4.1c-3.4-3.2-5.2-4.1-10.4-4.6C991.7,471.8,990.9,472,990.1,472.2z"/>
		<path opacity="0.3" clip-path="url(#SVGID_10_)" fill="#091426" enable-background="new    " d="M942.4,487.5
			c-1.8,1.4-4.7,4.3-8.1,8c2.3-1.9,4.7-3.8,7.2-5.4l0,0C946.4,484.4,948.2,482.8,942.4,487.5z"/>
		<path opacity="0.3" clip-path="url(#SVGID_10_)" fill="#091426" enable-background="new    " d="M895.2,604.8
			c-5.5-11.7-6.6-16.5-6-30.6s-0.6-21.1,4.3-31.4c3.1-6.6,4.5-11,7.6-16.4c-0.5,0.7-1,1.2-1.4,1.9c-2.5,3.3-4.8,6.9-6.8,10.4
			c-2,3.6-3.9,7.3-5.1,11.2c-2.4,7.8-3,16.2-2.7,24.5c0.4,8.3,1.7,16.5,4.5,24.3c3,7.6,6.9,15.3,13.3,20.4c5.3,4.6,11.5,8,17.8,11.3
			c2.2-0.1,4.3-0.2,6.4-0.3c-3.1-1-6.7-2.5-10.1-4.3C908.8,621.6,900.6,616.6,895.2,604.8z"/>
		<path opacity="0.3" clip-path="url(#SVGID_10_)" fill="#091426" enable-background="new    " d="M1015.1,496.7
			c-0.3-1-0.7-2.1-1-3.1c-0.6-1.5-1.2-3.1-1.9-4.6c-0.8-1.5-1.5-3-2.5-4.2c-1-1.3-1.9-2.5-3.1-3.5c-0.6-0.6-1.2-1-1.8-1.5
			c-0.7-0.5-1.3-1-2-1.3c-0.9-0.5-1.8-1-2.7-1.3C1006.3,481.3,1012.4,488.7,1015.1,496.7z"/>
		<path opacity="0.3" clip-path="url(#SVGID_10_)" fill="#091426" enable-background="new    " d="M1137.9,462.6
			c5.6-1.4,11.1-3,16.6-4.6c5.5-1.6,11.2-3.1,16.8-4.5c3.7-0.9,7.5-1.7,11.3-2.5c-23.5,3-37.9,9.6-46.4,11.9
			C1136.7,462.9,1137.3,462.8,1137.9,462.6z"/>
		<path opacity="0.3" clip-path="url(#SVGID_10_)" fill="#091426" enable-background="new    " d="M1218.6,452.1
			c-1.4-0.2-2.8-0.4-4.2-0.5c-1.4-0.1-2.9-0.2-4.2-0.2c-1.4,0-2.9-0.1-4.3,0c-4.8,0.1-9.5,0.6-14.2,1.2c11.2-0.6,25,0,38.4,1.7
			c-2.4-0.6-4.8-1-7.3-1.4C1221.4,452.5,1220,452.3,1218.6,452.1z"/>
		<path opacity="0.3" clip-path="url(#SVGID_10_)" fill="#091426" enable-background="new    " d="M1299.9,594.6
			c-0.2-1.2-0.5-2.6-0.8-3.8c-0.9-3.8-2.1-7.5-3.7-11.1l-0.6-1.3c-0.2-0.5-0.5-0.9-0.7-1.3l-1.3-2.6l-2.9-5.2
			c-1.7-3.1-3.5-6.1-5.4-9.1c0.9,1.4,1.6,2.8,2.4,4.3c3.3,6.5,6.3,13.2,8,20.3c0.9,3.5,1.5,7.2,2,10.8l0.3,2.8l0.2,2.8
			c0.1,1,0.1,1.8,0.2,2.8c0,1,0.1,1.8,0.1,2.8c0,3.7-0.3,7.3-0.7,11c-0.3,2.5-0.7,4.9-1.1,7.3
			C1299.7,615.2,1300.5,604.3,1299.9,594.6z"/>
		<path opacity="0.3" clip-path="url(#SVGID_10_)" fill="#091426" enable-background="new    " d="M1076,388.5l0.9-2
			c0.3-0.7,0.6-1.3,0.8-2c0.5-1.3,1-2.8,1.4-4.1l1.1-4.2c0.3-1.4,0.6-2.9,0.9-4.3c1-5.7,1.5-11.6,1.5-17.5c0-0.3,0-0.5,0-0.8
			c-0.2,14.8-3.2,29.1-11.4,39.4c-6,7.6-11.3,18.1-13.6,23.2c3.4-4,6.8-8.2,9.7-12.5C1070.8,398.9,1073.7,393.9,1076,388.5z"/>
		<path opacity="0.3" clip-path="url(#SVGID_10_)" fill="#091426" enable-background="new    " d="M991.9,434.6L991.9,434.6
			L991.9,434.6z"/>
		<path opacity="0.3" clip-path="url(#SVGID_10_)" fill="#091426" enable-background="new    " d="M1179.9,404.3
			c-4.7,0.7-9.3,1.4-13.8,2.3c-8,1.6-15.9,3.6-23.6,6.3c-1.9,0.6-3.8,1.4-5.7,2.2c-1.9,0.8-3.7,1.6-5.5,2.5l-11,5.4l-21.8,11.1
			c-1.5,0.8-3.1,1.5-4.6,2.3c10.8-5.2,22.1-10.4,28.2-13C1133.6,418.7,1156.8,408.7,1179.9,404.3z"/>
		<path opacity="0.3" clip-path="url(#SVGID_10_)" fill="#091426" enable-background="new    " d="M603.2,1105.1
			c3.1,3.5,6.1,7,9.3,10.4c0.6,0.6,1.1,1.1,1.7,1.6c5.4,5.2,11,10.2,16.4,15.5c2.8,2.7,5.5,5.3,8.2,8.1c2.3,0.9,4.4,1.7,6.4,2.6
			C634.3,1133.9,611.9,1114.5,603.2,1105.1z"/>
		<path opacity="0.3" clip-path="url(#SVGID_10_)" fill="#091426" enable-background="new    " d="M994.9,422.6
			c-0.2,0.7-0.4,1.2-0.6,1.8C994.6,423.8,994.8,423.1,994.9,422.6z"/>
		<path opacity="0.3" clip-path="url(#SVGID_10_)" fill="#091426" enable-background="new    " d="M636.4,1139.8
			c-2.2-2.2-4.4-4.3-6.6-6.4c-3-2.9-6-5.6-9.1-8.4c3.9,4.5,7.8,8.9,11.7,13.4C633.7,1138.8,635.1,1139.3,636.4,1139.8z"/>
		<path opacity="0.3" clip-path="url(#SVGID_10_)" fill="#091426" enable-background="new    " d="M822.3,606.6
			c-5.2-8.2-8.9-17.3-11.4-26.5c-0.1-0.3-0.2-0.6-0.2-0.9c-0.4,19.5,6.3,34.3,26.6,47.1c6.1,3.8,11,6.2,15.6,7.6
			c-3.8-1.7-7.5-3.7-11-6.2C834,622.3,827.4,614.8,822.3,606.6z"/>
		<path opacity="0.3" clip-path="url(#SVGID_10_)" fill="#091426" enable-background="new    " d="M1266.7,702.6
			c0,0.3,0.1,0.5,0.2,0.8c0-0.4-0.1-0.7-0.1-1C1266.7,702.4,1266.7,702.5,1266.7,702.6z"/>
		<path opacity="0.3" clip-path="url(#SVGID_10_)" fill="#091426" enable-background="new    " d="M982.2,481.3
			c-1.1-1.8-1-1.4-10.1-6.3c-2.2,0.4-4.4,0.9-6.5,1.4c-0.5,1.2-1,2.4-1.4,3.4c0.9,0.6,1.6,1.1,2.2,1.7l1-2.7
			c10.6,2.4,18.5,6.7,23.9,12.1C987.5,486.1,982.8,482.6,982.2,481.3z"/>
		<path opacity="0.3" clip-path="url(#SVGID_10_)" fill="#091426" enable-background="new    " d="M1009.9,513.3
			c-0.1,1.3-0.2,2.8-0.3,4.1C1009.7,516.1,1009.9,514.6,1009.9,513.3z"/>
		<path opacity="0.3" clip-path="url(#SVGID_10_)" fill="#091426" enable-background="new    " d="M965.1,465.5c0.9-1,2.1-3.5,3-5
			c1-2.5,2-5.2,3-7.8C966.7,461.4,963.7,467.3,965.1,465.5z"/>
		<path opacity="0.3" clip-path="url(#SVGID_10_)" fill="#091426" enable-background="new    " d="M957.4,457.2
			c-0.8,3.2-1.9,2.3-1.9,2.3s1.2,2.3,2.7,5.9c0.4,1,0.6,2,0.7,2.9c0.4,0.4,0.7,0.7,1,1c0-1.8,0-3.9,0-6.2
			c-1.4-7.6-4.2-14.9-8.1-21.6c-1-1.9-2.3-3.7-3.4-5.4C952.7,443.3,958,454.1,957.4,457.2z"/>
		<path opacity="0.3" clip-path="url(#SVGID_10_)" fill="#091426" enable-background="new    " d="M955.4,475.4
			c1.7,0.7,3.3,1.3,4.7,2.1c0.1-0.1,0.1-0.1,0.2-0.2c-0.2-1.6-0.3-3.7-0.3-6.4c-0.4-0.4-0.8-0.8-1.1-1c-0.2,1.4-0.8,2.6-1.3,3.4
			C956.9,473.9,956.3,474.9,955.4,475.4z"/>
		<path opacity="0.3" clip-path="url(#SVGID_10_)" fill="#091426" enable-background="new    " d="M1154.7,478.5
			c0.5-0.3,1.1-0.5,1.9-0.8c-1,0.2-1.9,0.3-2.9,0.5l-7.5,1.1l-7.5,1l-15.2,2.1c-10.1,1.3-20.2,2.7-30.3,3.7
			c-5.1,0.5-10.1,0.8-15.2,0.8s-10.2-0.1-15.3-0.3c-5.1-0.3-10.1-0.7-15.3-1.2c-5.1-0.5-10.1-1.1-15.2-2l-0.2,1
			c10.1,1.4,20.2,2.6,30.4,3.1c5.1,0.3,10.2,0.5,15.3,0.5c5.2,0,10.2-0.2,15.4-0.6c10.2-0.9,20.3-1.8,30.4-3
			c10.1-1,20.2-2.3,30.4-3.3c10.1-1,20.3-1.9,30.4-2.7c7.4-0.6,14.9-1.1,22.2-1.4C1178.8,474.9,1149.3,481.2,1154.7,478.5z"/>
		<path opacity="0.3" clip-path="url(#SVGID_10_)" fill="#091426" enable-background="new    " d="M1243.9,480.1
			c9.3,2.4,18.7,6.1,28.5,9l3.2-8.8c-4.7-2.1-9.3-4-14.2-5.8c-2.5-0.9-4.9-1.7-7.4-2.5c-1.2-0.4-2.5-0.8-3.8-1
			c-1.3-0.3-2.6-0.7-3.9-1c-5.2-1.1-10.7-1.7-16-1.9c-1.3-0.1-2.7,0-4,0c-1.3,0-2.7,0-4,0.1l-3.9,0.2l-3.9,0.4
			c-10.4,1-20.5,2.8-30.5,4.5c-9.2,1.5-18.2,3.1-27.4,4.5c-0.8,0.3-1.4,0.6-1.9,0.8c-5.3,2.8,24.2-3.7,52.2-1.2
			c2.7-0.1,5.4-0.2,8.1-0.2C1224.9,477,1234.6,477.6,1243.9,480.1z"/>
		<path opacity="0.3" clip-path="url(#SVGID_10_)" fill="#091426" enable-background="new    " d="M1191.7,452.6
			c4.8-0.7,9.5-1.1,14.2-1.2c1.4-0.1,2.9,0,4.3,0c1.4,0,2.9,0.2,4.2,0.2c1.4,0.2,2.8,0.3,4.2,0.5c1.4,0.2,2.9,0.5,4.2,0.7
			c2.5,0.4,4.9,1,7.3,1.4c3.9,0.5,7.8,1.1,11.6,1.8c-9.3-3.6-21.1-6.4-35.1-6.4c-9,0-16.9,0.6-24,1.4c-3.8,0.8-7.5,1.5-11.3,2.5
			c-5.6,1.3-11.3,2.9-16.8,4.5c-5.5,1.6-11.1,3.1-16.6,4.6c-0.6,0.1-1.1,0.3-1.6,0.4c-0.2,0-0.3,0.1-0.5,0.1
			c-0.9,0.2-1.7,0.4-2.6,0.6c-9.6,2.3-19.4,4.2-29.1,5.7c-11.4,1.7-22.8,2.9-34.3,3.3c-5.7,0.2-11.4,0.4-17.3,0.4
			c-5.7,0-11.5,0-17.3-0.1c-5.7-0.2-11.4-0.4-17.1-1.3c-2.8-0.5-5.4-1.1-8.1-2.1c-1.3-0.5-2.6-1-3.9-1.5c1.3-0.4,2.7-0.8,3.9-1.1
			c3-0.1,5.8-0.6,8.7-1.1c4-0.9,8-1.9,11.9-3.1c7.8-2.4,15.5-5.2,23.2-8.1c3.8-1.4,7.6-3,11.4-4.6c0.8-0.4,1.6-0.8,2.4-1
			c2.1-1,13.7-6.8,26-12.6c1.5-0.8,3.1-1.5,4.6-2.3l21.8-11.1l11-5.4c1.8-0.9,3.7-1.7,5.5-2.5c1.9-0.8,3.7-1.5,5.7-2.2
			c7.7-2.7,15.6-4.7,23.6-6.3c4.6-0.9,9.2-1.7,13.8-2.3c3.4-0.7,6.9-1.1,10.3-1.5l-0.1-0.7c-8.2,0.7-16.3,1.8-24.3,3.3
			c-8,1.5-16,3.4-23.9,6.1c-2,0.6-3.8,1.4-5.8,2.2c-1.9,0.8-3.8,1.6-5.6,2.5l-11,5.4l-21.8,11c-7.3,3.6-14.6,7.3-21.9,10.8
			c-3.7,1.7-7.3,3.4-11.1,5.1c-3.7,1.6-7.4,3.1-11.4,4.5c-7.6,2.9-15.3,5.6-23.1,8c-3.6,1.1-7.3,2.1-11.1,3c3.5-1.3,7-2.7,10.4-4.1
			c10.3-4.3,20.3-9.2,30.2-14.2c5-2.6,9.8-5.2,14.7-7.9c4.8-2.8,9.5-5.7,14.1-8.9l-0.6-0.8c-4.6,3.1-9.4,5.7-14.3,8.4
			c-4.9,2.7-9.8,5.2-14.8,7.5c-6.3,3.1-12.6,6-19.1,8.8c-1.8,1.1-3.3,2.1-4.6,2.9c-7.8,5-32.4,11.4-48.4,15.5s-20.2,2.1-20.2,2.1
			s-2.1,0,2.7-4.6c4.8-4.6,12.5-11.5,25.8-28.7c13.3-17.1,23.7-30.3,23.7-30.3c4.7-7.7,7.8-12.9,9.8-16.4c5.2-15.8,7.3-33,7.5-47.7
			c0.5-20.3-12.3-47.4-36.3-60.6c-8.8-4.9-14.7-7.9-18.6-10c0.7,0.1,1.4,0.1,2.1,0.2c2.2,0.2,4.3,0.5,6.4,1
			c4.2,0.8,8.3,2.2,12.1,4.2c7.7,4.2,15.4,8.8,22.1,14.2c1.7,1.3,3.3,2.9,5,4.3c1.5,1.5,3.1,3.1,4.5,4.7c2.9,3.2,5.2,6.9,7.3,10.8
			c2,3.8,3.8,7.9,5.3,12c0.8,2.1,1.5,4.2,2.2,6.3c0.4,1,0.8,2.1,1.2,3.1c0.5,1,1,2,1.8,3c0.3-1.2,0.3-2.4,0.1-3.5
			c-0.1-1.1-0.4-2.3-0.7-3.3c-0.7-2.2-1.3-4.3-2.1-6.4c-1.5-4.2-3.2-8.4-5.3-12.5c-2-4-4.6-7.9-7.5-11.4c-3-3.4-6.3-6.6-9.8-9.3
			c-7.2-5.6-14.9-10-22.9-14.2c-4.1-2-8.4-3.5-12.9-4.2c-2.2-0.4-4.5-0.6-6.8-0.6c-1.1,0-2.3,0.1-3.4,0.2c-0.6,0.1-1,0.1-1.6,0.2
			c-4.3-2.1-5-2.3-5-2.3l1.6-26.5c0,0-72.7-3.4-40,7.1c15.5,5,29.6,14.9,41,25.9c2.3,1.5,4.4,3.1,6.2,4.7c3.4,2.9,7.3,8.8,10.9,14.8
			c4.3,5.8,7.6,11.4,9.8,16c2.5,5.2,4.7,11.7,6.2,19.4c0.8,2.2,1.4,4.3,2,6.1c2.3,7.5,3.1,26.7,2,45c-1,18.3-6.6,24.8-11.1,35.9
			c-1.5,3.8-3.6,7.9-5.9,11.7c-4.4,9.4-9.3,16.6-16.8,25.2c1.9-2.6,4.3-6.2,6.6-10.4c-2,1.5,3.8-7.5,5.3-11c0-0.1,0.1-0.1,0.1-0.2
			c0-0.1,0.1-0.1,0.1-0.2v-0.1c1-2.8,4.1-13.4,6.9-24.3c-1.4,4.9-2.8,9-3.8,12.3c-0.2,0.7-0.4,1.2-0.6,1.8c-0.1,0.2-0.1,0.4-0.2,0.5
			v0.1c-0.5,1.3-0.9,2.7-1.2,3.9l-0.6,1.6c-5.2,15.7-16.7,29.7-16.8,29.8l0.4,0.3c-2.2,2.4-4.5,4.9-7.1,7.5c0.9-2.3,1.8-4.7,2.7-7.1
			c-0.2,0.2-0.4,0.2-0.3,0c0.2-1.3,6.9-22.1,1.6-11.7c-0.6,1.1-1.1,2.2-1.6,3.2c-1,2.7-2,5.2-3,7.8c0.9-1.3,1.3-1.8,1,0.5
			c-0.8,4.9-3.4,7.9-6.5,13.3c-3,5.4-0.9-6.5-1.1-15c-0.2-4.8,0.2-10,0.7-14.4c-0.2-2.2-0.4-4.4-0.7-6.7
			c-4.2-38.2-13.5-55.5-32.6-70.8c-19.2-15.3-51-35.4-84.4-30.7c-33.4,4.7-38.6,17.9-48.7,15.3c-10-2.7,8.8-17.2,26.9-28.6
			c18.1-11.4,62.5-28.8,99-11.6c36.5,17.2,46.6,32.4,53,50.7c3.6,10,6,22.7,6.3,36.5c0.4-0.3,0.8,0,0.9,0.8
			c0.3,2.1-1.8,23.1,0.4,10.6c0.3-1.4,0.5-3,0.7-4.6c1-27.3-4.2-61.2-29.9-80.2c-38.1-28.3-86.3-34.6-143.9,0
			c0,0-12.8,9.3-16.2,11.1c-3.4,1.7-8.8-4.7,18.1-25.3c26.9-20.6,64.8-32.9,104.7-21.9c17.8,4.9,31.2,12.7,41.6,21.5
			c2.1,1.1,4.4,2.5,7,4c7.9,4.8,13.2,16.3,20.5,26.9c7.3,10.5,8.7,30.6,8.7,30.6s1.1,17.6-2.2,37.8v0.1c-0.2,1-0.3,1.9-0.5,2.9
			c-3.4,19.7,6.5-13.5,3.5-44.4c-3-30.8-27.3-65-74.2-81.9s-90.6,7.4-109.9,19.3c-19.3,11.8-21.8,17-27.5,16.4
			c-5.6-0.6-0.8-11.5,20.5-24.8c12.9-8,42.6-22.5,64-32.7c30.1-7.9,48.2-6.3,71.4,3.6c28.9,12.4,45.2,25.4,54.8,43.5
			c8.6,16.3,11.6,26.9,11.5,53.8c0,3.4-0.2,6.9-0.4,10.1c-0.1,3.7-0.3,7.3-0.8,10.4c0-0.1,0-0.2,0-0.2c0.7-5.8,1.4-11.1,2-16.7
			c0-1.1,0.1-2.4,0.1-3.6c0.1-27.5-3.3-38.5-11.6-54.3c-9.6-18.3-26.1-31.5-55.2-44c-22.1-9.5-39.8-11.4-67.4-4.9
			c11.5-5.4,19.7-9.3,19.7-9.3l-95.9,26.8L741.9,334l28.6,53.4c19.9-11.3,36-19.9,49.6-26.3c-6.6,4.2-13,8.6-19.2,13.4
			c-5.5,4.2-10.8,9-16,13.5c-5.2,4.6-10.6,9.1-15.7,13.8c-5.2,4.8-10.1,9.6-14.9,14.9c-4.7,5.2-9.2,10.6-13.5,16.1l-3.1,4.2
			l-1.5,2.1l-1.5,2.2l-3,4.3l-2.9,4.4c-1.9,2.9-3.7,5.9-5.6,8.9c-1,1.5-1.8,3.1-2.7,4.5c-0.9,1.5-1.8,3.1-2.6,4.6
			c-6.9,12.2-12.8,25-17.6,38.1c-5,13.1-8.8,26.5-12.9,39.8c-4.1,13.4-8,26.7-14.1,39.2c-3.1,6.2-6.7,12.1-10.8,17.7
			c-1,1.3-1.9,2.6-3,3.8c-21.9,17.7-32.1,22.2-51,16.6c-11.4-3.3-22.8-10.5-31.8-18.6c2.5,1.4,5.2,2.8,7.9,3.6
			c3.1,1,6.5,1.8,9.8,1.9s6.7-0.2,9.8-0.8c3.2-0.6,6.3-1.3,9.4-2.1c6.2-1.6,12.3-3.8,18-6.6c1.4-0.7,2.9-1.4,4.3-2.2
			c1.4-0.9,2.8-1.6,4.2-2.4c1.3-0.9,2.7-1.7,4-2.7c1.2-1,2.6-1.8,3.8-2.9c5-4,9.5-8.6,13.5-13.5l1.5-1.8l1.4-1.9
			c0.5-0.7,1-1.2,1.4-1.9l1.3-2c1.7-2.7,3.2-5.5,4.7-8.3c3-5.6,5.6-11.4,8.3-17.1c1.3-2.9,2.6-5.8,3.9-8.7c1.2-3,2.6-5.8,3.7-8.8
			l7.1-17.6l6.9-17.6l3.4-8.8c0.6-1.4,1.2-2.9,1.8-4.4l1-2.2l1-2.1c5.2-11.4,11.3-22.5,17.6-33.5c6.4-10.9,13-21.7,19.9-32.2
			l-0.8-0.6c-7.3,10.4-14.1,21-20.7,31.9c-6.6,10.9-12.9,21.8-18.4,33.3l-1,2.2l-1,2.2c-0.7,1.4-1.3,3-1.9,4.4
			c-1.2,3-2.4,5.8-3.6,8.8l-7.1,17.6l-7,17.6c-2.4,5.9-4.8,11.7-7.3,17.5c-2.5,5.8-5.1,11.5-7.8,17.2c-0.7,1.4-1.3,2.9-2.1,4.2
			s-1.4,2.7-2.3,4l-1.2,1.9c-0.4,0.7-1,1.2-1.3,1.9l-1.3,1.9l-1.4,1.8c-7.9,9.5-18.2,17-29.4,22.5c-5.6,2.8-11.4,4.9-17.6,6.4
			c-6.1,1.6-12.2,3-18.4,2.8c-6.2-0.2-12.1-2.5-17.5-5.7c-3.6-2.2-7-4.7-10.2-7.3c-3-3.9-5.3-7.7-6.7-11.3c-2.5-6.6-2.4-16.1,0-25
			c0,0.2,0,0.4,0,0.6c-0.3,4.2,0.5,8.6,2.3,12.5c1.8,3.9,4.3,7.3,7,10.3s5.6,6,8.9,8.6c1.6,1.2,3.4,2.4,5.2,3.4
			c1.8,1,3.8,1.8,5.8,2.5c4.1,1.2,8.6,1.4,12.7,0.4c4.1-1,7.8-3.1,10.9-5.8l-0.6-0.8c-1.6,1.1-3.3,2.1-5.1,3
			c-1.8,0.9-3.6,1.4-5.5,1.8c-3.8,0.8-7.8,0.4-11.5-0.9c-3.7-1.2-7.2-3.2-10.3-5.6c-3.1-2.4-6-5.2-8.6-8.2c-2.6-3-5.1-6.1-6.8-9.6
			c-1.6-3.5-2.5-7.4-2.3-11.4c0.1-3.3,0.7-6.6,1.4-9.8c3.3-6.7,8.3-12,14.6-13.7c16.4-4.4,6-5.6,7.7-7.6c1.8-1.9,4.7-5.7,4.7-5.7
			s5.7-24.3-20.5-2.1S541,591.3,541,591.3l-1.9,85.7c13.3-23.8,27-29.2,40.1-29.2c-2.8,1.1-5.5,2.3-8.2,3.6
			c-6.7,3.2-13.2,7.3-18.2,13c-2.6,2.8-4.7,5.9-6.4,9.3c-1.7,3.3-3,6.9-3.9,10.5c-0.8,2.8-1.3,5.6-1.8,8.4l-2,2.9
			c-0.8,1-1.4,2.2-2.1,3.3l-2.1,3.3l0.8,0.5l2.2-3.2c0.8-1,1.4-2.2,2.2-3.2l0.6-0.8c0,0.3-0.1,0.5-0.1,0.8
			c-2.8,3.9-5.3,9.1-7.8,15.7c0,0,1.8,4.7,12.6,43.7c10.8,39,1.9,122.1,1.9,122.1s-65,128-66.8,155.7c-1.8,27.7,8.7,52.9,40.8,83.2
			c32.2,30.2,120.7,43.1,120.7,43.1l20,4.8l-4.6-16c0,0-2.7-1.2-6.9-3.1c0.1,1.5-0.4,2-1.7,0.8c-1-0.8-2.1-1.8-3.3-3
			c-2-0.9-4.1-1.7-6.4-2.6c-2.7-2.8-5.4-5.4-8.2-8.1c-5.4-5.2-11-10.3-16.4-15.5c-0.6-0.6-1.1-1.1-1.7-1.6c-3.1-3.4-6.2-7-9.3-10.4
			c-0.3-0.3-0.5-0.6-0.7-0.8c-0.3-0.3-0.5-0.6-0.8-1c-0.6-0.7-1.1-1.3-1.8-2c-1.1-1.3-2.2-2.7-3.3-4c-3.2-5.2-5.8-10.7-8-16.4
			c-1.2-3.5-2.4-7.1-3.2-10.7c-0.9-3.6-1.6-7.3-2-11c-0.3-2.3-0.5-4.7-0.7-7.1c-0.2-1.4-0.3-2.9-0.3-4.2c-0.2-3.7-0.5-7.4-0.6-11.3
			c-0.4-9.3-0.4-18.5,0.1-27.8c0.3-8.1,0.9-16.6,2.1-25.2c3.5-23.6,10.1-38.7,10.5-39.6c3.7-13.1,7.3-26.2,10.9-39.4
			c3.8-14.5,7.5-29,11-43.7c3.3-14.6,6.7-29.3,8.7-44.2l0,0c0.2-1,0.4-2.1,0.6-3.1c1.7-9.9,2.8-19.9,3.4-30.1
			c0.7-10,0.7-20.1,0.3-30.2c-0.5-10-1.4-20.1-3.6-30c-1.9-8.4-4.6-16.7-7.9-24.6c19.6,7.4,32.9,15.3,32.9,15.3l89.2-91.6
			c0,0-5-44.5-4.4-45.3c0.5-0.9-8.2,10.1-18,28.1c-9.8,18-22.8,41.4-50.6,58.4c-27.8,17.1-47.1,13.8-78.4,16.4
			c-23.5,2-36.4,1-46.5,13.5c0.1-0.3,0.1-0.6,0.2-0.9l0.2-0.3l2.5-3c3.4-3.8,7.4-7.3,12-9.6c4.7-2.3,9.7-3.4,14.9-4.3
			c5.2-0.9,10.3-1.5,15.5-2.4c10.3-1.6,20.6-3.9,30.6-7.1c10-3.1,19.7-7.3,29.2-12c4.7-2.5,9.3-5.1,13.6-8.1c4.4-3,8.6-6.2,12.6-9.8
			c3.9-3.7,7.3-7.6,10.9-11.6c3.4-4,6.7-8,9.9-12.1c13.1-16.4,25.2-33.4,37.3-50.4l9.1-12.8l4.5-6.4c1.5-2,3.1-4.1,4.6-6.1
			c6.4-8,13.7-15.4,21.6-22c15.7-13.4,33.4-24.4,52-33.6c2.3-1.1,4.7-2.3,7.1-3.3l3.5-1.6l3.6-1.5c2.4-1,4.8-1.9,7.2-2.8l1.8-0.7
			l1.8-0.5l3.7-1c0.6-0.2,1.2-0.3,1.8-0.4c3.6-1.5,8-3.1,12.5-4.6c-5,0.6-9.9,1.4-14.9,2.6c-5.1,1.2-10.1,2.9-15,4.9l-3.6,1.5
			l-3.6,1.6c-2.4,1-4.8,2.2-7.2,3.2c-18.9,9.1-36.8,20-52.9,33.6c-8,6.8-15.5,14.2-22.1,22.4c-1.6,2.1-3.1,4.2-4.8,6.3l-4.6,6.4
			l-9.1,12.8c-12.1,17-24.4,33.9-37.3,50.2c-3.2,4.1-6.5,8.1-9.8,12.1c-3.3,3.9-6.8,7.8-10.5,11.4c-3.8,3.4-7.8,6.6-12.1,9.5
			c-4.3,2.9-8.8,5.4-13.3,7.9c-9.2,4.8-18.7,8.8-28.6,11.9c-9.8,3.2-19.8,5.8-30.1,7.8c-5.1,1-10.2,1.8-15.4,2.8l-3.9,0.9
			c-1.3,0.3-2.6,0.7-3.9,1c-1.2,0.5-2.6,0.9-3.8,1.3l-1.9,0.9c-0.7,0.3-1.2,0.6-1.8,0.9c-4.9,2.5-8.9,6.3-12.3,10.3l-1,1.3
			c0.5-2,1-3.9,1.4-5.8c1.9-7,5.2-13.6,10.3-18.8c5.1-5.2,11.4-9.1,17.9-12.1c4.4-2,8.9-3.7,13.5-5.3c4.5,0.5,8.9,1.4,13.1,2.3
			c18.5,3.6,59.1-11.6,79.7-37.4c20.6-25.8,60.6-81.5,79.4-109.5c18.9-28,60.1-52.2,60.1-52.2s-39.9,13.4-59.2,36.9
			c-15.9,19.4-46.9,66.1-73.4,95.4c1-2.1,2.1-4.2,3.1-6.3l2-4.4c0.6-1.4,1.2-3,1.8-4.4c1.1-3,2.3-5.9,3.4-8.9l6.4-17.9l1.6-4.5
			l1.7-4.5l3.3-8.9c2.3-5.9,4.7-11.7,7.2-17.6c2.6-5.7,5.2-11.4,8.1-17.1c2.9-5.6,5.8-11.2,9.1-16.6c6.4-10.9,13.3-21.5,20.5-31.8
			c3.7-5.2,7.4-10.2,11.4-15.1c3.9-5,8-9.8,12.1-14.5c8.4-9.3,18.1-17.5,28.6-24.5c5.2-3.5,10.6-6.8,16.2-9.8l4.2-2.2
			c1.4-0.7,2.8-1.4,4.2-2.1c1.4-0.7,2.9-1.3,4.3-2s2.9-1.2,4.2-2.3c-2-0.7-3.4,0-4.9,0.7c-1.4,0.7-3,1.2-4.4,1.9
			c-1.4,0.7-2.9,1.3-4.3,2l-4.3,2.2c-5.6,3-11.2,6.2-16.5,9.6c-5.3,3.4-10.5,7.3-15.5,11.3l-3.6,3.1c-1.2,1-2.4,2.2-3.5,3.2
			c-2.4,2.2-4.5,4.6-6.8,6.9c-4.3,4.8-8.4,9.6-12.3,14.6c-4,5-7.8,10-11.6,15.2c-7.4,10.3-14.5,20.9-20.9,32
			c-3.2,5.4-6.2,11.1-9.2,16.8c-2.9,5.6-5.6,11.4-8.1,17.4c-4.9,11.7-9.2,23.7-13.8,35.4c-4.7,11.7-9.5,23.4-14.9,34.7
			c-1.3,2.9-2.8,5.6-4.2,8.4c-1.4,2.8-3,5.5-4.5,8.2c-0.9,1.4-1.7,2.9-2.6,4.3c-1.3,1.2-2.6,2.4-3.9,3.4c-2,1.7-3.9,3.2-5.7,4.8
			c0.1-0.2,0.3-0.4,0.5-0.6c4.1-5.6,7.8-11.6,10.9-17.8c6.3-12.5,10.3-26,14.5-39.2c4.3-13.3,8.2-26.6,13.2-39.7
			c5-13,10.8-25.7,17.7-37.7c0.9-1.5,1.7-3,2.7-4.5c0.9-1.5,1.8-3,2.7-4.5c1.9-3,3.7-5.9,5.7-8.7l3-4.3l3.1-4.2l1.5-2.1l1.6-2.1
			l3.1-4.1c8.6-10.9,17.9-21.1,28-30.5c5.1-4.7,10.2-9.3,15.5-14l7.7-7.1c2.6-2.3,5.2-4.6,7.9-6.8c8.4-6.8,17.2-12.9,26.4-18.6
			c22.1-9.4,37.9-11.9,55-8.4c29.2,5.8,54.8,30.2,60.9,40.6c5.8,9.9,14.4,31.2,14.8,67c-1.4-5.7-3.6-11.4-6.5-16.5
			c-4.6-8.4-10.7-16-17.8-22.4c-1.8-1.6-3.7-3.1-5.7-4.5c-2-1.3-4.1-2.6-6.3-3.7c-4.3-2.2-8.8-3.9-13.4-5.4
			c-9.2-2.9-18.6-4.7-28.1-5.6l-3.5-0.3c-1.1-0.1-2.4-0.2-3.5-0.3c-2.4-0.1-4.8-0.3-7.2-0.2c-4.8-0.1-9.5,0.1-14.3,0.4l-3.5,0.3
			c-1.1,0.1-2.4,0.2-3.5,0.4c-2.4,0.4-4.8,0.7-7.1,1l-7,1.5l-6.9,1.9l-6.8,2.4c-2.2,1-4.4,1.8-6.6,2.8c-4.3,2-8.6,4.1-12.7,6.4
			l-3.1,1.7l-3.1,1.9c-1,0.6-2,1.2-3,1.9s-2,1.3-3,2c-3.8,2.8-7.6,5.5-11.2,8.8c4.3-2.3,8-5,11.9-7.6c1-0.7,2-1.2,3-1.9s2-1.2,3-1.8
			l3.1-1.8l3.1-1.7c8.3-4.4,16.9-8.1,25.9-10.7l6.8-1.7l6.9-1.3c2.3-0.4,4.7-0.6,7-0.9c1.1-0.2,2.3-0.2,3.5-0.3l3.5-0.2
			c9.3-0.5,18.8-0.4,28.1,0.5c9.3,0.9,18.6,2.6,27.6,5.3c8.9,2.9,17.6,6.6,24.6,12.8c4.5,3.8,8.5,8.2,12,12.9c0.9,1,1.6,2.1,2.2,3.1
			l0.1,0.1c1.2,1.8,2.4,3.6,3.4,5.4c3.8,6.7,6.7,14,8.1,21.6c0,2.3,0,4.3,0,6.2c-0.4-0.4-0.7-0.7-1-1c0,0.5,0,1-0.1,1.4
			c0.4,0.4,0.8,0.8,1.1,1c0.1,2.7,0.2,4.8,0.3,6.4c-0.1,0.1-0.1,0.1-0.2,0.2c-1.3-0.7-3-1.3-4.7-2.1c-1,0.6-2.5,0.7-4.7-0.6
			c-4.4-2.4-65.2-8.8-84.5-4.2c-13.9,3.3-17.8,4.1-19.8,4c-31.6,13.8-69.7,41.1-66.3,53.4c4.7,16.4,32,110.9,32,110.9l170.8,24
			l4.3-7.2c-4.5-16.5-20.6-23.6-42.7-25.4l0.7,0.7l-10.7,1c0,0-3.1-0.7-7.3-2.1c-2.1,0.1-4.2,0.1-6.4,0.3
			c-6.3-3.2-12.5-6.8-17.8-11.3c-6.4-5.2-10.3-12.8-13.3-20.4c-2.8-7.7-4.1-16-4.5-24.3c-0.3-8.3,0.3-16.6,2.7-24.5
			c1.2-3.9,3.1-7.6,5.1-11.2c2.1-3.6,4.4-7.1,6.8-10.4c0.5-0.7,1-1.2,1.4-1.9c1.8-3.1,4.1-6.5,7.6-10.8
			c9.7-11.9,26.2-27.3,26.2-27.3s-0.8,0.4-2.2,1c-0.2,0.2-0.5,0.4-0.7,0.6c-3.2,2.8-6.2,5.7-9.2,8.8s-5.8,6.1-8.7,9.2
			c-2.9,3.1-5.6,6.2-8.4,9.4c-2.7,3.2-5.3,6.5-7.9,9.8c-2.6,3.3-5,6.9-7.1,10.5c-2.2,3.6-4.1,7.4-5.4,11.5
			c-2.7,8.2-3.3,16.8-3.1,25.3c0.1,4.3,0.6,8.5,1.2,12.7s1.7,8.4,3.1,12.5l0.6,1.5l0.7,1.5c0.4,1,0.9,2,1.3,3c0.5,1,1,1.9,1.4,2.9
			s1,1.9,1.6,2.9c1,1.9,2.4,3.7,3.8,5.4c1.4,1.7,3,3.3,4.7,4.8c2.7,2.4,5.6,4.5,8.6,6.4c-0.4-0.2-0.9-0.4-1.2-0.6
			c-4.6-2-9.1-4.1-13.5-6.4c-4.4-2.3-8.7-4.8-12.8-7.6c-4.1-2.8-8-5.8-11.3-9.4l-0.6-0.7l-0.6-0.7c-0.4-0.5-0.8-1-1.1-1.4
			c-0.7-1-1.4-2-2-3.1c-1.3-2.1-2.5-4.2-3.6-6.4c-4.5-8.8-7.6-18.3-9-28c-0.7-4.9-0.9-9.7-0.5-14.6l0.4-3.6c0.2-1.2,0.5-2.4,0.7-3.6
			c0.4-2.4,1.1-4.8,1.8-7.1c1.5-4.7,3.5-9.2,5.9-13.5c2.4-4.3,5.1-8.5,8-12.4c5.9-7.9,12.9-15.1,20.7-21.1c3.9-3,8-5.7,12.4-8
			c2.1-1,4.3-2.1,6.5-3c7.3-1,15.8-1,23.9-0.5c-0.5,0.1-1,0.2-1.5,0.4c-1.2,0.3-2.4,0.7-3.6,1c-1.2,0.4-2.4,0.8-3.6,1.2l-1.8,0.7
			l-1.7,0.7c-1.1,0.5-2.4,1-3.4,1.5c-4.6,2.1-9,4.6-13.2,7.3l-3.1,2.2c-1,0.8-2,1.5-3,2.4l-1.4,1.1l-1.4,1.2c-1,0.9-1.9,1.7-2.8,2.6
			c-1.7,1.8-3.5,3.6-5,5.6c-1.6,1.9-3,4-4.4,6.1c-2.7,4.3-5,8.8-6.7,13.5c-3.6,9.3-5.4,19.4-4.9,29.3c0.6-1.3,0.9-2.5,1.1-3.7
			c0.3-1.2,0.5-2.4,0.6-3.6c0.1-1.2,0.3-2.4,0.4-3.6c0.2-1.2,0.4-2.4,0.6-3.6c1-4.8,2.3-9.4,4.1-13.9c1.7-4.3,3.8-8.3,6.3-12.2
			c-0.4-0.9,0.6-3.6,3.9-8.2c0,0,15.6-15.1,27.7-20.8c12.1-5.7,23.5-8.1,23.5-8.1l19.5,4.7c0,0-0.6,0.3-2.1,1.4
			c0.2,0.1,0.4,0.2,0.5,0.2c-0.6,0.2-1,0.4-1.6,0.6c-0.9,0.7-1.8,1.4-3.1,2.5c1.8-0.9,3.6-1.6,5.5-2.3c-1.6,3.2-2.7,5.2-2.7,5.2
			l4,2.6c0,0,1-2.1,2.5-5.5c1,0.6,1.8,1,2.6,1.3l-1.6,4.3l14.5,7.4l-4.6,70.1l14.1,34.8c0,0,32.9,2.5,19.6-5
			c-4.5-2.5-7.9-5.7-10.5-9.6c-1.2-2.9-2-5.9-2.2-9c-0.6-6.4,0.5-12.9,2.6-19c5-11.9,10.1-24,13.6-36.5c0.5-1.6,0.9-3.1,1.1-4.8
			c0.3-1.6,0.5-3.2,0.6-4.9c0.1-3.2-0.1-6.6-0.8-9.8c-1.3-6.5-4.5-12.5-9-17.4c-4.5-4.9-10.2-8.5-16.4-10.7c-0.4-0.1-0.7-0.2-1-0.3
			c-0.4,0-0.8-0.1-1.1-0.1l-6.2-1.3l1-0.2c-0.1,0-0.2,0-0.3-0.1c1-0.2,2.2-0.3,3.3-0.5c1-0.2,2.1-0.4,3.1-0.5
			c0.5-0.2,4.3-1.4,11.4,1.8c1.3,0.6,2.7,1.3,4,2.3c1,0.4,1.8,0.9,2.7,1.3c0.7,0.4,1.3,0.9,2,1.3c0.6,0.5,1.2,1,1.8,1.5
			c1.2,1,2.2,2.2,3.1,3.5c1,1.3,1.7,2.8,2.5,4.2c0.8,1.5,1.3,3,1.9,4.6c0.4,1,0.7,2.1,1,3.1c0,0.1,0,0.1,0.1,0.2
			c0.6,1.9,1,3.4,1.1,4.6c0.9,3.8,1.3,7.7,1.5,11.7c0.1,3.3,0,6.7-0.3,10s-1,6.6-1.8,9.8l2.1,0.6c1-3.3,1.7-6.7,2.1-10.2
			c0.4-3.4,0.6-6.9,0.5-10.4c-0.3-6.9-1.5-13.8-3.9-20.3c-0.6-1.6-1.3-3.2-2.1-4.8c-0.5-0.9-1-1.8-1.4-2.7c-0.8,3.3-2.6-1.9-7.9-7.3
			c-0.7-0.7-1.2-1.2-1.8-1.8c-4.1-2-8.5-3.2-12.9-4.1c0.9-0.2,1.7-0.3,2.6-0.5c-0.9-0.1-1.7-0.2-2.7-0.2l4.7-1.1
			c0,0,0.7,0.2,1.8,0.6c0.5-0.1,1-0.2,1.4-0.3c1.8-0.4,3.6-0.9,5.3-1.3c2.1,0.9,4.1,1.8,6.3,2.6c2.8,1,5.5,1.7,8.5,2.2
			c5.7,1,11.5,1.2,17.4,1.4s11.5,0.2,17.4,0.2s11.5-0.1,17.4-0.3c11.5-0.5,23.1-1.7,34.5-3.3c11.4-1.7,22.8-4.1,34.1-6.8
			c4.6-1.1,9.2-2.4,13.7-3.6c6.9-2.6,16.9-5.9,27.3-7.6C1182.9,453.2,1187.1,452.8,1191.7,452.6z M532.3,1046.7
			c-0.8-5.9-0.9-11.9-0.1-17.8c0.8-5.9,2.4-11.7,4.4-17.5c2-5.6,4.6-11.2,7.1-16.7l7.4-16.6c5-11.1,10.1-22,15.3-32.9l4-8.2
			c1.3-2.7,2.8-5.4,4-8.2c2.6-5.5,4.8-11.2,6.7-16.9c0.3-0.9,0.6-1.7,0.9-2.5c-0.4,1.5-0.8,3.1-1.2,4.7c-1,4.1-2.2,8.2-3.3,12.2
			c-0.6,1.7-1.2,3.4-1.8,5.2c-0.9,2.3-1.7,4.5-2.6,6.8l-2.8,6.7c-0.4,1.1-1,2.2-1.4,3.3c-0.5,1.1-1,2.2-1.4,3.3
			c-1,2.2-2,4.5-3.1,6.8c-4.1,9.1-8.6,17.9-11.1,27.7c-1.2,4.9-2.1,9.7-2.8,14.7c-0.7,5-1.1,9.8-1.4,14.8c-0.6,9.9-0.2,19.9,1,29.9
			c1.4,9.9,3.9,19.7,7.5,28.9c1.8,4.7,3.7,9.3,5.9,13.7c0.5,1.1,1,2.2,1.6,3.3c0.4,0.7,0.7,1.3,1,1.9c-1.3-1.2-2.6-2.4-3.9-3.6
			c-4.5-4.1-9.2-7.9-13.4-12.2c-4.2-4.3-8.1-8.8-11.1-13.9c-1.5-2.6-2.8-5.2-3.7-8C533.4,1052.5,532.7,1049.7,532.3,1046.7z
			 M556.2,1026.1c0.3,9.6,1.1,19.3,2.7,28.8c1.5,9.5,3.8,19.1,7.1,28.2c1,3.1,2.3,6.1,3.5,9.1c-3.1-6.3-5.8-12.8-8-19.5
			c-3.2-9.3-5.6-18.7-7.2-28.3c-1.4-9.6-1.8-19.4-1.4-29.1c0.2-4.9,0.7-9.7,1.2-14.5c0.6-4.9,1.3-9.6,2.6-14.3
			c1.7-7.3,4.9-14,8.3-20.7c-0.3,1-0.6,1.9-0.9,2.9c-2.8,9.3-5.1,18.6-6.5,28.2c-0.7,4.8-1.2,9.6-1.3,14.5c-0.2,2.4-0.1,4.9-0.1,7.3
			C556.1,1021.3,556.1,1023.7,556.2,1026.1z M549.3,1088.7c-6.3-8.5-10.8-16.4-14-23.9l0,0c1.5,2.7,3.3,5.3,5.3,7.7s4,4.8,6.1,7
			c2.1,2.2,4.3,4.4,6.5,6.5c2.2,2.1,4.4,4.2,6.6,6.2l6.7,6.1c2.2,2,4.4,4,6.5,6.1c2.7,4.3,5.5,8.5,8.6,12.6
			C569.9,1110.1,558.3,1100.7,549.3,1088.7z M629.8,1133.3c2.2,2.1,4.4,4.3,6.6,6.4c-1.3-0.5-2.6-1-3.9-1.5
			c-3.9-4.5-7.7-9-11.7-13.4C623.8,1127.7,626.8,1130.5,629.8,1133.3z M614.9,861c-3.4,14.6-7.3,29.1-11.1,43.6
			c-3.9,14.5-7.9,28.9-12.1,43.3l-3.1,10.8c-1,3.6-2,7.3-2.9,11c-1.7,7.3-3.1,14.8-4,22.2c-1.8,15-2.2,30.1-1.5,45.1
			c0.2,3.7,0.4,7.5,0.6,11.3l0.4,5.6c0.2,1.9,0.3,3.8,0.6,5.6c0.5,3.7,1.2,7.4,2.1,11.2c1,3.6,2,7.3,3.3,10.9
			c1.2,3.1,2.6,6.3,4.1,9.3c-0.3-0.4-0.6-0.8-0.9-1.1l-2.2-3.1c-0.7-1-1.4-2-2.1-3.1c-0.6-1-1.2-2.1-1.9-3.1
			c-0.6-1.1-1.1-2.2-1.6-3.3c-2.1-4.5-3.6-9.2-4.9-14c-1.2-4.8-2.2-9.7-2.9-14.7c-1.2-9.9-1.6-19.9-0.4-29.9c1.1-9.9,3-19.8,5-29.7
			c2-9.8,4.3-19.7,6.9-29.3c1.2-4.9,2.6-9.7,3.9-14.5c1.4-4.9,2.9-9.6,4.3-14.4c5.9-19.2,11.7-38.4,17-57.9
			c1.1-4.1,2.2-8.1,3.2-12.2C615,860.7,615,860.8,614.9,861z M615.1,698.2c0.4,0.1,0.8,0.3,1,0.4c1.4,3.6,2.7,7.3,3.9,11
			c1.5,4.8,2.9,9.5,3.9,14.5c1,4.9,1.7,9.8,2.3,14.8c0.6,5,1,9.9,1.1,15c0.4,10,0.3,20-0.4,30.1c-0.6,10-1.7,19.9-3.4,29.9
			c-3.4,19.7-8.4,39.2-13.7,58.6c-5.3,19.4-11.2,38.6-17.1,57.8c-1.4,4.8-3,9.6-4.3,14.5c-1.3,4.9-2.7,9.7-4,14.6
			c-2.6,9.7-4.9,19.6-7,29.4c-2,9.8-3.8,19.8-5.1,29.9c-1.3,10.1-0.9,20.3,0.3,30.3c0.7,5.1,1.5,10,2.8,15c1.2,5,2.8,9.8,4.9,14.4
			c0.6,1.1,1.1,2.3,1.6,3.4c0.6,1.1,1.3,2.2,1.9,3.3c0.7,1.1,1.3,2.1,2,3.2l2.1,3.1c2.9,4.2,5.9,8.3,9.1,12.2
			c6.2,8,13.1,15.4,19.9,22.7c3.3,3.5,6.8,7,10.2,10.4c-2.8-1-5.4-1.8-8.2-2.7c-6.7-2-15.6-5.2-25.2-9.8c-0.3-0.4-0.6-0.8-0.8-1.1
			c-0.9-1.2-1.8-2.5-2.8-3.6c-1-1.2-1.8-2.4-2.9-3.6c-1.7-2.1-3.5-4.3-5.3-6.3c-0.4-0.6-0.7-1.2-1-1.8l-3.3-6.3l-1.6-3.1
			c-0.5-1-1-2.1-1.5-3.2c-1.9-4.3-3.5-8.8-5.1-13.3c-3.1-9-5.3-18.1-6.8-27.5c-1.5-9.3-2.3-18.8-2.6-28.3c-0.2-4.8-0.3-9.4,0-14.2
			c0.2-4.7,0.7-9.4,1.3-14c1.3-9.3,3.6-18.5,6.3-27.7c2.7-9.1,5.7-18.1,8.8-27.3c3-9.2,5.5-18.4,7.9-27.7
			c4.8-18.6,8.9-37.3,12.7-56.1c1.9-9.3,3.6-18.8,5.4-28.1c1.8-9.3,3.5-18.8,5.2-28.2c1.6-9.4,3-19,3.8-28.5
			c0.5-4.8,0.7-9.6,0.9-14.4c0.2-4.8,0.3-9.6,0.3-14.4c0-16.8-2.4-33.3-5.4-49.7C609.9,696.4,612.5,697.1,615.1,698.2z M580.6,706.1
			c0.2-1,0.4-2,0.6-3l0.7,6.6c0.6,5.5,1,11,1.6,16.5c0,0.3,0.1,0.6,0.1,0.9C581.5,718.6,579.8,711.5,580.6,706.1z M585.6,852.8
			c4-22.5,1.9-42,1.9-42s2.6-11.3,3.6-38.2c0.2-5.2-0.1-10.2-0.8-15.3c-0.1-5-0.5-9.9-0.9-14.9c-0.5-5.5-1.1-11.1-1.8-16.6
			c-0.7-5.5-1.5-11.1-2.4-16.6c-0.6-3.5-1.2-7.1-1.9-10.5c3.9-5.4,11.6-6.4,23.1-3.4c1.1,7.2,2.2,14.3,3,21.5c1,9.4,1.5,19,1.4,28.5
			c0,4.8-0.2,9.5-0.5,14.3s-0.6,9.5-1,14.2c-1,9.4-2.5,18.9-4.2,28.2c-1.7,9.3-3.6,18.7-5.5,28.1l-5.7,28
			c-2.2,10.6-4.5,21.2-6.9,31.8c-0.5,1.4-0.9,2.8-1.3,4.2c-1,2.9-1.8,5.7-2.8,8.6c-1,2.9-1.9,5.7-3,8.6c-2,5.6-4.3,11.3-6.9,16.7
			c-0.7,1.3-1.3,2.7-2,4l-2.1,4l-4.1,8.1c-2.7,5.4-5.3,10.9-7.9,16.4c-2.6,5.4-5.2,11-7.7,16.4l-7.5,16.5
			c-2.5,5.4-5.2,11.1-7.3,16.8c-2.1,5.8-3.8,11.7-4.7,17.9c-0.5,3.5-0.7,7.1-0.6,10.6c-0.6-6.3-0.5-12.6-0.1-18.9
			c1.4-21.6,9.5-49.7,29.4-82.9C578.1,904.1,581.6,875.3,585.6,852.8z M837.2,626.4c-20.3-12.8-27-27.6-26.6-47.1
			c0.1,0.3,0.1,0.6,0.2,0.9c2.6,9.3,6.3,18.2,11.4,26.5c5.2,8.2,11.7,15.6,19.7,21.2c3.4,2.4,7.1,4.5,11,6.2
			C848.2,632.7,843.3,630.3,837.2,626.4z M862.5,635.6c-6.8-2.5-13.2-5.9-18.8-10.2c-7.4-5.6-13.7-12.6-18.8-20.5
			c-5.1-7.8-8.9-16.5-11.7-25.5c-0.9-2.6-1.5-5.2-2.2-7.9c1.1-12.5,4.3-22.8,11.1-33.8l-0.2,1.4c-0.6,3.2-0.8,6.7-0.9,10
			c0,6.8,1.2,13.5,3.1,19.7c1,3.1,1.9,6.3,3,9.4c0.6,1.5,1,3.1,1.7,4.7s1.2,3.1,1.9,4.6c2.7,6.1,6,11.9,9.9,17.4
			c4,5.3,8.4,10.4,13.5,14.8c2.6,2.2,5.2,4.3,7.9,6.1l2.1,1.4c0.7,0.5,1.4,0.9,2.1,1.3c1.4,0.9,2.9,1.7,4.3,2.5
			c1.4,0.8,3,1.5,4.4,2.3c1,0.6,2.2,1,3.3,1.4C872,635.4,867,635.8,862.5,635.6z M888.3,485.5c-8.1,6.2-15.3,13.5-21.4,21.7
			c-3.1,4.1-5.8,8.3-8.3,12.8c-2.5,4.5-4.6,9.2-6.2,14c-0.8,2.5-1.5,5-2,7.4c-0.2,1.2-0.5,2.6-0.7,3.8l-0.4,3.8
			c-0.4,5.2-0.2,10.3,0.5,15.4c1.4,10.1,4.7,20,9.3,29.1c1.1,2.3,2.4,4.5,3.8,6.7c0.7,1.1,1.4,2.2,2.1,3.2c0.4,0.6,0.9,1,1.2,1.6
			l0.7,0.8l0.7,0.8c3.5,3.9,7.6,7.2,11.8,10c4.2,2.9,8.7,5.4,13.2,7.8c4.5,2.3,9.1,4.5,13.7,6.5c0.4,0.2,0.9,0.4,1.2,0.5
			c-0.8,0.1-1.4,0.1-2.2,0.2c-8.7,0.9-15.7,1.7-21.8,2.5c-1-0.4-2.1-0.8-3.1-1.2c-1.5-0.7-3.1-1.1-4.5-1.9c-1.4-0.7-2.9-1.4-4.3-2.2
			c-1.4-0.8-2.8-1.6-4.2-2.4c-0.7-0.4-1.4-0.9-2.1-1.2l-2-1.4c-2.7-1.8-5.2-3.8-7.6-6c-5-4.2-9.2-9.2-13-14.4
			c-3.7-5.2-6.9-11-9.4-16.9c-0.4-0.8-0.7-1.5-1-2.2l-0.9-2.3c-0.6-1.5-1-3.1-1.5-4.6c-1-3.1-1.9-6.2-2.8-9.3
			c-1.7-6.2-2.8-12.6-2.7-18.9c0.1-3.1,0.4-6.3,1-9.4l0.4-2.3l0.6-2.3c0.2-0.8,0.4-1.5,0.6-2.3l0.8-2.3c0.2-0.7,0.5-1.4,0.8-2.1
			c2.5-3.2,5.3-6.6,8.5-10.2c16.8-18.7,41.5-32.8,59.6-38.4C893.9,481.5,891.1,483.4,888.3,485.5z M979.9,475.2
			c9.1,2.7,19.7,9.3,24.3,15.4c5.4,7.2,6.5,11.9,5.7,22.5c0,0.1,0,0.1,0,0.2c0,1.3-0.1,2.8-0.3,4.1c-0.8,8.2-2.1,15.9-5.8,19.9
			c-0.5,1.4-1,2.8-1.5,4.2c-1.1,3.1-2.3,6-3.5,9.1s-2.5,5.9-3.7,9.1c-2.2,6.3-3.2,13-2.5,19.7c0.1,0.9,0.2,1.7,0.4,2.5
			c-2.4-6.7-2.5-14.7-0.2-23.4c4.4-16.5,9.3-28.5,8.5-43.3c-1-4.6-3.4-7.4-5.1-14.1c-0.9-3.7-2.8-7-5-9.8
			c-5.4-5.5-13.4-9.7-23.9-12.1l-1,2.7c-0.6-0.6-1.3-1.1-2.2-1.7c0.5-1,1-2.3,1.4-3.4c2.1-0.6,4.3-1,6.5-1.4c-0.5-0.3-1-0.5-1.4-0.8
			h4.9C976.9,474.5,978.3,474.9,979.9,475.2z"/>
		<path opacity="0.3" clip-path="url(#SVGID_10_)" fill="#091426" enable-background="new    " d="M1037.2,426.9L1037.2,426.9
			l1.4-1.7c0.5-0.6,0.9-1.1,1.2-1.7l2.4-3.5c0.8-1.1,1.4-2.4,2.2-3.6c0.8-1.2,1.3-2.5,2-3.7l1-1.9l0.9-1.9
			c2.3-5.2,3.9-10.6,4.9-16.1c0.5-2.8,0.8-5.6,0.8-8.4s-0.4-5.6-1.3-8.3c0,1.4,0,2.8-0.1,4.2c0,0.7,0,1.3-0.1,2.1
			c0,0.7-0.1,1.3-0.1,2c0,1.3-0.2,2.8-0.3,4.1c-0.2,1.3-0.3,2.7-0.6,4.1c-1,5.3-2.7,10.7-5,15.6l-0.9,1.9l-1,1.8
			c-0.7,1.2-1.2,2.5-2,3.6c-0.8,1.1-1.4,2.4-2.1,3.5l-2.4,3.3c-3.2,4.4-7,8.5-11,12.3c-0.3,0.3-0.6,0.5-0.9,0.8c0,0.3,0,0.7-0.2,1.1
			C1026.2,436.3,1031,433.3,1037.2,426.9z"/>
		<path opacity="0.3" clip-path="url(#SVGID_10_)" fill="#091426" enable-background="new    " d="M1004,387.1
			c0,0.3-0.1,0.5-0.1,0.7C1003.9,387.6,1003.9,387.3,1004,387.1z"/>
		<path opacity="0.3" clip-path="url(#SVGID_10_)" fill="#091426" enable-background="new    " d="M1082.6,353.7c0,0.3,0,0.5,0,0.8
			c0,5.8-0.5,11.7-1.5,17.5c-0.3,1.4-0.6,2.9-0.9,4.3l-1.1,4.2c-0.5,1.3-1,2.8-1.4,4.1c-0.2,0.7-0.5,1.3-0.8,2l-0.9,2
			c-2.4,5.3-5.3,10.4-8.6,15.3c-3.1,4.3-6.3,8.5-9.7,12.5c-0.9,1.9-1.3,3.1-1.3,3.1s0.9-0.3,2.2-1c3.8-4.2,7.3-8.7,10.6-13.3
			c3.4-4.9,6.5-10.1,9-15.6l0.9-2.1c0.3-0.7,0.7-1.3,0.9-2.1c0.5-1.4,1-2.9,1.5-4.3l1.1-4.3c0.4-1.4,0.7-3,1-4.4
			c1.1-5.9,1.6-11.9,1.7-17.8c0.1-6-0.4-12-1.1-17.9c-0.2-1.5-0.4-3-0.7-4.5c-0.3-1.4-0.5-3-0.9-4.4l-1-4.4l-1.2-4.4
			c-1.8-5.7-4-11.4-7.1-16.7c-3-5.2-6.6-10.1-10.4-14.8c-0.6-0.7-1.1-1.3-1.7-2c-2.2-1.4-3.6-2.9-3.6-4.1c-2.2-2.5-4.5-4.8-6.9-7.2
			c-2.2-2.1-4.4-4.2-6.6-6.2c-2.3-2-4.5-3.9-7-5.9l-2.4,3.2c4.6,3.6,9.1,7.5,13.4,11.5c4.3,4.1,8.4,8.3,12.1,12.8
			c3.8,4.5,7.3,9.2,10.3,14.1c3,5,5.2,10.4,7,15.9c1.8,5.5,3.1,11.3,3.9,17.1c0.7,4.4,1,8.9,1.2,13.4c0,0.9,0.1,1.7,0.1,2.7
			C1082.6,353.2,1082.6,353.4,1082.6,353.7z"/>
		<path opacity="0.3" clip-path="url(#SVGID_10_)" fill="#091426" enable-background="new    " d="M869.5,427
			c11.9,1.5,23.4,4.4,23.4,4.4c-0.6-0.4-0.9-0.8-0.9-1c-0.6-0.2-1.1-0.4-1.7-0.5c-8.9-2.6-18.1-4.2-27.4-4.6c-2.3-0.2-4.7-0.1-7-0.2
			c-2.3,0-4.7,0.1-7,0.2c-4.6,0.4-9.3,0.8-13.7,1.6c-4.6,0.7-9.1,1.7-13.5,3.1l-3.3,1c-1.1,0.4-2.2,0.7-3.2,1.1l-3.2,1.2
			c-1,0.4-2.2,0.9-3.1,1.3c-4.2,1.9-8.3,4-12.3,6.3c-2,1.1-4,2.2-5.9,3.5l-3,1.8l-2.9,1.9c-3.8,2.6-7.4,5.3-11.1,8.2
			c-3.5,2.9-7,5.9-10.2,9.2c3.5-2.9,7.3-5.6,10.9-8.3c1-0.7,1.9-1.3,2.8-1.9c1-0.7,1.8-1.3,2.8-1.9c1.9-1.2,3.7-2.6,5.7-3.7l2.9-1.8
			l3-1.7c1.9-1.2,3.9-2.2,5.9-3.3c4-2.1,8.1-4,12.2-5.7c1-0.5,2.1-0.9,3.1-1.2l3.1-1.1c1-0.4,2.1-0.7,3.2-1l0.3-0.1
			c1.5-1,3.4-1.9,5.7-2.9C835.2,427,857.6,425.5,869.5,427z"/>
		<path opacity="0.3" clip-path="url(#SVGID_10_)" fill="#091426" enable-background="new    " d="M934.2,495.6
			c-7.7,8.4-18.1,21.4-24.3,32.6c-8.9,16.2-10.8,30.9-11,44.6c0,0.1,0,0.3,0.1,0.4c0.5,3.1,1.3,6.1,2.5,9c1.2,2.9,2.6,5.6,4.2,8.2
			c1.5,2.7,3.2,5.2,5,7.6l0.9-0.5c-2.9-5.3-5.7-10.6-7.9-16.1c-1-2.8-1.9-5.6-2.4-8.5c-0.5-2.9-0.6-5.8-0.4-8.8
			c0.4-5.9,1.5-11.8,2.9-17.7c1.3-5.8,3.6-11.4,6.2-16.7c5.4-10.7,12.6-20.5,21.1-28.9c1.5-1.5,3.1-3.1,4.9-4.5
			c2.2-2.4,4.2-4.6,5.5-6.1C938.8,491.7,936.5,493.6,934.2,495.6z"/>
		<path opacity="0.3" clip-path="url(#SVGID_10_)" fill="#091426" enable-background="new    " d="M1004,387.1
			c0-0.2,0.1-0.4,0.1-0.5c0.4-3.1,0.7-6.7,0.8-10.4c-1.3,17.9-5.8,33.7-9.8,46.4c1-3.3,2.5-7.5,3.8-12.3c2.2-8.6,4.3-17.3,5.1-22.4
			C1003.9,387.6,1003.9,387.3,1004,387.1z"/>
		<path opacity="0.3" clip-path="url(#SVGID_10_)" fill="#091426" enable-background="new    " d="M994.2,424.9
			c0.1-0.2,0.1-0.4,0.2-0.5c-0.1,0.2-0.1,0.5-0.2,0.7C994.1,425,994.2,425,994.2,424.9z"/>
		<path opacity="0.3" clip-path="url(#SVGID_10_)" fill="#091426" enable-background="new    " d="M993.4,297.1
			c-3.5-6-7.4-11.9-10.9-14.8c-1.8-1.5-3.9-3.1-6.2-4.7C983,283.9,988.8,290.7,993.4,297.1z"/>
		<path opacity="0.3" clip-path="url(#SVGID_10_)" fill="#091426" enable-background="new    " d="M986.4,445.9
			c1.9-3.3,3.7-7.1,5.3-11C990.3,438.4,984.4,447.5,986.4,445.9z"/>
		<path opacity="0.3" clip-path="url(#SVGID_10_)" fill="#091426" enable-background="new    " d="M991.8,434.8
			c0-0.1,0.1-0.1,0.1-0.2C991.8,434.7,991.8,434.8,991.8,434.8z"/>
		<path opacity="0.3" clip-path="url(#SVGID_10_)" fill="#091426" enable-background="new    " d="M1006.1,404.3
			c-3.3,11.4-6.3,19.8-9.5,26.9c2.2-3.8,4.3-8,5.9-11.7c4.5-11.1,10.1-17.6,11.1-35.9c1-18.3,0.3-37.5-2-45c-0.6-1.8-1.2-3.9-2-6.1
			C1013.6,351.6,1014,377.3,1006.1,404.3z"/>
		<path opacity="0.3" clip-path="url(#SVGID_10_)" fill="#091426" enable-background="new    " d="M1004,386.5c0,0.2,0,0.3-0.1,0.5
			C1004,386.9,1004,386.7,1004,386.5z"/>
		<path opacity="0.3" clip-path="url(#SVGID_10_)" fill="#091426" enable-background="new    " d="M1003.8,387.7
			c-0.8,5.2-2.9,13.9-5.1,22.4c1.8-6.2,3.6-13.5,5-21.8C1003.8,388.1,1003.8,387.9,1003.8,387.7z"/>
		<path opacity="0.3" clip-path="url(#SVGID_10_)" fill="#091426" enable-background="new    " d="M962.1,444.9
			c-0.4,4.5-0.8,9.6-0.7,14.4c0.3,8.5-1.9,20.3,1.1,15c3-5.4,5.7-8.4,6.5-13.3c0.4-2.4-0.1-1.9-1-0.5c-1.9,4.7-3.7,9-5.4,12.7
			C963.1,466.6,963.1,456.7,962.1,444.9z"/>
		<path opacity="0.3" clip-path="url(#SVGID_10_)" fill="#091426" enable-background="new    " d="M983,405.5
			c-0.2,1.6-0.4,3.1-0.7,4.6c-2.3,12.5-0.1-8.5-0.4-10.6c-0.1-0.8-0.5-1-0.9-0.8c0.3,11.4-1,23.5-4.1,35.5
			c-1.6,6.3-3.7,12.6-5.9,18.5c0.6-1,1-2.1,1.6-3.2c5.2-10.4-1.4,10.3-1.6,11.7c0,0.2,0.1,0.2,0.3,0c2.8-7.5,5.3-15.6,7.2-23.2
			C980.5,430.4,982.5,418.8,983,405.5z"/>
		<path opacity="0.3" clip-path="url(#SVGID_10_)" fill="#091426" enable-background="new    " d="M984.6,343.3
			c10.6,16.7,9.7,46.9,6.8,66.8V410c3.3-20.1,2.2-37.8,2.2-37.8s-1.3-20.1-8.7-30.6c-7.3-10.5-12.7-22-20.5-26.9
			c-2.5-1.5-4.9-2.9-7-4C970.3,321.4,978.5,333.6,984.6,343.3z"/>
		<path opacity="0.3" clip-path="url(#SVGID_10_)" fill="#091426" enable-background="new    " d="M948.2,436c-0.6-1-1.3-2-2.2-3.1
			C946.8,434,947.5,435.1,948.2,436C948.2,436.1,948.2,436,948.2,436z"/>
		<path opacity="0.3" clip-path="url(#SVGID_10_)" fill="#091426" enable-background="new    " d="M950.7,474.9
			c2.2,1.2,3.6,1.1,4.7,0.6c-1.4-0.6-3.1-1.1-4.9-1.7c-2.2-0.7-4.3-1.2-6.5-1.8l0,0c-4.9-2.1-10-3.2-15.2-4.3
			c-5.2-1-10.3-1.7-15.6-2.4c-10.4-1.1-20.9-1.6-31.3-1.2c-5.4,0.2-10.9,0.6-16.3,1.1c-4.5,1.5-8.9,3.1-12.5,4.6
			c5.2-1.2,10.3-2.1,15.6-2.7c-6.5,1.2-14.3,4-22.6,7.6c2,0,5.9-0.8,19.8-4C885.5,466.1,946.3,472.6,950.7,474.9z"/>
		<path opacity="0.3" clip-path="url(#SVGID_10_)" fill="#091426" enable-background="new    " d="M951.3,461.7
			c-3.6-2.9-7.3-5.6-11.1-8.2c-3.7-2.7-7.6-5.2-11.5-7.5c-3.9-2.4-8-4.6-12.1-6.7l-3.1-1.5l-3.2-1.3c-1-0.5-2.2-0.9-3.2-1.2
			c-1.1-0.4-2.2-0.8-3.2-1.1c-3.8-1.2-7.6-2.5-11.4-3.6c0,0.4,0.3,0.8,0.9,1c0,0-11.4-3-23.4-4.4c-11.9-1.5-34.3-0.1-44.3,3.9
			c-2.4,1-4.2,1.9-5.7,2.9l3-0.9c4.3-1.1,8.8-2,13.3-2.7c9-1.3,18-2,27.1-1.7c9.1,0.3,18,1.7,26.8,4.1c4.4,1.1,8.8,2.6,13.2,3.9
			c1,0.4,2.2,0.7,3.2,1c1,0.4,2.1,0.7,3.1,1.1l3.1,1.2l3.1,1.4c4.1,1.9,8.1,4,12.1,6.4c3.9,2.3,7.8,4.7,11.6,7.2
			c3.8,2.5,7.5,5.1,11.3,7.8c2.9,2.2,5.8,4.5,8.4,7c0.1-0.5,0.1-1,0.1-1.4C956.4,465.9,953.8,463.8,951.3,461.7z"/>
		<path opacity="0.3" clip-path="url(#SVGID_10_)" fill="#091426" enable-background="new    " d="M926.9,630.3
			c4.2,1.4,7.3,2.1,7.3,2.1l10.7-1l-0.7-0.7C938.8,630.2,933,630.1,926.9,630.3z"/>
		<path opacity="0.3" clip-path="url(#SVGID_10_)" fill="#091426" enable-background="new    " d="M944.2,488.2
			c-1,0.6-1.9,1.2-2.9,1.8c-1.4,1.6-3.3,3.7-5.5,6.1c2.9-2.5,5.9-4.9,9.1-6.9c2.5-1.6,5.1-3.1,7.7-4.3c1.2-1,2.2-1.8,3.1-2.5
			C951.6,484,947.8,485.9,944.2,488.2z"/>
		<path opacity="0.3" clip-path="url(#SVGID_10_)" fill="#091426" enable-background="new    " d="M934.2,495.6
			c-1.5,1.2-3,2.6-4.4,3.9c-8.8,8.5-16.1,18.3-21.8,29.2c-2.8,5.4-5.1,11.2-6.5,17.2c-1.3,5.9-2.6,11.9-3,18c-0.2,3-0.1,5.9,0.3,8.9
			c0.2-13.6,2.1-28.3,11-44.6C916,516.8,926.4,503.9,934.2,495.6z"/>
		<path opacity="0.3" clip-path="url(#SVGID_10_)" fill="#091426" enable-background="new    " d="M915.5,509
			c2.8-3.1,5.6-6.2,8.5-9.3s5.8-6,9-8.8c3.1-2.8,6.4-5.3,9.9-7.6c2.3-1.4,4.6-2.9,7-4.1c2.6,0.7,5,1.5,7,2.4c1.5-1,2.1-1.4,2.1-1.4
			l-19.5-4.7c0,0-11.3,2.4-23.5,8.1c-12.2,5.7-27.7,20.8-27.7,20.8c-3.2,4.6-4.2,7.3-3.9,8.2c0.2-0.2,0.3-0.5,0.4-0.7l2.1-3
			c0.4-0.5,0.7-1,1-1.4l1.1-1.4c1.4-1.9,3.1-3.6,4.9-5.4c0.9-0.9,1.8-1.6,2.7-2.5l1.3-1.2l1.4-1.1c1-0.8,1.9-1.5,2.9-2.3l3.1-2.1
			c4.1-2.7,8.4-5.2,12.9-7.3c6.6-3.1,13.5-5.5,20.6-7.1c3.3,0.4,6.6,1,9.5,1.7c-2.1,1-4.1,2.3-6.1,3.5c-3.3,2.1-6.5,4.5-9.4,7.1
			c1.3-0.8,2.2-1,2.2-1s-16.5,15.4-26.2,27.3c-3.5,4.3-5.8,7.7-7.6,10.8c2-2.7,4.1-5.3,6.3-7.9C909.9,515.2,912.7,512.1,915.5,509z"
			/>
		<path opacity="0.3" clip-path="url(#SVGID_10_)" fill="#091426" enable-background="new    " d="M602.5,1104.2
			c0.2,0.3,0.5,0.5,0.7,0.8c-0.5-0.6-1-1.1-1.4-1.7C602,1103.7,602.3,1104,602.5,1104.2z"/>
		<path opacity="0.3" clip-path="url(#SVGID_10_)" fill="#091426" enable-background="new    " d="M582.7,1052.2
			c-0.1-1.4-0.2-2.8-0.3-4.2C582.4,1049.4,582.5,1050.8,582.7,1052.2z"/>
		<path opacity="0.3" clip-path="url(#SVGID_10_)" fill="#091426" enable-background="new    " d="M648.5,1146.2
			c1.3,1.2,1.9,0.8,1.7-0.8c-1.5-0.7-3.2-1.3-5.2-2.2C646.4,1144.4,647.6,1145.4,648.5,1146.2z"/>
		<path opacity="0.3" clip-path="url(#SVGID_10_)" fill="#091426" enable-background="new    " d="M581.9,1009.1
			c0.3-5.7,0.8-11.4,1.5-17.1c0.9-7.4,2.3-14.8,4-22c1.7-7.3,3.9-14.4,6-21.7c0.4-1.3,0.8-2.7,1.1-3.9c-0.4,0.9-7,16-10.5,39.6
			C582.7,992.5,582.1,1001,581.9,1009.1z"/>
		<path opacity="0.3" clip-path="url(#SVGID_10_)" fill="#091426" enable-background="new    " d="M1082.6,353c0-1,0-1.9-0.1-2.7
			c0,1.1,0,2.3,0,3.3C1082.6,353.4,1082.6,353.2,1082.6,353z"/>
		<path opacity="0.3" clip-path="url(#SVGID_10_)" fill="#091426" enable-background="new    " d="M1061.1,285.5
			c-1.1-1.4-2.4-2.8-3.6-4.1C1057.3,282.5,1058.9,283.9,1061.1,285.5z"/>
		<path opacity="0.3" clip-path="url(#SVGID_10_)" fill="#091426" enable-background="new    " d="M995.3,439.9
			c-13.3,17.1-21,24-25.8,28.7c-4.8,4.7-2.7,4.6-2.7,4.6s4.3,2,20.2-2.1s40.5-10.4,48.4-15.5c1.2-0.8,2.8-1.7,4.6-2.9
			c-3.7,1.6-7.5,3.2-11.3,4.8c-5.2,2-10.3,4-15.6,5.8c-5.2,1.7-10.6,3.1-15.9,4.4c-5.3,1.2-10.8,2.1-16.3,2.9
			c-4.4,0.7-8.9,1.2-13.3,2.2c0.7-0.7,1.4-1.4,2.2-2.2c4.6-1.2,9.1-2.7,13.5-4.2c5.6-1.9,11.3-4.1,16.7-6.5s10.9-4.9,16.1-7.8
			c5.2-2.9,10.2-6.1,15.1-9.5c4.9-3.5,9.4-7.3,13.9-11.2c4.5-4,8.7-8.2,12.8-12.6c0.2-0.2,0.4-0.5,0.6-0.7c-1.3,0.8-2.2,1-2.2,1
			s0.5-1.1,1.3-3.1c-0.4,0.5-0.8,1-1.1,1.3c-4,4.4-8.1,8.6-12.5,12.5c-4.4,3.9-9,7.7-13.7,11.3c-4.8,3.4-9.7,6.7-14.9,9.6
			s-10.5,5.4-15.9,7.8c-7.1,3.1-14.2,5.8-21.6,8.2c3-1,6-2.2,8.9-3.5c5.2-2.2,10.2-4.8,15-7.5c4.9-2.8,9.5-5.9,14-9.2
			c4.6-3.2,8.8-7,12.9-10.8l3-3c1-1,1.9-2.1,2.9-3.1c0.5-0.6,1-1,1.4-1.6l1.2-1.5c-6.2,6.5-11,9.4-11,9.4c0.1-0.5,0.2-0.8,0.2-1.1
			c-3.7,3.4-7.6,6.8-11.8,9.7c-4.5,3.2-9.1,6.3-13.9,9c-2.4,1.4-4.9,2.7-7.3,4c-2.5,1.2-5,2.5-7.4,3.5c-3.8,1.7-7.7,3.2-11.7,4.6
			c15.3-15.7,39.7-41.9,47-55.1c3.1-5.5,5.5-11.5,7.6-17.7c-2.1,3.5-5.2,8.7-9.8,16.4C1019,409.6,1008.6,422.9,995.3,439.9z"/>
		<path opacity="0.3" clip-path="url(#SVGID_10_)" fill="#091426" enable-background="new    " d="M1240.2,454.7
			c-5.5-2-11.2-3.4-16.9-4.5c-2.9-0.6-5.7-1-8.7-1.4c-1.4-0.1-3-0.3-4.4-0.3s-3-0.1-4.4-0.1c-5.9,0.1-11.7,0.8-17.5,1.6
			c-1.9,0.3-3.9,0.7-5.8,1c7.2-0.9,15.1-1.4,24-1.4c14,0,25.8,2.9,35.1,6.4c1.3,0.3,2.6,0.5,3.9,0.8
			C1243.9,456.1,1242,455.4,1240.2,454.7z"/>
		<path opacity="0.3" clip-path="url(#SVGID_10_)" fill="#091426" enable-background="new    " d="M1093.8,436.4
			c-12.4,5.9-23.9,11.6-26,12.6c3-1.3,5.8-2.7,8.8-4.1C1082.2,442.1,1088.1,439.3,1093.8,436.4z"/>
		<path opacity="0.3" clip-path="url(#SVGID_10_)" fill="#091426" enable-background="new    " d="M1135.8,463.2
			c0.1,0,0.3-0.1,0.5-0.1c-1,0.3-2,0.5-3,0.7C1134,463.6,1134.8,463.4,1135.8,463.2z"/>
		<path opacity="0.3" clip-path="url(#SVGID_10_)" fill="#091426" enable-background="new    " d="M1190.2,403.1v-0.3
			c-3.4,0.4-6.9,1-10.3,1.5C1183.4,403.9,1186.8,403.4,1190.2,403.1z"/>
		<path opacity="0.3" clip-path="url(#SVGID_10_)" fill="#091426" enable-background="new    " d="M1241.8,456.1
			c-3.8-0.7-7.6-1.3-11.6-1.8c3.1,0.8,6.3,1.6,9.3,2.6c5.4,1.7,10.6,4.1,15.6,6.9c5.1,2.8,9.8,5.9,14.5,9.3l0.6-0.8
			c-1-0.9-2.1-1.6-3.1-2.5l0.2,1.5C1267.2,471.4,1258.4,462.5,1241.8,456.1z"/>
		<path opacity="0.3" clip-path="url(#SVGID_10_)" fill="#091426" enable-background="new    " d="M1172,456.3
			c6.5-1.4,13.1-2.8,19.7-3.7c-4.6,0.2-8.8,0.7-12.2,1.1c-10.4,1.7-20.4,5-27.3,7.6c1-0.3,2-0.6,3.1-0.9
			C1160.8,459,1166.4,457.6,1172,456.3z"/>
		<path opacity="0.3" clip-path="url(#SVGID_10_)" fill="#091426" enable-background="new    " d="M1245.6,456.9
			c-1.2-0.3-2.6-0.6-3.9-0.8c16.6,6.4,25.6,15.3,25.6,15.3l-0.2-1.5c-3.5-2.8-7.3-5.2-11.1-7.6
			C1252.6,460.3,1249.2,458.4,1245.6,456.9z"/>
		<path opacity="0.3" clip-path="url(#SVGID_10_)" fill="#091426" enable-background="new    " d="M1003.8,537.3
			c3.6-4,5.1-11.8,5.8-19.9c-0.3,1.9-0.7,3.8-1.2,5.7C1007.1,527.9,1005.5,532.7,1003.8,537.3z"/>
		<path opacity="0.3" clip-path="url(#SVGID_10_)" fill="#091426" enable-background="new    " d="M970.6,474.3
			c0.5,0.3,1,0.5,1.4,0.8c0.4-0.1,0.7-0.1,1-0.2c1,0.1,1.9,0.3,2.9,0.4c3.1,0.5,6.2,1.3,9.2,2.5c3,1.1,5.8,2.5,8.4,4.3
			c2.6,1.7,5.1,3.7,7.2,6.1c6.2,6.8,9.4,16,9.3,25.2c0-0.1,0-0.1,0-0.2c0.7-10.6-0.3-15.4-5.7-22.5c-4.7-6.1-15.3-12.7-24.3-15.4
			c-1.5-0.5-3-0.8-4.3-1L970.6,474.3L970.6,474.3z"/>
		<path opacity="0.3" clip-path="url(#SVGID_10_)" fill="#091426" enable-background="new    " d="M991.3,491.2
			c2.2,2.9,4.1,6.1,5,9.8c1.6,6.8,3.9,9.5,5.1,14.1c0-0.9-0.1-1.6-0.2-2.5C1000.3,504.4,997.1,497,991.3,491.2z"/>
		<path opacity="0.3" clip-path="url(#SVGID_10_)" fill="#091426" enable-background="new    " d="M977.4,474.3l6.2,1.3
			c0.4,0,0.8,0.1,1.1,0.1c-2.1-0.7-4.2-1.2-6.4-1.6L977.4,474.3z"/>
		<path opacity="0.3" clip-path="url(#SVGID_10_)" fill="#091426" enable-background="new    " d="M1015.1,496.7
			c0.5,1.5,0.9,3.1,1.2,4.8c-0.2-1.1-0.6-2.7-1.1-4.6C1015.1,496.8,1015.1,496.8,1015.1,496.7z"/>
		<path opacity="0.3" clip-path="url(#SVGID_10_)" fill="#091426" enable-background="new    " d="M993.5,474.7
			c2.2,0.8,4.4,1.5,6.4,2.5c-1.3-0.9-2.7-1.6-4-2.3c-7.2-3.2-11-2-11.4-1.8c0.7-0.1,1.3-0.2,2-0.3
			C988.8,473.3,991.2,474,993.5,474.7z"/>
		<path opacity="0.3" clip-path="url(#SVGID_10_)" fill="#091426" enable-background="new    " d="M1003.7,476.6
			c-0.3-0.1-0.5-0.3-0.8-0.4c0.6,0.6,1.1,1.1,1.8,1.8c5.3,5.4,7.2,10.7,7.9,7.3c-0.4-0.7-0.8-1.2-1.2-1.8
			C1009.5,480.6,1006.8,478.3,1003.7,476.6z"/>
		<path opacity="0.3" clip-path="url(#SVGID_10_)" fill="#091426" enable-background="new    " d="M989.9,471.4
			c1,0.1,1.9,0.2,2.7,0.2c1.2-0.3,2.6-0.5,3.8-0.8c-1.1-0.4-1.8-0.6-1.8-0.6L989.9,471.4z"/>
		<path opacity="0.3" clip-path="url(#SVGID_10_)" fill="#091426" enable-background="new    " d="M975.9,460.7l-0.4-0.3
			c-2.2,2.4-4.1,5.2-6.7,7.8C971.4,465.5,973.8,463,975.9,460.7z"/>
		<path opacity="0.3" clip-path="url(#SVGID_10_)" fill="#091426" enable-background="new    " d="M1298.9,1025.1
			c1.5-1.7,3.1-3.4,4.6-5.2c4.7-5.3,9.1-10.8,13.3-16.5c-9.6,10.3-19.4,20.5-29.4,30.2c-2.6,2.4-5.1,4.9-7.7,7.2
			c-2.6,2.3-5.2,4.7-7.9,7c-5.3,4.7-10.5,9.4-15.5,14.6c-1.2,1.2-2.5,2.6-3.6,3.9c-1.2,1.3-2.4,2.7-3.5,4c-2.3,2.8-4.6,5.5-6.6,8.5
			c-0.6,0.8-1,1.5-1.5,2.3c-0.5,0.8-1,1.5-1.4,2.3c-0.5,0.8-1,1.5-1.5,2.3c1.9-3.3,4-6.6,6.1-9.7l2.2-3.1l2.3-3.1
			c1.5-2.1,3.1-4.2,4.6-6.3c6.2-8.4,12.5-16.6,19.1-24.8c6.5-8.2,13.1-16.2,19.7-24.4l9.8-12.2l4.9-6.1c1.6-2.1,3.2-4.2,4.8-6.3
			c6.2-8.5,11.8-17.5,16.2-27c4.5-9.5,7.8-19.7,9.2-30.1c0.4-2.6,0.5-5.2,0.6-7.9s0-5.2-0.2-7.9c-0.4-5.2-1.1-10.5-2.2-15.6
			c-2.1-10.3-5.2-20.4-9-30.2l-1.4-3.6l-1.5-3.6c-1-2.5-2.1-4.8-3.2-7.2l-6.8-14.1l-6.8-14.1c-2.3-4.7-4.5-9.4-6.7-14.1
			c-4.3-9.4-8.5-19.1-12.1-28.8c-3.7-9.7-6.9-19.7-9.6-29.7c-2.4-8.9-4.5-17.7-6.2-26.8c2.5,7,5.4,13.8,8.6,20.4
			c4.3,9.2,8.9,18.1,13.6,27.1c4.9,8.9,10,17.6,15.5,26.1c2.8,4.3,5.5,8.5,8.5,12.6c2.9,4.1,5.8,8.2,8.6,12.4
			c5.6,8.3,11,16.9,15.6,25.7c2.3,4.4,4.5,8.9,6.5,13.5c0.6,1.4,1.1,2.9,1.7,4.4c0.3,0.5,0.6,1,0.9,1.6c2.9,5.7,5.7,17.3,7.7,26.7
			c0.3,1,0.5,2.1,0.8,3.2c0.6,2.5,0.9,5,2.1,7.3c0.2-2.6-0.3-5.1-0.8-7.5c-0.5-2.5-1-5-1.5-7.4c-1.1-5-2.4-9.8-3.7-14.7
			c-2.7-9.7-6.5-19.3-11.2-28.2c-4.7-9.1-9.9-17.7-15.5-26.1c-2.8-4.2-5.6-8.4-8.5-12.6c-2.9-4.1-5.6-8.3-8.3-12.5
			c-5.4-8.4-10.6-17.1-15.4-26c-4.9-8.8-9.3-17.8-13.8-26.8c-5.8-11.4-10.6-23.2-13.8-35.4c-0.1-1-0.3-1.9-0.4-3
			c-0.4-3.2-0.7-6.4-0.9-9.6c0.4-1.4,0.9-2.8,1.2-4.2c0.7,3.8,1.4,7.7,2.2,11.5c1.1,4.9,2.4,9.7,4.1,14.4c1.7,4.8,3.6,9.3,5.7,13.8
			c4.2,9.1,9,17.8,14.1,26.3c2.6,4.3,5.3,8.5,8.2,12.5c1.4,2,2.9,4.1,4.4,6.1c1.5,2,3.1,3.9,5.2,5.4c-6.2-7.8-11.7-16-16.9-24.6
			c-5.1-8.6-9.7-17.4-13.8-26.4c-2-4.5-3.9-9.2-5.5-13.7c-1.6-4.7-2.8-9.4-3.8-14.3c-1-5-2-10-2.8-15c0.5-1.4,0.9-3,1.3-4.4
			c0.2,1.5,0.3,3,0.6,4.4c0.6,4,1.4,8.1,2.8,12c1.2,3.9,3.1,7.6,5.2,11.2c2.2,3.5,4.8,6.8,7.6,9.6c3,2.9,6.3,5.3,9.8,7.3
			c3.6,2,7.4,3.5,11.4,4.3l0.3-1c-3.8-1.1-7.4-2.7-10.8-4.8c-2-1.2-3.9-2.7-5.6-4.2c-0.1,0-0.1-0.1-0.2-0.1
			c-3.1-2.3-5.7-5.3-7.7-8.9c-0.9-1.2-1.7-2.6-2.5-3.9c-1.9-3.4-3.5-7.1-4.6-10.8c-1.1-3.7-1.7-7.6-2.2-11.4
			c-0.4-3.9-0.6-7.8-0.6-11.8c0-1.3,0-2.8,0.1-4.1c7.3-23.9,14.4-46.8,14.4-46.8s0.9,2.7,1.7,5.1c-0.5,1.7-1,3.3-1.4,5
			c-1,3.4-2.1,7-3.2,10.4c-2.2,6.9-4.5,13.8-6,21c-1.6,7.2-2.6,14.5-2.2,21.8l0.2,2.8c0.1,1,0.2,1.8,0.4,2.8c0.2,1.7,0.6,3.4,1,5.2
			c-1.8-10.7-0.9-23,2.6-35c6.7-23.4,10.3-35.3,10.3-35.3c1.3-2.2,2.5-4.5,3.4-6.9c0.5-2.4,0.9-4.9,1.1-7.3c0.5-3.6,0.8-7.3,0.7-11
			c0-1,0-1.8-0.1-2.8c0-1-0.1-1.8-0.2-2.8l-0.2-2.8l-0.3-2.8c-0.5-3.6-1.1-7.3-2-10.8c-1.7-7.2-4.7-13.8-8-20.3
			c-0.8-1.4-1.5-2.9-2.4-4.3c1.9,3,3.7,6,5.4,9.1l2.9,5.2l1.3,2.6c0.2,0.5,0.5,0.9,0.7,1.3l0.6,1.3c1.6,3.5,2.8,7.3,3.7,11.1
			c0.3,1.2,0.6,2.5,0.8,3.8c-0.2-3.1-0.6-6.1-1.1-9c-2.6-13.6-15.8-34.6-33.9-50.9c-18-16.2-42.4-28.5-55.7-32.1
			c-7.3-1.9-11.6-4.4-13.2-6c-2.7-1-5.2-2-7.8-3.1c-1.8-0.8-3.6-1.5-5.4-2.4l-2.7-1.2c-0.9-0.4-1.8-0.9-2.6-1.3l-0.6,0.8
			c1,0.6,1.8,1,2.7,1.5l2.7,1.3c1.8,0.9,3.5,1.7,5.3,2.6c3.6,1.6,7.3,3.2,11.1,4.6c1.9,0.7,3.8,1.3,5.6,2c1.9,0.7,3.7,1.2,5.5,2
			c3.7,1.4,7.3,3,10.9,4.6c14.3,6.7,27.5,15.5,39.5,25.6c3,2.6,6,5.1,8.8,7.7c2.2,2.1,4.3,4.3,6.4,6.6c1.8,2.5,3.5,5.1,5.1,7.7
			c1.9,3.1,3.7,6.2,5.3,9.4c3.2,6.4,6,13.2,7.5,20.1c1.6,7,2.4,14.1,2.2,21.3c-0.2,6.4-1,12.7-2.5,19c-2.2-9.2-7.6-26.3-35.9-56.1
			c-29.2-30.7-72.5-53.7-146.7-68.3l80.2,43.5l48.9,202.8c0,0,13.3,171.5,21.5,198.9c8.2,27.5-11.4,61.6-24.1,87.7
			c-12.8,26.1-10.8,37.3-10.8,37.3c2.9-23.8,24.3-42.6,43.4-94.8c19.1-52.4,8.5-99.1,12.4-86.5c3.9,12.6,4.5,47.3-5.8,84.3
			c-10.3,37-34.2,74-34.2,74s34.4-43.2,48.4-65.6c13.9-22.4,12.1-49.8,9.3-73.9c-2.9-24.1-7.4-34.8-7.4-34.8s2.2,1.7,10.1,25.2
			c7.9,23.6,5.1,43.2,5.1,43.2c10-23,5.5-51.4-3.9-88.3c-9.3-36.9-12.2-36.7-24.4-59.4c-12.1-22.5-21.5-58.8-13.2-88.4
			c0.8,4.4,1.8,8.7,3,13c0.3,1.8,0.6,3.7,0.9,5.5c1.7,10.3,4,20.5,6.7,30.7c2.7,10.1,5.7,20.1,9.3,30c3.6,9.8,7.6,19.5,11.9,29
			s8.8,19,13.3,28.4l6.8,14.1c2.2,4.7,4.4,9.4,6.3,14.3c3.9,9.6,7.1,19.6,9.2,29.8c1,5.1,1.8,10.2,2.2,15.4
			c0.4,5.2,0.4,10.3-0.4,15.5c-1.4,10.2-4.8,20.1-9.2,29.5c-4.5,9.3-10,18.1-16.2,26.5c-1.5,2.1-3.1,4.1-4.8,6.2l-5,6.1l-9.9,12.1
			c-6.6,8.1-13.3,16.1-19.8,24.2c-6.6,8.1-13,16.4-19.1,24.9c-1.5,2.1-3.1,4.3-4.5,6.4l-2.3,3.2l-2.2,3.2c-2.9,4.4-5.6,8.9-8.1,13.5
			c-5,9.3-8.4,19.4-10.8,29.6c-1.2,5.2-2.2,10.3-3.1,15.5l-0.7,3.8c-1.6-0.1-2.9-0.6-3.2-2c-1.1-4.3-7.2-17.7,0-67.6l-12.7,39.4
			l8.3,63.9l28.5,18.5c0,0-7.7-14.6-12.9-31.1c-5.2-16.5,0.2-22.7,0.2-22.7s-0.5,0.2-1.1,0.4c1.1-5.3,2.5-10.7,3.8-15.9
			c1.8-6.8,3.7-13.5,6.1-20c0.6-1.6,1.2-3.2,1.9-4.9c0.7-1.6,1.4-3.1,2.2-4.7s1.6-3.1,2.6-4.5c0.4-0.8,0.9-1.5,1.3-2.2
			c0.5-0.8,0.9-1.4,1.4-2.2c0.6-1,1.2-1.8,1.9-2.8c2.4-5.3,7.5-12,11.3-15.8C1265.8,1055.1,1288.7,1035.6,1298.9,1025.1z
			 M1266.7,702.6c0-0.1,0.1-0.2,0.1-0.3c0,0.4,0.1,0.7,0.1,1C1266.8,703.1,1266.7,702.8,1266.7,702.6z"/>
		<path opacity="0.3" clip-path="url(#SVGID_10_)" fill="#091426" enable-background="new    " d="M1279.8,703.6l0.4,1.3l0.8,2.7
			c0.7,1.7,1.4,3.3,2.3,5c0-2-0.5-3.7-1-5.4l-0.7-2.6l-0.4-1.2c-0.1-0.5-0.2-0.9-0.3-1.3c-0.3-1.7-0.7-3.5-0.9-5.2
			c-0.1-0.9-0.2-1.8-0.3-2.7l-0.1-2.7v-1.3c0-0.5,0-0.9,0-1.3l0.1-2.7c0-0.9,0.2-1.8,0.2-2.7c0.1-0.9,0.2-1.8,0.3-2.7
			c0.5-3.5,1.1-7.1,2-10.5c2.7-11.5,7.2-22.8,10.5-34.4c0.4-0.4,0.8-1.4,0.9-3.1c0.4-1.4,0.8-2.9,1-4.3c0.3-1.1,0.6-2.4,0.8-3.5
			c-1,2.4-2.1,4.7-3.4,6.9c0,0-3.7,11.9-10.3,35.3c-3.4,11.9-4.4,24.3-2.6,35c0,0.1,0,0.2,0.1,0.3
			C1279.6,702.7,1279.7,703.2,1279.8,703.6z"/>
		<path opacity="0.3" clip-path="url(#SVGID_10_)" fill="#091426" enable-background="new    " d="M1209.1,502.7
			c13.4,3.5,37.7,15.8,55.7,32.1c18,16.2,31.3,37.2,33.9,50.9c0.5,2.8,1,5.8,1.1,9c1.1,6.4,1.4,13.1,0.5,19.5l1,0.2
			c0.8-4,1-7.9,1-11.9c-0.1-4-0.6-8-1.3-11.9s-1.9-7.8-3.4-11.5l-0.6-1.4c-0.2-0.5-0.4-1-0.7-1.3l-1.2-2.8c-1-1.7-1.8-3.5-2.8-5.2
			c-3.7-7-7.9-13.9-13-20.1c-5.1-6.3-10.9-11.8-17.1-16.9c-3.1-2.6-6.2-5-9.4-7.3c-3.2-2.3-6.6-4.6-9.9-6.7c-3.4-2.1-6.9-4.2-10.4-6
			c-3.5-1.8-7.2-3.6-10.8-5.2c-3.6-1.6-7.3-3.1-11.2-4.4c-1.9-0.7-3.8-1.2-5.7-1.9c-1.9-0.6-3.7-1.1-5.6-1.8c-1-0.4-2.2-0.8-3.2-1.1
			C1197.4,498.3,1201.8,500.7,1209.1,502.7z"/>
		<path opacity="0.3" clip-path="url(#SVGID_10_)" fill="#091426" enable-background="new    " d="M1284.6,717
			c2,3.5,4.6,6.5,7.7,8.9c0.1,0,0.1,0.1,0.2,0.1c-1.2-1-2.4-2.1-3.4-3.3C1287.4,720.8,1285.9,718.9,1284.6,717z"/>
		<path opacity="0.3" clip-path="url(#SVGID_10_)" fill="#091426" enable-background="new    " d="M1258.6,1064.6
			c4.8-5.1,9.9-9.9,15.1-14.7c2.6-2.4,5.2-4.8,7.8-7.2c2.6-2.4,5.1-4.9,7.6-7.4c3.3-3.3,6.7-6.8,9.8-10.3
			c-10.2,10.6-33.1,30.1-40.2,37.1c-3.8,3.8-8.9,10.4-11.3,15.8c1.3-1.9,2.8-3.7,4.3-5.6C1253.9,1069.7,1256.2,1067.1,1258.6,1064.6
			z"/>
		<path opacity="0.3" clip-path="url(#SVGID_10_)" fill="#091426" enable-background="new    " d="M1350,870.5
			c1.2,3.2,2.3,6.5,3.3,9.7c1.5,4.8,3,9.6,4.2,14.5c0.4,1.3,0.7,2.8,1,4.1c-2-9.4-4.9-21-7.7-26.7
			C1350.4,871.5,1350.2,871,1350,870.5z"/>
		<path opacity="0.3" clip-path="url(#SVGID_10_)" fill="#091426" enable-background="new    " d="M1249.4,1087.5
			c-0.2,0.4-0.4,0.9-0.6,1.3c-0.2,0.5-0.4,0.9-0.6,1.3s-0.4,0.9-0.5,1.3c-0.3,1-0.5,1.9-0.7,2.9l0.9,0.3c2.2-3.1,4.3-5.9,6.4-8.9
			c0.4-0.5,0.8-1,1.1-1.5c-2.6,1.2-4.5,1.9-5.5,2L1249.4,1087.5z"/>
		<path opacity="0.3" clip-path="url(#SVGID_10_)" fill="#091426" enable-background="new    " d="M1276.6,1061.4
			c5.2-5.2,10.8-10.2,16.1-15.4c2.6-2.5,5.4-4.8,8.4-7c3-2.3,5.9-4.7,8.7-7.3c2.8-2.6,5.3-5.3,7.9-8.1c2.5-2.9,4.9-5.7,7.2-8.7
			c4.6-5.9,9-11.9,13.1-18.1c4.1-6.2,7.9-12.6,11.4-19.2c1.8-3.2,3.4-6.7,5-10c1.5-3.4,3-6.9,4.1-10.4c-3,6.9-6.6,13.3-10.4,19.7
			c-3.8,6.3-8,12.5-12.3,18.4c-4.3,6-8.9,11.8-13.5,17.6c-2.4,2.9-4.8,5.6-7.3,8.3c-2.5,2.7-5.1,5.2-7.8,7.7
			c-2.7,2.4-5.6,4.6-8.6,6.9c-3,2.2-6,4.6-8.8,7.2c-5.4,5.1-10.9,10.1-16.1,15.4c-5.3,5.2-10.5,10.7-15.3,16.4
			c-1.2,1.4-2.4,2.9-3.5,4.4c-1.1,1.4-2.3,3.1-3.3,4.6c-0.6,0.8-1,1.6-1.4,2.5c1-0.1,3-0.8,5.5-2c1.8-2.4,3.7-4.8,5.7-7
			C1266.1,1071.8,1271.3,1066.6,1276.6,1061.4z"/>
	</g>
</g>
</svg>
