<?xml version="1.0" encoding="utf-8"?>
<!-- Generator: Adobe Illustrator 21.0.2, SVG Export Plug-In . SVG Version: 6.00 Build 0)  -->
<svg version="1.1" id="_x31_4_x5F_Top_x5F_ArmorSuit__x28_ARM_x29_"
	 xmlns="http://www.w3.org/2000/svg" xmlns:xlink="http://www.w3.org/1999/xlink" x="0px" y="0px" viewBox="0 0 2000 2000"
	 enable-background="new 0 0 2000 2000" xml:space="preserve">
<g>
	<g>
		<g>
			<path fill="#323232" d="M964.1,1098.9c-12.3,55.6-85.2,56.9-85.2,56.9s-5.7-0.2-8.2,3s-2.4,3-3.3,9.3c-1,6.2-3,3.6-10.3,9.8
				c-7.4,6.2-10.9,15.5-10.9,15.5s3.9,2.3,7.4,8.2s2.1,12.2-9.2,22.4c-11.4,10.2-15.8,10.5-26.7,9.6l-8.9-1.9l-41.4-9L708.8,1094
				l-0.5-1l16.1-41.9l0.8-2c0,0,198.4-32,223.6-33.4c6.2-0.3,11,1.2,14.6,4.5C974.4,1030.1,973.3,1056.9,964.1,1098.9z"/>
		</g>
		<path opacity="0.3" fill="#091426" enable-background="new    " d="M844.2,1223.9c11.4-10.2,12.8-16.5,9.2-22.4s-7.4-8.2-7.4-8.2
			s3.5-9.3,10.9-15.5s9.4-3.6,10.3-9.8c1-6.2,0.8-6.1,3.3-9.3s8.2-3,8.2-3s72.9-1.2,85.2-56.9c9.3-41.9,10.3-68.7-0.6-78.8
			l-14.4,1.3c0,0,5.3,23.6,1,38.7s-11.9,17.9-14.6,27.2c-2.7,9.3-4.1,8.2-23.2,24.5c-19.1,16.3-43.2,33.7-43.7,32.6
			s-40.6-50.8-78.1-72.8c-25.6-15-51.8-19.2-66-20.4l-16.1,41.9l0.5,1c10.7,4,50,19.1,74.7,32.5c28.9,15.7,34.7,63,34.7,63
			c-32-33.9-47.8-21.5-42.9-11.7c5,9.8,20.3,16.3,36.6,41.9l-3.4,11.9l8.9,1.9C828.5,1234.4,832.9,1234.1,844.2,1223.9z"/>
		<path fill="#323232" d="M1366,1089.5c-7.8-12-6-23.2-6-23.2c-4-0.5-12,7.3-11.8,17.7c0.2,10.4,4.1,17.4,4.1,17.4
			c-0.1,0.3-0.2,0.6-0.2,0.9c-1.5,5.4-3.2,15.9-4,21.5c-0.4,2.3-0.6,3.8-0.6,3.8s-0.1,0-0.2,0.1c-1,0.6-5.9,3.4-14.6,9.6
			c-5.4,3.8-8.4,6.4-10,7.8c-1.3,1.2-1.7,1.7-1.7,1.7s-2.4-5.2-6-4.9c-3,0.2-3.5,3.3-7.1,4c-0.7,0.1-1.6,0.2-2.6,0
			c-4.4-0.5-7.5-5.1-10.4-11.5c-1.1-2.5-2.2-5.2-3.3-8c-0.7-1.7-1.2-3.5-1.8-5.4c-0.8-3.1-1.5-6.4-2.1-9.7c-1.2-6.8-2-13.9-3.1-20.5
			c0-0.1,0-0.1,0-0.2c-2.1-11.6-4.9-15.4-9.7-17.4c-4.9-2-14-2.5-14-2.5s-2.9,4.4-9.8,3.6s-6.5-10.8-6.5-10.8
			c-20.1-1.1-18.8-8.8-18.8-8.8l-6.3-9.6l-66.6-101.5l-46.9,15l57.3,177.7l15.1,19.4l4.3,5.5l1.9,2.4c-13.1,17.3-11,30.8-11,30.8
			s5.8,14.3,15.9,25.7c1.7,1.9,3.5,3.7,5.4,5.4c3.7,3.2,10.3,8.8,18.7,15.3c22.5,17.5,57.9,42.3,84.5,49.3c36.6,9.7,74.2-1,74.2-1
			l2.6-2.7l4.1-33.8l1-50.8l1.3-63.2l0.6-31.2C1381.5,1107.5,1373.8,1101.5,1366,1089.5z"/>
		<path fill="#664A33" d="M1237.3,1148.4c9.7-9.5,15.2-16.6,22.2-18.6s9.7,0,9.7,0l-10.6-22.1c0,0-13,4.1-32.3,11.2
			s-37,35.1-37,35.1l-6.9,7.2l1.9,2.4c-13.1,17.3-11,30.8-11,30.8s5.8,14.3,15.9,25.7C1198.1,1190.8,1228.2,1157.3,1237.3,1148.4z"
			/>
		<path fill="#6C450E" d="M1266.8,1256.2l24.8-4.3c0,0,0.5-47.6,10.8-73c10.2-25.4,18.6-32.1,18.6-32.1s-2.4-5.2-6-4.9
			c-3,0.2-3.5,3.3-7.1,4c-4.6,5.5-11,13.8-18.8,25.5C1273.2,1195.2,1262.9,1226.8,1266.8,1256.2z"/>
		<path fill="#6C450E" d="M1321,1203.8c13.4,18.5,25.9,26.6,53.5,34.3l1-42.1c0,0-15.1,4.6-24.7,3.5s-19.4-18.3-16.1-35.2
			c3.4-16.9,11.5-24.3,11.5-24.3l1.1-12.5c0,0-5.1,2.7-14.8,9.7c-5.4,3.8-8.4,6.4-9.9,7.8C1315.1,1161.9,1309.8,1188.4,1321,1203.8z
			"/>
		<path fill="#323232" d="M811,1368.1l-76.5-99.7c0,0-51.6,47.6-53.2,90.7l5.7,21.9v0.1l0,0c0.6,0.2,14.9,4.6,25.1,10.9
			c1,0.6,2,1.2,2.9,1.9c0.7,0.5,1.4,1,2.1,1.4c9.8,6.6,23.5,14,29.6,17.8c0.4,0.2,0.8,0.5,1.1,0.7c0.1,0.1,0.2,0.2,0.3,0.2
			c5.5,3.9,5.3,11.1-0.3,12.7c-2.2,0.6-6.1,2.4-10.4,4.8c-7,3.8-15.2,9.1-19,13.3c-0.9,1-1.8,2.2-2.5,3.4
			c-4.1,6.7-5.2,15.3-5.2,15.3l26.2,13.8l100.1-9.6l8.7-15.5l12.5-22.5L811,1368.1z"/>
		<path fill="#664A32" d="M749.1,1347c0,0-1.8-2.2-15.6,15.1c-9.5,11.8-14.3,25.6-16.5,33.1c9.8,6.6,23.5,14,29.6,17.8
			c1.3-18.7,8-32.7,15.4-40.2C770.2,1364.6,749.1,1347,749.1,1347z"/>
		<path opacity="0.3" fill="#091426" enable-background="new    " d="M737,1477.3l100.1-9.6l8.7-15.5l4.6-11.9l-39.4-72.2
			l-76.5-99.7c0,0-51.6,47.6-53.2,90.7l5.7,21.9v0.1c0.6,0.2,14.9,4.6,25.1,10.9c0.1-26.4,6.2-47.8,6.2-47.8s11.6,30.7,20,46.9
			c6.3,12.1,9.5,17.8,9.8,23c5.5,3.9,5.3,11.1-0.3,12.7c-2.2,0.6-6.1,2.4-10.4,4.8c6.5,5,16,11.6,22.6,13.3l-7,8.8
			c0,0-15.9-6.1-37.1-5.4c-4.1,6.7-5.2,15.3-5.2,15.3L737,1477.3z"/>
		<path opacity="0.3" fill="#091426" enable-background="new    " d="M1227.9,1225.4c10.2-14,8.1-13.3,11.2-22.4
			s24.6-28.7,36.9-37.1c0,0-27.1,33.8-24.3,70.1s13.8,17.3,13.8,17.3s1.1-18.2,4.8-32.6c3.8-14.4,5.7-19,5.7-19s9,35.2,15.2,45.8
			c6.2,10.6,2-9.7,3.2-21.6s5.2-26.1,5.2-26.1s-3.3,22.4-1.6,29.5s2.8-4,3.9-15c1.1-11.1,2.6-15.8,2.6-15.8s0,11.6,6.7,24.3
			c6.7,12.7,15.7,20.1,20.6,20.8c4.9,0.7,1.6-1.1-6.2-12.8c-7.8-11.7-13.8-24.8-10.1-47.9c0,0-1.6,15.5,17.2,32.6
			c18.8,17,40,18.4,40,18.4l7-31.9l1.3-63.2l-1.4-7.4c-2.5-9.5-5.6-11.5-9.8-9.7c-4.2,1.7-5.5,20-5.5,20s-0.6-12.1-5.7-24.5
			c-2.3-5.5-4.6-10.7-6.4-14.9c-1.5,5.4-3.2,15.9-4,21.5c-0.8,11.7,1.3,21.6,3.1,32.6c1.8,11.1,8.8,12.6,11.9,24.7
			c3,12.1,2.3,19,2.3,19s-6.1-1.9-15.7-14.2c-9.6-12.3-11.6-27.8-7-40.3c3.6-9.8,6-11.4,4.7-17.9c-1,0.6-5.9,3.4-14.6,9.6
			c-5.4,3.8-8.4,6.4-10,7.8c-1.3,1.2-1.7,1.7-1.7,1.7s-2.4-5.2-6-4.9c-3,0.2-3.5,3.3-7.1,4c-0.7,0.1-1.6,0.2-2.6,0
			c-4.4-0.5-7.5-5.1-10.4-11.5c-12.7,6.5-24.2,13.3-29.6,17.1c-14.6,10.3-34.9,35-34.9,35s-2.7-13.7-2.8-17.3
			c-0.1-3.7,13.8-21.6,29.7-31.2c12.1-7.4,26.4-14.2,32.5-17c-0.8-3.1-1.5-6.4-2.1-9.7l-20.4,10.3l-12.3-23.3c0,0,17.8-5.5,29.5-7.8
			c-2.1-11.6-4.9-15.4-9.7-17.4c-4.9-2-14-2.5-14-2.5s-2.9,4.4-9.8,3.6s-6.5-10.8-6.5-10.8c-20.1-1.1-18.8-8.8-18.8-8.8l-6.3-9.6
			l-47.4-11.3l-4.2,102.4l22.7,13.4c0,0-0.5-6.8,13.5-21.3s35.3-23.9,35.3-23.9l8.4,30.9c0,0-28,19.2-41.1,48.5l-12.7-14.5
			c0,0,4.3,0.9,9.1,0.7c4.9-0.2,5-1.9,1.4-6.4c-2.9-3.8-20.4-6.9-26.3-7.9l4.3,5.5l1.9,2.4c-13.1,17.3-11,30.8-11,30.8
			s5.8,14.3,15.9,25.7c1.7,1.9,3.5,3.7,5.4,5.4c3.7,3.2,10.3,8.8,18.7,15.3C1218.1,1236.7,1223.5,1231.4,1227.9,1225.4z
			 M1199.4,1126.4c0,0,0.1-8.5,3.1-21.6s8.8-19.2,8.8-19.2l11.8,0.8C1223.1,1086.3,1205.3,1105.7,1199.4,1126.4z"/>
	</g>
	<g>
		<path fill="#2A4DA9" d="M1208.3,1166.1c-0.5-2.6-3.8-7.4-12.9-19.7c-2.6-3.5-5.1-6.1-7.4-8c-7.8-6.4-13.4-5.2-13.4-5.2
			s0.4-1.3,1-3.6c1.8-6.8,5.8-22.7,7.9-40.2c1.2-9.6,1.2-19.7,0.4-28.8c-1.1-13-3.8-24.1-6.7-29.7c-4.9-9.5-27.1-30.2-32.6-27.6
			c-5.5,2.5-18.5-22.2-35.8-49.1l-18.5,1.2L932.8,966h-0.7c0,0,7,47.2,18.6,56.9c5.2,4.3,8.8,11.7,10.9,19.9
			c0.6,4.3,1.3,8.4,1.9,12.1c0.5,6.5,0,12.9-1.3,18.2c-2.2,8.4-4.9,17.1-12.2,26.4c-5.8,7.3-14.4,15-27.9,23.3
			c-0.8,0.5-1.6,1-2.5,1.5c-33,19.7-40.1,23.2-40.1,23.2l-2.4,10.3c0,0,1.3-1.5,5.3,1.1c4,2.7,6.1,15.2,6.1,15.2s2.1-2,5.1,1.3
			c2.9,3.3,0.7,11.9-5.9,16.5c-6.5,4.6-5.9,16.2,4.5,16.1c6.8-0.1,23.8-3,34.8-5c5.8-1,10-1.8,10-1.8l2.7-9.3c0,0,8.1-2.5,23.9-6.3
			c3.4-0.8,7.1-1.7,11.2-2.6c12.4-2.8,27.9-6,46.6-9.3c4.9-0.9,10.1-1.8,15.5-2.7c7.1-1.2,13.7-2.2,19.8-3.1
			c19.2-2.8,33.5-4.3,45.5-5c18.2-1,31-0.2,46.8,1c29.6,2.1,58.1,5.8,59.1,3.6C1208.3,1167.2,1208.4,1166.7,1208.3,1166.1z"/>
		<path fill="#97AEEC" d="M1096.8,1058.1c4.3,13.2,6.7,52.8-3,80.8l8.5,24.2c18.2-1,31-0.2,46.8,1c29.6,2.1,58.1,5.8,59.1,3.6
			c0.9-2.2-1.5-6-12.8-21.2s-20.8-13.2-20.8-13.2s6-20.4,8.9-43.8s-1.3-49-6.3-58.5c-4.9-9.5-27.1-30.1-32.6-27.6
			s-18.6-22.2-35.8-49.1l-18.4,1.2l-44,35.2C1084.9,1013.1,1092.4,1044.9,1096.8,1058.1z"/>
		<path fill="#25184E" d="M1056.9,1160c-1.7-5.8-7.6-15.9-11.3-17.3c-3.7-1.4-10.1-1.6-10.1-1.6c-5.9-34.3-25.4-114.1-45.4-159
			c0,0-34.3-18.6-22.4,3.4c11.8,22,17.7,52.9,25.6,95.7c7.8,42.8,8,69.9,8,69.9l16.4-4.8l3.9,27.6c5-0.9,10.1-1.8,15.5-2.7
			c7.1-1.2,13.7-2.2,19.7-3.1C1057.3,1165.6,1057.6,1162.6,1056.9,1160z"/>
		<path fill="#97AEEC" d="M950.7,1022.9c5.2,4.3,8.8,11.7,10.9,19.9l0,0c-5.4-36.4-10.8-45.6-28.8-76.8h-0.7
			C932.1,966,939.1,1013.3,950.7,1022.9z"/>
		<path fill="#97AEEC" d="M973,1126.5c0.6-26.1-4.3-41.1-9.5-71.6c0.5,6.5,0,12.9-1.3,18.1c-2.2,8.4-4.9,17.1-12.3,26.4l13.8,86.2
			c3.4-0.8,7.1-1.7,11.2-2.6C972.2,1170.1,972.5,1149.6,973,1126.5z"/>
		<path fill="#97AEEC" d="M919.6,1124.4c-33,19.7-40.1,23.2-40.1,23.2l-2.4,10.3c0,0,1.3-1.5,5.3,1.1s6.1,15.2,6.1,15.2
			s2.1-2,5.1,1.3s0.7,11.9-5.9,16.5c-6.5,4.6-5.9,16.2,4.5,16.1c6.8-0.1,23.8-3,34.9-4.9c-1.1-15.5-3.2-46.5-5.1-80.3
			C921.2,1123.4,920.4,1123.9,919.6,1124.4z"/>
		<path fill="#D8D8D8" d="M1076.1,980.7c24.8,35,34.2,55.5,40.2,69.9s5,42,5.6,51s6.5,20.4,10.5,18c4.1-2.4,10.9-11.5,10.2-31
			s-15.8-79.6-50.2-107.9L1076.1,980.7L1076.1,980.7z"/>
		<path fill="#D8D8D8" d="M1132.4,1133.3c13.8,7.7,31.5,26.8,31.5,26.8l21.6,0.8c0,0-10.7-14.3-34.8-27.6L1132.4,1133.3
			L1132.4,1133.3z"/>
	</g>
	<path opacity="0.3" fill="#091426" enable-background="new    " d="M1144.6,1003.4c-5.5,2.5-18.5-22.2-35.8-49.1l-18.5,1.2
		L932.8,966c9,15.6,14.9,25.7,19.1,36.5c4.3,10.8,7,22.1,9.7,40.3c1,3.9,1.6,8.1,1.9,12.1c0.5,6.5,0,12.9-1.3,18.2
		c-2.2,8.4-4.9,17.1-12.2,26.4c-5.8,7.3-14.4,15-27.9,23.3c-0.8,0.5-1.6,1-2.5,1.5c-33,19.7-40.1,23.2-40.1,23.2l-2.4,10.3
		c0,0,1.3-1.5,5.3,1.1c4,2.7,6.1,15.2,6.1,15.2s2.1-2,5.1,1.3c2.9,3.3,0.7,11.9-5.9,16.5c-6.5,4.6-5.9,16.2,4.5,16.1
		c6.8-0.1,23.8-3,34.8-5c5.8-1,10-1.8,10-1.8l2.7-9.3c0,0,8.1-2.5,23.9-6.3c3.4-0.8,7.1-1.7,11.2-2.6c12.4-2.8,27.9-6,46.6-9.3
		c4.9-0.9,10.1-1.8,15.5-2.7c7.1-1.2,13.7-2.2,19.8-3.1c19.2-2.8,33.5-4.3,45.5-5c18.2-1,31-0.2,46.8,1c29.6,2.1,58.1,5.8,59.1,3.6
		c0.2-0.4,0.2-0.9,0.1-1.5c-17.4-11-92.6-11.9-142.1-6c-57.8,6.9-102,19.6-102,19.6l-2.2-14.6c71.7-20.2,123.6-29.4,158.2-31.2
		c29.4-1.5,59.4,3.2,67.8,4.7c-7.8-6.4-13.4-5.2-13.4-5.2s0.4-1.3,1-3.6c-29.3-1.7-95.5-4.3-133.3,4.7
		c-49.5,11.7-82.7,26.5-82.7,26.5l-11.4-51.7c0,0,7.3-3.6,16.6-16.9s11.1-29.7,7-47s-4.4-35.1-4.4-35.1s58.5,13.8,94.7,13.7
		c36.1-0.1,59.7-6.1,59.7-6.1c-1.2,12.2-0.7,13.7,7,17.4c7.2,3.5,29.3,14.6,55.1,25.5c-1.1-13-3.8-24.1-6.7-29.7
		C1172.2,1021.5,1150.1,1000.8,1144.6,1003.4z M914.6,1138.9c0.3-0.7,22.6-19.2,22.6-19.2l6.2,47.4l-23.1,6.7c0,0,0.5-8.5-1.1-17.1
		S914.3,1139.6,914.6,1138.9z M920.1,1193.3c-2.5-4.6,0.4-6.3,0.8-9.2c0.4-2.9-1.2-2.9-1.8-4.5l24.2-7.2l0.9,13L920.1,1193.3z"/>
	<g>
		<g>
			<path fill="#2A4DA9" d="M1352.5,1275.2c-11-7.5-14.9-17.6-19.7-26.5c-4.8-9-5.2-8.9-8.7-8.3c-3.4,0.6-33.8,5.6-46.2,7.1
				c-12.3,1.5-16.7-7-21.5-12.5s-19.8-22.4-19.8-22.4s-2.3,1.2-5.7,2.9c-5.1,2.7-12.8,6.7-19.4,10.5c-2.1,1.2-4.1,2.4-5.9,3.5
				c-4.1,2.5-7,4.6-7.3,5.6c-1.1,3.6-3.5,13.7-0.8,18.1s9.3,13.8,30.5,37.2c21.2,23.4,36.2,29.9,59.5,36.5s49.2-0.4,59.7-8.3
				c5.6-4.3,12.2-12.4,17.1-19c4.2-5.6,7.2-10,7.5-10.1C1371.9,1289.2,1363.5,1282.7,1352.5,1275.2z"/>
			<path fill="#97AEEC" d="M1316,1285.8c35.1,9.8,47,8,47,8s-14.5-12.6-22.5-24s-14.3-24.3-14.3-24.3s-42.1,7.3-50.2,8.3
				s-10.7-2.8-16.1-8.7c-4.7-5.1-15.9-15.4-28.9-29.8c-5.1,2.7-12.8,6.7-19.4,10.5c8.3,6.3,26.3,19.8,37.2,27.6
				C1263.4,1263.9,1280.9,1276,1316,1285.8z"/>
			<path opacity="0.3" fill="#091426" enable-background="new    " d="M1349.7,1307.5c-5.8,6.7-7.3,6.3-24,5s-39.5-11.5-64.7-25.2
				c-22.8-12.4-35.6-31-55.2-58c-4.1,2.5-7,4.6-7.3,5.6c-1.1,3.6-3.5,13.7-0.8,18.1s9.3,13.8,30.5,37.2
				c21.2,23.4,36.2,29.9,59.5,36.5s49.2-0.4,59.7-8.3c5.6-4.3,12.2-12.4,17.1-19C1362.4,1288.6,1355.3,1301.1,1349.7,1307.5z"/>
		</g>
		<g>
			<path fill="none" d="M1465.2,1161C1465.2,1161,1465.3,1161,1465.2,1161c-1.6,0.7-3.1,1.2-4.5,1.7
				C1462.2,1162.3,1463.7,1161.7,1465.2,1161z"/>
			<g>
				<path fill="#2A4DA9" d="M1525.7,1147.2c0,0-0.9,1.5-2.8,4.3c-5.3,7.9-18.2,26.4-40.8,55.2c-18.3,23.2-32.7,41.6-43.5,54.8
					c-7.4,9.1-13.1,15.8-17.2,19.8c-0.4,0.5-0.9,0.9-1.4,1.3c-2.4,2.1-5.2,3.7-8.1,5c-1,0.4-1.9,0.8-2.9,1.2
					c-8.7,3.2-17.7,3.8-19.5,3.9c-2.8,0.1-14.8-5.2-14.8-5.2s-0.1-0.4-0.2-1c-0.9-4.8-4.9-25.9-5.6-31.8c-0.9-6.7,2.1-54.5,2.9-69
					c0.8-13.3,5.5-67.6,6.8-79.2c0.1-1.1,0.2-1.8,0.3-2.1c0.7-3.3,3-2.2,4,0s11,23.2,25.5,34.7c13.7,10.8,40,14.5,59.2,15.1
					c1.2,0,2.3,0.1,3.4,0.1c1.8,0,3.7-0.1,5.4-0.3c16.9-2.4,30.6-15.8,30.6-15.8s2,1.2,5.1,2.9
					C1515.6,1142.8,1520.6,1145.3,1525.7,1147.2z"/>
			</g>
			<path fill="#97AEEC" d="M1525.7,1147.2c0,0-12.7,20.2-43.7,59.5c-18.3,23.2-32.7,41.6-43.5,54.8c-7.4,9.1-13.1,15.8-17.2,19.8
				c-0.4,0.5-0.9,0.9-1.4,1.3c-3.2,2.7-7,4.7-10.9,6.2c9.1-45,38.2-124.8,38.2-124.8s7.8,1.7,18.1-2.9c2.9-1.3,6.1-3.2,9.3-5.7
				c0.6-0.5,1.2-1,1.9-1.5c16.9-2.4,30.6-15.8,30.6-15.8s2,1.2,5.1,2.9C1515.6,1142.8,1520.6,1145.3,1525.7,1147.2z"/>
			<path fill="#25184E" d="M1512.1,1140.9c-15,16.2-31,17.3-31,17.3s-9.6,23.8-22.9,54.2c-8.6,19.7-15.7,38.3-19.7,49.1
				c-7.4,9.1-13.1,15.8-17.2,19.8c-0.4,0.5-0.9,0.9-1.4,1.3c3.5-12.4,12.5-43,18.1-57c6.5-16.3,24.3-57.8,27.2-64.6
				c0.3-0.6,0.4-0.9,0.4-0.9s-34.3,1.4-53.7-10.5c-17.4-10.6-26.1-21.5-33.4-43.2c0.1-1.1,0.2-1.8,0.3-2.1c0.7-3.3,3-2.2,4,0
				s11,23.2,25.5,34.7c14.5,11.4,43.3,14.9,62.7,15.2c1.8,0,3.7-0.1,5.4-0.3c16.9-2.4,30.6-15.8,30.6-15.8
				S1509,1139.2,1512.1,1140.9z"/>
		</g>
		<path opacity="0.3" fill="#091426" enable-background="new    " d="M1462.4,1169.2c0,0,22-5.8,42.2-11.3
			c8.3-2.3,14.1-4.5,18.2-6.4c1.9-2.9,2.8-4.3,2.8-4.3c-5-1.9-10-4.3-13.6-6.3c-3.1-1.6-5.1-2.9-5.1-2.9s-13.7,13.4-30.6,15.8
			c-1.8,0.2-3.6,0.4-5.4,0.3c-1.1,0-2.3,0-3.4-0.1c-22.4,12.3-37.1,13-37.1,13s-11.2,36.3-27.1,68.2c-14.8,29.5-23.2,36.3-28.8,51.2
			c0.1,0.6,0.2,1,0.2,1s12.1,5.2,14.8,5.2c1.8-0.1,10.8-0.6,19.5-3.9c1-0.4,1.9-0.7,2.9-1.2c2.8-9.3,7.8-24.4,15.6-42.9
			C1441.1,1212.8,1462.4,1169.2,1462.4,1169.2z"/>
	</g>
	<g>
		<g>
			<path fill="#2A4DA9" d="M1188.8,1032.3c0,1.3,0,2.4-0.1,3.5c3.1,1.3,6.3,2.6,9.6,3.9c1.3-6.2,6.6-30.9,10.5-45.6
				c4.1-15.2,4.9-28.4,6.2-53.4c-4.3-4.8-8.2-8.6-10.5-10.7c-0.7,9.1-2.7,30.9-6.9,53.7C1192.2,1013.8,1188.8,1021.1,1188.8,1032.3z
				"/>
			<path fill="#97AEEC" d="M1147,1012c0,0,9.3,6.4,17.5,11.6c3.1-6.6,7.5-16.6,11-25.8c5.5-14.5,12.5-32.9,18-67.3l-39.8,9.5
				C1156.6,972.8,1147,1012,1147,1012z"/>
			<path fill="#203C81" d="M1227.8,1049.1c-0.5,1.3-0.9,2.4-1.3,3.2c-0.6,1.4-0.9,2.3-0.9,2.3s-20-4.7-38.5-11.9
				c0.7-1.7,1.3-4,1.5-7c3.1,1.3,6.3,2.6,9.6,3.9C1208.7,1043.8,1219.7,1047.6,1227.8,1049.1z"/>
			<path fill="#2A4DA9" d="M1139.7,1015.5c0,0,9.4,7.2,21.8,14.6c0.6-1.2,1.7-3.5,3.1-6.5c-8.3-5.2-17.5-11.6-17.5-11.6
				s9.7-39.2,6.7-72l-3.5,0.8C1149.8,961.4,1139.7,1015.5,1139.7,1015.5z"/>
			<path fill="#25184E" d="M1204.5,930.1c-0.7,9.1-2.7,30.9-6.9,53.7c-5.5,29.9-8.9,37.2-8.8,48.5c0,1.3,0,2.4-0.1,3.5
				c-0.3,3-0.9,5.3-1.5,7c-2.3-0.9-4.6-1.8-6.8-2.8c-6.5-2.8-13-6.4-18.9-9.9c0.6-1.2,1.7-3.5,3.1-6.5c3.1-6.6,7.5-16.6,11-25.8
				c5.5-14.5,12.5-32.9,18-67.3l9-2.2C1202.5,928.3,1203.3,929,1204.5,930.1z"/>
			<path fill="#97AEEC" d="M1239.7,1015.2c-2.6,9.9-8.6,25.7-11.8,34c-8.1-1.5-19.2-5.3-29.5-9.4c1.3-6.2,6.6-30.9,10.5-45.6
				c4.1-15.2,4.9-28.4,6.2-53.4c0.4,0.5,0.8,1,1.3,1.5c3,3.5,6,7.5,8.7,11.7c1.8,2.8,3.3,5.7,4.7,8.6
				C1237.8,981.1,1243.3,1001.2,1239.7,1015.2z"/>
			<path fill="#D8D8D8" d="M1223.8,1032.7c1.5,0.1,6.1,2.5,5.9-27.3c-0.1-19-2.8-39.2-4.7-51.5c-2.7-4.3-5.7-8.2-8.7-11.7
				c1.7,37.2,0.5,62.1,2.4,77C1220.6,1034.3,1222.3,1032.6,1223.8,1032.7z"/>
		</g>
		<g opacity="0.3">
			<path fill="#091426" d="M1145.1,1016.8l0.6-4.8c0,0,13.2-3.3,44.1-14.6c22.2-8.1,37.8-17.5,44.9-22.1c-1.5-4.2-3.2-8.5-5-12.6
				c-1.3-3-2.9-5.9-4.7-8.6c-2.7-4.3-5.7-8.2-8.7-11.7c-0.4-0.5-0.9-1-1.3-1.5c-4.3-4.9-8.2-8.6-10.5-10.7c-1.3-1.1-2-1.8-2-1.8
				l-9,2.2l-39.8,9.5l-3.5,0.8c-0.4,20.6-10.5,74.7-10.5,74.7s9.4,7.2,21.8,14.6c5.9,3.5,12.4,7.1,18.9,9.9c2.2,1,4.5,1.9,6.8,2.8
				c18.5,7.2,38.5,11.9,38.5,11.9s0.3-0.8,0.9-2.3c0.2-0.5,0.4-1,0.6-1.6c-34.5-11.7-49.9-18.2-63.3-25.2
				C1150,1018.4,1145.1,1016.8,1145.1,1016.8z"/>
		</g>
	</g>
	<g>
		<path fill="#25184E" d="M1183,937.8c-27,9.1-32.1,10.8-34.4,12.2c-2.2,1.5-4.4,6.6-17.9,9.8S1107,967,1107,967s5.4,3.6,5.2,8.5
			s-7.5,7.3-15.8,12s-17.6,14.2-37.8,20.2c-20.1,6-43.6,1.2-63-7.4c-19.4-8.6-48.8-16-60-18.8s-48.5-53.2-48.5-53.2
			s10.5-3.2,24.6-8.2c5.7-2,12-4.3,18.4-6.8c22.2-8.7,64.6-17.7,105.2-29.8s67-16.6,78.1-19.2c5.8-1.4,9.9-1.7,13.8-1
			c3.5,0.7,6.8,2.2,11,4.5c8.8,5,44.7,25.7,44.7,25.7l7.1,0.3c0,0,19.5,16.5,26.1,22.2c1.1,0.9,1.8,1.6,2.1,1.8
			c0.1,0,0.1,0.1,0.1,0.1C1220,919.7,1216.3,926.5,1183,937.8z"/>
		<path fill="#2A4DA9" d="M1067.2,958.5c0,0,48.1-12.5,65-14.8s19.9-3.2,31.8-7.1c9.2-3.1,40.7-14,54.3-18.7l-0.1-0.1
			c-1.9-1.6-28.2-23.9-28.2-23.9l-7.1-0.3c0,0-36-20.8-44.7-25.7c-4.2-2.4-7.5-3.9-11-4.5c-33.5,39.3-74.3,87.7-74.3,87.7
			S1062,953.6,1067.2,958.5z"/>
		<path opacity="0.3" fill="#091426" enable-background="new    " d="M935.8,981.5c11.2,2.8,40.6,10.1,60,18.8
			c19.4,8.6,42.9,13.4,63,7.4c20.1-6,29.5-15.4,37.8-20.2c8.3-4.7,15.6-7.1,15.8-12s-5.2-8.5-5.2-8.5s10.2-4.1,23.8-7.2
			s15.6-8.2,17.9-9.8c2.2-1.5,7.4-3.1,34.4-12.2c33.4-11.3,37-18,35.4-19.9c0-0.1-0.1-0.1-0.1-0.1c-0.3-0.2-1-0.9-2.1-1.8
			c-7.1,0.5-20.9,1.8-38.7,5.3c-26.4,5.1-56.1,15.2-88,22.8s-41.8,2.5-80-3.8c-32-5.2-56.7-11.5-97.7-20.1
			c-14.1,5-24.6,8.2-24.6,8.2S924.5,978.8,935.8,981.5z"/>
	</g>
	<g>
		<g>
			<path fill="#2A4DA9" d="M933.3,969c-14.8-20.7-36-38-61.1-49.1c-2-0.9-4.1-1.8-6.2-2.6c-7.8-3.1-15.9-5.5-24.3-7.3
				c-3.1-0.7-6.3-1.3-9.4-1.7l0,0c-2.6-0.4-5.3-0.7-8-1c-3.5-0.3-7-0.6-10.5-0.7c-6.8-0.2-13.6,0.2-20.3,1
				c-4.8,0.6-9.6,1.4-14.2,2.4c-6,1.3-11.9,2.8-17.4,4.5c-7.6,2.4-14.7,5-20.9,7.6c-7.5,3.1-13.9,6.2-18.6,8.7c-5.7,2.9-9,4.9-9,4.9
				s-6.3,6.6-11.9,23.6c-1.3,4.1-2.6,8.7-3.8,14c-6,27.5-6.8,50.4-3.2,61.9c3.5,11.4,5.7,25.6,3.5,35.6l0.3,0.1l18.1,3.8l5,1
				c0,0-0.9-7.8,22-6.3c3.4,0.2,7.4,0.7,12,1.4c2.1,0.3,4.2,0.7,6.3,1.2c10.8,2.5,21.8,7,31.7,11.9c0.4,0.2,0.9,0.4,1.3,0.7
				c9.7,4.9,18.3,10.1,24.7,14.3c0.2,0.1,0.4,0.2,0.5,0.3c6.7,4.4,10.8,7.5,10.8,7.5c0.4,0.3,0.9,0.6,1.4,0.9
				c4.4,2.8,9.2,5.7,14.1,7.6c8.8,3.6,18.1,4.4,26.5-2.4c2-1.6,4.4-3.8,7.1-6.3c9.1-8.5,21.5-21.4,32.6-33.8
				c7.9-8.8,15.1-17.3,20.1-24c0.3-0.4,0.7-0.9,1-1.3c6.8-9.3,12.3-15.3,17-17c4.6-1.6,8.4,1.2,11.7,9.6
				C962,1040,958.7,1004.3,933.3,969z"/>
			<path fill="#97AEEC" d="M698,1021c-3-18.5-2.9-30.5,3.5-61.8c-1.3,4.1-2.6,8.7-3.8,14.1c-6,27.5-6.8,50.4-3.2,61.9
				c3.6,11.5,5.7,25.6,3.6,35.6l0.3,0.1C701.9,1060,701.3,1041.7,698,1021z"/>
			<path fill="#25184E" d="M832.2,908.2c-0.8,1-1.8,2-2.8,3.2c-8.4,9.9-22.6,27.5-31.8,44.4c-2.8,5.2-5.1,10.5-7,16
				c-6.4,18.6-7.8,38.6-6.6,57c0.2,2.9,0.4,5.8,0.8,8.6c2.1,18.9,6.3,37.6,8.5,46.4c-11.9-5.9-25.3-11.1-38-13.1
				c-4.6-0.7-8.6-1.2-12-1.4c-2.1-5.9-6.3-19.1-7.5-34.2c-1.6-20.4-1.2-48.5,4.3-70.8c4.5-18.1,8.7-32.8,21.8-50
				c5.5-1.7,11.4-3.3,17.4-4.5c-5.4,7.1-12.6,18.7-19.9,36.5c-14.5,35.3-11.3,69.1-11.3,69.1c-0.5-24.2,8.6-57.8,27.1-83.5
				c8.6-12,14.5-19.8,18.3-24.6c6.7-0.8,13.5-1.2,20.3-1c3.5,0.1,7,0.3,10.5,0.7C826.9,907.5,829.6,907.8,832.2,908.2z"/>
			<path fill="#97AEEC" d="M831.5,943.2l-10,7.1c2.8,12.9,10.3,48.4,16.7,86.1c6,35.4,7.5,64.5,7.9,76.9c1.8,0.8,3.5,1.4,5.1,1.8
				c10.2,2.5,12,3.6,27.7-10l-29.1-49.9C849.8,1055.1,842.5,987,831.5,943.2z"/>
			<path fill="#97AEEC" d="M962,1040c0,0-3.4-35.7-28.7-71c-22.2-30.9-58.6-54.4-101.1-60.8c-0.8,1-1.8,2.1-2.8,3.3
				c8.1,2.2,22.7,6.3,33.8,9.4c41.8,12.3,39.3,58.9,44.7,102.8c2.9,23.4,3.9,37.6,4.3,45.7c7.2-8,14.1-15.6,20.2-20.7
				c0.3-0.4,0.7-0.9,1-1.3C947,1028.8,955.5,1023.2,962,1040z"/>
			<path fill="#97AEEC" d="M790.6,972c-6.4,18.6-7.8,38.6-6.5,57c7.4,28.5,15.3,52.4,15.3,52.4s10.5,5.2,18.5,12.1
				c3.6,3.1,8.4,7.2,13.7,11c-3.4-22.9-13.7-91.8-23.8-144.5L790.6,972z"/>
			<path fill="#D8D8D8" d="M821.5,950.2l-13.8,9.7c10.2,52.7,20.5,121.6,23.8,144.5c4.8,3.5,9.8,6.7,14.5,8.8
				c-0.4-12.4-1.9-41.5-7.9-76.9C831.8,998.7,824.3,963.1,821.5,950.2z"/>
			<path fill="#D8D8D8" d="M849.8,1055.1l29.1,49.9c0.7-0.6,1.4-1.2,2.1-1.9c8.8-7.8,20.2-21.4,31.2-33.8
				c-0.4-8.2-1.4-22.4-4.3-45.7c-5.4-43.9-2.9-90.5-44.7-102.8l-31.7,22.3C842.5,987,849.8,1055.1,849.8,1055.1z"/>
		</g>
		<path opacity="0.3" fill="#091426" enable-background="new    " d="M734.7,1066.5c-11-33.8-5.1-85.5-0.3-115.3
			c2.4-14.6,4.7-23.6,6.4-29.1c-7.5,3.1-13.9,6.2-18.6,8.7c-3.5,9-7.6,22.5-10.1,40c-4.3,30.9-7.3,70.6,4.2,103.9l5,1
			c0,0-0.9-7.8,22-6.3c3.4,0.2,7.4,0.7,12,1.4c2.1,0.3,4.2,0.7,6.3,1.2C748,1060,734.7,1066.5,734.7,1066.5z"/>
		<path opacity="0.3" fill="#091426" enable-background="new    " d="M866,917.3c-7.8-3.1-15.9-5.5-24.3-7.3
			c-5.4,7.8-18,27.2-28.6,52.6c-13.2,31.7-21.7,75.7-18.5,122c9.7,4.9,18.3,10.1,24.7,14.3c0.6-15.3,3.9-89.6,16.9-125.5
			C846.5,944.8,859.4,925.9,866,917.3z"/>
		<path opacity="0.3" fill="#091426" enable-background="new    " d="M962,1040c0,0-3.4-35.7-28.7-71c-14.8-20.7-36-38-61.1-49.1
			c-0.9,5.3,1.8,9.1,8.8,14.3c10.4,7.7,29.6,26.2,40.9,42.1c11.3,15.9,20,24.4,23.6,35.1c1.9,5.6,3.6,13.1,4.9,19
			C955,1028.8,958.8,1031.6,962,1040z"/>
	</g>
	<g>
		<g>
			<g>
				<g>
					<path fill="#97AEEC" d="M764.2,1255.4L764.2,1255.4L764.2,1255.4z"/>
					<path fill="#25184E" d="M808.8,1207.6c-18.2-11.7-41-3.9-41-3.9s24.6-44,23.8-68.3c-0.9-24.3-8.8-32.2-46-51.5
						s-72.2-21.2-86.8-18.8c-14.5,2.5-17.7,4.1-18.5,13.8s0.9,24.5,4,49.5c0,0-18.6,81.4-26.6,122.7c-1.3,6.9-2.3,12.7-2.9,16.8
						c-0.9,6.2-1.8,13-2.5,20c-0.5,5.2-0.9,10.5-1.1,16c-0.1,1.5-0.1,3-0.1,4.4c-0.3,20,2.3,40.7,12.2,57.5c17,29,47,44,56.2,45.2
						c1.5,0.2,3.4-0.1,5.5-0.8c1.5-0.5,3.1-1.1,4.8-1.8c11.2-4.9,25.1-14.9,25.1-14.9s-32.8-33.2-30.5-40s19.2-45.4,45-75.2
						c1.3-1.5,2.6-2.9,4.1-4.2c4.1-3.9,8.9-7.4,14.1-10.5c5.2-3.1,10.8-5.9,16.5-8.3c27.6-11.8,57.8-16,57.8-16
						S827,1219.3,808.8,1207.6z"/>
				</g>
				<path fill="#2A4DA9" d="M671.8,1399.8c-4.1-8.1-5.8-25.9,2.2-43.2c2.8-6,6.8-14.4,11.8-23.5c9.4-17.5,22-37.6,35-49
					c-13,11.3-25.6,31.5-35,49c-3.1-11-8.3-33.3-9.6-62.2c-19.2,13.9-39.7,25.1-65.1,37.7c-0.3,20,2.3,40.7,12.2,57.5
					c17,29,47,44,56.2,45.2c2.5,0.3,6.2-0.8,10.4-2.6C683.6,1407.5,674.4,1405,671.8,1399.8z"/>
				<path fill="#97AEEC" d="M720.8,1284c4.2-3.6,8.5-6.9,12.9-9.8c8.2-7.7,19.2-13.9,30.6-18.8L755,1209l-10.8-7.5
					c-0.2,0.5-0.4,0.9-0.7,1.4c-5.2,10.5-12,19.2-27,33.4c-5.1,4.8-11.1,10.3-18.3,16.6c-7.4,6.5-14.7,12.3-22.2,17.8l0,0
					c1.3,29,6.5,51.3,9.6,62.2C695.2,1315.5,707.8,1295.3,720.8,1284z"/>
			</g>
			<path opacity="0.3" fill="#091426" enable-background="new    " d="M665,1312.5c0,0,43.8-48.6,75.1-79s36.2-39.5,21.9-44
				s-37.8,44.5-67.5,42c-19.3-1.6-54.4,10.8-76.8,19.7c-1.3,6.9-2.3,12.7-2.9,16.8c-0.9,6.2-1.8,13-2.5,20
				c38.3-15.5,91.4-50,91.4-50s-32.2,41.3-92.5,65.9c-0.1,1.5-0.1,3-0.1,4.4c-0.3,20,2.3,40.7,12.2,57.5c17,29,47,44,56.2,45.2
				c1.5,0.2,3.4-0.1,5.5-0.8c-1.1-3.5-2.4-7.4-3.8-11.7C669.5,1363.7,665,1312.5,665,1312.5z"/>
		</g>
		<g>
			<g>
				<path fill="#2A4DA9" d="M729.5,1197.8c-2.2,5.9-6.2,12.5-11.4,19.1c-0.1,0.2-0.3,0.3-0.4,0.5c3.4-5,6.4-10.3,9.4-15.5
					C727.9,1200.6,728.7,1199.2,729.5,1197.8z"/>
				<path fill="#2A4DA9" d="M741,1158.8c0,0-0.3,1.2-0.9,3.3c-1.7,6.6-5.9,21.8-10.1,34.5c-0.2,0.4-0.3,0.9-0.5,1.3
					c-0.8,1.4-1.6,2.7-2.4,4.1c-3,5.2-6,10.5-9.4,15.5c-4.9,6.2-10.9,12.3-17.6,17.9c-1.9,1.6-3.9,3.2-5.9,4.7
					c-1.8,1.4-3.7,2.7-5.5,3.9c-2.3,1.5-4.6,3-7,4.3c-15,8.6-33.2,21.8-57.6,23.7c-1.8,0.1-3.6,0.2-5.5,0.2c-2.3,0-4.7-0.1-7.1-0.3
					c-9-0.8-18.9-3.2-29.6-7.9c-2-0.9-3.6-2.7-4.7-5.2c-1.2-2.9-1.8-6.7-1.5-11.4c0.1-1.8,0.3-3.7,0.6-5.7c2-12,7.7-27.2,10.1-33
					c1.5-3.6,17.9-12.7,30.2-19.1c2.7-1.4,5.2-2.7,7.3-3.8c3.8-1.9,6.3-3.1,6.3-3.1s0.2-1.8,0.4-4.7c0.2-1.7,0.3-3.7,0.6-6
					c0.4-4.4,1-9.8,1.6-15.4c0.9-8.3,2-17,3.2-23.2c3-16.2,32-38.5,52.5-42c11-1.9,21.5,1.9,29.4,7.4c1.6,1.1,3,2.3,4.4,3.4
					c1.5,1.3,2.9,2.7,4.2,4.1c2.4,2.8,4.2,5.5,5.2,8c0.5,1.4,1.1,3.1,1.7,5.1c1.2,4.4,2.5,10,3.6,15.7
					C739.3,1147.1,741,1158.8,741,1158.8z"/>
			</g>
			<path fill="#97AEEC" d="M723.3,1170c5.3-8.8,11.2-30.1,10.2-50.4c-0.6-2-1.1-3.8-1.7-5.1c-4.2-10.5-22.8-26.5-43.2-23
				s-49.5,25.8-52.5,42s-5.8,49.2-5.8,49.2s-6,2.9-13.6,6.9c35,0.5,59.6,5.2,85,10.7C701.7,1200.3,716.7,1180.9,723.3,1170z"/>
			<path fill="#25184E" d="M665.2,1171.1c1.2,3.3,1.8,5.9,0.8,9.5c-1.1,3.6-4.2,5.8-8,4.4c-3.3-1.2-4.7,4-1.4,5.2
				c5.8,2.2,11.8-0.6,14.1-6.2c1.9-4.7,2.7-13-3.2-15.2C666.1,1168.5,664.8,1169.9,665.2,1171.1L665.2,1171.1z"/>
			<path fill="#25184E" d="M612.6,1262c-0.9-5.8-6.1-4.4-11.6-5.6c-4.7-1-15.1-3.5-25.2-9c-0.5,8.8,1.9,14.7,6.2,16.6
				c10.7,4.7,20.6,7.1,29.6,7.9C612.3,1269.5,613.2,1265.7,612.6,1262z"/>
			<path fill="#25184E" d="M623.8,1269.1c-0.4-1.6-0.5-3.4-0.8-5c-0.5-2.2-1.5-3.8-2.2-5.9c-0.3-0.8-1.7-1-1.9,0
				c-0.2,1.4-0.7,2.7-0.9,4.2c-0.2,1.6-0.2,3.2-0.2,4.9c0,1.9,0,3.6,0.9,4.9c1.8,0,3.7-0.1,5.4-0.2
				C624.4,1271,624.3,1270,623.8,1269.1z"/>
			<path fill="#25184E" d="M692.9,1225.9c-0.7-1.8-3-1.8-3.7,0c-1.5,3.6-1.1,7.8-1,11.6c0.1,2-0.1,4.4,0.5,6.4
				c1.9-1.3,3.7-2.6,5.5-3.9C694.3,1235.2,694.7,1230.2,692.9,1225.9z"/>
			<path fill="#25184E" d="M717,1199.6c-0.4-2.1-3.3-2.1-4.3-0.6c-3.2,4.7-7.3,8.9-11,13.2c-3.2,3.6-5.9,5.8-5.7,10.8
				c0.2,3.9,1.1,9.8,4.1,12.3c6.8-5.7,12.9-12.1,17.9-18.4C718.8,1211.3,718.1,1205.5,717,1199.6z"/>
			<path opacity="0.3" fill="#091426" enable-background="new    " d="M647.8,1158.4c8.1-6.7,16.1-13.4,24.5-19.8
				c8.1-6.1,16.3-12,24.5-17.9c4.1-3,8.2-5.8,12.1-9.1c4.2-3.5,9.1-6.1,13.5-9.3c-1.4-1.2-2.8-2.4-4.4-3.5c-3.7,2.3-7.3,4.9-11.2,7
				c-4.5,2.4-8.9,4.7-13.2,7.4c-9,5.7-18,11.5-26.8,17.7c-8.2,5.8-16.5,11.7-24.4,17.9c-3.2,2.5-6.4,5.1-9.5,7.8
				c-0.6,5.5-1.2,10.9-1.6,15.4c1.5-1.1,3-2.3,4.4-3.5C639.7,1165.2,643.7,1161.7,647.8,1158.4z"/>
			<path opacity="0.3" fill="#091426" enable-background="new    " d="M735.5,1145.3c0-0.1,0-0.3,0-0.4c-0.3-3.1-4.8-3.2-5,0
				c-0.6,9.8-3.6,19.7-6.7,29c-1.9,5.7-4.3,10.9-7.4,15.8c-10.3-1.6-20.7-3.4-31-5.1c-2-0.3-4.7-1-7.7-1.6c3.5-2.6,6.8-5.9,9.5-8.2
				c5.8-4.8,11.6-9.5,17.5-14.2s11.9-9.3,17.8-13.9c4.7-3.8,9.9-7.3,14.5-11.3c-1.1-5.6-2.3-11.3-3.6-15.7c-0.6-2-1.1-3.8-1.7-5.1
				c-1-2.5-2.8-5.3-5.2-8c-8.7,6.6-16.9,13.7-25.7,20.2c-9.4,7-18.7,14.1-28,21.2c-9,6.9-18.1,13.8-27.1,20.7
				c-4.1,3.1-8.6,7.8-13.5,9.2c-0.5,0.1-1,0.2-1.5,0.3c-0.3,2.9-0.4,4.7-0.4,4.7s-2.5,1.2-6.3,3.1c0.9,0.1,1.8,0.2,2.8,0.2
				c4.5,3.3,12.6,3.5,17.4,4.1c7.8,1.1,15.7,1.7,23.5,2.7c13.7,1.7,27.2,3.9,40.3,8c-10.4,12.1-22.6,22.6-36,31.2
				c-28,17.9-61.3,27.8-94.6,26.8c1.1,2.5,2.7,4.3,4.7,5.2c10.7,4.7,20.6,7.1,29.6,7.9c2.4,0.2,4.8,0.3,7.1,0.3
				c1.8,0,3.7-0.1,5.4-0.2c24.4-1.9,42.6-15.2,57.6-23.7c2.4-1.3,4.7-2.8,7-4.3c1.9-1.3,3.7-2.6,5.5-3.9c2-1.5,4-3.1,5.9-4.7
				c6.6-5.6,12.6-11.7,17.6-17.9c3.4-5,6.4-10.3,9.4-15.5c0.8-1.4,1.6-2.7,2.4-4.1c0.2-0.4,0.3-0.9,0.5-1.3
				c4.3-12.6,8.4-27.9,10.1-34.5c0-0.1,0-0.2,0-0.3C739.2,1156.5,738.7,1149.8,735.5,1145.3z M655.2,1183.8
				c-4.8-1.4-3.6-8.9-0.7-11.5c0.8-0.7,1.8-1.4,2.9-2.1c0.2,0,0.3-0.1,0.5-0.1c2.6-0.2,6,0.8,6.8,3.6
				C665.8,1178.4,660.3,1185.3,655.2,1183.8z"/>
		</g>
	</g>
	<g>
		<g>
			<path fill="none" d="M701.7,1485.8L701.7,1485.8"/>
			<path fill="#2A4DA9" d="M1015.9,1436.4c-0.6-3.3-1.2-6.3-1.8-8.8c-2.1-8.3-4.2-12.7-5.3-14.6c-0.5-0.8-0.8-1.2-0.8-1.2l8.8-5.2
				c0,0,0.3-0.5,0.5-1.8c0.1-0.7,0.1-1.6,0-2.8c-0.1-1.9-0.6-4.6-1.6-8.1c-2.9-10.1-21.8-39.5-47.3-59.4s-50.1-37.6-75.9-54.6
				c-25.9-17-67.9-45.3-83.4-47.7c-8.7-1.4-22.9,0-36.5,4.6c-4.6,1.5-9.1,3.4-13.3,5.7c-5.7,3.1-10.8,6.8-14.8,11.2
				c-3.6,4-6.5,8-8.6,12c-1.1,2.2-2.1,4.5-2.8,6.8c-3.7,11.8-2.2,25.5,2.8,46.5c7.8,32.7,19.4,48.4,40,80.7l16.2,21.7l6.6,7.6
				c0.8,8.9,0,0,0,0l26.6,30.6l1.2,1.3c0.2,0.3,0.4,0.6,0.6,0.9l-20.6,0.8l-3.6,7.1c-2.6-1.9-24.6-11.9-24.6-11.9l-3.4,4
				c0,0-22.7-10.3-35.1-10.6c-11.8-0.3-29.6,7.4-31.6,8.3c-0.1,0.1-0.2,0.1-0.2,0.1s-4.4,2.9-4.5,15.9c0,2.5,0.1,5.3,0.5,8.5
				c0.1,1.1,0.3,2.2,0.4,3.2c2.9,17.5,11.2,20.8,11.2,20.8l12.6-0.6c0,0,27.7,35.9,47.9,46.7s30.7,12.7,30.7,12.7s7.4,8.2,12.5,10.4
				c5.1,2.2,36.8,8.2,50.1,6.9c1.2-0.1,2.5-0.4,3.8-0.8c9.1-2.7,19.3-11.3,28.5-19.2c3.2-2.7,6.2-5.3,9-7.6c0.3-0.2,0.6-0.5,0.9-0.7
				c12-9.4,8.4-4.4,20-9c7.7-3,13.2-9.1,16.1-12.8c1.5-1.9,2.2-3.2,2.2-3.2H971c0,0,2-1.6,5.2-4.6c0.5-0.5,1-1,1.6-1.5
				c4.9-5,11.8-12.8,18.3-23.4c0.2-0.3,0.4-0.6,0.6-0.9c9.2-15.3,8.1-23,7.1-25.7c-0.3-0.8-0.6-1.2-0.6-1.2l11.4-7.3l3-1.9
				c0,0,0.1-0.5,0.2-1.4C1017.9,1459.5,1018.5,1451.1,1015.9,1436.4z"/>
		</g>
		<path fill="#25184E" d="M757.2,1517.6c9.9,2.6,18.7,5.2,23.8,1.2c0,0-1,4.5,6.1,9.2s17,3.4,17,3.4l4.8,14.4c0,0,4.5,1.3,15.7-0.8
			s16.2-5.8,16.2-5.8l8.9,7c0,0,15.8-5.4,27.8-30.8l22.7,10c0,0,2.2-1.1,8.4-17.5s4.6-24.5,4.6-24.5l-7.7-0.6l1.1-30.5l17.9-7
			c0,0-64.7-54.3-81.6-74.9c-16.9-20.6-38.3-50.8-50.1-69.7c-9.3-15-26.9-46-33.9-58.4c-5.7,3.1-10.8,6.8-14.8,11.2
			c-3.6,4-6.5,8-8.6,12c7.3,31.2,13.9,53,25.2,73c12.9,22.8,14.3,32,32.7,49.3s24.5,23.5,41.2,27.2c16.7,3.6,27.4,7,27.4,7
			l36.5,30.1l-10.1,4.8c0,0-2,5.9-2.3,13.2c-0.2,7.3,0.4,10.2,0.4,10.2h7c0,0-2.5,2.6-6.5,10.2s-9.8,22.3-9.8,22.3
			s-9.8-3.3-17.8-7.7c0,0-18.1,17.2-22.9,18.2l-3.5-6.6c0,0-21.6,5.8-28.3,5.8c0,0-4.3,1-3.1-19.6c0,0-10,1-17.5-1
			s-3.4-1.6-13.3-4.2c-10-2.6-2.5-1-21.8-7.6c-19.3-6.5-20.9-7.1-32.5-11.4c-5-1.8-9.5-3-13.2-3.7c0,2.5,0.1,5.3,0.5,8.5
			c0.1,1.1,0.3,2.2,0.4,3.2c1.9,1.2,5.2,3.5,10.8,7.7C730.3,1506,747.3,1515.1,757.2,1517.6z"/>
		<path fill="#97AEEC" d="M920.3,1487l-10.2,35.2c0,0,15.2,2.6,40.3,3.7c9,0.4,17.9,0.4,25.5,0.2c5.1-4.9,13.1-13.7,20.4-25.8
			c9.2-15.3,8.1-23,7.1-25.7c-5.9,1.6-15.8,4-31.9,7C941.4,1487.3,920.3,1487,920.3,1487z"/>
		<path fill="#97AEEC" d="M731.5,1459.7c10.4,2.4,27.8,10.1,27.8,10.1l3.5-2.3l15.3,6.8c0,0,18.7,13,35,17.8s28.7,2,28.7,2
			s-7.6-7.2-9.6-14.2c-2-6.9,3.4-8.5,3.4-8.5l-8.5-9.9l-20.8,0.8l-3.6,7.1c-2.6-1.9-24.6-11.9-24.6-11.9l-3.4,4
			c0,0-22.7-10.3-35.1-10.6c-11.8-0.3-29.6,7.4-31.6,8.3C713.6,1458.7,724.1,1458,731.5,1459.7z"/>
		<path fill="#97AEEC" d="M888.2,1524.2c-0.5,0.2-21.7,27.8-21.7,27.8s20.6,6.6,44,4.4c0.3-0.2,0.6-0.5,0.9-0.7c12-9.4,8.4-4.4,20-9
			c7.7-3,13.2-9.1,16.1-12.8c-7.4-0.6-20.3-1.6-31.7-2.9C898.4,1529.1,888.2,1524.2,888.2,1524.2z"/>
		<path fill="#97AEEC" d="M850.8,1550.7l-30.4,6.2c7.3,8.9,10.7,10.5,24.4,15.1c11.7,3.9,17.1,6.1,28.3,11.1
			c9.1-2.7,19.3-11.3,28.5-19.2c-5.2-0.1-13.1-0.4-23.6-1.4C858,1560.8,850.8,1550.7,850.8,1550.7z"/>
		<path fill="#97AEEC" d="M1015.9,1436.4c-2.5-14.3-5.7-20.9-7.1-23.4l-32.3,13.8c3.4,3.8,9.8,12.2,11.6,23.3
			c2,12.2,0.4,20.1-0.3,22.9c11.3-2.5,20.6-5.1,26.6-7l3-1.9C1017.3,1464.1,1019.2,1455.6,1015.9,1436.4z"/>
		<path fill="#97AEEC" d="M1015.7,1393.7c-2.9-10.1-21.8-39.5-47.3-59.4s-50.1-37.6-75.9-54.6c-25.9-17-67.9-45.3-83.4-47.7
			c-2.5-0.4-5.6-0.6-8.9-0.5c8.1,8.9,30.5,33,44.7,46.6c17.7,16.9,17.5,15.4,27,32.4s21.5,32.5,21.5,32.5
			c-20.5-15.5-59.6-52.1-77.7-71c-16.6-17.4-24.4-26.8-33.9-38c-3.1,0.7-6.2,1.6-9.3,2.6c11,12.2,14.1,19.7,22.2,37.6
			c9.7,21.3,32,52.4,63,79.8s35.2,39.3,45.3,47c10.2,7.7,23.1,19.2,34.2,34.4l38.7-16.2c-2.4-3.2-8.5-11.1-15-19.7
			c-8.5-11.1-13.8-13.9-19.3-19c-5.6-5.1-9.8-15.7-22-33.7c0,0,15.5,11.8,26.7,21.5c11.2,9.8,15.9,16.5,28.7,25.4
			c9.4,6.5,16.1,14.3,19,17.9l23.4-9.8C1017.2,1399.9,1016.7,1397.3,1015.7,1393.7z"/>
		<path fill="#D8D8D8" d="M893.3,1343c0,0-12-15.5-21.5-32.5s-9.3-15.5-27-32.4c-14.2-13.6-36.6-37.8-44.7-46.6
			c-5.5,0.1-11.8,0.9-18.4,2.5c9.5,11.2,17.3,20.6,33.9,38C833.8,1290.9,872.8,1327.5,893.3,1343z"/>
		<path fill="#97AEEC" d="M844.8,1478.3c3.9,12.6,23.6,28.8,23.6,28.8s0.1-6.2,3.9-13.7s6.7-14.3,6.7-14.3s5.1,1.2,7.8,1.2l4.7-18.4
			c0,0-22.7,10-33,13.8C848.2,1479.7,844.8,1478.3,844.8,1478.3z"/>
		<path fill="#97AEEC" d="M956.2,1435.5l-21.1,9c0,0-4.2,35.5-3.7,35.5c8.1-0.1,16.1-0.7,23.8-1.6
			C956.7,1472.5,959.9,1455.1,956.2,1435.5z"/>
		<path fill="#D8D8D8" d="M988,1450.1c-1.8-11-8.2-19.5-11.6-23.3l-20.2,8.6c3.7,19.6,0.4,37-0.9,43c11.7-1.3,22.8-3.3,32.4-5.4
			C988.4,1470.3,990,1462.3,988,1450.1z"/>
		<path fill="#D8D8D8" d="M974.9,1393.7c-12.8-8.9-17.6-15.7-28.7-25.4c-11.2-9.8-26.7-21.5-26.7-21.5c12.2,18,16.4,28.6,22,33.7
			s10.8,7.9,19.3,19c6.6,8.5,12.6,16.5,15,19.7l18-7.5C991,1408,984.3,1400.3,974.9,1393.7z"/>
		<path opacity="0.3" fill="#091426" enable-background="new    " d="M857.6,1497.5l1.8-5.4c59,15.1,109.4,12.4,136.4,9
			c0.2-0.3,0.4-0.6,0.6-0.9c9.2-15.3,8.1-23,7.1-25.7c-0.3-0.8-0.6-1.2-0.6-1.2l11.4-7.3l3-1.9c0,0,0.1-0.5,0.2-1.4
			c-12.2,2.3-31.8,6-52.4,9.7c-33.5,6-66.4,6.7-66.4,6.7c51.3-14.7,98.1-41.2,115.3-51.5c-2.1-8.3-4.2-12.7-5.3-14.6
			c-0.5-0.8-0.8-1.2-0.8-1.2l8.8-5.2c0,0,0.3-0.5,0.5-1.8c-10.7,4.4-32.1,13.4-57.6,24.7c-36.8,16.3-97.1,38.3-110,43.4
			c-10.4,4.1-19.4-6.7-22.6-11.2l-20.6,0.8l-3.6,7.1c-2.6-1.9-24.6-11.9-24.6-11.9l-3.4,4c0,0-22.7-10.3-35.1-10.6
			c-11.8-0.3-29.6,7.4-31.6,8.3c-0.1,0.1-0.2,0.1-0.2,0.1s-4.4,2.9-4.5,15.9c0,2.5,0.1,5.3,0.5,8.5c0.1,1.1,0.3,2.2,0.4,3.2
			c2.9,17.5,11.2,20.8,11.2,20.8l12.6-0.6c0,0,27.7,35.9,47.9,46.7s30.7,12.7,30.7,12.7s7.4,8.2,12.5,10.4
			c5.1,2.2,36.8,8.2,50.1,6.9c1.2-0.1,2.5-0.4,3.8-0.8c9.1-2.7,19.3-11.3,28.5-19.2c3.2-2.7,6.2-5.3,9-7.6c0.3-0.2,0.6-0.5,0.9-0.7
			c12-9.4,8.4-4.4,20-9c7.7-3,13.2-9.1,16.1-12.8c1.5-1.9,2.2-3.2,2.2-3.2h21.1c0,0,2-1.6,5.2-4.6c0.5-0.5,1-1,1.6-1.5
			C873.3,1530.1,857.6,1497.5,857.6,1497.5z"/>
		<path opacity="0.3" fill="#091426" enable-background="new    " d="M735.8,1318.8c7.8,32.7,19.4,48.4,40,80.7l16.2,21.7l6.6,7.6
			c-0.6-7.5-4.7-20.1-17.7-41c-25.1-40.4-35.1-63-47.9-115.5C729.3,1284,730.8,1297.8,735.8,1318.8z"/>
		<g>
			<g>
				<path fill="#664A32" d="M840.4,1366.2c-9.5,17.6-12.3,18.9-12.3,18.9c-5.4,0-17,7-23.5,16.6c-6.4,9.7-4.2,15.7-4.2,15.7
					c-2.9,2.5-5,4.6-6.6,6.8c-2.4,3.2-3.4,6.4-3.6,10.8h-0.1c-4.5-1.4-7.6-7.5-14.1-18.3c-6.4-10.8-12.8-13.8-5.9-24.4
					c2.8-4.3,6-8,9.4-11.3c4.9-4.9,10.2-8.9,14.5-12.3c7.2-5.7,15-9.3,21.7-22.1c6.6-12.8,5-22.9,9.6-28.7c2.3-3,6.6-5.3,11.3-5.7
					c5.2,3.1,13.3,9.2,13.6,16.7C850.8,1340,850,1348.6,840.4,1366.2z"/>
				<path fill="#2D2C2C" d="M846,1369c-9.9,19.5-23.8,35-47.4,63.2c-0.3,0.3-0.5,0.6-0.8,0.9c0,0-3.2,3.3-7.6,2
					c0.2-4.4,1.3-7.6,3.6-10.8c1.6-2.1,3.7-4.3,6.6-6.8c0,0-2.3-6,4.2-15.7c6.4-9.7,18.1-16.6,23.5-16.6c0,0,2.8-1.3,12.3-18.9
					s10.3-26.2,9.8-37.2c-0.4-7.5-8.5-13.6-13.6-16.7c4.4-0.3,9.3,1.1,13.1,5.7C857.4,1327.3,856,1349.3,846,1369z"/>
				<path opacity="0.3" fill="#091426" enable-background="new    " d="M798.7,1432.1c-0.3,0.3-0.5,0.6-0.8,0.9c0,0-3.2,3.3-7.6,2
					h-0.1c-4.5-1.4-7.6-7.5-14.1-18.3c-6.4-10.8-12.8-13.8-5.9-24.4c2.8-4.3,6-8,9.4-11.3c-3,7.1-4.1,10.3-2.9,13.5
					c1,2.5,9.9,17.5,17.2,29.8C795.6,1427.1,797.2,1429.8,798.7,1432.1z"/>
			</g>
			<g>
				<path fill="#888888" d="M811.1,1354.2c-1.2-1-1.9,1.2-7.3,5.1s-26.3,20.9-25.7,23.9s5.5,10.4,10.7,19.4s10.8,20.5,16.1,16.3
					c5.4-4.2,32-35.1,32-35.1S822.1,1363.5,811.1,1354.2z M803.8,1411.8l-16.5-26.4l21.7-21.6l18.2,23.1L803.8,1411.8z"/>
			</g>
		</g>
	</g>
</g>
</svg>
