<?xml version="1.0" encoding="utf-8"?>
<!-- Generator: Adobe Illustrator 21.0.2, SVG Export Plug-In . SVG Version: 6.00 Build 0)  -->
<svg version="1.1" id="Layer_1" xmlns="http://www.w3.org/2000/svg" xmlns:xlink="http://www.w3.org/1999/xlink" x="0px" y="0px"
	 viewBox="0 0 2000 2000" enable-background="new 0 0 2000 2000" xml:space="preserve">
<g>
	<g id="_x32_5_x5F_Props_x5F_MagnifyingGlass_x5F_Tentacle">
		<path fill="#282828" class="main-body-fill" d="M1540.7,1055c-5.3,21.8-10.3,43.2-33.9,92.7c0,0-20.4-3.6-38.1-8.1s-41.2-15.7-56.3-24
			c-15.2-8.3-27.5-16-39.7-28s-40.3-9-40.3-9s-13.5-8-22.7-21s-3.7-48.3,4.7-65.3c8.3-17,15.3-39.5,18.3-50.3s3.5-44.3,5-61.7
			c1.5-17.3,2-42.5,18.7-53c13-8.2,31.8-17.6,59.7-17.9c7.8-0.1,16.4,0.6,25.7,2.2c6.4,1.1,12.6,2.7,18.6,4.8
			c33.4,11.7,58.9,39.5,75.8,90.6C1555.8,967.2,1546,1033.2,1540.7,1055z"/>
	</g>
	<g id="_x32_5_x5F_Props_x5F_MagnifyingGlass_x5F_Shadow">
		<path opacity="0.3" fill="#091426" enable-background="new    " d="M1536,907c-12.3-37.4-29.3-62.3-50.6-77.5
			c13,21.6,18.2,55.7,15.6,92.2c-3.5,48-15.7,69.2-35.7,90.3c-20,21.2-18.2,30.5-17.9,52c0.3,21.3,4.5,39.6-6.4,65.7
			c9.5,4.1,19.2,7.8,27.6,9.9c17.7,4.5,38.1,8.1,38.1,8.1c23.6-49.6,28.6-70.9,33.9-92.7C1546,1033.2,1555.8,967.2,1536,907z"/>
	</g>
	<g id="_x32_5_x5F_Props_x5F_MagnifyingGlass_x5F_MagnifyingGlass">
		<circle fill="#268071" cx="1501.1" cy="626.7" r="181"/>
		<path fill="#113130" d="M1316.1,1101.1c10.4-28.7,12.9-37.6,23-43.8s22.4,3.1,27.8,9.2s5.6,12.4,2.5,22.6s-6,21.9-7.4,24.9
			s-8,7.6-23.6,4.6s-20.5-10.3-21.5-12.1C1315.9,1104.6,1316.1,1101.1,1316.1,1101.1z"/>
		<path fill="#143E34" d="M1362.1,1114c1.4-3,4.3-14.8,7.4-24.9c1.6-5.2,2.3-9.4,1.9-13.1c-2.2-2.4-5.7-4.3-11.2-6.3
			c-10.2-3.7-19.3-5.3-22.3,2.9c-5.1,14.1-7.8,24.1-7.8,24.1s11.1-2.9,22.6,7.7c5,4.6,7.7,7.9,9.1,10.1
			C1361.9,1114.3,1362,1114.2,1362.1,1114z"/>
		<path fill="#8F8BB5" d="M1431.1,789.4c5.1-10.4,5.9-11.8,7.3-12.9s10.5-2.7,16.9,1.9s7,6.3,6.4,7.8s-3.7,11.4-3.7,11.4
			L1431.1,789.4z"/>
		<path fill="#C9BEF3" d="M1435.2,793.6c4.4-7.9,6.7-11,12.9-11.6s8.9,4.4,8.9,4.4l-4.4,9.5L1435.2,793.6z"/>
		<path fill="#143E34" d="M1460.2,816.4l3.6-14.1c0,0-0.5-5.9-16.1-12s-22.2-2.8-22.2-2.8s-2,4.5-9.6,21.9
			c7.8-0.1,16.3,0.6,25.7,2.2C1448.1,812.8,1454.3,814.4,1460.2,816.4z"/>
		<path fill="#113130" d="M1429.8,810.1c4.2-11.2,7.2-18.9,8.5-22.6c-8.8-1.8-12.7,0.1-12.7,0.1s-2,4.5-9.6,21.9
			C1420.4,809.4,1425,809.6,1429.8,810.1z"/>
		<ellipse fill="#33AF92" cx="1509.5" cy="598" rx="182.4" ry="181"/>
		<ellipse fill="#268071" cx="1510.4" cy="595.3" rx="166.4" ry="165.7"/>
		<path fill="#7DF3D8" d="M1498.8,457.6c-64.1,0-119.7,36-147.5,88.9c-4.8,15.4-7.4,31.9-7.4,48.9c0,91.5,74.5,165.7,166.4,165.7
			c64.1,0,119.7-36,147.5-88.9c4.8-15.4,7.4-31.9,7.4-48.9C1665.2,531.8,1590.7,457.6,1498.8,457.6z"/>
		<circle fill="#E8FFFA" cx="1588.1" cy="556" r="3.7"/>
		<path fill="#E8FFFA" d="M1571.2,513.5c5.3,16.4,10.4,24.3,18.9,29.4s17,2.2,19.4-1.7s3.9-13.7-11-29.2s-25-7.5-26.4-5.5
			C1570.7,508.4,1570.5,511.5,1571.2,513.5z"/>
	</g>
</g>
</svg>
